<?xml version="1.0" encoding="UTF-8"?>
<svg viewBox="0 0 640 480" xmlns="http://www.w3.org/2000/svg">
 <defs>
  <filter id="a" color-interpolation-filters="sRGB">
   <feGaussianBlur stdDeviation="2.705999"/>
  </filter>
 </defs>
 <rect x="37.5" y="132.68" width="100.44" height="307.54" fill="#8f5902" stroke="#6d4301" stroke-linecap="round" stroke-linejoin="round" stroke-width="2"/>
 <path d="m107.82 249.21c-4.0321-7.3484-5.0451-15.808-5.5299-23.778 0.4538-10.439-1.3815-21.177 2.6746-31.321 9.5785-7.952 17.802 3.4293 20.355 9.8435 4.3593 7.3637 0.40359 15.761 1.5508 23.557-1.1958 7.9501 3.4971 17.701-5.3241 23.875-3.3307 4.4733-18.378-1.0028-12.64-3.5847 4.0428 2.3369 9.2019 5.4714 13.86 1.5897-0.60589 1.2865 3.4703-6.4003 2.0016-9.2148-0.24275-10.277 0.34678-20.563 0.25314-30.825-3.6156-5.7301-5.2795-16.652-16.122-15.872-2.8111 0.61288-4.1122 1.5507-1.6747-0.63924-4.6852 11.278-2.2161 23.335-2.7639 34.974-0.31156 7.0962 5.2218 15.656 4.129 21.531-0.35645 0.23955-0.492-0.12285-0.77013-0.13635v9.2e-5zm4.355-10.753c-6.6756-5.5314-5.1424-13.936-5.9045-20.929-2.2546-4.538 3.0866-15.786 8.8212-7.4622 5.0562 6.2549 8.4688 13.924 4.8565 21.149-0.21202 2.0991-6.0275 10.689-3.6093 5.8853-2.4718 1.5701 3.2725-6.7003 2.9012-9.567 1.0315-6.5549-3.2802-12.916-8.1243-18.053-4.7185-0.44699-0.11968-3.2074-2.7538 1.0097 0.19218 8.3416-1.026 17.301 4.0175 24.98 1.8793 0.94476 3.1724 2.7231-0.20458 2.9879zm3.6911 131.82c-4.4137-29.532-2.7919-59.304-3.5734-88.963-0.63918-3.7638 1.9623-9.5413 1.1516-2.3184-0.029602 29.121-0.7597 58.413 3.8691 87.334-0.036926 0.28659-0.63638 5.7975-1.4473 3.9467zm-13.386 21.261c-0.72945-24.823-3.9812-49.61-3.8964-74.47-0.064781-7.565 0.075554-9.4802-0.2467-17.661-1.8568-14.789-1.6084-29.688-3.3445-44.475-1.0378-4.3715-0.52588-13.99 2.3924-15.195 0.58157 9.7046 0.95863 19.399 1.789 29.11 1.6067 21.443 1.482 42.94 2.7572 64.386 1.0063 16.26 2.4451 32.51 3.9777 48.73-0.078697 1.7457-2.278 11.689-3.4287 9.5761z" fill="#6d4301"/>
 <path d="m152.48 249.54c1.0378 10.737 0.48509 21.532 0.28923 32.284-0.98225 39.151-1.5398 78.318-0.83298 117.48 0.16499 8.3877 0.55626 16.77 1.1182 25.147l-5.34 2.3456c-0.008118-8.5579 0.005447-17.116 0.060257-25.674 0.30917-39.101 1.0521-78.203 0.43623-117.3-0.13384-10.558 0.002274-21.195-1.628-31.698l5.8968-2.5748h1.68e-4z" fill="#6d4301"/>
 <rect x="137.93" y="132.68" width="100.44" height="307.54" fill="#8f5902" stroke="#6d4301" stroke-linecap="round" stroke-linejoin="round" stroke-width="2"/>
 <path d="m164.67 350.52c6.5958 9.7528-1.9619 23.196 9.7285 31.154 10.534 3.8362 8.1777-12.19 10.975-17.86 2.8129-8.3782-10.461-20.131-19.08-18.153-0.94385 3.8269 0.20573 20.205-3.8567 8.2954-1.3396-13.862 21.272-12.34 22.877-0.25616 3.789 11.039 0.96342 24.106-9.3238 32.639-16.04-8.0232-7.0864-24.161-11.319-35.818zm7.4567 6.8188c-4.6296 4.6423 13.136 20.725 4.3888 9.1486-3.647-3.7808-0.76092-9.8142 1.5253-2.1876 4.3965 5.1995 1.16 13.145-5.2022 5.1404-2.5153-3.6438-3.7518-8.4023-0.71191-12.101zm50.807-156.31c-15.192 55.275-9.3012 112.05-10.824 168.09 0.082748 18.53-0.079849 37.105 2.2942 55.568 8.293 6.1426-7.246 14.669-5.6176 3.7158 0.592-19.955-0.64438-40.018-0.39648-60.018 0.21265-39.282-0.43051-78.592 1.5404-117.85 1.1156-15.761 3.1893-31.508 7.0817-47.018 1.9737-0.82906 3.9475-1.6581 5.9213-2.4871zm-40.315-46.088c13.679 71.034 11.91 143.02 14.163 214.6-1.481 8.3758 4.7765 27.117-4.1932 28.459 5.4889-6.2626 1.3725 5.1845-1.1349-1.3435 2.663-41.388 0.73009-82.86-0.74133-124.25-1.7037-38.412-4.0196-77.23-13.968-114.88 1.3948-1.4941 4.4445-1.1206 5.8746-2.5865zm-28.797 26.865c15.843 27.523 11.669 58.261 13.707 87.514 0.38886 21.597 0.56822 43.203 1.959 64.78-13.928-0.13919-0.89998-17.125-6.0165-23.946-1.3103-37.085 1.9739-74.685-7.8488-111.24-1.9462-5.1166-10.074-12.964-1.8004-17.102z" fill="#6d4301"/>
 <rect x="238.37" y="132.68" width="100.44" height="307.54" fill="#8f5902" stroke="#6d4301" stroke-linecap="round" stroke-linejoin="round" stroke-width="2"/>
 <path d="m282 225.67c1.7435-7.9115-0.27603-17.493 7.9374-23.587 14.774-5.4975 13.836 13.563 12.316 20.456-0.68454 8.2558 6.002 19.223-3.6854 25.515-15.485 4.2331-16.76-12.756-16.065-20.622-0.2214-4.0796 2.3749-10.223 2.1501-2.3965-0.33997 7.467-1.2353 24.296 14.24 20.528 8.7481-6.8175-1.9335-17.854 2.2469-26.36 3.6382-7.1346-6.1319-23.219-14.824-11.712-3.119 4.7649 0.12079 12.884-4.3161 18.179zm5.6692 7.4529c-2.0345-5.6185-3.295-22.925 9.1388-16.788 6.8 5.3314 1.7018 22.569-8.2079 16.821-0.99371-6.8709 8.0929 3.0303 9.7185-4.3664 3.5156-5.5302-10.988-18.515-10.019-7.191 0.21979 3.7895 2.1176 8.0199-0.63028 11.524zm30.703-47.611c-0.3887 57.01-9.9272 113.74-22.24 169.88-1.0527 3.3218-2.0596 17.28-6.8266 11.018 3.5115-9.3813 4.7217-19.109 7.1073-28.712 8.9087-42.303 15.422-85.022 16.407-127.9 0.043121-7.2396-0.098022-14.479-0.34476-21.716 1.9655-0.85826 3.9315-1.7166 5.8968-2.5748v-6.1e-5zm-0.2026 1.4293c-0.51208 61.532-3.7748 123.02-7.7739 184.47-2.51 5.9005 5.3224 17.03-3.4278 18.872-4.2807-7.0463 0.74081-16.015-0.055206-23.835 4.24-44.793 4.8487-89.72 5.8334-134.61 0.14072-14.12 0.054016-28.243-0.40115-42.359 1.9415-0.84775 3.8832-1.6956 5.8246-2.5433zm-48.072-5.8536c7.5268 26.869 5.7467 54.533 6.4516 81.827-0.4014 43.446-4.3874 87.222 4.4516 130.36 2.082 5.4665 16.183 11.489 7.7254 16.991-4.8316-8.8092-13.518-16.806-12.861-26.904-7.3301-58.851 1.2122-118.09-6.254-176.93 2.015-8.2624-9.1198-18.747-0.84308-25.031l1.3292-0.319z" fill="#6d4301"/>
 <rect x="338.81" y="132.68" width="100.44" height="307.54" fill="#8f5902" stroke="#6d4301" stroke-linecap="round" stroke-linejoin="round" stroke-width="2"/>
 <path d="m383.75 171.42c3.5279 20.041 5.2758 40.561-0.12619 60.514-11.091 46.699-16.838 94.097-19.164 141.5 0.66205 7.4655-1.8129 16.195 4.1161 22.673 2.1034 1.9876-7.1158 4.3812-7.0908 0.044098-3.5897-9.514-1.0694-19.716-0.867-29.477 3.7196-46.484 9.4665-92.933 19.897-138.84 3.8528-18.066 1.5668-36.529-2.512-54.442 1.9158-0.6592 3.8317-1.3184 5.7475-1.9776zm-33.722 2.4983c6.6643 15.264 4.3017 31.68 5.2474 47.511 0.69766 55.866-0.86136 111.75 1.1291 167.61 1.5777 4.6516 1.8089 13.731-1.4614 11.371 9.9155-3.8026-5.7336 5.2257-2.8924-2.5614-0.82175-33.659 0.87744-67.337 0.27356-101-0.48407-35.674 0.31674-71.434-3.4947-107.02 1.6748-5.6758-9.95-14.154 0.87195-15.787l0.3265-0.1193v7.6e-5z" fill="#6d4301"/>
 <path d="m59.216 149.3v274.29h358.31v-274.29h-358.31zm33.931 25.974h290.45v222.34h-290.45v-222.34z" fill="#2e3436" filter="url(#a)" stroke="#2e3436" stroke-linecap="round" stroke-linejoin="round" stroke-width="2"/>
 <path d="m37.5 132.68l47.503 36.364h306.73l47.503-36.364h-401.74z" fill="#8f5902" stroke="#6d4301" stroke-linecap="round" stroke-linejoin="round" stroke-width="2"/>
 <path d="m241.78 154.79c53.895 0.48271 108.08-1.1988 161.17-8.7607-13.769 7.861-31.942 4.2933-47.594 7.4832-39.478 3.1957-79.19 4.4126-118.88 4.5267 1.766-1.083 3.5319-2.1662 5.298-3.2492zm12.852-13.466c24.44 0.20882 48.522-6.3034 73.009-3.1845 16.441 0.88222 32.82 2.5921 49.322 2.6926-18.748 4.9127-38.215-1.2332-57.32-0.90712-23.17-1.4089-46.127 3.0501-69.048 3.8327-1.9253-1.2444 3.0764-2.1013 4.0379-2.4336zm-163.53 4.0202c52.297-0.38753 104.74 4.837 156.91 0.14363 5.0432-2.9371 21.007-0.15315 6.7997 1.459-52.779 6.2004-106.26 0.75131-159.33 1.4631-5.7896-0.34131-13.922 1.6505-4.3808-3.0657zm-18.304 7.9215c72.124 0.46004 144.46-0.60933 216.29 5.3801 23.636 1.2314 47.299 2.1504 70.974 2.8001-15.504 5.017-32.09-0.94447-48.101 0.41087-63.763-3.2444-127.62-7.5741-191.58-5.6633-17.618 0.063431-35.235 0.15231-52.852 0.30559 1.7574-1.0778 3.5147-2.1556 5.2722-3.2334z" fill="#6d4301"/>
 <path d="m37.5 132.68v307.54l47.503-36.364v-234.81l-47.503-36.364z" fill="#8f5902" stroke="#6d4301" stroke-linecap="round" stroke-linejoin="round" stroke-width="2"/>
 <path d="m54.402 157.98c5.2793 45 2.315 90.229 2.8053 135.34-0.63737 35.052-3.6485 70.079-8.9741 104.9 1.538 3.3865-1.0509 18.492-5.5454 11.339 1.4308-21.94 7.4602-43.542 8.5607-65.517 4.2957-51.041 2.398-102.24 0.76045-153.32-0.61841-10.088-1.6715-20.166-3.4749-30.172 1.956-0.85406 3.912-1.708 5.868-2.5622zm11.431 88.461c5.9286 8.3488 2.5195 18.284 3.9003 27.337 0.46601 40.41-4.3457 80.802-5.2524 121.13 3.3545 3.7722-3.2832 18.302-3.924 8.647 0.86993-38.407 4.521-76.763 4.6047-115.18-0.70567-12.939 0.53526-26.301-3.827-38.855 0.40839-1.6766 2.7665-2.3787 4.4985-3.0746zm10.02 65.7c-7.8229-46.906-3.2085-94.234-1.4147-141.3 2.1276 11.357-1.2532 22.798-0.95264 34.213-1.9355 34.495-2.6344 69.241 3.9196 103.49-0.092262 0.46115-0.51488 5.1957-1.5522 3.5939z" fill="#6d4301"/>
 <path d="m85.003 403.85l-47.503 36.364h401.74l-47.503-36.364h-306.73z" fill="#8f5902" stroke="#6d4301" stroke-linecap="round" stroke-linejoin="round" stroke-width="2"/>
 <path d="m77.943 430.16c18.517-1.3001 36.485-5.6783 55.042-7.0933 57.559-5.2629 115.61-6.1286 173.47-8.187 24.848-0.65195 49.688-1.6682 74.558-1.6351-4.5734 4.5277-12.224 2.0922-18.619 2.5998-64.536 0.61127-129.04 3.2003-193.41 6.6805-29.293 1.523-58.375 4.8972-86.94 10.075-7.427 0.4711-13.179 2.5492-4.0956-2.4402zm63.254-6.756c41.485 9.2513 85.343 9.1126 127.94 5.3224 39.485-3.1644 79.214-5.5877 118.92-3.562 4.6527 0.97855 23.823-1.6187 12.976 2.9444-33.678-0.96786-67.436-1.8918-101.05 0.60886-44.844 2.6003-90.129 8.2522-134.98 2.3996-8.53-1.474-23.945-2.5725-28.196-5.2989 1.463-0.80487 2.9258-1.6096 4.3887-2.4143zm-23.306-6.2278c33.123 0.90066 65.947-3.3951 98.956-4.749 66.583-3.9006 133.47-6.3764 200.21-3.3805-7.0065 5.4518-18.244 0.54138-27.118 1.5924-83.414-3.1754-166.8 2.768-249.69 9.2577-7.9493-0.066315-22.72 1.4404-26.55-0.14984 1.3972-0.8569 2.7945-1.7139 4.1917-2.5707z" fill="#6d4301"/>
 <path d="m439.24 132.68l-47.503 36.364v234.81l47.503 36.364v-307.54z" fill="#8f5902" stroke="#6d4301" stroke-linecap="round" stroke-linejoin="round" stroke-width="2"/>
 <path d="m402.82 292.99c-1.6326 10.98-0.63525 22.039-0.33865 33.051-4.4523-4.3229-0.48654-14.147-2.1714-20.545-0.10492-4.227 0.18185-8.5992 2.51-12.506zm0.0774 68.819c-0.81772 4.2109 6.2966 20.064 5.8403 8.0127-1.7275-2.9228-10.216-16.322-2.477-11.334 0.76239 5.8215-4.1275 7.5002-1.414 4.9394-3.7906-3.8858-2.8737-10.47 2.1136-3.2916 3.5913 4.244 5.1075 16.556-1.6215 16.584-2.872-4.5293-5.4592-10.025-2.4414-14.911zm13.585-176.98c-4.2314-6.7584-0.47607-23.684 11.194-21.122 7.3305 6.7754 9.6246 19.038-0.2406 25.045-9.0804 5.7888-11.534-15.848-6.2055-5.4794 11.024 9.8424 14.126-9.2475 8.3855-14.335-10.934-7.8173-16.79 6.7054-11.95 13.097l-1.1834 2.794h1.53e-4 -1.53e-4zm5.0104-5.8673c-6.0877-9.07 14.864-12.196 8.6047-1.0226-4.2496 4.1339-13.306-2.6314-3.1428-0.61174 6.2596-1.6467-7.3894-10.104-3.8695-1.6641l-0.4921 1.727-1.1003 1.5714zm-17.96-8.3444c15.122 48.626 31.778 97.824 29.794 148.23-0.16418 18.045-1.6041 36.073-3.8406 54.034-8.3833 2.8656 0.22711-11.769-1.4858-16.001 5.8858-47.425 0.99982-95.629-15.206-141.65-4.409-13.727-9.2393-27.373-14.145-41 1.6278-1.2034 3.2554-2.407 4.8832-3.6102zm-5.6719 35.421c5.7331 15.54 16.743 30.067 17.608 46.53 5.7028 37.897 3.6984 76.136 6.7229 114.16 0.83487 15.678 1.7977 31.351 2.9159 47.019-6.2-11.46-1.4721-24.231-3.9842-36.224-2.3125-41.858-2.0696-83.887-8.1371-125.56-2.6518-15.67-9.8737-30.559-18.228-44.888-1.7017-2.8495 0.78332-3.6351 3.1031-1.0386z" fill="#6d4301"/>
 <rect transform="matrix(.94297 -.72137 0 2.0611 1677.8 849.06)" x="-1312.4" y="-806.91" width="37" height="148" fill="#8f5902" stroke="#6d4301" stroke-linecap="round" stroke-linejoin="round" stroke-width="3.381"/>
 <path d="m464.67 229.58c-1.4006-6.2172-1.7525-14.339-1.921-22.116 0.15768-10.475-0.47968-20.638 0.92926-31.777 3.3275-10.433 6.184-1.3295 7.0711 4.3543 1.5143 6.1453 0.1402 15.525 0.53867 22.953-0.41531 8.2031 1.2148 16.627-1.8496 25.096-1.1569 5.3221-6.3841 3.8893-4.3908-0.19667 1.4043 1.2436 3.1966 2.9816 4.8151-2.1067-0.21075 1.4373 1.2054-7.2704 0.69513-9.6718-0.084137-10.129 0.12048-20.488 0.088013-30.641-1.256-4.7226-1.8341-15.113-5.6007-11.458-0.97659 1.3549-1.4285 2.6308-0.58179-0.18898-1.6277 12.432-0.76984 23.734-0.96014 35.425-0.10825 7.1214 1.8138 14.141 1.4342 20.259-0.12372 0.33232-0.17087 0.008881-0.26755 0.069519zm1.513-11.823c-2.319-3.7123-1.7865-12.456-2.0512-19.19-0.78326-3.9021 1.0723-16.478 3.0643-9.7459 1.7566 4.8603 2.942 11.56 1.6873 19.686-0.074005 2.1388-2.0941 12.204-1.254 6.7968-0.8587 2.2142 1.1368-7.5156 1.0079-10.26 0.35818-6.7755-1.1396-11.939-2.8223-15.748-1.6391 0.81061-0.041656-3.1493-0.95679 1.7335 0.067017 8.2224-0.35635 17.433 1.3958 23.709 0.65271 0.4379 1.1021 1.8578-0.071045 3.0179zm1.2823 129.76c-1.5332-28.119-0.96994-58.08-1.2414-87.29-0.22214-3.5635 0.68173-9.9854 0.39993-2.6057-0.010162 28.892-0.26382 58.14 1.3442 85.596-0.012909 0.29385-0.2211 5.9192-0.50281 4.2992zm-4.6499 24.645c-0.25348-24.428-1.3832-48.149-1.3536-72.83-0.022583-7.4863 0.026154-9.4232-0.085632-17.452-0.64511-14.175-0.55875-29.019-1.162-43.225-0.3605-4.0599-0.1825-13.737 0.83099-15.707 0.20206 9.4712 0.33295 18.987 0.62146 28.397 0.55829 20.841 0.51504 42.197 0.95795 63.13 0.34943 15.861 0.84927 31.596 1.3818 47.277-0.027222 1.7523-0.79132 12.2-1.191 10.41z" fill="#6d4301"/>
 <path d="m480.18 218.03c0.3605 10.374 0.16843 21.228 0.10056 31.944-0.34116 39.094-0.53491 78.091-0.28934 116.74 0.057281 8.2756 0.19336 16.486 0.3884 24.645l-1.8551 3.7456c-0.002747-8.4861 0.002106-16.978 0.02121-25.481 0.10718-38.865 0.36536-77.847 0.15146-116.47-0.0466-10.437 6.41e-4 -21.024-0.56558-31.008l2.0484-4.121z" fill="#6d4301"/>
 <rect transform="matrix(.94297 -.72137 0 2.0611 1677.8 849.06)" x="-1275.4" y="-806.91" width="37" height="148" fill="#8f5902" stroke="#6d4301" stroke-linecap="round" stroke-linejoin="round" stroke-width="3.381"/>
 <path d="m484.42 314.96c2.2913 7.9207-0.68146 23.529 3.3796 28.315 3.6592 1.0056 2.8408-14.264 3.8126-20.632 0.9769-9.0575-3.634-17.188-6.6284-12.935-0.32791 4.0466 0.071594 19.986-1.3397 9.2529-0.46545-13.393 7.3897-17.892 7.947-6.3334 1.3163 9.9427 0.33472 23.654-3.239 34.851-5.5719-3.6955-2.4617-22.082-3.932-32.52zm2.5903 4.7818c-1.6082 5.8347 4.5632 17.066 1.5249 7.9075-1.2672-2.7807-0.26462-9.5321 0.52969-2.575 1.5271 3.9888 0.40305 12.73-1.8072 6.4813-0.87375-2.9458-1.3034-7.3371-0.24738-11.814zm17.65-168.55c-5.2773 58.862-3.2311 113.61-3.76 169.6 0.028748 18.358-0.027802 36.825 0.797 54.507 2.881 3.8887-2.5172 16.475-1.9515 5.1783 0.20581-19.95-0.22382-39.522-0.13773-59.425 0.073883-39.019-0.1496-77.838 0.53513-117.3 0.38754-15.929 1.108-32.099 2.46-48.518 0.68594-1.3468 1.3715-2.6938 2.0571-4.0405zm-14.005-35c4.7522 66.822 4.1375 138.69 4.9201 209.09-0.51453 8.7014 1.6591 25.628-1.4566 29.342 1.9066-7.6701 0.47675 4.7776-0.39441-1.0307 0.92502-41.76 0.25372-82.38-0.25736-123.05-0.59186-37.647-1.3966-75.534-4.8523-110.23 0.48465-1.8526 1.5438-2.2923 2.0406-4.1266zm-10.004 34.3c5.5035 23.088 4.0534 54.686 4.7613 83.16 0.13513 21.318 0.1976 42.701 0.68051 63.733-4.8385 3.5634-0.31262-16.746-2.09-22.153-0.45535-36.435 0.68567-74.602-2.7266-108.26-0.67587-4.5578-3.4993-10.182-0.62524-16.484z" fill="#6d4301"/>
 <rect transform="matrix(.94297 -.72137 0 2.0611 1677.8 849.06)" x="-1238.4" y="-806.91" width="37" height="148" fill="#8f5902" stroke="#6d4301" stroke-linecap="round" stroke-linejoin="round" stroke-width="3.381"/>
 <path d="m525.18 159.94c0.60596-8.3105-0.095764-17.277 2.7577-25.505 5.1319-9.3787 4.8064 9.7758 4.278 17.017-0.23779 8.3706 2.0851 17.472-1.2803 26.287-5.3792 8.3137-5.8222-8.1988-5.5807-16.185-0.076904-3.9876 0.82495-10.771 0.74695-2.9484-0.11816 7.4968-0.42926 24.427 4.947 16.576 3.039-9.0868-0.67175-17.195 0.78052-26.742 1.2638-8.0434-2.1302-21.4-5.1497-7.6771-1.0836 5.555 0.041809 12.747-1.4995 19.178zm1.9695 5.8857c-0.70679-5.0321-1.1445-21.863 3.1746-19.08 2.3622 3.4809 0.59125 21.933-2.8511 18.865-0.34534-6.551 2.8112 0.85503 3.3762-6.9136 1.221-6.4194-3.8173-15.444-3.4808-4.4698 0.076538 3.7001 0.73572 7.3918-0.21887 11.598zm10.666-55.384c-0.13477 56.649-3.4484 115.45-7.7256 174.41-0.36591 3.5747-0.71558 17.686-2.3714 12.742 1.2198-10.238 1.6402-20.208 2.4691-30.367 3.0945-44.327 5.3573-88.43 5.6993-131.22 0.014893-7.1919-0.033997-14.335-0.11987-21.448 0.68292-1.3738 1.3658-2.7474 2.0484-4.121zm-0.0701 1.4715c-0.17792 61.168-1.3113 123.03-2.7007 185.04-0.87183 6.5196 1.849 15.477-1.1907 19.629-1.4873-5.8513 0.25732-16.082-0.019043-23.627 1.4729-45.556 1.6841-90.279 2.0263-135.06 0.048767-14.043 0.018799-28.028-0.13928-41.908 0.67426-1.3567 1.3488-2.7135 2.0234-4.0704zm-16.7 6.9692c2.6144 24.65 1.9962 52.562 2.2412 79.448-0.13959 43.2-1.524 87.679 1.5463 128.12 0.72339 4.8686 5.622 7.0948 2.6838 14.8-1.6785-7.4536-4.6961-13.077-4.4678-23.267-2.5465-56.424 0.42133-117.45-2.1726-173.83 0.70013-8.7307-3.168-16.171-0.29285-24.604l0.4619-0.6696z" fill="#6d4301"/>
 <rect transform="matrix(.94297 -.72137 0 2.0611 1677.8 849.06)" x="-1201.4" y="-806.91" width="37" height="148" fill="#8f5902" stroke="#6d4301" stroke-linecap="round" stroke-linejoin="round" stroke-width="3.381"/>
 <path d="m560.52 79.088c1.2257 18.941 1.8327 38.829-0.043823 60.056-3.8532 49.267-5.8493 97.807-6.6574 145.45 0.22992 7.2288-0.62988 16.546 1.4298 21.395 0.73071 1.4122-2.4721 6.2366-2.4633 1.928-1.2472-8.4825-0.37158-19.272-0.30121-29.008 1.2922-47.094 3.2885-94.693 6.9119-143 1.3385-18.944 0.54419-36.648-0.87274-53.332 0.66577-1.1632 1.3311-2.3261 1.9967-3.4889zm-11.715 11.44c2.3151 13.368 1.4944 30.28 1.8229 45.73 0.24237 55.227-0.29913 111.07 0.39227 165.94 0.54816 4.1947 0.62854 13.139-0.50769 11.667 3.4445-6.4064-1.9919 6.7071-1.0049-1.7718-0.28546-33.167 0.30475-67.023 0.095032-100.26-0.16797-35.255 0.11023-70.937-1.2139-105.22 0.58166-6.0747-3.4564-11.395 0.3028-15.89l0.1134-0.205z" fill="#6d4301"/>
 <path d="m447.78 143.4v272.06l124.47-95.22v-272.06l-124.47 95.22zm11.787 16.746l100.9-77.186v220.53l-100.9 77.186v-220.53z" fill="#2e3436" filter="url(#a)" stroke="#2e3436" stroke-linecap="round" stroke-linejoin="round" stroke-width="3.381"/>
 <path d="m440.24 132.68l16.502 23.445 106.56-81.514 16.502-48.692-139.56 106.76z" fill="#8f5902" stroke="#6d4301" stroke-linecap="round" stroke-linejoin="round" stroke-width="3.381"/>
 <path d="m511.21 100.32c18.722-13.844 37.546-29.911 55.989-51.521-4.7833 11.456-11.096 12.747-16.534 20.07-13.714 13.661-27.51 25.421-41.295 36.081 0.61352-1.5434 1.2267-3.0871 1.8403-4.6305zm4.4646-16.772c8.4904-6.2878 16.856-19.147 25.362-22.561 5.7114-3.4942 11.401-6.1509 17.134-10.437-6.5129 9.8554-13.276 8.9326-19.912 14.333-8.0491 4.7602-16.024 15.284-23.986 22.151-0.66882-0.7227 1.0686-2.9017 1.4027-3.4871zm-56.808 47.445c18.167-14.282 36.384-23.036 54.508-41.556 1.752-4.2535 7.2976-5.7346 2.3622-0.35996-18.335 20.176-36.915 28.985-55.349 43.793-2.0112 1.1999-4.8362 5.3368-1.5218-1.8767zm-6.3586 12.721c25.055-18.711 50.184-38.995 75.135-52.141 8.211-5.0598 16.431-10.437 24.656-16.084-5.3862 9.0967-11.148 7.5912-16.71 13.191-22.15 13.727-44.332 26.401-66.552 45.295-6.1201 4.7447-12.24 9.5149-18.36 14.348 0.61029-1.5359 1.2208-3.072 1.8313-4.6081z" fill="#6d4301"/>
 <path d="m440.24 132.68v305.04l16.502-48.692v-232.9l-16.502-23.445z" fill="#8f5902" stroke="#6d4301" stroke-linecap="round" stroke-linejoin="round" stroke-width="3.381"/>
 <path d="m446.11 153.29c1.8339 43.232 0.80414 88.88 0.97449 133.49-0.2214 34.937-1.2673 70.478-3.1173 106.43 0.53406 2.9505-0.36511 18.621-1.9265 12.721 0.49716-22.141 2.5917-45.171 2.974-67.259 1.4921-51.768 0.83298-102.04 0.26407-152.28-0.21478-9.8413-0.58063-19.558-1.2069-29.004 0.67923-1.3668 1.3587-2.7337 2.0383-4.1007zm3.9713 84.704c2.0593 6.7056 0.87509 17.466 1.3548 26.078 0.16186 39.958-1.5097 81.3-1.8247 121.54 1.1654 2.8502-1.1404 19.026-1.3631 9.6197 0.30231-38.326 1.5706-77.341 1.5996-115.47-0.24524-12.646 0.186-26.229-1.3295-37.522 0.14194-1.7714 0.96109-3.0945 1.5629-4.2452zm3.4809 62.504c-2.7177-44.445-1.1147-92.615-0.49149-139.78 0.73914 10.7-0.43539 22.946-0.33102 34.188-0.6723 34.729-0.91519 69.378 1.3616 101.61-0.031891 0.48196-0.17883 5.2903-0.53912 3.9774z" fill="#6d4301"/>
 <path d="m456.74 389.02l-16.502 48.692 139.56-106.76-16.502-23.445-106.56 81.514z" fill="#8f5902" stroke="#6d4301" stroke-linecap="round" stroke-linejoin="round" stroke-width="3.381"/>
 <path d="m454.29 416.99c6.4325-6.2102 12.674-15.328 19.121-21.663 19.995-20.516 40.162-36.802 60.26-54.219 8.6316-7.2499 17.261-14.859 25.9-21.435-1.5888 5.7064-4.2465 5.3236-6.4683 7.5268-22.419 17.757-44.826 37.466-67.189 58.026-10.176 9.2951-20.279 20.37-30.202 33.097-2.5802 2.4412-4.5785 6.0312-1.4227-1.3319zm21.973-23.51c14.411-1.8483 29.647-13.642 44.446-28.722 13.716-13.631 27.518-26.593 41.31-35.135 1.6162-0.26569 8.2759-7.9364 4.5077-0.52786-11.699 7.99-23.426 16.045-35.104 27.459-15.578 14.496-31.31 32.137-46.889 38.25-2.9631 0.80475-8.3182 3.8117-9.7947 2.2372 0.50806-1.187 1.0164-2.3742 1.5244-3.5609zm-8.0962 0.0162c11.506-7.909 22.909-20.893 34.376-31.008 23.13-21.563 46.365-41.794 69.551-56.559-2.434 7.2694-6.3377 5.3852-9.4206 8.7862-28.977 19.018-57.942 47.071-86.739 75.538-2.7618 2.0468-7.8928 7.4665-9.2232 6.907 0.4855-1.2213 0.9708-2.4426 1.4562-3.6638z" fill="#6d4301"/>
 <path d="m579.8 25.915l-16.502 48.692v232.9l16.502 23.445v-305.04z" fill="#8f5902" stroke="#6d4301" stroke-linecap="round" stroke-linejoin="round" stroke-width="3.381"/>
 <path d="m567.15 194.6c-0.5672 11.324-0.2207 22.029-0.11755 32.872-1.5466-3.1046-0.16919-13.902-0.75446-19.801-0.036377-4.1648 0.063293-8.5777 0.87201-13.071zm0.0268 68.239c-0.28388 4.3937 2.1876 18.228 2.0289 6.3953-0.59992-2.4399-3.5488-13.474-0.86066-10.584 0.26514 5.5716-1.4337 8.5362-0.49084 5.275-1.3169-2.8469-0.9986-9.6211 0.73407-3.8266 1.2476 3.2553 1.7743 15.064-0.56311 16.881-0.9978-3.7293-1.8965-8.493-0.84833-14.141zm4.7194-179.15c-1.47-5.579-0.16534-23.365 3.8887-23.925 2.5463 4.7723 3.3434 16.326-0.083679 24.906-3.1544 8.1548-4.0066-12.654-2.1558-3.7858 3.8295 6.8329 4.9072-12.926 2.9129-16.447-3.7983-4.8479-5.8325 11.113-4.1509 16.166l-0.4112 3.0858zm1.7407-7.1512c-2.1148-7.3785 5.1635-16.046 2.9892-3.3009-1.4762 5.2295-4.6222 0.926-1.0918 0.22829 2.1744-3.2968-2.567-8.0576-1.3444-0.62195l-0.1708 1.8435-0.3821 1.851zm-6.2391-3.5035c5.2534 44.211 11.039 88.584 10.35 139.11-0.05719 17.942-0.55743 36.206-1.3344 54.616-2.9123 5.0705 0.078979-11.734-0.51617-15.476 2.0448-48.603 0.34741-95.117-5.2823-136.46-1.5316-12.444-3.2095-24.695-4.9136-36.908 0.56525-1.6264 1.1307-3.2525 1.6961-4.8785zm-1.9702 36.64c1.9917 13.89 5.8163 25.374 6.1166 41.472 1.9811 36.074 1.2847 74.535 2.3353 111.45 0.2901 15.328 0.62463 30.619 1.013 45.862-2.1536-9.719-0.51141-23.643-1.3841-34.87-0.80316-40.903-0.71893-82.655-2.8266-122.38-0.92139-14.838-3.43-27.687-6.3323-39.679-0.59119-2.3739 0.2721-3.8138 1.0781-1.855z" fill="#6d4301"/>
 <rect transform="matrix(2.6942 0 -.94296 .72137 524.28 482.48)" x="-349.28" y="-632.91" width="37" height="148" fill="#8f5902" stroke="#6d4301" stroke-linecap="round" stroke-linejoin="round" stroke-width="3.381"/>
 <path d="m196.97 66.371c-0.66728-2.551 2.1661-5.4877 5.302-8.2548 5.1876-3.6239 8.2386-7.3516 16.868-10.873 13.115-2.7606 16.113 1.1905 15.736 3.4172 0.98523 2.5564-6.7515 5.4714-9.1507 8.1779-4.7945 2.7599-4.5614 6.1449-16.119 8.2883-5.3358 1.5529-17.786-0.34814-10.919-1.2444 2.9523 0.8113 6.6503 1.8994 13.036 0.55187-1.1851 0.44662 6.3488-2.2219 6.1682-3.199 4.4228-3.5677 9.6757-7.1386 14.239-10.701-0.98825-1.9892 2.3165-5.7808-8.7994-5.5101-3.0682 0.21275-4.785 0.53835-1.3721-0.2219-9.7681 3.9152-12.789 8.1008-18.614 12.142-3.5294 2.4635-1.9218 5.4351-5.6726 7.4747-0.46243 0.083183-0.4325-0.04261-0.70245-0.047325l-1e-4 1e-4zm9.2019-3.7328c-4.1157-1.9202 1.2202-4.8379 3.6372-7.2656-0.17839-1.5754 10.227-5.4802 12.142-2.5906 2.18 2.1714 2.0868 4.8339-4.7771 7.342-1.1631 0.72871-10.833 3.7107-6.253 2.0431-3.166 0.54507 6.2884-2.326 7.2209-3.3212 3.9982-2.2755 2.6055-4.4839 0.12877-6.2673-4.4804-0.15517 1.3368-1.1135-3.1913 0.3505-3.5946 2.8958-8.8696 6.0062-7.3481 8.6718 1.4366 0.32795 1.913 0.94533-1.559 1.0373zm-56.154 45.76c9.0206-10.252 24.141-20.588 36.824-30.884 1.0736-1.3066 6.2774-3.3124 2.195-0.80484-13.244 10.109-27.261 20.278-35.792 30.318-0.16675 0.099503-3.2625 2.0127-3.2275 1.3701zm-22.934 7.3807c10.54-8.6174 18.561-17.222 29.927-25.853 3.3687-2.6262 4.3771-3.2911 7.7698-6.1313 4.8681-5.134 11.876-10.306 16.863-15.44 0.95374-1.5176 5.8268-4.8568 9.2699-5.275-3.8266 3.369-7.8517 6.7345-11.434 10.106-8.1358 7.444-18.015 14.907-26.481 22.352-6.3799 5.6448-12.326 11.286-18.166 16.917-0.87019 0.60596-7.5656 4.058-7.7487 3.3243z" fill="#6d4301"/>
 <path d="m241.15 66.483c-3.8423 3.7273-9.2894 7.4748-14.363 11.207-18.742 13.592-37.069 27.189-54.136 40.782-3.6425 2.9118-7.0579 5.8218-10.302 8.7298 0 0-6.3645 0.81433-6.3645 0.81433 3.8755-2.971 7.7725-5.9419 11.71-8.9128 18.05-13.574 36.532-27.149 53.665-40.723 4.6585-3.6654 9.6206-7.358 12.769-11.004 0 0 7.0212-0.89388 7.0212-0.89388h2.29e-4z" fill="#6d4301"/>
 <rect transform="matrix(2.6942 0 -.94296 .72137 524.28 482.48)" x="-312.28" y="-632.91" width="37" height="148" fill="#8f5902" stroke="#6d4301" stroke-linecap="round" stroke-linejoin="round" stroke-width="3.381"/>
 <path d="m207.42 101.54c2.1207 3.3857-12.474 8.0528-4.4816 10.815 8.7141 1.3318 13.648-4.2319 18.998-6.2002 6.5939-2.9086-1.247-6.9887-10.7-6.302-2.6735 1.3286-8.9648 7.0144-7.5924 2.8798 4.9609-4.8122 26.713-4.2837 22.822-0.088898-1.249 3.8323-9.9829 8.3684-24.066 11.331-12.279-2.7853 3.9307-8.3876 5.0197-12.435zm4.3066 2.3671c-6.7016 1.6116 3.6327 7.1949 0.20454 3.1759-1.9041-1.3125 3.6984-3.407 2.5067-0.75935 2.0041 1.805-4.8137 4.5632-7.4962 1.7845-0.84294-1.265 0.089264-2.9169 4.785-4.2011zm121.36-54.266c-40.161 19.189-60.079 38.898-87.021 58.353-8.3268 6.433-16.917 12.881-22.939 19.291 5.4437 2.1324-13.849 5.0924-7.2618 1.2899 9.643-6.9275 17.52-13.892 26.842-20.836 18.037-13.637 35.237-27.284 55.008-40.912 8.2596-5.4715 17.464-10.938 28.365-16.322 2.3353-0.28783 4.6707-0.57566 7.0058-0.86341zm-19.099-16c-18.658 24.66-53.078 49.648-83.328 74.5-5.2708 2.9077-7.5648 9.4139-17.076 9.8797 8.2899-2.1741-0.99046 1.7998-0.51669-0.4664 21.425-14.368 38.326-28.765 55.649-43.135 15.74-13.335 31.057-26.811 38.267-39.88 2.0625-0.51866 4.9198-0.389 7.0045-0.89788zm-40.773 9.3263c3.235 9.5546-14.857 20.226-26.109 30.381-9.4145 7.4974-19.041 14.998-27.452 22.489-13.761-0.04834 6.8778-5.9449 4.8951-8.313 15.528-12.874 35.851-25.927 42.692-38.619 0.39023-1.7763-4.1153-4.5005 5.9738-5.9371z" fill="#6d4301"/>
 <rect transform="matrix(2.6942 0 -.94296 .72137 524.28 482.48)" x="-275.28" y="-632.91" width="37" height="148" fill="#8f5902" stroke="#6d4301" stroke-linecap="round" stroke-linejoin="round" stroke-width="3.381"/>
 <path d="m380.53 58.199c5.3207-2.7465 7.6642-6.0727 18.582-8.1884 17.158-1.9085 7.5778 4.7085 2.9408 7.1014-4.4258 2.866-2.7662 6.6735-15.236 8.8575-17.29 1.4696-10.846-4.4283-6.5871-7.1589 1.6316-1.4163 6.9962-3.5489 3.2215-0.83193-3.7258 2.5921-12.251 8.4344 4.8188 7.1263 11.776-2.3667 6.1831-6.1982 14.192-9.1509 6.8487-2.4768 4.4503-8.0605-9.3986-4.0658-5.2581 1.6542-5.727 4.4728-12.533 6.3108zm2.2447 2.5873c0.53033-1.9505 7.1328-7.9585 16.689-5.828 4.3298 1.8508-8.5525 7.8349-15.78 5.8394 2.1316-2.3853 6.6573 1.052 11.627-1.5158 5.9988-1.9198-2.5044-6.4274-6.6812-2.4964-1.5014 1.3156-1.5376 2.7842-5.8553 4.0008zm52.08-16.528c-26.256 19.791-61.467 39.485-99.165 58.975-2.5523 1.1532-9.8856 5.9987-11.775 3.8249 7.7423-3.2567 13.358-6.6338 20.084-9.9675 28.039-14.686 53.89-29.516 74.323-44.4 3.3281-2.5132 6.4734-5.0265 9.5124-7.5389 2.3403-0.29795 4.6811-0.59594 7.0211-0.89381zm-0.8495 0.4961c-28.431 21.361-59.574 42.708-91.428 64.04-5.1686 2.0484-2.4453 5.912-11.966 6.5514-1.0512-2.4462 8.0028-5.5597 10.762-8.2746 24.535-15.55 45.527-31.147 66.873-46.729 6.5472-4.9018 12.87-9.8045 18.824-14.705 2.3116-0.2943 4.6236-0.58864 6.9352-0.88294zm-45.057-2.0321c-4.7221 9.3275-19.043 18.931-30.729 28.407-20.114 15.082-43.935 30.279-54.739 45.255-0.41403 1.8977 10.849 3.9884-0.042908 5.8986-0.79804-3.0582-5.7909-5.8342-0.55597-9.3397 19.431-20.43 54.792-40.996 74.08-61.421 5.7494-2.8683-0.54456-6.508 10.522-8.6897l1.4641-0.1107z" fill="#6d4301"/>
 <rect transform="matrix(2.6942 0 -.94296 .72137 524.28 482.48)" x="-238.28" y="-632.91" width="37" height="148" fill="#8f5902" stroke="#6d4301" stroke-linecap="round" stroke-linejoin="round" stroke-width="3.381"/>
 <path d="m506.14 39.364c-5.5931 6.9575-13.17 14.081-27.586 21.008-32.2 16.212-59.413 32.666-83.235 49.124-2.7306 2.5917-9.1486 5.6222-6.2035 7.871 1.1858 0.69-9.0508 1.521-7.058 0.01535 0.75458-3.3029 7.8857-6.8446 12.516-10.233 24.786-16.137 51.568-32.262 82.752-48.198 12.022-6.2718 18.132-12.681 22.212-18.9 2.2008-0.22889 4.4014-0.45768 6.6021-0.68657l-2e-4 1e-4zm-34.604 0.8673c-0.31201 5.2988-10.107 10.998-16.352 16.494-24.659 19.394-51.568 38.796-74.938 58.186-0.54489 1.6148-4.4358 4.7668-6.6107 3.9475 11.567-1.3201-8.0622 1.8142-1.7085-0.88919 14.458-11.685 31.428-23.376 46.107-35.064 15.708-12.384 32.73-24.798 45.095-37.151 4.238-1.9704-3.4528-4.9136 8.0294-5.4805l0.3782-0.0414z" fill="#6d4301"/>
 <path d="m193.57 31.686l-124.47 95.221h355.63l124.47-95.221h-355.63zm21.89 9.0171h288.28l-100.9 77.187h-288.28l100.9-77.187z" fill="#2e3436" filter="url(#a)" stroke="#2e3436" stroke-linecap="round" stroke-linejoin="round" stroke-width="3.381"/>
 <path d="m179.56 25.915l30.646 12.624h304.44l63.65-12.624h-398.74z" fill="#8f5902" stroke="#6d4301" stroke-linecap="round" stroke-linejoin="round" stroke-width="3.381"/>
 <path d="m372.28 33.59c53.273 0.16756 107.82-0.41617 163.94-3.0414-17.234 2.729-33.652 1.4905-50.635 2.5979-40.633 1.1094-80.601 1.5318-120.04 1.5715 2.2443-0.37602 4.4886-0.75202 6.7331-1.128zm18.866-4.6748c24.163 0.072456 51.02-2.1883 73.909-1.1055 15.918 0.30628 31.398 0.89986 47.732 0.93474-20.838 1.7055-37.37-0.42809-56.481-0.3149-22.358-0.4891-47.167 1.0589-70.272 1.3305-1.3462-0.43202 4.007-0.72946 5.1121-0.84482zm-164.13 1.3957c52.082-0.13454 101.76 1.6791 155.67 0.049845 6.3384-1.0196 20.92-0.053179 6.0869 0.50646-55.199 2.1526-105.81 0.26087-158.8 0.50794-5.5915-0.11844-14.567 0.57304-2.957-1.0642zm-21.762 2.75c71.377 0.1597 143.66-0.21156 212.23 1.8677 22.901 0.42748 45.97 0.74648 69.174 0.97203-17.665 1.7417-31.422-0.32786-47.929 0.14265-61.814-1.1263-123.22-2.6294-187.58-1.966-17.515 0.022015-35.041 0.052872-52.596 0.10605 2.2333-0.37412 4.4666-0.7483 6.7-1.1224z" fill="#6d4301"/>
 <path d="m179.56 25.915l-139.56 106.76 63.65-12.624 106.55-81.515-30.646-12.624z" fill="#8f5902" stroke="#6d4301" stroke-linecap="round" stroke-linejoin="round" stroke-width="3.381"/>
 <path d="m184.85 34.7c-15.181 15.622-38.648 31.323-58.63 46.982-16.539 12.169-35.422 24.328-56.508 36.415-0.010269 1.1756-9.4344 6.4194-10.65 3.9365 11.376-7.6165 27.164-15.116 38.228-22.744 27.426-17.719 48.774-35.491 70.33-53.226 3.9638-3.5019 7.4921-7.0007 10.243-10.474 2.329-0.2965 4.658-0.59298 6.9869-0.88947zm-28.797 30.71c2.0957 2.8983-5.7963 6.3472-8.5343 9.4902-17.875 14.028-40.981 28.051-60.181 42.051 1.6177 1.3096-11.564 6.3537-7.8188 3.0019 18.292-13.333 39.322-26.649 56.84-39.987 5.1713-4.4919 12.466-9.1304 13.834-13.489 1.1662-0.58203 3.8252-0.82577 5.8601-1.0674zm-19.869 22.808c13.521-16.284 39.578-32.714 62.716-49.053-3.0421 3.9427-11.59 7.9145-16.471 11.877-17.575 11.975-34.036 24.037-43.074 35.928-0.30084 0.16008-2.8689 1.8038-3.1716 1.2477z" fill="#6d4301"/>
 <path d="m103.65 120.05l-63.65 12.624h398.74l-30.646-12.624h-304.44z" fill="#8f5902" stroke="#6d4301" stroke-linecap="round" stroke-linejoin="round" stroke-width="3.381"/>
 <path d="m84.704 129.19c18.969-0.45131 38.79-1.9712 57.85-2.4625 59.518-1.827 117.53-2.1276 175.89-2.8422 24.958-0.2263 50.074-0.5791 74.743-0.56763-6.5939 1.5718-13.082 0.72633-19.66 0.90257-64.331 0.21217-129.53 1.111-195 2.3192-29.766 0.52866-60.162 1.7001-90.862 3.4976-7.5854 0.16356-14.238 0.88498-2.9576-0.84711zm65.847-2.3454c36.977 3.2116 80.571 3.1635 124.57 1.8477 40.626-1.0985 81.158-1.9398 119.65-1.2366 4.174 0.33974 24.38-0.56194 11.543 1.0222-32.987-0.33597-66.074-0.65673-100.58 0.21135-45.689 0.9027-93.201 2.8648-135.06 0.83305-7.7973-0.5117-22.599-0.89307-25.58-1.8396 1.8172-0.27937 3.6343-0.55879 5.4514-0.83812zm-20.306-2.162c32.467 0.31264 66.995-1.1786 100.37-1.6487 67.856-1.3541 135.36-2.2136 200.25-1.1736-9.4282 1.8926-18.354 0.18792-27.639 0.5528-81.35-1.1023-166.8 0.96092-252.03 3.2139-7.8599-0.023026-23.204 0.5-26.283-0.05204 1.7756-0.29746 3.5514-0.595 5.327-0.89242z" fill="#6d4301"/>
 <path d="m578.3 25.915l-63.65 12.624-106.55 81.515 30.646 12.624 139.56-106.76z" fill="#8f5902" stroke="#6d4301" stroke-linecap="round" stroke-linejoin="round" stroke-width="3.381"/>
 <path d="m469.4 81.566c-6.6028 3.8116-10.632 7.651-15.334 11.474-2.4573-1.5007 5.9367-4.9111 7.168-7.1323 1.8141-1.4674 4.0828-2.9852 8.1662-4.3414zm-31.153 23.891c-2.7224 1.4618-2.8555 6.9654 2.1607 2.7816-0.38846-1.0146-2.7329-5.6662 2.6846-3.9346-1.8849 2.0209-7.5002 2.6037-3.6446 1.7147-1.9991-1.349 1.8987-3.6346 3.5913-1.1427 1.6385 1.4733-2.4436 5.7475-9.1352 5.7574-0.79523-1.5723-0.86911-3.4803 4.3432-5.1763zm93.795-61.438c-1.1331-2.3462 10.275-8.2218 20.695-7.3327 4.201 2.3521 0.91339 6.6091-11.604 8.6946-11.639 2.0096-4.2561-5.5017-3.6726-1.9022 6.475 3.4168 18.217-3.2104 14.828-4.9765-7.3054-2.7138-19.708 2.3278-17.804 4.5468l-2.4423 0.97h6.1e-5 -6.1e-5zm7.6353-2.0369c-1.9262-3.1486 20.288-4.2337 9.0046-0.35497-6.0938 1.4351-12.012-0.9135-2.8417-0.21238 6.9602-0.57169-2.7493-3.5075-3.0856-0.57766l-1.272 0.5995-1.8053 0.5455zm-14.039-2.8968c-7.0563 16.881-12.852 33.96-37.693 51.458-8.3518 6.2645-17.962 12.523-28.332 18.758-9.6212 0.99486 5.5662-4.0857 5.7864-5.5547 27.363-16.464 44.388-33.198 49.188-49.175 1.8533-4.7655 3.2512-9.5026 4.5659-14.233 2.1616-0.41773 4.3232-0.83557 6.4849-1.2533zm-21.703 12.296c-1.3616 5.3948 2.9735 10.438-3.6388 16.153-11.537 13.156-30.879 26.431-45.135 39.633-6.2858 5.4426-12.443 10.884-18.443 16.323-0.95334-3.9783 9.5348-8.4118 12.484-12.575 16.7-14.531 36.013-29.122 48.903-43.59 4.4792-5.44 4.0674-10.609 2.278-15.583-0.39587-0.9892 2.4271-1.262 3.5514-0.36057z" fill="#6d4301"/>
</svg>
