<?xml version="1.0" encoding="UTF-8"?>
<svg viewBox="0 0 128 128" xmlns="http://www.w3.org/2000/svg" xmlns:xlink="http://www.w3.org/1999/xlink">
 <defs>
  <filter id="r">
   <feGaussianBlur stdDeviation="2.38058"/>
  </filter>
  <filter id="q" x="-.07925" y="-.12454" width="1.1585" height="1.2491">
   <feGaussianBlur stdDeviation=".93296"/>
  </filter>
  <linearGradient id="a">
   <stop stop-color="#6a3c1d" offset="0"/>
   <stop stop-color="#8f5127" offset="1"/>
  </linearGradient>
  <linearGradient id="p" x1="42.31" x2="65.73" y1="72.567" y2="58.989" gradientUnits="userSpaceOnUse" xlink:href="#a"/>
  <linearGradient id="o" x1="27.344" x2="34.337" gradientUnits="userSpaceOnUse" xlink:href="#a"/>
  <linearGradient id="n" x1="47.438" x2="55.5" gradientUnits="userSpaceOnUse" xlink:href="#a"/>
  <linearGradient id="m" x1="75.438" x2="83.625" gradientUnits="userSpaceOnUse" xlink:href="#a"/>
  <linearGradient id="l" x1="107.19" x2="115.44" gradientUnits="userSpaceOnUse" xlink:href="#a"/>
  <linearGradient id="k" x1="77.188" x2="84.5" gradientUnits="userSpaceOnUse" xlink:href="#a"/>
  <linearGradient id="j" x1="56.188" x2="63.5" gradientUnits="userSpaceOnUse" xlink:href="#a"/>
  <linearGradient id="i" x1="56.562" x2="61.875" y1="25.438" y2="22.125" gradientUnits="userSpaceOnUse" xlink:href="#a"/>
  <linearGradient id="h" x1="57.75" x2="76.952" y1="17.656" y2="13.344" gradientUnits="userSpaceOnUse" xlink:href="#a"/>
  <linearGradient id="g" x1="66.75" x2="83.125" y1="29.844" y2="17.531" gradientUnits="userSpaceOnUse" xlink:href="#a"/>
  <linearGradient id="f" x1="46.562" x2="73.688" y1="30.375" y2="26.875" gradientUnits="userSpaceOnUse" xlink:href="#a"/>
  <linearGradient id="e" x1="46.438" x2="54.125" y1="36.562" y2="35.312" gradientUnits="userSpaceOnUse" xlink:href="#a"/>
  <linearGradient id="d" x1="56.938" x2="73.875" y1="41.094" y2="29.094" gradientUnits="userSpaceOnUse" xlink:href="#a"/>
  <linearGradient id="c" x1="75.938" x2="93.5" y1="35.062" y2="21.438" gradientUnits="userSpaceOnUse" xlink:href="#a"/>
  <linearGradient id="b" x1="76.125" x2="86.25" y1="24.156" y2="14.125" gradientUnits="userSpaceOnUse" xlink:href="#a"/>
 </defs>
 <path d="m54.428 43.239-11.253-6.2378 5.3817-2.9354-4.7701-4.0362 13.087-4.7701 14.555 9.6625-17.001 8.3171z" fill-opacity=".57727" fill-rule="evenodd" filter="url(#q)"/>
 <path d="m7.24 52.712 10.968 8.9967 3.7123 4.2426 6.0104 16.617 19.799 16.263 27.754 22.627 35.532-16.263-29.209-24.609-42.083-40.646-32.483 12.772z" fill-opacity=".41818" fill-rule="evenodd" filter="url(#r)"/>
 <path d="m43.298 39.447-32.901 13.332 0.24462 2.2016 5.6263 3.3024 3.7916 4.8924h1.2231l4.8924 3.4247 0.12231 0.73386 5.2593 3.547-0.24462 1.4677 6.9156 4.0188 0.95135 0.08649 5.1892 5.1027 0.60541-0.17297 7.0054 4.4973 0.17297 0.86487 5.7081 4.7568 0.86487-0.17297 7.0054 6.4 0.69189 0.08649 6.8324 5.1027 0.60541 1.1243 7.0919 5.6216 39.005-16.519-0.25946-2.5946-12.627-8.7351-2.3351-2.4216-1.5568 0.08649-7.9568-5.1027 0.34595-0.51892-7.5243-4.7568 0.43243-0.34595-0.25946-0.60541-3.8919-1.8162-9.0811-7.6108-0.95135 0.17297-6.8324-4.9297-1.9892 0.95135-2.1622-1.5568-7.9568-7.0054-1.3838-0.08649-5.7081-3.373 0.43243-0.77838-5.394-2.6716z" fill="url(#p)" fill-rule="evenodd"/>
 <path d="m32.938 55.531-2.9375 0.15625-2.3125 1.0625-0.34375 8.4688 3.7188 1.625 2.25-0.78125 1.8125-1.1875 0.25-7.625-2.4375-1.7188zm-5.3438 12.875 0.09375 14.188 1.8125 1.2188c1.0835 0.61485 1.9196 0.8997 2.3125 0.59375 0.68021-0.13307 1.5962-0.08929 1.6562-0.6875l1.8125-1.0312-0.24493-8.298-3.547-2.2538-0.08303-1.292-3.8125-2.4375z" fill="url(#o)" fill-rule="evenodd"/>
 <path d="m51.5,69.1875-2.0625.75-1.6875,1.3125 .0625,8.5 1.5625.875 2.125.4375 2.6875-.6875 1.3125-1.3125-.0625-7.6875-2.5625-1.9375-1.375-.25zm-4.0625,13.625v14.8125l.75.625c.91912.44117 1.44838,1.40216 2.8125,1.25l1.0625.0625 1.1875-.5 2.0625-1.375-.125-8.375-2.8125-2.1875-.125-.9375-.4375-.4375-4.375-2.9375z" fill="url(#n)" fill-rule="evenodd"/>
 <path d="m79.1875,90.6875-2.0625.75-1.6875,1.3125 .0625,8.5 1.5625.875 2.125.4375 2.6875-.6875 1.75-1.25v-7.75l-3.0625-1.9375-1.375-.25zm-3.25,14.9375-.3125,16.125 .75.625c.91912.44117 1.44838,1.40216 2.8125,1.25l1.0625.0625 1.1875-.5 2.0625-1.375-.1875-13.0625-2.375.875-5-4z" fill="url(#m)" fill-rule="evenodd"/>
 <path d="m110.875,79.9375c-1.49121.29058-2.69433.93989-3.6875,1.5625v8l1.6875,1.25 2.125.4375 2.6875-.6875 1.75-1.25v-7.75l-2.5625-1.3125-2-.25zm-3.6875,18.625 .125,10.125 .75.625c.91912.44117 1.44838,1.40216 2.8125,1.25l1.0625.0625 1.1875-.5 2.0625-1.375-.1875-13.375-7.8125,3.1875z" fill="url(#l)" fill-rule="evenodd"/>
 <path d="m56.3125,54.1875-.125-7.9375 1.25-.6875 1.625-.6875 2,.0625 2.4375,1.4375-.0625,7.3125-1.375,1.25-2,.5625-2.3125-.4375-1.4375-.875z" fill="url(#j)" fill-rule="evenodd"/>
 <path d="m77.3125,67.625-.125-7.9375 1.25-.6875 1.625-.6875 2,.0625 2.4375,1.4375-.0625,7.3125-1.1875,1.5-2.3125.6875-2.1875-.8125-1.4375-.875z" fill="url(#k)" fill-rule="evenodd"/>
 <path d="m10.165 52.782 6.6291 3.182 3.6239 4.9498 6.1872 3.182-0.35355 1.2374 5.922 4.2426-0.53033 0.88388 6.4524 4.5078 1.149-0.26516 5.8336 4.331 0.70711-0.17678 6.8943 4.6846v0.97227l5.2149 4.4194h1.0607l7.1595 6.2756 0.53033-0.17678 6.8059 5.6568 7.6898 5.3033-0.08839 3.6239-7.2478-5.5685-0.17678-0.97227-7.0711-5.2149-0.61872 0.08839-7.2478-6.5407-0.88388 0.17678-5.4801-4.4194-0.26516-1.2374-6.8943-4.5078-0.7955 0.08839-5.3033-5.1265-0.97227-0.17678-6.7175-4.0659-0.08839-1.3258-5.0381-3.7123-0.35355-0.79549-4.773-3.0936-1.3258-0.26516-3.2704-4.6846-6.0104-3.0936-0.35355-2.3865z" fill-opacity=".15686" fill-rule="evenodd"/>
 <path d="m60.25 45.031c-1.5804-0.10805-2.9252 0.62431-4.125 1.375 4.4884 4.6175 7.5015 0.39023 7.25-0.0625-1.1468-0.86306-2.1768-1.2477-3.125-1.3125zm-28.781 10.656c-1.2229 0.03811-2.4495 0.45659-3.7188 0.96875 3.9483 5.4276 7.689 0.92148 7.4375 0.46875-1.2639-1.1066-2.4959-1.4756-3.7188-1.4375zm49.219 2.8125c-1.2229 0.03811-2.4183 0.48784-3.6875 1 3.2766 6.0993 7.6578 0.89023 7.4062 0.4375-1.2639-1.1066-2.4959-1.4756-3.7188-1.4375zm-29.406 10.781c-1.241-0.00502-2.3766 0.65156-3.375 1.7188 4.8795 5.8837 6.3541 0.12744 7.4375 0.4375-1.4621-1.4891-2.8215-2.1512-4.0625-2.1562zm59.844 10.938c-1.4218 0.06021-2.8192 0.59768-4 1.375 3.919 5.3884 7.7778-0.25187 8.125 0.09375-1.2639-1.1066-2.7032-1.529-4.125-1.4688zm-31.791 10.62c-1.474 0.0945-2.548 0.96701-3.9277 1.8804 5.4448 5.3593 6.5645-0.26715 7.7812-0.15625-1.17-1.4171-2.7071-1.7976-3.8536-1.7241z" fill="#fff" fill-opacity=".12549" fill-rule="evenodd"/>
 <path d="m55.875,17.625 8.8125,5.625-.25,8.75-8.8125-6.375 .25-8z" fill="url(#i)" fill-rule="evenodd"/>
 <path d="m55.75 17.5 9 5.75s20.125-7.25 19.5-7.4375-9.625-5.625-9.625-5.625l-18.875 7.3125z" fill="url(#h)" fill-rule="evenodd"/>
 <path d="m64.438 31.812 0.1875-8.8125 19.688-7.25v8.25l-5.6875 2.1875-6.6875 2.5625-7.5 3.0625z" fill="url(#g)" fill-rule="evenodd"/>
 <path d="m55.875,17.625 8.8125,5.625-.25,8.75-8.8125-6.375 .25-8z" fill-opacity=".15686" fill-rule="evenodd"/>
 <path d="m56 25.75-9.4375 3.6875 8.6875 5.5625 8.9375-3.375-8.1875-5.875z" fill="url(#f)" fill-rule="evenodd"/>
 <path d="m46.438 29.438 0.0625 8.1875 8.6875 6.0625 0.25-8.8125-9-5.4375z" fill="url(#e)" fill-rule="evenodd"/>
 <path d="m46.688 29.562 8.8125 5.625-0.25 8.75-8.8125-6.375 0.25-8z" fill-opacity=".15686" fill-rule="evenodd"/>
 <path d="m55.312 34.938 8.75-3.3125 0.3125 0.25 10.688-4.3125-0.0625 8.3125-19.688 8v-8.9375z" fill="url(#d)" fill-rule="evenodd"/>
 <path d="m75,35.125 .125-7.625 8.875-3.375c0,0-.125-.4375.125-.4375s11.625-4.1875 11.625-4.1875l.0625,8.1875-19.6875,7.9375-1.125-.5z" fill="url(#c)" fill-rule="evenodd"/>
 <path d="m76.0625,27.25-1.125.375 .125,7.5 .75.4375 .25-8.3125z" fill-opacity=".15686" fill-rule="evenodd"/>
 <path d="m84.25,23.6875 11.4375-4.3125-9.5625-5.25-3,.9375 1.1875.875-.0625,7.75z" fill="url(#b)" fill-rule="evenodd"/>
 <path d="m56.3125,35.3125 .0625,3.75-.375.375-.0625.75 1.3125,1.9375-.375.4375 2.25-.8125v-.9375l12.125-7.8125 .1875,3.4375 1.42364-.55936 .70136-.31564v-3.9375l.75-.5-1.55178-1.86742-1.82322.61742 .0625.4375-12,7.25 .11742-3.29419-2.80492,1.04419z" fill="#fff" fill-opacity=".12549" fill-rule="evenodd"/>
 <path d="m65.56739,23.34882 .0625,3.75-.375.375-.0625.75 1.3125,1.9375-.375.4375 2.25-.8125v-.9375l12.125-7.8125 .1875,3.4375 1.42364-.55936 .70136-.31564v-3.9375l.75-.5-1.55178-1.86742-1.82322.61742 .0625.4375-12,7.25 .11742-3.29419-2.80492,1.04419z" fill="#fff" fill-opacity=".12549" fill-rule="evenodd"/>
 <path d="m77.09864,27.19257 .0625,3.75-.375.375-.0625.75 1.3125,1.9375-.375.4375 2.25-.8125v-.9375l12.125-7.8125 .1875,3.4375 1.42364-.55936 .70136-.31564v-3.9375l.75-.5-1.55178-1.86742-1.82322.61742 .0625.4375-12,7.25 .11742-3.29419-2.80492,1.04419z" fill="#fff" fill-opacity=".12549" fill-rule="evenodd"/>
 <path d="m74.65625,10.15625-19.125,7.34375 .125,8.1875 .15625.09375-9.53125,3.65625 .125,8.1875 8.75,6.40625 20.03125-8.125v-.53125l.71875.53125 20.03125-8.125 .0625-8.25-9.84375-5.5625-2.84375,1.09375-8.65625-4.90625zm-.09375.3125 1.21875.71875-17.875,7.40625-1.53125-.96875 18.1875-7.15625zm1.28125.75 1.65625.96875-17.84375,7.5625-1.5625-1.03125 17.75-7.5zm1.75,1 1.84375,1.09375-17.84375,7.65625-1.75-1.125 17.75-7.625zm1.96875,1.15625 2,1.15625-18.46875,7.40625-1.375-.875 17.84375-7.6875zm6.5.90625 1.21875.71875-2.78125,1.15625v-.4375-.03125h-.0625l-.78125-.4375 2.40625-.96875zm-4.34375.34375 1.84375,1.09375-19,7.15625-1.375-.875 18.53125-7.375zm5.625.40625 1.65625.96875-4.53125,1.9375 .03125-1.6875 2.84375-1.21875zm-3.34375.96875v1.96875l-.90625.34375-.6875-.96875-.0625-.09375-.09375-.03125-.1875-.125-.0625.0625-.09375.03125-1.90625.65625 .125.4375-4.9375,3-6.71875,2.59375 .03125-1.71875-2.96875,1.15625v1.6875l-.6875.25 .03125-2 19.125-7.25zm5.09375.03125 1.84375,1.09375-6.46875,2.78125v-1.875l4.625-2zm1.96875,1.15625 2,1.15625-8.59375,3.4375v-1.75l6.59375-2.84375zm-9.46875.34375h.46875l-16.25,10.09375-.25.09375 .03125-.25 16-9.9375zm-.28125.03125-1.125.65625 .125-.28125 1-.375zm1,.09375 .84375,1.5-16.6875,10.71875-1.03125-1.5625 .0625-.0625 16.8125-10.59375zm-26.28125.1875 1.6875,1.09375 .03125.59375-1.3125-.96875 .03125,1.59375-.46875-.21875 .03125-2.09375zm27.96875.21875v2.46875l-1.03125.40625v-1.28125l.75-.5-.5625-.78125 .84375-.3125zm9.21875.375 1.84375,1.09375-10.625,4v-1.625l8.78125-3.46875zm-35.28125.625 1.40625.9375v.6875l-1.4375-1.0625 .03125-.5625zm-1.15625.21875 1.96875,1.375-1.90625,1-.0625-2.375zm38.75.34375-.03125,2.15625-.90625.34375-.6875-.96875-.0625-.09375-.09375-.03125-.1875-.125-.0625.0625-.09375.03125-1.90625.65625 .125.4375-4.9375,3-6.71875,2.59375 .03125-1.71875-2.96875,1.15625v1.6875l-.6875.25 .03125-1.8125 7.78125-3.125 .1875-.28125 11.1875-4.21875zm-12.9375.25 .1875,3.53125-1.78125.9375-.03125-3.375v-.03125l1.625-1.0625zm-26.59375.21875 .5.1875 .03125,1.625-.5625-.28125 .03125-1.53125zm3.5,0 1.875,1.21875 .09375.90625-2.0625-1.5 .09375-.625zm24.5.53125v1.21875l-1.03125.375v-1.21875l1.03125-.375zm-25.15625.09375 2.15625,1.53125-4.09375,2.1875-.0625-2.71875 2-1zm21.875.40625 .1875,3.25-.21875.125-.0625-3.3125 .09375-.0625zm-.3125.1875 .03125.53125-2.03125.78125 2-1.3125zm12.6875.03125h.46875l-16.25,10.09375-.25.09375 .03125-.25 16-9.9375zm-.28125.03125-1.125.65625 .125-.28125 1-.375zm-31.28125.03125 1.375.90625-.03125.96875-1.34375-1v-.875zm32.28125.0625 .84375,1.5-16.6875,10.71875-1.03125-1.5625 .0625-.0625 16.8125-10.59375zm-19.09375.09375-6.3125,3.8125 .03125-1.34375 6.28125-2.46875zm-18.75.15625 .5625.3125 .0625,2.28125 .03125.90625 .8125.5625-.0625.78125-1.46875-1 .03125-1.5625 .65625.3125-.65625-.375 .03125-2.21875zm39.53125.15625v2.46875l-1.03125.40625v-1.28125l.75-.5-.5625-.78125 .84375-.3125zm-15.0625.0625 .0625,1.25-7.40625,2.875 4.96875-3.25 2.375-.875zm3.5625.03125 .03125,1.90625-19.3125,7.6875 .03125-2.125 .8125-.3125 .34375.5625-.03125,1.125 2.625-1 .0625-.8125 4.03125-2.625 7.90625-3.0625 .0625,1.375 2.40625-1.03125v-1.3125l1.03125-.375zm-22.90625.34375 .40625.28125 1.71875,1.21875-4.375,2.6875-1.90625-1.40625v-.4375l4.15625-2.34375zm1.9375.0625 1.1875.78125v2l-.59375-.4375v-.90625l-.625-.46875 .03125-.96875zm5.1875.03125v.28125l-2.25.9375-.21875-.1875 .125.46875-.03125,3.0625-.0625.03125-.0625-3.5625h.03125v-.03125l2.46875-1zm0,.34375-.15625,2.84375-2.0625,1.25 .03125-3.0625 2.1875-1.03125zm25.875.9375 .1875,3.53125-1.78125.9375-.03125-3.375v-.03125l1.625-1.0625zm-30.875.25 .09375,3.15625h-.03125l-1.96875,1.1875-.46875-.3125-1.875-1.40625 4.25-2.625zm32.28125.5v1.21875l-1.03125.375v-1.21875l1.03125-.375zm-31.875.4375 .59375.46875 .03125,2.40625-.59375-.59375-.03125-2.28125zm28.59375.0625 .1875,3.25-.21875.125-.0625-3.3125 .09375-.0625zm-.3125.1875 .03125.53125-2.03125.78125 2-1.3125zm-26.375.03125-.03125,2-.3125.1875v.15625l-.40625.15625 .0625-2.21875 .6875-.28125zm20.6875.21875-6.3125,3.8125 .03125-1.34375 6.28125-2.46875zm5.71875.375 .0625,1.25-7.40625,2.875 4.96875-3.25 2.375-.875zm3.5625.03125v1.71875l-19.28125,7.78125 .03125-2.03125 .8125-.3125 .34375.5625-.03125,1.125 2.625-1 .0625-.8125 4.03125-2.625 7.90625-3.0625 .0625,1.375 2.40625-1.03125v-1.3125l1.03125-.375zm-37.96875.09375 1.1875.84375-.0625.75-1.15625-.8125 .03125-.78125zm-1.40625.15625 1.21875.90625-8.6875,3.59375-1.53125-.96875 9-3.53125zm23.59375.1875v.28125l-2.25.9375-.21875-.1875 .125.46875-.03125,3.0625-.0625.03125-.0625-3.5625h.03125v-.03125l2.46875-1zm0,.34375-.15625,2.84375-2.0625,1.25 .03125-3.0625 2.1875-1.03125zm-20.875.25 1.8125,1.3125 .0625.78125-1.9375-1.34375 .0625-.75zm-1.375.21875 1.4375,1.03125-8.5,3.625-1.5625-1.03125 8.625-3.625zm5.84375.15625 .09375,2.625-1.96875-1.4375 1.875-1.1875zm.34375.21875 .59375.5625v1.40625l-.5625-.25 .5625.40625 .09375,2-1.71875-1.3125v-.6875l1.0625.78125v-1.1875l-.03125-1.71875zm12.0625.09375v1.46875l-.46875-.34375v-.9375l.46875-.1875zm-10.5625.125-.03125.40625-.15625.0625 .53125.90625-.75.3125 .03125-1.5625 .375-.125zm9.59375.09375v2.1875l-.90625.34375-.6875-.96875-.0625-.09375-.09375-.03125-.1875-.125-.0625.0625-.09375.03125-1.90625.65625 .125.4375-4.9375,3-6.71875,2.59375 .03125-1.71875-2.96875,1.15625v1.6875l-.6875.25-.03125-2.1875 8.53125-3.21875 .1875.28125 10.46875-4.34375zm-15.71875.4375 1.625,1.1875-8.3125,3.5625-1.75-1.125 8.4375-3.625zm1.8125.125 1.40625,1 .15625.78125-1.53125-1.0625-.03125-.71875zm14.40625.5 .46875.375 .03125,2.40625-.53125-.53125 .03125-2.25zm1.78125.1875-.03125,2-.3125.1875v.15625l-.40625.15625 .0625-2.21875 .6875-.28125zm-8.75.21875-.03125.40625-1.90625.84375 1.9375-1.25zm-7.53125.21875 1.46875,1.09375-8.375,3.375-1.375-.875 8.28125-3.59375zm11.59375.0625h.46875l-16.25,10.09375-.25.09375 .03125-.25 16-9.9375zm-.28125.03125-1.125.65625 .125-.28125 1-.375zm1,.09375 .84375,1.5-16.6875,10.71875-1.03125-1.5625 .0625-.0625 16.8125-10.59375zm-26.28125.1875 1.6875,1.09375 .03125.59375-1.3125-.96875 .03125,1.59375-.46875-.21875 .03125-2.09375zm27.96875.21875v2.46875l-1.03125.40625v-1.28125l.75-.5-.5625-.78125 .84375-.3125zm-12.40625.59375 1.4375,1.03125-8.46875,3.1875-1.375-.875 8.40625-3.34375zm-13.65625.40625 1.40625.9375v.6875l-1.4375-1.0625 .03125-.5625zm-1.15625.21875 1.96875,1.375-1.90625,1-.0625-2.375zm27.6875.0625 .53125.5v1.40625l-.53125-.21875 .53125.375v1.8125l-.5625-.375 .03125-1.8125v-.03125-1.65625zm1.4375.15625-.03125.40625-.15625.0625 .53125.90625-.75.3125 .03125-1.5625 .375-.125zm-3.3125.375 .1875,3.53125-1.78125.9375-.03125-3.375v-.03125l1.625-1.0625zm-26.59375.21875 .5.1875 .03125,1.625-.5625-.28125 .03125-1.53125zm3.5,0 1.875,1.21875 .09375.90625-2.0625-1.5 .09375-.625zm24.5.53125v1.21875l-1.03125.375v-1.21875l1.03125-.375zm-25.15625.09375 2.15625,1.53125-4.09375,2.1875-.0625-2.71875 2-1zm30.1875.34375-.03125.40625-1.90625.84375 1.9375-1.25zm-8.3125.0625 .1875,3.25-.21875.125-.0625-3.3125 .09375-.0625zm-.3125.1875 .03125.53125-2.03125.78125 2-1.3125zm-18.875.09375 1.375.90625-.03125.96875-1.34375-1v-.875zm13.1875.15625-6.3125,3.8125 .03125-1.34375 6.28125-2.46875zm-18.75.15625 .5625.3125 .0625,2.28125 .03125.90625 .8125.5625-.0625.78125-1.46875-1 .03125-1.5625 .65625.3125-.65625-.375 .03125-2.21875zm24.46875.21875 .0625,1.25-7.40625,2.875 4.96875-3.25 2.375-.875zm3.5625.03125v1.71875l-19.28125,7.78125 .03125-2.03125 .8125-.3125 .34375.5625-.03125,1.125 2.625-1 .0625-.8125 4.03125-2.625 7.90625-3.0625 .0625,1.375 2.40625-1.03125v-1.3125l1.03125-.375zm-22.90625.34375 .40625.28125 1.71875,1.21875-4.375,2.6875-1.90625-1.40625v-.4375l4.15625-2.34375zm39.75,0c0,0-3.70603.60547-7.84375,1.46875s-8.78699,1.15825-11.34375,2.5625c-3.67851,2.08575-4.13878,6.04487-11.59375,6.5625-.52721-.08831-1.02611-.08378-1.59375,0-1.42246.20993-2.02949.5962-3.125,1.375v.46875l-.65625-.46875-1.53125.0625-5.28125-3.4375 .28125-.53125-5.59375-3-33.15625,13.5 .125,2.28125 5.96875,3.3125 .53125.59375 2.6875,3.90625c-5.5892,3.55495-8.00991,6.15744-9.53125,8.0625-1.52698,1.91212-2.84523,2.77173-4.90625,3.65625h.3125c2.28728-.98163 3.45538-1.3628 4.9375-3.21875 1.45724-1.82479 3.97637-4.82658 9.34375-8.28125l.125.1875 1.25.125 4.78125,3 .375.875 1.34375.96875-.09375,14.40625c1.09551.7788 2.26504,1.60256 3.6875,1.8125s2.61569-.19557 4.46875-1.78125l-.25-7.90625 2.59375,1.65625 .90625.03125c1.87785,1.67163 3.52189,3.61614 5.5,5.1875l.84375-.0625 2.21875,1.46875-.1875,14.5c.72001,1.23898 2.54597,1.72624 3.90625,2.21875 1.42246.20993 2.45944-.38307 4.3125-1.96875l-.125-8.0625 2.46875,2.0625 .9375-.25 6.9375,6.5 .90625.03125 6.875,5.03125 .25.9375 1.9375,1.53125-.1875,16.375c1.14714.99399 2.46201,1.51938 3.875,1.96875 1.42246.20993 2.80319-.35182 4.65625-1.9375l-.46875-13.21875 23.46875-9.96875 .03125,9.8125c2.62205,2.91051 5.81247,2.65158 8.78125.40625l-.375-13.78125 4.6875-2-.09375-2.75-4.34375-3.1875 .15625-5.84375c-4.83305-3.14441-6.49369-1.09763-8.90625-.28125l-2.28125-2.0625-1.375.09375-7.625-5.15625 .21875-.46875-7.28125-4.28125-.0625-1.0625-3.8125-2.09375v-6.4375c-1.4915-1.46491-2.40478-1.48299-4.375-1.59375-1.42246.20993-2.27949.7212-3.375,1.5v.03125l-1.4375-1.1875-1.28125.15625-6.84375-4.96875-1.90625.78125-1.84375-1.28125-.03125-6.875c-.6949-.59463-1.27827-.98119-1.8125-1.21875 5.93434.02658 5.43986-3.15749 10.90625-6.28125 2.29707-1.26162 7.26863-2.11201 11.375-2.96875s7.625-1.40625 7.625-1.40625l-.0625-.1875zm-37.8125.0625 1.1875.78125v2l-.59375-.4375v-.90625l-.625-.46875 .03125-.96875zm5.1875.03125v.28125l-2.25.9375-.21875-.1875 .125.46875-.03125,3.0625-.0625.03125-.0625-3.5625h.03125v-.03125l2.46875-1zm0,.34375-.15625,2.84375-2.0625,1.25 .03125-3.0625 2.1875-1.03125zm-5,1.1875 .09375,3.15625h-.03125l-1.96875,1.1875-.46875-.3125-1.875-1.40625 4.25-2.625zm.40625.9375 .59375.46875 .03125,2.40625-.59375-.59375-.03125-2.28125zm1.90625.28125-.03125,2-.3125.1875v.15625l-.40625.15625 .0625-2.21875 .6875-.28125zm-8,.71875 1.1875.84375-.0625.75-1.15625-.8125 .03125-.78125zm1.3125.9375 1.8125,1.3125 .0625.78125-1.9375-1.34375 .0625-.75zm4.46875.375 .09375,2.625-1.96875-1.4375 1.875-1.1875zm.34375.21875 .59375.5625v1.40625l-.5625-.25 .5625.40625v1.8125l-1.625-1.125v-.6875l1.0625.78125v-1.1875l-.03125-1.71875zm1.5.21875-.03125.40625-.15625.0625 .53125.90625-.75.3125 .03125-1.5625 .375-.125zm-12.71875.34375 4.875,2.5-31.4375,13.1875-5.5-2.59375 32.0625-13.09375zm8.40625.3125 1.40625,1 .15625.78125-1.53125-1.0625-.03125-.71875zm7.4375.90625-.03125.40625-1.90625.84375 1.9375-1.25zm-11.125,1.96875 5.28125,3.3125-20.96875,9c-.36115-.01964-.73398.00479-1.125.0625-1.42246.20993-2.59199.3462-3.6875,1.125v.90625l-6.875,2.9375-3.375-4.53125 30.75-12.8125zm11.875,1.875c.97403-.02189 2.09404.382 3.5,1.53125l-.0625,7.03125c-.01659.02345-.04514.03944-.0625.0625v.03125c-1.24626,1.62918-4.40507,2.25761-6.6875.46875l-.125-7.59375c1.00712-.70875 1.99281-1.34674 3.03125-1.5 .13373-.01974.2671-.02812.40625-.03125zm-5,1.75 1.34375.84375 .0625,3.96875-20.78125,8.75 .03125-3.28125c-.80466-.68855-1.46055-1.10736-2.0625-1.34375l21.40625-8.9375zm7.78125.21875c-1.86866,1.47517-3.23182,1.40046-5.1875.125l-.25.25c2.18506,2.16837 3.81649,2.17298 5.625-.125l-.1875-.25zm-6.375,5.28125 .03125,2.03125c2.73221,2.34031 5.67735,1.84184 7.34375-.375l1.5,1.03125-33.0625,14.4375-5.53125-4.59375 .875-.375v.96875c2.90842,2.23132 5.38279,1.99389 8-.4375l.03125-3.9375 20.8125-8.75zm-45.53125.96875 5.875,2.84375-.1875,1.90625-5.46875-3.15625-.21875-1.59375zm56.59375,1.3125 6.4375,4.4375-35.75,15.6875-6.03125-4.40625 35.34375-15.71875zm-35.59375,1.21875c.97403-.02189 2.09404.382 3.5,1.53125l-.0625,7.03125c-1.14488,2.01428-5.00537,3.28749-7.4375.8125l.125-8.15625c1.00712-.70875 2.43031-1.03424 3.46875-1.1875 .13373-.01974.2671-.02812.40625-.03125zm-14.71875.84375 2.90625,4.375-.0625,1.78125-2.9375-4.375 .09375-1.78125zm11.75,1.375-.25.25c2.21282,1.90584 4.1181,2.19189 6.125.1875l-.3125-.25c-1.91598,1.09519-3.68378,1.06011-5.5625-.1875zm-1.28125.21875-.0625,5.5-.6875.3125-6-3 6.75-2.8125zm53.375.3125c.97403-.02189 2.09404.382 3.5,1.53125l-.0625,7.03125c-.77433,1.90579-3.55215,2.82061-6.75.5625l-.125-7.59375c1.00712-.70875 1.99281-1.34674 3.03125-1.5 .13373-.01974.2671-.02812.40625-.03125zm-5.71875.40625 1.875,1.46875 .15625,4.5625-21.5,9.09375v-2.6875c-1.37307-1.34859-2.26876-2.06011-3.9375-2.25l23.40625-10.1875zm8.4375,2c-1.90911,1.01937-3.36905,1.16584-5.3125.25l-.125.25c2.07237,1.82344 3.83647,1.5363 5.625-.25l-.1875-.25zm-63.25.53125 6,2.8125-.09375,1.90625-5.09375-3.15625-.90625-.125 .09375-1.4375zm6.3125,4.1875 5.34375,4-.21875.375-.28125.59375-4.9375-3.5 .09375-1.46875zm50.5625.09375 .09375,2.1875c2.74711,2.35308 5.77612,1.90404 7.4375-.34375v-.75l3.6875,1.8125-35.46875,14.71875-6.8125-4.4375 1.5625-.65625 .03125,1.53125c2.74711,2.35308 6.27612,1.71654 7.9375-.53125v-4.40625l21.53125-9.125zm-49.25,2.875 3.40625,2.46875-.09375,1.09375 3.8125,2.46875 .15625,7.8125c-1.60742,1.3143-2.83614,2.09543-3.90625,1.9375-1.03952-.15342-2.3355-1.04032-3.34375-1.75l-.03125-14.03125zm60.03125.8125 7.28125,4.59375-37.03125,14.65625-5.3125-4.46875 35.0625-14.78125zm-36.71875.0625c1.06984-.15789 2.48694.74907 4.09375,2.0625l-.0625,7.03125c-1.11895,2.16988-4.65217,3.40669-7.0625,1.0625l-.0625-8.34375c1.00712-.70875 2.05531-1.65924 3.09375-1.8125zm-2.65625,1c-.3565.27249-.73228.5465-1.0625.78125l.125,6.1875-2.65625,1.125-5.625-4.09375 9.21875-4zm-16.75.4375 6.125,4.25v.9375l-2.59375-1.6875h-.03125l-3.65625-2.375 .15625-1.125zm17.03125.9375-.125.125c1.77009,2.65472 3.72326,2.84763 5.875.0625l-.5-.125c-1.52262,1.70728-3.43351,1.12218-5.25-.0625zm46.34375,2.71875 7.5,5.28125-36.75,14.90625-6.46875-5.84375 35.71875-14.34375zm-55.9375.5625 5.5,4.21875-.15625,1.96875-5.40625-5.1875-.78125-.03125 .15625-.90625 .6875-.0625zm6.40625,4.125 6.6875,4.46875-.5,1.875-6.375-4.34375c-.07872-.11262-.41681-.10613-.40625-.21875l.15625-1.46875 .4375-.3125zm-19.34375.28125c-1.44876,1.11033-1.99029,2.4919-1.3125,4.375 .81951,1.49685 2.67179,2.58886 4.625,2.96875 2.01335.39159 3.99958-.22747 5.625-1.15625 2.29906-1.3137 3.83724-3.49255 1.21875-5.6875h-.15625c1.96768,2.06329.72086,4.51687-1.15625,5.53125-1.31167.70881-3.58225,1.53011-5.34375,1.1875-1.70396-.33141-3.92843-1.8677-4.53125-2.96875-.6896-1.63487.04998-3.31413 1.03125-4.25zm77.96875.25 2.59375,2.40625 .0625,4.46875-23,9.0625 .125-3.0625c-1.4915-1.46491-3.09228-1.85799-5.0625-1.96875-1.33147.56809-2.7877.76191-3.90625,1.96875l.125,6.5-2.1875.875-6.09375-5.125 37.34375-15.125zm6.96875.53125c1.38923.05809 2.77255.56804 4,1.46875l-.0625,7.28125c-1.00162,1.93965-4.89662,2.99141-7.90625.3125l-.03125-7.78125c1.21381-.9563 2.61077-1.33934 4-1.28125zm2.34375,1.84375c-1.52262,1.70728-3.18351,2.05968-5,.875v.125c2.22543,2.89485 3.56983,1.73233 5.28125-.59375l-.28125-.40625zm-65.9375,1.125 4.3125,2.875 .09375.9375 3.0625,2.5625 .0625,7.71875c-1.60681,1.31343-2.96141,2.25164-4.03125,2.09375-1.05107-.15512-2.41716-1.03042-3.4375-1.75l-.0625-14.4375zm5,1.59375 5.21875,4.1875-.03125,2.125-5.25-4.4375 .0625-1.875zm54.3125,2.375 .03125,2.40625c2.73047,2.53359 5.69402,1.97542 8.59375-.125l.03125-1.53125 3.5,2.65625-37.78125,15.25-7.875-5.375 1.75-.6875 .03125,1.1875c2.72185,2.52465 5.6453,1.99121 8.5-.125l.15625-4.4375 23.0625-9.21875zm-48.46875,2.0625h.53125l6.625,5.90625 .09375,2.375-6.875-6.46875-.4375-.0625 .0625-1.75zm20.75,1.8125c1.06984-.1579 2.54944.71782 4.15625,2.03125l-.15625,7.375c-1.1983,1.69381-5.30192,2.38323-7.625.5625l-.03125-8.125c1.00712-.70874 2.61781-1.69049 3.65625-1.84375zm40.4375,0-.0625,1.71875-38.3125,16.46875 .25-2.90625 38.125-15.28125zm-37.84375,2.40625c-1.60514,1.83842-3.40491,1.46353-5.34375.15625l-.09375.0625c1.66936,2.59985 3.51794,2.8169 5.625.09375l-.1875-.3125zm-35.75.03125c-1.64999,1.18209-2.17701,2.78919-2.0625,4.75 1.12234,3.22817 4.63156,3.53597 7.625,3.625v-.21875c-2.74843.03208-6.0894-.90288-7.4375-3.375-.19029-1.57141.7439-3.51589 1.84375-4.53125l.03125-.25zm20.4375,1.8125 6.375,5.0625 .28125,2.25-6.75-5 .09375-2.3125zm48.3125.15625 .28125,12.90625c-2.49851,2.6764-5.28118,2.67266-7.5625,0l-.125-9.75 7.40625-3.15625zm-55.875,1.9375-.09375.15625c1.23868,2.25667.80402,4.86005-.0625,6s-3.05179,1.94479-4.8125,2.125c-2.9915.15699-7.25038-.77086-9.375-2.96875l-.09375-.0625c1.94253,2.9494 6.30754,3.4079 9.5625,3.25 1.96152-.20077 3.86455-.98488 4.96875-2.4375s1.27027-3.57748-.09375-6.0625zm14.5625,3.8125 7.40625,4.875-.15625,3.28125-6.8125-5.53125-.4375-2.625zm42.375.8125 .15625.09375c1.30308.59653 1.60362,1.69855 1.5,3.0625l.3125.21875c-.01731-2.12441-.17501-2.78277-1.96875-3.375zm-10.96875,2.75c-1.19426,2.87109-.84243,5.13707.40625,6.625s3.26229,2.19478 5.3125,2.28125 4.16457-.42399 5.625-1.53125 2.2011-2.91911 1.40625-5.03125h-.03125c.66407,1.7646-.35858,4.08722-1.5625,5s-3.33826,1.42175-5.1875,1.34375-4.25229-1.06112-5.25-2.25-1.63183-3.72913-.53125-6.375l-.1875-.0625zm-28.9375,1.09375 5,3.96875 2.125-.90625 .25,12.53125c-1.60681,1.31343-3.02391,2.25164-4.09375,2.09375-1.03888-.15332-2.36741-1.19712-3.375-1.90625l.09375-15.78125zm-2.21875,10.5c-1.59915,1.34606-2.79452,3.27627-2.34375,5.28125s2.51842,3.80627 6.875,4.9375h.15625c-4.18248-1.08603-6.4463-3.3227-6.78125-4.8125s.70427-3.99162 2.125-5.1875l-.03125-.21875zm10.71875.78125-.03125.25c1.85342.20884 2.81763,1.29478 3.125,2.5s-.07241,2.51336-1.125,3.21875l.03125.0625c1.43169-.95945 1.8401-1.76509 1.4375-3.34375s-1.22709-2.43844-3.4375-2.6875z" fill-rule="evenodd"/>
</svg>
