<?xml version="1.0" encoding="UTF-8"?>
<svg viewBox="0 0 128 128" xmlns="http://www.w3.org/2000/svg" xmlns:xlink="http://www.w3.org/1999/xlink">
 <defs>
  <filter id="bx">
   <feGaussianBlur stdDeviation="1.61105"/>
  </filter>
  <linearGradient id="a">
   <stop stop-color="#b1b1b1" offset="0"/>
   <stop stop-color="#e4e4e4" offset="1"/>
  </linearGradient>
  <linearGradient id="b">
   <stop stop-color="#6a3c1d" offset="0"/>
   <stop stop-color="#8f5127" offset="1"/>
  </linearGradient>
  <linearGradient id="bw" x1="19.83" x2="34.446" y1="81.461" y2="98.951" gradientUnits="userSpaceOnUse" xlink:href="#a"/>
  <linearGradient id="bv" x1="20.83" x2="31.018" y1="55.812" y2="60.5" gradientUnits="userSpaceOnUse" xlink:href="#a"/>
  <linearGradient id="bu" x1="24.393" x2="30.268" y1="64.75" y2="58.938" gradientUnits="userSpaceOnUse" xlink:href="#a"/>
  <linearGradient id="bt" x1="18.205" x2="19.018" y1="62.938" y2="60.188" gradientUnits="userSpaceOnUse" xlink:href="#a"/>
  <linearGradient id="bs" x1="20.643" x2="22.83" y1="65.344" y2="63.656" gradientUnits="userSpaceOnUse" xlink:href="#a"/>
  <linearGradient id="br" x1="24.393" x2="23.643" y1="66.98" y2="64.75" gradientUnits="userSpaceOnUse" xlink:href="#a"/>
  <linearGradient id="bq" x1="26.143" x2="27.205" y1="64.031" y2="66.031" gradientUnits="userSpaceOnUse" xlink:href="#a"/>
  <linearGradient id="bp" x1="30.205" x2="28.768" y1="63.781" y2="60.781" gradientUnits="userSpaceOnUse" xlink:href="#a"/>
  <linearGradient id="bo" x1="34.393" x2="33.643" y1="65.562" y2="61.812" gradientUnits="userSpaceOnUse" xlink:href="#a"/>
  <linearGradient id="bn" x1="34.83" x2="37.143" y1="59.844" y2="60.406" gradientUnits="userSpaceOnUse" xlink:href="#a"/>
  <linearGradient id="bm" x1="36.518" x2="33.643" y1="58.781" y2="55.406" gradientUnits="userSpaceOnUse" xlink:href="#a"/>
  <linearGradient id="bl" x1="31.393" x2="30.986" y1="57.562" y2="55.438" gradientUnits="userSpaceOnUse" xlink:href="#a"/>
  <linearGradient id="bk" x2="0" y1="54.688" y2="52.219" gradientUnits="userSpaceOnUse" xlink:href="#a"/>
  <linearGradient id="bj" x1="23.33" x2="24.893" y1="53.812" y2="55.312" gradientUnits="userSpaceOnUse" xlink:href="#a"/>
  <linearGradient id="bi" x1="22.33" x2="23.205" y1="57.312" y2="55" gradientUnits="userSpaceOnUse" xlink:href="#a"/>
  <linearGradient id="bh" x1="17.768" x2="19.955" y1="57.125" y2="53.562" gradientUnits="userSpaceOnUse" xlink:href="#a"/>
  <linearGradient id="bg" x1="15.518" x2="17.393" y1="57.094" y2="58.656" gradientUnits="userSpaceOnUse" xlink:href="#a"/>
  <linearGradient id="bf" x1="15.33" x2="17.393" y1="61.031" y2="59" gradientUnits="userSpaceOnUse" xlink:href="#a"/>
  <linearGradient id="be" x1="23.643" x2="30.768" y1="65.562" y2="72.625" gradientUnits="userSpaceOnUse" xlink:href="#a"/>
  <linearGradient id="bd" x1="105.29" x2="119.9" y1="53.014" y2="70.504" gradientUnits="userSpaceOnUse" xlink:href="#a"/>
  <linearGradient id="bc" x1="109.1" x2="116.22" y1="37.115" y2="44.178" gradientUnits="userSpaceOnUse" xlink:href="#a"/>
  <linearGradient id="bb" x1="100.79" x2="102.85" y1="32.584" y2="30.553" gradientUnits="userSpaceOnUse" xlink:href="#a"/>
  <linearGradient id="ba" x1="100.97" x2="102.85" y1="28.646" y2="30.209" gradientUnits="userSpaceOnUse" xlink:href="#a"/>
  <linearGradient id="az" x1="103.22" x2="105.41" y1="28.678" y2="25.115" gradientUnits="userSpaceOnUse" xlink:href="#a"/>
  <linearGradient id="ay" x1="107.79" x2="108.66" y1="28.865" y2="26.553" gradientUnits="userSpaceOnUse" xlink:href="#a"/>
  <linearGradient id="ax" x1="108.79" x2="110.35" y1="25.365" y2="26.865" gradientUnits="userSpaceOnUse" xlink:href="#a"/>
  <linearGradient id="aw" x2="0" y1="26.24" y2="23.771" gradientUnits="userSpaceOnUse" xlink:href="#a"/>
  <linearGradient id="av" x1="116.85" x2="116.44" y1="29.115" y2="26.99" gradientUnits="userSpaceOnUse" xlink:href="#a"/>
  <linearGradient id="au" x1="121.97" x2="119.1" y1="30.334" y2="26.959" gradientUnits="userSpaceOnUse" xlink:href="#a"/>
  <linearGradient id="at" x1="120.29" x2="122.6" y1="31.396" y2="31.959" gradientUnits="userSpaceOnUse" xlink:href="#a"/>
  <linearGradient id="as" x1="119.85" x2="119.1" y1="37.115" y2="33.365" gradientUnits="userSpaceOnUse" xlink:href="#a"/>
  <linearGradient id="ar" x1="115.66" x2="114.22" y1="35.334" y2="32.334" gradientUnits="userSpaceOnUse" xlink:href="#a"/>
  <linearGradient id="aq" x1="111.6" x2="112.66" y1="35.584" y2="37.584" gradientUnits="userSpaceOnUse" xlink:href="#a"/>
  <linearGradient id="ap" x1="109.85" x2="109.1" y1="38.532" y2="36.303" gradientUnits="userSpaceOnUse" xlink:href="#a"/>
  <linearGradient id="ao" x1="106.1" x2="108.29" y1="36.896" y2="35.209" gradientUnits="userSpaceOnUse" xlink:href="#a"/>
  <linearGradient id="an" x1="103.66" x2="104.47" y1="34.49" y2="31.74" gradientUnits="userSpaceOnUse" xlink:href="#a"/>
  <linearGradient id="am" x1="109.85" x2="115.72" y1="36.303" y2="30.49" gradientUnits="userSpaceOnUse" xlink:href="#a"/>
  <linearGradient id="al" x1="106.29" x2="116.47" y1="27.365" y2="32.053" gradientUnits="userSpaceOnUse" xlink:href="#a"/>
  <linearGradient id="ak" x1="47.295" x2="100.6" y1="104.48" y2="61.624" gradientUnits="userSpaceOnUse" xlink:href="#a"/>
  <linearGradient id="aj" x1="82.81" x2="86.674" y1="74.192" y2="89.032" gradientUnits="userSpaceOnUse" xlink:href="#a"/>
  <linearGradient id="ai" x1="71.263" x2="71.577" y1="77.265" y2="78.319" gradientUnits="userSpaceOnUse" xlink:href="#b"/>
  <linearGradient id="ah" x1="71.395" x2="71.621" y1="81.041" y2="81.744" gradientUnits="userSpaceOnUse" xlink:href="#b"/>
  <linearGradient id="ag" x1="71.395" x2="71.665" y1="85.125" y2="86.003" gradientUnits="userSpaceOnUse" xlink:href="#b"/>
  <linearGradient id="af" x1="71.438" x2="71.753" y1="89.34" y2="90.306" gradientUnits="userSpaceOnUse" xlink:href="#b"/>
  <linearGradient id="ae" x1="71.614" x2="71.885" y1="93.247" y2="93.994" gradientUnits="userSpaceOnUse" xlink:href="#b"/>
  <linearGradient id="ad" x1="61.823" x2="62.284" gradientUnits="userSpaceOnUse" xlink:href="#b"/>
  <linearGradient id="ac" x1="67.794" x2="68.255" gradientUnits="userSpaceOnUse" xlink:href="#b"/>
  <linearGradient id="ab" x1="73.546" x2="74.007" gradientUnits="userSpaceOnUse" xlink:href="#b"/>
  <linearGradient id="aa" x1="78.025" x2="78.486" gradientUnits="userSpaceOnUse" xlink:href="#b"/>
  <linearGradient id="z" x1="83.381" x2="83.842" gradientUnits="userSpaceOnUse" xlink:href="#b"/>
  <linearGradient id="y" x1="69.678" x2="70.782" y1="63.766" y2="66.86" gradientUnits="userSpaceOnUse" xlink:href="#a"/>
  <linearGradient id="x" x1="100.53" x2="103.18" y1="53.489" y2="50.395" gradientUnits="userSpaceOnUse" xlink:href="#a"/>
  <linearGradient id="w" x1="100.35" x2="101.59" y1="54.24" y2="56.229" gradientUnits="userSpaceOnUse" xlink:href="#a"/>
  <linearGradient id="v" x1="96.813" x2="98.669" y1="56.229" y2="54.019" gradientUnits="userSpaceOnUse" xlink:href="#a"/>
  <linearGradient id="u" x1="91.509" x2="95.045" y1="56.847" y2="53.135" gradientUnits="userSpaceOnUse" xlink:href="#a"/>
  <linearGradient id="t" x1="90.626" x2="91.951" y1="57.024" y2="58.704" gradientUnits="userSpaceOnUse" xlink:href="#a"/>
  <linearGradient id="s" x1="87.886" x2="88.593" y1="58.615" y2="56.582" gradientUnits="userSpaceOnUse" xlink:href="#a"/>
  <linearGradient id="r" x1="83.378" x2="85.234" y1="59.234" y2="56.317" gradientUnits="userSpaceOnUse" xlink:href="#a"/>
  <linearGradient id="q" x1="81.831" x2="83.201" y1="59.853" y2="61.886" gradientUnits="userSpaceOnUse" xlink:href="#a"/>
  <linearGradient id="p" x1="78.958" x2="80.107" y1="63.035" y2="60.56" gradientUnits="userSpaceOnUse" xlink:href="#a"/>
  <linearGradient id="o" x1="73.478" x2="75.29" y1="61.974" y2="59.322" gradientUnits="userSpaceOnUse" xlink:href="#a"/>
  <linearGradient id="n" x1="73.346" x2="74.804" y1="62.548" y2="64.36" gradientUnits="userSpaceOnUse" xlink:href="#a"/>
  <linearGradient id="m" x1="69.854" x2="70.738" y1="64.051" y2="63.035" gradientUnits="userSpaceOnUse" xlink:href="#a"/>
  <linearGradient id="l" x1="66.142" x2="66.761" y1="64.36" y2="61.797" gradientUnits="userSpaceOnUse" xlink:href="#a"/>
  <linearGradient id="k" x1="64.684" x2="66.142" y1="64.891" y2="66.57" gradientUnits="userSpaceOnUse" xlink:href="#a"/>
  <linearGradient id="j" x1="60.662" x2="63.402" y1="66.791" y2="65.421" gradientUnits="userSpaceOnUse" xlink:href="#a"/>
  <linearGradient id="i" x1="56.773" x2="57.392" y1="67.056" y2="64.802" gradientUnits="userSpaceOnUse" xlink:href="#a"/>
  <linearGradient id="h" x1="55.403" x2="56.861" y1="67.94" y2="69.575" gradientUnits="userSpaceOnUse" xlink:href="#a"/>
  <linearGradient id="g" x1="50.674" x2="53.679" y1="69.708" y2="68.338" gradientUnits="userSpaceOnUse" xlink:href="#a"/>
  <linearGradient id="f" x1="45.901" x2="49.525" y1="69.929" y2="67.366" gradientUnits="userSpaceOnUse" xlink:href="#a"/>
  <linearGradient id="e" x1="45.282" x2="46.255" y1="70.68" y2="72.006" gradientUnits="userSpaceOnUse" xlink:href="#a"/>
  <linearGradient id="d" x1="41.658" x2="43.161" y1="73.288" y2="70.901" gradientUnits="userSpaceOnUse" xlink:href="#a"/>
  <linearGradient id="c" x1="36.09" x2="37.99" y1="71.962" y2="70.194" gradientUnits="userSpaceOnUse" xlink:href="#a"/>
 </defs>
 <path d="m98.996 48.055c1.7938 0.817 2.494 2.7386 0.69721 0.56625-3.0077-0.76628 3.135 2.9418-0.66886 1.1164-2.0732 1.0611-0.50198 1.3028-2.128 0.23871-0.45493-2.6831-9.301 2.4352-2.9998 1.0438-0.74791 1.1616 0.29236 2.5588-0.69311 0.73481-4.538-1.545-0.00355 3.5093-1.7248 2.9373-1.2999 2.7294 3.3912 3.9329 3.8889 6.2088 0.39253 2.0926 2.0105 4.4153-1.8085 5.301 3.0574 0.20805-1.7657 0.02941 0.36738 1.5686 1.6844 1.2752-5.1077-1.3494-6.7978 0.19288-2.8581 0.53662-3.2554 1.9354-4.0212 2.8623-2.6971-1.3774-9.5095 0.98576-6.8923 1.1257-2.5894-0.53172-0.21422 1.6062-2.5071 2.0379 1.3279 1.4248-2.4513-1.199-3.3692 0.70387-2.8088 0.52609 5.7984-1.3482 0.52747-1.5111-2.7765 0.29693-4.8819 1.2334-4.9697 2.7738-2.3302-0.27461-7.7451-0.20739-7.6614 0.91996 2.2696 1.0989 8.7515-1.3758 3.1898 0.24032-1.7818 0.15203-5.7832-0.40921-2.6467 1.1356 4.114 0.28711-2.9979 0.04184-4.2328 0.39157-4.9796-0.94623-5.8839 2.0308-5.2235 1.2222-3.609 0.82482 5.1672 2.1409-0.51532 1.2387-3.8728 0.40746-7.8754 2.3558-11.408 1.7207 0.34416 1.5167 3.6409 1.1128-0.08116 1.0758-2.178 0.45257-7.3264 2.4618-7.1808 1.791 2.3768 0.14611 6.6527-1.9761 1.5458-1.681-4.5966 1.5196 0.82881-2.1547-1.4336-3.457-0.39188-2.0323-1.669-6.9983-6.5746-5.1357 1.5527 2.0005-4.3633 0.95381-0.04132 1.1767 0.03307-1.5628-5.468-0.55756-3.2711-1.8406-1.7327-0.79765-8.5399-0.52732-4.7875 1.3417 1.2105 1.3026-3.09-2.9684-1.3824 0.00341 2.227 1.751 1.5783 0.32035-1.0615 0.46659-1.2813 1.5161 0.55311 0.68255-1.3524-0.02359 0.52082 0.36383-2.1952-1.6376-3.795-0.00286-3.2305 0.83696-0.68764 1.7631 0.78273 1.4958-0.62047 1.7665 0.48967 1.3056-1.0963 0.10688-4.1294-0.38223 0.53927 3.2012-1.2912 3.3778-1.1645 3.1136 4.7288 4.1522 4.1416 7.0975l4.8223 22.274c5.607 2.1178 13.273 2.4125 18.969 0.10984 4.2148-1.6138 4.9325-4.4795 10.347-5.2231 4.9121-1.5997 7.374-4.2698 12.375-5.7726-1.9507-2.1726 4.5352-2.3936 5.8051-0.62691-0.76694-1.7982 4.4622-3.9222 5.7741-1.9646-0.49656-1.8327 4.2843-3.3184 5.9927-2.0072-0.58473-2.0798 3.3484-2.1237 4.3359-1.4115 0.03317-1.804 4.1735-2.9099 5.4201-1.4553-0.4225-2.6303 3.8141-1.9054 5.8376-3.8467 6.3108-1.4407 9.5257-6.0106 16.528-5.1748 5.2796 0.04488 11.085-1.4173 13.842-4.0902-2.8348-8.1662-3.0977-13.858-6.0528-22.016 2.9147-2.2069-0.18606-4.9956-0.54942-7.41-0.58588-2.1635-7.03-2.4542-5.0357 0.20814-4.4728-0.6609 1.6974 0.41872-0.70768-1.0398-2.0343-0.43148-4.3285-0.09738-2.5873-0.99388-1.7495-1.1961-4.456-0.00963-6.6389-0.12119zm-53.82 33.602c-2.115-1.6614-10.629 1.2843-4.2302 1.0736l4.2302-1.0736zm56.65-32.912c1.4061-0.03987-3.2179 0.59688 0 0zm-2.0662 2.0604-1.0342 0.19201 1.0342-0.19201zm11.373-0.82294c0.74662 0.43026 0.21386 1.0196 0 0zm-9.2626 1.1154c2.4511-0.32848-4.1908 1.0264 0 0zm2.9369-0.26453 1.1112-0.05127-1.1112 0.05127zm4.3274 0.3578c1.197 0.18251 1.5834 0.61575 0 0zm-11.454 1.2635c-0.65014 0.55203-2.781 1.3201-0.8231 0.36274l0.8231-0.36274zm13.906-1.2028c0.60941 0.89458-0.3131 1.1445 0 0zm-17.643 2.1198c-1.7088 0.58568-2.0245 0.50125 0 0zm16.231-1.6005c1.1617 0.96197 0.45215 0.74386 0 0zm-14.974 1.8634 0.90506 0.18826-0.90506-0.18826zm16.017-0.91039c0.29901 0.99309-1.6596 0.90889 0.11183 0.21512l-0.11183-0.21512zm-17.843 1.8852c2.4002 1.396 8.1998-1.5813 4.0728 0.65814-1.2054-0.57107-2.9192 0.01012-4.0728-0.65814zm4.443 0.2869-0.35208 0.06308 0.35208-0.06308zm5.8262-1.31c1.0046 0.9024 1.6772 1.308 0.14687 0.23595-0.10805 1.6277 0.04086 1.0061-0.14687-0.23595zm-3.3952 1.9032c4.7758-0.37917-5.4744 0.93679 0.02621 1.2699-3.9625 0.40773-2.0641-0.40216-0.02621-1.2699zm3.5224-0.22687c0.30567 0.30783-0.71693-0.00617 0 0zm0.36908 0.35473c0.92475 0.68942 0.26547 1.5436 0 0zm-2.4205 4.317c3.4902-0.16714 4.0291 0.12943 0 0zm-5.3989 6.7468c-0.05781 0.26026-0.58278-0.10825 0 0zm-79.564 8.7415c1.4061-0.03987-3.2179 0.59688 0 0zm74.705-7.237-0.60992 0.21468 0.60992-0.21468zm0.00954 0.15618c0.35879 1.2234 0.30303 2.1759 0 0zm4.9744 0.25158c-1.7077 0.53791-2.4673 0.63996 0 0zm-9.7675 1.2462c2.8272 1.8546-6.4801 2.8356-0.29534 1.4519 1.0913-0.22762-0.16136-0.99679 0.29534-1.4519zm-71.987 7.6435-1.0342 0.19201 1.0342-0.19201zm11.373-0.82294c0.74662 0.43025 0.21385 1.0196 0 0zm-9.2627 1.1154c2.4511-0.32848-4.1908 1.0264 0 0zm65.7-6.7769c0.53017 0.3382 1.247 1.2376 0.34015 0.35923l-0.34015-0.35923zm-62.763 6.5124 1.1112-0.05127-1.1112 0.05127zm57.835-5.2561 0.04898 0.02751-0.04898-0.02751zm-53.508 5.6139c1.197 0.18251 1.5834 0.61575 0 0zm-11.454 1.2635c-0.65014 0.55202-2.781 1.3201-0.82309 0.36274l0.82309-0.36274zm13.906-1.2028c0.60941 0.89458-0.31312 1.1445 0 0zm-17.643 2.1198c-1.7088 0.58569-2.0245 0.50125 0 0zm16.231-1.6005c1.1618 0.96197 0.45215 0.74386 0 0zm-14.974 1.8634 0.90507 0.18826-0.90507-0.18826zm66.137-6.665c4.7644 0.26533-4.5705 1.6253 0.91959 0.56462 1.5931-0.26129-0.50391-0.61948-0.91959-0.56462zm-50.12 5.7546c0.29901 0.99309-1.6596 0.90889 0.11183 0.21513l-0.11183-0.21513zm-17.843 1.8852c2.4002 1.396 8.1998-1.5814 4.0728 0.65814-1.2054-0.57107-2.9192 0.01012-4.0728-0.65814zm4.443 0.2869-0.35208 0.06308 0.35208-0.06308zm5.8262-1.31c1.0046 0.9024 1.6772 1.308 0.14689 0.23595-0.10808 1.6277 0.04085 1.0061-0.14689-0.23595zm49.481-4.1562c4.5838 0.29376-6.0886 1.5612-0.93101 0.76453 1.173-0.24051 3.9554-0.58694 0.93101-0.76453zm-52.877 6.0594c4.7758-0.37917-5.4744 0.93679 0.02622 1.2699-3.9625 0.40774-2.0641-0.40216-0.02622-1.2699zm3.5224-0.22687c0.30568 0.30783-0.71692-0.00616 0 0zm0.36909 0.35473c1.0096 0.85582 0.0306 1.3951 0 0zm36.198-3.391c-1.8513 0.65382-6.2037 2.5676-2.4415 0.63782 0.95623 0.02812 1.614-0.44826 2.4415-0.63782zm-7.3249 3.5867c-1.4172 0.43398-2.667 0.66511 0 0zm-7.1127 1.3055c1.016 1.672-9.338 2.5244-2.5467 1.2069 0.88962-0.27108 3.3123-0.31173 2.5467-1.2069zm-24.049 2.8022c3.0848-0.19524 5.1122 0.17633 0 0zm34.715-3.493-19.951 6.1109c1.0847 3.0288 2.9642 8.2128 3.5552 9.9031l-4.6932-12.418c-0.10747 2.3495 2.1966 2.6979 5.0999 1.2575l15.989-4.8536zm25.356-2.6034c5.5883-0.72977-1.0906 3.5609-1.3647 0.36734-1.9542 0.30356-0.29428 3.2562-3.9727 2.4268 0.21684-2.1831-3.0644-1.5546-1.4756 0.26719-1.2574 2.0774-7.4842 1.4093-3.5455-0.65917 3.1044-1.2501 6.6897-1.9838 10.359-2.4021zm2.7396 1.5829c2.1415 2.3294-6.2578 2.5244-1.788 0.43895 0.5489-0.21995 1.2255-0.24013 1.788-0.43895zm-15.428 1.8121c2.4807 2.5342-8.7627 3.9127-2.831 1.2588 0.87433-0.47029 1.8519-0.86797 2.831-1.2588zm10.801-0.44936c2.1556 2.3244-6.2666 2.5298-1.8209 0.44469 0.56121-0.22042 1.2479-0.24289 1.8209-0.44469zm-4.6329 1.3437c2.4307 2.3366-7.8471 3.1749-3.0229 0.88212l3.0229-0.88212zm9.8545-0.56759c2.7302 2.2991-5.2588 3.7722-2.6303 0.71415 0.93845-0.14993 1.7385-0.49754 2.6303-0.71415zm-21.8 2.8642c-1.6324 1.2996-2.3763 1.7342 0.49534 1.4785-1.1325 3.9359-5.1162-0.11596-0.49534-1.4785zm6.2525-0.62717c2.4022 2.0954-7.6893 3.5856-3.6691 1.077l3.6691-1.077zm10.919-0.87421c2.7906 2.3609-5.0923 3.8962-2.6181 0.75885l2.6181-0.75885zm-4.5672 1.3369c3.411 2.836-7.5638 4.3573-3.3774 0.93821 1.0862-0.3643 2.3791-0.47865 3.3774-0.93821zm9.9266-0.06426c2.6726 2.1891-5.196 3.6582-2.6073 0.73083 0.95028-0.12798 1.7189-0.51467 2.6073-0.73083zm-15.647 1.7562c3.3558 2.5163-6.8718 4.921-4.2798 1.2787 1.3454-0.50722 2.9016-0.79299 4.2798-1.2787zm11.063-0.35859c2.678 2.2036-5.1573 3.6759-2.6034 0.72955 0.94931-0.12681 1.716-0.51432 2.6034-0.72955zm-19.752 2.3184c0.63619 1.0866 3.8544-1.1538 3.3171 1.0696-0.00132 2.065-4.2486 1.7667-3.1446-0.41982l-0.1725-0.64981zm15.201-0.92425c3.1453 2.5984-7.4482 4.0705-3.4081 1.034 1.1063-0.37836 2.3042-0.65304 3.4081-1.034zm9.8301-0.29002c3.0283 2.2897-5.6292 3.3487-2.308 0.73483l2.308-0.73483zm-15.534 2.0392c3.1188 2.4168-7.2316 4.4228-3.843 1.167 1.1841-0.49608 2.6663-0.66259 3.843-1.167zm10.966-0.58435c2.6299 2.4354-5.993 2.9131-1.9028 0.44214 0.74368 0.04642 1.272-0.28871 1.9028-0.44214zm-16.89 2.3955c2.5223 1.7191-5.2045 3.9384 0.61511 2.9441 2.036 1.8173-4.1093 2.4796-2.707-0.02861-0.24438-2.0845-2.0264-2.1585 2.0918-2.9155zm12.382-0.96658c2.6572 2.053-6.8457 3.9026-3.5501 1.1371l3.5501-1.1371zm-5.6883 1.8065c2.6102 2.1346-7.3852 3.6936-3.5021 1.1153l3.5021-1.1153z" fill-opacity=".73059" fill-rule="evenodd" filter="url(#bx)"/>
 <path d="m15.61 110.39 1.4066-40.485 2.5685 1.2843 6.0544 1.3454 4.0362-0.30578 3.4247-0.91733 2.385-1.3454 2.3239 40.729-3.4858 2.6297-5.6263 1.7123-4.8313-0.24462-4.2809-1.5289-3.9751-2.8743z" fill="url(#bw)" fill-rule="evenodd"/>
 <path d="m14.76757,61.5625-.0625,1.0625 .125,5.25 2.8125,2.5625 3.0625,1.1875 7.0625,1 4.6875-.8125 3.0625-1.75 1.6875-1.9375-.0625-5.6875-.75,1.0625-2,1.9375-.4375-2.5-6.8125,1.3125-.1875,2.8125-6.5625-.5625 .0625-3-3.125-.75-1.625-1.5625-.25,1.1875-.6875-.8125z" fill="url(#be)" fill-rule="evenodd"/>
 <path d="m15.33007,62.0625-.3125-.9375 .375-2.125 2.125.625 .25.5625-1.9375.5-.5,1.375z" fill="url(#bf)" fill-rule="evenodd"/>
 <path d="m17.39257,59.625-2.125-.5-.0625-2.5625 2.1875.75v2.3125z" fill="url(#bg)" fill-rule="evenodd"/>
 <path d="m17.51757,57.125-2-.75 .5625-1.0625 3.625-1.75 1.75,1.5625-1.75.5-1.375.875-.8125.625z" fill="url(#bh)" fill-rule="evenodd"/>
 <path d="m21.76757,55.8125 1.75-.5 1.125,1.375-.5.375-2.25.25-.125-1.5z" fill="url(#bi)" fill-rule="evenodd"/>
 <path d="m23.455 55.25-0.125-2.5625 1.25 1.75 0.3125 2.25-1.4375-1.4375z" fill="url(#bj)" fill-rule="evenodd"/>
 <path d="m23.58007,52.625 1.1875,1.875 1.25-.3125 3.875.5-1.0625-1.9375-4.5-.0625-.4375-.0625h-.3125z" fill="url(#bk)" fill-rule="evenodd"/>
 <path d="m29.95507,55.625 1-.1875 1.1875.5-.0625,1.625-2.25-1.0625 .125-.875z" fill="url(#bl)" fill-rule="evenodd"/>
 <path d="m32.39257,55.125 1.75-.6875 1.5,1.25 1,1.5625 .5,2h-2.875l.3125-.9375-.5625-1.1875-1.625-2z" fill="url(#bm)" fill-rule="evenodd"/>
 <path d="m34.39257,59.0625v2.25l2.75.4375-.1875-2.5625-2.5625-.125z" fill="url(#bn)" fill-rule="evenodd"/>
 <path d="m34.45507,61.3125-.8125.6875 .3125.875 .375,2.6875 1.375-1.25 1.125-1.3125 .375-1.3125-2.75-.375z" fill="url(#bo)" fill-rule="evenodd"/>
 <path d="m32.83007,60.3125 1.0625,2.5-4.3125,1.1875-2.375.125-.6875-2 2.1875-.25 2.625-.8125 1.5-.75z" fill="url(#bp)" fill-rule="evenodd"/>
 <path d="m26.51757,62.3125 .6875,1.875-.25,2.8125-.8125-2.125 .375-2.5625z" fill="url(#bq)" fill-rule="evenodd"/>
 <path d="m26.26757,65 .4375,1.9375c-2.22937.1776-4.22776-.22226-6.125-.875l2.1875-1.3125 1.625.3125 1.875-.0625z" fill="url(#br)" fill-rule="evenodd"/>
 <path d="m20.268 66 2.5625-1.3125-0.25-2.375-2.0625 1.125-0.25 2.5625z" fill="url(#bs)" fill-rule="evenodd"/>
 <path d="m20.76757,63.3125-1.8125-.25-1.4375-.4375-1.375-.8125-.4375-1 2.25-.625 .875.875 2.25.9375 1.25.3125-1.9375,1.0625 .375-.0625z" fill="url(#bt)" fill-rule="evenodd"/>
 <path d="m19.20507,60.75 2.875-1.875 3.1875-.8125 2.0625-.1875 2.25.3125 1.9375.625 2.3125,1.75 .5625,1-.8125.5625-.625-1.75-3.0625,1.3125-3.4375.5-.3125,2.75-.6875.1875-2.0625-.3125-.625-.1875-.3125-2.25-2-.5625-1.625-.8125 .375-.25z" fill="url(#bu)" fill-rule="evenodd"/>
 <path d="m18.89257,61-1.4375-.8125 .125-2.75 1.5-1.6875 2.5625-.625 .0625,2.125h1.4375l1.75-.5-.1875-2.25 2.25-.3125 3,.6875 .0625,1.8125 2.1875,1-.0625-2.5 1.1875.875 .9375,1.4375 .1875,1.625-.1875,1.9375-1.75-1.625-3.5-1.4375-3.5625-.0625-2.75.8125-2.625,1.1875-1.1875,1.0625z" fill="url(#bv)" fill-rule="evenodd"/>
 <path d="m15.33007,62.0625-.3125-.9375 .375-2.125 2.125.625 .25.5625-1.9375.5-.5,1.375z" fill-opacity=".15686" fill-rule="evenodd"/>
 <path d="m17.39257,59.625-2.125-.5-.0625-2.5625 2.1875.75v2.3125z" fill-opacity=".15686" fill-rule="evenodd"/>
 <path d="m23.455 55.25-0.125-2.5625 1.25 1.75 0.3125 2.25-1.4375-1.4375z" fill-opacity=".15686" fill-rule="evenodd"/>
 <path d="m34.39257,59.0625v2.25l2.75.4375-.1875-2.5625-2.5625-.125z" fill-opacity=".15686" fill-rule="evenodd"/>
 <path d="m18.89257,61-1.4375-.8125 .125-2.75 1.5-1.6875 2.5625-.625 .0625,2.125h1.4375l1.75-.5-.1875-2.25 2.25-.3125 3,.6875 .0625,1.8125 2.1875,1-.0625-2.5 1.1875.875 .9375,1.4375 .1875,1.625-.1875,1.9375-1.75-1.625-3.5-1.4375-3.5625-.0625-2.75.8125-2.625,1.1875-1.1875,1.0625z" fill-opacity=".15686" fill-rule="evenodd"/>
 <path d="m14.76757,61.5625-.0625,1.0625 .125,5.25 2.8125,2.5625 3.0625,1.1875 7.0625,1 4.6875-.8125 3.0625-1.75 1.6875-1.9375-.0625-5.6875-.75,1.0625-2,1.9375-.4375-2.5-6.6875,1.3125-.3125,2.8125-6.5625-.5625 .0625-3-3.125-.75-1.625-1.5625-.25,1.1875-.6875-.8125z" fill-opacity=".15686" fill-rule="evenodd"/>
 <path d="m29.70507,89.8125 4.8125-1.25-.4375-2.25-.9375-2.4375-1.5625-2.375-1.1875,2.125-.75,2.375v1.625l.0625,2.1875z" fill="#d59163" fill-rule="evenodd"/>
 <path d="m101.07 81.94 1.4066-40.485 2.5685 1.2843 6.0544 1.3454 4.0362-0.30578 3.4247-0.91733 2.3851-1.3454 2.3239 40.729-3.4858 2.6297-5.6263 1.7123-4.8313-0.24462-4.2809-1.5289-3.9751-2.8743z" fill="url(#bd)" fill-rule="evenodd"/>
 <path d="m100.22427,33.11523-.0625,1.0625 .125,5.25 2.8125,2.5625 3.0625,1.1875 7.0625,1 4.6875-.8125 3.0625-1.75 1.6875-1.9375-.0625-5.6875-.75,1.0625-2,1.9375-.4375-2.5-6.8125,1.3125-.1875,2.8125-6.5625-.5625 .0625-3-3.125-.75-1.625-1.5625-.25,1.1875-.6875-.8125z" fill="url(#bc)" fill-rule="evenodd"/>
 <path d="m100.78677,33.61523-.3125-.9375 .375-2.125 2.125.625 .25.5625-1.9375.5-.5,1.375z" fill="url(#bb)" fill-rule="evenodd"/>
 <path d="m102.85 31.178-2.125-0.5-0.0625-2.5625 2.1875 0.75v2.3125z" fill="url(#ba)" fill-rule="evenodd"/>
 <path d="m102.97427,28.67773-2-.75 .5625-1.0625 3.625-1.75 1.75,1.5625-1.75.5-1.375.875-.8125.625z" fill="url(#az)" fill-rule="evenodd"/>
 <path d="m107.22427,27.36523 1.75-.5 1.125,1.375-.5.375-2.25.25-.125-1.5z" fill="url(#ay)" fill-rule="evenodd"/>
 <path d="m108.91 26.803-0.125-2.5625 1.25 1.75 0.3125 2.25-1.4375-1.4375z" fill="url(#ax)" fill-rule="evenodd"/>
 <path d="m109.03677,24.17773 1.1875,1.875 1.25-.3125 3.875.5-1.0625-1.9375-4.5-.0625-.4375-.0625h-.3125z" fill="url(#aw)" fill-rule="evenodd"/>
 <path d="m115.41177,27.17773 1-.1875 1.1875.5-.0625,1.625-2.25-1.0625 .125-.875z" fill="url(#av)" fill-rule="evenodd"/>
 <path d="m117.85 26.678 1.75-0.6875 1.5 1.25 1 1.5625 0.5 2h-2.875l0.3125-0.9375-0.5625-1.1875-1.625-2z" fill="url(#au)" fill-rule="evenodd"/>
 <path d="m119.85 30.615v2.25l2.75 0.4375-0.1875-2.5625-2.5625-0.125z" fill="url(#at)" fill-rule="evenodd"/>
 <path d="m119.91177,32.86523-.8125.6875 .3125.875 .375,2.6875 1.375-1.25 1.125-1.3125 .375-1.3125-2.75-.375z" fill="url(#as)" fill-rule="evenodd"/>
 <path d="m118.28677,31.86523 1.0625,2.5-4.3125,1.1875-2.375.125-.6875-2 2.1875-.25 2.625-.8125 1.5-.75z" fill="url(#ar)" fill-rule="evenodd"/>
 <path d="m111.97 33.865 0.6875 1.875-0.25 2.8125-0.8125-2.125 0.375-2.5625z" fill="url(#aq)" fill-rule="evenodd"/>
 <path d="m111.72427,36.55273 .4375,1.9375c-2.22937.1776-4.22776-.22226-6.125-.875l2.1875-1.3125 1.625.3125 1.875-.0625z" fill="url(#ap)" fill-rule="evenodd"/>
 <path d="m105.72 37.553 2.5625-1.3125-0.25-2.375-2.0625 1.125-0.25 2.5625z" fill="url(#ao)" fill-rule="evenodd"/>
 <path d="m106.22427,34.86523-1.8125-.25-1.4375-.4375-1.375-.8125-.4375-1 2.25-.625 .875.875 2.25.9375 1.25.3125-1.9375,1.0625 .375-.0625z" fill="url(#an)" fill-rule="evenodd"/>
 <path d="m104.66177,32.30273 2.875-1.875 3.1875-.8125 2.0625-.1875 2.25.3125 1.9375.625 2.3125,1.75 .5625,1-.8125.5625-.625-1.75-3.0625,1.3125-3.4375.5-.3125,2.75-.6875.1875-2.0625-.3125-.625-.1875-.3125-2.25-2-.5625-1.625-.8125 .375-.25z" fill="url(#am)" fill-rule="evenodd"/>
 <path d="m104.34927,32.55273-1.4375-.8125 .125-2.75 1.5-1.6875 2.5625-.625 .0625,2.125h1.4375l1.75-.5-.1875-2.25 2.25-.3125 3,.6875 .0625,1.8125 2.1875,1-.0625-2.5 1.1875.875 .9375,1.4375 .1875,1.625-.1875,1.9375-1.75-1.625-3.5-1.4375-3.5625-.0625-2.75.8125-2.625,1.1875-1.1875,1.0625z" fill="url(#al)" fill-rule="evenodd"/>
 <path d="m100.78677,33.61523-.3125-.9375 .375-2.125 2.125.625 .25.5625-1.9375.5-.5,1.375z" fill-opacity=".15686" fill-rule="evenodd"/>
 <path d="m102.85 31.178-2.125-0.5-0.0625-2.5625 2.1875 0.75v2.3125z" fill-opacity=".15686" fill-rule="evenodd"/>
 <path d="m108.91 26.803-0.125-2.5625 1.25 1.75 0.3125 2.25-1.4375-1.4375z" fill-opacity=".15686" fill-rule="evenodd"/>
 <path d="m119.85 30.615v2.25l2.75 0.4375-0.1875-2.5625-2.5625-0.125z" fill-opacity=".15686" fill-rule="evenodd"/>
 <path d="m104.34927,32.55273-1.4375-.8125 .125-2.75 1.5-1.6875 2.5625-.625 .0625,2.125h1.4375l1.75-.5-.1875-2.25 2.25-.3125 3,.6875 .0625,1.8125 2.1875,1-.0625-2.5 1.1875.875 .9375,1.4375 .1875,1.625-.1875,1.9375-1.75-1.625-3.5-1.4375-3.5625-.0625-2.75.8125-2.625,1.1875-1.1875,1.0625z" fill-opacity=".15686" fill-rule="evenodd"/>
 <path d="m100.22427,33.11523-.0625,1.0625 .125,5.25 2.8125,2.5625 3.0625,1.1875 7.0625,1 4.6875-.8125 3.0625-1.75 1.6875-1.9375-.0625-5.6875-.75,1.0625-2,1.9375-.4375-2.5-6.6875,1.3125-.3125,2.8125-6.5625-.5625 .0625-3-3.125-.75-1.625-1.5625-.25,1.1875-.6875-.8125z" fill-opacity=".15686" fill-rule="evenodd"/>
 <path d="m114.6 61.388 4.8125-1.25-0.4375-2.25-0.9375-2.4375-1.5625-2.375-1.1875 2.125-0.75 2.375v1.625l0.0625 2.1875z" fill="#d59163" fill-rule="evenodd"/>
 <path d="m58.83 101.88-21.25 7.4375-1.4375-30.75 25.312-8.125 44.438-14 0.0625 28.625-18.312 6.625-0.0625-18.625-8.125-1-6.6875 0.9375-7.875 3.8125-5.9375 4.875-0.125 20.188z" fill="url(#ak)" fill-rule="evenodd"/>
 <path d="m82.371 72.194c0.57079 0.08782 5.4006 0.79033 5.4006 0.79033l-0.17563 18.573-5.225-2.1954v-17.168z" fill="url(#aj)" fill-rule="evenodd"/>
 <path d="m82.371 72.194c0.57079 0.08782 5.4006 0.79033 5.4006 0.79033l-0.17563 18.573-5.225-2.1954v-17.168z" fill-opacity=".15686" fill-rule="evenodd"/>
 <path d="m56.293 102.73v-21.671l3.291-3.4152 4.595-3.4773 4.4708-2.1112 4.2224-1.3661 5.6506-0.93141 3.4152-0.12419 5.4022 0.43466 2.7942 0.74513-0.12419 19.746-2.4217 1.0556v-18.628l-6.4578-0.86932-5.278 0.18628-3.974 1.2419-6.4578 2.7321-6.0852 5.0296-0.49675 0.68304 0.06209 19.994-2.608 0.74513z" fill="#fff" fill-opacity=".12549" fill-rule="evenodd"/>
 <path d="m59.408 82.029 26.257-7.8594 0.39517-0.30735s0.04391-0.26344-0.08781-0.43907-0.26344-0.48298-0.26344-0.48298l-24.325 6.9812-2.1076 1.8002 0.13172 0.30735z" fill="url(#ai)" fill-rule="evenodd"/>
 <path d="m58.969 85.761 26.74-8.1667 0.39516-0.30735s0.04391-0.26344-0.08781-0.43907-0.35126-0.52689-0.35126-0.52689l-26.74 8.0789 0.04391 1.3611z" fill="url(#ah)" fill-rule="evenodd"/>
 <path d="m58.969 90.459 26.783-8.6058 0.39517-0.30735s0.21954-0.35126 0.08782-0.52689-0.43907-0.52689-0.43907-0.52689l-26.959 8.9132 0.13172 1.0538z" fill="url(#ag)" fill-rule="evenodd"/>
 <path d="m59.101 94.938 26.74-9.0888 0.43907-0.21954s0.21954-0.30735 0.04391-0.65861c-0.09818-0.19636-0.30735-0.39516-0.30735-0.39516l-27.003 8.9571 0.08781 1.405z" fill="url(#af)" fill-rule="evenodd"/>
 <path d="m58.881 98.582 27.091-8.7375 0.39517-0.30735s0.21954-0.35126 0.08781-0.52689-0.57079-0.39517-0.57079-0.39517l-27.091 8.5619 0.08781 1.405z" fill="url(#ae)" fill-rule="evenodd"/>
 <path d="m61.51545,79.30688 .08781,20.50468 .39516.26344 .43907-.13172 .6147-.79033-.43907-20.32905-1.09768.48298z" fill="url(#ad)" fill-rule="evenodd"/>
 <path d="m67.39902,75.61867 .17563,21.95362 .39516.26344 .43907-.13172 .48298-.57079-.17563-22.30487-1.31722.79033z" fill="url(#ac)" fill-rule="evenodd"/>
 <path d="m73.10695,73.3794 .21954,21.95362 .39516.39517 .70252-.08781 .35126-.92205-.26344-21.82189-1.40503.48298z" fill="url(#ab)" fill-rule="evenodd"/>
 <path d="m77.71721,72.45735 .08782,21.69017 .39516.26344 .43907-.13172 .6147-.79033-.04391-21.11938-1.49285.08782z" fill="url(#aa)" fill-rule="evenodd"/>
 <path d="m83.02999,72.10609 .13172,20.24124 .39517.26344 .6147-.04391 .43907-.87814-.08782-19.407-1.49285-.17563z" fill="url(#z)" fill-rule="evenodd"/>
 <path d="m35.648 73.376 4.5962-1.591 0.44194 2.2097 5.6568-1.3258-0.44194-2.4749 5.1265-1.149 0.26517 2.0329 5.4801-1.591-0.08839-1.9445 4.331-1.3258 0.35355 1.9445 4.5962-1.5026v-2.2097l3.9775-0.88388 0.26516 1.5026 4.5078-0.53033-0.35355-2.2981 4.331-1.3258 0.35355 1.8562 4.1542-0.61872-0.17678-2.9168 4.773-1.2374 1.0607 2.0329 3.4471-0.97227-0.26516-2.3865 4.8614-1.6794-0.17678 2.6516 4.6846-1.149 0.08839-3.0052s4.331-2.1213 4.331-1.7678 0.08839 4.773 0.08839 4.773l-49.763 15.645-20.064 6.364-0.44194-5.1265z" fill="url(#y)" fill-rule="evenodd"/>
 <path d="m35.736 73.111-0.26516-2.0329 2.3865-0.88388 2.6516 1.3258-4.773 1.591z" fill="url(#c)" fill-rule="evenodd"/>
 <path d="m40.156 71.785 3.0936-0.88388 2.9168 1.4142-5.4801 1.5026-0.53033-2.0329z" fill="url(#d)" fill-rule="evenodd"/>
 <path d="m43.249 70.636v-1.8562l2.74 1.4142 0.26517 2.3865-3.0052-1.9445z" fill="url(#e)" fill-rule="evenodd"/>
 <path d="m43.603 68.603 4.8614-1.2374 2.2097 1.4142-4.773 1.149-2.2981-1.3258z" fill="url(#f)" fill-rule="evenodd"/>
 <path d="m50.674 68.78 3.182-0.44194 2.8284 1.3258-5.6568 1.4142-0.35355-2.2981z" fill="url(#g)" fill-rule="evenodd"/>
 <path d="m53.944 66.305 0.17678 2.0329 2.74 1.2374-0.35355-2.1213-2.5633-1.149z" fill="url(#h)" fill-rule="evenodd"/>
 <path d="m53.944 65.863 4.5962-1.0607 2.2981 1.2374-4.2426 1.5026-2.6516-1.6794z" fill="url(#i)" fill-rule="evenodd"/>
 <path d="m60.662 65.863 2.9168-0.44194 2.5633 1.3258-4.773 1.4142-0.70711-2.2981z" fill="url(#j)" fill-rule="evenodd"/>
 <path d="m63.225 63.211 0.35355 2.1213 2.5633 1.2374-0.17678-2.2097-2.74-1.149z" fill="url(#k)" fill-rule="evenodd"/>
 <path d="m63.402 63.035 4.331-1.2374 2.3865 1.5026-3.8891 1.0607-2.8284-1.3258z" fill="url(#l)" fill-rule="evenodd"/>
 <path d="m69.854 63.211 2.1213-0.17678 2.6516 1.4142-4.4194 0.61872-0.35355-1.8562z" fill="url(#m)" fill-rule="evenodd"/>
 <path d="m71.887 63.123 0.17678-2.3865 2.3865 1.0607 0.35355 2.5633-2.9168-1.2374z" fill="url(#n)" fill-rule="evenodd"/>
 <path d="m71.976 60.736 4.5078-1.4142 2.1213 1.3258-3.8891 1.3258-2.74-1.2374z" fill="url(#o)" fill-rule="evenodd"/>
 <path d="m78.958 60.56 1.7678 0.17678 2.2097 1.2374-3.6239 0.7955-0.35355-2.2097z" fill="url(#p)" fill-rule="evenodd"/>
 <path d="m80.461 57.82v2.9168l2.74 1.149-0.17678-2.74-2.5633-1.3258z" fill="url(#q)" fill-rule="evenodd"/>
 <path d="m80.549 57.82 2.5633 1.4142 5.0381-1.3258-2.74-1.591-4.8614 1.5026z" fill="url(#r)" fill-rule="evenodd"/>
 <path d="m87.886 57.908 1.7678-0.44194 2.4749 1.4142-3.4472 0.88388-0.7955-1.8562z" fill="url(#s)" fill-rule="evenodd"/>
 <path d="m89.565 57.554-0.26516-2.2097 2.6516 1.2374-0.08839 2.1213-2.2981-1.149z" fill="url(#t)" fill-rule="evenodd"/>
 <path d="m89.3 55.522 5.6568-2.3865 2.3865 1.6794-5.3917 2.0329-2.6516-1.3258z" fill="url(#u)" fill-rule="evenodd"/>
 <path d="m96.901 54.726 2.2097 0.26517 2.74 1.3258-5.0381 1.4142 0.08839-3.0052z" fill="url(#v)" fill-rule="evenodd"/>
 <path d="m99.111 54.814 0.17678-2.5633 2.2981 1.2374-0.17678 2.74-2.2981-1.4142z" fill="url(#w)" fill-rule="evenodd"/>
 <path d="m98.934 51.809 4.6846-1.4142 2.2981 1.4142-4.5078 1.6794-2.4749-1.6794z" fill="url(#x)" fill-rule="evenodd"/>
 <path d="m111.54882,24.03125c-.95231.00644-1.89348.05485-2.84375.09375l.125,2.625c-.47436.28324-1.0985.24648-1.625.40625l-.03125-.53125-1.90625-1.78125c-1.45553.75464-3.01051,1.05148-4.90625,3.15625l.1875,2.46875c-.80482,2.87118-.5589,6.0809-.375,9.03125 .43126.91544 1.23017,1.53666 2.03125,2.125l-.28125,9.15625-3.3125.9375 .125,2.875-1.34375-.25-2.59375-1.46875-5.96875,2.375 .28125,2.0625-1.125.28125-2.46875-1.375-5.59375,1.46875 .4375,2.78125h-1.3125l-.28125-.03125-2.375-1.46875-4.90625,1.59375 .3125,2.125-1.71875.28125-2.5-1.375-4.53125,1.1875 .3125,2.4375-2.34375.65625-2.5625-1.3125-4.71875,1.375 .0625,2.09375-2.75.625v-.03125l-.1875.0625-2.4375-1.4375-5.375,1.28125 .09375,2.15625-2.34375.75-.375-.34375-2.375-1.28125-2.15625.59375-.03125-.5c.68184-.54852 1.24883-1.19054 1.59375-1.9375 .07214-3.285-.10464-5.83625-.15625-8.75-.02661-1.03251-.37601-2.08679-1-3.03125-.79679-1.0787-1.54596-1.34621-2.28125-1.90625l-2.03125.71875v.71875c-.641-.34389-1.16402-.2987-1.75-.3125l-.125-.5625-1.15625-2.15625c-.94495-.14802-1.89144-.19394-2.84375-.1875s-1.89348.05486-2.84375.09375l.125,2.625c-.47436.28324-1.0985.24648-1.625.40625l-.03125-.53125-1.90625-1.78125c-1.45553.75464-3.01051,1.05148-4.90625,3.15625l.1875,2.46875c-.80482,2.87118-.5589,6.0809-.375,9.03125 .43126.91545 1.23017,1.53666 2.03125,2.125l-1.375,40.5c6.14446,6.80356 17.68839,5.6122 22.5625.34375l-.0625-1.40625 21.34375-7.625-.03125-3.1875 2.3125-.75v1.9375c.49148.53636 1.20326.36006 1.59375-.625l-.03125-1.78125 4.4375-1.46875 .03125,1.75c.6889.59154.90171.58704 1.5625-.75v-1.5l3.96875-1.28125v1.4375c.54448.55497 1.74074.39685 1.8125-.875v-1.125l2.6875-.875c-.00216.26955.00216,1.34741 0,1.53125 .41352.39451.98789.53097 1.75-.8125v-1.3125l3.65625-1.15625v1.5625c1.72801.56686 1.60969-.43421 1.6875-.65625v-1.34375l2.84375,1.28125 17.90625-6.5c6.20978,2.79017 14.14083,1.20011 17.96875-2.9375l-2.09375-41.03125c.68184-.54852 1.24883-1.19054 1.59375-1.9375 .07214-3.285-.10464-5.83625-.15625-8.75-.02661-1.03251-.37601-2.08679-1-3.03125-.7968-1.0787-1.54596-1.34621-2.28125-1.90625l-2.03125.71875v.71875c-.641-.34389-1.16402-.2987-1.75-.3125l-.125-.5625-1.15625-2.15625c-.94495-.14802-1.89144-.19394-2.84375-.1875zm-.8125.4375c.35909-.01067.70865.00294 1.125,0 .83269-.00588 1.58194.03648 2.375.21875l.6875,1.25c-1.4774-.29037-2.74477-.71304-4.65625-.21875l-.65625-1.125c.39731-.07937.76591-.11433 1.125-.125zm-1.71875.1875 .84375,1.25 .28125,1.875-.96875-1.21875-.15625-1.90625zm-3.875.6875 1.1875,1.125c-1.42827.39652-2.42027.77562-3.40625,2.1875l-1.65625-.90625c1.03272-1.29001 2.21379-1.74621 3.875-2.40625zm7,.6875c1.06904.02028 2.01593.27838 3.03125.46875l.125,1.75c.8766.29564 2.01609,1.25981 2.5,1.21875l-.1875-2.625c.80704.5635 1.48374,1.32855 1.8125,1.9375 .354.6557.45444,1.31765.21875,2.0625l-.0625,1.34375c-2.19928-2.60004-5.43006-3.2891-8.6875-2.90625-2.36907.39254-4.88614,1.15365-6.59375,2.9375l-1.09375-.6875-.0625-.25-.09375-2c.8773-1.44314 2.23812-1.96312 3.78125-2.40625l.21875,2.03125c.71643.02319 1.51688.04347 3.40625-.5625l-.21875-2.09375c.62088-.20308 1.26604-.18889 1.90625-.21875zm7.25.46875c.74088.54109 1.41892.7201 1.96875,1.375 .53981.64297.89432,1.55838.90625,2.65625l-2.125-.0625c.16495-.73397-.08509-1.15974-.4375-1.8125s-.71801-1.34411-1.5-1.90625l1.1875-.25zm-10.4375.5625 .8125,1.15625c-.73408.29277-1.35566.56483-2.28125.46875l-.03125-1.21875c.6346.02257.95934-.07731 1.5-.40625zm7,.25c.49451-.01128.97424.12511 1.46875.4375l.03125,1.21875c-.51181-.34465-1.19533-.81047-1.8125-.96875l.03125-.65625c.09245-.00884.1888-.02914.28125-.03125zm-15.15625.875 1.875.90625 .0625,1.9375c-.56638-.11587-1.09646-.16622-1.8125-.65625l-.125-2.1875zm11.375,1.5c2.85294-.04804 5.404.5679 7.25,2.9375 .01822.29836-.10413.40144-.28125.59375l-.78125-1.53125c-2.03231.98389-4.11844,1.86571-6.59375,1.875l-.28125,2.875c-1.10739-.00674-1.85118.09288-3.0625-.375l-.25-2.34375c-1.53596-.28004-2.76013-.68295-3.5-1.15625 1.66599-1.68103 4.00766-2.42654 6.28125-2.8125 .41895-.03048.81119-.05564 1.21875-.0625zm10.1875,1.15625-.03125,2.25-2.4375-.40625 .09375-1.75 2.375-.09375zm-21.40625.1875 1.78125.40625 .125.25-1.84375.46875-.28125,1.28125c-.09966-.67146-.00722-1.73247.21875-2.40625zm2.34375,1.03125c.70723.85916 1.88738,1.39935 4,1.84375l-1.5.75c-1.52269-.50402-3.0441.01961-4.21875-2l1.71875-.59375zm14.90625.09375 .6875,1.90625c-2.1911.62214-3.83727,1.38286-6.15625,1.3125l-.4375-1.4375c1.89415-.17501 3.7871-.66653 5.90625-1.78125zm1.75,1.03125 2.4375.25c-.21681,1.46562-1.37758,2.41206-2.5,3.21875l-.28125-2.375-.25-.5625c.33799-.14666.47163-.21578.59375-.53125zm-18.78125.1875c1.06536,1.44028 2.89966,1.35253 4.5,1.9375l-.0625,2.65625c1.36941.43696 2.50607.73035 7,.84375l.09375-2.71875c2.46045.05808 4.3336-.89354 6.53125-1.5l.40625,2.84375c1.25428-.81356 2.1669-1.3858 2.8125-2.75 .14014,1.70804.01405,2.67038-.125,4.4375-2.27146,3.67427-6.81092,4.60475-10.75,4.65625-3.85014-.19847-8.32909-.91191-10.71875-4.34375-.17062-2.14058-.8098-4.33028-.375-5.90625l.4375,1.0625 .25-1.21875zm10.71875.75 .46875,1.59375-.1875,2.34375-.34375-1.6875 .0625-2.25zm-3.96875.0625 .0625,1.84375-1.875,1.125 .09375-1.8125 1.71875-1.15625zm.40625,2.21875c1.27998.48679 2.10004.42697 3.21875.4375l.25,1.40625c-1.91951.0833-3.65327-.04031-5.40625-.75l1.9375-1.09375zm-5.5,5.5c2.70659,1.55928 5.55608,2.17425 8.625,2.3125 3.25908.02006 6.42126-.35389 9.1875-2.1875 .85776,6.90234 1.86206,33.222 2.28125,40.1875-6.84608,5.15546-12.69206,4.64932-16.75,2.84375l-.0625-28.4375v-5l-2.5625-1.3125-1.15625.3125c.12545-3.26631.28096-7.16159.4375-8.71875zm.375,8.8125 2.3125.96875-4.1875,1.375-1.9375-.96875 3.8125-1.375zm2.46875,1.28125v4.34375l-69.375,21.78125-.25-4.78125 4.03125-1.4375 .28125,2.25 6.15625-1.5-.28125-2.28125 4.59375-1.0625 .125,2.0625 6.09375-1.6875-.25-2.09375 3.96875-1.25 .1875,2.125 5.375-1.53125-.0625-2.21875 3.65625-1.15625 .21875,1.84375 4.8125-.75-.21875-2.5 3.90625-1.0625 .375,1.9375 4.3125-.78125-.0625-2.6875 4.46875-1.25 .59375,1.90625 4.0625-1 .03125-2.40625 3.96875-1.65625 .40625,2.90625 5.0625-1.4375 .0625-3.125 3.75-1.5zm-6.375.5625 1.96875.9375 .09375,2.1875-2.125-1.09375 .0625-2.03125zm17.03125.25c-1.36597,2.51975-2.31569,3.81374-2.0625,8.84375l5.40625-1.3125c-.47427-1.55703-.70093-2.67898-1.125-4.25-.51374-1.58134-1.14353-2.0368-2.21875-3.28125zm-91.03125.125c.35909-.01067.70865.00294 1.125,0 .83269-.00588 1.58194.03648 2.375.21875l.6875,1.25c-1.4774-.29037-2.74477-.71304-4.65625-.21875l-.65625-1.125c.39731-.07937.76591-.11433 1.125-.125zm-1.71875.1875 .84375,1.25 .28125,1.875-.96875-1.21875-.15625-1.90625zm92.8125.375c.78316.75137 1.33292,1.67151 1.6875,2.78125 .36808,1.15198.62212,2.43413.96875,3.6875l-4.28125,1.125c.10979-2.82842.25169-5.54218 1.625-7.59375zm-22.3125.03125 2.65625,1.21875-4.84375,1.71875-2.03125-1.0625 4.21875-1.875zm-74.375.28125 1.1875,1.125c-1.42827.39652-2.42027.77562-3.40625,2.1875l-1.65625-.90625c1.03272-1.29001 2.21378-1.74621 3.875-2.40625zm7,.6875c1.06904.02028 2.01593.27838 3.03125.46875l.125,1.75c.87659.29564 2.01609,1.25981 2.5,1.21875l-.1875-2.625c.80704.5635 1.48374,1.32855 1.8125,1.9375 .354.6557.45444,1.31765.21875,2.0625l-.0625,1.34375c-2.19927-2.60004-5.43006-3.2891-8.6875-2.90625-2.36907.39254-4.88614,1.15365-6.59375,2.9375l-1.09375-.6875-.0625-.25-.09375-2c.8773-1.44314 2.23812-1.96312 3.78125-2.40625l.21875,2.03125c.71643.02319 1.51688.04347 3.40625-.5625l-.21875-2.09375c.62088-.20308 1.26603-.18889 1.90625-.21875zm70.5625.375 1.96875.375 2.03125.9375-4.125,1.1875 .125-2.5zm-63.3125.09375c.74088.54109 1.41892.7201 1.96875,1.375 .53981.64297.89432,1.55838.90625,2.65625l-2.125-.0625c.16495-.73397-.08509-1.15973-.4375-1.8125s-.71801-1.34411-1.5-1.90625l1.1875-.25zm-10.4375.5625 .8125,1.15625c-.73408.29277-1.35566.56483-2.28125.46875l-.03125-1.21875c.63461.02258.95934-.07731 1.5-.40625zm7,.25c.49451-.01128.97424.12511 1.46875.4375l.03125,1.21875c-.51181-.34465-1.19533-.81047-1.8125-.96875l.03125-.65625c.09245-.00884.1888-.02914.28125-.03125zm59.28125.125 1.65625.78125 .25,1.71875-1.9375-1.03125 .03125-1.46875zm-74.4375.75 1.875.90625 .0625,1.9375c-.56638-.11587-1.09646-.16622-1.8125-.65625l-.125-2.1875zm90.3125.0625-.03125,28.125-15.53125,5.5625 .03125-19.78125c-2.6124-.63315-6.00487-1.10091-8.9375-1.09375-8.79789.02149-18.38349,3.24466-25,11.4375l.09375,21.5-18.4375,6.59375-1.5625-30.53125 69.375-21.8125zm-20.5625.21875 2,.9375-4.09375,1.0625-1.78125-.90625 3.875-1.09375zm4.53125.90625 2.09375,1.03125-2.8125.59375-.625-1.46875 1.34375-.15625zm-62.90625.3125c2.85294-.04805 5.40399.5679 7.25,2.9375 .01822.29836-.10413.40144-.28125.59375l-.78125-1.53125c-2.03231.98389-4.11843,1.86571-6.59375,1.875l-.28125,2.875c-1.10739-.00674-1.85118.09288-3.0625-.375l-.25-2.34375c-1.53596-.28004-2.76013-.68295-3.5-1.15625 1.66599-1.68103 4.00766-2.42654 6.28125-2.8125 .41895-.03048.81119-.05564 1.21875-.0625zm53.90625.09375 1.9375.90625 .375,2.5625-2.25-1.15625-.0625-2.3125zm-43.71875,1.0625-.03125,2.25-2.4375-.40625 .09375-1.75 2.375-.09375zm-21.40625.1875 1.78125.40625 .125.25-1.84375.46875-.28125,1.28125c-.09966-.67146-.00722-1.73246.21875-2.40625zm60.5.21875 1.90625.96875-3.3125,1.09375-2.125-1.09375 3.53125-.96875zm-58.15625.8125c.70723.85916 1.88738,1.39935 4,1.84375l-1.5.75c-1.52269-.50402-3.0441.01961-4.21875-2l1.71875-.59375zm14.90625.09375 .6875,1.90625c-2.1911.62214-3.83727,1.38286-6.15625,1.3125l-.4375-1.4375c1.89415-.17501 3.7871-.66653 5.90625-1.78125zm47.53125.28125 2.1875,1.03125-2.84375.59375-.4375-1.53125 1.09375-.09375zm-8.15625.125 1.96875.9375 .3125,2.09375-2.125-1-.15625-2.03125zm-37.625.625 2.4375.25c-.21681,1.46562-1.37758,2.41206-2.5,3.21875l-.28125-2.375-.25-.5625c.33799-.14666.47163-.21578.59375-.53125zm-18.78125.1875c1.06536,1.44028 2.89966,1.35253 4.5,1.9375l-.0625,2.65625c1.36941.43696 2.50607.73035 7,.84375l.09375-2.71875c2.46045.05808 4.3336-.89354 6.53125-1.5l.40625,2.84375c1.25428-.81355 2.1669-1.3858 2.8125-2.75 .14014,1.70804.01405,2.67038-.125,4.4375-2.27146,3.67427-6.81092,4.60475-10.75,4.65625-3.85015-.19847-8.32909-.91191-10.71875-4.34375-.17062-2.14058-.8098-4.33028-.375-5.90625l.4375,1.0625 .25-1.21875zm51.5625.34375 2.15625.96875-3.71875.96875-1.75-.875 3.3125-1.0625zm-40.84375.40625 .46875,1.59375-.1875,2.34375-.34375-1.6875 .0625-2.25zm-3.96875.0625 .0625,1.84375-1.875,1.125 .09375-1.8125 1.71875-1.15625zm47.8125.5625 1.34375.0625 2.15625,1.03125-3.03125.53125-.46875-1.625zm-6.65625.375 2.09375,1 .21875,1.75-2.25-1.1875-.0625-1.5625zm-40.75,1.28125c1.27998.48679 2.10004.42697 3.21875.4375l.25,1.40625c-1.91951.0833-3.65327-.04031-5.40625-.75l1.9375-1.09375zm35.25.09375 2.21875,1.1875-3.84375,1.125-2.15625-1.125 3.78125-1.1875zm5.34375.65625 2.21875,1.03125-4.3125,1.15625-.28125-1.71875 2.375-.46875zm-9.25,1 2.125,1.03125 .0625,1.625-2-1.0625-.1875-1.59375zm-6.03125,1.3125 2.09375.875-4.4375,1.03125-1.84375-.9375 4.1875-.96875zm5.5.5 2.25,1.0625-4.53125,1.125-.3125-1.75 2.59375-.4375zm-10.0625.8125 2.03125.96875 .09375,1.6875-1.9375-1.03125-.1875-1.625zm38,.53125c2.94783.00383 5.74841.39281 8.25,1.09375l-.125,19.65625-1.75.625 .03125-18.71875c-2.5818-.48893-5.4401-.80989-7.96875-.75-7.58595.17966-14.89941,3.0398-21.65625,9.96875l-.03125,20.0625-1.84375.65625-.125-21.1875c6.32038-8.06487 16.37526-11.41775 25.21875-11.40625zm-64.25.59375c2.70659,1.55928 5.55608,2.17425 8.625,2.3125 3.25908.02006 6.42126-.35389 9.1875-2.1875 .85776,6.90234 1.86206,33.222 2.28125,40.1875-10.2682,7.73251-18.3568,2.83347-21.40625-.28125 .28684-6.89202.64517-33.39288 1.3125-40.03125zm20.0625.15625 2.375.90625-3.84375,1.1875-.0625-1.40625 1.53125-.6875zm5.96875.53125 2.40625,1.21875-4.875,1.15625-.25-1.8125 2.71875-.5625zm36.375,1.4375c.92113-.01343 1.53639.01665 2.46875.09375v1.15625l-2.90625.84375v-2.0625c.14734-.00452.28993-.0291.4375-.03125zm-.78125.03125-.0625,20.90625c-.49321.92876-.7664.86929-1.03125.65625l.03125-21.5c.35514-.02957.70594-.04704 1.0625-.0625zm-1.34375.09375c-.00349.8417.00349,1.53569 0,2.46875l-3.03125.90625-.03125-2.90625c1.01141-.21795 2.03832-.37247 3.0625-.46875zm4.9375,0 .3125.03125v.90625l-.3125.09375v-1.03125zm.59375.0625c.33646.03687.67237.10898 1.03125.15625l.09375,19.1875c-.30101.83406-.86158.28748-1.15625.25l.03125-19.59375zm1.40625.1875 .4375.0625-.4375.125v-.1875zm.96875.21875c.24229.29273.52852.56144-.03125.96875l-.9375.28125v-.96875l.96875-.28125zm-11.21875.03125 .3125,21.6875c-.17715,1.21202-.82869.50486-1.21875.53125l-.25-21.90625c.38908-.1071.76512-.22424 1.15625-.3125zm11.65625,0c.37622.06795.78519.10972 1.125.1875l.28125,17.875-2.125-.875 .78125-.25c.80734-.31949.74717-1.52965-.15625-1.65625l-1.25.40625v-2.375l1.4375-.5c.37502-.01752.7071-1.54695-.15625-1.625l-1.3125.4375v-2.3125l1.1875-.375c1.03499-.78846.44674-1.80158-.09375-1.8125l-1.09375.34375v-2.375l1.3125-.40625c.48917-.78108.3208-1.50245-.25-1.65625l-1.09375.3125v-1.8125l1.21875-.34375c.3172-.42567.33545-.814.1875-1.1875zm-13.09375.40625 .03125,2.9375-3.96875,1.1875v-2.65625c1.29636-.60693 2.61544-1.08868 3.9375-1.46875zm10,.34375v.96875l-3.5625,1.0625v-1.03125l3.5625-1zm0,1.28125 .03125,1.84375-.3125.09375-.03125-1.84375 .3125-.09375zm-14.3125.03125 .125,21.65625c-.23855.59856-.58249.70252-.9375.71875l-.21875-21.875c.33688-.18096.69247-.3352 1.03125-.5zm13.65625.15625-.03125,1.875-2.875.84375v-1.84375l2.90625-.875zm-4.59375.03125c-.00141.3812-.02984.60907-.03125,1l-2.96875.90625-.03125-1.03125 3.03125-.875zm-10.375.46875 .03125,2.28125-4.5,1.3125v-.59375c1.47019-1.1732 2.95728-2.1664 4.46875-3zm18.3125.59375c.47838.46932.69176.88971 0,1.125l-.96875.28125-.03125-1.125 1-.28125zm-12.65625.28125v1.0625l-3.9375,1.1875v-1.09375l3.9375-1.15625zm4.6875,0c-.00265.73802.00265,1.11917 0,1.875l-2.9375.90625-.03125-1.90625 2.96875-.875zm5.3125.53125v1.125l-3.59375,1.09375v-1.125l3.59375-1.09375zm-10,.84375v1.9375l-3.9375,1.1875v-1.9375l3.9375-1.1875zm-5.625.28125v1.0625l-4.46875,1.34375-.03125-1.125 4.5-1.28125zm15.625.375v2.4375l-.28125.09375-.03125-2.46875 .3125-.0625zm-5.3125.09375c-.00163.46676.00163.68889 0,1.15625l-2.9375.875v-1.125l2.9375-.90625zm4.59375.09375-.03125,2.5-2.84375.96875v-2.59375l2.875-.875zm-19.8125.25 .34375,19.96875c-.24969.28281-.44853.86929-.875.65625l-.25-20c.25474-.22139.52516-.41438.78125-.625zm4.90625.5625 .03125,1.9375-4.46875,1.34375-.03125-1.96875 4.46875-1.3125zm-5.96875.34375v1.125l-1.75.53125c.56487-.56513 1.11553-1.11555 1.6875-1.625l.0625-.03125zm11.625.1875v1.125l-3.96875,1.1875v-1.125l3.96875-1.1875zm4.65625.0625c-.00375,1.07228.00375,1.6223 0,2.65625l-2.875.96875-.0625-2.75 2.9375-.875zm8.1875.21875c.1227.44578.47494.91424-.0625,1.25l-1.125.375v-1.25l1.1875-.375zm-54.34375.53125c-1.36597,2.51975-2.34694,3.81374-2.09375,8.84375l5.40625-1.3125c-.47427-1.55703-.66968-2.67898-1.09375-4.25-.51373-1.58134-1.14353-2.0368-2.21875-3.28125zm29.875.40625 .03125,2-2.28125.6875v-1.9375l.09375-.09375 2.15625-.65625zm21.59375.03125v1.15625l-3.625,1.15625 .03125-1.125 3.59375-1.1875zm-9.96875.21875v2.8125l-3.9375,1.3125-.03125-2.9375 3.96875-1.1875zm-41.4375.03125c.78316.75137 1.33292,1.67151 1.6875,2.78125 .36808,1.15198.62212,2.43413.96875,3.6875l-4.28125,1.125c.10978-2.82842.25169-5.54218 1.625-7.59375zm35.8125.15625 .03125,1.15625-4.5,1.375v-1.15625l4.46875-1.375zm15.59375,1.03125 .03125,2.34375-.3125.125v-2.40625l.28125-.0625zm-.75.21875v2.40625l-2.875.9375v-2.40625l2.875-.9375zm-4.5625.125c-.0015.41054-.02975.6645-.03125,1.0625l-2.84375.90625v-1l2.875-.96875zm-10.25.125 .03125,3-4.46875,1.5-.03125-3.125 4.46875-1.375zm-6,.3125v1.15625l-2.25.6875-.03125-1.15625 2.28125-.6875zm16.21875.875c-.00353.92833.00353,1.67429 0,2.5l-2.8125.9375-.03125-2.5 2.84375-.9375zm8.3125,0c.22984.19646.45866.92949.09375,1.09375l-1.34375.46875-.03125-1.125 1.28125-.4375zm-12.90625.25v.96875l-3.96875,1.25v-.90625l3.96875-1.3125zm-11.625.375 .03125,3.1875-2.28125.78125v-3.25l2.25-.71875zm21.59375.34375v1.125l-3.65625,1.25v-1.125l3.65625-1.25zm-9.96875.5v2.53125l-3.9375,1.34375-.03125-2.625 3.96875-1.25zm-5.59375.625v.875l-4.46875,1.4375v-.78125l4.46875-1.53125zm15.5625.28125v2.34375l-.28125-.09375v-2.15625l.28125-.09375zm-.8125.28125v2.21875l.15625.0625-3,.9375v-2.25l2.84375-.96875zm-4.5625.15625c-.00154.35438.00155.76561 0,1.09375l-2.78125.9375-.03125-1.09375 2.8125-.9375zm-10.1875.40625 .03125,2.65625-4.4375,1.5-.03125-2.71875 4.4375-1.4375zm18.25.84375c1.20896.30695.49774.90506.1875,1.1875l-.9375.28125-.25-.09375v-1.0625l1-.3125zm-24.25.0625v.75l-2.25.71875-.03125-.71875 2.28125-.75zm16.1875.0625c-.00318.66006-.02807,1.72684-.03125,2.25l-2.71875.875-.03125-2.15625 2.78125-.96875zm-4.59375.15625 .03125,1.09375-3.96875,1.34375v-1.125l3.9375-1.3125zm9.96875.59375v1.21875l-3.65625,1.15625v-1.21875l3.65625-1.15625zm-21.5625.1875 .03125,2.78125-2.28125.75v-2.8125l2.25-.71875zm11.625.59375v2.15625l-3.96875,1.28125v-2.0625l3.96875-1.375zm-5.59375.5 .03125,1.09375-4.46875,1.5v-1.09375l4.4375-1.5zm10.125.4375c-.00172.27529.00172.9912 0,1.21875l-2.71875.875v-1.1875l2.71875-.90625zm-10.09375.96875 .03125,2.03125-4.46875,1.4375v-1.96875l4.4375-1.5zm5.5625.5 .03125,1.1875-3.96875,1.28125-.03125-1.1875 3.96875-1.28125zm-11.59375.125v1.0625l-2.25.78125-.03125-1.09375 2.28125-.75zm.03125,1.40625v1.90625l-2.28125.75v-1.875l2.28125-.78125zm6.03125.25v1.1875l-4.4375,1.4375v-1.1875l4.4375-1.4375zm-6.03125,1.96875v1.125l-2.28125.75v-1.15625l2.28125-.71875z" fill-rule="evenodd"/>
</svg>
