<?xml version="1.0" encoding="UTF-8"?>
<svg viewBox="0 0 640 480" xmlns="http://www.w3.org/2000/svg">
 <path d="m298.87 20.239s-9.0899 444.92-3.5577 443.98c86.971-14.883 270.07-13.522 275.18-16.236 42.538-22.595 39.462-29.85 12.853-92.476 0 0-47.978-93.309-47.978-93.309-13.422-47.4-87.874-158.62-97.221-171.63-3.6618-5.0958-44.901-40.571-44.901-40.571l-36.843-25.547-57.529-4.2095z" fill="#ffb600" fill-rule="evenodd"/>
 <path d="m530.54 364.45c2.5952-2.104 4.1055-4.441 3.3562-5.1933-1.4641-1.4699-13.328 5.7577-11.567 7.5196 1.7494 1.7494 3.3274 1.6323 8.2104-2.3263z"/>
 <path d="m519.77 360.96c2.7636-1.1152 3.4348-4.6725 0.88165-4.6725-0.88916 0-3.3627 1.3205-5.4966 2.9345-2.8911 2.1868-3.1158 2.9106-0.88171 2.8403 1.649-0.051819 4.1224-0.54791 5.4966-1.1023z"/>
 <path d="m300.18 17.681s-1.7436 439.02-7.3562 439.02-245.6-5.0208-250.37-8.2985c-42.294-29.079-51.097 6.9061-17.814-97.436l52.939-94.302c13.422-47.4 78.944-149.69 88.291-162.7 3.6618-5.0958 40.932-37.594 40.932-37.594l37.835-21.579 55.545-17.108z" fill="#ffb600" fill-rule="evenodd"/>
 <path d="m322.44 453.31c7.2123-1.4083 29.109 0.551 30.099-3.632 13.242 12.4 36.51-3.9746 49.25 3.359 9.9156 4.3943 30.443-3.0626 28.706-3.3633 8.3324 14.555 25.863-8.56 29.32 6.0661 8.1746-4.1765 25.292-2.0462 28.715-4.8893 11.822 8.0145 36.716 6.0195 45.493-3.7022 4.3708 11.841 30.398 10.361 36.017 2.1566l37.376-31.922c-12.681-19.699-17.734-43.038-22.883-65.572 6.9406 7.6477-6.2801 20.435-4.705 2.7216-12.728-8.7006 6.8967-24.745-12.806-23.543-10.084-14.327-15.666-29.971-30.458-38.275 2.4409-3.5834 18.432 12.097 8.1517-2.6779-5.8557-11.48-16.799-15.095-14.75-27.272-7.1708-9.325-3.8815-20.315-15.309-19.068-2.943-4.5964 11.954-6.0068 1.2449-13.765 0.26282-5.7553-17.234-5.7886-0.78918-7.8209-6.738-7.5942-26.425-15.806-25.2-28.244 3.3886 2.3819 18.894 26.875 15.546 12.871-2.305-8.6312-16.972-16.275-14.988-22.037 14.156 8.0113-3.9486-12.236-11.871-12.349 6.0489-1.6325 17.445 6.4081 7.0751-5.8008-13.755-12.347-16.337-30.755-25.92-45.178-10.338 2.6298-33.048-23.994-15.826-10.688 19.035 15.775-1.6336-14.784-9.5882-18.537-9.5532-16.07-28.168-24.099-39.372-40.223-2.2579-5.0372-12.78-8.7693-4.7201-1.6264-14.209-4.3618-26.872-15.861-42.648-18.118-5.76-8.2969-19.693-15.112-14.844-5.155-5.8304-5.5311-17.652-9.0032-5.2827 1.0239 0.68262 6.937-22.369-17.313-11.392 0.4307-0.4805 8.5727-8.4403-11.464-15.771-7.2551-1.6586-8.0853 17.856-33.537 8.4038-14.024-10.603 19.698 28.232 6.0136 38.617 15.886 14.168-3.939 12.297 13.393 27.026 6.7963-12.622 8.7912 6.8835 5.3806 8.8987 13.618 12.165-2.6216 22.397 5.8621 16.315 9.1333 6.7675 4.3948 12.783 5.0257 8.5795 10.386 6.8658 3.4713 15.283 0.068581 12.8 8.8218 9.717 0.40378 25.708 4.2184 7.5437 5.0158 6.8059 4.5089 12.372 20.992 24.311 20.367 10.509 0.80191-14.392 7.6057 4.0433 7.4616 14.62 2.6799-16.673 2.5938 1.8592 9.434 10.253-1.4222 3.3556 10.265 11.896 12.536 2.0906 5.596 1.4315 23.565 12.39 27.533-3.2912 7.5895 13.333 4.427 6.6213 11.926 4.9113 9.1744 20.138 11.105 9.5745 17.916 2.4925 4.4296 1.2108 14.119 12.685 16.032-22.037 1.5413 25.997 13.863 0.076263 11.924 2.3763 5.6954 12.948 4.7518 8.622 11.623 10.444 1.2876 11.443 11.271 1.5013 3.5852-9.697 1.1177 20.285 9.2478 1.4711 10.144 0.19446 11.104 23.222 3.7431 5.0225 11.041 2.1893 4.74 20.557 3.4512 5.9424 5.7758-15.626 1.5435 19.768 8.1183 0.36847 12.746 0.087402 12.534 31.641-3.7862 14.15 7.434-21.987 6.7388 22.604 9.5292-1.602 12.834-1.8234 5.1322 15.566 7.2384 5.1258 9.2753 13.875 2.7644-4.0662 4.5733 6.4753 10.259 10.88-2.1363 15.56 5.4276 2.317 4.4952 0.8222 11.229 21.661 29.75 25.486 46.313 58.423 99.615-34.785 91.768-109.54 91.97-56.209 3.4781-113.41-2.3585-168.83 9.5668-10.529 3.4577-18.951 8.4239-14.639-6.8875 0 0 3.9901-59.581 3.9901-59.581 5.6803 6.1699 14.607-33.978 13.281-12.895-10.759 15.085-17.604 31.544-13.88 50.556 0.16968 7.7407 0.33939 15.481 0.50903 23.222 10.221-2.4024 16.456 6.2476 24.726-0.15961z"/>
 <path d="m338.53 432.63c-5.7439-5.7439-7.7699-12.146-3.8437-12.146 1.0993 0 1.9988 1.0181 1.9988 2.2624 0 1.2444 3.212 5.2918 7.1379 8.9943 4.9814 4.698 6.1426 6.7319 3.8437 6.7319-1.8118 0-5.9233-2.6291-9.1366-5.8424z"/>
 <path d="m358.17 436.32c-1.9238-1.1205-3.4692-4.0163-3.4342-6.4351 0.05899-4.0816 0.25449-4.1464 2.7188-0.90012 1.4604 1.9238 3.6803 3.4978 4.9333 3.4978 1.2529 0 2.2781 1.3492 2.2781 2.9981 0 3.4752-1.6126 3.6836-6.4959 0.83929z"/>
 <path d="m375.06 436.08c-2.7907-2.7906-3.1984-7.5951-0.64447-7.5951 0.96469 0 2.9053 1.3872 4.3125 3.0828 3.2454 3.9105-0.12439 8.056-3.668 4.5123z"/>
 <path d="m553.55 420.16c-10.595-5.8341-21.138-19.663-14.99-19.663 1.0993 0 1.9987 0.86841 1.9987 1.9298 0 3.8461 12.091 14.18 17.966 15.355 3.3106 0.66211 6.0192 1.9909 6.0192 2.9528 0 2.4095-6.1589 2.088-10.993-0.57391z"/>
 <path d="m572.26 418.55c-2.5952-2.162-3.9993-3.9609-3.1203-3.9975 2.1363-0.088898 13.392 5.7781 13.392 6.9804 0 2.3314-5.9759 0.59601-10.272-2.9829z"/>
 <path d="m558.62 405.12c-3.769-2.64-5.7144-8.6228-2.8036-8.6228 0.69836 0 3.4825 2.3876 6.187 5.3057 3.5983 3.8827 5.3323 4.6341 6.4649 2.8015 1.7481-2.8285 8.3768-2.1799 9.4089 0.92068 1.0456 3.1414-14.666 2.8109-19.257-0.40509z"/>
 <path d="m601.16 401.85c5.8154 2.148 5.93 2.3485 1.3556 2.3717-9.8257 1.6935-11.473-6.3466-1.3556-2.3717z"/>
 <path d="m352.18 394.34c-3.902-2.2727-10.382-13.61-8.7252-15.266 0.97516-0.9751 17.22 14.674 17.22 16.589 0 1.5184-4.9364 0.74979-8.4947-1.3226z"/>
 <path d="m320.66 391.46c-1.3905-1.6755-1.9721-3.6026-1.2924-4.2823 1.4517-1.4517 7.3287 3.0188 7.3287 5.5747 0 2.7531-3.2576 2.0557-6.0363-1.2924z"/>
 <path d="m338.5 392.75c-4.823-1.8933-15.808-11.699-15.808-14.111 0-3.5016 1.9327-2.4796 8.6288 4.5631 3.4989 3.68 7.7108 7.1546 9.3598 7.7213 1.649 0.56671 2.5484 1.4903 1.9987 2.0525-0.54965 0.5622-2.4301 0.46039-4.1789-0.2261z"/>
 <path d="m398.89 398.37c-5.675-3.975-6.0327-7.8815-0.44797-4.8926 2.2213 1.1888 4.901 1.6286 5.9549 0.9772 2.6587-1.6432 10.373 2.7655 8.929 5.1025-0.73996 1.1973-2.5553 1.166-4.8916-0.08429-2.476-1.3251-3.9388-1.3165-4.3863 0.025787-0.39053 1.1717-2.5479 0.69962-5.1581-1.1286z"/>
 <path d="m444.61 405.85c1.4782-5.8894 2.5626-7.6618 3.8752-6.3334 1.5504 1.5691-1.2868 11.826-3.2713 11.826-1.1642 0-1.4134-2.2669-0.60391-5.4924z"/>
 <path d="m409.69 356.56c0-3.3253-1.7276-10.962-3.8391-16.969-2.2031-6.2682-3.0488-11.411-1.9846-12.069 2.1433-1.3246 2.6685-0.083801 6.7795 16.017 3.5426 13.874 3.8267 19.068 1.043 19.068-1.0993 0-1.9987-2.7208-1.9987-6.0462z"/>
 <path d="m414.57 349.89c-0.70297-2.801-0.81165-6.2557-0.24139-7.677 0.66031-1.6461 1.094-1.3145 1.1945 0.9136 0.096893 2.1476 1.7463 3.4978 4.2732 3.4978 2.2635 0 3.5595-0.89938 2.8801-1.9987-2.1644-3.5021 1.803-2.0151 7.8835 2.9549l5.8848 4.8099-6.8841-0.2622c-3.7863-0.14432-8.4205 0.439-10.298 1.2961-2.6209 1.1963-3.711 0.37518-4.6923-3.5344z"/>
 <path d="m441.01 348.43c-5.1353-3.4015-9.337-7.449-9.337-8.9943 0-4.0613 3.514-3.4504 5.9105 1.0274 1.1295 2.1105 6.7825 6.1251 12.562 8.9213 8.5538 4.1383 9.55 5.0977 5.3549 5.1571-2.8346 0.040192-9.3555-2.71-14.491-6.1115z"/>
 <path d="m459.66 347.06c0-1.9543-1.9953-5.2617-4.434-7.3498-2.8764-2.4628-3.5777-4.0818-1.9965-4.6089 1.3407-0.4469 5.0537 1.6567 8.2512 4.6747 4.8557 4.5829 5.3729 5.928 3.1386 8.1622-3.6059 3.6059-4.9593 3.3663-4.9593-0.8782z"/>
 <path d="m462.72 427.94c0-3.364 0.36609-3.4992 4.8334-1.7849 4.4659 1.7137 3.9295 4.783-0.83591 4.783-2.2208 0-3.9975-1.3325-3.9975-2.9981z"/>
 <path d="m524.94 325.55c-2.3896-2.7483-5.6035-4.9968-7.1421-4.9968-2.7796 0-6.1531-5.7333-4.4031-7.4833 0.50317-0.5032 2.0984 0.061707 3.5448 1.2553 1.4465 1.1936 5.5531 4.5123 9.1258 7.3749 6.2195 4.9831 8.3409 8.8467 4.8576 8.8467-0.90112 0-3.5934-2.2485-5.983-4.9968z"/>
 <path d="m485.98 392.82c-2.8965-2.2784-5.2664-5.9402-5.2664-8.1373 0-3.3418 1.1433-2.7824 6.9956 3.4228 3.8475 4.0796 6.9955 7.7413 6.9955 8.1372 0 1.8788-3.9598 0.32529-8.7247-3.4227z"/>
 <path d="m532.28 318.72c-2.5952-2.104-4.1055-4.441-3.3562-5.1933 1.4641-1.4699 11.462 5.0301 11.567 7.5196 0.10925 2.6061-3.3274 1.6323-8.2104-2.3263z"/>
 <path d="m400.64 318.65c0-1.0311 2.2668-4.3983 5.0373-7.4827l5.0373-5.6079-0.5402 6.8082c-0.42236 5.3233-1.521 6.9553-5.0373 7.4827-2.4734 0.371-4.4972-0.1691-4.4972-1.2003z"/>
 <path d="m359.4 369.73c-3.9406-1.8049-14.83-20.369-14.83-25.281 0-5.295 3.6964-1.665 6.9322 6.8076 1.9128 5.0085 5.8142 11.273 8.6699 13.921 5.826 5.4022 5.4843 7.4181-0.77161 4.5528z"/>
 <path d="m350.68 315.43c0-1.7139 0.89944-2.5602 1.9988-1.8808 1.0993 0.67938 1.9987 2.0816 1.9987 3.1161 0 1.0344-0.89941 1.8807-1.9987 1.8807s-1.9988-1.4022-1.9988-3.116z"/>
 <path d="m323.19 314.49c-4.439-1.7843-6.3755-7.9327-2.4984-7.9327 1.0993 0 1.9988 0.89951 1.9988 1.9988s1.7989 1.9987 3.9974 1.9987c2.2208 0 3.9975 1.3325 3.9975 2.9981 0 3.3794-1.0825 3.5147-7.4952 0.9371z"/>
 <path d="m357.02 312.36c-1.4399-2.3057-2.0967-4.7134-1.4595-5.3506 1.1914-1.1914 6.9362 5.3632 7.0498 8.0436 0.12476 2.9419-3.0162 1.4288-5.5903-2.693z"/>
 <path d="m543.05 315.23c-2.7636-1.1152-3.4348-4.6725-0.88171-4.6725 0.88922 0 3.3627 1.3205 5.4966 2.9345 2.891 2.1868 3.1158 2.9106 0.88165 2.8403-1.649-0.051819-4.1224-0.54791-5.4966-1.1023z"/>
 <path d="m365.2 287.01c0-0.4154 1.3492-3.9842 2.9981-7.9307 1.649-3.9465 2.9981-10.299 2.9981-14.117s0.89944-7.4977 1.9988-8.1771c1.1556-0.7142 1.9987 1.1908 1.9987 4.5161 0 7.8052-5.6916 26.464-8.0724 26.464-1.0567 0-1.9213-0.3399-1.9213-0.75531z"/>
 <path d="m314.68 351.72c0.79394-1.9237 2.1607-6.4921 3.0371-10.152 1.6672-6.9615 3.2951-9.6493 4.8828-8.0616 1.5021 1.5021-5.5092 21.711-7.5324 21.711-1.0071 0-1.1815-1.574-0.38748-3.4978z"/>
 <path d="m364.06 311.28c-2.6827-2.6827-1.3537-4.2262 3.6386-4.2262 2.7683 0 5.5197 0.78702 6.1142 1.7489 0.59445 0.96191 0.2019 1.7489-0.87238 1.7489-1.0742 0-3.198 0.47769-4.7195 1.0615-1.5214 0.58389-3.3939 0.43402-4.1609-0.3331z"/>
 <path d="m422.01 304.95c-5.2608-5.491-7.0088-10.384-3.7099-10.384 0.91354 0 2.8112 2.1493 4.217 4.7761 2.7543 5.1464 11.247 9.9846 14.259 8.1231 1.0169-0.62851 1.8489-0.19022 1.8489 0.974 0 4.4545-11.273 2.0873-16.615-3.4892z"/>
 <path d="m435.51 303.72c-2.1321-1.559-3.2252-3.4861-2.429-4.2822 0.79611-0.7962 2.6404-0.4577 4.0983 0.75232 1.4579 1.2099 4.6276 1.6829 7.0439 1.051 4.9946-1.3061 6.0618 2.2469 1.2315 4.1004-4.5142 1.7323-5.6003 1.5552-9.9447-1.6215z"/>
 <path d="m454.57 299.51c-1.3905-1.6756-1.9892-3.5855-1.3303-4.2444 2.0468-2.0468 7.3666 1.0078 7.3666 4.2299 0 3.9148-2.7938 3.9215-6.0363 0.014496z"/>
 <path d="m470.99 300.15c-3.2185-3.2185-3.0097-5.5854 0.4928-5.5854 3.7151 0 5.2511 2.5416 3.3728 5.5808-1.146 1.8542-2.015 1.8552-3.8656 0.004578z"/>
 <path d="m503.94 277.27c-0.71738-0.71732-4.2401-1.1974-7.8283-1.0668-3.5882 0.13058-9.3513-0.66971-12.807-1.7784-8.8658-2.8448-21.565-21.834-14.602-21.834 1.1554 0 3.352 2.9947 4.8814 6.655 3.3422 7.9991 6.6042 10.923 14.81 13.277 7.0739 2.0288 8.3594-0.5545 2.1925-4.4057-4.3116-2.6927-5.2883-5.5324-1.9029-5.5324 1.1521 0 4.2839 2.4734 6.9596 5.4965 3.5822 4.0472 5.3009 4.8378 6.5179 2.9983 2.1888-3.3082 9.6881 1.8157 7.6008 5.1931-1.5897 2.5722-3.859 2.961-5.8224 0.99762z"/>
 <path d="m517.22 273.19c-5.0567-0.98428-9.8712-6.0381-7.7618-8.1475 0.79611-0.7962 2.6633 0.215 4.1493 2.2471 1.4859 2.0322 3.5798 3.1521 4.653 2.4888 2.442-1.5092 8.3083 0.62201 8.3083 3.0183 0 1.8212-1.6558 1.8909-9.3488 0.39328z"/>
 <path d="m405.2 264.09c-3.7695-4.874-4.5971-7.2324-2.9051-8.2781 0.94241-0.58246 3.6823 1.604 6.0886 4.8588 3.2142 4.3475 3.6287 5.9177 1.562 5.9177-1.5473 0-3.6827-1.1243-4.7455-2.4984z"/>
 <path d="m313.39 259.5c-0.65097-1.6964-0.68259-3.5853-0.070251-4.1976 1.7503-1.7503 5.3767 1.2185 5.3767 4.4018 0 3.8352-3.8127 3.6886-5.3065-0.20419z"/>
 <path d="m365.67 258.59c-1.63-2.6373 0.75992-6.38 3.1362-4.9114 2.4277 1.5004 2.4119 6.9102-0.020142 6.9102-1.0344 0-2.4366-0.89951-3.1161-1.9988z"/>
 <path d="m322.79 254.76c-1.547-2.8906-1.5774-4.1687-0.099213-4.1687 2.4231 0 5.062 5.6055 3.4146 7.2529-0.59638 0.5964-2.0883-0.79153-3.3153-3.0843z"/>
 <path d="m330.6 254.42c-1.227-2.2927-1.7301-4.6695-1.118-5.2816 1.6508-1.6508 7.2058 3.5119 7.2058 6.6969 0 4.138-3.5585 3.3107-6.0878-1.4153z"/>
 <path d="m349.76 256.73c-1.9007-3.0754 2.5454-4.4728 6.8689-2.159 2.2213 1.1888 4.0388 2.5796 4.0388 3.0905 0 1.7597-9.7595 0.92612-10.908-0.93155z"/>
 <path d="m306.7 254.84c0-2.5107 5.8649-7.0384 7.2818-5.6216 0.65396 0.65396-0.20297 2.581-1.9043 4.2823-3.4732 3.4732-5.3776 3.9475-5.3776 1.3393z"/>
 <path d="m427.12 250.59c-4.4506-3.6039-6.0078-7.9896-2.8368-7.9896 2.7279 0 10.773 9.4912 8.9833 10.598-0.9126 0.56404-3.6785-0.60951-6.1465-2.6079z"/>
 <path d="m438.62 251.59c0-1.8322 1.1243-2.9565 2.4985-2.4984 2.8295 0.94319 2.5185 4.1573-0.4997 5.1634-1.0993 0.36646-1.9988-0.83278-1.9988-2.665z"/>
 <path d="m506.73 247.42c-3.3822-2.846-6.1495-6.4437-6.1495-7.9949 0-4.2398 3.5473-3.3898 5.0038 1.199 0.7016 2.2107 3.9102 5.3818 7.1302 7.0469 6.4151 3.3174 7.397 4.9236 3.0098 4.9236-1.5646 0-5.612-2.3285-8.9943-5.1745z"/>
 <path d="m497.5 222.48c-0.72461-1.1724-0.83762-2.6116-0.25101-3.1983 1.4318-1.4317 5.33 1.091 5.33 3.4492 0 2.5543-3.4506 2.3838-5.079-0.25093z"/>
 <path d="m337.56 201.08c-7.7872-6.5173-13.52-18.444-8.8655-18.444 1.0993 0 1.9987 1.3492 1.9987 2.9981 0 1.649 3.5977 6.5958 7.9949 10.993 7.8441 7.844 6.9833 11.241-1.1281 4.4527z"/>
 <path d="m346.71 195.66c-3.7132-3.8311-6.36-7.3569-5.8818-7.8351 0.90759-0.90756 15.846 12.129 15.846 13.828 0 2.6244-3.8657 0.29938-9.9647-5.9932z"/>
 <path d="m315.98 199.24c-1.9048-1.9048-1.5442-6.6081 0.50674-6.6081 2.4521 0 4.4205 5.631 2.404 6.8772-0.89795 0.55498-2.2078 0.43387-2.9108-0.2691z"/>
 <path d="m380.66 198.75c0-1.0317-4.9214-4.8542-10.936-8.4946-6.015-3.6404-10.962-7.7878-10.993-9.2165-0.06488-2.9721 0.50247-2.6758 16.456 8.5939 11.591 8.1877 13.752 10.993 8.4713 10.993-1.649 0-2.9981-0.8441-2.9981-1.8758z"/>
 <path d="m377.36 230.5c-2.1166-1.5477-3.1538-3.5086-2.3049-4.3575 0.84891-0.84892 3.0425-0.044434 4.8747 1.7877 4.3201 4.3201 2.421 6.2192-2.5698 2.5698z"/>
 <path d="m418.4 169.41c-5.4965-2.8697-8.9366-5.5787-7.6446-6.0199 1.292-0.44122 5.9782 1.0492 10.414 3.3121 9.5863 4.8906 11.581 5.1613 8.2239 1.1162-3.3213-4.0019 1.4362-4.0543 6.6901-0.073715 2.0306 1.5385 4.9538 2.3131 6.4959 1.7213 1.5421-0.59178 2.8038 0.021805 2.8038 1.3635 0 1.5736-2.1283 2.1271-5.9962 1.5594-3.2979-0.48404-5.9962-0.1364-5.9962 0.77251 0 2.8234-4.6051 1.6709-14.99-3.7513z"/>
 <path d="m306.7 192.88c0-2.064 1.5051-4.9871 3.3447-6.4959 3.0031-2.463 3.21-2.2328 2.026 2.2537-0.72528 2.7483-1.331 5.6714-1.346 6.4959-0.062103 3.4103-4.0248 1.1914-4.0248-2.2537z"/>
 <path d="m425.84 188.85c-3.044-3.1773-4.6922-6.2976-3.6626-6.934 1.7626-1.0893 8.1432 4.6936 11.268 10.212 2.5795 4.5555-1.9851 2.5879-7.6055-3.2786z"/>
 <path d="m410.93 187.6c-4.0353-4.2542-4.2093-4.9623-1.2197-4.9623 3.2868 0 8.7219 5.2103 8.8612 8.4946 0.12027 2.8365-2.944 1.42-7.6415-3.5323z"/>
 <path d="m436.12 191.46c-1.7674-1.7675 6.3578-9.149 8.5675-7.7833 2.9601 1.8294 2.284 4.9518-1.0722 4.9518-1.649 0-2.9981 0.89943-2.9981 1.9987 0 2.1894-2.6499 2.6802-4.4972 0.83281z"/>
 <path d="m320.7 186.63c0-1.0993 0.89941-1.9987 1.9988-1.9987 1.0993 0 1.9987 0.89943 1.9987 1.9987s-0.89944 1.9987-1.9987 1.9987-1.9988-0.89943-1.9988-1.9987z"/>
 <path d="m473.58 181.56c-7.7885-3.5393-12.972-7.7905-12.972-10.639 0-3.2514 3.4973-2.8168 5.453 0.67769 0.9097 1.6257 5.1254 4.6443 9.3681 6.7079 8.8816 4.3201 7.1607 7.3474-1.8491 3.253z"/>
 <path d="m473.46 159.79c-2.1166-1.5477-3.1538-3.5086-2.3049-4.3575 0.84891-0.84892 3.0425-0.044434 4.8747 1.7877 4.3201 4.3201 2.421 6.2192-2.5698 2.5698z"/>
 <path d="m311.04 157.38c0.39487-2.0504 1.605-3.5031 2.6893-3.2283 2.905 0.73633 2.3973 5.0214-0.71793 6.0598-1.7513 0.58377-2.4389-0.40387-1.9714-2.8315z"/>
 <path d="m300.99 151.93c1.4107-3.1478 2.9282-4.6334 3.3722-3.3015 0.444 1.332-0.71024 3.9074-2.5649 5.7232-3.1568 3.0906-3.2083 2.9358-0.80725-2.4217z"/>
 <path d="m344.68 154.77c0-1.0344 0.89941-2.4367 1.9987-3.1161 1.0993-0.67941 1.9988-2.9811 1.9988-5.1148 0-4.0242 2.9173-5.2455 4.8932-2.0485 1.8527 2.9977-2.5499 12.16-5.843 12.16-1.6762 0-3.0476-0.84634-3.0476-1.8808z"/>
 <path d="m367.34 151.54c-1.5178-3.9553-0.071167-5.2861 4.034-3.7108 4.1245 1.5827 4.2173 4.0443 0.21042 5.5819-1.77 0.6792-3.5703-0.11443-4.2444-1.8711z"/>
 <path d="m380.66 152.77c0-1.0344 0.89941-2.4366 1.9987-3.1161 1.0993-0.67941 1.9987 0.16693 1.9987 1.8808 0 1.7138-0.89941 3.1161-1.9987 3.1161s-1.9987-0.84633-1.9987-1.8808z"/>
 <path d="m393.98 145.33c-2.2322-2.2322-1.4914-4.6637 1.4209-4.6637 1.5143 0 3.873 1.3491 5.2416 2.9981 2.0675 2.4912 1.8272 2.9981-1.4209 2.9981-2.15 0-4.5087-0.59962-5.2416-1.3325z"/>
 <path d="m456.78 142.81c-2.3844-1.5094-2.3037-2.3057 0.51981-5.1292 3.1241-3.1241 3.0474-3.5886-1.1749-7.1105-2.4845-2.0724-3.6179-3.7693-2.5186-3.771 2.8779-0.004211 9.2001 5.107 8.8325 7.1406-0.1713 0.948-0.1362 2.1734 0.078125 2.723 2.8035 7.191 0.24429 9.9332-5.7369 6.147z"/>
 <path d="m304.74 117.72c-3.869-4.6618-1.3886-7.849 2.6422-3.3951 2.0039 2.2143 2.7402 4.4694 1.6744 5.1282-1.0464 0.64669-2.9889-0.13321-4.3166-1.7331z"/>
 <path d="m324.29 111.72c-7.9699-7.5765-14.491-14.293-14.491-14.925 0-3.0196 5.4581-0.60234 8.8557 3.922 2.7306 3.6361 4.2405 4.3718 5.3357 2.5999 1.0598-1.7148 2.565-0.66692 4.9173 3.4234 1.8645 3.2421 6.1513 7.2439 9.5262 8.8928 6.398 3.126 10.576 9.6635 4.7461 7.4264-1.7279-0.66308-3.4246-0.38631-3.7705 0.61503-0.34586 1.0014-7.1497-4.3784-15.12-11.955z"/>
 <path d="m360.17 106.88c-10.263-10.222-14.259-16.605-9.9936-15.963 2.7836 0.41917 22.903 23.509 22.192 25.468-0.38785 1.0681-5.8769-3.209-12.198-9.5048z"/>
 <path d="m373.95 105.53c-6.8514-8.5865-6.7819-13.682 0.080078-5.8714 2.8823 3.2806 6.599 5.9789 8.2594 5.9962 4.5166 0.046989 5.0946 4.3705 0.7366 5.5102-2.6045 0.68109-5.4421-1.0806-9.076-5.6349z"/>
 <path d="m385.15 103.36c-1.3742-0.55447-2.4984-1.8326-2.4984-2.8403 0-2.8986 5.2581-2.1318 7.9949 1.1659 2.0072 2.4186 1.958 2.9676-0.25494 2.8403-1.5087-0.086777-3.8675-0.61145-5.2416-1.1659z"/>
 <path d="m398.65 99.69c0-3.364 0.36606-3.4992 4.8333-1.7849 4.466 1.7138 3.9296 4.783-0.83588 4.783-2.2208 0-3.9975-1.3325-3.9975-2.9981z"/>
 <path d="m419.63 88.697c-0.67941-1.0993 0.16693-1.9987 1.8807-1.9987 1.7139 0 3.1161 0.89944 3.1161 1.9987s-0.84628 1.9987-1.8808 1.9987c-1.0344 0-2.4366-0.89944-3.116-1.9987z"/>
 <path d="m407.14 83.375c-2.9665-1.197-3.3766-6.6712-0.49966-6.6712 1.0993 0 1.9987 0.89943 1.9987 1.9987s2.2486 1.9988 4.9968 1.9988c2.7483 0 4.9969 0.89943 4.9969 1.9987 0 2.0545-7.048 2.4685-11.493 0.67501z"/>
 <path d="m301.77 47.647c-1.248-3.2823-1.345-6.1668-0.2446-7.2673 1.1004-1.1004 2.6692 0.59789 3.9524 4.2788 2.7026 7.7526-0.81772 10.59-3.7078 2.9885z"/>
 <path d="m328.86 80.237c-7.3802-3.9938-11.059-7.5954-11.059-10.827 0-1.4689 1.8553-0.74693 4.5244 1.7606 2.4884 2.3378 7.885 5.6546 11.992 7.3708 4.1074 1.7162 7.468 3.558 7.468 4.0929 0 2.027-7.2278 0.68682-12.926-2.3968z"/>
 <path d="m397 66.082c-5.7257-6.0948-5.6078-9.2061 0.15128-3.9903 2.4734 2.2401 6.296 5.0678 8.4946 6.2838 3.9592 2.1898 3.9578 2.2115-0.15131 2.2717-2.2818 0.03344-6.1044-2.0209-8.4946-4.5652z"/>
 <path d="m357.08 59.355c-5.7182-2.9464-10.397-6.5441-10.397-7.9949 0-3.6244 2.9522-3.3081 6.2512 0.66981 4.8127 5.8033 24.013 11.995 20.732 6.686-0.67941-1.0993-0.28278-1.9987 0.88141-1.9987s2.1167 0.95251 2.1167 2.1167 0.89941 1.5608 1.9987 0.8814c1.0993-0.67941 1.9988-0.379 1.9988 0.66756 0 2.2025-4.7918 4.3293-9.7542 4.3293-1.887 0-8.1095-2.4107-13.828-5.357z"/>
 <path d="m357.82 30.975c-1.4852-2.4031-9.1434-4.262-9.1434-2.2194 0 1.8048 3.5238 3.5725 7.6132 3.8191 1.439 0.086792 2.1276-0.63306 1.5302-1.5997z"/>
 <path d="m284.98 454.39c-7.2123-1.4083-29.109 0.551-30.099-3.632-13.242 12.4-36.51-3.9745-49.25 3.359-9.9156 4.3943-30.443-3.0626-28.706-3.3633-8.3324 14.555-25.863-8.56-29.32 6.0662-8.1746-4.1765-25.292-2.0463-28.715-4.8893-11.822 8.0145-36.716 6.0195-45.493-3.7022-4.3708 11.841-30.398 10.361-36.017 2.1566l-37.376-31.922c12.681-19.699 17.734-43.038 22.883-65.572-6.9406 7.6477 6.28 20.435 4.705 2.7216 12.728-8.7006-6.8967-24.745 12.806-23.543 10.084-14.327 15.666-29.971 30.458-38.275-2.4409-3.5834-18.432 12.097-8.1517-2.6779 5.8557-11.48 16.799-15.095 14.75-27.272 7.1708-9.325 3.8814-20.315 15.309-19.068 2.943-4.5964-11.954-6.0068-1.245-13.765-0.26279-5.7553 17.234-5.7886 0.78923-7.8209 6.738-7.5942 26.425-15.806 25.2-28.244-3.3886 2.3819-18.894 26.875-15.546 12.871 2.305-8.6312 16.972-16.275 14.988-22.037-14.156 8.0113 3.9486-12.236 11.871-12.349-6.0489-1.6325-17.445 6.4081-7.0751-5.8008 13.755-12.347 16.337-30.755 25.92-45.178 10.338 2.6298 33.048-23.994 15.826-10.688-19.035 15.775 1.6335-14.784 9.5882-18.537 9.5532-16.07 28.168-24.099 39.372-40.223 2.2579-5.0372 12.78-8.7693 4.7201-1.6264 14.209-4.3618 26.872-15.861 42.648-18.118 5.76-8.2969 19.693-15.112 14.844-5.155 5.8304-5.5311 17.652-9.0032 5.2827 1.0239-0.68259 6.937 22.369-17.313 11.392 0.4307 0.48053 8.5727 8.4403-11.464 15.771-7.2551 1.6586-8.0853-17.856-33.537-8.4038-14.024 10.603 19.698-28.232 6.0136-38.617 15.886-14.168-3.939-12.297 13.393-27.026 6.7963 12.622 8.7912-6.8835 5.3806-8.8988 13.618-12.165-2.6216-22.397 5.8621-16.315 9.1333-6.7675 4.3948-12.783 5.0257-8.5794 10.386-6.8658 3.4713-15.283 0.068596-12.8 8.8218-9.717 0.40379-25.708 4.2184-7.5437 5.0158-6.806 4.5089-12.372 20.992-24.311 20.367-10.509 0.8019 14.392 7.6057-4.0433 7.4616-14.62 2.6799 16.673 2.5938-1.8592 9.434-10.253-1.4222-3.3556 10.265-11.896 12.536-2.0906 5.596-1.4315 23.565-12.39 27.533 3.2912 7.5895-13.333 4.427-6.6213 11.926-4.9113 9.1744-20.138 11.105-9.5745 17.916-2.4925 4.4296-1.2108 14.119-12.685 16.032 22.037 1.5413-25.997 13.863-0.076279 11.924-2.3763 5.6954-12.948 4.7518-8.622 11.623-10.444 1.2876-11.443 11.271-1.5013 3.5852 9.697 1.1177-20.285 9.2478-1.4711 10.144-0.19449 11.104-23.222 3.7431-5.0225 11.041-2.1893 4.74-20.557 3.4512-5.9424 5.7758 15.626 1.5434-19.767 8.1183-0.36846 12.746-0.087433 12.534-31.641-3.7862-14.15 7.434 21.987 6.7388-22.604 9.5292 1.6021 12.834 1.8234 5.1322-15.566 7.2384-5.1258 9.2753-13.875 2.7644 4.0662 4.5733-6.4754 10.259-10.88-2.1363-15.56 5.4276-2.3169 4.4952-0.82223 11.229-21.661 29.75-25.486 46.313-58.423 99.615 34.785 91.768 109.54 91.97 56.209 3.4781 113.41-2.3585 168.83 9.5668 10.529 3.4577 18.951 8.424 14.639-6.8875l-3.3908-21.92c-0.16968 7.7407-0.33936 15.481-0.50903 23.222-10.221-2.4024-16.456 6.2476-24.726-0.15961z"/>
 <path d="m268.88 433.71c5.7439-5.7439 7.7699-12.146 3.8437-12.146-1.0993 0-1.9987 1.0181-1.9987 2.2624 0 1.2444-3.2121 5.2918-7.1379 8.9943-4.9814 4.698-6.1427 6.7319-3.8438 6.7319 1.8118 0 5.9233-2.6291 9.1366-5.8424z"/>
 <path d="m249.24 437.4c1.9238-1.1205 3.4692-4.0163 3.4342-6.4351-0.05899-4.0816-0.25447-4.1464-2.7188-0.90012-1.4604 1.9238-3.6803 3.4978-4.9333 3.4978s-2.2781 1.3492-2.2781 2.9981c0 3.4752 1.6126 3.6836 6.4959 0.83929z"/>
 <path d="m232.35 437.16c2.7907-2.7906 3.1984-7.5951 0.64447-7.5951-0.96469 0-2.9053 1.3872-4.3125 3.0828-3.2454 3.9105 0.12436 8.056 3.668 4.5123z"/>
 <path d="m107.44 415.29c10.595-5.8341 21.138-19.663 14.99-19.663-1.0993 0-1.9987 0.86838-1.9987 1.9298 0 3.8461-12.091 14.18-17.966 15.355-3.3106 0.66208-6.0192 1.9909-6.0192 2.9528 0 2.4095 6.1589 2.088 10.993-0.57388z"/>
 <path d="m88.731 413.68c2.5952-2.162 3.9993-3.9609 3.1203-3.9975-2.1363-0.088898-13.392 5.7781-13.392 6.9804 0 2.3314 5.9759 0.59598 10.272-2.9829z"/>
 <path d="m102.37 400.25c3.769-2.64 5.7144-8.6228 2.8037-8.6228-0.6984 0-3.4826 2.3876-6.187 5.3057-3.5983 3.8827-5.3323 4.6341-6.4649 2.8015-1.7481-2.8285-8.3768-2.1799-9.4089 0.92072-1.0457 3.1414 14.666 2.8109 19.257-0.40512z"/>
 <path d="m59.828 396.97c-5.8154 2.148-5.93 2.3485-1.3556 2.3717 9.8257 1.6935 11.473-6.3466 1.3556-2.3717z"/>
 <path d="m255.24 395.42c3.902-2.2727 10.382-13.61 8.7253-15.266-0.97516-0.9751-17.22 14.674-17.22 16.589 0 1.5184 4.9364 0.74979 8.4947-1.3226z"/>
 <path d="m286.76 392.54c1.3906-1.6755 1.9721-3.6026 1.2924-4.2823-1.4517-1.4517-7.3287 3.0188-7.3287 5.5747 0 2.7531 3.2576 2.0557 6.0363-1.2924z"/>
 <path d="m268.91 393.83c4.823-1.8933 15.808-11.699 15.808-14.111 0-3.5016-1.9327-2.4796-8.6288 4.5631-3.4989 3.68-7.7108 7.1546-9.3597 7.7213-1.649 0.56671-2.5484 1.4903-1.9988 2.0525 0.54965 0.5622 2.4301 0.46039 4.1789-0.2261z"/>
 <path d="m242.25 392.5c5.6751-3.975 6.0328-7.8815 0.44797-4.8926-2.2213 1.1888-4.901 1.6286-5.9549 0.9772-2.6587-1.6432-10.373 2.7655-8.929 5.1025 0.73998 1.1973 2.5553 1.166 4.8916-0.08432 2.476-1.3251 3.9388-1.3165 4.3862 0.025818 0.39055 1.1717 2.5479 0.69958 5.1581-1.1286z"/>
 <path d="m293.77 386.09c-1.4782-5.8894-2.5626-7.6618-3.8752-6.3334-1.5504 1.5691 1.2868 11.826 3.2713 11.826 1.1642 0 1.4134-2.2669 0.60391-5.4924z"/>
 <path d="m188.79 399.31c0-3.3253 1.7276-10.962 3.8391-16.969 2.2031-6.2682 3.0488-11.411 1.9846-12.069-2.1433-1.3246-2.6685-0.083801-6.7795 16.017-3.5426 13.874-3.8267 19.068-1.043 19.068 1.0993 0 1.9987-2.7208 1.9987-6.0462z"/>
 <path d="m520.25 418.43c0.70294-2.801 0.81165-6.2557 0.24139-7.677-0.66034-1.6461-1.094-1.3145-1.1945 0.9136-0.096924 2.1476-1.7463 3.4978-4.2732 3.4978-2.2635 0-3.5595-0.89938-2.8801-1.9987 2.1644-3.5021-1.803-2.0151-7.8835 2.9549l-5.8848 4.8099 6.8841-0.2622c3.7863-0.14432 8.4205 0.439 10.298 1.2961 2.6209 1.1963 3.711 0.37521 4.6923-3.5344z"/>
 <path d="m157.47 391.18c5.1353-3.4015 9.337-7.449 9.337-8.9943 0-4.0613-3.514-3.4504-5.9105 1.0274-1.1295 2.1105-6.7825 6.1251-12.562 8.9213-8.5538 4.1383-9.55 5.0977-5.3549 5.1571 2.8346 0.040192 9.3555-2.71 14.491-6.1115z"/>
 <path d="m138.82 389.81c0-1.9543 1.9953-5.2617 4.434-7.3498 2.8764-2.4628 3.5777-4.0818 1.9965-4.6089-1.3407-0.4469-5.0537 1.6567-8.2512 4.6747-4.8557 4.5829-5.3729 5.928-3.1386 8.1622 3.6059 3.6059 4.9593 3.3663 4.9593-0.8782z"/>
 <path d="m180.41 378.42c0-3.364-0.3661-3.4992-4.8334-1.7849-4.4659 1.7137-3.9295 4.783 0.83591 4.783 2.2208 0 3.9975-1.3325 3.9975-2.9981z"/>
 <path d="m159.86 352.42c2.3896-2.7483 5.6035-4.9968 7.1421-4.9968 2.7796 0 6.1531-5.7333 4.4031-7.4833-0.5032-0.5032-2.0984 0.061676-3.5448 1.2553-1.4465 1.1936-5.5531 4.5123-9.1258 7.3749-6.2195 4.9831-8.3409 8.8467-4.8576 8.8467 0.90111 0 3.5934-2.2485 5.983-4.9968z"/>
 <path d="m75.796 414.73c2.8965-2.2784 5.2664-5.9402 5.2664-8.1373 0-3.3418-1.1433-2.7824-6.9956 3.4228-3.8475 4.0796-6.9955 7.7413-6.9955 8.1372 0 1.8788 3.9598 0.32532 8.7247-3.4227z"/>
 <path d="m200.81 339.57c0-1.0311-2.2668-4.3983-5.0373-7.4827l-5.0373-5.6079 0.5402 6.8082c0.42235 5.3233 1.521 6.9553 5.0373 7.4827 2.4734 0.371 4.4972-0.1691 4.4972-1.2003z"/>
 <path d="m263.89 317.23c3.9406-1.8049 14.83-20.369 14.83-25.281 0-5.295-3.6964-1.665-6.9322 6.8076-1.9128 5.0085-5.8142 11.273-8.6699 13.921-5.826 5.4022-5.4843 7.4181 0.77164 4.5528z"/>
 <path d="m256.73 316.51c0-1.7139-0.89943-2.5602-1.9987-1.8808-1.0993 0.67941-1.9987 2.0816-1.9987 3.1161 0 1.0344 0.89943 1.8807 1.9987 1.8807s1.9987-1.4022 1.9987-3.116z"/>
 <path d="m284.22 315.57c4.4391-1.7843 6.3755-7.9327 2.4984-7.9327-1.0993 0-1.9988 0.89951-1.9988 1.9988s-1.7989 1.9987-3.9975 1.9987c-2.2208 0-3.9975 1.3325-3.9975 2.9981 0 3.3794 1.0825 3.5147 7.4952 0.9371z"/>
 <path d="m250.4 313.44c1.4399-2.3057 2.0967-4.7134 1.4595-5.3506-1.1914-1.1914-6.9362 5.3632-7.0498 8.0436-0.12476 2.9419 3.0162 1.4288 5.5903-2.693z"/>
 <path d="m251.14 360.52c0-0.4154-1.3492-3.9842-2.9981-7.9307-1.649-3.9465-2.9981-10.299-2.9981-14.117s-0.89943-7.4977-1.9987-8.1771c-1.1556-0.7142-1.9987 1.1908-1.9987 4.5161 0 7.8052 5.6916 26.464 8.0724 26.464 1.0567 0 1.9213-0.3399 1.9213-0.75531z"/>
 <path d="m297.69 310.14c-0.79398-1.9237-2.1607-6.4921-3.0372-10.152-1.6672-6.9615-3.2951-9.6493-4.8827-8.0616-1.5021 1.5021 5.5092 21.711 7.5324 21.711 1.0071 0 1.1815-1.574 0.38751-3.4978z"/>
 <path d="m243.35 312.36c2.6827-2.6827 1.3538-4.2262-3.6386-4.2262-2.7683 0-5.5197 0.78702-6.1142 1.7489-0.59448 0.96191-0.20192 1.7489 0.87236 1.7489s3.198 0.47769 4.7195 1.0615c1.5215 0.58392 3.3939 0.43402 4.1609-0.3331z"/>
 <path d="m200.29 302.06c5.2608-5.491 7.0088-10.384 3.7098-10.384-0.91354 0-2.8112 2.1493-4.217 4.7761-2.7543 5.1464-11.247 9.9846-14.259 8.1231-1.0169-0.62848-1.8489-0.19019-1.8489 0.974 0 4.4545 11.273 2.0873 16.615-3.4892z"/>
 <path d="m171.9 304.8c2.1321-1.559 3.2252-3.4861 2.429-4.2822-0.79611-0.7962-2.6404-0.4577-4.0983 0.75229-1.4579 1.2099-4.6276 1.6829-7.0439 1.051-4.9946-1.3061-6.0618 2.2469-1.2315 4.1004 4.5142 1.7323 5.6003 1.5552 9.9447-1.6215z"/>
 <path d="m123.08 395.84c1.3905-1.6756 1.9892-3.5855 1.3303-4.2444-2.0468-2.0468-7.3666 1.0078-7.3666 4.2299 0 3.9148 2.7938 3.9215 6.0363 0.014496z"/>
 <path d="m106.66 396.48c3.2185-3.2185 3.0097-5.5854-0.4928-5.5854-3.7151 0-5.2511 2.5416-3.3728 5.5808 1.146 1.8542 2.015 1.8552 3.8656 0.004608z"/>
 <path d="m79.658 381.54c0.7174-0.71728 4.2401-1.1974 7.8283-1.0668 3.5882 0.13058 9.3513-0.66971 12.807-1.7784 8.8658-2.8448 21.565-21.834 14.602-21.834-1.1554 0-3.352 2.9947-4.8814 6.6549-3.3422 7.9991-6.6042 10.923-14.81 13.277-7.0739 2.0288-8.3594-0.5545-2.1925-4.4057 4.3116-2.6927 5.2883-5.5324 1.9029-5.5324-1.1521 0-4.2839 2.4734-6.9596 5.4965-3.5822 4.0472-5.3009 4.8378-6.5179 2.9983-2.1888-3.3082-9.6881 1.8157-7.6008 5.1931 1.5897 2.5722 3.859 2.961 5.8224 0.99759z"/>
 <path d="m60.43 369.52c5.0567-0.98431 9.8712-6.0381 7.7618-8.1475-0.7961-0.7962-2.6633 0.215-4.1493 2.2471-1.4859 2.0322-3.5798 3.1521-4.653 2.4888-2.442-1.5092-8.3083 0.62198-8.3083 3.0183 0 1.8212 1.6558 1.8909 9.3488 0.39331z"/>
 <path d="m202.21 265.16c3.7695-4.874 4.5971-7.2323 2.9051-8.278-0.94241-0.58246-3.6823 1.6039-6.0886 4.8587-3.2142 4.3475-3.6287 5.9177-1.562 5.9177 1.5473 0 3.6827-1.1243 4.7455-2.4984z"/>
 <path d="m294.02 260.58c0.65094-1.6964 0.68256-3.5853 0.070251-4.1976-1.7503-1.7503-5.3767 1.2185-5.3767 4.4018 0 3.8352 3.8127 3.6886 5.3065-0.20419z"/>
 <path d="m241.74 259.67c1.63-2.6373-0.75992-6.38-3.1362-4.9114-2.4277 1.5004-2.4119 6.9102 0.020142 6.9102 1.0344 0 2.4367-0.89951 3.1161-1.9988z"/>
 <path d="m284.63 255.84c1.547-2.8906 1.5774-4.1687 0.099213-4.1687-2.4231 0-5.062 5.6055-3.4146 7.253 0.59638 0.5964 2.0883-0.79153 3.3153-3.0843z"/>
 <path d="m276.81 255.5c1.227-2.2927 1.7301-4.6695 1.118-5.2816-1.6508-1.6508-7.2058 3.5119-7.2058 6.6969 0 4.138 3.5585 3.3107 6.0878-1.4153z"/>
 <path d="m257.65 257.81c1.9007-3.0754-2.5454-4.4728-6.8689-2.159-2.2213 1.1888-4.0388 2.5795-4.0388 3.0905 0 1.7597 9.7595 0.92612 10.908-0.93155z"/>
 <path d="m300.71 255.92c0-2.5108-5.8649-7.0385-7.2818-5.6216-0.65396 0.65398 0.20294 2.581 1.9043 4.2823 3.4732 3.4732 5.3775 3.9475 5.3775 1.3393z"/>
 <path d="m180.29 251.67c4.4506-3.6039 6.0078-7.9896 2.8368-7.9896-2.7279 0-10.773 9.4912-8.9833 10.598 0.9126 0.56404 3.6785-0.60951 6.1465-2.6079z"/>
 <path d="m168.79 252.67c0-1.8322-1.1243-2.9565-2.4985-2.4984-2.8295 0.94318-2.5185 4.1573 0.4997 5.1634 1.0993 0.36644 1.9988-0.83279 1.9988-2.665z"/>
 <path d="m70.915 343.75c3.3822-2.846 6.1495-6.4437 6.1495-7.9949 0-4.2398-3.5473-3.3898-5.0038 1.1989-0.7016 2.2107-3.9102 5.3818-7.1302 7.0469-6.4151 3.3174-7.397 4.9236-3.0098 4.9236 1.5646 0 5.612-2.3285 8.9943-5.1745z"/>
 <path d="m80.145 318.81c0.7246-1.1724 0.8376-2.6116 0.251-3.1982-1.4318-1.4317-5.33 1.091-5.33 3.4492 0 2.5543 3.4506 2.3838 5.079-0.25095z"/>
 <path d="m269.86 202.16c7.7872-6.5173 13.52-18.444 8.8656-18.444-1.0993 0-1.9988 1.3492-1.9988 2.9981 0 1.649-3.5977 6.5958-7.9949 10.993-7.8441 7.8441-6.9833 11.241 1.1281 4.4527z"/>
 <path d="m260.7 196.74c3.7133-3.8311 6.3601-7.3569 5.8818-7.8351-0.90756-0.90758-15.846 12.129-15.846 13.828 0 2.6244 3.8657 0.29936 9.9646-5.9932z"/>
 <path d="m291.43 200.32c1.9048-1.9048 1.5441-6.6081-0.50674-6.6081-2.4521 0-4.4205 5.631-2.4041 6.8772 0.89798 0.55496 2.2078 0.43387 2.9108-0.26912z"/>
 <path d="m226.75 199.83c0-1.0317 4.9214-4.8543 10.936-8.4946 6.015-3.6403 10.962-7.7878 10.993-9.2165 0.06485-2.9721-0.50249-2.6758-16.456 8.5939-11.591 8.1877-13.752 10.993-8.4714 10.993 1.649 0 2.9981-0.8441 2.9981-1.8758z"/>
 <path d="m251.88 196.85c2.1166-1.5477 3.1538-3.5086 2.3049-4.3575-0.84892-0.84891-3.0425-0.044418-4.8747 1.7877-4.3201 4.3201-2.421 6.2192 2.5698 2.5698z"/>
 <path d="m218.78 174.46c5.4965-2.8697 8.9366-5.5787 7.6446-6.0199-1.292-0.44122-5.9782 1.0492-10.414 3.3121-9.5863 4.8906-11.581 5.1613-8.2239 1.1162 3.3213-4.0019-1.4362-4.0543-6.6902-0.073715-2.0306 1.5385-4.9538 2.3131-6.4959 1.7213-1.5421-0.59177-2.8038 0.02182-2.8038 1.3635 0 1.5736 2.1283 2.1271 5.9962 1.5594 3.2979-0.48406 5.9962-0.13641 5.9962 0.77251 0 2.8234 4.6052 1.6709 14.99-3.7513z"/>
 <path d="m300.71 193.95c0-2.064-1.5051-4.9871-3.3447-6.4959-3.0031-2.463-3.21-2.2328-2.026 2.2537 0.72528 2.7483 1.331 5.6714 1.346 6.4959 0.062073 3.4103 4.0248 1.1914 4.0248-2.2537z"/>
 <path d="m159.74 164.14c3.044-3.1773 4.6922-6.2976 3.6626-6.934-1.7626-1.0893-8.1432 4.6936-11.268 10.212-2.5795 4.5555 1.9851 2.5879 7.6055-3.2786z"/>
 <path d="m193.51 168.84c4.0353-4.2542 4.2093-4.9623 1.2197-4.9623-3.2868 0-8.7219 5.2103-8.8612 8.4946-0.12027 2.8365 2.944 1.42 7.6415-3.5323z"/>
 <path d="m171.29 192.54c1.7674-1.7675-6.3578-9.149-8.5675-7.7833-2.9601 1.8294-2.284 4.9518 1.0722 4.9518 1.649 0 2.9981 0.89943 2.9981 1.9987 0 2.1894 2.6499 2.6802 4.4972 0.83281z"/>
 <path d="m286.72 187.71c0-1.0993-0.89944-1.9987-1.9988-1.9987-1.0993 0-1.9987 0.89943-1.9987 1.9987s0.89941 1.9987 1.9987 1.9987 1.9988-0.89943 1.9988-1.9987z"/>
 <path d="m107.04 312.62c7.7885-3.5393 12.972-7.7905 12.972-10.639 0-3.2515-3.4973-2.8168-5.453 0.67767-0.9097 1.6257-5.1254 4.6443-9.3681 6.708-8.8816 4.3201-7.1607 7.3474 1.8491 3.253z"/>
 <path d="m104.19 256.12c2.1166-1.5477 3.1538-3.5086 2.3049-4.3575-0.8489-0.84894-3.0425-0.044449-4.8747 1.7877-4.3201 4.3201-2.421 6.2192 2.5698 2.5698z"/>
 <path d="m296.37 158.46c-0.39487-2.0504-1.605-3.5031-2.6893-3.2283-2.905 0.73633-2.3973 5.0214 0.71796 6.0598 1.7513 0.58377 2.4389-0.40387 1.9713-2.8315z"/>
 <path d="m306.42 153.01c-1.4107-3.1478-2.9282-4.6334-3.3722-3.3015-0.44397 1.332 0.71024 3.9074 2.565 5.7232 3.1568 3.0906 3.2083 2.9358 0.80725-2.4217z"/>
 <path d="m262.73 155.85c0-1.0344-0.89944-2.4367-1.9988-3.1161-1.0993-0.67941-1.9988-2.9811-1.9988-5.1148 0-4.0243-2.9173-5.2456-4.8932-2.0485-1.8527 2.9977 2.5499 12.16 5.8431 12.16 1.6762 0 3.0476-0.84633 3.0476-1.8808z"/>
 <path d="m240.07 152.62c1.5178-3.9553 0.071167-5.286-4.034-3.7108-4.1245 1.5827-4.2173 4.0443-0.21042 5.5819 1.77 0.67921 3.5703-0.11443 4.2444-1.8711z"/>
 <path d="m226.75 153.85c0-1.0344-0.89943-2.4366-1.9987-3.1161-1.0993-0.6794-1.9987 0.16693-1.9987 1.8808 0 1.7138 0.89943 3.1161 1.9987 3.1161s1.9987-0.84634 1.9987-1.8808z"/>
 <path d="m213.43 146.41c2.2322-2.2322 1.4914-4.6637-1.4209-4.6637-1.5144 0-3.873 1.3491-5.2416 2.9981-2.0675 2.4912-1.8272 2.9981 1.4209 2.9981 2.15 0 4.5087-0.59962 5.2416-1.3325z"/>
 <path d="m120.86 239.14c2.3844-1.5094 2.3037-2.3057-0.51981-5.1292-3.1241-3.1241-3.0474-3.5886 1.1749-7.1105 2.4845-2.0724 3.6179-3.7693 2.5186-3.771-2.8779-0.004211-9.2001 5.107-8.8325 7.1406 0.1713 0.948 0.1362 2.1734-0.078094 2.723-2.8035 7.191-0.2443 9.9332 5.7369 6.147z"/>
 <path d="m314.57 138.65c3.869-4.6618 1.3886-7.849-2.6422-3.3951-2.0039 2.2143-2.7402 4.4694-1.6744 5.1282 1.0464 0.6467 2.9888-0.13321 4.3166-1.7331z"/>
 <path d="m276.18 125.69c7.9699-7.5766 14.491-14.293 14.491-14.925 0-3.0196-5.4581-0.60234-8.8557 3.922-2.7306 3.6361-4.2405 4.3718-5.3356 2.5998-1.0598-1.7148-2.565-0.66692-4.9174 3.4234-1.8645 3.2421-6.1513 7.2439-9.5262 8.8929-6.398 3.126-10.576 9.6635-4.7461 7.4264 1.7279-0.66307 3.4247-0.38631 3.7705 0.61504 0.34582 1.0013 7.1497-4.3784 15.12-11.955z"/>
 <path d="m247.24 107.96c10.263-10.222 14.259-16.605 9.9936-15.963-2.7836 0.41914-22.903 23.509-22.192 25.468 0.38785 1.0681 5.8769-3.209 12.198-9.5048z"/>
 <path d="m233.46 106.61c6.8514-8.5865 6.7819-13.682-0.080063-5.8714-2.8823 3.2806-6.599 5.9789-8.2594 5.9962-4.5166 0.046989-5.0946 4.3705-0.73659 5.5102 2.6045 0.68109 5.4421-1.0806 9.076-5.6349z"/>
 <path d="m185.55 134.21c1.3741-0.55447 2.4984-1.8326 2.4984-2.8403 0-2.8986-5.2581-2.1318-7.9949 1.1659-2.0072 2.4186-1.958 2.9676 0.25496 2.8403 1.5087-0.086777 3.8674-0.61145 5.2416-1.1659z"/>
 <path d="m208.77 100.77c0-3.364-0.36606-3.4992-4.8334-1.7849-4.466 1.7138-3.9296 4.783 0.83589 4.783 2.2208 0 3.9975-1.3325 3.9975-2.9981z"/>
 <path d="m187.78 89.776c0.67941-1.0993-0.16693-1.9987-1.8807-1.9987-1.7139 0-3.1161 0.89943-3.1161 1.9987s0.8463 1.9987 1.8808 1.9987c1.0344 0 2.4366-0.89943 3.116-1.9987z"/>
 <path d="m200.27 84.455c2.9665-1.197 3.3766-6.6712 0.4997-6.6712-1.0993 0-1.9987 0.89943-1.9987 1.9987s-2.2486 1.9987-4.9968 1.9987c-2.7483 0-4.9968 0.89944-4.9968 1.9987 0 2.0545 7.048 2.4685 11.493 0.67501z"/>
 <path d="m286.79 66.585c1.2479-3.2823 1.345-6.1668 0.24457-7.2673-1.1004-1.1004-2.6692 0.59789-3.9524 4.2788-2.7025 7.7526 0.81775 10.59 3.7078 2.9885z"/>
 <path d="m295.41 92.23c7.3802-3.9938 11.059-7.5954 11.059-10.827 0-1.4689-1.8553-0.74693-4.5244 1.7606-2.4884 2.3378-7.885 5.6546-11.992 7.3708-4.1074 1.7162-7.468 3.558-7.468 4.0929 0 2.027 7.2278 0.68682 12.926-2.3968z"/>
 <path d="m210.42 67.161c5.7257-6.0948 5.6078-9.2061-0.15129-3.9903-2.4734 2.2401-6.296 5.0678-8.4946 6.2838-3.9592 2.1898-3.9578 2.2115 0.15128 2.2717 2.2818 0.03344 6.1044-2.0209 8.4946-4.5652z"/>
 <path d="m250.34 60.434c5.7182-2.9464 10.397-6.5441 10.397-7.995 0-3.6244-2.9522-3.3081-6.2511 0.66982-4.8128 5.8033-24.013 11.995-20.732 6.686 0.6794-1.0993 0.28276-1.9987-0.88141-1.9987s-2.1167 0.95251-2.1167 2.1167-0.89943 1.5608-1.9987 0.88139-1.9987-0.379-1.9987 0.66756c0 2.2025 4.7918 4.3293 9.7542 4.3293 1.887 0 8.1095-2.4107 13.828-5.357z"/>
 <path d="m249.59 32.054c1.4852-2.4031 9.1434-4.262 9.1434-2.2194 0 1.8048-3.5238 3.5725-7.6132 3.8191-1.439 0.086788-2.1276-0.63306-1.5302-1.5997z"/>
</svg>
