<?xml version="1.0" encoding="UTF-8"?>
<svg viewBox="0 0 640 480" xmlns="http://www.w3.org/2000/svg">
 <g stroke="#000">
  <path d="m11.412 604.57l-53.819-36.631 22.256 54.343-30.349-16.504 32.777 40.657-27.921-12.479s16.16 29.143 30.349 35.826c8.7783 4.1348 19.567 2.0656 29.135 0.40253 14.338-2.4923 26.418-17.02 40.87-15.297 10.698 1.2755 16.439 14.867 26.707 18.114 7.4567 2.3583 15.955 2.571 23.47 0.40253 5.8925-1.7004 9.3466-8.9384 15.377-10.064 7.5926-1.4166 15.173 6.7226 22.661 4.8306 7.2318-1.8275 9.5387-14.229 16.996-14.492 9.7328-0.34222 14.117 14.609 23.47 17.309 5.3253 1.5375 11.425 0.79626 16.591-1.2076 9.303-3.6085 13.75-16.245 23.47-18.517 4.4296-1.0352 8.9588 1.6448 13.354 2.8178 6.3034 1.6823 12.207 7.2752 18.614 6.0381 8.6465-1.6696 11.917-14.019 20.233-16.907 4.7137-1.6367 10.073-0.552 14.972 0.40253 15.415 3.0033 28.431 17.504 44.107 16.504 7.4668-0.47626 12.464-9.1508 19.828-10.466 8.0362-1.4352 16.339 1.33 24.279 3.2203 10.704 2.5483 20.281 12.539 31.158 10.869 7.3318-1.1257 10.405-13.807 17.805-13.284 7.9916 0.565 9.8909 13.223 16.996 16.907 7.5317 3.9053 17.638 8.4842 25.089 4.428 8.3282-4.5341 6.6067-17.755 10.926-26.165 5.041-9.8166 14.678-17.492 17.4-28.178 1.825-7.1645 25.062-39.837 23.917-47.14 13.018-31.152-35.248-13.644-35.248-13.644l-0.4047 40.657c7.0367-31-12.007-13.536-15.377-21.737-3.4647-8.4334 0.71454-19.447-4.4512-26.97-14.327-20.864-65.554-38.644-65.554-38.644l-389.68 94.597z"/>
  <path d="m425.84 626.13c-12.954-6.389-313.5-436.95-309.35-451.18 4.6996-16.129-28.509-66.65-23.873-71.704 56.899-62.032 203.87-177.79 388.9-8.8806l2.0811 31.91 15.261 19.424 15.261 53.415-0.6937 130.42-11.793 31.91 13.18 15.261v196.32" fill="#7f7f7f" stroke-linecap="square" stroke-miterlimit="36" stroke-width="13.1"/>
  <path d="m5.0508 636.98l-9.661-313.98 31.801-4.8305-28.178-17.309 0.4025-99.83s7.7399-21.539 8.8784-22.678c1.1386-1.1386-1.4232-25.618-1.4232-25.618l35.58-3.131-12.524-39.565c171.51-171.44 303.92-108.88 380.87-8.5392l10.229 28.179 17.078 17.078 15.94 52.658-1.4232 130.93-11.955 32.449 13.663 13.378-1.7079 235.4-29.887 29.887-417.68-4.4789z" fill="#e5e5e5" stroke-linejoin="bevel" stroke-width="6"/>
  <path d="m276.83 3.0796c54.682 16.989 90.364 47.978 120.05 76.968l29.466 53.983 27.373 63.602 2.4153 145.72-11.148 24.366 12.881 21.737 0.8051 252.8" fill="none" stroke-width="13.1"/>
  <path transform="rotate(9.6499 223.81 99.09)" d="m313.68 15.883s-13.29 25.546-28.706 32.769c-23.467 4.8068-52.07 1.368-79.703 2.4153-10.247 0.38832-24.753-1.3276-34.216 4.0254-10.238 5.7917-17.309 26.568-17.309 26.568s14.408-18.894 24.958-22.945c12.277-4.7137 39.449 0.40256 39.449 0.40256l-27.373 30.593s-14.108 21.939-18.517 22.945c-7.0256 1.6021-30.134-2.3642-38.644-2.8178-9.5166 4.5782-20.127 12.881-20.127 12.881l26.568-6.4407 16.907 5.6356s-15.86 14.784-20.932 24.152c-4.6506 8.5904-8.0508 28.178-8.0508 28.178s8.6523-19.896 14.492-28.983c5.7776-8.9911 20.127-24.958 20.127-24.958s10.134 0.5417 14.492-1.6102c7.9988-3.9497 18.517-19.322 18.517-19.322s1.4353 20.082 5.6356 28.983c5.939 12.585 26.568 32.203 26.568 32.203l4.8305 21.737 0.8051-29.788 18.517 0.8051-33.008-12.076c-12.047-11.343-16.114-30.001-15.297-53.136 0 0 19.439-6.9402 24.958-16.504 1.8825-3.2625 4.0254-9.2585 4.0254-9.2585s43.43-0.40828 59.576-4.8305c12.523-8.8502 41.902-36.914 41.902-36.914l-20.442-4.7106z"/>
 </g>
 <path d="m127.11 201.75c-13.795 0.10289-26.906 1.4062-26.906 1.4062-29.184-1.1043-20.131 18.414-9.8125 18.625l24.031 0.5 1.4687 65.719c-0.54341 8.5095 12.459 20.575 18.156 6.375l1.9687-26.469c19.102 4.7553 27.027 18.712 35.312 32.375 9.36 5.3627 19.338 11.718 17.656-10.812l-20.594-28.438c15.961-16.426 16.786-49.853-18.406-57.625-6.077-1.342-14.598-1.718-22.875-1.6562h-1.5e-5zm16.344 21.219c5.644-0.10487 11.911 5.1038 15.844 17.719-9.3959 1.0292-18.792 2.7249-28.188 0 0.3741-10.659 5.9472-17.6 12.344-17.719z"/>
 <path d="m222.39 207.6c9.2185 2.0748 12.584 14.034 16.432 27.96l-0.4905 61.805c-6.3767 2.759-12.754 2.7906-19.13 0l0.4905-66.71c-0.25809-3.2318-6.173-7.0032-6.1314-14.47 0.016006-2.7964 2.6066-9.9846 8.8293-8.5841z"/>
 <path d="m281.42 202.62c-30.265-0.31857-20.446 22.48-19.625 22.594 7.0287 0.97304 20.658 0.60806 20.625 0.96875-2.0319 22.431 1.8967 53.692 2.4374 67.688 0.41351 10.701 18.302 13.106 19.125 4.4062 0.53479-5.6552 0-31.875 0-31.875l19.625-3.4375c28.906-6.6551 26.723-59.609 4.4063-59.844l-46.594-0.5zm22.5 20.969c32.063-0.31964 27.86 23.789-3.0938 25.125-2.8508-7.5382-1.7604-16.202-0.093994-25.031 1.1102-0.062698 2.1533-0.083389 3.1876-0.093704h2e-4z"/>
 <g stroke="#000">
  <path d="m63.845 636.49c1.0406-1.7342 20.117-46.131 20.117-46.131l4.1622 24.279 12.14-9.3649 2.0811 31.563-38.5-0.3469z"/>
  <path d="m238.31 636.14c1.0406-3.1216 11.099-41.275 11.099-41.275l9.0181 44.397-20.117-3.1216z"/>
  <path d="m312.86 636.63l40.717-64.18 6.6352 51.346 20.83-23.883 8.6538 19.778 12.479 3.1331 37.244 3.8706 26.242-26.488 3.2593 39.976-156.06-3.5526z"/>
  <path d="m167.21 642.39l10.484-66.636 18.652 62.474-29.135 4.1622z"/>
 </g>
</svg>
