<?xml version="1.0" encoding="UTF-8"?>
<svg viewBox="0 0 128 128" xmlns="http://www.w3.org/2000/svg" xmlns:xlink="http://www.w3.org/1999/xlink">
 <defs>
  <filter id="bw">
   <feGaussianBlur stdDeviation="1.81196"/>
  </filter>
  <linearGradient id="c">
   <stop stop-color="#b1b1b1" offset="0"/>
   <stop stop-color="#e4e4e4" offset="1"/>
  </linearGradient>
  <linearGradient id="e">
   <stop stop-color="#6a3c1d" offset="0"/>
   <stop stop-color="#8f5127" offset="1"/>
  </linearGradient>
  <linearGradient id="b">
   <stop stop-color="#1a1a1a" offset="0"/>
   <stop stop-color="#2b2b2b" offset="1"/>
  </linearGradient>
  <linearGradient id="d">
   <stop stop-color="#cfc7a9" offset="0"/>
   <stop stop-color="#eeebe0" offset="1"/>
  </linearGradient>
  <linearGradient id="a">
   <stop stop-color="#9e2612" offset="0"/>
   <stop stop-color="#bd5032" offset="1"/>
  </linearGradient>
  <linearGradient id="f">
   <stop stop-color="#b49900" offset="0"/>
   <stop stop-color="#ffda0a" offset=".5"/>
   <stop stop-color="#c6a800" offset="1"/>
  </linearGradient>
  <linearGradient id="az" x1="35.339" x2="41.269" y1="59.177" y2="72.589" gradientUnits="userSpaceOnUse">
   <stop stop-color="#4f3e2a" offset="0"/>
   <stop stop-color="#72593c" offset="1"/>
  </linearGradient>
  <linearGradient id="bv" x1="29.484" x2="50.25" y1="68.344" y2="95.381" gradientUnits="userSpaceOnUse" xlink:href="#c"/>
  <linearGradient id="bu" x1="69.875" x2="99.125" y1="91.375" y2="55.125" gradientUnits="userSpaceOnUse" xlink:href="#c"/>
  <linearGradient id="bt" x1="59.844" x2="65.662" y1="61.229" y2="24.562" gradientUnits="userSpaceOnUse" xlink:href="#c"/>
  <linearGradient id="bs" x1="58.999" x2="67.197" y1="105.48" y2="96.003" gradientUnits="userSpaceOnUse" xlink:href="#d"/>
  <linearGradient id="br" x1="50.094" x2="58.049" y1="95.539" y2="105.33" gradientUnits="userSpaceOnUse" xlink:href="#d"/>
  <linearGradient id="bq" x1="20.462" x2="28.616" y1="70.194" y2="83.298" gradientUnits="userSpaceOnUse" xlink:href="#d"/>
  <linearGradient id="bp" x1="97.293" x2="101.49" y1="59.808" y2="57.267" gradientUnits="userSpaceOnUse" xlink:href="#d"/>
  <linearGradient id="bo" x1="77.75" x2="87.312" y1="96" y2="76.875" gradientUnits="userSpaceOnUse" xlink:href="#e"/>
  <linearGradient id="bn" x1="80.875" x2="81.25" y1="80.75" y2="82.562" gradientUnits="userSpaceOnUse" xlink:href="#e"/>
  <linearGradient id="bm" x1="81.125" x2="81.5" y1="90.688" y2="92.25" gradientUnits="userSpaceOnUse" xlink:href="#e"/>
  <linearGradient id="bl" x1="86.688" x2="88.062" y1="79.812" y2="79.75" gradientUnits="userSpaceOnUse" xlink:href="#c"/>
  <linearGradient id="bk" x1="87.477" x2="87.656" y1="85.203" y2="82.703" gradientUnits="userSpaceOnUse" xlink:href="#b"/>
  <linearGradient id="bj" x1="86.156" x2="86.203" y1="84.078" y2="84.344" gradientUnits="userSpaceOnUse" xlink:href="#b"/>
  <linearGradient id="bi" x1="88.094" x2="88.281" y1="83.203" y2="83.516" gradientUnits="userSpaceOnUse" xlink:href="#b"/>
  <linearGradient id="bh" x1="84.844" x2="85.156" y1="84.5" y2="82.891" gradientUnits="userSpaceOnUse" xlink:href="#b"/>
  <linearGradient id="bg" x1="88.961" x2="89.859" y1="83.547" y2="81.828" gradientUnits="userSpaceOnUse" xlink:href="#b"/>
  <linearGradient id="bf" x1="87.852" x2="90.154" y1="85.411" y2="83.811" gradientUnits="userSpaceOnUse" xlink:href="#f"/>
  <linearGradient id="be" x1="92.404" x2="88.973" y1="85.164" y2="87.375" gradientUnits="userSpaceOnUse" xlink:href="#f"/>
  <linearGradient id="bd" x1="31.577" x2="25.473" gradientUnits="userSpaceOnUse" xlink:href="#c"/>
  <linearGradient id="bc" x1="36.015" x2="33.207" y1="69.083" y2="71.559" gradientUnits="userSpaceOnUse" xlink:href="#c"/>
  <linearGradient id="bb" x1="33.276" x2="34.079" gradientUnits="userSpaceOnUse" xlink:href="#b"/>
  <linearGradient id="ba" x1="37.44" x2="38.243" gradientUnits="userSpaceOnUse" xlink:href="#b"/>
  <linearGradient id="ay" x1="56.656" x2="60.844" y1="107.41" y2="104.3" gradientUnits="userSpaceOnUse" xlink:href="#a"/>
  <linearGradient id="ax" x1="62.026" x2="66.213" y1="105.51" y2="102.4" gradientUnits="userSpaceOnUse" xlink:href="#a"/>
  <linearGradient id="aw" x1="67.37" x2="71.557" y1="103.6" y2="100.49" gradientUnits="userSpaceOnUse" xlink:href="#a"/>
  <linearGradient id="av" x1="72.526" x2="76.713" y1="101.94" y2="98.834" gradientUnits="userSpaceOnUse" xlink:href="#a"/>
  <linearGradient id="au" x1="54.562" x2="58.781" y1="104.91" y2="101.92" gradientUnits="userSpaceOnUse" xlink:href="#a"/>
  <linearGradient id="at" x1="54.5" x2="58.719" y1="98.938" y2="95.953" gradientUnits="userSpaceOnUse" xlink:href="#a"/>
  <linearGradient id="as" x1="54.531" x2="58.75" y1="92.938" y2="89.953" gradientUnits="userSpaceOnUse" xlink:href="#a"/>
  <linearGradient id="ar" x1="59.094" x2="63.281" y1="103.63" y2="100.52" gradientUnits="userSpaceOnUse" xlink:href="#a"/>
  <linearGradient id="aq" x1="56.656" x2="60.844" y1="101.47" y2="98.359" gradientUnits="userSpaceOnUse" xlink:href="#a"/>
  <linearGradient id="ap" x1="64.406" x2="68.594" y1="101.75" y2="98.641" gradientUnits="userSpaceOnUse" xlink:href="#a"/>
  <linearGradient id="ao" x1="62.094" x2="66.281" y1="99.563" y2="96.453" gradientUnits="userSpaceOnUse" xlink:href="#a"/>
  <linearGradient id="an" x1="58.844" x2="63.031" y1="97.719" y2="94.609" gradientUnits="userSpaceOnUse" xlink:href="#a"/>
  <linearGradient id="am" x1="56.688" x2="60.875" y1="95.594" y2="92.484" gradientUnits="userSpaceOnUse" xlink:href="#a"/>
  <linearGradient id="al" x1="58.844" x2="63.031" y1="91.813" y2="88.703" gradientUnits="userSpaceOnUse" xlink:href="#a"/>
  <linearGradient id="ak" x1="62.031" x2="66.219" y1="93.656" y2="90.547" gradientUnits="userSpaceOnUse" xlink:href="#a"/>
  <linearGradient id="aj" x1="95.165" x2="99.384" y1="64.456" y2="61.472" gradientUnits="userSpaceOnUse" xlink:href="#a"/>
  <linearGradient id="ai" x1="93.977" x2="98.165" y1="62.281" y2="59.172" gradientUnits="userSpaceOnUse" xlink:href="#a"/>
  <linearGradient id="ah" x1="93.977" x2="98.165" y1="56.315" y2="53.205" gradientUnits="userSpaceOnUse" xlink:href="#a"/>
  <linearGradient id="ag" x1="91.875" x2="96.063" y1="59.98" y2="56.87" gradientUnits="userSpaceOnUse" xlink:href="#a"/>
  <linearGradient id="af" x1="88.636" x2="92.824" y1="64.213" y2="61.104" gradientUnits="userSpaceOnUse" xlink:href="#a"/>
  <linearGradient id="ae" x1="91.534" x2="95.722" y1="66.145" y2="63.035" gradientUnits="userSpaceOnUse" xlink:href="#a"/>
  <linearGradient id="ad" x1="94.006" x2="98.193" y1="68.19" y2="65.081" gradientUnits="userSpaceOnUse" xlink:href="#a"/>
  <linearGradient id="ac" x1="95.449" x2="99.668" y1="58.405" y2="55.421" gradientUnits="userSpaceOnUse" xlink:href="#a"/>
  <linearGradient id="ab" x1="56.877" x2="62.079" y1="100.98" y2="105.32" gradientTransform="matrix(1 1.012 0 1 -5.3376 -61.572)" gradientUnits="userSpaceOnUse" xlink:href="#a"/>
  <linearGradient id="aa" x1="54.079" x2="57.393" y1="99.897" y2="103.39" gradientUnits="userSpaceOnUse" xlink:href="#a"/>
  <linearGradient id="z" x1="53.997" x2="57.311" y1="93.99" y2="97.484" gradientUnits="userSpaceOnUse" xlink:href="#a"/>
  <linearGradient id="y" x1="54.052" x2="57.365" y1="88.192" y2="91.686" gradientUnits="userSpaceOnUse" xlink:href="#a"/>
  <linearGradient id="x" x1="56.877" x2="62.079" y1="100.98" y2="105.32" gradientTransform="matrix(1 1.012 0 1 -10.589 -65.265)" gradientUnits="userSpaceOnUse" xlink:href="#a"/>
  <linearGradient id="w" x1="56.877" x2="62.079" y1="100.98" y2="105.32" gradientTransform="matrix(1 1.012 0 1 -15.895 -68.902)" gradientUnits="userSpaceOnUse" xlink:href="#a"/>
  <linearGradient id="v" x1="56.877" x2="62.079" y1="100.98" y2="105.32" gradientTransform="matrix(1 1.012 0 1 -13.242 -69.996)" gradientUnits="userSpaceOnUse" xlink:href="#a"/>
  <linearGradient id="u" x1="56.877" x2="62.079" y1="100.98" y2="105.32" gradientTransform="matrix(1 1.012 0 1 -7.9906 -66.413)" gradientUnits="userSpaceOnUse" xlink:href="#a"/>
  <linearGradient id="t" x1="56.877" x2="62.079" y1="100.98" y2="105.32" gradientTransform="matrix(1 1.012 0 1 -5.6112 -67.754)" gradientUnits="userSpaceOnUse" xlink:href="#a"/>
  <linearGradient id="s" x1="56.877" x2="62.079" y1="100.98" y2="105.32" gradientTransform="matrix(1 1.012 0 1 -10.835 -71.309)" gradientUnits="userSpaceOnUse" xlink:href="#a"/>
  <linearGradient id="r" x1="56.877" x2="62.079" y1="100.98" y2="105.32" gradientTransform="matrix(1 1.012 0 1 -7.7718 -72.157)" gradientUnits="userSpaceOnUse" xlink:href="#a"/>
  <linearGradient id="q" x1="56.877" x2="62.079" y1="100.98" y2="105.32" gradientTransform="matrix(1 1.012 0 1 -5.7752 -73.716)" gradientUnits="userSpaceOnUse" xlink:href="#a"/>
  <linearGradient id="p" x1="56.877" x2="62.079" y1="100.98" y2="105.32" gradientTransform="matrix(1 1.012 0 1 -7.6624 -77.955)" gradientUnits="userSpaceOnUse" xlink:href="#a"/>
  <linearGradient id="o" x1="56.877" x2="62.079" y1="100.98" y2="105.32" gradientTransform="matrix(1 1.012 0 1 -37.214 -83.678)" gradientUnits="userSpaceOnUse" xlink:href="#a"/>
  <linearGradient id="n" x1="19.108" x2="22.422" y1="75.766" y2="79.261" gradientUnits="userSpaceOnUse" xlink:href="#a"/>
  <linearGradient id="m" x1="19.108" x2="22.422" y1="69.815" y2="73.31" gradientUnits="userSpaceOnUse" xlink:href="#a"/>
  <linearGradient id="l" x1="56.877" x2="62.079" y1="100.98" y2="105.32" gradientTransform="matrix(1 1.012 0 1 -31.893 -80.12)" gradientUnits="userSpaceOnUse" xlink:href="#a"/>
  <linearGradient id="k" x1="56.877" x2="62.079" y1="100.98" y2="105.32" gradientTransform="matrix(1 1.012 0 1 -34.38 -84.685)" gradientUnits="userSpaceOnUse" xlink:href="#a"/>
  <linearGradient id="j" x1="56.877" x2="62.079" y1="100.98" y2="105.32" gradientTransform="matrix(1 1.012 0 1 -37.308 -89.629)" gradientUnits="userSpaceOnUse" xlink:href="#a"/>
  <linearGradient id="i" x1="56.877" x2="62.079" y1="100.98" y2="105.32" gradientTransform="matrix(1 1.012 0 1 -31.924 -85.976)" gradientUnits="userSpaceOnUse" xlink:href="#a"/>
  <linearGradient id="h" x1="56.877" x2="62.079" y1="100.98" y2="105.32" gradientTransform="matrix(1 1.012 0 1 -37.245 -95.58)" gradientUnits="userSpaceOnUse" xlink:href="#a"/>
  <linearGradient id="g" x1="56.877" x2="62.079" y1="100.98" y2="105.32" gradientTransform="matrix(1 1.012 0 1 -34.065 -90.447)" gradientUnits="userSpaceOnUse" xlink:href="#a"/>
 </defs>
 <path d="m50.912 102.9-32.88-20.506-10.96-22.981 39.244-16.617 45.608 31.82-41.012 28.284z" fill-opacity=".51584" fill-rule="evenodd" filter="url(#bw)"/>
 <path d="m57.408 88.689v3.5576l-0.04419 3.182 0.04419 6.5186 0.04419 5.3033-15.799-10.585 1.3037-1.5247 2.3423-1.2595 5.0602 0.06629 2.2981-2.3865 4.3531-2.8063 0.39775-0.06629z" fill="url(#br)" fill-rule="evenodd"/>
 <path d="m52.35 100.87 4.9992 3.445 0.05059 2.641-5.0654-3.3831 0.01563-2.7029z" fill="url(#ab)" fill-rule="evenodd"/>
 <path d="m20.263 67.078-0.06629 2.4307-0.17678 0.04419-0.06629 2.6958 0.28726 0.30936v3.0494h-0.26516v2.7179l0.26516 0.15468v3.1599l6.9385 4.8393-0.86179-4.3752 0.50823-2.5412-2.5191-3.2704-0.68501-6.0988-3.3588-3.1157z" fill="url(#bq)" fill-rule="evenodd"/>
 <path d="m32.146 55.345-0.06082 10.736 8.8196 5.9608 0.15206-10.766-8.9108-5.9304z" fill="url(#az)" fill-rule="evenodd"/>
 <path d="m32.146 55.345-0.06082 10.736 8.8196 5.9608 0.15206-10.766-8.9108-5.9304z" fill-opacity=".15686" fill-rule="evenodd"/>
 <path d="m19.406 39.75 0.1875 27.125 0.6875 0.09375 3.3125 3.4375 0.6875 5.6875 2.375 3.4062-0.40625 2.5625 0.96875 4.5 14.5 10.375 1.0938-1.6562 1.375-0.78125 1.1672-0.57346 5.1765 0.07346 1.6875-2.0625 5.0938-3.5v-23.625l-37.906-25.062zm10.656 14 11.094 8.0312v12.625l-11-6.9375-0.09375-13.719z" fill="url(#bv)" fill-rule="evenodd"/>
 <path d="m57.364 64.802-0.08839 24.042 5.3033 2.3865 1.9445 3.2704 3.8007 2.1213 1.149 3.0052 3.8007-0.26517 1.8562 0.44194v-21.92l12.993-5.3033-0.17678 23.953 12.551-4.5078 0.35355-26.87-2.3865-1.5026-4.773-0.7955-0.26516-0.70711-0.08839-2.2097 3.182-2.2981 1.149-3.9775 3.182-2.1213-0.44194-1.7678-43.045 15.026z" fill="url(#bu)" fill-rule="evenodd"/>
 <path d="m88.078 81.688 1.7812-0.53125-0.0625 2.9688-1.7344 0.17188 0.01563-2.6094z" fill="url(#bg)" fill-rule="evenodd"/>
 <path d="m42.25,31.375-22.625,8.25 37.75,25.25 43.25-15.125-4.625-3.25-.75.125-.62022-.76487-.81728-.48513-.4375-.75-29-19.375h-1.125l-1.125-.6875-15.375,5.3125-.1875.875-3.6875,1.375-.625-.75z" fill="url(#bt)" fill-rule="evenodd"/>
 <path d="m57.298 88.689 0.06629 0.79549 0.0221 5.922-0.08839 2.8063 0.13258 3.1157-0.04419 5.8557 17.7-6.0104s0.13258-1.2374-0.08839-1.3258-1.591-0.53033-1.591-0.53033l-3.867 0.35355-1.2374-3.0494-3.8228-2.2097-1.9224-3.2704-5.2591-2.4528z" fill="url(#bs)" fill-rule="evenodd"/>
 <path d="m20.474 78.763 4.9102 3.445 0.02832 2.641-4.9541-3.3831 0.01563-2.7029z" fill="url(#o)" fill-rule="evenodd"/>
 <path d="m100.36 51.853v2.0771l0.19887 0.19887 0.0221 2.5854-0.28726 0.44194 0.08839 2.7621 0.26516 0.24307-0.04419 2.497-0.28727 0.50823 0.08839 1.812-1.9004-1.2374-4.9718-0.92808-0.22097-3.0052 3.1599-2.2097 1.1711-4.1322 2.7179-1.6131z" fill="url(#bp)" fill-rule="evenodd"/>
 <path d="m75.3125,99.375 1.9375-.5 .25-.4375 2.375-.875 .375.1875 1.9375-.875 .25-.3125 1.6875-.625h.4375l1.75-.75 .0625-5.9375-1.3125-3.125 1.3125-.9375-.3125-.5625h-.5625l-.5-.5 .1875-.375 .5625.0625 .25-.75 .25-.6875 .125-9.25-11.375,4.625 .3125,21.625z" fill="url(#bo)" fill-rule="evenodd"/>
 <path d="m86.234 82.156-1.5938 0.60938-0.01563 2.875 1.5781-0.5625 0.03125-2.9219z" fill="url(#bh)" fill-rule="evenodd"/>
 <path d="m75.25 81.75 10.438-3.5625 0.0625 2.9375-10.688 4.375 0.1875-3.75z" fill="url(#bn)" fill-rule="evenodd"/>
 <path d="m75.25,91.75 10.25-3.625 .125,3-10.3125,4.0625-.0625-3.4375z" fill="url(#bm)" fill-rule="evenodd"/>
 <path d="m86.125,73.375 .125,21.875 1.625,1.375 .1875-24.125-1.9375.875z" fill="url(#bl)" fill-rule="evenodd"/>
 <path d="m86.125,73.375 .125,21.875 1.625,1.375 .1875-24.125-1.9375.875z" fill-opacity=".15686" fill-rule="evenodd"/>
 <path d="m86.5625,85.57813-.85938-1.75 .26563-.90625 .90625-.6875c0,0 1.29688.4375 1.29688.5s1.07813,1.78125 1.07813,1.78125l-.20313.40625h-.375l-.8125-1.73438-.85938-.17188-.4375.28125-.28125.54688 .8125,1.54688-.1875.3125-.34375-.125z" fill="url(#bk)" fill-rule="evenodd"/>
 <path d="m85.17188,83.70313c0,0 .5.10938.65625.17188s.96875-.0625.96875-.0625l.1875.25-.07813.35938-.60938.17188-.76563.0625c0,0-.42188-.26563-.45313-.35938s.01563-.5625.09375-.59375z" fill="url(#bj)" fill-rule="evenodd"/>
 <path d="m87.45313,83.48438 .45313-.25 .59375-.46875 .26563-.42188 .34375.26563-.07813.375-.35938.67188-.42188.32813-.59375-.04688-.20313-.45313z" fill="url(#bi)" fill-rule="evenodd"/>
 <path d="m85.23438,86 1.125-.71875 .20313.42188 .48438-.0625 .15625-.23438-.17188-.29688 1.32813-.64063 .23438.35938 .3125.125c0,0 .42188-.25.39063-.3125s-.17188-.45313-.17188-.45313l.98438-.07813 .64063.39063-.17188.29688-4.6298,1.68317-.71395-.48005z" fill="url(#bf)" fill-rule="evenodd"/>
 <path d="m85.133 86.219 1.0034 0.27631 4.6246-1.6724-0.15997 3.9847-2.5159 1.0325-0.58171 0.08726s-0.88711-0.36357-0.88711-0.42174-1.5124-3.2721-1.4834-3.2867z" fill="url(#be)" fill-rule="evenodd"/>
 <path d="m30.098 54.071 0.07305 13.04 1.8628-0.98621 0.07305-10.994-2.009-1.0593z" fill="url(#bd)" fill-rule="evenodd"/>
 <path d="m30.35346,66.89128 1.75327-.84011 .76705.47484v.98621l.36526.73053 .47484.18263 .62095-.03653 .47484-.36526 2.41074,1.46106-.07305.84011 .58442.73053 .51137.07305 .76706-.36526 2.04548,1.42453-.10958,1.68022-.21916.07305-10.33698-6.3556-.03653-.694z" fill="url(#bc)" fill-rule="evenodd"/>
 <path d="m32.91 56.043v11.579l0.36526 0.58442 0.58442 0.29221 0.76705-0.29221 0.21916-0.51137-0.03653-10.447-1.8994-1.2054z" fill="url(#bb)" fill-rule="evenodd"/>
 <path d="m37.07433,58.74589v11.57888l.36526.58442 .58442.29221 .76705-.29221 .21916-.51137-.03653-10.44656-1.89937-1.20537z" fill="url(#ba)" fill-rule="evenodd"/>
 <path d="m57.688 104.06 4.9219-1.5938 0.03125 2.6094-4.9688 1.7031 0.01563-2.7188z" fill="url(#ay)" fill-rule="evenodd"/>
 <path d="m63.057 102.16 4.9219-1.5938 0.03125 2.6094-4.9688 1.7031 0.01563-2.7188z" fill="url(#ax)" fill-rule="evenodd"/>
 <path d="m68.401 100.26 2.3012-0.74514 2.652-0.16111v1.9219l-4.9688 1.7031 0.01563-2.7188z" fill="url(#aw)" fill-rule="evenodd"/>
 <path d="m73.58834,99.4434 1.42188.375-.03125.98437-1.4375.51563 .04688-1.875z" fill="url(#av)" fill-rule="evenodd"/>
 <path d="m57.438 101.34 2.1406-0.71875 0.03125 2.6094-2.25 0.76563 0.07813-2.6562z" fill="url(#au)" fill-rule="evenodd"/>
 <path d="m57.375,95.375 2.01563-.65625 .03125,2.57812-2.125.73438 .07813-2.65625z" fill="url(#at)" fill-rule="evenodd"/>
 <path d="m57.40625,89.375 .87121-.29252 1.17566.60502v1.67187l-2.125.67188 .07813-2.65625z" fill="url(#as)" fill-rule="evenodd"/>
 <path d="m60.125 100.28 4.9219-1.5938 0.03125 2.6094-4.9688 1.7031 0.01563-2.7188z" fill="url(#ar)" fill-rule="evenodd"/>
 <path d="m57.688 98.125 4.9219-1.5938 0.03125 2.6094-4.9688 1.7031 0.01563-2.7188z" fill="url(#aq)" fill-rule="evenodd"/>
 <path d="m65.438 98.406 3.2031-1.0312 0.9375 2.3281-4.1562 1.4219 0.01563-2.7188z" fill="url(#ap)" fill-rule="evenodd"/>
 <path d="m63.125 96.219 2.8303-0.91648 2.0916 1.1977 0.03125 0.73437-4.9688 1.7031 0.01563-2.7188z" fill="url(#ao)" fill-rule="evenodd"/>
 <path d="m59.875,94.375 3.96762-1.28475 .51676,1.22225 .51123.30083-.04248.77729-4.96875,1.70313 .01563-2.71875z" fill="url(#an)" fill-rule="evenodd"/>
 <path d="m57.719 92.25 4.2305-1.3699 0.69135 0.30738 0.03125 2.0781-4.9688 1.7031 0.01563-2.7188z" fill="url(#am)" fill-rule="evenodd"/>
 <path d="m59.812 89.906 1.5781 0.73437-1.5312 0.54688-0.04688-1.2812z" fill="url(#al)" fill-rule="evenodd"/>
 <path d="m63.094 91.844 0.60938 1.0156-0.65625 0.17188 0.04688-1.1875z" fill="url(#ak)" fill-rule="evenodd"/>
 <path d="m98.04 60.894 2.5318-0.75601-0.00601 2.6094-2.6039 0.80289 0.07813-2.6562z" fill="url(#aj)" fill-rule="evenodd"/>
 <path d="m95.009 58.937 4.9219-1.5938 0.03125 2.6094-4.9688 1.7031 0.01563-2.7188z" fill="url(#ai)" fill-rule="evenodd"/>
 <path d="m97.622 53.511 2.3081-1.5369 0.03125 2.0128-2.7811 1.0213 0.44178-1.4971z" fill="url(#ah)" fill-rule="evenodd"/>
 <path d="m97.0542,55.38594 .77394-.34369 .03125,2.60937-2.58226.85081 1.28759-.8931 .48949-2.2234z" fill="url(#ag)" fill-rule="evenodd"/>
 <path d="m94.01427,59.30659 .57506-.03117 .03125,2.60937-1.16174.25419-.10988-2.29189 .66531-.54051z" fill="url(#af)" fill-rule="evenodd"/>
 <path d="m93.418 62.517 4.0696-1.3096 0.00284 2.3537-3.8323-0.74018-0.24007-0.30385z" fill="url(#ae)" fill-rule="evenodd"/>
 <path d="m98.475 63.767 1.4842-0.51415 0.03125 1.5866-1.5154-1.0724z" fill="url(#ad)" fill-rule="evenodd"/>
 <path d="m98.324 54.842 2.2477-0.69918 0.02241 2.581-2.3482 0.77448 0.07813-2.6562z" fill="url(#ac)" fill-rule="evenodd"/>
 <path d="m54.981 99.681 2.4114 1.6987-0.00743 2.4933-2.4627-1.6131 0.05879-2.5789z" fill="url(#aa)" fill-rule="evenodd"/>
 <path d="m55.173 93.91 2.1926 1.5072-0.06213 2.548-2.0798-1.367-0.05061-2.6883z" fill="url(#z)" fill-rule="evenodd"/>
 <path d="m56.458 88.987 0.90713 0.49527-0.00743 2.6848-1.9978-1.449 0.0327-0.94443 1.0654-0.78661z" fill="url(#y)" fill-rule="evenodd"/>
 <path d="m47.099 97.176 4.9992 3.445 0.05059 2.641-5.0654-3.3831 0.01563-2.7029z" fill="url(#x)" fill-rule="evenodd"/>
 <path d="m43.543 94.796 3.2488 2.187 0.05059 2.641-4.874-3.3011 0.978-1.2186 0.59657-0.30832z" fill="url(#w)" fill-rule="evenodd"/>
 <path d="m45.321 93.894 1.2475 0.01324 2.8765 1.9823 0.05059 2.641-4.9287-3.4105-0.03555-0.78534 0.78963-0.4407z" fill="url(#v)" fill-rule="evenodd"/>
 <path d="m49.806 96.109 4.8898 3.363 0.05059 2.641-4.9287-3.4378-0.01172-2.5662z" fill="url(#u)" fill-rule="evenodd"/>
 <path d="m52.076 94.687 4.9992 3.445 0.05059 2.641-5.0654-3.3831 0.01563-2.7029z" fill="url(#t)" fill-rule="evenodd"/>
 <path d="m50.299 93.948 0.29462-0.23926 1.2585 0.86727 0.05059 2.641-5.0654-3.3831 3.4617 0.1141z" fill="url(#s)" fill-rule="evenodd"/>
 <path d="m52.268 91.87 2.6471 1.8588 0.05059 2.641-4.1356-2.8908 1.4378-1.6089z" fill="url(#r)" fill-rule="evenodd"/>
 <path d="m54.346 90.475 2.5651 1.6946 0.05059 2.641-4.4638-3.0276 1.8481-1.3081z" fill="url(#q)" fill-rule="evenodd"/>
 <path d="m55.02434,89.98168 .05059.58975-.52536-.31991 .47477-.26984z" fill="url(#p)" fill-rule="evenodd"/>
 <path d="m20.01 75.549 2.9235 2.0104 0.0371 2.6715-3.0194-2.1029 0.05879-2.5789z" fill="url(#n)" fill-rule="evenodd"/>
 <path d="m20.01 69.598 3.2698 2.2938-0.02587 2.514-3.3027-2.2289 0.05879-2.5789z" fill="url(#m)" fill-rule="evenodd"/>
 <path d="m25.795 82.321 0.62796 0.51677 0.65806 3.0503-1.3016-0.86416 0.01563-2.7029z" fill="url(#l)" fill-rule="evenodd"/>
 <path d="m23.308 77.755 3.3358 2.406-0.27749 1.9995 0.05392 0.45255-3.1279-2.1551 0.01563-2.7029z" fill="url(#k)" fill-rule="evenodd"/>
 <path d="m20.379 72.812 3.9822 2.794-0.01661 0.80853 0.96059 1.3326 0.01234 1.151-4.9541-3.3831 0.01563-2.7029z" fill="url(#j)" fill-rule="evenodd"/>
 <path d="m25.795 78.259 0.97431 1.241 0.02832 0.31097-1.0498-0.64375 0.04711-0.90819z" fill="url(#i)" fill-rule="evenodd"/>
 <path d="m20.474 67.302 3.0524 2.9728 0.24873 1.6019-3.3483-2.3126 0.04711-2.2621z" fill="url(#h)" fill-rule="evenodd"/>
 <path d="m23.622 71.993 0.62796 3.0357-0.64358-0.33278 0.01563-2.7029z" fill="url(#g)" fill-rule="evenodd"/>
 <path d="m19.406 39.75 0.1875 27.125 0.6875 0.09375 3.3125 3.4375 0.6875 5.6875 2.375 3.4062-0.40625 2.5625 0.96875 4.5 14.5 10.375 1.0938-1.6562 1.375-0.78125 1.1672-0.57346 5.1765 0.07346 1.6875-2.0625 5.0938-3.5v-23.625l-37.906-25.062zm10.656 14 11.094 8.0312v12.625l-11-6.9375-0.09375-13.719z" fill-opacity=".15686" fill-rule="evenodd"/>
 <path d="m30.098 54.071 0.07305 13.04 1.8628-0.98621 0.07305-10.994-2.009-1.0593z" fill-opacity=".15686" fill-rule="evenodd"/>
 <path d="m30.35346,66.89128 1.75327-.84011 .76705.47484v.98621l.36526.73053 .47484.18263 .62095-.03653 .47484-.36526 2.41074,1.46106-.07305.84011 .58442.73053 .51137.07305 .76706-.36526 2.04548,1.42453-.10958,1.68022-.21916.07305-10.33698-6.3556-.03653-.694z" fill-opacity=".15686" fill-rule="evenodd"/>
 <path d="m20.263 67.078-0.06629 2.4307-0.17678 0.04419-0.06629 2.6958 0.28726 0.30936v3.0494h-0.26516v2.7179l0.26516 0.15468v3.1599l6.9385 4.8393-0.86179-4.3752 0.50823-2.5412-2.5191-3.2704-0.68501-6.0988-3.3588-3.1157z" fill-opacity=".15686" fill-rule="evenodd"/>
 <path d="m57.408 88.689v3.5576l-0.04419 3.182 0.04419 6.5186 0.04419 5.3033-15.799-10.585 1.3037-1.5247 2.3423-1.2595 5.0602 0.06629 2.2981-2.3865 4.3531-2.8063 0.39775-0.06629z" fill-opacity=".15686" fill-rule="evenodd"/>
 <path d="m62.09375,24.34375-15.65625,5.5-.21875.84375-3.03125,1.21875-.8125-.65625-23.28125,8.15625 .125,27.375 .91762.57544-.01111,2.00165-.20143.06266-.01833,2.82831 .29302.43966-.02566,2.72009-.28884.15482-.01775,2.73964 .3075.33173-.00633,2.51804-.32035.11169-.00334.51628 37.1875,26.1875 18.71875-6.6875-.125-1.71875 1.875-.71875 .25915-.32044 1.88117-.68685 .44376.0418 2.35342-.97201 .28127-.34371 1.2786-.50691 .40811.09863 1.87576-.71676 1.5,1.5625 13.1875-4.9375 .0625-26.78125-.5-.65625v-1.59375l.15625-.3125v-2.84375l-.1875-.25-.04958-2.49715 .23708-.4091v-2.78125l-.19431-.22432 .00681-1.65068 .5625-.53125v-1.8125l-4.96875-3.375-.6875.1875-1.5-1.28125-.125-.46875-29.5-20.0625-1.125.375-1.0625-.75zm-.09375.53125h.03125l1,.59375 1.25-.09375 28.96875,19.625-.125.875 1.40625.09375 .03125,1.46875 1.3125-.65625 4.28125,2.90625-42.9375,14.8125-36.8125-24.84375 21.96875-7.78125 1.53125,2.3125 .125-2.21875 1.375.1875 .15625-.90625 1.90625.34375-.65625-1.3125 14.28125-5.0625 1.90625,2.0625-.71875,1.65625-1.28125.96875-2.90625-.0625 .0625.09375 2.5.40625-.25,1.3125 .1875.0625 .375-1.3125 .34375.0625 1-.875 1.5625,1.59375-1.0625,1.6875 .09375.03125 1-1.28125 1.3125.21875-.3125,3.0625h.125l.4375-2.9375 1.625-.1875 .0625-.03125-1.625-.125v-.03125l-1.25-.46875-1.6875-1.71875 .78125-1.84375 1.25.6875 .125-.03125-1.21875-1.03125 .03125-.0625-1.5625-2.25zm-42.15625,15.3125 37.125,25.15625-.0625,23.28125-4.78125,3.0625-1.8125,2.1875-4.9375-.0625-2.4375,1.125-1.15625,1.4375-14.5-10.03125-.84375-4.125 .53125-2.6875-2.5-3.25-.71875-6.15625-3.71875-3.46875-.1875-26.46875zm80.5625,9.96875v1.3125l-3,1.96875-.96875,4.03125-3.15625,2.3125 .03125,2.8125-.03125-.03125-1.3125,1.5625-2.28125-.0625 .0625.1875 2.15625.21875 .78125,1.09375v-.15625l-.4375-1.03125 1.4375-1.46875 4.59375.90625 2.0625,1.4375-.125,26.5625-11.90625,4.125v-6.03125l2.46875-1.0625 .21875-4.34375c-.24819-.44815-.62081-.55946-1.125-.5625v-2.875l-1.5625.46875v-8.5625h.03125l.21875-1.03125h1.65625l-.03125.03125 1.71875,1.34375-1.3125-1.65625 .59375-.65625-.125.03125-.8125.53125-1.53125-.25v-.03125l-1.53125-1.28125-.0625.125 1.21875,1.25-.875,1.09375-12.71875,5.09375v22.0625l-1.34375-.375-3.84375.1875-1.15625-2.90625-3.78125-2.15625-1.8125-3.25-5.15625-2.5-.0625-22.75 1.21875,1.0625-.1875,1.375 .625-1.25 1.71875.4375 2.71875-1.5 .4375-.0625 2.90625.59375 1.625,2.125 .21875-.03125-1.78125-2.21875h-.03125l-.03125-.03125-1.90625-.625 2.28125-.40625 1.5-1.8125-.09375-.0625-1.59375,1.5-3.65625.59375-2.5,1.5-1.875-.5-1-1.40625 42.21875-15zm-.1875,1.84375v2.125l-1.96875.625v2.8125l1.96875-.65625 .03125,3.1875-2.34375.78125v2.5625l-.34375-.0625v-2.28125l-3.90625,1.28125-.03125-.15625 1.03125-.34375v-2.75l-.21875.0625 .8125-.5625 2.65625-.90625v-2.75l-.53125.1875 .0625-.21875 2.625-.90625v-1.9375l.15625-.09375zm-.3125.21875 .03125,1.71875-2.46875.84375 .34375-1.125 2.09375-1.4375zm-70.15625,1.03125 .125,14.28125 10.6875,6.625 .75,1.75-1.1875,1.46875 .875,1.21875 .15625.125-.59375-1.3125 1-1.28125 1.46875.40625 .6875,3.96875 1.6875.625-.03125-.21875-1.46875-.375-.4375-3.6875 2,.78125 .65625,1.375 .125-.03125-.3125-1.40625 .9375-.6875-.09375.03125-1.28125.34375-2.25-1.1875v.0625l-1.34375-.125-.46875-1.625-.0625-12.40625 1.96875-1.40625 .75.46875 1.1875,2.46875 .1875.125-.8125-2.40625 1.125-.375v-.09375l-1.25.15625-.03125-.125-1.15625-.59375-2.4375.78125-11.15625-7.71875zm70.6875,1 .03125,2.4375-2.0625.71875v-2.53125l2.03125-.625zm-69.9375.25 1.375.96875v10.46875l-1.3125.625-.0625-12.0625zm67.25.65625 .03125,2.46875-2.15625.75 1-.6875 .6875-2.375 .4375-.15625zm-65.4375.625 .4375.3125v10.03125l-.4375-.28125v-10.0625zm.75.5625 1.59375,1.125 .03125,10.25c-.66773,1.22795-1.65212.34005-1.625-.34375v-11.03125zm67,.90625-5.09375,1.65625 .03125,2.8125 5.0625-1.71875v-2.75zm-.1875.1875 .03125,2.46875-4.78125,1.625v-2.5l4.75-1.59375zm-64.90625.25 2.03125,1.46875v9.84375l-2.03125-1.34375v-9.96875zm59.5,1.625 .03125,2.46875-.875.28125-.21875-2.15625 .6875-.46875 .375-.125zm-57.15625.0625 1.59375,1.125 .03125,9.875c-.66773,1.22796-1.65212.34005-1.625-.34375v-10.65625zm63.21875.78125-.03125,2.5-2.34375.8125h-.09375l-.03125-2.5 2.5-.8125zm-61.3125.5625 1.46875,1.0625v9.71875l-1.46875-1.03125v-9.75zm58.1875.53125 .03125,2.09375-3.75-.65625-.03125-.1875 3.75-1.25zm2.84375,1.625v1.96875l-.1875-.15625v-1.5625l-1.40625.46875-.0625-.03125-.03125-.03125h-.0625-.09375l1.84375-.65625zm-.34375.4375 .03125,1.28125-1.1875-.90625 1.15625-.375zm-67.78125,3.03125 .625.4375v.65625c-.08786.36292 1.06114,1.94154 2.03125.75l2.21875,1.5v.40625c-.08428.34812.96425,1.80808 1.90625.875l1.78125,1.25v1.4375l-10.0625-6.6875 1.5-.625zm-11.84375.9375 .125.125v2.21875l3.15625,2.15625 .03125.125-.03125-.03125v2.84375l.46875.3125 .03125.28125-3.6875-2.59375v2.8125l5.0625,3.5v-.96875l.21875.3125v.75l.9375.625-.03125.1875-3.34375-2.34375v2.8125l3.09375,2.15625 .03125.15625-.65625-.46875v2.8125l1.21875.84375 .03125.1875-6.59375-4.625v-3.03125l2.6875,1.875v-2.75l-2.71875-1.90625v-3.1875l3.0625,2.125v-2.75l-3.09375-2.15625v-2.40625zm.28125.28125 2.8125,2.84375 .1875,1.25-3-2.0625v-2.03125zm-.52432,2.14867 3.18057,2.16383 .03125,2.46875-3.22476-2.13258 .01294-2.5zm3.68057,3.13258 .28125,2.03125-.28125-.1875v-1.84375zm-3.1875.125 3.5625,2.5 .125.9375 1.09375,1.5v.875l-4.78125-3.28125v-2.53125zm67,.09375v9.03125c-.34042-.25316-.74582-.08274-.96875.0625l.03125-8.71875 .9375-.375zm-1.4375.59375-.03125,8.5-1.5.59375v2.96875l1.46875-.46875v.125c-.41029.20232-.8645.42228-1.28125.65625l1.28125,2.53125-.03125,6.56093-1.57544.59375 .01294-3.81093 1.46875-.5625v-2.96875l-.3125-.34375-1.1875.40625-.03125-6.40625 1.53125-.59375v-2.96875l-.3125-.34375-1.25.4375-.03125-4.1875 1.78125-.71875zm-2.15625.875v4.15625l-1.625.5625-.03125-4.03125 1.65625-.6875zm-2.03125.84375v4.03125l-2,.6875-.03125-3.875 2.03125-.84375zm-61.85891.25157 2.79641,1.93593 .03125,2.5-2.84061-1.91383 .01294-2.5221zm59.45266.74843 .03125,3.84375-2.1875.75-.03125-3.6875 2.1875-.90625zm-2.5625,1.0625 .03125,3.65625-1.34375.46875v-3.59375l1.3125-.53125zm-53.5625.40625 3.15625,2.25-.28125,2 .0625.34375-2.9375-2.03125v-2.5625zm62.09375.5625v.21875l-9.84375,3.4375v-.1875l9.84375-3.46875zm-59.65625.1875 .78125,1.0625-.78125-.53125v-.53125zm-5.40625.0625v2.8125l5.0625,3.46875v-2.75l-5.0625-3.53125zm.15625.25 4.75,3.3125 .03125,2.5-4.78125-3.28125v-2.53125zm64.8125.15625 .0625,1.90625-9.8125,3.8125v-2.03125l9.75-3.6875zm4.375,2.1875-.01294,2.6875-.70581.09375-.21875-.4375c.14806-.23562.26171-.52355.4375-.84375-.06356-.29201-.20139-.56487-.6875-.375-.0636.156-.14503.2744-.21875.375l-.03125-.0625v-.9375l1.4375-.5zm-5.78125.9375v6.40625l-1.59375.53125-.03125-6.3125 1.625-.625zm2.09375.125v.1875c-.35031.31521-.59331.74187-.5625,1.1875-.13144-.03721-.23859-.06415-.40625-.09375-.31169.37866-.1127.62134.09375,1 .32657.17211.57608.18712.8125.15625l.03125.0625v.25l-1.34375.46875v-2.65625l1.375-.5625zm.84375.15625c.43987-.04979.90301.21025 1.15625.4375l.0625.0625c-.04989.04116-.10181.08977-.15625.125l-.0625-.09375c-.22232-.11561-.44242-.17631-.625-.1875-.53675-.03289-.87722.35751-1.125,1.03125-.085-.00294-.16858-.01446-.25-.03125 .18092-.9442.57173-1.29527 1-1.34375zm-61.09375.03125 .5625.40625 .5,2.8125-1.03125-.6875-.03125-2.53125zm62.875.0625c.13976.0276.28977.00559.3125.3125-.161.45856-.37203.85814-.90625,1.03125-.18471-.10708-.58411.03758-.4375-.40625 .48259-.2236.79982-.54939 1.03125-.9375zm-6.75.40625v6.3125l-1.9375.6875-.0625-6.21875 2-.78125zm5.03125.1875c.19393-.00975.41313.11011.625.1875-.10455.06038-.19301.10241-.3125.1875 .02567.24388.11294.35702.25.4375l-.03125.71875-.5625.28125-.21875-.4375c.09748-.03529.16911-.06209.28125-.09375 .16358-.25011.25752-.5054-.21875-.71875-.13282.05462-.2354.07339-.34375.09375 .12024-.48967.3261-.64594.53125-.65625zm1.6875.625 .5.71875c-.17525.40838-.26524.29706-.375.3125l-.40625-.8125c.11136-.06384.20719-.13972.28125-.21875zm-3.3125.03125c.49784.18718.96729.20097 1.40625.09375 .07835.11899.23408.2373.03125.46875-.43979.20684-.90818.3219-1.40625.0625-.05322-.20676-.45045-.41824-.03125-.625zm-5.8125.09375 .03125,6.1875-2.125.75-.0625-6.09375 2.15625-.84375zm10.25.34375c.53032-.05505.74587.1129.71875.40625l-4.71875,1.625-.375-.25 .9375-.5625 .15625.3125c.36524.04461.6564-.0398.8125-.34375l-.15625-.21875c.30543-.3257.78269-.38476 1.21875-.5625l.21875.375c.37945.13184.61043-.08255.78125-.4375l-.15625-.25 .5625-.09375zm-3.21875.34375 .4375.75c-.08844.17411-.15563.3243-.3125.15625l-.40625-.8125 .28125-.09375zm-9.59375.3125 .03125,6.09375-1.375.46875v-6.0625l1.34375-.5zm13.59375.1875-.15625,3.46875-2.3125.90625-1.65625-2.96875 4.125-1.40625zm-5.25,1.28125 .59375.1875 1.875,3.1875c-.31867.16515-.81818-.06711-1-.3125l-1.46875-3.0625zm3.46875.03125c-.19417-.0053-.39958.13553-.59375.625 .12453.28543.27542.59587.75.53125l.125.90625 .71875-.28125-.65625-.84375c.57791-.0713.3662-.38483.25-.6875-.19417-.07917-.39958-.2447-.59375-.25zm-3.3125,1.90625v.21875l-9.84375,3.4375v-.1875l9.84375-3.46875zm-28.46875.625 .21875.125v.28125l-.40625-.28125 .1875-.125zm28.375.03125 .0625,1.90625-9.8125,3.8125v-2.03125l9.75-3.6875zm-27.9375.03125 .4375.1875-.4375.125v-.3125zm-.75.125 .61964.38794v2.5221l-1.86964-1.28504v-.78125l1.25-.84375zm1.375.15625 1.3125.625 .03125,1.40625-1.96875.6875v-2.5221l.625-.19665zm28.5.3125c.29446.21023.57082.46062.9375.53125v6l-.96875-1.09375 .03125-5.4375zm-27.03125.375 .25.125v1.125l1.40625-.46875 .3125.15625-3.875,1.28125v2.8125l5.0625-1.71875v-1.71875l.34375.625v.9375l.4375-.15625 .125.1875-3.75,1.21875v2.8125l5.0625-1.71875v-.65625l.25.15625v.3125l.34375-.125 .25.15625-2.71875.90625v2.8125l5.0625-1.71875v-.53125l.28125.625-3.03125,1v2.8125l4.0625-1.375 .03125.03125h.125l-1.21875.375v2.8125l5.0625-1.71875v-1.8125h.09375v1.78125l1.25-.4375v.0625l-17.25,6.09375v-3l2.1875-.75v-2.75l-2.21875.71875v-3.21875l2.03125-.6875v-2.75l-2.03125.6875-.03125-3.15625 2.09375-.71875v-1.4375zm-4.25.125v.6875l1.9375,1.34375v3.125l-2.09375-1.46875v2.8125l2.125,1.46875v3.125l-2.34375-1.65625 .03125,2.8125 2.3125,1.59375v.28125l-4.96875-3.5v2.8125l4.96875,3.4375v.0625l-15.125-10.40625 .0625-.09375 4.71875,3.28125v-2.75l-3.125-2.1875 .6875-.375v.65625l5.0625,3.46875v-2.75l-2.6875-1.875h.25l4.84375,3.3125v-2.75l-1.1875-.84375 .09375-.09375 4.15625,2.875v-2.75l-2.53125-1.78125 .03125-.03125 .0625-.03125 4.5,3.125v-2.75l-2.46875-1.75 .1875-.125 .34375.25v-.46875l.15625-.09375zm4.65625.0625 1.09375.53125-1.09375.34375v-.875zm-4.9375.125v.15625l-.125-.09375 .125-.0625zm-.5.3125 2.40625,1.71875 .03125,2.5-4.3125-2.96875 1.875-1.25zm7.21875.40625 .8125.375 .03125,1.8125-4.78125,1.625v-2.53125l3.9375-1.28125zm-9.3125,1.03125 2.4375,1.71875 .03125,2.5-3.96875-2.71875 1.5-1.5zm31.59375.0625v3.625l-1.5625.59375-.03125-3.625 1.59375-.59375zm-20.8125.375 .21875.40625-.21875.0625v-.46875zm18.78125.40625 .0221,3.89016-1.95044.71875-.00915-3.85891 1.9375-.75zm-18.3125.40625 .65625,1.15625 .46875.28125v.65625l-4.78125,1.625v-2.53125l3.65625-1.1875zm-13,.53125 1.125.78125 .03125,2.5-4.53125-3.09375h3.1875l.1875-.1875zm28.90625,0 .03125,3.59375-2.09375.78125-.03125-3.59375 2.09375-.78125zm-34.1875.1875h1.25l2.75,1.90625 .03125,2.5-4.78125-3.28125v-.71875l.75-.40625zm9.90625.03125 2.04798,1.41004-.06629,2.49621-1.98169-1.34375v-2.5625zm-3.21875.59375 .03125,2.8125 5.0625,3.5v-2.75l-5.09375-3.5625zm7.28125.15625 .03125,2.46875-1.99464.67835 .0221-2.4779 1.94129-.66919zm17.65625,0 .11964,3.79262-1.47254.50915-.0221-3.77053 1.375-.53125zm-24.78125.09375 4.78125,3.3125 .03125,2.5-4.78125-3.28125-.03125-2.53125zm-8.5625.0625 3.0625,2.15625 .03125,2.46875-4.53125-3.09375 .9375-1.25 .5-.28125zm22.25.5 2.0625,1.28125v.5l-4.78125,1.65625v-2.53125l2.71875-.90625zm-16.1875.5v2.8125l5.0625,3.5v-2.75l-5.0625-3.5625zm.15625.25 4.75,3.3125 .03125,2.5-4.78125-3.28125v-2.53125zm12.8125.25-5.0625,1.65625v2.8125l5.0625-1.71875v-2.75zm-.15625.1875 .03125,2.46875-4.78125,1.65625v-2.53125l4.75-1.59375zm-15.4375.46875v2.84375l5.0625,3.46875v-2.75l-5.0625-3.5625zm.15625.25 4.75,3.34375 .03125,2.5-4.78125-3.28125v-2.5625zm21.15625.15625 .9375,2.1875-3.84375,1.34375-.03125-2.53125 2.9375-1zm-3.3125,1.15625-5.0625,1.65625v2.8125l5.0625-1.71875v-2.75zm-.15625.15625 .03125,2.46875-4.78125,1.65625-.03125-2.53125 4.78125-1.59375zm8.3125.6875 .03125,1.75-4.78125,1.625v-2.53125l1.625-.53125 3.125-.3125zm.40625.09375 1.09375.3125v.84375l-1.09375.375v-1.53125zm-18.59375.1875 2.27589,1.59754v2.43371l-2.27589-1.5v-2.53125zm13.03125.71875-5.0625,1.65625v2.8125l5.0625-1.71875v-2.75zm-8.5625.1875 .03125,2.46875-2.0625.74085-.03125-2.5221 2.0625-.6875zm8.40625,0 .03125,2.46875-4.78125,1.625v-2.53125l4.75-1.5625zm-15.5.28125 4.83839,3.35669 .05335,2.5-4.89173-3.32544v-2.53125zm10.25,1.40625-5.0625,1.65625v2.8125l5.0625-1.71875v-2.75zm-.15625.1875 .03125,2.46875-4.78125,1.625v-2.53125l4.75-1.5625z" fill-rule="evenodd"/>
</svg>
