<?xml version="1.0" encoding="UTF-8"?>
<svg viewBox="0 0 128 128" xmlns="http://www.w3.org/2000/svg" xmlns:xlink="http://www.w3.org/1999/xlink">
 <defs>
  <linearGradient id="s" x1=".41845" x2=".56524" y1=".50697" y2=".5" xlink:href="#b"/>
  <linearGradient id="aw" x1=".4306" x2=".4549" y1=".4381" y2=".57671" xlink:href="#b"/>
  <linearGradient id="r" x1=".35935" x2=".38669" y1=".43558" y2=".57128" xlink:href="#b"/>
  <linearGradient id="p" x1=".37187" x2=".39869" y1=".44516" y2=".5839" xlink:href="#b"/>
  <linearGradient id="q" x1=".37163" x2=".39845" y1=".44526" y2=".584" xlink:href="#b"/>
  <linearGradient id="t" x1=".40766" x2=".54609" y1=".49447" y2=".49309" xlink:href="#b"/>
  <linearGradient id="y" x1=".37776" x2=".30552" y1=".37048" y2=".49999" xlink:href="#a"/>
  <linearGradient id="u" x1=".51101" x2=".51101" y1=".4064" y2=".54377" xlink:href="#a"/>
  <linearGradient id="x" x1=".45796" x2=".49995" y1=".50005" y2=".53183" xlink:href="#a"/>
  <linearGradient id="v" x1=".45262" x2=".50826" y1=".49995" y2=".52757" xlink:href="#a"/>
  <linearGradient id="w" x1=".50001" x2=".44796" y1=".46076" y2=".5208" xlink:href="#a"/>
  <linearGradient id="o" x1=".38335" x2=".40967" y1=".44543" y2=".58404" xlink:href="#b"/>
  <linearGradient id="g" x1=".47266" x2=".49517" y1=".42277" y2=".55652" xlink:href="#b"/>
  <linearGradient id="n" x1=".38576" x2=".41198" y1=".46387" y2=".59957" xlink:href="#b"/>
  <linearGradient id="f" x1=".48102" x2=".50317" y1=".41341" y2=".54445" xlink:href="#b"/>
  <linearGradient id="d" x1=".48739" x2=".50926" y1=".40533" y2=".53366" xlink:href="#b"/>
  <linearGradient id="e" x1=".48761" x2=".50948" y1=".40027" y2=".52696" xlink:href="#b"/>
  <linearGradient id="h" x1=".45152" x2=".47494" y1=".42544" y2=".56016" xlink:href="#b"/>
  <linearGradient id="m" x1=".38558" x2=".4118" y1=".46412" y2=".59982" xlink:href="#b"/>
  <linearGradient id="i" x1=".44959" x2=".47309" y1=".43169" y2=".56839" xlink:href="#b"/>
  <linearGradient id="l" x1=".39697" x2=".42271" y1=".46404" y2=".59974" xlink:href="#b"/>
  <linearGradient id="c" x1=".43066" x2=".45495" y1=".4378" y2=".57654" xlink:href="#b"/>
  <linearGradient id="j" x1=".4343" x2=".45844" y1=".44947" y2=".58718" xlink:href="#b"/>
  <linearGradient id="k" x1=".42235" x2=".447" y1=".4379" y2=".57664" xlink:href="#b"/>
  <linearGradient id="z" x1=".4844" x2=".47033" y1=".44543" y2=".54239" xlink:href="#a"/>
  <linearGradient id="ar" x1=".4372" x2=".70761" y1=".50754" y2=".50717" xlink:href="#a"/>
  <linearGradient id="aa" x1=".5576" x2=".56466" y1=".29006" y2=".67741" xlink:href="#a"/>
  <linearGradient id="aq" x1=".46832" x2=".66119" y1=".52532" y2=".5235" xlink:href="#a"/>
  <linearGradient id="ao" x1=".000161" x2=".70042" y1=".50001" y2=".48888" xlink:href="#a"/>
  <linearGradient id="ap" x1=".66346" x2=".70192" y1=".22152" y2=".5" xlink:href="#a"/>
  <linearGradient id="as" x1=".44138" x2=".64722" y1=".5" y2=".5" xlink:href="#a"/>
  <linearGradient id="a">
   <stop stop-color="#6a3c1d" offset="0"/>
   <stop stop-color="#8f5127" offset="1"/>
  </linearGradient>
  <linearGradient id="at" x1=".44268" x2=".43004" y1=".57172" y2=".50001" xlink:href="#a"/>
  <linearGradient id="b">
   <stop stop-color="#bb8f56" offset="0"/>
   <stop stop-color="#d1af63" offset="1"/>
  </linearGradient>
  <linearGradient id="au" x1=".54645" x2=".52257" y1=".48631" y2=".52477" xlink:href="#a"/>
  <linearGradient id="av" x1=".38923" x2=".5807" y1=".90046" y2=".055867" xlink:href="#a"/>
  <linearGradient id="an" x1=".4186" x2=".37209" y1=".38235" y2=".42352" xlink:href="#a"/>
  <linearGradient id="ae" x1=".55753" x2=".56662" y1=".19304" y2=".73828" xlink:href="#a"/>
  <linearGradient id="am" x1=".30865" x2=".33871" y1=".57251" y2=".71766" xlink:href="#a"/>
  <linearGradient id="ad" x1=".53876" x2=".49993" y1=".48763" y2=".51236" xlink:href="#a"/>
  <linearGradient id="ab" x1=".43333" x2=".40513" y1=".39619" y2=".43511" xlink:href="#a"/>
  <linearGradient id="ac" x1=".45967" x2=".53058" y1=".46775" y2=".52151" xlink:href="#a"/>
  <linearGradient id="af" x1=".43965" x2=".43469" y1=".39964" y2=".5001" xlink:href="#a"/>
  <linearGradient id="al" x1=".69745" x2=".71677" y1=".27963" y2=".38535" xlink:href="#a"/>
  <linearGradient id="ag" x1=".40017" x2=".54208" y1=".44368" y2=".5565" xlink:href="#a"/>
  <linearGradient id="ak" x1=".34984" x2=".32014" y1=".33206" y2=".3795" xlink:href="#a"/>
  <linearGradient id="ai" x1=".79707" x2=".81398" y1=".18762" y2=".27244" xlink:href="#a"/>
  <linearGradient id="ah" x1=".41836" x2=".35712" y1=".37046" y2=".43371" xlink:href="#a"/>
  <linearGradient id="aj" x1=".58434" x2=".52885" y1=".49994" y2=".64819" xlink:href="#a"/>
 </defs>
 <g fill-rule="evenodd">
  <path d="m58.003 54.4l-3.3284 0.7277 0.7635-3.0629-2.9405-3.2865-1.6433 0.173-1.4703-2.5946-4.2378-2.2486 0.0865-0.6919-1.9892-3.2865-1.2973 0.4324-3.6324-2.9405-1.6432-3.2s28.969-13.69 29.834-13.171c0.86487 0.51892 2.3395 0.54426 2.3395 0.54426l-0.2595 1.6432 4.2378 2.7676 1.0378 0.2595 1.9027 2.2487 1.6432-0.173 2.5946 2.5946-0.2595 0.8649 3.9784 1.5568-0.6054 0.9514 4.5838 2.3351 3.6324 4.2378-33.327 13.319z" fill="url(#av)"/>
  <path d="m36.326 34.31l-1.1619 1.957 1.7123 2.2016 1.3454 0.5504 3.2412 2.8131 1.3454-0.1835 1.7123 1.7735-0.6115 0.8562 4.8313 2.6297 1.4677 2.752 1.7123 0.1835 2.2627 3.0578-0.2446 2.752 3.9139 0.9173 0.3669-0.3058-0.4281-1.6512-2.8131 0.4892-0.1835-0.3058 0.4892-2.752-2.8131-3.3024-1.59 0.1835-1.4066-2.6908-4.0974-2.1404 0.1223-0.5504-2.2016-3.547-1.5289 0.4281-3.3024-2.8743h-0.36693l-1.7735-3.2412z" fill="url(#au)"/>
  <path d="m36.326 34.31l-1.1619 1.957 1.7123 2.2016 1.3454 0.5504 3.2412 2.8131 1.3454-0.1835 1.7123 1.7735-0.6115 0.8562 4.8313 2.6297 1.4677 2.752 1.7123 0.1835 2.2627 3.0578-0.2446 2.752 3.9139 0.9173 0.3669-0.3058-0.4281-1.6512-2.8131 0.4892-0.1835-0.3058 0.4892-2.752-2.8131-3.3024-1.59 0.1835-1.4066-2.6908-4.0974-2.1404 0.1223-0.5504-2.2016-3.547-1.5289 0.4281-3.3024-2.8743h-0.36693l-1.7735-3.2412z" fill-opacity=".157"/>
  <path d="m57.914 54.614l33.635-13.699s0.61155 1.7124 0.36693 1.6512c-0.24461-0.061153-33.88 13.699-33.88 13.699l-0.1835-1.2843 0.0612-0.3669z" fill="url(#at)"/>
  <path d="m38.65 39.325l-3.547 56.997 0.7339 0.795 1.59-0.6115 2.8743-55.957-1.6512-1.2231z" fill="url(#as)"/>
  <path d="m38.528 76.079l28.376-11.436-3.6082 3.6082-24.034 10.274-0.8562-0.8562 0.1223-1.59z" fill="url(#al)"/>
  <path d="m41.189 55.654l25.633 8.5737-0.0442 0.4861-0.7955 0.1768-25.368-8.3527-0.5303-0.8839h1.1048z" fill="url(#af)"/>
  <path d="m57.886 56.558l-2.0388 57.178 0.7496 0.7802 1.5775-0.6432 1.6317-58.083-1.92 0.7672z" fill="url(#ar)"/>
  <path d="m86.954 44.664l3.2486 59.414 1.0562 0.2262 1.2131-0.5881-3.7292-59.914-1.7888 0.8622z" fill="url(#aq)"/>
  <path d="m39.812 53.75l10.25-4.125 2 0.1875 0.4375 0.9375-8.0625 3.5625-4.9375 0.25 0.3125-0.8125z" fill="url(#ap)"/>
  <path d="m66.231 53.024l1.2843 31.862 0.9785 0.4281h1.4066l-1.8958-32.963-1.7735 0.6727z" fill="url(#ao)"/>
  <path d="m38.344 77.73l18.285 18.408-0.2446 2.385-18.163-18.041 0.1223-2.752z" fill="url(#an)"/>
  <path d="m58.892 96.199l30.272-12.598 0.0612 2.385-30.516 12.781 0.1835-2.5685z" fill="url(#am)"/>
  <path d="m70.145 65.499l8.5006 7.1552 10.029 9.6014-3.8528-0.795-10.886-10.519-3.7577-3.3599-0.0339-2.0829z" fill="url(#ak)"/>
  <path d="m87.88 61.218c-4.285-4.0278-8.1758-8.45-12.906-12.032l-1.6902 0.9079 5.389 4.8945 5.8541 5.5168 3.3535 0.7131z" fill="url(#aj)"/>
  <path d="m79.152 63.079l9.7669 17.192v1.9446l-1.4584-1.2374-8.1759-15.291-0.1326-2.6075z" fill="url(#w)"/>
  <path d="m59.137 73.755l28.865-11.558 0.0612 2.0181-28.865 11.681-0.0612-2.1404z" fill="url(#ai)"/>
  <path d="m38.582 75.63l15.954-19.887 1.9887 0.4861-16.661 19.578-1.4142 0.4861 0.1326-0.6629z" fill="url(#ac)"/>
  <path d="m39.629 55.348l17.674 17.796-0.1835 2.5074-17.796-17.49 0.3058-2.8131z" fill="url(#ah)"/>
  <path d="m39.686 52.561l5.7452-7.3804 0.9281 0.3978-5.7894 7.7782-1.0607 0.4419 0.1768-1.2374z" fill="url(#ag)"/>
  <path d="m41.498 41.645l15.91 29.964-0.0442 1.3258-0.7513-0.6629-8.1317-14.849-8.3527-15.556 0.1768-1.1049 1.1932 0.8839z" fill="url(#ad)"/>
  <path d="m39.731 54.638l14.452-0.8839-0.221 1.1048-0.0884 0.5303-13.965 0.3094-0.3094-0.3978 0.1326-0.6629z" fill="url(#ae)"/>
  <path d="m38.537 77l18.65-1.591-0.0442 1.1932-18.252 1.5468-0.4861-0.3978 0.1326-0.7513z" fill="url(#aa)"/>
  <path d="m40.394 59.322l15.998 35.002 0.0442 1.37-1.2374-0.9281-8.9272-19.711-7.0711-15.159 0.1768-1.6794 1.0165 1.1049z" fill="url(#ab)"/>
  <path d="m60.988 55.035l11.888 2.961 3.2326 0.4114 4.3688 1.1796 7.292 1.6794-0.0442 0.8397-0.8397 0.221-9.8553-2.0771-5.0381-1.4584-5.7894-1.3258-6.7175-1.6352 1.5026-0.7955z" fill="url(#z)"/>
  <path d="m69.783 58.217l1.9055 1.1362 2.3529 0.5857 3.4756 1.4159-1.3258 0.6187-6.5849-2.4749-0.0442-1.0607 0.221-0.221z" fill="url(#y)"/>
  <path d="m59.441 72.36l15.512-16.042 11.004-11.358s1.1049-0.61872 1.1049-0.44195c0 0.17678 0.088387 1.2816 0.088387 1.2816l-10.474 10.518-6.7175 7.3362-1.7236 1.5468-7.9991 8.1759-0.9723 0.3094 0.1768-1.3258z" fill="url(#x)"/>
  <path d="m58.69 94.854l13.656-14.54 1.591-1.9887 4.5078-4.9056 8.6621-8.883s0.97227-0.39774 0.97227-0.22097v0.97228l-9.104 9.7669-3.3146 3.8007-2.2539 2.2981-1.5026 2.1213-2.2539 2.0771-9.8995 10.607-1.0607 0.3094v-1.4142z" fill="url(#v)"/>
  <path d="m60.104 75.674l16.529 3.5355 12.242 3.182 0.2652 0.9723-0.3094 0.3536-11.093-2.3865-6.3198-1.6794-12.286-2.7842 0.0884-1.0165 0.8839-0.1768z" fill="url(#u)"/>
  <path d="m68.854 47.92l1.37 19.18 1.7678 25.898 1.2374 18.296-0.3977 0.4861h-1.1049l-0.221-0.5745-1.2816-20.771-1.9887-29.964-0.7513-11.844 0.4861-0.7513 0.8839 0.0442z" fill="url(#t)"/>
  <path d="m77.119 45.71l3.182 28.328 3.7123 33.764-0.3536 0.4861-0.4861 0.3978-0.8839-0.2652-1.591-15.424-1.9887-19.799-2.3865-23.865-0.4419-3.4029 0.4419-0.5745 0.4861-0.0442 0.3094 0.3978z" fill="url(#s)"/>
  <path d="m69.105 50.516l7.5833-2.966 0.2446 0.5504-0.0917 0.4587-7.7361 3.2718v-1.3148z" fill="url(#r)"/>
  <path d="m69.289 53.635l7.7361-2.8743 0.2446 0.5504-0.2752 0.795-7.675 2.8437-0.0306-1.3148z" fill="url(#q)"/>
  <path d="m69.38 57.029l7.7361-2.8743 0.2446 0.5504-0.2752 0.795-7.675 2.8437-0.0306-1.3148z" fill="url(#p)"/>
  <path d="m69.686 60.454l7.889-2.8743 0.2446 0.5504-0.2752 0.795-7.675 2.8437-0.1835-1.3148z" fill="url(#o)"/>
  <path d="m69.992 64.154l7.889-2.8743 0.2752 0.6727-0.2752 0.795-7.8279 2.8131-0.0612-1.4066z" fill="url(#n)"/>
  <path d="m70.237 67.304l7.889-2.8743 0.2752 0.6727-0.2536 0.6437-7.8495 2.9645-0.0612-1.4066z" fill="url(#m)"/>
  <path d="m70.39 70.759l8.0419-2.9354 0.2752 0.6727-0.2752 0.795-7.8279 2.8131-0.2141-1.3454z" fill="url(#l)"/>
  <path d="m70.604 74.459l8.4394-2.9049 0.2446 0.5198-0.2752 0.795-8.3171 2.8743-0.0917-1.2843z" fill="url(#k)"/>
  <path d="m70.971 77.883l8.5617-2.9354 0.2446 0.5198-0.2752 0.795-8.3171 2.8743-0.214-1.2537z" fill="url(#c)"/>
  <path d="m71.49 85.558l8.5312-2.8743 0.3364 0.581-0.2752 0.795-8.5923 2.8437v-1.3454z" fill="url(#j)"/>
  <path d="m70.971 77.883l8.3239-2.8273 0.4825 0.4117-0.3617 0.6437-8.2306 3.0256-0.214-1.2537z" fill="url(#c)"/>
  <path d="m71.674 89.014l8.8675-2.9354 0.2446 0.5198-0.3364 0.6727-8.6229 3.0578-0.1529-1.3148z" fill="url(#i)"/>
  <path d="m71.98 92.836l8.8981-3.0272 0.2446 0.5198-0.2752 0.795-8.8064 2.9966-0.0612-1.2843z" fill="url(#h)"/>
  <path d="m72.255 96.933l9.265-3.1189 0.2446 0.5198-0.2752 0.795-9.1427 3.0272-0.0917-1.2231z" fill="url(#g)"/>
  <path d="m72.438 100.97l9.4179-3.0883 0.2446 0.5198-0.2752 0.795-9.265 3.1189-0.1223-1.3454z" fill="url(#f)"/>
  <path d="m72.805 104.76l9.5096-3.2718 0.2446 0.5198-0.2752 0.795-9.5096 3.2718 0.0306-1.3148z" fill="url(#e)"/>
  <path d="m73.05 108.28l9.5402-3.2106 0.2446 0.5198-0.2752 0.795-9.4791 3.2106-0.0306-1.3148z" fill="url(#d)"/>
  <path d="m71.208 82.035l8.5617-2.9354 0.2446 0.5198-0.2752 0.795-8.3171 2.8743-0.214-1.2537z" fill="url(#aw)"/>
 </g>
 <path d="m66.188 20.938l-30.062 13.25-1.1875 2.0625 1.9375 2.2812 1.5625 0.7812 0.0938 0.0938-3.6875 57.281c0.18027 0.59901 1.2505 1.0694 2.8125 0.15625l0.0312-0.5 0.7812-15.5 17.688 17.906-0.5938 15.625c0.89231 0.152 1.5498 0.71486 3.0625-0.21875l0.3438-15.281 11.312-4.7812 1.1562 17.719c0.7463 0.46021 1.4025 0.22266 2.0312-0.375l-0.125-1.75 8.5625-3 0.2188 1.9062c0.60851 0.20109 1.351 0.6661 2.0312-0.625l-2.0625-18.875 6.9375-2.9375 0.9688 17.969c1.0035 0.82327 1.8469 0.20577 2.6875-0.4375l-3.875-59.719 3.2188-1.3438-0.1562-1.4688-3.9688-4.4375-4.5312-2.2812 0.5-1-3.8125-1.5312 0.1875-0.9062-2.9062-2.5312-1.3125 0.0625-1.8438-2.4375-1.1562-0.0312-4.2188-2.8438 0.2812-1.3438-2.9062-0.9375zm-0.0625 0.3438l2.6562 0.6875-0.375 1.0938-30.219 14.312-1.1562-2.6875 29.094-13.406zm2.2812 2.3125l4.1562 2.625-30.719 14.062-2.4062-2.125-0.625-0.5938 29.594-13.969zm5.0938 2.875l1.9688 2.0938-29.844 14.812-1.9688-3.1875 29.844-13.719zm3.3125 2.3125l3.0938 2.3125-0.4062 0.75-30.156 14.094-3.6562-1.9062 30-15.094 1.125-0.1562zm2.7188 3.6875l3.9688 1.0625-0.7188 1.0312-31.625 14.312-1.2812-2.4375 29.656-13.969zm-43.25 2.2188l1.5 3.0312 0.0938 0.0625v0.90625c-0.26343-0.054119-0.52992-0.10451-0.78125-0.3125l-1.625-2.2188 0.8125-1.4688zm47.062 0.3438l3.8125 1.7188-32.062 14.812-2.1562-2.7812 30.406-13.75zm4.375 2.2812l3.0625 3.4375-13.312 5.5-0.0938-0.8125c-0.38737-0.18989-0.72047-0.31918-1.0312-0.1875-0.17158 0.02689-0.35616 0.18375-0.5625 0.6875l0.0938 0.9688-6.7188 2.75-0.1562-1.9375c-0.82841-0.15249-1.1232-0.13678-1.7188 0.875l0.125 1.7812-9.1562 3.7812-3.3438 0.5938 0.9062-2.8438c2.2589-1.0362 31.391-14.362 31.906-14.594zm-49.562 0.5938l0.7188 0.375 2.5938 2.25-0.125 0.7812c-1.0083-0.85821-1.7716-1.4833-2.8125-2.3438-0.095909-0.079288-0.1824-0.1155-0.28125-0.15625l-0.0938-0.9062zm0.7188 1.7812l1.1875 1.0938-2.9688 55.438c-0.90368 0.97144-1.3361 0.52909-1.75 0.03125l3.5312-56.562zm4.3125 0.75l1.75 2.625 0.0312 0.6875-0.375 0.6562c-0.09742-0.073009-0.19912-0.14108-0.28125-0.21875-0.15971-0.15105 0.59775-0.72567 0.4375-0.875-0.63998-0.59637-1.0067-1.2373-1.625-1.8125l-0.0312-1.0312 0.0938-0.0312zm-0.5 0.0938l-0.0625 0.7812c-0.33115 0.039471-0.75767 0.18967-1 0.15625l0.1562-0.7812 0.9062-0.1562zm-2.25 0.5938l0.9688 0.875 6.375 11.969-0.9062 0.0312-6.4688-12.062 0.0312-0.8125zm51 0.1875l0.0938 1.0938-13.875 5.5938-0.125-1.0938 13.906-5.5938zm-48.594 0.4375l1.4375 1.5625-0.5625 0.9688 1.5938 0.9062-1.0625 1.375-2.4688-4.625 1.0625-0.1875zm-2.4688 0.8125l2.875 5.3125-3.375 4.2812 0.5-9.5938zm48.094 1.5312l3.7188 59.25c-0.58334 0.93983-1.1667 0.61982-1.75 0.625l-1.0938-20.125 0.1562-0.0625-0.1875-0.5625-1.1562-21.375v-0.5l-0.9062-16.75 1.2188-0.5zm-43.406 0.0625l3.7188 2.1562-0.0938 0.3125c-0.75854-0.61771-1.9904-1.0763-3.0312-1.5938l-0.125-0.125-0.0312 0.0312c-0.23807-0.12274-0.4842-0.24191-0.6875-0.375l0.25-0.4062zm41.75 0.625l0.0625 0.875-8.5312 8.7812-0.125-1.2188 7.9688-8.1875 0.625-0.25zm-41.344 0.5l0.6875 0.4062-1.4062 1.8438-0.4062-0.7812 1.125-1.4688zm39.938 0.0938l-6.5625 6.7812-0.8125-0.7812-0.3125-2.8125 7.6875-3.1875zm-9.0625 0.0938c0.32164-0.1148 0.63781 0.2096 0.65625 0.40625l6.8438 62c-0.38585 0.82324-1.0204 0.57135-1.4062 0.5l-0.1875-1.7812 0.2812-0.0938c0.55392-0.70525 0.35941-1.4829-0.09375-1.4375l-0.3125 0.0938-0.25-2.0625 0.375-0.125c0.55392-0.70525 0.35941-1.4829-0.09375-1.4375l-0.4062 0.125-0.25-2.3125 0.3125-0.0938c0.55392-0.70525 0.32816-1.4829-0.125-1.4375l-0.3125 0.0938-0.25-2.5 0.3438-0.125c0.55392-0.70525 0.35941-1.4829-0.09375-1.4375l-0.4062 0.125-0.2812-2.7188 0.1562-0.0625c0.55392-0.70525 0.32816-1.4829-0.125-1.4375l-0.1562 0.0625-0.25-2.3125 0.1875-0.0625c0.55391-0.70525 0.35941-1.4829-0.09375-1.4375l-0.25 0.0938-0.1875-2 0.1562-0.0625c0.55391-0.70525 0.35941-1.4829-0.09375-1.4375l-0.2188 0.0625-0.25-2.125 0.25-0.0938c0.55392-0.70525 0.35941-1.4829-0.09375-1.4375l-0.2812 0.0938-0.2812-2.75 0.0938-0.0312c0.38528-0.267 1.0441-0.96296 0.03125-1.4062l-0.25 0.0938-0.2188-2 0.25-0.0938c0.55391-0.70525 0.35941-1.4829-0.09375-1.4375l-0.2812 0.0938-0.25-2.125 0.2812-0.0938c0.22369-0.60803 0.054176-1.1008-0.125-1.5938l-0.3125 0.125-0.2188-2 0.4062-0.1562c0.031021-0.46526 0.32311-0.94099-0.1875-1.4062l-0.3438 0.125-0.1875-1.5312 0.3438-0.125c0.43238-0.67332 0.32533-1.1871-0.125-1.625l-0.3438 0.125-0.25-2.125 0.2188-0.0625c0.42889-0.68007 0.28952-1.2883 0-1.5625l-0.3438 0.125-0.2188-2 0.3438-0.125c0.25227-0.65022 0.041428-1.0748-0.03125-1.5625l-0.4688 0.1562-0.1875-1.75 0.4375-0.1562c0.26891-0.64566 0.22857-1.1971-0.03125-1.5625l-0.5312 0.1875-0.2188-2 0.5-0.2188c0.15414-0.39316 0.31594-0.81693-0.125-1.1562l-0.5 0.1875-0.1562-1.5c0.047112-0.32251 0.14606-0.6533 0.28125-0.6875zm-30.031 0.2812l2.0625 1.1875 1.4688 2.5938-3.3125 1.3438-1.6562-3.125 1.4375-2zm40.562 0.3438l0.8125 14.781-7.7188-7.625 6.9062-7.1562zm-37.844 0.375l0.1562 0.0938 1.3438 2.1875-0.0625 0.75c-0.00629-0.003971-0.02652 0.004791-0.03125 0-0.68708-0.69535-0.81592-1.9139-1.5-2.6562l0.0938-0.375zm26.906 1.0625l0.0312 0.2188-6.7812 2.5625v-0.0625l6.75-2.7188zm0.625 0.125c0.10461 0.19399 0.35495 0.50699 0.125 0.8125l-7.4375 3-0.0312-0.875 7.3438-2.9375zm-33.219 0.375l0.4375 0.8125-3.3438 4.4375-0.625 0.25 0.0625-1 3.4688-4.5zm24.719 0.0312c0.19877-0.024601 0.44386 0.063869 0.6875 0.21875l4.2188 62.562c0.13168 0.53405-0.25784 1.1116-1.1875 0.5l-4.125-62.781c0.1264-0.31407 0.20748-0.4754 0.40625-0.5zm8.0312 0.875l0.0938 1.1562-1-0.7812 0.9062-0.375zm-25.375 0.0938l0.0312 0.0625 1.0312-0.0312v0.4375c-0.19453-0.074329-0.78012 0.059132-1.125 0.0625l0.0625-0.5312zm1.5 0h0.09375l2.6562 3.0938-0.4062 3.0938-0.1562 0.3438c-0.030281-0.02216-0.069538-0.0355-0.09375-0.0625-0.51156-0.57056 0.26567-2.0114 0-2.6875-0.30991-0.78875-0.7963-1.4551-1.3438-2.0938l0.0625-0.0312-0.125-0.0625c-0.24952-0.28557-0.53213-0.56482-0.8125-0.84375l0.125-0.75zm-8.3125 0.0312l1.25 2.3438-4.1875 1.6562 2.9375-4zm30.938 0.4062l1.4062 1.0938 0.0312 0.375-1.375 0.5-1.4688-1.375 1.4062-0.5938zm-24.719 0.4375l1.625 0.0312 0.5 0.7188-4.75 2.0312-0.7812-1.4375 3.4062-1.3438zm22.938 0.3125l1.5 1.3438-5.1562 1.8125-0.0625-1.5625 3.7188-1.5938zm-20.594 0.7188l1.4688 2.0312-0.0312 0.7188-5.75 0.25-0.5312-1 4.8438-2zm14.969 0l0.0625 1.1562-9.2812 3.75c-0.0905-0.37546-0.18747-0.76819-0.25-1.0938l9.4688-3.8125zm9.5312 0c0.38621 0.29375 0.24586 1.0055 0 1.125l-7.4688 2.6562-0.0938-1 7.5625-2.7812zm-31.594 0.8438l0.8125 1.5-1.9062 0.8438-4.4688 0.1875v-0.3125l5.5625-2.2188zm32.719 0.2188l0.4375 0.4375-0.3438 0.375-0.0938-0.8125zm-1.6562 0.4688l0.0312 0.4062-0.4062-0.2812 0.375-0.125zm-0.6562 0.25l0.75 0.5938 0.0938 0.9062-7 2.4688-0.125-1.625 6.2812-2.3438zm-8.2188 0.0312l0.25 3.8125-1.1875-0.2812-0.1562-3.0938 1.0938-0.4375zm-1.375 0.5625l0.125 2.9062-4.5938-1.0625 4.4688-1.8438zm-19.906 0.1875l0.2812 0.5-1.6875 0.0938 1.4062-0.5938zm33.406 0.0625l7.5312 7.4375-2.375-0.5625-6.125-5.9062 0.9688-0.9688zm-25.812 0.4688l-0.0625 1.125-13.812 0.3438-0.2188-0.375v-0.34375l14.094-0.75zm23.281 0.1562c0.015343 0.33164 0.42005 0.58029 0.0625 1.125l-7.5 2.6875-0.0625-1 7.5-2.8125zm-19.5 0.6562c0.025749 0.35154 0.09108 0.69201 0.1875 1.0312-0.63208-0.3605-2.1212-0.014599-3-0.15625l0.1562-0.5625 2.6562-0.3125zm20.812 0l5.5 5.4062-5.125-1.1875-0.4375-4.1562 0.0625-0.0625zm-17.375 0.5625l6.75 1.5312 0.0312 0.7812-7.8438-1.875 1.0625-0.4375zm-7.3125 0.125v0.25l0.3438 0.0938-2.5 3.125-0.9375-0.3125-1.625-3.0312 4.7188-0.125zm-5.0938 0.125l8.4375 15.812-0.0312 1.1562-0.4062-0.4062-8.9062-16.531 0.9062-0.0312zm-1.2188 0.0312l1.2812 2.375-6.6875-2.25 5.4062-0.125zm29.281 0.0625l0.0312 0.2188-2.4375 2.7188-2.5625 0.9062 3.2188-3.2188 1.75-0.625zm-37.031 0.0312l0.0625 0.0625 0.125 0.3125 0.125-0.0625 17.062 16.875-0.0938 2.3438-17.406-17.125 0.125-2.4062zm1.625 0.0312l7.5938 2.5625 0.4688 0.9062-8.75-2.875-0.4062-0.4062 0.3438-0.1562 0.75-0.0312zm13.188 0.1562l1.5312 0.4062-4.0625 4.7812-0.625-1.1875 3.1562-4zm4.9375 0.125l-1.3438 57.625-1.875 0.2812 1.8438-57.344 1.375-0.5625zm0.4375 0.0938l6.4375 1.5312 0.25 6.3125-6.8125-2.2812 0.125-5.5625zm16.906 0.125l0.1875 1.4375-1.3438 0.4688-0.4375-0.0625 1.5938-1.8438zm-20.438 0.1562l1.3125 0.3438-0.1562 4.1875-3.9062-1.3125 2.75-3.2188zm18.062 0.125l-1.3125 1.3125-1.4375-0.3125 2.75-1zm-33.438 0.1562l8.5938 2.8438 0.625 1.1562-2.25 2.875-6.9688-6.875zm36.5 0.9688c0.47298 0.16858 0.21786 0.80667 0 1.1875l-7.5312 2.5938-0.0938-1 7.625-2.7812zm-6.2812 0.0312l1.6562 0.4062-0.5938 0.5938-2.2812-0.5625 1.2188-0.4375zm-4.5312 0.0312l1.2188 0.3125 0.3438 5.0312-1.25 1.25-0.3125-6.5938zm8.3438 0.5938l0.125 0.0312-0.2188 0.0625 0.0938-0.0938zm-5.2812 0.125l0.25 0.0625 1.5938 0.8438-0.5938 0.4688-1.1875-0.5-0.0625-0.875zm-30.188 0.0625l0.625 0.625 16.125 35.25-0.0312 1-0.625-0.6562-16.188-34.625 0.0938-1.5938zm31.25 0.1875l1.1875 0.2812-0.1875 0.1875-1-0.4688zm-19.938 0.2812l0.5938 0.1875-0.3125 0.375-0.2812-0.5625zm26.25 0.2188l0.0938 0.875-1.625-0.3125 1.5312-0.5625zm1.7812 0.1562l8.6875 1.9688-0.0938 0.5625-0.625 0.2812-0.25-0.0625-7.625-1.8125-0.0938-0.9375zm-9.0625 0.2188l0.7812 0.3438-0.75 0.2812-0.0312-0.625zm-29 0.1875l5.6875 5.5938-2.0312 2.5-3.6562-8.0938zm12.625 0.0625l4.0625 1.375-0.0312 0.6562-4.5-1.4688 0.4688-0.5625zm21.75 0.0625l2.0312 0.4688 0.0625 0.75-2.6562-1 0.5625-0.2188zm-1 0.375l3 1.0938-1.0625 0.375-2.875-1.125 0.9375-0.3438zm-34.75 0.2188l4 8.7188-4.7188 5.9062 0.7188-14.625zm13.375 0.125l4.6562 1.5-0.25 6.375-1.0938 0.4375-4-7.5312 0.6875-0.7812zm26.188 0.0312l7.0938 1.6875 0.25 0.25-5.9688 2.4062-1.125-2-0.25-2.3438zm-6.1562 0.0312l2.9062 1.1875-5.6562 1.9688v-0.09375l2.75-3.0625zm-0.75 0.3438l-2.0312 2.1875-0.0938-1.2812 0.1875-0.1875 1.9375-0.7188zm-21.688 0.0625l0.5938 1.125-2.0312 2.375-0.75-0.7188 2.1875-2.7812zm27.344 0.3125c0.34647 0.24595 0.54808 0.73711 0.1875 1.2188l-7.75 2.5938-0.0312-1.0625 7.5938-2.75zm-18 0.5938l6.8438 2.3125v0.15625l-0.5312 0.2188-6.3438-2.0625 0.0312-0.625zm27.969 0.4375l0.0938 1.625-8.0938 3.25-0.1562-1.5938 8.1562-3.2812zm-36.531 0.0938l3.75 6.9062-0.7812 0.2812-4.9375-4.875 1.9688-2.3125zm8.5312 0.375l5.9688 1.9688-6.0625 2.6562 0.0938-4.625zm17.75 0.0312l0.1875 1.5625-5.875 2.0625-1.3438-1.125 7.0312-2.5zm-9.25 0.5312l0.0938 1.2188-8.1875 8.4375-0.625 0.25 0.0312-0.9688 8.6875-8.9375zm11.156 0.625l0.5938 1.0625-0.4688 0.1875-0.125-1.25zm8.4688 0.3438l0.0625 0.9062-7.5312 8.0625-0.125-1.2812 6.875-7.4062 0.7188-0.2812zm-9.6875 0.0625c0.23474 0.32658 0.26748 0.67706 0.03125 1.0625l-7.7812 2.8125-0.0625-1 7.8125-2.875zm-11.75 0.4375l-2.9375 3.0312-3.9062 1.7812 0.0625-1.8438 6.7812-2.9688zm19.906 0.125l-3.6562 3.9062-1.125-1.9375 4.7812-1.9688zm-17.969 0.1562l0.3125 4.5-1.4062 0.5625-0.1875-3.7188 1.2812-1.3438zm-21.562 0.4375l0.6875 0.6875-2.4062 2.8125-0.375-0.8438 2.0938-2.6562zm23.469 0.125l1.0938 0.9375-0.9375 0.3125-0.0938-0.0312-0.0625-1.2188zm17.656 0l0.75 13.844-5.1562-9.125 4.4062-4.7188zm-10.125 0.125l0.0312 0.25-4.4688 1.75-0.2188-0.2188 4.6562-1.7812zm0.0625 0.5312l0.1562 1.4688-7.4375 2.5938-0.0938-1.125 7.375-2.9375zm-30.125 0.1562l4.1562 4.0625-5.1875 2.0938-1.4688-3.2188 2.5-2.9375zm18.938 0.4062l0.1562 3.4375-5.6875 2.2812 5.5312-5.7188zm14.5 0.1875l1.1875 2.125-0.5938 0.625-1.3438-2.4375 0.75-0.3125zm-1.1875 0.4688l1.4375 2.6562-1.2188 1.3125-0.4062-3.875 0.1875-0.0938zm-7.25 0.1875l0.25 0.2188-1.4688 0.5625c-0.075012-0.077461-0.16399-0.15518-0.21875-0.21875l1.4375-0.5625zm5.6875 0.1875c0.21001 0.27985 0.32534 0.60678 0.125 1.0625l-7.875 2.6875-0.0625-0.9375 7.8125-2.8125zm-15.469 0.4688l-3.4062 3.5312 0.0312-2 3.375-1.5312zm8.0312 0c0.086693 0.079681 0.1778 0.1731 0.25 0.25l-0.75 0.2812-0.0312-0.3125 0.5312-0.2188zm-13.781 0.4062l-0.0625 1.8438-0.0312 0.0312-0.8125-1.5312 0.9062-0.3438zm20.938 0.5938l0.25 2.125-0.4688 0.1562-1.875-1.5312 2.0938-0.75zm-34.5 0.125l0.375 0.8438-4.4375 5.1875-0.875 0.3438v-0.1875l4.9375-6.1875zm11.469 0.125l0.8125 1.5-0.125 0.0625-1.3438-1.3125 0.6562-0.25zm13.562 0.3438l0.125 1.625-9.3438 3.75 0.0312-1.6562 9.1875-3.7188zm6.9375 0.3125l1.8438 1.5312-1.625 0.5625-1.6875-1.5625 1.4688-0.5312zm-31.438 0.4062l1.1562 2.5312-5.0312 2.0312 3.875-4.5625zm39.031 0l5.5312 9.7188 0.0625 1.4062-0.9688-0.9062-5.2188-9.5625 0.5938-0.6562zm-31.062 0.0938l1.375 1.3438-5.9062 2.4688-0.7812-1.6875 5.3125-2.125zm21.594 0.1562l1.5938 1.5938-4.5 1.5312-0.1562-2.0312 3.0625-1.0938zm-17.656 0.4375l0.0938 0.1875-0.1562-0.1562 0.0625-0.0312zm22.812 0.1562c0.60126 0.14904 0.38455 0.88176 0.03125 1.0312l-2.2812 0.8125-5.7188 1.9688-0.0625-0.9375 8.0312-2.875zm3.375 0.1875l4.4688 8.1562-6.25-5.8438-0.0625-0.375 1.8438-1.9375zm-13.438 0.3438l0.3438 5.3438-1.6875-0.4062-0.1562-4.3125 1.5-0.625zm-15.062 0.3125l2.875 2.8438-8.4688 0.6562-0.4062-0.9375 6-2.5625zm13.125 0.5l0.1562 4.0312-6.3438-1.5 6.1875-2.5312zm11.25 0.1875l0.0625 0.2188-0.75 0.8125-0.625-0.5625 1.3125-0.4688zm0.4375 0.3438l0.125 1.2188-0.4375 0.4688-2 0.6875 1.1562-1.2188 1.1562-1.1562zm-33.125 0.0938l0.7812 1.6562-2.5 1.0312-5 0.375 0.0625-0.4062 6.6562-2.6562zm30.969 0.1875l0.7812 0.6875-1.4688 1.5938-4.6562 1.5938-0.125-1.9062 5.4688-1.9688zm4.125 0.9375l7.625 7.3125-2.6875-0.6562-4.7188-4.5938-0.2188-2.0625zm-1.2812 0.3125c0.54724-0.14594 0.39796 0.80063-0.15625 1.125l-7.9375 2.7812-0.0625-1.0625 8.1562-2.8438zm-22.375 0.5l0.0938 0.0938-0.0312 0.7812-8.25 0.7188-0.375-0.875 8.5625-0.7188zm-10.5 0.0625l0.1875 0.4688-1.5625 0.125 1.375-0.5938zm13.594 0.1875l9.2188 2.125 0.0625 1.0625-9.8125-2.375v-0.59375l0.5312-0.2188zm-13.25 0.5938l0.4062 0.875-8.1562 0.6562-0.375-0.3125 0.0625-0.5312 8.0625-0.6875zm32.125 0l0.2812 2.75-0.7812 0.2812-2.5312-0.5625 1.8125-2.0312 1.2188-0.4375zm-21.906 0.3125l-0.625 17.188-7.5-16.5 8.125-0.6875zm20.219 0.3125l-1.6562 1.7812-1.5625-0.3438 0.3438-0.4062 2.875-1.0312zm-17.75 0.0312l7.6875 1.8125 0.2188 6.25c0.051033 0.041817 0.10625 0.062157 0.15625 0.09375l-8.4375 9 0.375-17.156zm-12.188 0.4688l7.4688 16.312-15.219-15.281 1.0938-0.4688 6.6562-0.5625zm33.625 0.0938l3.5312 3.5312-3.25-0.7812-0.2812-2.75zm-42.281 0.5l17.656 18.031-0.0938 1.9062-17.688-17.688 0.125-2.25zm35.156 0.1562l-0.125 0.125-0.1562-0.0312 0.2812-0.0938zm-0.7188 0.2812l4.8125 1.0312-2.625 0.9062-3.9688-1.0625-0.0312-0.2188 1.8125-0.6562zm-5.4688 0.4062l1.75 0.4062 0.2188 3.6562-1.6875 1.8125c-0.032097-0.006393-0.061653-0.023262-0.09375-0.03125l-0.1875-5.8438zm12.094 0.2188c0.60125 0.14905 0.38455 0.88176 0.03125 1.0312l-2.4688 0.8438h-0.03125l-0.0312 0.0312-5.6875 1.9688-0.0625-1 3.6875-1.2812h0.03125l4.5312-1.5938zm-8.4062 0.5312l1.0625 0.2812-0.9688 1.125-0.0938-1.4062zm1.4062 0.375l1.2812 0.3438-0.6875 0.7188-1.8438 0.625-0.0312-0.2188 1.2812-1.4688zm1.5312 0.4375l0.5 0.125-0.9062 0.3125 0.4062-0.4375zm5.0938 0.0625l0.0938 0.9062-1.7188-0.3438 1.625-0.5625zm1.9375 0.125l7.3125 1.6875 0.3125 0.2812v0.15625l-0.125 0.5938-0.3125 0.125-7.0625-1.6875-0.125-1.1562zm-4.125 0.625l2.3438 0.5312 0.0938 0.875-7.875 2.6562-0.125-1.625 1.0312-0.875 4.5312-1.5625zm4.2812 0.9062l5.4375 1.2812 0.5 0.5-5.5 2.3125-0.4375-4.0938zm-1.4062 0.5c0.60126 0.14905 0.38455 0.91301 0.03125 1.0625l-8.25 2.875-0.0625-1.0312 8.2812-2.9062zm-8.1562 0.4062l-0.3125 0.2812v-0.15625l0.3125-0.125zm-2.2188 0.4375l0.0625 1.2812-10.156 10.875-0.4688 0.1875 0.0312-1.0625 10.531-11.281zm19.344 0.4062l0.0625 1.6875-6.9375 2.9375-0.1875-1.7188 7.0625-2.9062zm-9.2812 0.1562l0.2188 2-8 2.625-0.125-1.8438 7.9062-2.7812zm-9.9375 1.3438l0.375 5.7812-9.75 4.0938 9.1562-9.8125c0.072472-0.018204 0.14556-0.039963 0.21875-0.0625zm10.625 0.6875c0.60126 0.14905 0.38455 0.88176 0.03125 1.0312l-8.4062 2.9375-0.0625-1.0312 8.4375-2.9375zm-0.3438 1.375l0.2812 2.0625-2.0312 0.9062-6.0938 2.0312-0.1562-2.125 8-2.875zm0.6875 2.3438c0.60125 0.14904 0.38455 0.91301 0.03125 1.0625l-8.4688 2.875-0.125-1 8.5625-2.9375zm-0.3125 1.4062l0.2812 2.75-8.2188 2.6875-0.1875-2.5312 8.125-2.9062zm-10.25 0.4375l0.125 1.9062-11.125 4.7188-0.0625-2.0625 11.062-4.5625zm11.188 2.25c0.60125 0.14904 0.38455 0.88176 0.03125 1.0312l-8.8125 3-0.0938-1 8.875-3.0312zm-0.5 1.4688l0.25 2.5312-8.3438 2.7188-0.2188-2.375 8.3125-2.875zm0.8438 2.5c0.60125 0.14904 0.38455 0.91301 0.03125 1.0625l-8.875 2.9688-0.0625-0.9688 8.9062-3.0625zm-0.4688 1.4375l0.25 2.3438-8.4375 2.7812-0.1562-2.25 8.3438-2.875zm0.9062 2.2812c0.60125 0.14904 0.38455 0.91301 0.03125 1.0625l-9.0625 3.0625-0.0625-1 9.0938-3.125zm-0.5312 1.4688l0.25 2.0938-8.5625 2.8125-0.1562-1.9688 8.4688-2.9375zm0.8125 2.0625c0.60125 0.14904 0.38455 0.91301 0.03125 1.0625l-9.0938 3.0625-0.0625-0.9688 9.125-3.1562z" fill-rule="evenodd"/>
</svg>
