<?xml version="1.0" encoding="UTF-8"?>
<svg version="1.1" viewBox="0 0 162.61 167.52" xmlns="http://www.w3.org/2000/svg" xmlns:xlink="http://www.w3.org/1999/xlink">
 <defs>
  <linearGradient id="bf" x1="79.2" x2="78.581" y1="353.1" y2="418.72" gradientTransform="matrix(2.9718 0 0 .33649 530.43 445.71)" gradientUnits="userSpaceOnUse" xlink:href="#a"/>
  <linearGradient id="bg" x1="87.623" x2="87.106" y1="268.71" y2="323.5" gradientTransform="matrix(2.6449 0 0 .37809 530.43 445.71)" gradientUnits="userSpaceOnUse" xlink:href="#a"/>
  <linearGradient id="bi" x1="144.33" x2="143.99" y1="100.33" y2="136.29" gradientTransform="matrix(1.5508 0 0 .64483 530.43 445.71)" gradientUnits="userSpaceOnUse" xlink:href="#a"/>
  <linearGradient id="bj" x1="192.96" x2="265.99" y1="244.25" y2="245.29" gradientTransform="matrix(.78838 0 0 1.2684 530.43 445.71)" gradientUnits="userSpaceOnUse" xlink:href="#a"/>
  <linearGradient id="bh" x1="100.73" x2="100.31" y1="192.64" y2="236.98" gradientTransform="matrix(2.2698 0 0 .44057 530.43 445.71)" gradientUnits="userSpaceOnUse" xlink:href="#a"/>
  <linearGradient id="be" x1="73.695" x2="72.989" y1="440.56" y2="515.42" gradientTransform="matrix(3.2112 0 0 .31141 530.43 445.71)" gradientUnits="userSpaceOnUse" xlink:href="#a"/>
  <linearGradient id="cv" x1="156.17" x2="155.71" y1="550.25" y2="599.06" gradientTransform="matrix(2.0484 0 0 .48819 530.43 445.71)" gradientUnits="userSpaceOnUse" xlink:href="#a"/>
  <linearGradient id="bd" x1="70.74" x2="69.931" y1="528.23" y2="614.09" gradientTransform="matrix(3.4423 0 0 .2905 530.43 445.71)" gradientUnits="userSpaceOnUse" xlink:href="#a"/>
  <linearGradient id="az" x1="155.34" x2="154.89" y1="594.52" y2="641.95" gradientTransform="matrix(2.0571 0 0 .48611 530.43 445.71)" gradientUnits="userSpaceOnUse" xlink:href="#a"/>
  <linearGradient id="bb" x1="155.83" x2="155.38" y1="668.47" y2="715.79" gradientTransform="matrix(2.0524 0 0 .48723 530.43 445.71)" gradientUnits="userSpaceOnUse" xlink:href="#a"/>
  <linearGradient id="bc" x1="143.08" x2="142.67" y1="771.23" y2="814.64" gradientTransform="matrix(2.2368 0 0 .44706 530.43 445.71)" gradientUnits="userSpaceOnUse" xlink:href="#a"/>
  <linearGradient id="ba" x1="152.65" x2="152.21" y1="644.39" y2="691.23" gradientTransform="matrix(2.0918 0 0 .47807 530.43 445.71)" gradientUnits="userSpaceOnUse" xlink:href="#a"/>
  <linearGradient id="bk" x1="299.65" x2="260.15" y1="161.58" y2="201.41" gradientTransform="scale(1.0702 .93445)" gradientUnits="userSpaceOnUse" xlink:href="#a"/>
  <linearGradient id="a">
   <stop stop-color="#fff" stop-opacity=".624" offset="0"/>
   <stop stop-opacity=".459" offset="1"/>
  </linearGradient>
  <linearGradient id="bl" x1="682.29" x2="608.57" y1="121.66" y2="123.48" gradientTransform="matrix(.40678 0 0 2.4583 530.43 445.71)" gradientUnits="userSpaceOnUse" xlink:href="#a"/>
  <linearGradient id="bt" x1="114.53" x2="114.2" y1="440.65" y2="475.83" gradientTransform="matrix(1.4449 -.32221 0 .52361 286.13 231.79)" gradientUnits="userSpaceOnUse" xlink:href="#a"/>
  <linearGradient id="bv" x1="443.58" x2="396.33" y1="115.95" y2="116.26" gradientTransform="matrix(.31463 -.12328 0 1.1603 283.98 375.73)" gradientUnits="userSpaceOnUse" xlink:href="#a"/>
  <linearGradient id="bw" x1="114.53" x2="114.2" y1="440.65" y2="475.83" gradientTransform="matrix(1.4449 -.32221 0 .52361 282.91 275.73)" gradientUnits="userSpaceOnUse">
   <stop stop-color="#fff" stop-opacity=".624" offset="0"/>
   <stop stop-opacity=".459" offset="1"/>
  </linearGradient>
  <linearGradient id="bu" x1="682.29" x2="608.57" y1="121.66" y2="123.48" gradientTransform="matrix(.31369 -.12833 0 1.0337 282.39 403.14)" gradientUnits="userSpaceOnUse" xlink:href="#a"/>
  <linearGradient id="bs" x1="192.96" x2="265.99" y1="244.25" y2="245.29" gradientTransform="matrix(.59646 -.2297 0 .61937 286.13 379.95)" gradientUnits="userSpaceOnUse" xlink:href="#a"/>
  <linearGradient id="bm" x1="114.53" x2="114.2" y1="440.65" y2="475.83" gradientTransform="matrix(1.9098 0 0 .52361 530.43 445.71)" gradientUnits="userSpaceOnUse" xlink:href="#a"/>
  <linearGradient id="bn" x1="443.58" x2="396.33" y1="115.95" y2="116.26" gradientTransform="matrix(.40915 0 0 2.4441 530.43 445.71)" gradientUnits="userSpaceOnUse" xlink:href="#a"/>
  <linearGradient id="br" x1="253.34" x2="244.36" y1="112.07" y2="121.64" gradientTransform="matrix(.92369 -.00063582 -.19994 .89129 -158.1 -204.67)" gradientUnits="userSpaceOnUse" xlink:href="#a"/>
  <linearGradient id="bo" x1="353.64" x2="299.31" y1="209.99" y2="-29.448" gradientTransform="matrix(1.0278 0 0 .97297 -38.187 -47.999)" gradientUnits="userSpaceOnUse" xlink:href="#b"/>
  <linearGradient id="bp" x1="162.41" x2="363.04" y1="162.1" y2="-107.04" gradientTransform="matrix(1.1733 0 0 .85232 -38.187 -47.999)" gradientUnits="userSpaceOnUse" xlink:href="#b"/>
  <linearGradient id="bq" x1="117.01" x2="134.12" y1="122.61" y2="141.32" gradientTransform="matrix(.79324 .24517 .044959 .8092 -144.27 -244)" gradientUnits="userSpaceOnUse" xlink:href="#a"/>
  <linearGradient id="b">
   <stop stop-color="#333" offset="0"/>
   <stop stop-color="#fff" offset="1"/>
  </linearGradient>
  <linearGradient id="cu" x1="148.76" x2="148.32" y1="542.09" y2="589.02" gradientTransform="matrix(2.1551 0 0 .46402 530.43 445.71)" gradientUnits="userSpaceOnUse" xlink:href="#a"/>
  <linearGradient id="cc" x1="66.251" x2="65.463" y1="761.72" y2="845.27" gradientTransform="matrix(-2.7086 .85806 0 .27932 568.78 928.19)" gradientUnits="userSpaceOnUse" xlink:href="#a"/>
  <linearGradient id="ct" x1="62.767" x2="62.321" y1="670.39" y2="717.63" gradientTransform="matrix(1.9652 0 0 .50886 530.43 445.71)" gradientUnits="userSpaceOnUse" xlink:href="#a"/>
  <linearGradient id="cd" x1="67.024" x2="66.222" y1="685.18" y2="770.18" gradientTransform="matrix(-2.6911 .85249 0 .28114 569.9 874.1)" gradientUnits="userSpaceOnUse" xlink:href="#a"/>
  <linearGradient id="ce" x1="67.37" x2="66.562" y1="620.32" y2="705.99" gradientTransform="matrix(-2.6897 .85205 0 .28129 569.9 874.1)" gradientUnits="userSpaceOnUse" xlink:href="#a"/>
  <linearGradient id="cf" x1="66.251" x2="65.463" y1="761.72" y2="845.27" gradientTransform="matrix(-2.7086 .85806 0 .27932 569.9 874.1)" gradientUnits="userSpaceOnUse" xlink:href="#a"/>
  <linearGradient id="cb" x1="67.37" x2="66.562" y1="620.32" y2="705.99" gradientTransform="matrix(-2.6897 .85205 0 .28129 568.78 928.19)" gradientUnits="userSpaceOnUse" xlink:href="#a"/>
  <linearGradient id="bx" x1="67.024" x2="66.222" y1="685.18" y2="770.18" gradientTransform="matrix(-2.6911 .85249 0 .28114 568.24 981.87)" gradientUnits="userSpaceOnUse" xlink:href="#a"/>
  <linearGradient id="bz" x1="66.251" x2="65.463" y1="761.72" y2="845.27" gradientTransform="matrix(-2.7086 .85806 0 .27932 568.24 981.87)" gradientUnits="userSpaceOnUse" xlink:href="#a"/>
  <linearGradient id="ca" x1="67.024" x2="66.222" y1="685.18" y2="770.18" gradientTransform="matrix(-2.6911 .85249 0 .28114 568.78 928.19)" gradientUnits="userSpaceOnUse" xlink:href="#a"/>
  <linearGradient id="by" x1="67.37" x2="66.562" y1="620.32" y2="705.99" gradientTransform="matrix(-2.6897 .85205 0 .28129 568.24 981.87)" gradientUnits="userSpaceOnUse" xlink:href="#a"/>
  <linearGradient id="cg" x1="67.024" x2="66.222" y1="685.18" y2="770.18" gradientTransform="matrix(-2.6911 .85249 0 .28114 569.9 820.01)" gradientUnits="userSpaceOnUse" xlink:href="#a"/>
  <linearGradient id="co" x1="64.105" x2="63.656" y1="486.95" y2="534.65" gradientTransform="matrix(1.9528 0 0 .51209 530.43 445.71)" gradientUnits="userSpaceOnUse" xlink:href="#a"/>
  <linearGradient id="cp" x1="60.689" x2="60.267" y1="558.49" y2="603.34" gradientTransform="matrix(2.0676 0 0 .48365 530.43 445.71)" gradientUnits="userSpaceOnUse" xlink:href="#a"/>
  <linearGradient id="cr" x1="61.839" x2="61.402" y1="614.84" y2="661.22" gradientTransform="matrix(2.0133 0 0 .4967 530.43 445.71)" gradientUnits="userSpaceOnUse" xlink:href="#a"/>
  <linearGradient id="cs" x1="61.412" x2="60.973" y1="651.14" y2="697.68" gradientTransform="matrix(2.0113 0 0 .49718 530.43 445.71)" gradientUnits="userSpaceOnUse" xlink:href="#a"/>
  <linearGradient id="cq" x1="62.852" x2="62.411" y1="571.3" y2="618.14" gradientTransform="matrix(1.9936 0 0 .50161 530.43 445.71)" gradientUnits="userSpaceOnUse" xlink:href="#a"/>
  <linearGradient id="cn" x1="154.14" x2="153.67" y1="481.94" y2="531.24" gradientTransform="matrix(2.0885 0 0 .47881 530.43 445.71)" gradientUnits="userSpaceOnUse" xlink:href="#a"/>
  <linearGradient id="ch" x1="67.37" x2="66.562" y1="620.32" y2="705.99" gradientTransform="matrix(-2.6897 .85205 0 .28129 569.9 820.01)" gradientUnits="userSpaceOnUse" xlink:href="#a"/>
  <linearGradient id="ci" x1="66.251" x2="65.463" y1="761.72" y2="845.27" gradientTransform="matrix(-2.7086 .85806 0 .27932 569.9 820.01)" gradientUnits="userSpaceOnUse" xlink:href="#a"/>
  <linearGradient id="cm" x1="64.081" x2="63.625" y1="445.48" y2="493.81" gradientTransform="matrix(1.947 0 0 .5136 530.43 445.71)" gradientUnits="userSpaceOnUse" xlink:href="#a"/>
  <linearGradient id="cj" x1="67.024" x2="66.222" y1="685.18" y2="770.18" gradientTransform="matrix(3.5569 0 0 .28114 530.43 445.71)" gradientUnits="userSpaceOnUse" xlink:href="#a"/>
  <linearGradient id="ck" x1="67.37" x2="66.562" y1="620.32" y2="705.99" gradientTransform="matrix(3.5551 0 0 .28129 530.43 445.71)" gradientUnits="userSpaceOnUse" xlink:href="#a"/>
  <linearGradient id="cl" x1="66.251" x2="65.463" y1="761.72" y2="845.27" gradientTransform="matrix(3.5801 0 0 .27932 530.43 445.71)" gradientUnits="userSpaceOnUse" xlink:href="#a"/>
 </defs>
 <g transform="translate(-35.839 -22.886)">
  <g transform="matrix(.33227 0 0 .33227 30.826 26.491)">
   <g fill-rule="evenodd">
    <g transform="matrix(1.1412 0 0 1.6227 -5.768 -286.52)">
     <path d="m52.621 378.86c2.7652 15.582-14.216 17.748-16.382 24.245 15.308 11.025-24.446 27.825-17.037 32.764 5.2604 4.603 83.471 36.124 96.325 37.35 78.711 15.182 242.05 4.331 271.94-9.829 35.815-20.16 53.926-22.346 59.627-32.108-3.375-8.095-35.034-23.199-28.175-29.487-5.715-7.143-30.348-6.403-24.901-21.624-17.264-4.933-3.372-0.032-15.726-9.174-4.616-1.154-5.819-11.14-10.485-11.14-42.088-28.252-247.46-19.002-290.94 4.588-6.202 12.333-16.999 12-24.245 14.415z" fill="#42aa44"/>
     <path d="m85.646 414.46c6.1136 12.745-26.948 44.08-15.476 49.638 131.3-13.288 171.21-22.008 243.45 2.948 8.3221-6.048 80.501-51.179 63.398-55.534-26.444-3.932-186.1-5.023-291.37 2.948z" fill-opacity=".227"/>
    </g>
    <g transform="matrix(.72523 -.23068 0 .95708 70.641 -732.81)">
     <path d="m512.35 1231.4c0-6.552 1.1861-40.685 1.1861-47.238 0-2.369 8e-3 -3.2675 8e-3 -4.7815-2.0282-2.0575-140.28 38.496-226.57 68.691-1.439 4.2599 0.55456 7.9203 1.4874 11.324 0.7089 7.2684 2.7615 35.841 2.7615 42.077 44.99-6.2581 148.04-43.287 221.13-70.072z" fill="#9b6200" stroke="#000" stroke-width=".87"/>
     <g stroke-width=".782">
      <path d="m512.89 1214.1c-6.7931 6.1949-18.05 6.442-24.054 8.7101-6.7094 2.4385-40.437 14.905-50.61 16.689-8.3581 3.1917-60.496 18.51-75.034 24.426-18.574 7.4569-54.83 16.715-72.276 21.585-0.91325-13.304-2.0239-9.8429-1.906-19.709 16.562-3.8198 27.759-4.8617 44.338-10.114 9.4706-4.2922 73.767-23.368 83.244-26.371 11.475-3.6351 96.77-32.054 96.77-35.024-1.695 0.537 0.31607 9.4109-0.47009 19.808z" fill="url(#bx)" stroke="#412900"/>
      <path d="m513.29 1194.1c-6.7931 6.195-20.033 7.9442-26.037 10.212-6.7094 2.4385-42.42 17.28-52.593 19.064-8.3582 3.1918-54.217 18.269-68.094 20.917-18.574 7.4569-47.89 16.263-77.233 22.719-1.5743-12.22-1.0324-9.7199-1.906-19.272 16.562-3.8198 25.767-8.6394 42.346-13.018 9.4707-4.2922 74.962-25.399 84.439-28.401 11.475-3.6352 99.178-25.823 99.178-28.794-1.695 0.5369 1.3482 1.1623-0.099 16.574z" fill="url(#by)" stroke="#6b3400"/>
      <path d="m512.63 1230.3c-6.7931 6.1949-18.38 6.9836-24.385 9.2518-6.7094 2.4384-81.497 30.304-91.67 32.088-17.942 4.918-46.207 15.087-60.746 21.003-15.93 2.6873-27.068 4.8619-44.513 9.7323 0.73917-12.516-0.70194-7.6406-0.25352-17.612 16.562-3.8198 37.674-8.8768 54.253-14.129 9.4707-4.2922 61.208-21.574 70.684-24.576 11.475-3.6351 89.498-26.255 96.77-31.529-0.37295 5.3601 0.64663 6.6841-0.13959 15.771z" fill="url(#bz)" stroke="#360000"/>
     </g>
     <path d="m512.88 1177.8c0-6.552 1.1861-40.685 1.1861-47.238 0-2.369 8e-3 -3.2676 8e-3 -4.7816-2.0282-2.0574-140.28 38.496-226.57 68.691-1.439 4.2599 0.55456 7.9203 1.4874 11.324 0.7089 7.2684 2.7615 35.841 2.7615 42.077 44.99-6.2581 148.04-43.287 221.13-70.072z" fill="#9b6200" stroke="#000" stroke-width=".87"/>
     <g stroke-width=".782">
      <path d="m513.42 1160.4c-6.7931 6.195-18.05 6.442-24.054 8.7102-6.7094 2.4384-40.437 14.905-50.61 16.689-8.3581 3.1917-60.496 18.51-75.034 24.426-18.574 7.4569-54.83 16.715-72.276 21.585-0.91325-13.304-2.0239-9.8429-1.906-19.709 16.562-3.8198 27.759-4.8617 44.338-10.114 9.4706-4.2922 73.767-23.368 83.244-26.371 11.475-3.6351 96.77-32.054 96.77-35.024-1.695 0.537 0.31607 9.4109-0.47009 19.808z" fill="url(#ca)" stroke="#412900"/>
      <path d="m513.82 1140.4c-6.7931 6.195-20.033 7.9442-26.037 10.212-6.7094 2.4385-42.42 17.28-52.593 19.064-8.3582 3.1918-54.217 18.269-68.094 20.917-18.574 7.4569-47.89 16.263-77.233 22.719-1.5743-12.22-1.0324-9.7199-1.906-19.272 16.562-3.8198 25.767-8.6394 42.346-13.018 9.4707-4.2922 74.962-25.399 84.439-28.401 11.475-3.6351 99.178-25.823 99.178-28.794-1.695 0.537 1.3482 1.1623-0.099 16.574z" fill="url(#cb)" stroke="#6b3400"/>
      <path d="m513.16 1176.7c-6.7931 6.1949-18.38 6.9836-24.385 9.2518-6.7094 2.4384-81.497 30.304-91.67 32.088-17.942 4.918-46.207 15.087-60.746 21.003-15.93 2.6873-27.068 4.8618-44.513 9.7322 0.73917-12.516-0.70194-7.6406-0.25352-17.612 16.562-3.8198 37.674-8.8768 54.253-14.129 9.4707-4.2922 61.208-21.574 70.684-24.576 11.475-3.6351 89.498-26.255 96.77-31.53-0.37295 5.3602 0.64663 6.6842-0.13959 15.771z" fill="url(#cc)" stroke="#360000"/>
     </g>
     <path d="m514.01 1123.7c0-6.552 1.1861-40.685 1.1861-47.238 0-2.369 8e-3 -3.2676 8e-3 -4.7816-2.0282-2.0575-140.28 38.496-226.57 68.691-1.439 4.2598 0.55456 7.9203 1.4874 11.324 0.7089 7.2684 2.7615 35.841 2.7615 42.077 44.99-6.2581 148.04-43.287 221.13-70.072z" fill="#9b6200" stroke="#000" stroke-width=".87"/>
     <g stroke-width=".782">
      <path d="m514.55 1106.3c-6.7931 6.1949-18.05 6.442-24.054 8.7101-6.7094 2.4385-40.437 14.905-50.61 16.689-8.3581 3.1918-60.496 18.51-75.034 24.426-18.574 7.4569-54.83 16.715-72.276 21.585-0.91325-13.304-2.0239-9.8429-1.906-19.709 16.562-3.8198 27.759-4.8617 44.338-10.114 9.4706-4.2922 73.767-23.368 83.244-26.371 11.475-3.6351 96.77-32.053 96.77-35.024-1.695 0.5369 0.31607 9.4109-0.47009 19.808z" fill="url(#cd)" stroke="#412900"/>
      <path d="m514.95 1086.3c-6.7931 6.1949-20.033 7.9441-26.037 10.212-6.7094 2.4384-42.42 17.28-52.593 19.064-8.3582 3.1918-54.216 18.269-68.094 20.918-18.574 7.4569-47.89 16.263-77.233 22.718-1.5743-12.22-1.0324-9.7199-1.906-19.272 16.562-3.8198 25.767-8.6394 42.346-13.018 9.4707-4.2922 74.962-25.399 84.439-28.401 11.475-3.6352 99.178-25.823 99.178-28.794-1.695 0.537 1.3482 1.1623-0.099 16.574z" fill="url(#ce)" stroke="#6b3400"/>
      <path d="m514.29 1122.6c-6.7931 6.195-18.38 6.9837-24.385 9.2518-6.7094 2.4385-81.497 30.304-91.67 32.088-17.942 4.918-46.207 15.087-60.746 21.003-15.93 2.6873-27.068 4.8618-44.513 9.7322 0.73917-12.516-0.70194-7.6406-0.25352-17.612 16.562-3.8198 37.674-8.8767 54.253-14.129 9.4707-4.2922 61.208-21.574 70.684-24.576 11.475-3.6352 89.498-26.255 96.77-31.53-0.37295 5.3601 0.64663 6.6841-0.13959 15.771z" fill="url(#cf)" stroke="#360000"/>
     </g>
     <path d="m514.01 1069.6c0-6.552 1.1861-40.685 1.1861-47.238 0-2.369 8e-3 -3.2675 8e-3 -4.7815-2.0282-2.0575-140.28 38.496-226.57 68.691-1.439 4.2598 0.55456 7.9203 1.4874 11.324 0.7089 7.2683 2.7615 35.841 2.7615 42.077 44.99-6.2581 148.04-43.287 221.13-70.072z" fill="#9b6200" stroke="#000" stroke-width=".87"/>
     <g stroke-width=".782">
      <path d="m514.55 1052.2c-6.7931 6.195-18.05 6.4421-24.054 8.7102-6.7094 2.4385-40.437 14.905-50.61 16.689-8.3581 3.1918-60.496 18.51-75.034 24.426-18.574 7.4568-54.83 16.714-72.276 21.585-0.91325-13.304-2.0239-9.8429-1.906-19.709 16.562-3.8197 27.759-4.8616 44.338-10.114 9.4706-4.2922 73.767-23.368 83.244-26.371 11.475-3.6351 96.77-32.054 96.77-35.025-1.695 0.537 0.31607 9.4109-0.47009 19.808z" fill="url(#cg)" stroke="#412900"/>
      <path d="m514.95 1032.2c-6.7931 6.195-20.033 7.9442-26.037 10.212-6.7094 2.4385-42.42 17.28-52.593 19.064-8.3582 3.1918-54.217 18.269-68.094 20.918-18.574 7.4569-47.89 16.263-77.233 22.718-1.5743-12.22-1.0324-9.7198-1.906-19.272 16.562-3.8198 25.767-8.6394 42.346-13.018 9.4707-4.2922 74.962-25.399 84.439-28.401 11.475-3.6352 99.178-25.823 99.178-28.794-1.695 0.5369 1.3482 1.1623-0.099 16.574z" fill="url(#ch)" stroke="#6b3400"/>
      <path d="m514.29 1068.5c-6.7931 6.195-18.38 6.9837-24.385 9.2518-6.7094 2.4385-81.497 30.304-91.67 32.088-17.942 4.918-46.207 15.087-60.746 21.003-15.93 2.6873-27.068 4.8618-44.513 9.7322 0.73917-12.516-0.70194-7.6406-0.25352-17.612 16.562-3.8198 37.674-8.8767 54.253-14.129 9.4707-4.2922 61.208-21.574 70.684-24.576 11.475-3.6352 89.498-26.255 96.77-31.53-0.37295 5.3602 0.64663 6.6842-0.13959 15.771z" fill="url(#ci)" stroke="#360000"/>
     </g>
    </g>
   </g>
   <g transform="matrix(.75657 .23967 0 1 -394.86 -577.23)">
    <g fill-rule="evenodd">
     <path d="m602.74 792.56c0-18.98 2.62-50.238 2.62-62.251 0-6.552-2.621-93.048-2.621-99.601 0-2.369 2.622-1.107 2.622-2.621 3.817-3.817 139.88-115.76 145.69-115.76 73.609 48.927 78.471 45.868 85.841 58.536 22.06 10.485 57.886 41.502 65.308 51.986 1.902 3.804-0.733 8.096-1.966 11.795-0.937 7.493-7.863 92.709-7.863 98.945-0.955 6.686 0 43.149 0 55.043 0 4.15-0.14 13.105-0.655 21.624-13.106-0.656-37.032 0.735-42.593-0.655-24.9 0.655-48.296-1.118-72.079-1.311 0.357-10.484 0.654-55.916 0.654-62.906 0-6.116 0.783-44.753 0.783-48.831-0.766-1.531-56.267-2.218-65.781-0.908 0.202 5.343-2.389 42.873-2.495 49.739 0 14.198-0.808 55.197-0.655 65.527-14.152-0.136-69.895 0.656-76.011 0.656h-29.487c-1.669-0.835-1.31-13.567-1.31-19.003z" fill="#9b6200" stroke="#000"/>
     <g stroke-width=".899">
      <path d="m603.59 660.42c8.9788 4.043 23.858 0.724 31.794 1.09 8.8682 0.313 53.447 2.095 66.895 0.656 11.047 0.544 79.961-0.654 99.177 0.656 24.55 1.573 72.472-0.655 95.531-1.311 1.2071-13.593 2.6751-10.484 2.5192-20.313-21.892 1.427-36.69 3.932-58.604 3.932-12.518-1.292-97.502 0-110.03 0-15.167 0-127.9-1.398-127.9-4.369 2.2404 0-0.41777 9.511 0.62134 19.659z" fill="url(#cj)" stroke="#412900"/>
      <path d="m603.06 640.54c8.9788 4.043 26.478 1.598 34.415 1.964 8.8682 0.313 56.068 3.842 69.516 2.403 11.048 0.544 71.661 1.094 90.004-0.654 24.55 1.573 63.298 1.092 102.08-1.748 2.0808-12.719 1.3646-10.047 2.5192-19.876-21.892 1.427-36.69 1.748-58.604 2.621-12.518-1.292-97.502-0.437-110.03-0.437-15.167 0-122.66 0.787-122.66-2.184 2.2403 0-9.1548 2.958-7.2419 17.911z" fill="url(#ck)" stroke="#6b3400"/>
      <path d="m603.94 676.57c8.9788 4.043 24.294 1.161 32.231 1.527 8.8682 0.313 104.56 1.658 118.01 0.219 23.716-0.766 64.234 3.278 83.45 4.588 21.055-2.359 35.777-3.713 58.835-4.369-0.977-12.282 0.9278-7.863 0.3351-17.692-21.892 1.427-49.796 3.058-71.709 3.058-12.518-1.292-80.901-2.184-93.427-2.184-15.167 0-118.3 2.097-127.9-0.874 0.49294 5.242-0.85469 6.889 0.1845 15.727z" fill="url(#cl)" stroke="#360000"/>
     </g>
     <path d="m604.04 696.89c2.7531 4.043 8.1189 1.598 10.552 1.964 2.7192 0.313 16.388 2.095 20.511 0.656 3.3874 0.544 24.518-0.654 30.41 0.656 7.5274 1.573 22.222-0.655 29.292-1.311 1.3077-12.282 0.9542-10.484 0.7725-20.313-6.7124 1.427-11.687 0.874-18.406 0.874-3.8382-1.292-30.77-1.31-34.61-1.31-4.6506 0-38.374 1.66-38.374-1.311 0.68694 0-1.2697 9.51-0.14738 20.095z" fill="url(#cm)" stroke="#361c00" stroke-width=".498"/>
     <path d="m796.76 697.55c3.0068 4.043 8.867 1.598 11.525 1.964 2.9697 0.313 17.898 2.095 22.402 0.656 3.6995 0.544 26.777-0.654 33.212 0.656 8.2211 1.573 22.522-0.655 30.244-1.311 1.4283-12.282 2.7894-10.484 2.591-20.313-9.9519-1.194-14.034 0-21.372 0-4.1919-1.292-34.835 3.932-39.03 3.932-20.806-2.184-40.364-0.961-40.364-3.932 1.1871 1.748-0.4325 7.763 0.7933 18.348z" fill="url(#cn)" stroke="#2b0000" stroke-width=".52"/>
     <path d="m604.91 716.55c2.7531 4.043 7.2452 1.598 9.6786 1.964 2.7192 0.313 23.814 3.406 27.938 1.967 3.3874 0.544 17.091-1.965 22.983-0.655 7.5274 1.573 22.222-0.655 29.292-1.311 1.3077-12.282 0.9542-10.484 0.7725-20.313-6.7124 1.427-10.376 3.058-17.095 3.058-3.8383-1.292-30.333-1.747-34.174-1.747-4.6505 0-39.684 0.786-39.684-2.185 0.68693 0 0.0408 9.074 0.28944 19.222z" fill="url(#co)" stroke="#2c0000" stroke-width=".498"/>
     <path d="m605.15 735.34c2.8312 4.043 5.2911 1.161 7.7936 1.527 2.7963 0.313 21.221 2.095 26.772 1.53 3.4834 0.544 19.534-1.528 25.593-0.218 7.7409 1.573 23.288-0.655 30.122-3.495 1.3448-12.282-0.7661-6.553-0.9529-16.382-6.9027 1.427-9.8217 2.185-16.731 2.185-3.9471-1.292-30.744 0-34.693 0-4.7824 0-31.661-2.708-36.903-2.621-0.60411 6.989-0.84407 6.889-1.0005 17.474z" fill="url(#cp)" stroke="#000" stroke-width=".505"/>
     <g stroke-width=".503">
      <path d="m604.93 752.81c2.8116 4.043 4.7968 2.035 7.282 2.401 2.777 0.313 16.737 2.095 20.947 0.656 3.4594 0.544 25.039-0.654 31.056 0.656 7.6875 1.573 23.568-0.655 30.788-1.311 1.3356-12.282 0.9745-10.921 0.7889-20.75-6.8551 1.427-12.363 4.369-19.225 4.369-3.9199-1.292-30.532 0-34.454 0-4.7494 0-36.615-0.524-36.615-3.495 0.70154 0-1.715 6.889-0.5688 17.474z" fill="url(#cq)" stroke="#230000"/>
      <path d="m604.06 772.47c2.8116 4.043 5.6705 0.724 8.1557 1.09 2.777 0.313 16.737 2.095 20.947 0.656 3.4594 0.544 21.544 1.967 31.056 0.656 7.6875 1.573 22.694-1.092 30.352-3.932 1.3355-12.282 0.1006-6.5519-0.085-16.381-6.8551 1.427-11.052 2.621-17.914 2.621-3.9199-1.292-30.532-1.311-34.454-1.311-4.7494 0-36.615 0.35-36.615-2.621 0.70154 0-2.5887 8.637-1.4425 19.222z" fill="url(#cr)" stroke="#000"/>
     </g>
     <g stroke-width=".498">
      <path d="m602.73 789.94c4.9373 1.422 8.1189 1.598 10.552 1.964 2.7192 0.313 19.009 2.969 23.132 1.53 3.3874 0.544 21.896-1.528 27.789-0.218 7.5274 1.573 22.222-1.092 28.418-3.058 1.3077-12.282 1.8279-8.737 1.6462-18.566-6.7124 1.427-11.25 3.932-17.969 3.932-3.8382-1.292-29.896 0-33.737 0-4.6505 0-38.81-0.524-38.81-3.495 0.68693 0-1.2697 7.326-1.0211 17.911z" fill="url(#cs)" stroke="#310000"/>
      <path d="m603.39 810.04c2.7531 4.043 6.8083 1.162 9.2418 1.528 2.7192 0.313 16.388 0.784 20.511-0.655 3.3873 0.544 24.518-0.654 30.41 0.656 7.5274 1.573 22.222-0.655 29.292-1.311 1.3077-12.282 0.9542-10.484 0.7724-20.313-6.7123 1.427-11.25 3.932-17.969 3.932-3.8382-1.292-29.896 0-33.737 0-4.6505 0-38.81-1.835-38.81-4.806 0.68694 0-0.83286 10.384 0.28945 20.969z" fill="url(#ct)" stroke="#240000"/>
     </g>
     <path d="m796.74 715.9c2.9287 4.043 9.9474 1.598 12.536 1.964 2.8926 0.313 26.607 3.406 30.994 1.967 3.6036 0.544 16.908-1.965 23.176-0.655 8.0077 1.573 22.329-0.655 29.85-1.311 1.3912-12.282 1.452-8.737 1.2587-18.566-7.1407 1.427-11.094 2.185-18.242 2.185-4.9567-0.855-31.803-0.874-35.889-0.874-4.9473 0-40.088-0.087-44.456-1.311-0.5798 4.806-0.4212 6.016 0.7727 16.601z" fill="url(#cu)" stroke="#270000" stroke-width=".513"/>
     <path d="m795.85 735.77c2.8702 4.043 10.212 2.471 12.749 2.837 2.8349 0.313 16.212 1.659 20.51 0.22 3.5315 0.544 25.997 0.219 33.014-0.655 7.8476 1.573 23.167-0.655 30.538-1.311 1.3633-12.282 0.558-8.737 0.3685-18.566-6.9979 1.427-11.292 0.874-18.297 0.874-4.0015-1.292-35.099 0-39.103 0-4.8483 0-38.352 0.35-38.352-2.621 0.7161 0-2.5971 8.637-1.4271 19.222z" fill="url(#cv)" stroke="#290000" stroke-width=".508"/>
     <g stroke="#240000">
      <path d="m797.32 755.21c2.8916 4.043 8.5274 1.598 11.083 1.964 2.856 0.313 17.213 2.095 21.543 0.656 3.5578 0.544 25.751-0.654 31.94 0.656 7.9062 1.573 22.029-0.655 29.455-1.311 1.3736-12.282 0.3469-9.829 0.1561-19.658-7.0502 1.427-4.6082 0.656-13.413 1.093-4.0314-1.292-34.895 0.873-38.929 0.873-4.8845 0-42.599 0.35-42.599-2.621 0.7215 0-0.4159 7.763 0.7629 18.348z" fill="url(#az)" stroke-width=".51"/>
      <path d="m797.95 774.21c2.8726 4.043 7.1607 0.943 9.6998 1.309 2.8372 0.313 17.1 2.095 21.402 0.656 3.5345 0.544 25.582-0.654 31.73 0.656 7.8542 1.573 23.186-0.655 30.563-1.311 1.3645-12.282 0.1219-7.863-0.0677-17.692-7.0037 1.427-10.865 1.311-17.875 1.311-4.0049-1.292-33.815-1.747-37.822-1.747-4.8524 0-39.479 1.441-39.479-1.53 2.6826 0 0.679 7.763 1.85 18.348z" fill="url(#ba)" stroke-width=".508"/>
     </g>
     <path d="m797.54 790.16c2.8326 4.043 8.7902 3.345 11.294 3.711 2.7977 0.313 16.861 2.095 21.104 0.656 3.4853 0.544 25.226-0.654 31.288 0.656 7.7448 1.573 22.863-0.655 30.138-1.311 1.3455-12.282 0.5449-9.173 0.3579-19.002-6.9062 1.427-11.138 2.621-18.051 2.621-3.949-1.292-30.322-1.311-34.274-1.311-4.7849 0-42.166 0.35-42.166-2.621 0.7067 0-0.8443 6.016 0.3104 16.601z" fill="url(#bb)" stroke="#140000" stroke-width=".505"/>
     <path d="m797.81 808.94c6.1271 0.112 8.6251-0.586 12.455-0.22 2.8155 0.313 16.969 2.313 21.238 0.874 3.5074 0.544 25.387-0.654 31.488 0.656 7.7942 1.573 21.044 0 28.364-0.656 1.3541-12.282 0.988-6.552 0.7999-16.381-6.9504 1.427-12.304 1.966-17.951 3.277-3.9742-1.292-29.645-1.966-33.622-1.966-4.8154 0-36.972 0.787-43.088-2.184-0.1624 5.679-0.41 6.015 0.3152 16.6z" fill="url(#bc)" stroke="#240000" stroke-width=".506"/>
     <g stroke-width=".899">
      <path d="m611.8 622.85c8.542 2.732 19.052 0.287 26.988 0.653 8.8682 0.313 53.447 2.095 66.895 0.656 11.047 0.544 79.961-0.654 99.177 0.656 24.55 1.573 73.783-1.092 96.841-1.748-15.393-10.971-22.225-13.323-29.37-21.405-7.0385 0.554-12.227 3.714-28.025 5.461-12.518-1.292-97.502 0-110.03 0-15.167 0-94.706 1.224-100.38-1.747-6.0594 4.805-10.247 9.073-22.095 17.474z" fill="url(#bd)" stroke="#430000"/>
      <path d="m635.29 605.59c8.4314 1.187 51.263 2.532 64.71 1.093 11.047 0.544 81.708-1.091 100.92 0.219 24.55-0.611 54.125 1.748 69.975-5.024-16.049-11.627-10.649-6.552-21.726-15.726-21.892 1.427-106.3-0.436-118.83-0.436-15.167 0-57.573-0.524-72.208-0.437-9.7725 8.737-17.24 13.393-22.846 20.311z" fill="url(#be)" stroke="#4d0000"/>
      <path d="m658.98 585.06c13.347 0.548 35.222 1.875 48.67 0.436 11.048 0.544 65.544 0.22 84.761 1.53 24.55 1.573 34.467-0.437 57.525-1.093-15.393-12.282-16.546-11.576-25.002-18.129-21.892 1.427-1.3056-0.655-23.219-0.655-12.518-1.292-52.944 1.311-65.469 1.311-15.167 0-58.228 1.66-54.297-1.311 5.2985 0.874-15.489 9.292-22.969 17.911z" fill="url(#bf)" stroke="#450000"/>
      <path d="m682.91 567.37c8.8682 0.313 9.9808 2.532 23.428 1.093 11.048 0.544 78.65-1.965 97.867-0.655 24.55 1.573-2.6653 0.218 20.393-0.438-10.151-9.661-13.925-10.483-23.036-17.036-21.892 1.427-55.412-0.218-67.938-0.218-15.167 0-23.717 0.349-29.178-0.656-6.9336 5.679-13.09 12.084-21.535 17.91z" fill="url(#bg)" stroke="#610000"/>
      <g stroke="#340000">
       <path d="m704.15 549.67c11.048 0.544 74.451 1.748 97.51 1.092 4.2649-12.282-15.454-11.357-22.163-18.128-21.892 1.427-42.088 2.184-54.614 2.184-7.741 4.806-8.8432 8.428-20.733 14.852z" fill="url(#bh)"/>
       <path d="m724.03 534.6c11.048 0.544 34.748-2.183 53.964-0.873-14.112-11.314-16.337-13.76-26.897-20.968-7.959 5.897-17.361 14.106-27.067 21.841z" fill="url(#bi)"/>
      </g>
     </g>
     <path d="m773.11 584.19c0 12.66-11.596 22.935-25.884 22.935-14.287 0-25.883-10.275-25.883-22.935 0-12.659 11.596-22.934 25.883-22.934 14.288 0 25.884 10.275 25.884 22.934z" stroke="#000"/>
     <path d="m710.53 807.25c-1.788-24.394 0-52.582 0-56.025-1.283-3.851-0.321-50.128 2.949-57.009 6.225 0 27.194 0.983 33.419 0.983 5.57 0 27.978-0.5259 30.444 1.9401 0 8.846 0.0259 44.912 0.0259 54.086-1.966 8.191-1.466 29.97 0.983 55.043-18.675 1.336-49.515 0.919-67.821 0.982z" fill="#a47f00"/>
     <path d="m777.39 696.16c-2.0102 8.978 2.7611 87.504 0.047 110.11-14.196 1.062-59.76 2.62-70.742-0.983-0.0871-15.169 1.6125-102.81 2.8557-112.96 11.987 1.378 61.384 2.8464 67.84 3.8294z" fill="url(#bj)"/>
    </g>
    <g fill="none">
     <path d="m772.95 584.87c0 13.428-11.89 24.327-26.539 24.327s-26.538-10.899-26.538-24.327c0-13.429 11.889-24.327 26.538-24.327s26.539 10.898 26.539 24.327z" stroke="#806b00" stroke-width="5.6"/>
     <path transform="matrix(.94253 0 0 .97333 478.76 417.74)" d="m312.3 171.29c0 13.571-12.762 24.573-28.504 24.573s-28.504-11.002-28.504-24.573 12.762-24.573 28.504-24.573 28.504 11.002 28.504 24.573z" stroke="url(#bk)" stroke-width="5"/>
    </g>
    <g fill-rule="evenodd">
     <path d="m797.33 808.42c1.07-8.457-0.906-66.275-0.906-72.813 0-7.807-0.309-50.331-0.309-56.196-7.386-0.402-10.906-0.51-18.467-0.51 0 4.8219-0.105 38.593-0.332 56.544 0 7.798-0.267 66.264-0.267 72.91 6.434 0.111 17.335 0.065 20.281 0.065z" fill="url(#bl)" stroke="#280000"/>
     <path d="m712.57 693.88c1.8191 4.043 6.6749 0.506 8.938 1.527 1.7966 0.313 12.138 0.784 14.863-0.655 6.1698 0.326 15.326-0.217 19.219 0.656 4.9735-1.703 16.866 0.656 21.538 0 0.8641-12.282 1.0674-7.426 0.9473-17.255-4.435 1.427-10.491 0.874-14.93 0.874-2.536-1.292-19.753 0-22.29 0-3.0727 0-22.211-0.087-27.016-0.437 0.0171 7.863-2.009 4.705-1.2675 15.29z" fill="url(#bm)" stroke="#000" stroke-width=".404"/>
     <path d="m693.55 810.58c-2.668-2.668 2.289-62.117 2.289-69.682 0-7.428-0.544-27.534-1.173-62.482 7.15 0 12.673 0.57 19.48 1.335-1.797 4.918-4.692 55.678-4.692 62.967 0 7.094-1.988 64.459 1.035 67.482 0 1.854-12.259 0.38-16.939 0.38z" fill="url(#bn)" stroke="#380000"/>
    </g>
   </g>
   <g fill-rule="evenodd">
    <g stroke="#000" stroke-linejoin="round" stroke-width="3.2">
     <path d="m181.81 99.501s127.5 147.5 130 147.5 138.75-120 138.75-120l-136.25-136.25-135 110" fill="url(#bo)"/>
     <path d="m180.56 100.75c0 1.25-136.25 82.5-136.25 82.5l131.25-105 137.5-87.5-132.5 110z" fill="url(#bp)"/>
    </g>
    <g transform="matrix(.99863 .052336 -.052336 .99863 162.96 249.43)">
     <path d="m-125.43-53.757c2.1895 5.1371-0.54716 0.4202 7.8743 11.88 4.4751 7.2708 6.3554-3.2502 10.61-3.8057 42.336-26.971 120.42-88.841 145.44-107.78-2.2994-2.1383-6.9092-9.3239-8.8649-12.274-1.7979-0.55569-12.488 5.9318-19.999 10.832-65.096 44.831-86.277 54.005-135.06 101.15z" fill="#9b5e00" stroke="#000" stroke-width=".794"/>
     <path d="m-115.53-38.773c3.2592-5.1892 12.02-8.422 16.359-11.162 4.804-3.1444 25.426-18.163 38.282-27.302 5.5724-7.0835 36.325-27.825 45.739-35.676 13.756-11.206 41.287-31.575 53.094-41.014-7.5391-10.431-4.1964-4.8481-9.085-13.071-10.834 9.6532-17.348 10.877-28.858 19.312-7.177 3.7074-53.199 35.101-59.778 39.922-17.682 9.5276-62.698 50.871-66.336 53.911 3.2966 4.028 5.5798 7.3547 10.585 15.081z" fill="url(#bq)" stroke="#290000" stroke-width=".714"/>
     <path d="m-19.278-168.32c1.4956 2.127 6.2463 11.856 11.994 16.734 1.0334 5.3822 75.156 89.718 77.917 93.647 2.0447 3.7289 51.69 62.189 54.086 59.494 1.6932-1.3964 13.002-10.989 13.482-13.996-4.6317-9.3938-38.539-44.33-41.597-46.09-3.0491-2.5501-43.445-43.038-46.662-47.617-2.9329-3.279-31.454-38.773-34.599-43.416-4.5878-3.8735-21.905-28.868-24.533-34.4-3.0716 2.6592-8.6756 15.233-10.089 15.643z" fill="#9c6100" stroke="#000" stroke-width=".966"/>
     <path d="m-19.128-167.74c1.8863 8.5443 11.917 16.617 15.558 21.504 4.1279 5.3807 24.75 32.602 32.186 39.17 5.0474 6.831 39.358 45.626 47.914 57.811 10.992 15.482 36.066 41.169 48.505 50.364 9.636-7.7441 7.8138-5.2694 13.574-13.78-7.1738-13.691-16.358-18.606-27.033-31.259-5.7557-7.8544-53.345-52.655-59.447-59.888-7.3892-8.7576-62.947-78.068-61.119-80.537 1.0915 1.2936-5.4064 5.7056-10.137 16.616z" fill="url(#br)" stroke="#3f0000" stroke-width=".783"/>
    </g>
    <g transform="matrix(.75367 -.35986 0 1 34.234 -13.602)">
     <path d="m410.95 434.84c1.4434 1.3422 78.02-18.541 77.084-16.341-1.9555 26.839-0.18146 26.548 0.18402 51.651 0 2.0666-77.64 28.577-78.031 32.969-2.4378-21.693-3.163-62.856 0.76252-68.279z" fill="#9b6200" stroke="#000" stroke-width=".615"/>
     <path d="m422.11 476.35c-1.3528-9.9859 0.28173 0.0565 0.28173-1.4299-0.97068-1.2713-0.24286-21.543 2.2311-25.51 18.178-8.7739 30.403-5.6227 48.035-9.3252 0 3.8189 0.30133 10.495 0.30133 14.456-1.4874 4.1356-2.2361 1.034-0.38322 11.112-14.129 6.271-36.616 5.0894-50.466 10.698z" fill="#a47f00"/>
     <path d="m472.22 465.43c-10.74 4.6547-41.744 13.243-50.052 14.684-0.0659-7.3816-1.4523-26.618-0.51176-31.934 9.0687-2.8194 46.441-6.5859 51.326-7.9869-0.69913 17.497 0.75731 7.3322-0.7613 25.237z" fill="url(#bs)"/>
     <path d="m423.93 449.23c1.3763 3.7361 5.05-0.62013 6.7622 0.0191 1.3592 0.01 9.1836-1.2639 11.245-3.1625 4.6679-0.71494 11.595-2.8026 14.54-2.5864 3.7628-2.5421 12.761-2.1896 16.295-3.6336 0.65376-12.428 0.80757-7.6061 0.7167-17.415-3.3554 2.1752-7.9373 2.644-11.296 3.3929-1.9187-0.86415-14.944 3.3326-16.864 3.7607-2.3247 0.5184-16.804 3.6602-20.44 4.1209 0.0129 7.8601-1.52 5.0439-0.95895 15.504z" fill="url(#bt)" stroke="#000" stroke-width=".352"/>
     <path d="m488.21 471.45c0.82514-3.8936-0.69867-27.582-0.69867-30.331 0-3.2827-0.23828-21.066-0.23828-23.532-5.6957 2.1611-8.4102 3.2262-14.241 5.6114 0 2.0276-0.0809 16.261-0.25602 23.881 0 3.279-0.20591 27.947-0.20591 30.742 4.9616-1.9831 13.368-5.4414 15.64-6.3708z" fill="url(#bu)" stroke="#280000" stroke-width=".569"/>
     <path d="m409.43 499.78c-2.0517-0.46266 0.0698-28.702 0.0698-32.293 0-3.5262 1.272-14.383 0.78836-30.784 5.4983-2.1544 9.7454-3.5479 14.98-5.2358-1.3819 2.8761-3.6081 27.845-3.6081 31.305 0 3.3677-1.5288 31.199 0.7959 31.723 0 0.88013-9.4271 3.8741-13.026 5.2843z" fill="url(#bv)" stroke="#380000" stroke-width=".604"/>
     <path d="m420.71 493.17c1.3763 3.7361 5.05-0.62013 6.7622 0.019 1.3592 0.01 9.1836-1.2639 11.245-3.1625 4.6679-0.71491 11.595-5.0564 14.54-4.8402 3.7628-2.5421 15.296-7.2207 18.83-8.6648 0.65376-12.428-1.728-0.32104-1.8189-10.13-3.3554 2.1752-7.9373 2.644-11.296 3.3929-1.9187-0.86415-14.944 3.3325-16.864 3.7606-2.3247 0.5184-16.804 3.6602-20.44 4.1209 0.0129 7.8601-1.52 5.044-0.95895 15.504z" fill="url(#bw)" stroke="#000" stroke-width=".352"/>
    </g>
   </g>
  </g>
 </g>
</svg>
