<?xml version="1.0" encoding="UTF-8"?>
<svg viewBox="0 0 128 128" xmlns="http://www.w3.org/2000/svg" xmlns:xlink="http://www.w3.org/1999/xlink">
 <defs>
  <filter id="br">
   <feGaussianBlur stdDeviation="2.14844"/>
  </filter>
  <linearGradient id="a">
   <stop stop-color="#b1b1b1" offset="0"/>
   <stop stop-color="#e4e4e4" offset="1"/>
  </linearGradient>
  <linearGradient id="bq" x1="89.531" x2="95.219" y1="114.97" y2="122.31" gradientUnits="userSpaceOnUse" xlink:href="#a"/>
  <linearGradient id="bp" x1="96.564" x2="98.399" y1="113.87" y2="103.48" gradientUnits="userSpaceOnUse" xlink:href="#a"/>
  <linearGradient id="bo" x1="99.01" x2="104.21" y1="118.89" y2="108.98" gradientUnits="userSpaceOnUse" xlink:href="#a"/>
  <linearGradient id="bn" x1="62.011" x2="106.47" y1="98.707" y2="71.309" gradientUnits="userSpaceOnUse" xlink:href="#a"/>
  <linearGradient id="bm" x1="51.37" x2="54.734" y1="84.641" y2="96.016" gradientUnits="userSpaceOnUse" xlink:href="#a"/>
  <linearGradient id="bl" x1="63.173" x2="62.99" y1="81.522" y2="80.727" gradientUnits="userSpaceOnUse" xlink:href="#a"/>
  <linearGradient id="bk" x1="76.016" x2="76.138" y1="80.788" y2="80.391" gradientUnits="userSpaceOnUse" xlink:href="#a"/>
  <linearGradient id="bj" x1="84.761" x2="85.709" y1="77.364" y2="78.587" gradientUnits="userSpaceOnUse" xlink:href="#a"/>
  <linearGradient id="bi" x1="97.726" x2="97.909" y1="75.59" y2="74.856" gradientUnits="userSpaceOnUse" xlink:href="#a"/>
  <linearGradient id="bh" x1="113.01" x2="113.08" y1="79.504" y2="78.587" gradientUnits="userSpaceOnUse" xlink:href="#a"/>
  <linearGradient id="bg" x1="34.614" x2="36.815" y1="95.771" y2="105.07" gradientUnits="userSpaceOnUse" xlink:href="#a"/>
  <linearGradient id="bf" x1="33.391" x2="34.186" y1="102.13" y2="102.31" gradientUnits="userSpaceOnUse" xlink:href="#a"/>
  <linearGradient id="be" x1="38.161" x2="38.589" y1="96.78" y2="102.71" gradientUnits="userSpaceOnUse" xlink:href="#a"/>
  <linearGradient id="bd" x1="19.998" x2="33.452" y1="83.601" y2="109.65" gradientUnits="userSpaceOnUse" xlink:href="#a"/>
  <linearGradient id="bc" x1="12.904" x2="11.925" y1="77.241" y2="78.587" gradientUnits="userSpaceOnUse" xlink:href="#a"/>
  <linearGradient id="bb" x1="26.48" x2="26.052" y1="80.544" y2="81.4" gradientUnits="userSpaceOnUse" xlink:href="#a"/>
  <linearGradient id="ba" x1="40.546" x2="41.647" y1="100.11" y2="100.05" gradientUnits="userSpaceOnUse" xlink:href="#a"/>
  <linearGradient id="az" x1="43.909" x2="43.237" y1="104.33" y2="104.82" gradientUnits="userSpaceOnUse" xlink:href="#a"/>
  <linearGradient id="ay" x1="39.017" x2="53.633" y1="84.947" y2="98.829" gradientUnits="userSpaceOnUse" xlink:href="#a"/>
  <linearGradient id="ax" x1="37.182" x2="41.952" y1="64.337" y2="69.413" gradientUnits="userSpaceOnUse" xlink:href="#a"/>
  <linearGradient id="aw" x1="17.49" x2="21.16" y1="42.199" y2="47.581" gradientUnits="userSpaceOnUse" xlink:href="#a"/>
  <linearGradient id="av" x1="28.193" x2="32.535" y1="47.459" y2="42.75" gradientUnits="userSpaceOnUse" xlink:href="#a"/>
  <linearGradient id="au" x1="23.667" x2="22.658" y1="43.055" y2="36.084" gradientUnits="userSpaceOnUse" xlink:href="#a"/>
  <linearGradient id="at" x1="49.413" x2="50.086" y1="60.699" y2="56.877" gradientUnits="userSpaceOnUse" xlink:href="#a"/>
  <linearGradient id="as" x1="43.359" x2="45.928" y1="58.895" y2="56.999" gradientUnits="userSpaceOnUse" xlink:href="#a"/>
  <linearGradient id="ar" x1="41.433" x2="41.952" y1="59.781" y2="61.616" gradientUnits="userSpaceOnUse" xlink:href="#a"/>
  <linearGradient id="aq" x1="38.834" x2="39.506" y1="61.83" y2="59.934" gradientUnits="userSpaceOnUse" xlink:href="#a"/>
  <linearGradient id="ap" x1="35.653" x2="37.244" y1="60.913" y2="58.65" gradientUnits="userSpaceOnUse" xlink:href="#a"/>
  <linearGradient id="ao" x1="33.635" x2="34.247" y1="58.161" y2="57.182" gradientUnits="userSpaceOnUse" xlink:href="#a"/>
  <linearGradient id="an" x1="29.538" x2="32.412" y1="56.571" y2="56.082" gradientUnits="userSpaceOnUse" xlink:href="#a"/>
  <linearGradient id="am" x1="30.945" x2="31.74" y1="53.513" y2="55.103" gradientUnits="userSpaceOnUse" xlink:href="#a"/>
  <linearGradient id="al" x1="31.984" x2="34.247" y1="52.351" y2="49.293" gradientUnits="userSpaceOnUse" xlink:href="#a"/>
  <linearGradient id="ak" x1="37.61" x2="38.344" y1="52.351" y2="51.434" gradientUnits="userSpaceOnUse" xlink:href="#a"/>
  <linearGradient id="aj" x1="38.772" x2="38.895" y1="49.844" y2="51.617" gradientUnits="userSpaceOnUse" xlink:href="#a"/>
  <linearGradient id="ai" x1="41.891" x2="41.83" y1="49.783" y2="49.11" gradientUnits="userSpaceOnUse" xlink:href="#a"/>
  <linearGradient id="ah" x1="45.622" x2="48.068" y1="54.308" y2="53.146" gradientUnits="userSpaceOnUse" xlink:href="#a"/>
  <linearGradient id="ag" x1="39.384" x2="43.359" y1="59.445" y2="54.553" gradientUnits="userSpaceOnUse" xlink:href="#a"/>
  <linearGradient id="af" x1="34.736" x2="42.319" y1="54.553" y2="50.516" gradientUnits="userSpaceOnUse" xlink:href="#a"/>
  <linearGradient id="ae" x1="67.76" x2="67.638" y1="31.252" y2="26.482" gradientUnits="userSpaceOnUse" xlink:href="#a"/>
  <linearGradient id="ad" x1="69.717" x2="73.08" y1="33.271" y2="26.544" gradientUnits="userSpaceOnUse" xlink:href="#a"/>
  <linearGradient id="ac" x1="62.745" x2="67.821" y1="31.803" y2="36.023" gradientUnits="userSpaceOnUse" xlink:href="#a"/>
  <linearGradient id="ab" x1="35.898" x2="35.776" y1="25.137" y2="25.932" gradientUnits="userSpaceOnUse" xlink:href="#a"/>
  <linearGradient id="aa" x1="45.194" x2="43.971" y1="28.134" y2="29.54" gradientUnits="userSpaceOnUse" xlink:href="#a"/>
  <linearGradient id="z" x1="52.899" x2="53.511" y1="34.249" y2="32.659" gradientUnits="userSpaceOnUse" xlink:href="#a"/>
  <linearGradient id="y" x1="58.954" x2="60.116" y1="37.918" y2="36.818" gradientUnits="userSpaceOnUse" xlink:href="#a"/>
  <linearGradient id="x" x1="64.702" x2="64.029" y1="39.875" y2="40.915" gradientUnits="userSpaceOnUse" xlink:href="#a"/>
  <linearGradient id="w" x1="51.493" x2="67.393" y1="35.411" y2="66.6" gradientUnits="userSpaceOnUse" xlink:href="#a"/>
  <linearGradient id="v" x1="67.148" x2="79.502" y1="39.264" y2="62.747" gradientUnits="userSpaceOnUse" xlink:href="#a"/>
  <linearGradient id="u" x1="74.976" x2="74.12" y1="44.156" y2="45.441" gradientUnits="userSpaceOnUse" xlink:href="#a"/>
  <linearGradient id="t" x1="80.174" x2="81.764" y1="54.002" y2="53.635" gradientUnits="userSpaceOnUse" xlink:href="#a"/>
  <linearGradient id="s" x1="83.477" x2="82.498" y1="61.769" y2="62.136" gradientUnits="userSpaceOnUse" xlink:href="#a"/>
  <linearGradient id="r" x1="61.155" x2="61.706" y1="52.901" y2="53.207" gradientUnits="userSpaceOnUse" xlink:href="#a"/>
  <linearGradient id="q" x1="63.54" x2="65.13" y1="45.563" y2="46.236" gradientUnits="userSpaceOnUse" xlink:href="#a"/>
  <linearGradient id="p" x1="79.685" x2="80.174" y1="33.271" y2="34.188" gradientUnits="userSpaceOnUse" xlink:href="#a"/>
  <linearGradient id="o" x1="75.404" x2="92.834" y1="39.264" y2="46.664" gradientUnits="userSpaceOnUse" xlink:href="#a"/>
  <linearGradient id="n" x1="106.29" x2="105.74" y1="25.443" y2="26.238" gradientUnits="userSpaceOnUse" xlink:href="#a"/>
  <linearGradient id="m" x1="114.12" x2="112.89" y1="31.252" y2="31.65" gradientUnits="userSpaceOnUse" xlink:href="#a"/>
  <linearGradient id="l" x1="114.67" x2="115.16" gradientUnits="userSpaceOnUse" xlink:href="#a"/>
  <linearGradient id="k" x1="107.63" x2="106.35" y1="30.029" y2="39.57" gradientUnits="userSpaceOnUse" xlink:href="#a"/>
  <linearGradient id="j" x1="100.78" x2="112.22" y1="33.638" y2="46.725" gradientUnits="userSpaceOnUse" xlink:href="#a"/>
  <linearGradient id="i" x1="99.438" x2="98.674" y1="24.158" y2="24.709" gradientUnits="userSpaceOnUse" xlink:href="#a"/>
  <linearGradient id="h" x1="101.58" x2="100.78" y1="27.522" y2="27.706" gradientUnits="userSpaceOnUse" xlink:href="#a"/>
  <linearGradient id="g" x1="105.98" x2="105.68" y1="31.314" y2="32.537" gradientUnits="userSpaceOnUse" xlink:href="#a"/>
  <linearGradient id="f" x1="111.91" x2="110.94" y1="36.084" y2="36.756" gradientUnits="userSpaceOnUse" xlink:href="#a"/>
  <linearGradient id="e" x1="109.35" x2="116.01" y1="46.236" y2="59.873" gradientUnits="userSpaceOnUse" xlink:href="#a"/>
  <linearGradient id="d" x1="110.94" x2="110.17" y1="40.365" y2="40.548" gradientUnits="userSpaceOnUse" xlink:href="#a"/>
  <linearGradient id="c" x1="115.83" x2="114.85" y1="48.009" y2="48.682" gradientUnits="userSpaceOnUse" xlink:href="#a"/>
  <linearGradient id="b" x1="120.23" x2="121.58" y1="58.895" y2="58.711" gradientUnits="userSpaceOnUse" xlink:href="#a"/>
 </defs>
 <path d="m30.094 24.219-3.8125 1.5625 37.188 23.531-6.0312 6.375 1.5312 0.6875 8.3125-2.25 14.188 11.25-10.375-18.312 18-6.0625 14.875 5.875 11.938 11.594 2.5938-2.0938-21.125-25.406-31.469 7.25-2.4375 3.6562-33.375-17.656zm36.844 2.75-6.2188 5.9062 2.0625 1.0312 7.4375-4.8438-3.2812-2.0938zm-50.125 9.4688-6.5 5.7188 6.5 2.0938-8.8438 1.9375 1.9062 5.875 6.375 6.75 5.375 25.438-16.438-10.219-3.9688 1.0312s24.895 22.852 26.625 24.062l0.1875-6.75 11.406-2.5938 15.062 9.8438 59.156-19.719s-11.947-4.4912-15.406-5.875-26.281 10.031-26.281 10.031l-7.4375-3.625-20.25 1.7188-15.906-26.125 0.84375-8.125-2.9375-6.5625-9.4688-4.9062zm78.656 70.406c-2.2016-0.1319-12.281 12.844-12.281 12.844l8.3125 2.0938 12.125-11.25s-6.239-2.5872-7.9688-3.625c-0.05405-0.03243-0.11648-0.05825-0.1875-0.0625z" fill-opacity=".66667" fill-rule="evenodd" filter="url(#br)"/>
 <path d="m85.189 112.28 12.353 4.1586 0.48924 8.1336-2.9354-1.1008-0.73386-1.8347-0.97848 0.61155-0.48924-1.2843-1.2231 0.91733-6.4213-2.9354-0.06115-6.6659z" fill="url(#bq)" fill-rule="evenodd"/>
 <path d="m85.373 112.28 10.458-10.519 1.3454-0.06116 1.59-1.0396 0.5504-1.4677 1.3454 1.162 0.91733-0.73386 7.0328 2.752-11.13 14.066-12.109-4.1586z" fill="url(#bp)" fill-rule="evenodd"/>
 <path d="m97.359 116.5 11.191-14.127 0.55039 6.6659-11.008 15.411-0.73386-7.9502z" fill="url(#bo)" fill-rule="evenodd"/>
 <path d="m52.288 105.07-0.79502-18.775 2.3239-2.0181 18.347-4.2809 7.2163 2.385 14.371-8.1336 12.965 5.0147 5.8709 0.5504 0.67271 0.61155 0.79501-0.42809 1.0396 1.0396 0.18347-1.1008 4.2809 0.48924-12.843 4.8924-54.428 19.753z" fill="url(#bn)" fill-rule="evenodd"/>
 <path d="m51.432 86.109-0.06116-2.4462 0.42809-0.48924 1.8958 1.162-2.2627 1.7735z" fill="url(#bm)" fill-rule="evenodd"/>
 <path d="m51.982 83.173 1.957 1.2843 18.347-4.4643-1.162-1.4677-19.386 4.342 0.24462 0.30578z" fill="url(#bl)" fill-rule="evenodd"/>
 <path d="m71.246 78.587 6.5436 2.0793 1.59 1.5289-6.8494-2.0793-1.2843-1.5289z" fill="url(#bk)" fill-rule="evenodd"/>
 <path d="m77.789 80.666 14.31-7.8279 1.5289 1.4677-14.188 8.1336-1.6512-1.7735z" fill="url(#bj)" fill-rule="evenodd"/>
 <path d="m91.977 72.899 14.005 4.8924 0.67271 1.2843-13.026-4.8924-1.6512-1.2843z" fill="url(#bi)" fill-rule="evenodd"/>
 <path d="m105.92 77.792 11.742 1.3454 1.8958 1.2231-4.0974-0.42809-0.36693 1.1008-1.0396-1.1008-0.6727 0.5504-0.91733-0.73386-5.6263-0.42809-0.91733-1.5289z" fill="url(#bh)" fill-rule="evenodd"/>
 <path d="m31.067 92.591 3.7305 2.385 2.6908 3.4247-2.4462 0.97848-4.4032-6.1767 0.42809-0.61155z" fill="url(#bg)" fill-rule="evenodd"/>
 <path d="m32.657 101.4 2.1404-1.957 2.752-0.85617-2.5685 2.385-0.5504 2.3239-2.8743 0.73386 1.1008-2.6297z" fill="url(#bf)" fill-rule="evenodd"/>
 <path d="m36.265 99.93 1.4066-1.59-3.1189-3.3635 4.5866 0.61155 0.5504 2.9966-3.4247 1.3454z" fill="url(#be)" fill-rule="evenodd"/>
 <path d="m31.067 84.396c-0.61155-0.18346-12.72-6.4213-12.72-6.4213l-2.5685 1.162-1.1008 1.2843-7.1552-4.7701-4.0362-0.97848 28.07 29.416 0.5504-1.0396 0.73386-1.8347 2.2016-1.8346-4.2809-6.1155c0.25122-2.926 0.81012-5.7904 0.30578-8.8675z" fill="url(#bd)" fill-rule="evenodd"/>
 <path d="m7.5832 75.407-4.1586-0.85617 2.5685-0.91733 3.8528 0.73386 6.3601 4.7701-1.4677 1.2843-7.1552-5.0147z" fill="url(#bc)" fill-rule="evenodd"/>
 <path d="m20.976 76.997-2.3239 0.85617 12.476 6.4213 0.12231-2.2627-10.274-5.0147z" fill="url(#bb)" fill-rule="evenodd"/>
 <path d="m39.2 95.649 1.0396 6.1155 2.4462 0.6727-2.385-6.9105-1.1008 0.12231z" fill="url(#ba)" fill-rule="evenodd"/>
 <path d="m40.301 101.76c0.61155 0.55039 2.4462 0.73386 2.4462 0.73386l5.0759 4.342-0.79502 3.1189-1.957-1.3454-4.7701-6.8494z" fill="url(#az)" fill-rule="evenodd"/>
 <path d="m31.862 65.927-1.0396 26.602 3.7305 2.3239 5.6263 0.85617 2.3239 6.5436 5.1982 4.709-0.5504 2.8131 5.504-3.1189-1.2843-22.505-1.2843-18.591-2.4462 1.6512-3.4247 0.91733-4.0362 0.12231-3.7305-0.48924-3.547-1.4677-1.0396-0.36693z" fill="url(#ay)" fill-rule="evenodd"/>
 <path d="m29.66 57.06-0.18347 1.2843 0.30578 5.3205 1.4677 1.6512 2.5074 1.59 1.957 0.73386s5.8709 0.5504 6.6659 0.79502 7.2775-2.1404 7.2775-2.1404l2.3239-2.6908-0.61155-4.1586-2.2627 2.0793-0.36693-2.8131-2.9354 0.79502-3.9139 0.48924-0.24462 2.6908h-2.6297l-3.7305-0.5504v-2.8131l-2.8131-0.67271-1.957-1.7735-0.30578 1.2231-0.5504-1.0396z" fill="url(#ax)" fill-rule="evenodd"/>
 <path d="m12.231 38.713 14.677 6.6659 0.24462 3.4247-15.289-6.7271 0.06115-3.2412 0.30578-0.12231z" fill="url(#aw)" fill-rule="evenodd"/>
 <path d="m26.908 45.318 6.3601-3.547 0.48924 3.6082-6.5436 3.4247-0.30578-3.4858z" fill="url(#av)" fill-rule="evenodd"/>
 <path d="m16.634 36.084-4.4032 2.5685 14.616 6.6659 6.2378-3.547-16.451-5.6874z" fill="url(#au)" fill-rule="evenodd"/>
 <path d="m49.23 56.877-0.91733 1.0396 0.36693 0.79502 0.42809 2.6297 2.1404-1.8958-2.0181-2.5685z" fill="url(#at)" fill-rule="evenodd"/>
 <path d="m47.64 56.143c0.18347 0.61155 0.97848 2.5685 0.97848 2.5685l-4.342 1.1008h-2.385l-0.67271-1.957 0.97848 0.12231 3.1801-0.85617 2.2627-0.97848z" fill="url(#as)" fill-rule="evenodd"/>
 <path d="m41.341 62.564-0.42809-1.957 0.12231-2.5074 0.91733 1.8958-0.61155 2.5685z" fill="url(#ar)" fill-rule="evenodd"/>
 <path d="m40.974 60.913 0.30578 1.7735h-2.5074l-2.9966-0.48924-0.30578-0.30578 2.0181-1.4066 1.4677 0.42809h2.0181z" fill="url(#aq)" fill-rule="evenodd"/>
 <path d="m35.225 59.323v2.6908l2.4462-1.6512-0.36693-2.1404-2.0793 1.1008z" fill="url(#ap)" fill-rule="evenodd"/>
 <path d="m30.455 56.877 2.2016-0.79502 1.2231 0.97848 3.3024 1.1008-1.957 1.0396-2.6297-0.5504-1.3454-0.73386-0.79502-1.0396z" fill="url(#ao)" fill-rule="evenodd"/>
 <path d="m30.08835,58.16078-.5504-1.28426 .48924-1.89581 2.20159.5504 .18347.73386-1.83466.67271-.48924,1.2231z" fill="url(#an)" fill-rule="evenodd"/>
 <path d="m30.027 52.29 2.2627 0.97848v2.2627l-2.3239-0.5504 0.06116-2.6908z" fill="url(#am)" fill-rule="evenodd"/>
 <path d="m30.088 52.229 2.0181 0.97848 1.6512-1.4677 2.3239-0.79502-1.59-1.6512-2.5685 1.2231-1.8347 1.7124z" fill="url(#al)" fill-rule="evenodd"/>
 <path d="m36.32618,51.61718 1.10079-.12231 1.03964-.36693 .97848,1.40657-1.10079.36693-1.2231.12231-.5504-.06115-.24462-1.34541z" fill="url(#ak)" fill-rule="evenodd"/>
 <path d="m38.222 48.559 1.2231 1.7735 0.12231 2.1404-1.2843-1.4066-0.06115-2.5074z" fill="url(#aj)" fill-rule="evenodd"/>
 <path d="m38.405 48.621 2.5685-0.12231 2.5685 1.4066 0.67271 1.8958-2.385-1.7123h-2.3239l-1.1008-1.4677z" fill="url(#ai)" fill-rule="evenodd"/>
 <path d="m44.766 53.146 2.1404 0.24462 0.73386 2.2016-3.1801-0.85617 0.67271-0.5504-0.36693-1.0396z" fill="url(#ah)" fill-rule="evenodd"/>
 <path d="m44.94906,54.12454c-.24462,0-2.93545-.36693-2.93545-.36693l-2.50736.24462-2.75198.79502-1.65119.79502-1.52888,1.34541 .91733.42809 2.75198.85617 .30578,2.3239 1.71234.42809 1.65119-.12231 .30578-2.75198 2.01812-.24462 2.44621-.85617 2.01812-.79502 .5504,1.7735 .67271-.18347 .36693-.73386-1.52888-1.59004-3.36354-.67271 .5504-.67271z" fill="url(#ag)" fill-rule="evenodd"/>
 <path d="m32.168 56.02 0.06115-2.6908 1.8347-1.6512 2.2016-0.67271 0.36693 2.0793 0.91733-0.06115 2.0181-0.48924-0.06115-2.2016 2.0181-0.24462 2.8743 1.7735 0.61155 2.3239-2.385-0.48924-3.3635 0.30578-3.2412 0.79502-1.3454 1.2231-0.97848 0.79502-1.5289-0.79502z" fill="url(#af)" fill-rule="evenodd"/>
 <path d="m61.95 30.335 5.8097 2.0793 5.5651-6.9717-4.9536-1.7123-6.4213 6.6048z" fill="url(#ae)" fill-rule="evenodd"/>
 <path d="m67.821 32.414 5.7486-7.0328v3.3635l-4.5866 6.8494-0.42809-0.61155-0.42809-0.5504-0.30578-2.0181z" fill="url(#ad)" fill-rule="evenodd"/>
 <path d="m67.882 32.353-5.9932-1.957-0.18346 2.9966 5.137 2.6297 0.5504-0.73386 0.61155 0.30578 0.24462-0.36693-0.36693-2.8743z" fill="url(#ac)" fill-rule="evenodd"/>
 <path d="m40.424 24.77c-0.61155-0.18346-9.1733 0.24462-9.1733 0.24462l-2.2016 0.79502 8.7452 0.12231 2.6297-1.162z" fill="url(#ab)" fill-rule="evenodd"/>
 <path d="m40.485 24.892 8.9287 6.2378-2.6297 1.2231-8.9898-6.3601 2.6908-1.1008z" fill="url(#aa)" fill-rule="evenodd"/>
 <path d="m49.23 31.069 8.684 2.8743-2.752 1.2231-8.256-2.9354 2.3239-1.162z" fill="url(#z)" fill-rule="evenodd"/>
 <path d="m57.853 33.882c0 0.36693 5.6263 5.6874 5.6263 5.6874l-2.752 1.2231-5.6263-5.6874 2.752-1.2231z" fill="url(#y)" fill-rule="evenodd"/>
 <path d="m61.094 40.915 3.6693 0.30578 0.30578-0.61155 1.8958-1.0396h-3.4858l-2.385 1.3454z" fill="url(#x)" fill-rule="evenodd"/>
 <path d="m30.272 26.177 7.5832-0.12231 8.9287 6.3601 8.3783 2.8743 5.8097 5.5651 3.9751 0.12231-3.3024 9.1121-31.495-23.606 0.12231-0.30578z" fill="url(#w)" fill-rule="evenodd"/>
 <path d="m69.167 54.675-0.06115-12.109 8.5006 5.9932 3.3024 10.396 1.7735 8.4394-13.515-12.72z" fill="url(#v)" fill-rule="evenodd"/>
 <path d="m69.289 42.26 2.5074-0.91733 8.3171 6.1767-2.8743 0.85617-8.3783-5.932 0.42809-0.18347z" fill="url(#u)" fill-rule="evenodd"/>
 <path d="m77.484 48.376 2.8131-0.85617 3.3024 10.274-2.752 0.91733-3.3635-10.335z" fill="url(#t)" fill-rule="evenodd"/>
 <path d="m80.969 58.833 2.6297-1.1008 1.4677 9.051-2.385 0.79502-1.7123-8.7452z" fill="url(#s)" fill-rule="evenodd"/>
 <path d="m63.907 51.801-2.4462-1.4066-3.1189 5.9932 1.7124 1.162 3.8528-5.7486z" fill="url(#r)" fill-rule="evenodd"/>
 <path d="m64.824 40.793-3.3024 9.7848 2.2627 1.1008 1.7735-2.8743 1.6512-6.9105-2.385-1.1008z" fill="url(#q)" fill-rule="evenodd"/>
 <path d="m64.886 40.67 30.088-15.289 1.7735 1.0396-29.538 15.533-2.3239-1.2843z" fill="url(#p)" fill-rule="evenodd"/>
 <path d="m60.36 57.243 5.0147-8.256 1.8958-7.094 29.477-15.533-0.67271 19.447-14.861 4.7701-1.162-3.2412-8.0725-6.1155-3.1801 1.162 0.42809 12.231-8.8675 2.6297z" fill="url(#o)" fill-rule="evenodd"/>
 <path d="m98.888 21.773 3.3024 2.8131 3.6693 1.8347 5.1982 3.547 2.385-0.85617-5.8097-3.7305-4.1586-1.3454-3.1801-2.6908-1.4066 0.42809z" fill="url(#n)" fill-rule="evenodd"/>
 <path d="m113.38 29.234 2.6297 3.9751-2.5074 0.85617-2.3239-4.1586 2.2016-0.67271z" fill="url(#m)" fill-rule="evenodd"/>
 <path d="m113.75 34.188 0.79501 4.0362 1.162 0.85617 0.24462-5.9932-2.2016 1.1008z" fill="url(#l)" fill-rule="evenodd"/>
 <path d="m98.888 21.712 3.2412 3.1189 3.6082 1.4677 5.4428 3.6693 2.5685 4.1586 0.79501 4.2197-1.4677-0.91733-1.7735-4.2197-8.5617-4.0362-0.61155-3.8528-3.4858-2.2016-0.48924-0.36693 0.79502-0.24462-0.06115-0.79502z" fill="url(#k)" fill-rule="evenodd"/>
 <path d="m94.974 22.324c0.61155 0.42809 5.1982 3.7305 5.1982 3.7305l0.36693 4.1586 8.684 3.9751 0.30578 0.85617 1.4066 3.6693 0.12231-0.36693 4.6478 1.0396 0.36693 5.504-1.0396 0.5504-7.5221 2.9966-3.6082 0.36693-4.2809-1.1008-3.6082-1.8958 0.5504-19.57-1.7735-1.0396 0.18346-2.8743z" fill="url(#j)" fill-rule="evenodd"/>
 <path d="m95.219 22.507 1.6512-0.42809 5.2593 2.9966-2.2016 0.61155-4.709-3.1801z" fill="url(#i)" fill-rule="evenodd"/>
 <path d="m100.11 25.871 0.42809 4.4032 2.1404-1.4066-0.48924-3.7305-2.0793 0.73386z" fill="url(#h)" fill-rule="evenodd"/>
 <path d="m100.84 30.091 1.8347-0.85617 8.8064 4.0974-2.4462 0.73386-8.1948-3.9751z" fill="url(#g)" fill-rule="evenodd"/>
 <path d="m108.98 34.066 2.3239-0.73386 1.7123 3.8528 2.5685 1.8346-4.9536-0.91733-0.91733-3.3024-0.73386-0.73386z" fill="url(#f)" fill-rule="evenodd"/>
 <path d="m94.974 22.324c0.61155 0.42809 5.1982 3.7305 5.1982 3.7305l0.36693 4.1586 8.684 3.9751 0.30578 0.85617 1.4066 3.6693 0.12231-0.36693 4.6478 1.0396 0.36693 5.504-1.0396 0.5504-7.5221 2.9966-3.6082 0.36693-4.2809-1.1008-3.6082-1.8958 0.5504-19.57-1.7735-1.0396 0.18346-2.8743z" fill-opacity=".15686" fill-rule="evenodd"/>
 <path d="m107.45 35.961v12.292l12.476 15.472-0.79502-8.9287-9.2956-10.886-2.0181-7.2775-0.36693-0.67271z" fill="url(#e)" fill-rule="evenodd"/>
 <path d="m107.39 35.717 2.1404-0.79502 3.4247 8.5617-2.8131 0.85617-2.385-7.2775-0.36693-1.3454z" fill="url(#d)" fill-rule="evenodd"/>
 <path d="m110.32 44.34 2.5074-1.1008 9.1733 10.702-2.8743 1.1008-8.8063-10.702z" fill="url(#c)" fill-rule="evenodd"/>
 <path d="m119.31 54.858 0.5504 9.051 0.55039 0.36693 2.2016-1.3454-0.67271-9.051-2.6297 0.97848z" fill="url(#b)" fill-rule="evenodd"/>
 <path d="m85.189 112.28 12.353 4.1586 0.48924 8.1336-2.9354-1.1008-0.73386-1.8347-0.97848 0.61155-0.48924-1.2843-1.2231 0.91733-6.4213-2.9354-0.06115-6.6659z" fill-opacity=".15686" fill-rule="evenodd"/>
 <path d="m51.432 86.109-0.06116-2.4462 0.42809-0.48924 1.8958 1.162-2.2627 1.7735z" fill-opacity=".15686" fill-rule="evenodd"/>
 <path d="m77.789 80.666 14.31-7.8279 1.5289 1.4677-14.188 8.1336-1.6512-1.7735z" fill-opacity=".15686" fill-rule="evenodd"/>
 <path d="m32.657 101.4 2.1404-1.957 2.752-0.85617-2.5685 2.385-0.5504 2.3239-2.8743 0.73386 1.1008-2.6297z" fill-opacity=".15686" fill-rule="evenodd"/>
 <path d="m36.265 99.93 1.4066-1.59-3.1189-3.3635 4.5866 0.61155 0.5504 2.9966-3.4247 1.3454z" fill-opacity=".15686" fill-rule="evenodd"/>
 <path d="m31.067 84.396c-0.61155-0.18346-12.72-6.4213-12.72-6.4213l-2.5685 1.162-1.1008 1.2843-7.1552-4.7701-4.0362-0.97848 28.07 29.416 0.5504-1.0396 0.73386-1.8347 2.2016-1.8346-4.2809-6.1155c0.25122-2.926 0.81012-5.7904 0.30578-8.8675z" fill-opacity=".15686" fill-rule="evenodd"/>
 <path d="m39.2 95.649 1.0396 6.1155 2.4462 0.6727-2.385-6.9105-1.1008 0.12231z" fill-opacity=".15686" fill-rule="evenodd"/>
 <path d="m40.301 101.76c0.61155 0.55039 2.4462 0.73386 2.4462 0.73386l5.0759 4.342-0.79502 3.1189-1.957-1.3454-4.7701-6.8494z" fill-opacity=".15686" fill-rule="evenodd"/>
 <path d="m41.341 62.564-0.42809-1.957 0.12231-2.5074 0.91733 1.8958-0.61155 2.5685z" fill-opacity=".15686" fill-rule="evenodd"/>
 <path d="m30.027 52.29 2.2627 0.97848v2.2627l-2.3239-0.5504 0.06116-2.6908z" fill-opacity=".15686" fill-rule="evenodd"/>
 <path d="m38.222 48.559 1.2231 1.7735 0.12231 2.1404-1.2843-1.4066-0.06115-2.5074z" fill-opacity=".15686" fill-rule="evenodd"/>
 <path d="m32.168 56.02 0.06115-2.6908 1.8347-1.6512 2.2016-0.67271 0.36693 2.0793 0.91733-0.06115 2.0181-0.48924-0.06115-2.2016 2.0181-0.24462 2.8743 1.7735 0.61155 2.3239-2.385-0.48924-3.3635 0.30578-3.2412 0.79502-1.3454 1.2231-0.97848 0.79502-1.5289-0.79502z" fill-opacity=".15686" fill-rule="evenodd"/>
 <path d="m12.231 38.713 14.677 6.6659 0.24462 3.4247-15.289-6.7271 0.06115-3.2412 0.30578-0.12231z" fill-opacity=".15686" fill-rule="evenodd"/>
 <path d="m67.882 32.353-5.9932-1.957-0.18346 2.9966 5.137 2.6297 0.5504-0.73386 0.61155 0.30578 0.24462-0.36693-0.36693-2.8743z" fill-opacity=".15686" fill-rule="evenodd"/>
 <path d="m61.094 40.915 3.6693 0.30578 0.30578-0.61155 1.8958-1.0396h-3.4858l-2.385 1.3454z" fill-opacity=".15686" fill-rule="evenodd"/>
 <path d="m30.272 26.177 7.5832-0.12231 8.9287 6.3601 8.3783 2.8743 5.8097 5.5651 3.9751 0.12231-3.3024 9.1121-31.495-23.606 0.12231-0.30578z" fill-opacity=".15686" fill-rule="evenodd"/>
 <path d="m69.167 54.675-0.06115-12.109 8.5006 5.9932 3.3024 10.396 1.7735 8.4394-13.515-12.72z" fill-opacity=".15686" fill-rule="evenodd"/>
 <path d="m63.907 51.801-2.4462-1.4066-3.1189 5.9932 1.7124 1.162 3.8528-5.7486z" fill-opacity=".15686" fill-rule="evenodd"/>
 <path d="m64.824 40.793-3.3024 9.7848 2.2627 1.1008 1.7735-2.8743 1.6512-6.9105-2.385-1.1008z" fill-opacity=".15686" fill-rule="evenodd"/>
 <path d="m98.888 21.712 3.2412 3.1189 3.6082 1.4677 5.4428 3.6693 2.5685 4.1586 0.79501 4.2197-1.4677-0.91733-1.7735-4.2197-8.5617-4.0362-0.61155-3.8528-3.4858-2.2016-0.48924-0.36693 0.79502-0.24462-0.06115-0.79502z" fill-opacity=".15686" fill-rule="evenodd"/>
 <path d="m107.45 35.961v12.292l12.476 15.472-0.79502-8.9287-9.2956-10.886-2.0181-7.2775-0.36693-0.67271z" fill-opacity=".15686" fill-rule="evenodd"/>
 <path d="m100.5,21.09375-1.75.375-.03125.96875-.625.03125-1.25-.59375-2,.4375-.1875,3.03125-27.65625,14.0625h-3.40625l-5.6875-5.71875-8.71875-2.8125-8.5625-6.21875-9.1875.125-2.65625.9375 32.53125,24.5-3.25,6.34375 1.78125,1.21875 9.0625-2.875 13.84375,12.875 2.375-.90625-1.46875-9.40625-2.25-6.75 14.25-4.6875c3.43573,2.56604 7.86093,3.29847 11.90625,2.71875l12.625,15.65625 2.5-1.40625-.4375-9.0625-7.09375-8.3125c.40333-.32477.78354-.66217 1.125-1.03125l-.3125-5.5625c.00268-1.39454.15332-4.15542.3125-5.875l-2.90625-4.21875c-1.98531-.76921-3.2214-2.14815-5-3.25-.19266-.13289-.41764-.23764-.65625-.34375-1.24577-.4858-2.68115-.84623-4-1.25l-3.21875-3zm-.1875.5c.15742.11793 1.39094,1.3304 2.78125,2.40625l-.96875.4375-2.9375-2.5625 1.125-.28125zm-1.28125.59375 2.4375,2.21875-2.78125-1.40625 .375-.46875-.03125-.34375zm-2.1875.125 4.625,2.8125-1.28125.46875-4.78125-3.03125 1.4375-.25zm-1.8125.28125 4.9375,3.625 .3125,3.96875-2.875,2.34375-.5,4.75 1.28125,3.0625-1.40625,2.25 .21875.0625 1.375-1.6875 2.46875,1.375-.03125,3.15625 .125-.125 .40625-2.625h1.59375l.0625-.0625-1.5625-.5-2.71875-1.78125-1.25-3.09375 .375-3.71875 1.8125,3.28125 3.71875.8125 .0625-.125-3.5-.78125-1.75-4-.28125.125 2.875-2.3125 8.53125,4.0625-2.03125.875-.15625,12.6875c-3.67808.76692-7.3891-.42265-10.6875-2.4375l.40625-19.53125-1.90625-1.0625c.02485-.87825.06977-1.71426.09375-2.59375zm-26.71875.90625-6.65152,6.72128-.06723,3.30997c1.51982.95326 3.68668,2.00286 5.27708,2.53554 .16074.05384.35123-.53753.6238-.48597 .31947.06044.50315.41572.61618.4457 .04417-.18619.03772-1.18603.3388-1.15922 .18299.01629.41448.90955.46547.83663 1.42056-2.03125 3.26395-4.76973 4.80366-6.89143l-.09375-3.37247-5.3125-1.94003zm.15625.375 4.5,1.625-5.25,6.625-1.34375-.5 .0625-.03125-.625-2.6875 3.09375-2.09375 1.6875-.0625v-.0625l-1.62027-.20422-.84848-2.01453-.01453.06723 .57703,2.05777-3.21875,1.96875 .34375,2.84375-3.65625-1.375 5.65152-5.58176 .66098-.57449zm35.03125.25c.92968.72778 2.35859,1.13093 3.5625,1.46875l-1.25.6875-3.34375-1.625c.29299-.34121.80649-.47733 1.03125-.53125zm-63.59375.875-2.15625.75h-8.25l1.96875-.59375 8.4375-.15625zm62.5625.0625 2.84375,1.34375 5.40625,3.53125 2.6875,4.3125 .9375,3.6875-.84375-.59375-2.0625-4.25-8.5625-4.125-.4375-3.625 .1875-.0625-.15625-.21875zm-61.9375.0625 8.46875,6-2.15625.96875-8.75-6.03125 2.4375-.9375zm61.3125.4375 .40625,3.4375-1.625.75-.21875-3.6875 1.4375-.5zm-6.75.0625 1.25.75-29.1875,15.375-1.9375-1.0625 29.875-15.0625zm-21.78125.1875v3c-1.55828,2.12869-3.0411,4.37447-4.53125,6.5625 .11363-.90013-.02527-1.94856.125-2.75l1.78125-.625 .625-3.15625-.125-.0625-.71875,2.84375-1.84375.8125c-.25314.41838-.35069.93851-.375,1.46875l-.125-1.59375 5.1875-6.5zm34.46875,0c.16653.06775.3169.16342.46875.25 1.06805,1.15321 3.18636,2.06771 4.59375,3.0625l-1.8125.53125-4.875-3.15625 1.625-.6875zm-70.375.5 9,6-.375,2.96875-.78125.96875 1.15625-.5625 3.34375,2.4375 .125-.125-3.34375-2.625 .625-2.75 7.78125,2.78125 5.90625,5.65625 3.71875.21875-3.09375,8.5-30.6875-23.40625 6.625-.0625zm59.09375.40625-.71875,18.96875-14.46875,4.6875-1.03125-3.0625-8.40625-6.1875-3.0625,1.09375 .09375,12.25-8.1875,2.6875 3.0625-5.0625 1.90625-.15625 1.875,1.625-.53125.90625h.0625l.9375-.9375-1.96875-1.8125 1.90625-2.65625-.75-1.3125h-.1875l.46875,1.15625-1.9375,2.5-1.40625.0625 1.5-2.46875 1.71875-6.84375 29.125-15.4375zm16.75,2.65625 2.1875,3.6875-1.75.625-2.25-3.59375 1.8125-.71875zm-10.75.125 8.1875,3.8125-1.59375.5625-8.15625-3.6875 1.5625-.6875zm-40.4375,1.125 3.34375,1.15625-.8125.625v.03125l-1.375.375-.125.0625 1.65625-.0625 .625,1.625 1.59375,1.03125-5.03125-2.1875 .125-2.65625zm-12.71875.71875 7.6875,2.65625-2.21875.875-7.5-2.5625 2.03125-.96875zm16.53125.59375 1.9375.65625 .25,2.90625-2.3125-1.375-.65625-1.625v-.125l.78125-.4375zm45.1875,1.53125 1.65625,4-1.90625.6875-.90625-3.125 .15625-.0625-.28125-.25-.5-.5625 1.78125-.6875zm4.5625.1875-.25,5-.84375-.59375-.625-3.6875 1.71875-.71875zm-57.90625.65625 5.40625,5.125-2.1875,1.0625-5.4375-5.1875 2.21875-1zm51.5625.9375 3.1875,8.0625-2.25.75-2.625-8.21875 1.6875-.59375zm-92.5625.8125-4.84122,2.61047-.1348,3.5723 15.45929,6.82703 6.5-3.63953-.35828-3.71402-16.625-5.65625zm.15625.34375 15.84375,5.34375-4.28125,2.4375-1.46875-.84375 .5625-2.75-2.90625-.65625-.48074.25473c-.39797-.34622-2.26397-1.00686-3.14426-1.31723l-.25-.0625c1.25117.85672 1.63399.76632 2.9375,1.40625l-2.90625.84375-.0625.0625 3.71875-.875 2.60794.625-.76419,2.78125 1.53125.875-.96875.5625-12.375-5.53125 1.1875-.21875v-.09375l1.90625-.1875-.0625-.1875-1.78125-.1875 .125-1.1875-.25-.125-.09375,1.375-2.03125.375-.875-.40625 4.28125-2.3125zm91.03125.78125 1.8125,7.125 6.3125,7.65625 3.15625,3.46875 .40625,7.5625-11.8125-14.9375 .125-10.875zm5.09375.5625 1.5.9375-3.0625-.46875 1.5625-.46875zm-1.84375.78125 4.40625,1.03125c.08482,1.75494.18925,3.77189.25,4.78125-.37348.28125-.73067.53367-1.09375.78125l-1.84375-2.15625-1.71875-4.4375zm-99.03125.46875 1.09375.46875 .625,1.65625v-.0625l.0625-1.28125 12.75,5.6875 .15625,3.0625-14.71622-6.46402 .02872-3.06723zm54.125.78125-1.40625.71875-.125.34375-3.09375-.09375 2.03125-.90625 2.59375-.0625zm-1.15625,1.15625 1.71875,1.03125-1.5,6.75-1.625,2.75-1.9375-1.09375 3.34375-9.4375zm6.71875.59375 7.78125,5.8125-2.21875.78125-8.03125-5.75 2.46875-.84375zm-38.625.40625 .375,3.21875-6.21875,3.46875-.1875-3.375 .90625-.5 .59375,1.125-.65625,1-.0625.125 1.15625-.8125 .75.125-.0625-.125-.65625-.4375-.46875-1.3125 4.53125-2.5zm36,.96875 8.09375,5.5625 3.3125,9.96875c-.69837.03126-1.52656.05389-2.1875,0l-.40625-2.65625-.09375-.03125-.375-3-.125-.03125 .125,2.875-2.5625-1-.15625.0625 2.65625,1.4375c.14447.67782.24049,1.48264.40625,2.1875l-1,1.375 .0625.21875 1.25-1.03125c.70152.44593 1.73643.28357 2.59375.28125l1.4375,7.59375-12.6875-12.09375-.34375-11.71875zm43.59375.53125 8.6875,10.5-2.15625.78125-2.9375-3.125-5.78125-7.09375 2.1875-1.0625zm-32.875,4.40625 3.46875,9.78125-2.375.8125-3.25-9.9375 2.15625-.65625zm-39.0625.46875c-.95231.00644-1.89348.05486-2.84375.09375l.125,2.625c-.47436.28324-1.0985.24648-1.625.40625l-.03125-.53125-1.90625-1.78125c-1.45553.75464-3.01051,1.05148-4.90625,3.15625l.1875,2.46875c-.80483,2.87118-.5589,6.0809-.375,9.03125 .43126.91545 1.23017,1.53666 2.03125,2.125l-.5,15.8125-10.03125-4.90625-2.75.9375c-.68653.48672-1.44147.71317-2.0625,1.125l-6.3125-4.6875-4.09375-.65625-2.5,1.0625 28.28125,29.71875 2.90625-1 .8125-2.46875 .78125-.6875c.4643-.41792 2.39036-1.07542 3.5-1.25l.5625,2.71875 4.875,7 1.6875,1.15625c.12463.13598.24339.27506.375.40625 2.24652-.74627 4.23994-1.90661 5.65625-3.4375l-.0625-1.40625 67.3125-24.84375-2.28125-1.4375-11.75-1.34375-13.9375-4.9375-14.21875,7.65625-6.75-2-19.03125,4.15625-.46875.53125-.90625-17.40625c.68184-.54851 1.06133-1.09679 1.40625-1.84375l.03125-1.03125-.5-3.5-2.3125-2.8125-.21875-.21875-1.1875-1.15625-.9375-1.90625-2-.28125-.40625-1.125h.03125l-1.03125-2.21875c-.54771-.35116-1.84695-.99928-2.625-1.3125zm.1875.40625 1.96875,1.03125 .59375,1.46875-1.8125-1.28125-.75-1.21875zm-1,.03125c.22942-.00682.47721-.00236.71875,0l.53125,1.03125c-.52647-.00016-1.08413.05465-1.71875.21875l-.65625-1.125c.39731-.07937.76591-.11433 1.125-.125zm-1.71875.1875 .84375,1.25 .28125,1.875-.96875-1.21875-.15625-1.90625zm-3.875.6875 1.1875,1.125c-1.42828.39652-2.42027.77562-3.40625,2.1875l-1.65625-.90625c1.03272-1.29001 2.21379-1.74621 3.875-2.40625zm7,.6875c.12832.00243.24987.02249.375.03125l2.0625,1.46875 .03125.03125-1.34375.625-1.34375-1.1875 .0625.125 1.0625,1.625 1.875-.65625 .46875,1.46875c-1.42205-.38743-2.96127-.4621-4.5-.28125-2.36907.39254-4.88614,1.15365-6.59375,2.9375l-1.09375-.6875-.0625-.25-.09375-2c.8773-1.44314 2.23812-1.96312 3.78125-2.40625l.21875,2.03125c.71643.02319 1.51688.04347 3.40625-.5625l-.21875-2.09375c.62088-.20308 1.26604-.18889 1.90625-.21875zm20.21875.3125 1.78125,1.09375-3.4375,5.65625-1.53125-1.03125 3.1875-5.71875zm-23.40625.71875 .8125,1.15625c-.73408.29277-1.35566.56483-2.28125.46875l-.03125-1.21875c.6346.02258.95934-.07731 1.5-.40625zm-8.15625,1.125 1.875.90625 .0625,1.9375c-.56638-.11587-1.09646-.16622-1.8125-.65625l-.125-2.1875zm14.9375.96875 1.59375.125 .6875,1.53125-2.53125-.34375 .53125-.5-.28125-.8125zm-3.5625.53125c1.13812-.01917 2.23439.08187 3.25.34375l-.5.6875 3.15625.5625c.48245.36814.9275.80944 1.34375,1.34375 .01822.29836-.10413.40144-.28125.59375l-.78125-1.53125c-2.03231.98389-4.11843,1.86571-6.59375,1.875l-.28125,2.875c-1.10739-.00674-1.85118.09288-3.0625-.375l-.25-2.34375c-1.53596-.28004-2.76013-.68295-3.5-1.15625 1.66599-1.68103 4.00766-2.42654 6.28125-2.8125 .41895-.03048.81119-.05564 1.21875-.0625zm80.28125.0625 .59375,8.71875-2.15625,1.1875-.78125-8.90625 2.34375-1zm-91.5,1.28125 1.78125.40625 .125.25-1.84375.46875-.28125,1.28125c-.09966-.67146-.00722-1.73246.21875-2.40625zm2.34375,1.03125c.70723.85916 1.88738,1.39935 4,1.84375l-1.5.75c-1.52269-.50402-3.0441.01961-4.21875-2l1.71875-.59375zm14.90625.09375 .6875,1.90625c-2.1911.62214-3.83727,1.38286-6.15625,1.3125l-.4375-1.4375c1.89415-.17501 3.7871-.66653 5.90625-1.78125zm1.75,1.03125 1.71875,1.875c-.48554.62142-1.1417,1.13411-1.78125,1.59375l-.28125-2.375-.25-.5625c.33799-.14666.47163-.21578.59375-.53125zm-18.78125.1875c1.06536,1.44028 2.89966,1.35253 4.5,1.9375l-.0625,2.15625-.9375,1.25-1.375.21875 .125.21875 1.375.125 1,2 .1875-.09375-.84375-2.25 .90625-.84375c1.13733.33966 2.46616.57523 5.90625.6875l1.0625,1.71875 1.65625-.375 3.78125,1.5-.03125-.125-3.0625-1.6875 2-1.4375 1.53125,1.03125 .03125-.09375-1.1875-1.21875-.625-1.25-.25-.03125 .5625,1.25c-.80383.43492-1.72857.97106-2.53125,1.5l-.125-.0625-1.40625.4375-.75-1.5v-.03125l.09375-2.3125c2.46045.05808 4.3336-.89354 6.53125-1.5l.40625,2.84375c.92613-.60071 1.66637-1.05896 2.25-1.8125l.46875,3.21875c-.00359.08847-.02254.17057-.03125.28125-2.27146,3.67427-6.81092,4.60475-10.75,4.65625-3.85015-.19847-8.32909-.91191-10.71875-4.34375-.17062-2.14058-.8098-4.33028-.375-5.90625l.4375,1.0625 .25-1.21875zm52.71875.34375 1.59375,8.6875-1.9375.6875-1.6875-8.46875 2.03125-.90625zm-42,.40625 .46875,1.59375-.1875,2.34375-.34375-1.6875 .0625-2.25zm-3.96875.0625 .0625,1.84375-1.875,1.125 .09375-1.8125 1.71875-1.15625zm.40625,2.21875c1.27998.48679 2.10004.42697 3.21875.4375l.25,1.40625c-1.91951.0833-3.65327-.04031-5.40625-.75l1.9375-1.09375zm-5.5,5.5c2.70659,1.55928 5.55608,2.17425 8.625,2.3125 3.25908.02006 6.42126-.35389 9.1875-2.1875 .85775,6.90234 1.86206,33.222 2.28125,40.1875-1.70384,1.28309-3.33595,2.19375-4.90625,2.84375l.53125-2.71875-.125-.09375 .5625-3.09375 2.53125-3.09375-.1875-.125-2.1875,2.3125-1.46875-4.78125-.03125.125 1.0625,5.03125 .09375-.03125-.25.28125-.5625,2.96875-4.53125-3.9375-2.21875-6.375 .09375.0625 6-4.59375c.24255-.99506-.56993-2.75321-.5-4 1.3669-1.78176 2.41316-3.73925 3.46875-5.71875l-1.71875-5.5625-.09375-.0625 1.5625,5.6875c-.8927,1.65458-2.29474,3.03284-3.25,4.65625l.03125-2.75-2.5625-1.28125 .625-3.5625-.03125-.03125-.96875,3.375-2.71875-.46875 .09375.15625 2.5.78125-.0625.15625 2.90625,1.03125c-.08197,1.01856-.22815,2.27022-.21875,3.375-.48115,1.2645.19568,2.60556.5625,3.84375l-6.1875,4.4375-4.5625-.3125 .34375-3.875 2.125-2.28125 3.15625-1.125-.125-.21875-3.25,1.15625-1.59375,1.5625 .25-2.875 1.6875-.3125v-.03125l-1.9375.0625-.65625,3.90625-.90625,3.625-3.125-2 2.125-2.3125-1.1875-2.21875-.1875.03125 1.03125,2.0625-2.21875,1.90625c.24664-10.14477.6613-21.60433 1.09375-25.90625zm59.78125,6.90625 1.46875,1.1875-13.875,7.875-1.5-1.3125 13.90625-7.75zm.40625.03125 13.53125,4.90625 .6875.96875-12.75-4.90625-1.46875-.96875zm-86.28125.75 3.375.46875-2.0625,1-3.4375-.75 2.125-.71875zm87.78125.5 12.625,4.9375-2.9375,1.78125-.3125.5625-3.96875-.65625 .03125.09375 3.53125,1.21875-1.5625,2.78125-4.28125,2.5625 .15625.125 4.34375-2.34375 2.40625-3.96875 3.0625-1.96875 .34375.125 5.15625.375c.28205-.08704.65546.57355.9375.59375l.59375-.34375 1.25.96875 .25-1 3.59375.25-66.4375,24.40625-.9375-18.59375 .0625.03125 2.1875-1.84375 18.4375-4.25 6.90625,2.4375 .5,2.71875-1.84375,3.125 .09375.03125 2.34375-2.90625 2.25.59375 .0625-.03125-2.375-.875-.5-2.8125 14.03125-8.125zm-83.96875.1875 6,4.5625c-.44397.32697-.84156.68881-1.15625,1.1875l-6.9375-4.75 2.09375-1zm-5.84375.25 3.125.875 7.34375,5.0625 .4375,3.6875 2.34375,1.03125 .0625-.09375-1.90625-1.15625-.46875-3.71875c.81194-1.08357 2.30599-1.77696 3.375-2.46875 4.18242,2.41879 8.24901,4.38322 12.59375,6.46875l-.28125,8.875 4.0625,5.96875-1.90625,1.65625-2.1875-2.1875h-.4375l.1875-.15625-1.0625-2.84375 .03125.1875 .53125,2.78125-2.09375-.03125-.15625.03125 2.71875.46875 2.0625,2.34375-.5625,1.84375-27.8125-28.625zm16.8125,2.375 10.1875,5.1875-.0625,1.59375c-4.27513-1.77239-7.77659-4.0669-11.90625-6.03125l1.78125-.75zm85.3125.8125 11.40625,1.3125 1.53125.75-3.9375-.28125-.09375,1-1.09375-1.09375-.5.65625-.875-.75-5.5-.375-.9375-1.21875zm-35.1875.75 1.03125,1.125-18.25,4.21875-1.75-1.03125 18.96875-4.3125zm.53125.09375 6.15625,1.9375 1.125,1.03125-6.1875-1.84375-1.09375-1.125zm-19.65625,4.4375 1.5625.9375-1.75,1.53125-.09375-1.96875 .28125-.5zm-20.75,9.4375 3.3125,2.34375 2.8125,3.28125-2.1875.8125c-1.27864-1.93027-3.19263-4.5079-4.25-6.125l.3125-.3125zm3.8125,2.46875 3.96875.5 .5625,2.65625c-.89086-.04382-1.4397.39062-2.21875.84375l.84375-.75-3.15625-3.25zm4.6875.5625 .34375.03125 2.21875,6.375-1.5625-.625-1-5.78125zm59.8125,3.1875c-.41621.25351-.3608,1.48409-.84375,1.71875s-.93314.17555-1.34375.625c-.32899.36012-1.20226-.01022-1.53125.3125l-10.66297,10.74866 .28797,7.22009 6.34375,2.71875 1.03125-.96875 .65625,1 1.03125-.34375 .625,1.75 3.25135,1.10047c3.36755-5.33436 7.43815-10.49427 10.9674-15.91297l-.34375-6.59375-7.3125-2.78125-.71875.5625-1.4375-1.15625zm-62.53125.09375-1.84375,1.65625-2.03125.6875 2.25-1.875 1.625-.46875zm62.75.5 .9375.78125-.4375,1.3125 .0625.03125-1.25,1.0625 .15625.03125 1.65625-.75 1.84375,1.1875 .0625-.0625-2.0625-1.59375 .71875-1.46875-.125.03125c.06528-.13699.13436-.2335.25-.1875l6.78125,2.40625-10.96875,13.875-3.875-1.34375 2.53125-.9375 .84375-3.28125 3.59375-1.1875 1.875-2-.125-.1875-1.90625,1.78125-3,.8125 1.09375-1.4375-1.96875,1.6875 .09375.03125-.84375,3.3125-2.96875.875-1.8125-2.8125 .96875-2.5-.1875-.125-.90625,1.8125-1.6875-.40625-1,1.21875 .1875.21875 .75-.8125 1.4375.4375-.125.21875 1.625,2.75-6.03125-2.125 9.96875-9.96875 1.125-.3125-.5,1.8125 .1875-.0625 .90625-1.9375 1.40625-1 .71875-1.1875zm-64.75,1.625-.625,1.875-2.15625.75 .78125-1.875 2-.75zm6,.875 1.65625.71875 4.84375,4.25-.40625,2.75-1.59375-1.125-4.5-6.59375zm67.625.78125 .46875,6.125c-3.22852,5.32735-7.25512,9.81164-10.75,14.9375l-.46875-7.15625-.0625-.03125 10.8125-13.875zm-23,9.75 6.71875,2.34375 .03125.0625-.625,1.65625-1.40625.0625-1.75-2.40625-.125.21875 1.1875,2.25-1.28125,1.5 .0625.0625 1.5625-1.125 1.78125-.0625 2.0625,1.46875-1.1875,2.3125-.65625.78125-5.84375-2.5-.53125-6.625zm7.1875,2.53125 4.59375,1.59375 .46875,7.59375c-.81224-.34657-2.15384-.93468-2.8125-1.28125l-.375-1.8125-1.09375.65625-.21875-.5 .0625.03125 1-2.53125 1.6875-.75-.03125-.125-1.96875.25-2.09375-1.28125 .78125-1.84375z" fill-rule="evenodd"/>
</svg>
