<?xml version="1.0" encoding="UTF-8"?>
<svg viewBox="0 0 128 128" xmlns="http://www.w3.org/2000/svg" xmlns:xlink="http://www.w3.org/1999/xlink">
 <defs>
  <filter id="k" x="-.10113" y="-.09136" width="1.2023" height="1.1827">
   <feGaussianBlur stdDeviation="2.20987"/>
  </filter>
  <linearGradient id="b">
   <stop stop-color="#b1b1b1" offset="0"/>
   <stop stop-color="#e4e4e4" offset="1"/>
  </linearGradient>
  <linearGradient id="a">
   <stop stop-color="#c7a94c" offset="0"/>
   <stop stop-color="#e2ca80" offset="1"/>
  </linearGradient>
  <linearGradient id="j" x1="52.899" x2="68.677" y1="41.985" y2="54.216" gradientUnits="userSpaceOnUse" xlink:href="#a"/>
  <linearGradient id="i" x1="68.433" x2="81.459" y1="79.626" y2="50.272" gradientUnits="userSpaceOnUse" xlink:href="#a"/>
  <linearGradient id="h" x1="62.837" x2="64.519" y1="24.923" y2="21.743" gradientUnits="userSpaceOnUse" xlink:href="#a"/>
  <linearGradient id="g" x1="61.95" x2="69.961" y1="19.358" y2="16.117" gradientUnits="userSpaceOnUse" xlink:href="#a"/>
  <linearGradient id="f" x1="67.882" x2="73.386" y1="27.858" y2="18.074" gradientUnits="userSpaceOnUse" xlink:href="#a"/>
  <linearGradient id="e" x1="68.372" x2="79.318" y1="59.781" y2="42.841" gradientUnits="userSpaceOnUse" xlink:href="#b"/>
  <linearGradient id="d" x1="47.64" x2="60.544" y1="77.211" y2="100.63" gradientUnits="userSpaceOnUse" xlink:href="#b"/>
  <linearGradient id="c" x1="67.332" x2="88.063" y1="100.85" y2="80.238" gradientUnits="userSpaceOnUse" xlink:href="#b"/>
 </defs>
 <path d="m54.317 45.521c-2.5072 0.57766-21.483 4.6765-17.002 4.0601 1.0632 13.717 5.0797 24.5 1.3956 38.067 6.6597 3.3707 17.423 12.522 23.807 15.737 14.213-3.8892 16.091-8.8222 26.557-11.779-7.055-6.7786-10.703-17.08-15.061-24.318-3.9554-6.6067-10.248-13.755-16.357-19.767-2.956-1.8329 1.0762-2.51-3.3398-2.0007zm26.516 38.458z" fill-opacity=".62745" fill-rule="evenodd" filter="url(#k)"/>
 <path d="m58.22 20.245 9.1733 8.3171-2.5074 56.935c-6.1809-4.6879-12.437-8.9998-18.469-14.433l5.5651-26.725 5.137-20.181 1.1008-3.9139z" fill="url(#j)" fill-rule="evenodd"/>
 <path d="m81.214 23.975-13.76 4.2197-1.59 32.412-1.1008 24.829 0.91733 0.06115 23.851-7.094-3.7305-30.578-3.3024-18.102-1.2843-5.7486z" fill="url(#i)" fill-rule="evenodd"/>
 <path d="m58.526 20.367 8.7452 8.1948 0.18347 0.06116v-0.42809l-2.385-9.1733-6.5436 1.3454z" fill="url(#h)" fill-rule="evenodd"/>
 <path d="m58.281 20.183 12.904-4.4032s4.2197 0 3.6082 0.18346-9.9071 3.1189-9.9071 3.1189l-6.1155 1.162-0.48924-0.06115z" fill="url(#g)" fill-rule="evenodd"/>
 <path d="m64.886 19.083 9.7237-3.1189 6.6659 8.1336-13.821 4.1586-2.5685-9.1733z" fill="url(#f)" fill-rule="evenodd"/>
 <path d="m68.555 41.771 13.21-3.6693 2.8131 17.185-15.46 4.6338-1.1746-0.1695 0.61155-17.98z" fill="url(#e)" fill-rule="evenodd"/>
 <path d="m46.906 71.187-2.0181 3.3024-2.2016 6.2378-1.4677 5.9932 6.4824 6.4213 10.274 7.6444 5.1982 3.8528 0.67271-9.7237 0.97848-9.3567-5.9932-4.8924-7.3386-5.5651-4.5866-3.9139z" fill="url(#d)" fill-rule="evenodd"/>
 <path d="m64.824 85.558-0.5504 5.8709-1.0396 13.21 11.803-3.4247 15.595-5.932 3.0578-1.7735s-1.2843-6.8494-1.2843-7.094-2.9966-8.0725-2.9966-8.0725l-3.0578 1.162-14.188 3.8528-7.3386 2.2016z" fill="url(#c)" fill-rule="evenodd"/>
 <path d="m58.22 20.245 9.1733 8.3171-2.5074 56.935c-6.1809-4.6879-12.437-8.9998-18.469-14.433l5.5651-26.725 5.137-20.181 1.1008-3.9139z" fill-opacity=".15686" fill-rule="evenodd"/>
 <path d="m58.526 20.367 8.7452 8.1948 0.18347 0.06116v-0.42809l-2.385-9.1733-6.5436 1.3454z" fill-opacity=".15686" fill-rule="evenodd"/>
 <path d="m46.906 71.187-2.0181 3.3024-2.2016 6.2378-1.4677 5.9932 6.4824 6.4213 10.274 7.6444 5.1982 3.8528 0.67271-9.7237 0.97848-9.3567-5.9932-4.8924-7.3386-5.5651-4.5866-3.9139z" fill-opacity=".15686" fill-rule="evenodd"/>
 <path d="m58.281 20.183 12.904-4.4032s4.2197 0 3.6082 0.18346-9.9071 3.1189-9.9071 3.1189l-6.1155 1.162-0.48924-0.06115z" fill="#fff" fill-opacity=".12549" fill-rule="evenodd"/>
 <path d="m71.188 15.688-13.25 4.4062c-4.6026 16.1-8.5864 34.293-11.562 50.719-2.9269 4.7168-4.2582 10.391-5.5938 16.062 6.5422 7.2445 14.248 11.782 22.094 18.375 12.628-4.0562 18.716-5.2892 31.031-11.219l0.4375-0.15625-0.125-0.4375c-0.73616-5.1118-1.8622-10.068-4.2188-14.531-2.3977-19.073-3.86-35.708-8.5312-54.781l-6.5312-8.2812-3.75-0.15625zm3.1875 0.5625 6.5312 7.7188-13.312 4.1875 13.188-3.8438c4.8757 18.761 6.1451 35.333 8.0938 54.094-10.151 3.3915-13.144 3.5398-23.594 6.9062 1.0005-21.293 0.98715-36.188 2.3125-57.156l-0.15625 0.03125-2.125-9.1562 9.0625-2.7812zm-3.4192-0.21561 2.8615 0.00536-9.0503 2.845-6.1267 1.304 12.315-4.1544zm-6.3308 3.3094 2.75 8.9688-0.0625-0.03125-2.9688 56.719c-5.0902-4.9556-11.028-7.8941-17.031-13.875 2.5436-16.676 6.2054-34.989 11.031-50.688l8.7036 7.8879-8.0862-7.7576 5.6638-1.2241zm17.188 18.438-13.469 3.6875-0.46875 18.406 0.0625-0.3125 0.90625-17.719 12.781-3.4375 2.5938 16.719-15.031 4.625-0.375 0.21875 15.906-4.5938-2.9062-17.594zm-3.9375 4.375c-0.69677 0.99032-1.3672 2.0774-2.4062 1.8125l-1.375-0.84375c-0.44131 0.86928-1.3109 1.0961-1.3125 2.625l-2.375-1.2188-0.4375 0.28125 3.1562 2.4688c0.29439-1.6932 0.51372-3.7466 1.375-2.7188l1.0312 0.625c1.4974-0.20676 1.4934-1.4036 2.0312-2.25l1.5312 1.3125 1.6875-0.0625 0.09375-0.375-1.2188-0.40625-1.7812-1.25zm-0.84375 6-2.0312 1.5938-1.75-1.0938c-1.2009-0.76358-1.8958 0.75-2.8438 1.125l0.34375 0.1875c0.84375-0.11232 1.6875-0.7674 2.5312-0.25 0.57379 0.23871 0.82071 0.80429 1.8125 0.625 1.413 0.51552 1.6079-1.0527 2.2812-1.5938l1.6562 0.5 0.28125-0.46875-2.2812-0.625zm4.375 2.9062c-0.81515 0.06082-1.3628 0.79331-2 1.2812l-1.9375-1.1875-2.6875 1.875 0.15625 0.21875 2.4375-0.96875 1.9375 1.1875c1.1426-0.2688 2.09-0.70041 3.125-1.9375l-0.125-0.28125c-0.35003-0.16767-0.63453-0.20777-0.90625-0.1875zm-34.469 20.469c6.2446 6.0261 11.901 8.9048 17.656 14.156-0.63193 5.3247-1.7966 12.477-1.8438 18.094-7.7316-5.7788-15.086-9.9969-21.188-17.406 1.1696-5.2589 2.2992-10.538 5.375-14.844zm42.188 7.2188c2.6587 4.8333 3.6107 9.6667 4 14.5-11.346 5.6421-16.905 7.169-29.219 10.875 0.36458-5.6436 0.72917-12.834 1.0938-18.188 10.398-3.5017 13.774-3.8163 24.125-7.1875z" fill-rule="evenodd"/>
</svg>
