<?xml version="1.0" encoding="UTF-8"?>
<svg viewBox="0 0 640 480" xmlns="http://www.w3.org/2000/svg" xmlns:xlink="http://www.w3.org/1999/xlink">
 <defs>
  <filter id="u">
   <feGaussianBlur stdDeviation="0.219243"/>
  </filter>
  <filter id="t">
   <feGaussianBlur stdDeviation="1.077915"/>
  </filter>
  <linearGradient id="ae" x1="-3.9661" x2="-2.9492" y1=".72885" y2=".72885" gradientTransform="translate(15.289 -7.0328)" xlink:href="#a"/>
  <linearGradient id="ad" x1="-4.902" x2="-3.902" y1="1.9643" y2="1.9643" gradientTransform="translate(15.289 -6.8494)" xlink:href="#a"/>
  <linearGradient id="af" x1=".6" x2=".34667" y1=".30833" y2=".30833" xlink:href="#a"/>
  <linearGradient id="ag" x1=".084416" x2=".68831" y1=".94048" y2=".94048" xlink:href="#a"/>
  <linearGradient id="b">
   <stop stop-color="#573711" offset="0"/>
   <stop stop-color="#8b571c" offset="1"/>
  </linearGradient>
  <linearGradient id="aj" x1=".24685" x2=".3602" y1=".85507" y2=".85507" xlink:href="#b"/>
  <linearGradient id="ah" x1=".85981" x2=".11215" y1=".23243" y2=".23243">
   <stop stop-color="#1e0c00" offset="0"/>
   <stop stop-color="#4f1f00" offset="1"/>
  </linearGradient>
  <linearGradient id="ai" x1=".28026" x2=".80892" y1=".55655" y2=".55655" xlink:href="#b"/>
  <linearGradient id="ac" x1="-3.4237" x2="-4" y1="2.0109" y2="2.0109" gradientTransform="translate(15.166 -6.9105)" xlink:href="#a"/>
  <linearGradient id="ab" x1="-2.6203" x2="-2.443" y1=".26832" y2=".26832" gradientTransform="translate(15.411 -6.9105)" xlink:href="#a"/>
  <linearGradient id="v" x1=".41829" x2=".91604" y1=".58978" y2=".58978" xlink:href="#a"/>
  <linearGradient id="a">
   <stop stop-color="#c7a94c" offset="0"/>
   <stop stop-color="#e2ca80" offset="1"/>
  </linearGradient>
  <linearGradient id="w" x1=".45839" x2=".31378" y1=".80902" y2=".80902" xlink:href="#a"/>
  <linearGradient id="x" x1=".36508" x2="1.3175" y1=".51163" y2=".51163" xlink:href="#a"/>
  <linearGradient id="aa" x1=".77966" x2=".20339" y1=".78261" y2=".78261" xlink:href="#a"/>
  <linearGradient id="y" x1=".56962" x2=".74684" y1=".044554" y2=".044554" xlink:href="#a"/>
  <linearGradient id="z" x1="3e-6" y1=".63095" y2=".63095" xlink:href="#a"/>
 </defs>
 <g fill-rule="evenodd">
  <path d="m490.72 374.69l-15.365-6.86-47.803 20.58-6.2598 20.58-27.316-8.731-62.03-84.815-31.299 114.75-261.78-187.09 173.57-104.77 289.66 222.64-11.382 13.72z" fill-opacity=".562" filter="url(#t)"/>
  <path d="m70.279 238.25l204.35-145.41 16.537 11.219v33.656l33.862 10.356 7.8749 18.554-21.656 272.27-48.824-40.129-110.64-92.339-81.505-68.176z" fill="url(#v)"/>
  <path d="m310.46 439.32l91.348-44.444 197.26-96.223-181.91-184.68-6.6935 16.397-40.556 0.863-21.656 29.773-16.144 4.7464-21.656 273.57z" fill="url(#w)"/>
  <path d="m70.279 238.25l204.35-145.41 16.537 11.219v33.656l33.862 10.356 7.8749 18.554-21.656 272.27-48.824-40.129-110.64-92.339-81.505-68.176z" fill-opacity=".157"/>
  <path d="m402.76 393.74l3.0626-142.18 13.364 7.3226 1.1137 150.11-17.54-15.256z" fill="url(#x)"/>
  <path d="m420.3 408.69l-0.8354-149.2 16.427-4.8818 5.5684 143.71-21.16 10.374z" fill="url(#y)"/>
  <path d="m405.55 251.26l14.199-18.002-0.8353 25.629-13.364-7.6277z" fill="url(#z)"/>
  <path d="m419.19 259.8l16.427-5.1869-15.87-22.883-0.5568 28.07z" fill="url(#aa)"/>
  <path d="m490.47 374.22l-0.8353-149.2 16.427-4.8817 5.5682 143.71-21.16 10.374z" fill="url(#ab)"/>
  <path d="m488.24 225.32l16.427-5.1869-15.87-22.883-0.5569 28.07z" fill="url(#ac)"/>
  <path d="m475.15 217.08l14.199-18.002-0.8352 25.629-13.364-7.6278z" fill="url(#ad)"/>
  <path d="m474.32 323.26l1.1137-106.79 13.364 7.3227 1.9489 151.34c-2.7868-1.9456-5.4488-5.1116-7.546-7.0571l-0.0066-37.043-8.8741-7.7686z" fill="url(#ae)"/>
  <path d="m438.12 305.26l20.881 7.3226-20.046 29.291-0.8352-36.613z" fill="url(#af)"/>
  <path d="m440.91 387.64l-1.1137-45.767 18.654-31.121 24.222 20.137-1.1137 37.224-40.649 19.527z" fill="url(#ag)"/>
  <path d="m445.92 384.59v-36.308l13.086-20.137 16.148 9.1534 0.5568 32.952-29.791 14.34z" fill="url(#ah)"/>
  <g fill-opacity=".157">
   <path d="m402.76 393.74l3.0626-142.18 13.364 7.3226 1.1137 150.11-17.54-15.256z"/>
   <path d="m405.55 251.26l14.199-18.002-0.8353 25.629-13.364-7.6277z"/>
   <path d="m475.15 217.08l14.199-18.002-0.8352 25.629-13.364-7.6278z"/>
   <path d="m474.32 323.26l1.1137-106.79 13.364 7.3227 1.9489 151.34c-2.7868-1.9456-5.4488-5.1116-7.546-7.0571l-0.0066-37.043-8.8741-7.7686z"/>
   <path d="m438.12 305.26l20.881 7.3226-20.046 29.291-0.8352-36.613z"/>
  </g>
  <path d="m279.3 94.095l63.177-51.595-8.2492 122.81s-4.2252-3.7483-4.2252-4.6303c0-0.88193-3.8228-11.466-3.8228-11.466l-35.612-10.363 0.2012-33.515-11.468-11.245z" fill="url(#ai)"/>
  <path d="m343.08 43.603l70.219 75.849-4.4265 10.804-40.24 1.7639-20.724 28.223-14.486 5.0713 9.6577-121.71z" fill="url(#aj)"/>
  <path d="m279.3 94.095l63.177-51.595-8.2492 122.81s-4.2252-3.7483-4.2252-4.6303c0-0.88193-3.8228-11.466-3.8228-11.466l-35.612-10.363 0.2012-33.515-11.468-11.245z" fill-opacity=".157"/>
  <path d="m411.65 119.59l-9.0561 4.7464-32.287 6.4723-25.593 22.869-8.2685 7.3354-9.4499-11.219-34.256-17.26-1.9687-26.321-7.0874-13.808-5.5124 3.0205 11.812 9.9244 0.3938 32.793 35.043 10.356 6.6936 16.397 10.631-2.589 4.3312-2.1575 22.443-29.342 37.799 0.4315 4.3313-11.65z" fill-opacity=".607" filter="url(#u)"/>
 </g>
 <path d="m343.08 39.269l-64.022 54.569-4.5526-2.1827-206.29 145.93 242.71 203.15 91.906-44.59 17.642 15.123 22.479-12.005-0.4268-10.29 38.982-19.956 8.8208 8.731 20.914-11.849-0.8536-21.827 91.053-44.278-184.95-186.31-4.1258 3.1182-69.286-77.332zm0.9959 7.9514l67.294 73.746-3.4146 6.86-39.693 2.4946-20.629 28.376-11.239 2.4946 7.6826-113.97zm-4.5527 0.9355l-6.4022 113.81h-0.14224l-6.2599-13.72-33.576-11.693-1.565-31.962-11.239-9.6664 59.184-46.773zm-64.591 45.526l14.512 11.07-0.5691 32.741-16.503 25.881c-7.0068 1.2282-13.963 2.9336-20.914 4.5214l-24.897 16.371-17.784-2.4946v0.77959l15.507 3.2741-6.1176 19.177 7.8248-18.709 0.8536 0.1559 24.897-16.994c6.4813-1.4622 13.545-1.9406 20.06-3.2741l10.67 37.73c-7.1424 7.2446-9.6998 17.46-12.52 27.284 0.039032 0.31387 0.096741 0.62346 0.14227 0.93547l-26.178 32.429-15.792 6.7041 16.788-5.4568 25.893-30.247c1.4766 6.7645 4.1121 13.162 6.4022 19.645 0.2435 0.32832 0.40259 0.49223 0.42676 0.62366 0.086151-0.097794 0.20145-0.18192 0.56912-0.31186-2.7267-7.3389-5.4886-16.552-6.9713-24.166 2.6622-9.2957 9.2547-18.416 12.235-27.596l-10.528-38.042 19.064-24.634 34.002 8.8869 3.8413 19.801 0.1422-0.1559-20.202 262.08-8.394-9.9783-2.8454-27.908 0.2845 24.634-12.378-14.811-3.8412-1.715-9.2476-28.064 4.6949-15.279-5.833 15.279 8.6784 27.284-30.304-14.188 35.71 17.93 20.772 30.558-233.89-198.01 201.74-143.75zm3.1299 264.89l1.1382-3.1182-0.1423-0.3118-0.9959 3.43zm20.487 35.236v-0.93546l-0.1422-0.4677 0.1422 1.4032zm-70.424-122.55l-1.9918 0.6237-0.2846 0.3118 2.2763-0.9355zm188.37-154.35l177.84 181.32-84.082 41.472-3.4145-119.74-17.642-24.01-14.654 20.268-1.1382 105.86-15.223-12.473-19.491-5.7687-1.7072-50.047-17.072-24.01-15.365 21.204-3.2722 142.19-87.354 43.187 9.1053-14.188 3.8413-25.725 25.04-10.602 31.584 7.6396-22.621-6.3923 10.101-16.215-0.4268-0.1559-10.955 15.903-8.394-2.3387-24.044 9.9783 3.699-25.258 13.516-27.596-0.4268-0.1559-14.085 27.596-7.6826 52.23-10.386 13.408 22.194-266.61 15.081-7.016 20.202-27.752 37.275-0.3118 15.223 20.112-0.2846 40.069 5.4063 9.8223-3.4145-10.602v-37.107l37.986 21.36 0.5691-0.9355-38.413-22.295-0.1423 0.1559v-1.4032l-13.231-20.892 6.2599-14.188zm10.386 85.906l0.4268 1.4032 0.1423-0.3118-0.5691-1.0914zm63.168-2.1827l13.81 19.508-15.091 4.8144 1.2805-24.322zm-2.4186 2.0268l0.7113 22.295-12.093-7.4837 11.382-14.812zm-11.34 15.424l12.689 7.5372 1.0894 147.87-5.8532-5.7262-0.4268-37.262-8.2517-6.7041 0.7531-105.72zm28.537 2.1372l4.1432 143.34-17.784 9.9782-1.4227-148.55 15.063-4.7686zm-84.491 14.4l14.085 19.956-14.796 4.6773 15.365-3.7418 5.6908 141.25-19.702 9.86-1.3537-147.37-0.2846-0.1559 0.9959-24.478zm-1.4227 1.5591l-0.1423 22.607-12.52-7.3278 12.662-15.279zm-12.52 16.215l12.79 7.145 0.5345 147.41-15.885-12.834 2.5608-141.72zm32.438 54.413l16.93 6.3924-15.507 26.505-1.4228-32.897zm20.202 6.1386l23.19 18.651-0.7114 33.365-5.4062 2.6505-0.1422-30.402-17.072-9.9783-13.373 21.048 0.1422 34.768-3.6989 2.3387-1.5651-43.499 18.637-28.941zm0.1322 15.602l15.944 9.7532 0.1523 29.962-28.474 14.29-0.1769-34.22 12.554-19.785z" fill-rule="evenodd"/>
</svg>
