<?xml version="1.0" encoding="UTF-8"?>
<svg viewBox="0 0 128 128" xmlns="http://www.w3.org/2000/svg" xmlns:xlink="http://www.w3.org/1999/xlink">
 <defs>
  <filter id="r">
   <feGaussianBlur stdDeviation="1.38556"/>
  </filter>
  <filter id="s">
   <feGaussianBlur stdDeviation=".58541"/>
  </filter>
  <filter id="q">
   <feGaussianBlur stdDeviation=".63972"/>
  </filter>
  <filter id="p">
   <feGaussianBlur stdDeviation=".51065"/>
  </filter>
  <filter id="o">
   <feGaussianBlur stdDeviation=".51472"/>
  </filter>
  <filter id="n">
   <feGaussianBlur stdDeviation=".57215"/>
  </filter>
  <linearGradient id="a">
   <stop stop-color="#b1b1b1" offset="0"/>
   <stop stop-color="#e4e4e4" offset="1"/>
  </linearGradient>
  <linearGradient id="g" x1="72.244" x2="79.395" y1="99.542" y2="67.805" gradientUnits="userSpaceOnUse" xlink:href="#a"/>
  <linearGradient id="e" x1="63.463" x2="64.258" y1="103.78" y2="98.92" gradientUnits="userSpaceOnUse" xlink:href="#a"/>
  <linearGradient id="d" x2="0" y1="99.804" y2="95.827" gradientUnits="userSpaceOnUse" xlink:href="#a"/>
  <linearGradient id="m" x1="18.385" x2="31.024" y1="82.657" y2="67.012" gradientUnits="userSpaceOnUse" xlink:href="#a"/>
  <linearGradient id="l" x1="12.993" x2="15.468" y1="89.418" y2="86.413" gradientUnits="userSpaceOnUse" xlink:href="#a"/>
  <linearGradient id="k" x1="30.406" x2="40.659" y1="46.329" y2="28.917" gradientUnits="userSpaceOnUse" xlink:href="#a"/>
  <linearGradient id="j" x1="41.719" x2="44.288" y1="41.733" y2="39.346" gradientUnits="userSpaceOnUse" xlink:href="#a"/>
  <linearGradient id="i" x1="77.156" x2="78.188" y1="38.281" y2="34.594" gradientUnits="userSpaceOnUse" xlink:href="#a"/>
  <linearGradient id="h" x1="84.125" x2="88.812" y1="38.688" y2="20.375" gradientUnits="userSpaceOnUse" xlink:href="#a"/>
  <linearGradient id="f" x1="92.062" x2="94.938" y1="41.031" y2="36.719" gradientUnits="userSpaceOnUse" xlink:href="#a"/>
  <linearGradient id="c" x1="112.61" x2="121.09" y1="72.89" y2="56.538" gradientUnits="userSpaceOnUse" xlink:href="#a"/>
  <linearGradient id="b" x1="122.15" x2="125.42" y1="75.807" y2="72.183" gradientUnits="userSpaceOnUse" xlink:href="#a"/>
 </defs>
 <path d="m66.844 38.469c-1.0512 0.00592-2.1052 0.03302-3.1562 0.0625-12.93 0.43485-27.066 5.086-35.031 15.312-0.18376 0.94656-0.33775 1.877-0.5 2.8125l1.3438 3c0.61627-3.2814 0.40121-6.9573 3.8438-8.7188 0.56737-0.20063 1.5718-2.247 2.2188-2.3438 0.1493-0.02234 0.27256 0.04935 0.375 0.28125 4.125 5.0521 9.4688 11.323 13.594 16.375-5.6785 3.7229-14.365 8.9517-20 12.594-0.04174-0.18281-0.0809-0.40577-0.125-0.59375l0.15625 1.8438c5.9102 0.03798 22.993-2.6415 28.656-2.375 2.5566 3.0467 8.4122 9.0158 10.969 12.062-0.10763 0.44853-0.17189 0.9196-0.25 1.375l0.96875-2.6562c-0.10633-0.17593-0.19174-0.32937-0.3125-0.5625-4.0258-3.2953-7.3769-8.8932-9.3438-11.125 2.141-0.20312 8.4019-1.1778 10.438-0.84375l0.03125-1.2812c-4.9041-0.27552-9.4145 0.76006-11.562 0.53125-1.949-1.5336-4.8898-5.5256-6.9375-9.2188 4.6829-2.9071 9.7357-5.6447 11.5-6.6562 1.0533 0.34972 8.9129 2.7454 10.375 3.2188l0.46875-0.6875 2.9375-0.34375 3.625 8.125 0.5625 4.8438c7.1906-0.85481 17.663-2.3674 24.594-2.3438-1.7561 10.233-15.045 17.984-24.219 21.312l0.625 1.5625c1.1841-0.42446 3.2325-1.022 4.4688-1.3438 11.345-4.3668 22.641-14.695 20.594-28.062-2.0498-14.965-18.023-23.007-31.5-25.5-3.1067-0.53619-6.2527-0.67402-9.4062-0.65625zm-37.281 40.625 0.1875 1.8438-1.3125-0.75c0.17198 0.62141 0.35638 1.2502 0.5625 1.875 9.3416 10.564 25.138 14.27 38.688 15 0.36156 0.05215 0.70986 0.09474 1.0625 0.125l-1.25-2.1875c-0.0715 0.09674-0.138 0.19134-0.21875 0.28125-11.821-0.39807-27.762-5.0763-36.281-13.531-0.16724-1.8188-0.82146-2.4846-1.4375-2.6562zm34.844-39.219c5.716 0.04746 13.083 0.98454 18.5 2.75-6.5104 4.2708-13.365 9.6042-19.875 13.875-8.3646-2.5938-18.292-5.7188-26.656-8.3125 8.2253-5.2738 18.309-8.2732 28.031-8.3125zm19.656 3.2812c9.081 3.4898 19.997 10.546 21.875 20.688-0.58722 2.5656 1.0356 3.965 0.03125 6.375-7.1335-2.59-19.91-5.7651-26.25-9.1562 0.23798-5.5382 3.0292-12.647 4.3438-17.906zm-2.3438 2.2188c-0.80457 3.7765-3.8926 13.175-3.5312 14.844-3.6725 0.72346-9.7778-1.9884-14.062-3.4688 1.4282-1.536 14.968-8.3814 17.594-11.375zm-43.031 4.5312c0.70078 0.5071 6.6848 1.9612 10.5 3.625 3.7092 1.158 7.947 2.842 11.656 4-3.2317 2.1923-7.6586 5.7399-10.156 6.625-2.1449-4.2002-8.8538-9.5769-12-14.25zm41.719 13.656c4.7122 1.4096 17.038 5.0592 21.75 6.4688-5.0005 0.15343-16.641 1.3777-20.125 1.375-1.1417-3.3002-0.60556-5.5776-1.625-7.8438zm-29.469 2.5c2.0625 2.6875 4.125 6.0625 6.1875 8.75-7.25 0.66667-17.281 2.2083-24.531 2.875 5.1875-3.3542 13.156-8.2708 18.344-11.625z" fill="#800000" fill-opacity=".70588" filter="url(#r)"/>
 <path d="m69.10127,77.67195-1.56836.33548-2.74956.87767-1.29084,1.31748-.87061,2.34366c0,0 .01227,3.36015.26321,3.59079s.86646,2.74728.86645,2.74728l.49111,2.98634 .17096,3.40038-.69878,4.01138 .50221,1.59235-.58663-.53295-2.39867.76526-1.52738.97581 .21286.87909 .94775.75923 2.0911.50534 1.31366-.12223 2.38212-.81775 1.42092-.70087-2.01855-.58156-1.48552-.83101c.39954.14261 1.71776.62104 2.37731,1.00449 .76377.44405 2.867.31135 2.867.31135l3.90863-.0609 4.32652.44745 3.56406-.23469 1.98393-1.05945 .73104-2.17371-1.75828-2.20628-1.64399-1.2314-.3808-1.2074-2.50718-6.62246-2.30227-4.13528-1.78116-1.97257-1.1086-.963-1.04077-1.36043-2.70292-2.0369z" fill-opacity=".62745" fill-rule="evenodd" filter="url(#q)"/>
 <path d="m65.816 96.519 1.9027-6.9189 0.86486-5.9676 0.43243-5.2757s0.17297-4.4973 0-4.9297 0.86486-6.3135 0.86486-6.3135l1.5568-3.9784 1.6432-2.1622 2.9405-1.2108 1.6432-0.43243 1.9892 3.8919 0.60541 2.5081 0.77838 1.8162 1.1243 3.6324 0.95135 7.5243 0.43243 11.849v2.1622l1.2108 2.3351 1.0378 4.0649-1.3838 3.7189-2.2486 1.6432c-1.182 0.23443-2.364 0.5681-3.546 0l-4.0649-1.2973-3.8054-0.34595s-2.0757 0-2.6811-0.86486-2.2486-2.2486-2.2486-2.2486v-3.2z" fill="url(#g)" fill-rule="evenodd"/>
 <path d="m65.407 98.39-2.5633 1.0607-1.7678 1.5026-0.08839 1.591 0.70711 1.4142 1.8562 1.149 1.3258-0.08839 2.5633-1.149 1.591-1.0607-1.7678-1.2374-1.2374-1.6794-0.61872-1.5026z" fill="url(#e)" fill-rule="evenodd"/>
 <path d="m84.76443,94.67759 1.67938.44194 2.20971-.08839 .7955.53033-.08839,1.94454 .26516,1.14905-.79549.61872-3.18198.53033-.08839-2.65165-.7955-2.47487z" fill="url(#d)" fill-rule="evenodd"/>
 <path d="m14.987 62.178-1.0771 0.46811-1.3989 1.2111-0.27893 2.3915 0.14393 3.9471-1.3173 3.261-1.0761 2.6558 1.6562 4.9765s1.4385 3.8475 1.5097 4.0616 2.2427 1.3245 2.2427 1.3245l-0.07557-0.22706 0.98769 0.78307 1.6844 0.31199 2.2446 2.5e-4 2.3554-0.42667 2.5288-0.7603 3.9082-2.22-1.0734-4.0802-1.5031-3.9467-0.00537-1.631-0.9959-3.2775-1.9962-4.0984-1.5897-1.8321-2.6495-1.7869-2.6592-0.96128-1.5654-0.14435zm-3.5937 23.873-1.1895 0.41534-0.71973 1.067-0.04753 0.71207 1.7307 1.116 1.2534 0.0617 1.8513-0.13651 2.4731-0.64278 1.0274-0.42761-1.244-0.98324-1.2172-0.42786-3.918-0.75408z" fill-opacity=".62745" fill-rule="evenodd" filter="url(#s)"/>
 <path d="m15.998 85.927s-1.7678-1.9445-1.7678-2.2981-0.17678-6.7175-0.17678-6.7175v-8.2201l1.9445-4.2426 2.3865-5.2149 1.149-6.4524 1.0607-3.8891 1.7678-1.8562 1.2374-0.70711 1.5026 0.35355 2.2981 1.7678 2.0329 3.0936 0.97227 3.0936 0.61872 6.8059-0.08839 5.3917-0.53033 2.6516 0.17678 6.5407-0.26516 6.7175-4.5962 3.3588-2.74 1.0607-2.4749 0.53033-2.2097-0.17678-1.591-0.61872-0.70711-1.3258v0.35355z" fill="url(#m)" fill-rule="evenodd"/>
 <path d="m15.822 86.457-3.6239-1.5026-1.3258 0.61872-1.0607 1.6794-0.26517 1.149 1.3258 1.9445 1.2374 0.17678 1.8562-0.08839 2.6516-0.88388 1.149-0.61872-0.88388-1.6794-1.0607-0.7955z" fill="url(#l)" fill-rule="evenodd"/>
 <path d="m28.702 47.286-2.7351-2.3306-1.7305-3.1344-0.2261-2.6695 0.99066-2.3221 0.1974-0.85316s-0.95778-3.7526-1.2361-4.7813-0.79207-3.8157-0.79207-3.8157l1.7281-4.094 1.591-0.50823 0.95052-0.1348 1.914 0.76284 3.6092 2.7436 1.2352 4.2954 0.57051 3.5758 1.1422 1.867 2.1271 2.3999 1.0016 3.509-0.69092 2.9861-0.27468 0.91499-2.8172 1.0721s-1.8452 0.57253-2.199 0.57748-2.5201 0.27827-2.5201 0.27827l-1.8358-0.33874z" fill-opacity=".62745" fill-rule="evenodd" filter="url(#p)"/>
 <path d="m29.345 46.594-2.2981-3.4472-1.149-4.5962 0.26516-3.8891 1.4142-3.3588 0.35355-1.2374s-0.26516-5.4801-0.35355-6.9827-0.08839-5.5685-0.08839-5.5685l2.4749-5.922 1.6794-0.70711 0.97227-0.17678 1.7678 1.149 3.0936 4.0659 0.44194 6.2756-0.08839 5.2149 0.7955 2.74 1.6794 3.5355 0.35355 5.1265-1.2374 4.331-0.44194 1.3258-3.0052 1.5026s-1.9445 0.79549-2.2981 0.79549-2.5633 0.35355-2.5633 0.35355l-1.7678-0.53033z" fill="url(#k)" fill-rule="evenodd"/>
 <path d="m40.65864,42.44008 1.23744.53033 2.82843-.88388c0,0 .97227-.35355.88388-.7955s-.7955-1.76777-.7955-1.76777-.61872-1.32582-.97227-1.32582-2.47487.17678-2.47487.17678l-.88388.61872 .17678,3.44714z" fill="url(#j)" fill-rule="evenodd"/>
 <path d="m77.492 17.664-1.2783 1.165-0.26483 1.7253-2.0756 2.0963 1.671 5.5899 0.51332 2.8583 1.2125 2.8863s0.43033 1.0343 0.73287 1.7116l-0.15028-0.24683-3.9331 0.92359-0.71635 0.80636s1.3538 0.81301 1.5309 0.95869 2.053 0.841 2.053 0.841l1.8321-0.13455s1.3998-0.29561 1.7329-0.32563c0.0052 0.00328 0.02539-0.0054 0.03053-0.00224 0.06022 0.03699 0.1124 0.08886 0.16331 0.10702l2.1203 0.67738 2.8991 0.22347s2.3405-0.29091 3.1344-0.34921 1.6674-0.59851 1.6674-0.59851l-0.35959-1.7191 0.40962-1.1409 2.1024-0.4321-0.71708-1.1375-2.4037-2.0054-1.874-1.9253-2.95-6.3688-3.293-3.8046-2.0846-1.9892-1.7052-0.3905z" fill-opacity=".62745" fill-rule="evenodd" filter="url(#o)"/>
 <path d="m80.5,38.625c-.3125,0-1.875.3125-1.875.3125h-1.875c0,0-1.625-1.3125-1.75-1.5625s-1.1875-1.6875-1.1875-1.6875l1-1.1875 4.25-1 .375,2.3125 1.0625,2.8125z" fill="url(#i)" fill-rule="evenodd"/>
 <path d="m80.625,38.8125c-.5625-.4375-1.375-3.5625-1.4375-3.9375s-.1875-3.75-.1875-3.75l-.1875-4.6875 .5-4.5625 .3125-9 2.8125-3.0625 .875-2.6875 1.6875-1.6875 1.5625.8125 1.375,3.375 1.9375,6.375 .6875,10.375 1.1875,3.25 1.6875,3.4375 .3125,1.875-2.25.4375-.8125,1.75-.25,2.75c0,0-1.0625.75-1.875.75s-3.25.1875-3.25.1875l-2.8125-.6875-1.875-1.3125z" fill="url(#h)" fill-rule="evenodd"/>
 <path d="m92.8125,34.8125-1.875,1.1875-.4375,3.375 .375,1.625c0,0 .6875.4375.9375.4375s2.375.0625 2.375.0625l1.3125-.3125 1.375-1.625-.1875-2.3125-1.5-1.6875-2.375-.75z" fill="url(#f)" fill-rule="evenodd"/>
 <path d="m116.72 76.771-4.9123-0.40047-3.257-1.8236-2.5597-3.0412-0.83692-2.8006 0.85958-2.2695-4.1055-6.3508 0.9647-3.4313 1.1019-4.0201 1.3226-0.5279 2.5413 0.27859 2.7746 1.4084 1.5937 2.0381 1.38 3.8436 0.95241 3.1928 1.2267 2.0151 2.3551 1.9663 3.2913 2.7418 1.6017 3.2468-0.15997 1.3973-0.44352 1.1936-0.81277 0.82535-1.6062 0.32429-3.2718 0.19346z" fill-opacity=".62745" fill-rule="evenodd" filter="url(#n)"/>
 <path d="m114.55 76.293c-0.88388-0.26517-4.6846-1.3258-4.6846-1.3258l-2.2981-3.2704-0.97227-5.0381 0.61872-4.4194 2.0329-3.3588-0.7955-10.341 2.74-5.1265 3.182-6.0104 1.591-0.61872 2.3865 0.79549 2.0329 2.5633 0.53033 3.3588-0.61872 6.0988-0.70711 5.0381 0.17678 3.2704 1.3258 3.3588 1.8562 4.6846-0.08839 5.2149-0.88388 2.1213-1.0607 1.7678-1.2374 1.149-1.7678 0.26517-3.3588-0.17678z" fill="url(#c)" fill-rule="evenodd"/>
 <path d="m122.77 71.166 1.8562 0.08839h0.88388l0.17678 2.6516 0.97227 1.6794-1.8562 0.70711-1.591 0.26516h-1.4142l-1.2374-1.149 0.97227-0.97227 1.2374-3.2704z" fill="url(#b)" fill-rule="evenodd"/>
 <path d="m65.407 98.39-2.5633 1.0607-1.7678 1.5026-0.08839 1.591 0.70711 1.4142 1.8562 1.149 1.3258-0.08839 2.5633-1.149 1.591-1.0607-1.7678-1.2374-1.2374-1.6794-0.61872-1.5026z" fill-opacity=".15686" fill-rule="evenodd"/>
 <path d="m15.822 86.457-3.6239-1.5026-1.3258 0.61872-1.0607 1.6794-0.26517 1.149 1.3258 1.9445 1.2374 0.17678 1.8562-0.08839 2.6516-0.88388 1.149-0.61872-0.88388-1.6794-1.0607-0.7955z" fill-opacity=".15686" fill-rule="evenodd"/>
 <path d="m80.5,38.625c-.3125,0-1.875.3125-1.875.3125h-1.875c0,0-1.625-1.3125-1.75-1.5625s-1.1875-1.6875-1.1875-1.6875l1-1.1875 4.25-1 .375,2.3125 1.0625,2.8125z" fill-opacity=".15686" fill-rule="evenodd"/>
 <path d="m16.25,67.875c-.52358-.5016-1.0624-.89655-1.75-.25l2-4.125 .25.1875-.625,2.125 .125,2.0625z" fill-opacity=".15686" fill-rule="evenodd"/>
 <path d="m28.125 65.812 1.5625-3-1.4375-4.9375c-1.0743 1.4661-3.1276 2.3563-1.5625 5.375 1.1589 0.56283 1.4378 1.5028 1.4375 2.5625z" fill-opacity=".15686" fill-rule="evenodd"/>
 <path d="m27,48.4375c.00725,1.92754.4496,3.79291-.625,5.875 .81694-.68133 1.39633.53773 2.0625,1.0625 .3597-2.14583.07037-1.91667-.3125-4.0625l-1.125-2.875z" fill-opacity=".15686" fill-rule="evenodd"/>
 <path d="m22.562 80.875 0.125 3.125 2.125 2.125-3.6875 1.3125c0.68699-0.55662 1.8833-1.0405 1.5-1.75 0.03402-1.2286-1.3015-1.2833-2.375-1.5625 2.022-0.77054 1.5494-2.1647 2.3125-3.25z" fill-opacity=".15686" fill-rule="evenodd"/>
 <path d="m71.375,67.625 .75-5.4375-.8125.875-2,5.5625c.67817-.40799 1.23661-1.77378 2.0625-1z" fill-opacity=".15686" fill-rule="evenodd"/>
 <path d="m75.1875,103.0625 2.4375-.1875 1.5625-.4375c.91802-.68851 3.92411-4.8337 3.375-3.9375-.3409.55639-.9375,2.875-.9375,2.875-.65209,1.09503-1.33467,2.19241.125,3.125l-4.125.1875-2.4375-1.625z" fill-opacity=".15686" fill-rule="evenodd"/>
 <path d="m66.25 94.125-0.375 3.5625 0.0625 1.9375 1.375 1.6875 3.375 1.4375c-2.1267-2.3488-4.8435-4.2183-4.4375-8.625z" fill-opacity=".15686" fill-rule="evenodd"/>
 <path d="m120 73.5-4.4375 1.8125h-3.625l1.875 0.875 2.875 0.3125c0.26663-1.67 2.2078-2.0004 3.3125-3z" fill-opacity=".15686" fill-rule="evenodd"/>
 <path d="m122,63.875 .875,3.75-.25,3.5625c-1.4453-.8065-2.99613-1.15568-4.9375.1875-.3467-2.81073 1.58942-5.47879 3.875-8.125l.4375.625z" fill-opacity=".15686" fill-rule="evenodd"/>
 <path d="m107.88 61.312 1.125-2.1875 2-1.5s-1.3125 4.6875-3.125 3.6875z" fill-opacity=".15686" fill-rule="evenodd"/>
 <path d="m116.4375,37.4375-1.625,3-.1875,3.4375c-.72121-.76917-.30043-2.79452-2.5-1.9375l1.875-3.75 1.25-1 .9375-.3125 .25.5625z" fill-opacity=".15686" fill-rule="evenodd"/>
 <path d="m91.75,30c-1.56095-.00418-1.94894,1.33216-2.375,2.625-1.09793.58439-1.58644.25466-2.375.375 .35934-1.53842.38038-3.11912 2-4.5l1.5625-2 1.1875,3.5z" fill-opacity=".15686" fill-rule="evenodd"/>
 <path d="m82.625 15.062c-0.56493-1.4111-1.2834-2.4713-3-1.25l2.8125-4 1.3125 2.1875 1.75 0.8125c-1.442 0.11483-1.1837 2.7644-2.875 2.25z" fill-opacity=".15686" fill-rule="evenodd"/>
 <path d="m78.875 32.188c0 0.25 1.75 5.875 1.75 5.875l2.3125 2.4375 4.5625 0.4375c-3.0188-2.5059-6.6595-3.2348-8.625-8.75z" fill-opacity=".15686" fill-rule="evenodd"/>
 <path d="m37.75 32.188c-1.2652 2.8125-1.0021 5.625-1.1875 8.4375 0.43491 1.276-0.37763 3.051-0.6875 4.625 1.1684-0.77215 1.9495-2.8351 3.5625-2.125l-1-1.75 0.5-6.4375-1.1875-2.75z" fill-opacity=".15686" fill-rule="evenodd"/>
 <path d="m28.8125,45.6875-1.125-1.5-.4375-1.8125c1.06325.56699 1.83698-.60309 2.75-.9375l-1.3125,2.25 .125,2z" fill-opacity=".15686" fill-rule="evenodd"/>
 <path d="m28.812 36.125s-1.25-0.75-1.25-1.625 0.25-3.375 0.25-3.375l-1.5 2.875-0.5625 4.1875c1.1324-1.1917 2.0915-2.3238 3.0625-2.0625z" fill-opacity=".15686" fill-rule="evenodd"/>
 <path d="m30.625 13.438 0.6875-2.125-1.9375 1.375-1.875 4.5625c1.0333-1.3295 1.944-3.5174 3.125-3.8125z" fill-opacity=".15686" fill-rule="evenodd"/>
 <path d="m84.75,5.21875c-1.24515.12149-2.24063,1.32665-2.5625,3.1875v.03125c-.12641.81501-.51448,1.31406-1.03125,1.875s-1.16476,1.13155-1.71875,1.96875l-.03125.0625-.03125.09375c-.33143,1.13152-.41945,3.35284-.46875,5.65625-.04875,2.27767-.03172,4.52119-.03125,5.53125 1e-005,.01141 0,.05141 0,.0625-.44723,3.09714-.72215,6.24211-.3125,9.40625-1.99414-.02746-3.4994.88103-4.8125,2.25-.29676.99727.30851,1.3958.875,2.0625 .61037,1.10413 1.61265,1.46382 2.78125,1.84375 1.04007-.06399 2.08415-.01415 3.125,0 .24645.25803.51934.51017.84375.75v.03125c2.7752,1.90255 6.07398,1.48788 8.96875.375 .28576.81373.77205,1.255 1.59375,1.65625 1.64684.17407 3.04908-.26369 4.375-1.1875 1.79355-1.84656 1.28861-3.5797-.34375-5.1875l-.03125-.03125h-.03125c-.57856-.38209-1.20961-.71887-1.875-.90625-.01069-.60699-.08244-1.39594-.21875-1.96875-1.03306-2.13264-1.92481-4.35608-2.8125-6.5625-.17668-5.02258-.54971-13.53981-3.25-18.21875-.01143-.03695-.01941-.0575-.03125-.09375h-.03125c-.28721-.87187-.66134-1.57538-1.15625-2.03125-.51871-.47779-1.15868-.717-1.78125-.65625zm.09375,1c.31695-.03093.64934.08325 1,.40625s.71885.8484.96875,1.65625v.0625l.03125.0625c2.49631,4.24382 2.98059,12.94925 3.15625,17.96875l-1.03125,2.0625-.40625,2.9375-1.5625,1.46875 .0625.125 1.90625-.78125 .375.65625 .1875-.0625-.15625-.78125 .09375-3.3125 .84375-1.4375c.78057,1.9235 1.57796,3.87126 2.53125,5.75 .15616.65622.14091,1.0824.09375,1.625-.92729.05083-1.84153.57035-2.5,1.6875-.22045,1.01288-.24076,2.05766-.25,3.09375-2.76175,1.10514-5.73943,1.48096-8.21875-.21875-.92103-.68092-1.38093-1.34-1.6875-2.15625s-.44868-1.79303-.59375-2.96875v-.03125c-.6267-3.39724-.31321-6.7976.1875-10.25v-.03125-.0625c0-1.00652-.01761-3.27965.03125-5.5625 .0483-2.25663.20907-4.52266.4375-5.34375 .45639-.66352 1.01256-1.18431 1.5625-1.78125 .17551-.19051.33944-.40326.5-.625l1.03125,1.5625-.0625,1.875-.84375,1.375v.03125l1.125-1.09375 .25-1.5625 1.71875.375 .03125-.0625-1.65625-.875 .03125-.125-1.125-2.375c.12184-.28634.22789-.59346.28125-.9375 .27635-1.59764 1.02235-2.2819 1.65625-2.34375zm-52.09375,4.3125c-4.55139-.04868-5.46166,5.33445-5.9375,9.125-.55144,3.58676 1.38199,7.32051.84375,10.90625-1.42983,2.58052-2.38314,5.48561-2.34375,8.34375v.09375c.8703,2.85264 2.03471,5.4733 3.84375,7.84375 3.62414,1.17034 6.82023-.32121 10-2.03125h.03125v-.03125c.57801-.55673.94974-1.17537 1.21875-1.84375 .78625.07187 1.73422.26925 2.71875-.1875v.03125c1.05599-.29428 2.20283-.40684 2.78125-1.65625-.51331-1.08637-1.22696-2.03303-1.96875-2.96875-1.023-.56896-1.94137-.39197-2.96875-.09375-.00262-.16714.00198-.33383 0-.5-2e-005-.00856 1e-005-.02274 0-.03125s-.00155-.0198 0-.03125c.39712-2.94023-.78997-4.63711-1.96875-7.125-1.38598-3.21706-.5-7.58173-.5-11.28125-.99176-3.49644-2.07251-7.34089-5.75-8.5625zm-.125.5625c3.28877.83927 3.92243,5.28205 4.875,8.09375-.00646,2.32071-.24713,4.79362 0,7.21875l.15625,5.875 .9375,2.53125-2.125,5.84375h.09375l1.8125-4-.21875,1.125-.3125,3.5-2.09375,3.96875h.1875l2.5-3.65625 .1875-3.6875 .53125-3v-.03125-.03125l-1.09375-2.65625 .125-2.6875c.08635.24911.14433.50473.25.75 1.23451,2.28216 1.72438,4.58732 1.5625,7.15625 .27614,2.36663-.01637,4.73097-1.125,6.8125-2.82098,1.94605-5.868,2.99125-9.3125,2.5625-.90489-1.4471-.52327-2.1223-.6875-3.125l1.25-2.125-.21875-.25-1.4375,2.34375-.03125,1.625c-1.26703-2.05312-1.25527-4.14242-2.125-6.4375-.02399-2.36707.26816-4.91364 1.1875-7.0625l-.125,2.78125 1.34375,1.71875 .125-.125-1.15625-1.53125 .34375-3.90625c.00756-.06285.02433-.1246.03125-.1875v-.15625l1.53125-1.59375 .03125-.3125-1.5,1.3125c.23737-3.27775-.28322-6.60909-.3125-9.90625v-.0625-.03125c.44244-2.42457 1.00089-6.36645 3.09375-7.96875l-.34375,1.625 .25.15625 .75-2.15625c.32644-.15366.67083-.26919 1.0625-.3125zm45.65625,23c.14463.0005.29055.02305.4375.03125 .00371.02065-.00378.04185 0,.0625h-.03125c.14514,1.17628.29164,2.21671.65625,3.1875 .12521.33337.27719.65795.46875.96875-.77923.16101-1.59868.50423-2.34375.53125-1.17687-.19442-1.33292-1.09471-2.0625-2.0625-.3748-.1807-.98996-.84893-1.25-1.15625 1.0936-1.10075 2.53589-1.568 4.125-1.5625zm14.90625,1.0625c.64796.01083 1.35485.80287 2.09375,1.28125 1.54852,1.18387 1.74827,2.69413.625,4.1875-.97921.81415-2.55943.38734-3.78125.46875-.62316-.17502-1.10502-.52378-1.375-1.03125-.01107-.85865.51062-2.46523.625-3.3125 .55359-.892 1.16763-1.60453 1.8125-1.59375zm22.65625,1.5625c-1.96841.28281-2.79058,1.7091-3.53125,3.40625-1.36304,2.82979-2.87893,5.58114-4.0625,8.5-.10551,3.18392.38956,6.36051.6875,9.53125-.21774,1.23072-1.2207,2.45804-1.9375,3.5625-3.95212-12.8839-20.92553-22.5625-41.1875-22.5625-15.05074,0-28.213,5.34384-35.625,13.375-.4664-1.36929-1.12039-2.6423-2-3.71875v-.09375l-.125-.0625c-.82049-.95782-1.83267-1.75181-3.125-2.25l-.0625-.03125h-.0625c-4.95704-.34025-5.76298,5.36626-6.09375,9.21875-.73637,4.67912-3.16778,8.82267-4.875,13.1875-.41481,4.91498-.38184,9.83544-.03125,14.75l.03125.0625 .03125.0625c.31987.85622.70474,1.53427 1.15625,2.09375l-2.90625-.90625c-1.72311.48703-2.30914,1.65501-2.875,3.21875-.01655,1.36914.92359,1.99924 1.9375,2.71875 2.61732.3271 4.85763-.65954 7.03125-2-.13824-.50303-.43657-.9523-.75-1.375 .69391.23223 1.45399.37733 2.34375.4375 3.33857-.20381 6.38022-1.31483 9.28125-2.90625l.0625-.03125 .03125-.0625c.56584-.64313.96898-1.36239 1.25-2.125 7.42879,7.8468 20.39501,13.08092 35.1875,13.125-.06976.57599-.12371,1.17901-.15625,1.8125-1.16598.12088-2.00148,1.11916-2.84375,1.71875-1.39594.80128-1.9348,1.25901-2.25,2.71875 .37976,1.99151 1.82769,2.99384 3.71875,3.09375 1.81123.02066 3.81127-1.16084 5-2.1875 2.15051.63391 4.48238.50981 6.625,1.34375 2.01914.99547 4.1908.80561 6.34375.34375 1.89635-.67187 3.45946-2.14039 4.125-4.40625 1.36014-.16277 2.62929-.50651 3.625-1.40625 .16059-1.04422.00836-2.18372-.0625-3.25-.15493-.54482-.75447-.5732-1.21875-.75-1.27771-.00245-2.45088-.07616-3.6875-.34375-.20839-.52336-.42714-1.04884-.65625-1.5625 11.94988-3.93364 20.74724-11.56606 23.0625-20.6875 .61407,1.24169 1.5845,2.28552 3.0625,3 3.11707,1.18229 6.0763,1.76803 9.34375,1.03125 .22669-.13323.4534-.25382.65625-.40625 .74145.79371 1.36859,1.16613 2.4375,1 1.50876-.41526 3.31373.15688 4.375-1.75-.85243-1.00087-1.76793-1.9702-1-3.78125-.98162-.63417-1.96846-.61414-2.96875-.5 .39516-2.16451.18098-4.53023-.34375-6.53125-.68737-2.27951-2.13607-4.23372-2.71875-6.5625-.45793-3.6321.79642-7.63755.96875-11.4375 .36551-2.54672.39533-4.58518-.59375-6.96875l-.03125-.0625-.03125-.03125c-1.48813-1.65763-3.04739-2.63237-4.5625-2.5625zm.15625.21875c.09908-.00457.20959.03943.3125.0625l-1.9375,3.71875 .21875,3.28125 .1875.09375 .1875-3.25 1.9375-3.625c.81993.50025 1.72648,1.59137 2.71875,2.6875 1.16104,2.05709.55919,4.17988.4375,6.40625-.36401,3.81322-.78716,7.57584-.53125,11.40625 .5012,1.94805 1.23667,3.8222 1.90625,5.71875l-1.1875,3.625-2.5625,4.28125-1.59375.375 .03125.03125 1.46875-.125 3.1875-4.375v-.03125l.03125-.0625 .9375-2.8125 .09375.28125c1.10506,3.94694 1.01999,8.83219-2.375,11.3125-2.20894.83362-4.69564.12326-7-.59375l3.09375.0625 5.09375-1.84375 1.03125-2.53125h-.03125l-1.15625,2.0625-5.15625,1.90625-4.78125-.25c-4.05202-1.78893-3.44816-8.4982-2.9375-12.21875 .61723-.92547 1.06717-1.89384 1.40625-2.90625 1.08906-.90852 2.05738-1.73874 2.8125-3.5625l-.15625.03125c-.02153,1.03343-1.35409,1.54758-2.28125,2.21875-.19561-3.13457-.60531-6.45582-.53125-9.59375 1.06343-2.91999 3.07234-5.28731 4.375-8.1875v-.03125-.03125c.45779-1.5418 1.35756-3.02674 2.75-3.53125zm-72.9375,1.40625c.26345-.02422.49837-.0146.6875.03125 .54209.63114.98355,2.13896 1.375,2.84375-.43043.38576-1.66525.90092-2.4375,1.1875-.65805.3002-1.31009-.22253-2-.40625 .22936-.96655.28484-1.99674.28125-3.03125 .56556-.28747 1.4047-.56164 2.09375-.625zm22.5,1.21875c19.99839,0 37.32985,10.33286 40.96875,23.28125h.0625c-.32284,2.91359-.60742,6.1072.3125,8.65625-1.88285,9.25215-10.84862,16.99367-22.96875,20.9375-.00397-.0087.00398-.02255 0-.03125-.5149-4.92584-.20649-9.87399-.53125-14.8125-.04749-1.56988-.25436-3.10922-.5625-4.625l22.0625-2.8125-25.09375-7.59375c-.05307-.22367-.67467-2.18803-.75-2.40625l4.1875-16.375-20.25,13.28125-25.59375-7.9375 13.0625,16.03125-19.46875,12.84375c-.01356-.59418-.02675-1.18279-.0625-1.78125-.18821-3.15041-.48613-6.32844.125-9.09375 .46491-4.49129.08909-9.00769-.53125-13.46875v-.03125c-.05138-.18846-.09931-.37605-.15625-.5625 7.31395-8.03229 20.43291-13.5 35.1875-13.5zm17.40625,4.59375-4.25,15.65625c-.23262-.29643-.49184-.57542-.84375-.8125-1.59782.01728-3.27278.68317-4.34375,1.3125l-10.3125-3.25 19.75-12.90625zm-58.25,2.46875c.89754.35655 1.62539.98473 2.25,1.71875l1.28125,5.40625-.4375,4.125-1.28125,5.59375 .28125.09375 1.4375-4.75 1.21875,3.65625-1.40625,3.5625 2-3.3125-1.46875-5.625 .28125-3.28125-.4375-3.15625c.47263,1.02496.8325,2.12108 1.125,3.1875 .96418,4.35609 1.14136,8.80676 1.0625,13.25-.5908,3.13383-.72817,6.13158-.5,9.28125 .18278,3.05945.02965,5.78741-1.65625,7.75-1.08731.67191-2.21378,1.32863-3.375,1.875l-1.5625-1.15625-.53125-1.25-.4375-2.9375-.0625-.125-.25,3.125 .09375.21875-2.5.21875v.1875l2.75.125 .4375.875 1.28125,1.03125c-1.47407.62892-2.98251,1.10069-4.53125,1.25-2.65644.11803-3.82474-2.14484-4.96875-4.28125-.63231-4.33816-.64809-10.04927-.53125-14.53125 .57811-1.70673 1.40266-3.28698 2.25-4.84375-.43019,1.18557-.80109,2.31255-.40625,4.09375l.28125-.03125c-.3396-2.26743.55595-4.12203 1.15625-6 1.00172-1.93425 1.88506-3.9211 2.15625-6.25v-.03125-.03125c.18303-3.29075.93789-8.97773 5-9.03125zm13.125,2.78125 24.90625,7.78125-11.84375,8.125-13.0625-15.90625zm25.25,7.8125 10.0625,3.3125c-1.52714,1.20217-2.56348,3.03303-3.4375,5.21875-1.18272,2.69556-1.08422,5.65707-.9375,8.5l-10.03125.9375-7.6875-9.90625 12.03125-8.0625zm14,2.53125c1.04969.81307 1.40856,1.93594 1.75,3.15625 .19729,1.27432.91303,2.9048 1.75,4.125 1.45775,3.43124 1.86208,6.97247 2.0625,10.71875 .33762,4.96333.35374,10.16729.8125,15.125 1.84062,1.92989 1.70349,5.14901 1.75,7.125-.58269,1.97259-1.84373,3.70551-3.46875,4.28125-1.64566.58305-3.67474-.02525-5.5625-.78125-.11584-.07018-.22588-.12731-.34375-.1875h2.4375l3.65625-1.78125 .0625-.21875 1.90625-1.125-.09375-.15625-1.6875.71875 .6875-2.6875-.21875-.125-.96875,3.3125-3.5,1.5h-.09375l.25-2.15625-.0625-.09375-.875,2.25-3.4375-.0625c-1.93926-.35492-3.98624-.15954-5.8125-1.125-.67158-.47991-1.59385-1.25083-2-2.59375-.04396-4.61612 1.50513-7.47648 2.5625-10.34375l.03125-.09375v-.0625c.05455-4.66611.67057-7.13872.75-11.90625-.07749-.83588-.12051-1.65124-.125-2.46875l.09375-.09375h-.09375c-.00512-2.67047.39734-5.26628 1.3125-7.84375 .16762-1.13779.50442-2.06884.96875-2.84375-.26269,1.28025-.40536,2.67669-.28125,4.34375l.21875-.0625c-.17302-2.18025.97424-4.05148 1.625-6.03125 1.05545-.8042 2.3929-1.35099 3.9375-1.8125zm2.75,3.125 24.125,7.25-21.09375,2.46875c-.51837-1.60756-1.26753-4.21421-1.96875-6.125-.72118-1.08386-.86374-2.34185-1.0625-3.59375zm-29.0625,2.375 7.84375,10.25-27.59375,2.53125 19.75-12.78125zm73.125,6.3125c.58435-.02101 1.04077.25045 1.375.71875 .10586.75559-.49442,1.26516.625,2.34375 .16035,1.53023-2.1268,1.51668-3.40625,1.96875-.75192.18398-1.08652-.66556-1.625-1.1875 1.03643-.9771 1.71324-2.21993 2.09375-3.59375 .00267-.00964-.00264-.0216 0-.03125 .32902-.15143.66141-.20882.9375-.21875zm-55.125,2.90625c.03486.66285.07366,1.33153.09375,2-.06245,3.74832-.76202,6.39318-1.0625,9.625l-8.78125-10.75 9.75-.875zm-9.9375,1.28125 8.9375,10.625c-.04765.62182-.08415,1.26471-.09375,1.96875-.7412,2.00589-1.58827,4.13869-2,6.90625-14.57468-.03015-27.65861-5.3306-35.0625-13.1875 .32274-1.17334.42136-2.44851.40625-3.75l27.8125-2.5625zm-46.84375,9.65625c.98195.1172 2.60472.89053 3.46875,1.34375 .93569.39074 1.27017,1.6098 1.8125,2.4375-1.24047.63629-3.11443.40957-4.53125.9375-.88686.33046.40321-1.67952.5-1.84375 .14962-.25386-1.58959,1.83652-1.875,1.84375-.70545-.29885-1.28249-1.30934-1.625-1.875 .57493-1.18179 1.0904-2.30937 2.25-2.84375zm73.125,9.8125c1.0746.33328 2.4223-.04573 3.625.09375 .45488.54102.34852,2.64085.375,3.40625-.71375.7259-1.95015.5789-2.96875.71875-.15277-1.44446-.52804-2.85438-1.03125-4.21875zm-19.6875,3.46875c-.00046.10641-.00119.20416 0,.3125 .24671,1.41007 1.16774,2.36038 2.09375,3.375 .2852.15795.58038.25974.875.375-1.3626.80894-2.70021,1.66217-4.28125,1.75-1.51487.00483-2.39706-.98295-3-2.21875-.04257-.7421.64444-1.81941 1.875-2.53125 .73255-.65108 1.53783-.89286 2.4375-1.0625z"/>
</svg>
