<?xml version="1.0" encoding="UTF-8"?>
<svg viewBox="0 0 128 128" xmlns="http://www.w3.org/2000/svg" xmlns:xlink="http://www.w3.org/1999/xlink">
 <defs>
  <filter id="h" x="-.09085" y="-.10177" width="1.1817" height="1.2035">
   <feGaussianBlur stdDeviation="2.01257"/>
  </filter>
  <linearGradient id="a">
   <stop stop-color="#b1b1b1" offset="0"/>
   <stop stop-color="#e4e4e4" offset="1"/>
  </linearGradient>
  <linearGradient id="b">
   <stop stop-color="#6a3c1d" offset="0"/>
   <stop stop-color="#8f5127" offset="1"/>
  </linearGradient>
  <linearGradient id="g" x1="46.703" x2="83.719" y1="61.924" y2="30.097" gradientUnits="userSpaceOnUse" xlink:href="#b"/>
  <linearGradient id="f" x1="57.254" x2="62.402" gradientUnits="userSpaceOnUse" xlink:href="#b"/>
  <linearGradient id="e" x1="61.751" x2="67.794" y1="104.82" y2="100.47" gradientUnits="userSpaceOnUse" xlink:href="#a"/>
  <linearGradient id="d" x1="49.617" x2="56.48" y1="105.95" y2="100.59" gradientUnits="userSpaceOnUse" xlink:href="#a"/>
  <linearGradient id="c" x1="62.137" x2="65.363" y1="97.656" y2="94.889" gradientUnits="userSpaceOnUse" xlink:href="#a"/>
 </defs>
 <path transform="matrix(1 0 0 1.1264 0 -13.702)" d="m44.88446,60.9228-.91886.06394-1.51261.06394-.11102.04796-.57977.04796-.57893.47958-.05784.01599 .00466.01599-.20339.15986 .8967,1.03909-.12347,3.7567 .9932,1.26289 .06991.23979-9.26368.70338-1.37828.09592-9.42925.67141-.2108-.07993 .0858.07993-.15159.01599 .20614.06394 .3572.36768 1.37836,1.72649 .17191.9112 1.71768.63944h3.4375l1.09116,3.421-4.34207.86324 1.58352,4.25227 .47013.1119 1.06663.33571 .65762.1119 .47945.14387 1.05028,2.63768 .84046.09592 1.36048.27176 7.51727-.04796 6.50955-1.03909 .05127.17585 1.08848,5.01959-.50726,3.40501 1.5991,3.34107 1.57633,2.94142 1.18437,3.74072 1.10705,3.26113 1.9537.59148 1.43422.09592 .62828-.09592 1.78675.44761 3.50168.86324 1.97479.12789 2.38348-.39965 3.0123-.81529h2.3125l.35002-.94316c0,0-2.43247-1.94254-3.3559-2.07818-.81077-.1191-4.46053-.89713-5.4466-1.10303l.54523.04796-.88547-1.21494-2.56418-.86324-3.47425-.44761 .44583,2.49381 2.77384-.23979 1.8857.14388-4.59429.31971-.02659.016-.00138-.11191-.03729-.12789-4.15573-13.39624-1.13203-4.20431-.16893-1.75846-.0233-.07993 16.70767-2.71761 5.48029.57549 .20331-1.98226-1.85368-1.53465-1.36599-.71937 1.67459-.6874-.35132-3.88459-2.26895-.81528 .94598-.39965-2.23701-4.02846-3.63432-.03197-3.75138-.1119-.73877-.17585h-.25l-.23273-.04796-1.42023-.04796-.45614-.06394-.20614-.06394-.15159.01599-.09841-.01599-10.54821.7993-.08855-.30373-2.18223-5.01959 .01452-.27176 .0855-.67141 .02055-.14387-1.60254-.35169zm6.98063,40.5564-3.56548.84726-.9459,2.22205-2.35162,1.90233-.14853.99113 .85995.59148 3.38952-.27176 4.88509-1.35881-2.12302-4.92368z" fill-opacity=".62745" fill-rule="evenodd" filter="url(#h)"/>
 <path d="m57.452 16.896-1.0607 1.3258 0.61872 2.0329-1.2374 7.3362 0.61872 2.4749 0.44194 32.792-0.35355 9.8111-1.5026 6.6291 0.61872 6.5407 0.70711 5.7452 0.08839 7.3362 0.17678 6.364 1.7678 1.149 1.4142 0.17678 1.4142-0.35355 0.97227-7.1595-0.26517-26.428 0.08839-8.2201 0.35355-3.4472 0.08839-31.908-0.70711-9.8111 0.44194-2.1213-1.5026-0.70711-3.182 0.44194z" fill="url(#f)" fill-rule="evenodd"/>
 <path d="m83.969 29.182-6.8943-0.08839-1.591-0.61872-1.4142-0.08839-0.88388-0.26516-37.3 5.3917 1.0607 4.1542-0.08839 1.7678 1.7678 1.2374h3.182l0.08839 6.7175-4.5962 1.6794 0.35355 8.3085 1.8562 0.97227 0.7955 0.53033 0.08839 4.8614 2.1213 0.88388 7.513-0.08839 11.137-3.3588 18.65-5.6568 5.3033 1.149 0.79549-3.8891-1.4142-3.0052-1.149-1.4142 1.8562-1.3258 0.7955-7.6014-2.0329-1.591 1.0607-0.7955-1.0607-7.8666z" fill="url(#g)" fill-rule="evenodd"/>
 <path d="m55.773 95.738-3.6277 2.1983-1.764 3.8121-2.9168 3.7123-0.44194 1.9445 0.70711 1.149 3.4471-0.53033 5.3033-2.6516-0.70711-9.6343z" fill="url(#d)" fill-rule="evenodd"/>
 <path d="m75.926 105.02s-1.8562-3.8007-2.74-4.0659-5.7452-2.3865-5.7452-2.3865l-5.3033 0.70711-2.2981 1.6794-0.17678 3.0052 0.35355 2.2981 2.0329 1.0607 3.2704 1.6794 1.9445 0.26516 2.4749-0.79549 3.2704-1.591h2.2981l0.61872-1.8562z" fill="url(#e)" fill-rule="evenodd"/>
 <path d="m68.589 98.92-0.53033-2.3865-2.2981-1.6794-3.3588-0.88388-0.26517 4.8614 2.8284-0.44194 3.6239 0.53033z" fill="url(#c)" fill-rule="evenodd"/>
 <path d="m35.719 33.25 1.3125 3.8125-0.1875 2.375 1.5312 1.25h3.625v6.5312l1.0312 0.25 0.84375 0.90625 5.1875-1.5938-5.6562 0.34375 0.34375-6.5312-1.5 0.09375-3.2812-0.28125-1.2188-5.5625-2.0312-1.5938zm8.1562 15.125-3.9375 1.2188 4-1.1562-0.0625-0.0625zm39.75-10.438-3.375 1.1562 5.3125 0.25-1.9375-1.4062zm-0.96875 10.25-3.625 1.8438s5.1152-0.25 5.4688-0.25l-1.8438-1.5938zm-45.281 0.96875 0.375 8.2188 1.3125 0.875 1.0625 0.375 0.28125 5.2812 2.375 0.53125-1.3125-5.125 5.4688-2.7188-7.1562 1.5 0.09375-8.5-2.5-0.4375z" fill-opacity=".15686" fill-rule="evenodd"/>
 <path d="m60.531 16.531-2.375 0.1875-1.5 1.1562 0.53125 1.5 1.8438 0.96875 1.6875-0.4375 1.0625-1.1562 0.28125-1.3125-1.5312-0.90625zm12.906 11.594-3.625 0.53125-22.875 3.25-11.312 1.5312 1.8438 1.2188 12.562-1.4062s22.726-4.1562 23.875-4.1562 2.8125 0.78125 2.8125 0.78125l6.9062-0.53125-7-0.4375-0.6875-0.34375-1.9688-0.09375-0.53125-0.34375zm-30.406 19.25-1.75 0.375-3.8125 1.3125 1.9375 0.53125 4.4375-1.3125-0.8125-0.90625z" fill="#fff" fill-opacity=".12549" fill-rule="evenodd"/>
 <path d="m55.773 95.738-3.8007 1.6794-1.591 4.331-2.9168 3.7123-0.44194 1.9445 0.70711 1.149 3.4471-0.53033 5.3033-2.6516-0.70711-9.6343z" fill-opacity=".15686" fill-rule="evenodd"/>
 <path d="m59.46875,16.25c-1.62606.08374-3.2828.85402-2.96875,2.34375l-1.25,9.65625 .5,2.15625-20.15625,3c.47814,2.01896 1.3721,3.95475 1.09375,6.125l1.8125,1.5 3-.0625 .1875,6.4375-4.6875,1.59375c-.04883,3.20842.423,4.91642.375,8.125 .37616,1.0768.92247,1.29419 1.90625,1.53125l.5-.125 .46875,5.46875 1.90625.90625 8.0625-.25 5.90625-1.78125-.0625,9.875c-1.48062,6.08325-1.70551,12.16675-.1875,18.25v4.46875c-1.30986.19289-2.55915,1.16455-3.6875,1.84375-1.03215,1.61259-1.37322,3.35323-2.5625,4.90625-1.9581,2.05012-4.51074,5.16906-1.6875,6.53125 2.65451-.03959 5.97716-1.58645 8.125-3 1.2983.74529 2.62951,1.30684 4.125.96875 2.11838,1.73595 4.71489,2.47267 7.4375,2.78125 2.40679-.04683 4.1129-1.98935 6.4375-2.25 1.85159.44146 1.65203-.61651 1.9375-2.4375-1.6733-3.63661-3.73258-4.98871-7.1875-6.125 .33834-3.61721-3.01813-4.58963-6.1875-4.78125l-.46875-28.8125c.1053-1.26676.51366-2.98101.5625-4.21875l17.46875-5.28125 5,1.34375 .75-4.5625-1.25-3.03125-1.28125-.90625 2-.75 .59375-8.46875-1.4375-1.09375 1.125-.3125-1.65625-8.78125h-.1875-.03125l-7.125-.15625-.96875-.40625-1.34375-.0625-.8125-.40625-2.96875.21875-7.84375,1.15625-.4375-11.40625c.37767-1.19967-1.21769-1.80249-2.84375-1.71875zm.3125.59375c1.33784.03789 2.45509.71544 1.53125,2.21875l.65625,10.53125-5.125.65625-.65625-1.21875 1.3125-9.5625c-1.51532-1.66546.56117-2.67371 2.28125-2.625zm1.34375,2.59375c-1.06048.41735-2.16001,1.22511-3.0625.0625l-.1875.375c1.22556,2.13437 1.92927.86626 3,.1875l.25-.625zm12.25,9.0625 .25.21875c-.45788.08185-8.91161,1.58341-17.59375,3.15625l-18.84375,2.59375c.7925,1.8124 1.1737,3.78862 1.28125,5.875l-1.21875-.96875c.38866-2.57616-.61558-3.75942-.96875-5.59375l34.3125-5.09375 2.78125-.1875zm.5.0625 1.8125.25 .875.3125 4.96875.0625-4.78125.3125-2.65625-.875-.1875.03125-.03125-.09375zm.15625.6875 2.15625.875-4.15625,1.4375 2.5.65625-10.5625,3-1.21875-.03125-.125.4375-4.5,1.28125c-.13122-.5326-.3353-1.02476-.6875-1.28125l-2.21875,2.09375-.375.125-2.15625-2.1875-.65625,2.96875-2.5.71875-2.1875-2.1875-.125-.0625 1.6875,2.4375-3.3125.9375v.03125l-6.5-.0625c-.12101-1.88741-.34486-3.7234-1.125-5.28125 6.05597-.78308 12.493-1.59743 18.5-2.6875 8.82381-1.5985 17.37997-3.18459 17.5625-3.21875zm9.75.40625 .75,7.4375-4.6875,1.78125v.125l-17.5625,4.28125c-.07518-.08216-.14551-.16969-.21875-.25-.38568.10249-.6785.29421-.90625.53125l-5.40625,1.34375-.28125-.75c-.44465.31007-.89177.73455-1.34375,1.125l-1.40625.34375c-.1649-.07869-.34375-.15625-.34375-.15625l-.125.0625c.01472.09283.04299.14079.0625.21875l-3.375.8125 .125.3125 3.3125-.84375c.44859,1.07607 1.59102.0723 2.59375-.625l.28125-.09375 .3125.96875 1.75-.875 3.4375,1.53125c.25767-.9513.67841-2.14757 1.09375-3.03125l1.21875,1.53125 1.3125-1.78125-.1875-.3125-1.0625.78125c-.21819-.19405-.42419-.41092-.625-.625l17.34375-4.34375v.15625l5.78125.25-1.15625,7.5625-5.9375,2.875-31.375,6.375-.03125-.0625-7.03125,1.53125-.125-8.03125 9.0625-2.65625-.09375-.59375-.03125-.09375-5.03125.53125-.21875-5.78125 2.53125-.71875h-.1875l3-.875 1.15625,1.6875 2.125-1.9375 .09375-.6875 1.84375-.53125 1.25,1.28125c.35344-.71919.72472-1.36389 1.125-1.96875l.90625-.25 .53125,1.03125 4.71875.625 .78125-3.3125 4.28125.78125-.46875,1.65625c1.17812.59781 2.32708.03268 3.46875-.40625l-.125-.125c-.55896.24668-1.89227-.13591-2.46875.0625l.875-2.125-4.71875-.15625 10.6875-3.0625-2.59375-.59375 4.25-1.4375 7.0625-.5zm-8.78125,3.8125-1.5625,1.25-2.59375-.875-.25.125 3.21875,2.21875 1.3125-2.65625-.125-.0625zm1.75.1875-.25.375c-.19152,1.02244.6707,1.74839 1.3125,2.4375l.25-.3125-1.3125-2.5zm-14.15625,2.09375-.5625,2-3.65625.46875c-.07679-.35355-.12618-.7798-.21875-1.1875l4.4375-1.28125zm-9.9375.78125 1.46875,1.5-1.71875.5 .25-2zm4.53125.09375 .25.46875-.71875.1875c.15309-.22314.30036-.44082.46875-.65625zm-2.15625,1.28125-.0625.0625-.03125-.03125 .09375-.03125zm28.9375.40625 1.125.875-3.90625-.1875 2.78125-.6875zm-32,.46875-.0625.34375-1.65625.9375-.59375-.59375 2.3125-.6875zm-9.03125,2.15625-.03125,6.4375-.65625-.09375-.25-6.3125 .9375-.03125zm30.5.625-1.0625.90625-2.0625-.28125-1.5,1.46875 .125.0625 1.5625-.875 2.15625.6875 1-1.21875 1.5.21875v-.4375l-1.71875-.53125zm-12.5625,2.34375c-.32553.50993-.48927,1.15839-.71875,1.78125l-2.84375-.875 3.5625-.90625zm-4.46875,1.125-.46875.40625-.09375-.25 .5625-.15625zm-2.875.71875-.25.1875c-.00102-.00955-.11177-.06711-.15625-.09375l.40625-.09375zm18.90625,1.0625-2.09375,1.8125-3.09375-1.03125-1.1875,1.53125-1.59375-1.09375-1.5625,2.53125-2.53125-.4375v.1875l2.84375,1.59375 1.5625-3.03125 1.5,1.625 1.34375-1.71875 2.9375.96875 2.3125-2.75-.4375-.1875zm-24.125.1875-9.21875,2.3125 .15625,8.53125c-.50414-.09548-.98709-.64663-1.375-.84375 0-.70577-.07648-7.36439-.0625-8l5.09375-1.5625v.3125l5.40625-.75zm34.625,1.59375 .8125.8125-3.78125.3125 2.96875-1.125zm-4.34375,1.5625 .0625.1875h5.28125l1.71875,2.375-.84375,3.65625-5.03125-1.15625-29.71875,8.75h-7.03125l-.96875-4.625 5.28125-2.625-.0625-.09375 18.4375-3.8125-.96875,3.6875-6.71875-.25-.8125.84375-.9375-.59375-2.96875,2.46875-2.125-.0625-.125.1875 2.40625,1.0625 2.4375-2.90625 1.15625.9375 1.0625-1.375 7.25.25 .8125-3.5 3.21875,1.34375 5.65625-2.8125-.0625-.25-5.65625,2-3.375-1.09375 12.625-2.59375zm-24.8125.1875-3.6875,2.09375-2.34375-1.03125v.25l2.40625,1.90625 3.21875-2.5 1.21875,2.40625 1.5-2.0625 1.3125,1.15625 1.125-1.53125-.25-.1875-1.1875.90625-1.21875-.96875-1.0625,1.09375-1.03125-1.53125zm-7.5625,6.5625-4.8125,2-1.21875-.40625 6.03125-1.59375zm-5.53125,2 .75.625 .59375,4.59375-1.25-.3125-.09375-4.90625zm21.03125,2.28125c-.03786,1.16336-.08309,2.3314-.21875,3.5625l.125,33.875c-2.25785,1.16951-3.10453,3.69282-2,7.3125-1.08387.47137-1.86054-.19648-2.875-1.40625l.125-13.15625c-1.60868-6.20859-1.53981-12.29141-.15625-18.5l.40625-10.3125 4.59375-1.375zm.90625,33.09375c1.08294-.05003 2.17502.28743 3.125.875l-1.375,1.65625 .375.25 1.78125-1.3125c.88236.75567 1.55974,1.72467 1.78125,2.78125-.66615-.20734-1.37194-.41088-2.0625-.59375-1.37965-.13552-2.6041-.02227-3.625.28125v-3.9375zm-6.75,1.90625-.125,8.53125c-.71898.56387-2.01901,1.32849-3.40625,2 .25691-1.57099.35777-3.37625 1.5625-5l-.125-.0625c-1.63688,1.70784-2.54206,3.5494-2.5,5.5625-1.20063.50325-2.39288.87117-3.28125.875-1.94714-.99037.46975-3.75012 1.625-5.0625 1.62588-1.15838 1.90132-3.28333 2.625-5.03125 .90258-.57739 2.58384-1.3382 3.625-1.8125zm10.3125,2.75c.54675.096 1.09782.20453 1.65625.34375l.84375,3.9375-2.25,1.90625 .21875,2.21875 .125-.0625 .09375-1.875 1.9375-1.78125 1.96875,1.90625 1.5625.21875-.0625-.1875-1.21875-.5625-1.8125-1.75-.0625-3.5625c2.68924.87774 5.18241,2.38373 6.1875,5.03125-.18722,1.17265-.00296,1.58412-1.0625,1.53125-2.40895.0443-4.27535,1.71966-6.5,2.4375-4.4108-.4917-6.25123-1.90097-7.4375-2.53125-1.74176-4.78977 1.5261-7.20867 5.8125-7.21875z" fill-rule="evenodd"/>
</svg>
