<?xml version="1.0" encoding="UTF-8"?>
<svg viewBox="0 0 128 128" xmlns="http://www.w3.org/2000/svg" xmlns:xlink="http://www.w3.org/1999/xlink">
 <defs>
  <linearGradient id="b">
   <stop stop-color="#cf8d00" offset="0"/>
   <stop stop-color="#cea33e" offset="1"/>
  </linearGradient>
  <linearGradient id="d">
   <stop stop-color="#bb8f56" offset="0"/>
   <stop stop-color="#d1af63" offset="1"/>
  </linearGradient>
  <linearGradient id="a">
   <stop stop-color="#6a3c1d" offset="0"/>
   <stop stop-color="#8f5127" offset="1"/>
  </linearGradient>
  <linearGradient id="c">
   <stop stop-color="#4f3e2a" offset="0"/>
   <stop stop-color="#72593c" offset="1"/>
  </linearGradient>
  <linearGradient id="e">
   <stop stop-color="#9e0000" offset="0"/>
   <stop stop-color="#e00000" offset="1"/>
  </linearGradient>
  <linearGradient id="ba" x1="26.465" x2="27.286" y1="97.341" y2="100.11" gradientUnits="userSpaceOnUse" xlink:href="#a"/>
  <linearGradient id="az" x1="25.73" x2="25.686" y1="95.654" y2="94.746" gradientUnits="userSpaceOnUse" xlink:href="#a"/>
  <linearGradient id="ay" x1="26.076" x2="30.249" y1="93.016" y2="88.692" gradientUnits="userSpaceOnUse" xlink:href="#a"/>
  <linearGradient id="ax" x1="26.119" x2="26.508" y1="83.589" y2="88.865" gradientUnits="userSpaceOnUse" xlink:href="#a"/>
  <linearGradient id="aw" x1="23.568" x2="24.086" y1="85.578" y2="82.378" gradientUnits="userSpaceOnUse" xlink:href="#a"/>
  <linearGradient id="av" x1="24.735" x2="19.546" y1="87.741" y2="93.016" gradientUnits="userSpaceOnUse" xlink:href="#a"/>
  <linearGradient id="au" x1="39.995" x2="35.715" y1="89.228" y2="93.508" gradientUnits="userSpaceOnUse" xlink:href="#a"/>
  <linearGradient id="at" x1="59.849" x2="59.762" y1="96.303" y2="97.254" gradientUnits="userSpaceOnUse" xlink:href="#e"/>
  <linearGradient id="as" x1="47.697" x2="52.195" y1="57.773" y2="53.708" gradientUnits="userSpaceOnUse" xlink:href="#a"/>
  <linearGradient id="ar" x1="42.984" x2="43.373" y1="62.27" y2="60.108" gradientUnits="userSpaceOnUse" xlink:href="#a"/>
  <linearGradient id="aq" x1="40.259" x2="40.562" y1="60.497" y2="62.054" gradientUnits="userSpaceOnUse" xlink:href="#a"/>
  <linearGradient id="ap" x1="45.232" x2="46.184" gradientUnits="userSpaceOnUse" xlink:href="#a"/>
  <linearGradient id="ao" x1="46.832" x2="47.157" gradientUnits="userSpaceOnUse" xlink:href="#a"/>
  <linearGradient id="an" x1="64.216" x2="64.519" y1="74.941" y2="74.465" gradientUnits="userSpaceOnUse" xlink:href="#a"/>
  <linearGradient id="am" x1="57.946" x2="57.47" y1="71.87" y2="72.649" gradientUnits="userSpaceOnUse" xlink:href="#a"/>
  <linearGradient id="al" x1="78.876" x2="80.346" y1="74.897" y2="74.768" gradientUnits="userSpaceOnUse" xlink:href="#a"/>
  <linearGradient id="ak" x1="80.778" x2="81.427" gradientUnits="userSpaceOnUse" xlink:href="#a"/>
  <linearGradient id="aj" x1="74.984" x2="75.849" y1="83.243" y2="85.146" gradientUnits="userSpaceOnUse" xlink:href="#a"/>
  <linearGradient id="ai" x1="81.427" x2="81.989" y1="88.043" y2="86.573" gradientUnits="userSpaceOnUse" xlink:href="#a"/>
  <linearGradient id="ah" x1="104.13" x2="103.65" y1="63.611" y2="64.432" gradientUnits="userSpaceOnUse" xlink:href="#a"/>
  <linearGradient id="ag" x1="113.21" x2="113.6" y1="68.973" y2="68.411" gradientUnits="userSpaceOnUse" xlink:href="#a"/>
  <linearGradient id="af" x1="117.41" x2="117.92" y1="72.865" y2="71.784" gradientUnits="userSpaceOnUse" xlink:href="#a"/>
  <linearGradient id="ae" x1="111.31" x2="112.22" y1="71.87" y2="71.914" gradientUnits="userSpaceOnUse" xlink:href="#a"/>
  <linearGradient id="ad" x1="113.12" x2="113.82" gradientUnits="userSpaceOnUse" xlink:href="#a"/>
  <linearGradient id="ac" x1="93.708" x2="93.492" y1="75.632" y2="74.984" gradientUnits="userSpaceOnUse" xlink:href="#a"/>
  <linearGradient id="ab" x1="95.351" x2="95.87" y1="75.546" y2="76.714" gradientUnits="userSpaceOnUse" xlink:href="#a"/>
  <linearGradient id="aa" x1="60.108" x2="59.395" y1="55.222" y2="56.216" gradientUnits="userSpaceOnUse" xlink:href="#a"/>
  <linearGradient id="z" x1="76.411" x2="90.205" y1="64.173" y2="44.8" gradientUnits="userSpaceOnUse" xlink:href="#a"/>
  <linearGradient id="y" x1="93.103" x2="93.319" y1="60.108" y2="60.757" gradientUnits="userSpaceOnUse" xlink:href="#a"/>
  <linearGradient id="x" x1="57.124" x2="65.816" y1="29.708" y2="47.524" gradientUnits="userSpaceOnUse" xlink:href="#a"/>
  <linearGradient id="w" x1="59.373" x2="62.832" y1="34.508" y2="40.778" gradientUnits="userSpaceOnUse" xlink:href="#d"/>
  <linearGradient id="v" x1="60.454" x2="62.227" y1="36.151" y2="39.697" gradientUnits="userSpaceOnUse" xlink:href="#c"/>
  <linearGradient id="u" x1="72.692" x2="85.535" y1="51.027" y2="37.492" gradientUnits="userSpaceOnUse" xlink:href="#a"/>
  <linearGradient id="t" x1="83.243" x2="79.568" y1="40.605" y2="50.119" gradientUnits="userSpaceOnUse" xlink:href="#d"/>
  <linearGradient id="s" x1="92.281" x2="97.47" y1="34.941" y2="48.735" gradientUnits="userSpaceOnUse" xlink:href="#a"/>
  <linearGradient id="r" x1="100.37" x2="106.03" y1="50.032" y2="41.557" gradientUnits="userSpaceOnUse" xlink:href="#a"/>
  <linearGradient id="q" x1="102.83" x2="106.51" y1="41.686" y2="36.497" gradientUnits="userSpaceOnUse" xlink:href="#d"/>
  <linearGradient id="p" x1="103.52" x2="105.9" y1="41.514" y2="37.924" gradientUnits="userSpaceOnUse" xlink:href="#c"/>
  <linearGradient id="o" x1="65.73" x2="65.557" y1="26.465" y2="33.557" gradientUnits="userSpaceOnUse" xlink:href="#b"/>
  <linearGradient id="n" x1="80.212" x2="84.057" y1="49.732" y2="41.379" gradientUnits="userSpaceOnUse" xlink:href="#c"/>
  <linearGradient id="m" x1="70.401" x2="77.03" y1="19.945" y2="15.703" gradientUnits="userSpaceOnUse" xlink:href="#b"/>
  <linearGradient id="l" x1="75.351" x2="87.283" y1="35.236" y2="17.249" gradientUnits="userSpaceOnUse" xlink:href="#b"/>
  <linearGradient id="k" x1="93.78" x2="98.553" y1="23.437" y2="34.132" gradientUnits="userSpaceOnUse" xlink:href="#b"/>
  <linearGradient id="j" x1="103.86" x2="100.85" y1="29.58" y2="24.895" gradientUnits="userSpaceOnUse" xlink:href="#b"/>
  <linearGradient id="i" x1="101.07" x2="105.71" y1="35.015" y2="30.905" gradientUnits="userSpaceOnUse" xlink:href="#b"/>
  <linearGradient id="h" x1="92.406" x2="85.875" y1="60.5" y2="51.5" gradientUnits="userSpaceOnUse" xlink:href="#b"/>
  <linearGradient id="g" x1="61.688" x2="65.219" y1="61.5" y2="55.344" gradientUnits="userSpaceOnUse" xlink:href="#b"/>
  <linearGradient id="f" x1="115.38" x2="115.29" y1="94.865" y2="95.817" gradientUnits="userSpaceOnUse" xlink:href="#e"/>
 </defs>
 <path d="m8.5622 88.303 1.5568 5.4054 1.5568 2.4216 2.2919 1.6432 3.6324 1.254 2.3784 0.38919 1.8595 0.38919 2.8108 0.30271 5.1892-0.25946 3.8054-0.12973 3.8919-0.12973 2.8973-0.25946 4.1514-1.1243 3.1135-1.0811 3.027-3.027 3.2865-5.3189-0.77838 0.34595-1.946 1.427-1.946 1.2108-3.2 1.1676-5.7946 1.5568-3.4162 0.51892s-5.7081 0.95135-5.8811 0.90811-4.4108 0.08649-4.4108 0.08649l-5.5784-0.56216-4.0649-1.1676c-0.43243-0.12973-4.0649-1.946-4.0649-1.946l-3.027-2.4216-1.3405-1.6z" fill="url(#ba)" fill-rule="evenodd"/>
 <path d="m8.7351 87.697 1.773 1.773 3.6757 2.8108 4.1081 1.427 6.3568 1.0811 5.7081-0.04324 5.6649-0.51892 4.4973-0.69189 4.8865-1.1243 4.627-2.0324 3.0703-1.3838-0.73513 0.64865-1.5135 1.1676-2.4649 1.2973-4.3676 1.4703-6.746 1.5135-5.6649 0.73513-4.2811 0.25946-5.9676-0.56216-5.0595-1.3405-2.8973-1.6-1.8162-1.2108-1.9027-1.6865-0.90811-0.95135-0.04324-1.0378z" fill="url(#az)" fill-rule="evenodd"/>
 <path d="m11.589 90.076 3.7189-0.95135 5.2757-0.99459 7.3081-0.17297 7.9135 0.47568 8.6054 1.3838 4.4973 1.0811-1.8595 0.77838-5.5351 1.6865-8.4324 1.2108-4.5838 0.3027-6.1838-0.43243-5.1027-1.0811-5.4054-2.6378-0.21622-0.64865z" fill="url(#ay)" fill-rule="evenodd"/>
 <path d="m11.589 90.162 2.9405-0.99459 6.0973-0.90811 4.7135-0.25946 10.508 0.56216 8.9514 1.427 4.1514 0.90811 4.5838-2.0757-3.0703-2.3784-6.573-2.2486-3.027-0.60541s-5.7081-0.47568-6.3135-0.47568-7.1351-0.43243-7.5676-0.3027-7.5676 0.43243-7.5676 0.43243l-2.854 0.43243-2.9405 0.82162-1.946 0.77838-2.0757 1.254-0.69189 0.86486 0.51892 0.99459 1.6 1.6432 0.56216 0.12973z" fill="url(#ax)" fill-rule="evenodd"/>
 <path d="m8.5622 86.832 1.3838-1.1676 2.6811-1.6865 5.5351-1.7297 5.6649-0.60541 6.5297 0.12973 6.3568 0.38919 7.0486 0.86487 4.6703 1.4703 3.9351 2.0324 1.5568 1.8162-0.51892 0.12973-4.7568-2.854-6.4432-1.773-7.4811-0.86486-8.0865-0.17297-4.8 0.17297-3.5892 0.38919-4.1514 0.95135-2.5081 0.95135-2.4649 1.773-0.56216-0.21622z" fill="url(#aw)" fill-rule="evenodd"/>
 <path d="m8.5622 88.303 1.5568 5.4054 1.5568 2.4216 2.2919 1.6432 3.6324 1.254 2.3784 0.38919 1.8595 0.38919 2.8108 0.30271 5.1892-0.25946 3.8054-0.12973 3.8919-0.12973 2.8973-0.25946 4.1514-1.1243 3.1135-1.0811 3.027-3.027 3.2865-5.3189-0.77838 0.34595-1.946 1.427-1.946 1.2108-3.2 1.1676-5.7946 1.5568-3.4162 0.51892s-5.7081 0.95135-5.8811 0.90811-4.4108 0.08649-4.4108 0.08649l-5.5784-0.56216-4.0649-1.1676c-0.43243-0.12973-4.0649-1.946-4.0649-1.946l-3.027-2.4216-1.3405-1.6z" fill-opacity=".15686" fill-rule="evenodd"/>
 <path d="m11.589 90.162 2.9405-0.99459 6.0973-0.90811 4.7135-0.25946 10.508 0.56216 8.9514 1.427 4.1514 0.90811 4.5838-2.0757-3.0703-2.3784-6.573-2.2486-3.027-0.60541s-5.7081-0.47568-6.3135-0.47568-7.1351-0.43243-7.5676-0.3027-7.5676 0.43243-7.5676 0.43243l-2.854 0.43243-2.9405 0.82162-1.946 0.77838-2.0757 1.254-0.69189 0.86486 0.51892 0.99459 1.6 1.6432 0.56216 0.12973z" fill-opacity=".15686" fill-rule="evenodd"/>
 <path d="m18.854 93.492 2.9838-7.4811 3.8054 0.08649-2.9405 8.2595-3.4595-0.51892-0.38919-0.34595z" fill="url(#av)" fill-rule="evenodd"/>
 <path d="m33.47 94.357 3.5027-8.2595 4.8 0.56216-2.5946 7.0486-5.7081 0.64865z" fill="url(#au)" fill-rule="evenodd"/>
 <path d="m59.32973,96.95135 .56216-.21622v-1.14595l.32432-.51892 .23784.17297 .02162.38919-.25946,1.01622 .47568.71351-.56216.17297-.54054-.12973-.25946-.45405z" fill="url(#at)" fill-rule="evenodd"/>
 <path d="m55.784 52.627-15.914 6.7027 1.8595 0.73513 15.741-6.4865-1.6865-0.95135z" fill="url(#as)" fill-rule="evenodd"/>
 <path d="m41.6 63.005 0.04324-3.027 15.741-6.227 1.3838 0.47568v0.73513s1.254 0.34595 0.82162 0.64865-17.903 7.4811-17.989 7.3946z" fill="url(#ar)" fill-rule="evenodd"/>
 <path d="m39.524 59.416 2.1189 0.47568v3.2865l-0.38919 0.12973-1.773-1.2973 0.04324-2.5946z" fill="url(#aq)" fill-rule="evenodd"/>
 <path d="m44.714 44.973 0.08649 31.481 0.82162 0.95135 1.3405 0.43243 0.04324-11.2-0.64865-4.4973 0.08649-16.346-1.7297-0.82162z" fill="url(#ap)" fill-rule="evenodd"/>
 <path d="m47.092 77.449-0.08649-10.854-0.60541-4.627 0.12973-15.784 1.3838 0.86486-0.08649 16.13 0.08649 13.795-0.21622 0.56216-0.6054 0.3027v-0.38919z" fill="url(#ao)" fill-rule="evenodd"/>
 <path d="m78.357 66.638 0.08649 30.53 0.56216 0.77838 1.2973 0.56216 0.12973-0.21622-0.25946-10.032 0.56216-8.0865 0.04324-14.227-2.4216 0.69189z" fill="url(#al)" fill-rule="evenodd"/>
 <path d="m80.822 65.989-0.08649 13.924-0.60541 8.6919 0.34595 10.032 0.82162-0.21622 0.47568-0.34595-0.04324-13.449v-5.7514l-0.04324-13.362-0.86486 0.47568z" fill="url(#ak)" fill-rule="evenodd"/>
 <path d="m45.146 61.578 23.438 15.005 7.6625 4.98 2.9475 2.3507 3.0116 2.0964-1.3405 0.38919-28.324-18.854-8.3027-5.4486 0.90811-0.51892z" fill="url(#an)" fill-rule="evenodd"/>
 <path d="m44.411 62.141-2.5081 0.99459 14.616 9.5135 24.216 15.957v-2.3351l-20.541-13.578-11.546-7.827-4.2378-2.7243z" fill="url(#am)" fill-rule="evenodd"/>
 <path d="m74.378 82.768 1.946 0.21622-0.17297 2.6378-1.6865-0.38919-0.08649-2.4649z" fill="url(#aj)" fill-rule="evenodd"/>
 <path d="m80.692 86.443 1.6-0.43243v2.0757l-1.5135 0.64865-0.08649-2.2919z" fill="url(#ai)" fill-rule="evenodd"/>
 <path d="m98.508 59.373 12.151 8.173 3.7622 2.5081 2.4649 1.1676v2.5946l-8.5189-5.4054-11.892-8.346 2.0324-0.69189z" fill="url(#ah)" fill-rule="evenodd"/>
 <path d="m98.508 59.286 12.541 8.5189 3.0703 2.0324 2.8108 1.6 1.3838-0.47568-6.8774-4.1291-11.804-7.9358-1.1243 0.38919z" fill="url(#ag)" fill-rule="evenodd"/>
 <path d="m116.89 71.438-0.04325 2.5081 1.5135-1.0811 0.12973-1.8162-1.6 0.38919z" fill="url(#af)" fill-rule="evenodd"/>
 <path d="m110.83 54.746 0.04325 31.481 0.86486 0.43243 0.95135 0.04324 0.08649-20.108-0.17297-12.584-1.773 0.73514z" fill="url(#ae)" fill-rule="evenodd"/>
 <path d="m112.74 54.054-0.04325 32.649 0.86487-0.17297 0.64865-0.64865-0.43244-19.762-0.12973-12.368-0.9081 0.3027z" fill="url(#ad)" fill-rule="evenodd"/>
 <path d="m74.811 82.595 1.3838 0.43243 21.146-8.7784 21.362-8.8649-1.5135-0.34595-15.092 6.3135-17.73 7.1784-9.5568 4.0649z" fill="url(#ac)" fill-rule="evenodd"/>
 <path d="m76.108 82.897 22.573-9.2108 19.978-8.346 0.17297 0.34595 0.04325 1.773-18.249 7.827-24.519 10.335v-2.7243z" fill="url(#ab)" fill-rule="evenodd"/>
 <path d="m42.508 43.114 2.9838 0.95135 4.2378 2.9405 0.69189 1.6 4.0216 1.6865 4.3676 2.854 0.21622 0.51892 3.9351 3.5027 0.77838-0.04324 4.3243 2.9405v1.3405l4.7135 1.9892-0.04324 0.99459 3.8486 1.946-0.21622 1.1243-3.8486-1.7297-0.12973-1.0378-4.8-2.0324 0.12973-1.3838-4.1081-2.9405-0.90811 0.08649-3.8486-3.5027v-0.47568l-4.7135-2.9838-4.2378-1.9892 0.04324-0.82162-4.4973-3.2865-3.1568-1.5568-0.08649-0.64865 0.3027-0.04324z" fill="url(#aa)" fill-rule="evenodd"/>
 <path d="m53.492 37.665-11.157 4.0649 0.17297 1.254 3.2 1.0811 4.4108 3.1568 0.17297 1.2973 4.0216 1.7297 4.7135 3.027 0.12973 0.51892 3.6757 3.3297 1.1243 0.12973 3.9784 2.8973-0.04324 1.254 4.973 2.0757-0.08649 0.95135 3.7189 1.6865s43.2-15.438 42.768-15.697-3.5459-2.3351-3.5459-2.3351l0.69189-0.56216-5.0595-2.6378 0.51892-0.6054-2.2486-0.77838-0.08648 4.0649-10.551 4.627-8.346-5.7946-6.6162 2.2486-0.04324 0.38919-4.6703 1.9027-0.17297-0.43243-8.346 2.8973-17.427-12.411 0.12973-3.3297z" fill="url(#z)" fill-rule="evenodd"/>
 <path d="m76.627 66.249-0.21622 1.2973 42.638-15.784-0.21622-1.5135-15.092 5.7081-18.162 6.7892-8.9514 3.5027z" fill="url(#y)" fill-rule="evenodd"/>
 <path d="m53.492 25.6-0.08649 15.265 17.254 12.497 0.73513-15.741-17.903-12.022z" fill="url(#x)" fill-rule="evenodd"/>
 <path d="m57.73 32.303 0.08649 6.4 6.4865 4.7568 0.17297-6.7892-6.746-4.3676z" fill="url(#w)" fill-rule="evenodd"/>
 <path d="m59.2 34.681-0.04324 3.3297 3.9351 2.7676 0.04324-3.546-3.9351-2.5514z" fill="url(#v)" fill-rule="evenodd"/>
 <path d="m71.265 38.011 19.632-7.1784-0.08649 15.611-5.146 1.8595-0.34595-10.768-7.5676 2.4216v10.897l-6.9622 2.5946 0.47568-15.438z" fill="url(#u)" fill-rule="evenodd"/>
 <path d="m77.622 50.811-0.04324-10.768 7.827-2.6378 0.04324 10.811-1.3838 0.38919-0.04324 0.64865-4.7568 1.6865-0.12973-0.51892-1.5135 0.38919z" fill="url(#t)" fill-rule="evenodd"/>
 <path d="m90.897 31.135-0.04324 15.265 8 5.7946 0.25946-15.827-8.2162-5.2324z" fill="url(#s)" fill-rule="evenodd"/>
 <path d="m98.984 52.281-0.12973-15.654 10.811-4.8865-0.12972 15.914-10.551 4.627z" fill="url(#r)" fill-rule="evenodd"/>
 <path d="m101.49 37.622v6.6595l6.5297-2.8108 0.17297-6.6162-6.7027 2.7676z" fill="url(#q)" fill-rule="evenodd"/>
 <path d="m102.66 42.335 0.12973-3.8486s3.7622-1.7297 3.7622-1.5568 0.08649 3.8486 0.08649 3.8486l-3.9784 1.5568z" fill="url(#p)" fill-rule="evenodd"/>
 <path d="m52.843 24.951 13.059-2.3784 5.6649 15.092-18.724-12.714z" fill="url(#o)" fill-rule="evenodd"/>
 <path d="m79.108 50.483-0.04419-9.4134 4.9939-1.7236-0.04419 9.8995-4.7288 1.591-0.17678-0.35355z" fill="url(#n)" fill-rule="evenodd"/>
 <path d="m52.812 24.674 13.126-2.2539 21.92-7.8224-4.2426-1.6794-30.803 11.756z" fill="url(#m)" fill-rule="evenodd"/>
 <path d="m65.938 22.553 22.097-8.0433 12.905 10.739-8.2201-4.0217-1.8562 9.5018-19.313 7.1153-5.6127-15.291z" fill="url(#l)" fill-rule="evenodd"/>
 <path d="m92.675 21.315-1.812 9.4134 8.1317 5.6127 4.5962-6.143-10.916-8.883z" fill="url(#k)" fill-rule="evenodd"/>
 <path d="m92.985 21.448 8.2643 4.0659s8.9272 6.0546 8.7504 6.0546-6.364-1.3258-6.364-1.3258l-10.651-8.7946z" fill="url(#j)" fill-rule="evenodd"/>
 <path d="m98.951 36.12 4.8172-5.922 6.3198 1.5026-10.872 4.9498-0.26516-0.53033z" fill="url(#i)" fill-rule="evenodd"/>
 <path d="m78.79821,61.79713 1.06066-1.90035-.35355-.79549 .7513.30936 .61872-1.28163 2.34229-2.91681 2.18862-1.80595 2.03125-1.21875 3.34375-1.5625 3.4375-.90625 1.96875-.25 2.96875-.21875 2.03125-.0625-.03125.34375-3.21875.03125-2.90625.375-3.03125.71875-2.5,1.03125-2.75,1.8125-2.15625,1.75-2.46875,2.5625-1.4375,1.78125 .5625.03125-.46875.65625 .0625,2.03125-.40625.0625h-.375l.15625-1.78125-.375.75-.46875.6875-.57679-.23412z" fill="url(#h)" fill-rule="evenodd"/>
 <path d="m53.40625,50.4375h2.5625l2.34375.15625 4.15625.75 1.875.75 2.78125,1.25 3.65625,2.375 2.875,3.5 .84375,1.5 .75-.1875-.4375.6875 1,1.875-.65625.03125-.65625-1.375 .21875,1.8125-.75.03125 .0625-1.78125-.5-.90625 .21875-.09375-2.625-3.375-3.6875-3.15625-3.25-1.84375-2.9375-.96875-2.90625-.53125-2.1875-.09375-1.5-.0625-.625-.03125-.625-.09375-.1875-.15625 .1875-.0625z" fill="url(#g)" fill-rule="evenodd"/>
 <path d="m114.86098,95.51385 .56216-.21622v-1.14595l.32433-.51892 .23783.17297 .02163.38919-.25946,1.01622 .47567.71351-.56216.17297-.54054-.12973-.25946-.45405z" fill="url(#f)" fill-rule="evenodd"/>
 <path d="m39.524 59.416 2.1189 0.47568v3.2865l-0.38919 0.12973-1.773-1.2973 0.04324-2.5946z" fill-opacity=".15686" fill-rule="evenodd"/>
 <path d="m44.714 44.973 0.08649 31.481 0.82162 0.95135 1.3405 0.43243 0.04324-11.2-0.64865-4.4973 0.08649-16.346-1.7297-0.82162z" fill-opacity=".15686" fill-rule="evenodd"/>
 <path d="m78.357 66.638 0.08649 30.53 0.56216 0.77838 1.2973 0.56216 0.12973-0.21622-0.25946-10.032 0.56216-8.0865 0.04324-14.227-2.4216 0.69189z" fill-opacity=".15686" fill-rule="evenodd"/>
 <path d="m44.411 62.141-2.5081 0.99459 14.616 9.5135 24.216 15.957v-2.3351l-20.541-13.578-11.546-7.827-4.2378-2.7243z" fill-opacity=".15686" fill-rule="evenodd"/>
 <path d="m74.378 82.768 1.946 0.21622-0.17297 2.6378-1.6865-0.38919-0.08649-2.4649z" fill-opacity=".15686" fill-rule="evenodd"/>
 <path d="m98.508 59.373 12.151 8.173 3.7622 2.5081 2.4649 1.1676v2.5946l-8.5189-5.4054-11.892-8.346 2.0324-0.69189z" fill-opacity=".15686" fill-rule="evenodd"/>
 <path d="m110.83 54.746 0.04325 31.481 0.86486 0.43243 0.95135 0.04324 0.08649-20.108-0.17297-12.584-1.773 0.73514z" fill-opacity=".15686" fill-rule="evenodd"/>
 <path d="m42.508 43.114 2.9838 0.95135 4.2378 2.9405 0.69189 1.6 4.0216 1.6865 4.3676 2.854 0.21622 0.51892 3.9351 3.5027 0.77838-0.04324 4.3243 2.9405v1.3405l4.7135 1.9892-0.04324 0.99459 3.8486 1.946-0.21622 1.1243-3.8486-1.7297-0.12973-1.0378-4.8-2.0324 0.12973-1.3838-4.1081-2.9405-0.90811 0.08649-3.8486-3.5027v-0.47568l-4.7135-2.9838-4.2378-1.9892 0.04324-0.82162-4.4973-3.2865-3.1568-1.5568-0.08649-0.64865 0.3027-0.04324z" fill-opacity=".15686" fill-rule="evenodd"/>
 <path d="m53.492 25.6-0.08649 15.265 17.254 12.497 0.73513-15.741-17.903-12.022z" fill-opacity=".15686" fill-rule="evenodd"/>
 <path d="m90.897 31.135-0.04324 15.265 8 5.7946 0.25946-15.827-8.2162-5.2324z" fill-opacity=".15686" fill-rule="evenodd"/>
 <path d="m52.843 24.951 13.059-2.3784 5.6649 15.092-18.724-12.714z" fill-opacity=".15686" fill-rule="evenodd"/>
 <path d="m92.675 21.315-1.812 9.4134 8.1317 5.6127 4.5962-6.143-10.916-8.883z" fill-opacity=".15686" fill-rule="evenodd"/>
 <path d="m83.46875,12.71875-31.3125,12.03125 1.03125.71875-.03125,12.15625-11.125,4.1875 .03125,1.34375v.78125l2.53125,1.03125-.03125,12.15625-5.15625,2.15625-.09375,2.78125 2.03125,1.40625 .46875-.1875 2.84375,1.84375-.09375,11.375c.64601,1.07225 1.51411,1.3302 2.40625,1.5 .54437-.22465 1.3051-.25458 1.0625-1.1875v-9.46875l8.0625,5.25 1.90625,15.09375c-1.22532.32632-2.51979.55252-3.84375.75-.25595-.82421-.99584-1.33022-1.71875-1.90625-5.29503-3.67351-11.68773-4.15482-17.875-4.65625-2.95724-.22536-6.13522-.45356-9.28125-.4375-7.0658.21082-13.23711,1.77018-16.5,5.09375-.54961-.16696-.54653.80423-.625.90625 .49964,3.44734 1.44703,6.35279 3.58617,9.09375 3.15591,1.46835 1.03707,2.27467 12.31228,3.625 1.959.32595 8.44696-.51739 10.00781-.40625l-.0625.0625c5.80788,3.67979 11.78028,6.42299 18,4.40625l-.125-.34375c-5.7488,1.86404-11.86252-.53396-17.5625-4.125 4.59714.27668 9.1595-.81342 13.5-2.625 2.9121-2.30265 4.82003-5.1523 6.375-8.4375 1.28357-.19067 2.56935-.43808 3.84375-.75l1.1875,9.40625 .03125-.03125c.52018.55508 1.04232.29206 1.5625.09375-.18488-.64583.10636-.10417-.53125-.75l.34375-1.0625c-.03756-.78662-.52459-.80628-.8125-.09375l.0625,1.15625c-.18625.05304-.31498.0934-.40625.125l-1.15625-8.90625c1.19453-.30445 2.36877-.67369 3.46875-1.15625 2.4193-1.06134 4.35352-2.52419 6.03125-6.1875 .05769,1.33706.66267,2.34948-.0625,4.15625l.5625.0625c.11154-1.56987.09293-2.7596-.09375-4.03125 .30926.90359 1.04122,1.02191 1.53125.78125l4.5625,2.96875v.90625l1.78125.53125 .15625-.0625 1.96875,1.3125 .09375,10.125c.02434.57209.57584,1.09397 2.34375,1.5 .59935-.14039 1.06604-.36038 1.25-.75l-.0625-9.59375 .59375-.28125v-2.28125l-.59375-.375v-2.03125l26-11.125 1.84375,6.1875c-3.34162,1.18164-4.86959,4.57233-4.5,9.53125l.28125.21875c-.65461-4.85974 1.15467-7.89904 4.40625-9.125l.78125,2.5625-.03125,4.46875c.37508.65861.95776.6278 1.53125.625l.90625,3.03125c-2.30408.06993-3.99638-1.3246-4.84375-4.0625l-.125.1875c.66695,3.55865 2.49512,4.41184 5.03125,4.0625l.71875,2.375c-.3162.14648-.56599.40283-.71875.875l.21875.03125c.08905-.29385.30149-.47854.59375-.59375l.84375,2.84375c-.01332.06821.00165.17345-.03125.34375 .06641.07539.12109.13771.1875.1875l.03125.0625 .03125-.03125c.44538.28832.89837.07604 1.34375-.09375-.18488-.64583.10636-.10417-.53125-.75l.34375-1.0625c-.03756-.78662-.52459-.80628-.8125-.09375l.0625,1.15625c-.16932.04822-.28547.06404-.375.09375l-.8125-2.71875c.65677-.15419 1.50925-.09743 2.0625-.09375l.28125-.125c-.95431-.10205-1.79422-.27353-2.4375-.125l-.71875-2.34375c.67521-.11302 1.39357-.28953 2.15625-.53125l-.0625-.15625c-.76103.2944-1.45576.4752-2.125.53125l-.90625-2.96875c.08309.00498.16979-.01453.25,0 1.27559-.07827 1.28246-.57946 1.625-.96875l-.15625-7.3125c.64734.02127 1.3014.07483 2,.1875l.21875-.1875c-.78156-.20015-1.51774-.32005-2.21875-.40625l-.125-5.84375 3,1.84375 1.4375-1.15625 .1875-1.96875-3.15625-1.96875 3.5-1.5v-2.375l-1.75-.3125-3.375,1.375-.125-12.4375 5.5-2.03125 .15625-1.34375-3.375-2.34375 .53125-.53125-5.03125-2.625 .53125-.6875-2.28125-.71875-.03125-11.5 .84375-.375-8.5625-5.875-13.875-11.5-4.71875-1.5625zm.15625.5625 3.4375,1.34375-21.21875,7.625-9.5625,1.8125 27.34375-10.78125zm-2.0625.875-.09375.09375 1.625.9375-2.8125,1.03125-1.34375-.96875-.15625.09375 1.21875.96875-5.125,1.9375-1.15625-.65625 .6875-.28125-.09375-.09375c-.24152.09625-.50618.18453-.75.28125l-.25-.125-.09375.125 .15625.09375c-2.10782.83518-4.26965,1.66374-6.4375,2.5l-.0625-.03125-.15625.125-4.40625,1.6875v.0625h-.3125l-.0625.1875 3.21875-.15625 .125-.1875-2.59375.125c1.39455-.50384 2.79319-1.05516 4.1875-1.59375l1.25.40625 .125-.1875-1.03125-.34375c2.11884-.82213 4.21895-1.66735 6.3125-2.53125l1.125.65625-.8125.3125 .0625.09375 .875-.34375 .65625.375 .21875-.09375-.65625-.34375 5.09375-1.90625 .5625.4375 .1875-.1875-.46875-.34375 2.8125-1.0625 .71875.40625 .125-.1875-.59375-.3125 1-.375-.03125-.09375-1.09375.40625-1.75-.9375zm6.3125.8125 12.4375,9.90625-7.75-3.75-1.78125,9.34375-18.9375,7.0625-5.625-14.96875 21.65625-7.59375zm.375,1-.6875.28125-.1875-.21875-.125.0625 .1875.1875-5.71875,2.28125-.03125-.09375h-.15625l.0625.15625-2.96875,1.1875-.28125-.5-.1875.15625 .25.4375-8.59375,3.40625-.1875-.40625-.21875.125 .15625.375-1.34375.53125 .125.1875 1.3125-.53125 1.28125,2.9375-.71875.28125 .09375.15625 .6875-.28125 1.8125,4.09375 .25-.15625-1.8125-4.03125 2.5625-1.03125 3.40625,7.1875 .15625-.0625-3.375-7.1875 6.1875-2.46875 2.03125,3.625 .15625-.1875-1.96875-3.5 2.78125-1.125-.1875-.1875-2.71875,1.09375-1.59375-2.8125 2.96875-1.1875 1.21875,2.625 .1875-.09375-1.25-2.5625 3.25-1.3125 2.59375,3.71875-.65625.28125 .03125.15625 .71875-.28125 2.09375,2.96875 .15625-.125-2.125-2.90625 3.09375-1.21875 .625.65625 .125-.09375-.59375-.625 .59375-.21875-.15625-.1875-.59375.25-3.3125-3.4375 .78125-.3125-.1875-.0625zm-.71875.4375 3.28125,3.4375-3.03125,1.25-2.6875-3.71875 2.4375-.96875zm-9.0625,3.625 1.59375,2.8125-6.15625,2.46875-.5625-1.1875-.15625.09375 .5625,1.1875-2.5625,1.03125-1.3125-2.9375 8.59375-3.46875zm14.3125,1.65625 10.46875,8.59375-4.3125,5.65625-7.90625-5.40625 1.75-8.84375zm.59375.125 7.28125,3.65625 .84375.6875 6.875,4.84375-4.46875-1.03125-10.53125-8.15625zm-8.34375.34375-.125.09375 1.96875,3.5-8.1875,3.625-1.375-2.6875-.15625.03125 1.375,2.71875-1.3125.59375v.09375l1.34375-.59375 1.3125,2.5625c-2.2383.9401-4.47073,1.88885-6.71875,2.84375l-.65625-1.5625-.25.09375 .65625,1.5625-.65625.28125 .09375.0625 .59375-.25 .34375.78125 .21875-.09375-.3125-.78125c2.24848-.93197 4.49541-1.86435 6.75-2.78125l.21875.4375 .1875-.125-.21875-.40625c1.01741-.41333 2.0424-.81256 3.0625-1.21875l-.125-.1875c-1.01772.40606-1.99857.86153-3,1.28125l-1.3125-2.59375 8.15625-3.59375 1.84375,3.25 .1875-.0625-1.875-3.28125 3-1.3125-.03125-.0625-3,1.3125-2-3.53125zm-19.25.71875 5.34375,14.375-17.4375-12.15625 .8125-.3125 11.28125-1.90625zm-2.375.71875 .21875.3125 .96875.75-2.21875,3.71875c-1.10999-.76083-2.22832-1.52689-3.34375-2.28125l.28125-.4375-.125-.125-.3125.46875-1.53125-1.03125-.3125.125c.5651.39546 1.14907.7671 1.71875,1.15625l-.71875,1.125 .125.09375 .71875-1.125c1.12093.76448 2.24264,1.53292 3.375,2.28125l-.40625.65625 .09375.1875 .46875-.75c.67812.44773 1.35144.89866 2.03125,1.34375l-.25.375 .21875.09375 .21875-.34375 2.625,1.71875c.01383.00622.03652.01035.125-.125-.88773-.59181-1.7445-1.21255-2.625-1.8125l1.15625-1.9375-.09375-.15625-1.25,2c-.68171-.4649-1.35089-.9399-2.03125-1.40625l2.21875-3.6875 1.65625,1.28125 .0625-.1875c0,0-.86922-.65826-1.625-1.21875l.5-.84375-.1875-.0625-.46875.78125c-.58984-.43792-1.07347-.7759-1.28125-.9375zm29.84375,0c-.04803.11659-.05431.06614-.15625.1875 .16144.1775.32799.33672.5.5l-1.21875,4.25c-.10074-.09637-.21608-.18166-.3125-.28125 .00529.03334.0026.07292-.0625.125 .10703.11038.23197.20634.34375.3125l-.1875.65625 .15625.0625 .15625-.5625c.5501.50568 1.15728.93606 1.78125,1.375l-.78125,1.0625 .1875.0625 .78125-1c.54945.38032 1.09292.79012 1.65625,1.15625l-.34375.53125 .28125.0625 .28125-.46875c.76195.49647 1.51727.98648 2.21875,1.53125l-.34375.5 .15625.1875 .40625-.53125 .3125.25v-.21875c-.06784-.05607-.14955-.10104-.21875-.15625l1.6875-2.28125 .8125.65625v-.28125l-.6875-.5625 .65625-.875-.25-.15625-.625.875-2.3125-1.84375 .3125-.46875-.1875-.125-.28125.46875-.90625-.71875-.125.15625 .90625.71875-1.65625,2.5625c-.55791-.36211-1.11253-.71733-1.65625-1.09375l.5625-.71875-.25-.0625-.5.65625c-.63609-.4475-1.25952-.92609-1.8125-1.4375l1.25-4.1875c.64933.58832 1.35888,1.12835 2.0625,1.65625l-.71875,1.40625 .15625.0625 .75-1.34375c.20943.15837.41878.3038.625.46875l.09375-.09375c-.22776-.16806-.43451-.35684-.65625-.53125l.25-.4375-.1875-.15625-.25.46875c-.70388-.56273-1.37802-1.16082-2.03125-1.78125l.15625-.53125-.25-.0625-.125.40625c-.13759-.13277-.27047-.2712-.40625-.40625zm-31.65625.46875-1.21875,1.90625 .1875.03125 1.15625-1.78125-.125-.15625zm36.25.3125 .5.40625-.71875-.21875 .03125.125 .84375.25 4.8125,3.90625-.4375.03125 .09375.125 .5-.03125 .84375.6875 .125.03125-.875-.71875c.65129-.0442 1.5625-.125 1.5625-.125l-.1875-.15625-1.53125.125-4.65625-3.84375 1.875.53125-.15625-.09375-1.90625-.5625-.5625-.46875h-.15625zm-43.90625,1.625 17,11.875-.03125,1.34375-16.96875-12.09375v-1.125zm-.03125,1.28125 16.96875,12.15625-.03125,1.5-6.03125-4.3125v-.1875l-4.78125-3.1875-6.125-4.375v-1.59375zm30.75.125-.125.0625 1.6875,3.09375 .125-.09375-1.6875-3.0625zm13.375,1.5 2.28125,1.8125-1.65625,2.3125c-.70237-.5439-1.44539-1.05935-2.21875-1.5625l1.59375-2.5625zm-44.125.125 3.65625,2.625v1.53125l-3.6875-2.625 .03125-1.53125zm49.8125,1.375 5.34375,1.21875-9.59375,4.46875 4.25-5.6875zm-49.84375.3125 3.6875,2.625-.03125,1.59375-3.6875-2.625 .03125-1.59375zm10.6875.28125-.03125.1875c1.60279.92566 2.92941,2.39594 4.5,3.375l.0625-.1875c-1.61309-.94341-2.9241-2.42177-4.53125-3.375zm26.09375.1875v1.5l-19.1875,6.4375 .03125-1.03125 19.15625-6.90625zm15.375,0-.1875.03125 .6875,1.375 .28125-.03125-.78125-1.375zm-15,.09375 7.625,5.28125v1.40625l-7.625-5.40625v-1.28125zm12.625.0625-.28125.09375 .875,1.65625-2.625,1.28125v.25l2.75-1.3125 .15625.28125 .1875-.21875-.09375-.15625 .96875-.46875-.15625-.25-.9375.46875-.84375-1.625zm5.6875.90625v1.84375l-10.1875,4.0625v-1.25l10.1875-4.65625zm-55.5.21875 3.6875,2.625v1.5625l-3.6875-2.59375v-1.59375zm37.1875.21875h.03125l7.59375,5.46875v1.5625l-7.625-5.40625v-1.625zm-32.84375.125 6,4.125v5.6875l-6-4.125v-5.6875zm32.46875,0v1.59375l-19.25,6.4375 .0625-1.5625 19.1875-6.46875zm-31.84375,1.03125 .0625,4.21875 4.53125,3.3125 .03125-4.46875-4.625-3.0625zm-4.96875.34375 3.6875,2.625-.03125,1.875-3.6875-2.625 .03125-1.875zm55.5.03125-.03125,1.5625-1.03125.4375 .03125-1.5625 1.03125-.4375zm-18.3125.1875 7.625,5.53125v1.46875l-7.59375-5.40625-.03125-1.59375zm-.375.125-.03125,1.5625-5.09375,1.6875-.03125-.59375-8.125,2.71875v.625l-6,2 .03125-1.5 19.25-6.5zm-31.21875.40625 3.375,2.3125v3.0625l-3.375-2.34375v-3.03125zm48.375.46875v5.75l-6,2.625-.03125-5.875 6.03125-2.5zm1.5.53125v1.53125l-1.0625.4375 .03125-1.5625 1.03125-.40625zm-18.25.15625 7.59375,5.53125v1.5625l-7.59375-5.375v-1.71875zm-37.25.09375 3.6875,2.65625v.09375l4.40625,3.0625 8.6875,6.21875-.03125,1.25-16.78125-11.90625 .03125-1.375zm36.8125.03125v1.59375l-5.0625,1.71875-.03125-1.5625 5.09375-1.75zm16.25.25-4.3125,1.96875-.0625,4.28125 4.375-1.65625v-4.59375zm-42.0625.34375 6.03125,4.3125-.0625,1.4375-6.03125-4.25 .0625-1.5zm41.625.4375v3.25l-3.40625,1.4375 .03125-3.21875 3.375-1.46875zm-5.21875.34375 .03125,1.46875-2.09375.84375v-1.46875l2.0625-.84375zm8.09375.03125v1.5625l-1.09375.40625 .03125-1.53125 1.0625-.4375zm-55.53125.09375 16.75,11.96875-.03125,1.40625-16.71875-11.90625v-1.46875zm31.28125.03125 .125,10.28125-.9375.3125v-9.40625l-5.375,2 .0625,9.28125-1,.34375v-10.46875l7.125-2.34375zm5.5625.1875v1.71875l-5,1.6875-.0625-1.6875 5.0625-1.71875zm.4375,0 7.59375,5.46875v1.53125l-7.59375-5.375v-1.625zm-37.90625.34375v2.5l-7.625,2.875-2.75-.8125-.09375-.875 10.46875-3.6875zm11.59375.21875 6.03125,4.28125-.0625,1.5625-6-4.28125 .03125-1.5625zm36.5.78125v1.46875l-2.0625.84375-.03125-1.4375 2.09375-.875zm-47.46875.03125 16.71875,12-.0625,1.625-3.84375-2.8125-.03125-.0625h-.03125l-12.78125-9.3125 .03125-1.4375zm55.53125,0-.03125,1.71875-1.09375.4375 .03125-1.71875 1.09375-.4375zm-25.5.21875v9.1875 .3125l-4.40625,1.5625-.03125-.53125-.0625-8.8125 4.5-1.71875zm7.25.15625 7.59375,5.46875v1.8125l-7.59375-5.375v-1.90625zm-.4375.09375v1.59375l-4.9375,1.65625-.0625-1.5625 5-1.6875zm-25.90625.46875 6,4.28125-.0625,1.53125-5.96875-4.28125 .03125-1.53125zm12.65625.4375v1.5625l-6.0625,2.03125 .0625-1.5625 6-2.03125zm23.875.28125 .03125,1.46875-2.09375.8125v-1.40625l2.0625-.875zm8.03125.1875v1.625l-10.09375,4.03125v-1.4375l2.125-.875v.0625l6.875-2.9375 1.09375-.46875zm-56,.125 3.9375,2.8125-7.21875,2.75-4.03125-2.875 7.3125-2.6875zm37.34375.21875-.03125,1.5625-4.875,1.65625-.03125-1.5625 4.9375-1.65625zm.4375.1875 7.59375,5.46875v1.3125l-7.5625-5.375-.03125-1.40625zm-26.375.25 5.96875,4.28125-.0625,1.8125-5.96875-4.28125 .0625-1.8125zm12.6875.46875 .03125,1.65625-6.15625,2.0625 .0625-1.6875 6.0625-2.03125zm23.90625.25 .03125,1.59375-2.125.84375v-1.5625l2.09375-.875zm8,.25v1.5625l-10.0625,4.0625-.03125-1.46875 10.09375-4.15625zm-66.8125.28125 2.8125,1.09375-.03125.59375-2.8125-1.1875 .03125-.5zm48.625.03125 7.5625,5.46875v.5625c-.35574.01324-.73922.04023-1.125.0625l-6.4375-4.5625v-1.53125zm-.5.03125v1.46875l-4.8125,1.59375-.0625-1.4375 4.875-1.625zm19.21875.75 1.8125.5-1.8125.5625v-1.0625zm-32.40625.21875v1.59375l-6.1875,2.0625 .03125-1.59375 6.15625-2.0625zm-19.84375.1875 3.9375,2.78125-7.21875,2.75-3.8125-1.40625-.09375-1.25 7.1875-2.875zm51.71875.1875-.03125,1.53125-7.9375,3.1875-.0625-.1875c-.54706.04518-1.27081.06957-2.03125.09375v-.40625l10.0625-4.21875zm-63.46875.0625 4.15625,2.9375-.03125.65625-4.1875-3.03125 .0625-.5625zm45.28125.1875 6.1875,4.46875c-.53288.0341-1.08119.09016-1.65625.15625l-4.53125-3.375v-1.25zm-.5.03125v1.25l-4.78125,1.6875-.03125-1.34375 4.8125-1.59375zm20.5625.25 4.84375,2.5-13.8125,4.9375-.375-1.28125 8-3.4375v-2.25l1.34375-.46875zm-66.1875.125 1.3125.9375-.09375,15.8125-1.125-.71875-.09375-16.03125zm32.4375.75v1.5l-6.25,2.09375 .0625-1.53125 6.1875-2.0625zm31.84375.25v1l-7.65625,3.40625-.3125-1.09375 7.96875-3.3125zm-62.65625.15625 1.15625.8125-.09375,15.625-1.15625-.65625 .09375-15.78125zm44.21875.40625 .46875.34375-21.84375,7.53125c-.94219-.64699-1.98921-1.24758-3.1875-1.84375-.84761-.47285-1.70088-.82094-2.5625-1.125l2.71875-1.03125 4.21875,3.03125 8.4375-2.875 .0625.28125 5.03125-1.8125v-.25l6.65625-2.25zm-29.09375.46875 4.15625,3.03125-2.90625,1.15625c-3.05045-.93729-5.93674-1.02641-8.0625-1.09375l-.1875-.125 7-2.96875zm-13.71875.125 1.6875,1.25 .125.84375 3.5625,1.75 .28125,2.1875-5.59375,2.25-.03125.28125-.03125-8.5625zm43.75.09375 2.875,2.09375c-2.03981.31128-4.23254.91598-6.34375,2.09375-1.71314.85231-3.11277,1.67442-4.34375,2.6875l-10.875,3.75c-.97141-1.26062-2.01585-2.27862-3.21875-3.15625l21.90625-7.46875zm-14.34375.1875 .03125,1.46875-6.3125,2.09375 .03125-1.5 6.25-2.0625zm38.21875.5625 2.8125,2-15.25,5.6875-.875-2.90625 13.3125-4.78125zm-65.40625.5 3.5625,1.59375-.5-.03125-.09375.3125 .125.03125 .03125.21875-3.34375-1.53125 .21875-.59375zm27.21875.5625v1.4375l-6.375,2.1875 .03125-1.5 6.34375-2.125zm20.53125.03125c1.02762-.0505 2.04605-.00986 3.03125.0625v.03125c-4.36309.06835-8.41504.17413-12.3125,2.5625-3.25732,1.99609-5.64769,4.02992-7.9375,7.46875-.12972-.02806-.25404-.07359-.375-.125 1.96887-3.40481 4.8627-5.95516 8.15625-7.59375 3.0112-1.49812 6.29053-2.25161 9.4375-2.40625zm2.71875.21875-1.46875.59375v-.4375c.50972-.02874 1.00259-.08161 1.46875-.15625zm.40625.09375 .3125,1.09375-2.1875.96875v-1.28125l1.875-.78125zm-2.90625.09375c.16106-.00715.31285.007.46875,0v.34375l-.46875-.34375zm-.375.03125h.125l.71875.53125v1.40625l-2.4375-1.8125c.55354-.05622 1.09695-.10057 1.59375-.125zm-2.5625.25 .40625.3125-8.375,2.90625c.60236-.41555 1.21508-.81435 1.875-1.21875 2.40974-1.2054 4.38755-1.74435 6.09375-2zm-40.21875.46875c3.60662-.04811 7.48693.6897 11,2.4375 3.34464,1.664 6.2807,4.24114 8.25,7.71875-.12959.05113-.26353.07763-.40625.09375-2.30931-3.49785-4.71231-5.54779-8-7.5625-3.32688-2.03872-6.78755-2.39104-10.4375-2.5l-1.375-.03125c-.19064-.00329-.37068-.02826-.5625-.03125v-.0625c.50224-.03818 1.01602-.05563 1.53125-.0625zm41.0625.15625 2.6875,1.9375 2.8125-1.21875 .375,1.28125-20.90625,7.46875 .21875-.28125 .21875-.46875c-.15539.06902-.30497.11695-.4375.125 1.55731-2.33226 3.20942-3.99758 5.09375-5.4375l9.9375-3.40625zm-42.5625.03125c.17071.03423.3557.06945.53125.09375l-.03125.40625-.46875-.21875-.03125-.28125zm65.03125.0625 .1875.84375-15.1875,5.625-.21875-.78125 15.21875-5.6875zm-63.96875.09375 4.28125,2.59375-.15625.71875-4.21875-2.625 .09375-.6875zm1.21875.09375c1.69219.07731 3.68124.0911 6.21875.875l-2.9375,1.15625-3.28125-2.03125zm-2.1875.4375 .53125.25 1.28125,1.09375-1.5625.625-.25-1.96875zm9.15625.6875c.81709.28843 1.6585.65717 2.59375,1.125 1.00809.61776 1.964,1.24689 2.84375,1.90625l-5.28125,1.8125-3.75-3.46875 3.59375-1.375zm-7.09375.84375 1.28125.6875-2.90625,1.1875-.15625-1.125 1.78125-.75zm46.40625.1875 .875,2.90625-26.46875,9.875-3.46875-1.53125 .09375-.875 .6875-.25-.03125.375c.21253.31749.70764.3143 1.03125.1875 .0008-.33786-.03955-.62259-.0625-.90625h.03125c.10066.18241.21203.34166.3125.53125 .3662.05376.77708.19291.875-.46875-.07183-.14687-.14741-.26402-.21875-.40625l3-1.09375c-.05877.11772-.09713.22288-.15625.34375 .09792.66166.47755.5225.84375.46875 .17567-.3315.35235-.63308.53125-.9375-.03139.37076-.0323.74521-.03125,1.1875 .32361.1268.81872.12999 1.03125-.1875l-.15625-1.59375 21.28125-7.625zm-48.375.65625 .125,1.125-5.8125,2.40625v-1.125l5.6875-2.40625zm3.65625.03125 1.1875.6875 .09375.53125 .65625.53125-4.875,2.125-.34375-2.53125 3.28125-1.34375zm56.03125.15625v12.53125l-.5.21875-.0625-12.53125 .5625-.21875zm-54.34375.09375 3.625,3.09375 .03125,1.21875-3.625-3.5-.03125-.8125zm53.40625.28125-.0625,12.5625-1.25.53125 .03125-12.625 1.28125-.46875zm-1.84375.6875 .09375,11.1875-5.5625-3.75-1.46875-4.84375 6.9375-2.59375zm-27.46875.09375c-1.14787,1.08553-2.15017,2.39905-3.15625,4.09375-.09976-.03767-.2052-.0762-.3125-.09375-.52106-.1893-.41007.04772-.25.3125l.21875.375c-.19572.34353-.39718.68381-.59375,1.0625l-3.53125,1.28125c-.18169-.35278-.35236-.64909-.53125-.96875l.3125-.5c.16007-.26478.23981-.47055-.28125-.28125-.14965.02448-.26912.06712-.40625.125-.43095-.73373-.87108-1.43079-1.3125-2.03125l9.84375-3.375zm-29.28125.125 .34375,2.53125-6.1875,2.65625v-2.78125l5.84375-2.40625zm14.75.1875c1.16852.91317 2.23206,1.91432 3.25,3.125l-3.78125,1.3125-4.03125-2.875 4.5625-1.5625zm-8.96875.375 2.9375,2.875 .75-.1875 4.21875,2.90625-.15625,1.34375 4.96875,2.1875-.0625,1 4,1.8125 1.96875-.71875v13.90625l-1.53125.625-6.3125-4.03125-.03125-.25h-.34375l-14.28125-9.125-1.3125-10.09375 5.1875-2.25zm43.46875.75 .21875.75-26.71875,9.90625 .15625-.78125 26.34375-9.875zm-39.8125.8125 .53125.0625-.03125.53125 .1875.28125 .15625-.6875 3.5,2.59375v.875l-3.875-2.78125-.59375-.09375 .125-.78125zm-18.75.21875v1l-3.03125,1.25-1.03125-.4375 4.0625-1.8125zm58.90625.125 1.375,4.53125-4.84375-3.25 3.46875-1.28125zm-49.21875.4375 1.25,9.8125-7.46875-4.78125v-2.34375l6.21875-2.6875zm17.90625.75c.45955.56909.90285,1.20165 1.34375,1.875-.07824-.01802-.16424-.05566-.25-.09375l.21875.46875 .5.65625-.09375.9375-1.1875.40625-4.46875-1.84375 .09375-1.09375 3.84375-1.3125zm-27.59375.21875 .09375,2.59375-1.75.78125-.9375.375 .0625-2.71875 2.53125-1.03125zm54.9375.0625 5.53125,3.71875 .21875.71875-6.28125-4.25 .53125-.1875zm-19.71875.21875c.27614.07388.85886.73112 1.1875.4375l-.34375.65625 .0625,1.65625c-.11061.07146-.18861.2586-.40625.0625 .00543-.47327.11956-1.12212.125-1.78125l-.625-1.03125zm18.65625.15625 7,4.71875 .6875,2.375-9.25-6.53125 1.5625-.5625zm-58.59375.15625 1.5.34375 .03125,3.09375-1.4375-1.125-.09375-2.3125zm40.0625.46875 .125.21875c-.00138.08121.00311.14244 0,.21875-.2372.39382-.47828.78615-.71875,1.21875l-.15625-.03125c.22199-.56079.48226-1.10138.75-1.625zm16.59375.09375 9.84375,7 .5625,1.875-25.0625,10.3125 .03125-13.75 14.625-5.4375zm-21.53125.40625-.65625,1.03125c.00544.65913.15082,1.30798.15625,1.78125-.21764.19609-.29564.00896-.40625-.0625l.03125-1.65625-.3125-.65625c.32864.29362.91136-.36362 1.1875-.4375zm-.21875.875c.23061.45594.46386.92025.65625,1.40625l-.15625.0625c-.17855-.3212-.35353-.61214-.53125-.90625-.00889-.14561-.02848-.2744-.03125-.4375l.0625-.125zm-6.75.0625 4.5,1.96875-.03125.90625-4.65625-1.96875 .1875-.90625zm-22.875.28125 10.46875,6.6875 .09375.875-11-7.375 .4375-.1875zm-.75.40625 11.375,7.59375 .28125,2.25-13.8125-8.96875 2.15625-.875zm60.96875.78125 5.375,3.625v.625l-5.15625-3.5-.21875-.75zm.40625,1.40625 4.71875,3.1875-1.78125.75-2.21875-1.5625-.71875-2.375zm-32.96875.1875 3.46875,1.5625-.0625.9375-3.5625-1.6875 .15625-.8125zm44.25.6875 .9375.15625-10.59375,4.375-.125-.46875 9.78125-4.0625zm-71.96875.0625 1.8125,1.1875v10.75c-.91654.11588-1.47865-.32521-1.8125-1.125v-10.8125zm73.53125.1875 .1875,1.625-10.8125,4.59375-.5-1.625 11.125-4.59375zm-37.09375.21875-.03125,13.78125-.5.21875-.0625-13.6875 .59375-.3125zm-.96875.34375-.0625,13.84375-1.6875.71875-.1875-13.84375 1.9375-.71875zm-33.34375.625 .46875.3125 .09375,9.5625c.12217.47066-.24862.79849-.625.6875l.0625-10.5625zm59.46875.6875 1.5625,1.125-1.09375.4375-.46875-1.5625zm-50.8125,1.25 13.4375,8.59375c-.554.04006-1.056.10789-1.40625.3125l-11.90625-8-.125-.90625zm59.1875.5625 2.53125,1.625-.5.21875-2.9375-1.46875 .90625-.375zm-8.03125.21875 .125.46875-31.15625,12.8125v.03125l-.5625-.1875 31.59375-13.125zm-65.0625.09375c-4.82286,1.05881-6.62783,3.42665-4.59375,7.84375l.375-.09375c-2.19216-3.96318.52672-6.35829 4.34375-7.5l-.125-.25zm71.625.3125 .40625,15.8125c-.14695.30767-.53031.66098-1.09375.71875l.03125-16.25 .65625-.28125zm.4375.09375 2.625,1.40625v2.0625l-2.59375-1.8125-.03125-1.65625zm-57.96875.0625 11.59375,7.75c-.04835.04952-.08912.09683-.125.15625-.28938.47926-.0614,1.06585.125,1.65625l-11.3125-7.3125-.28125-2.25zm51.21875.21875 .46875,1.625-31.3125,13.3125 .0625-2.21875 30.78125-12.71875zm5.28125.0625v16.1875c-.0609.00147-.10205-.02802-.15625-.03125l-1.25-4.125 .03125-11.4375 1.375-.59375zm-1.8125.78125-.03125,7.125c-.25603.05239-.51145.11321-.75.1875l-1.84375-6.1875 2.625-1.125zm7.46875.125-.1875,1.5-.90625.84375 .09375-2.03125 1-.3125zm-69.71875,1.3125-.03125.125c3.90239.70949 5.99496,4.15054 2.1875,6l-.1875.15625c5.17261-2.0848 2.54891-5.36405-1.96875-6.28125zm7.90625.21875 11.34375,7.40625c-1.62571,3.62146-3.97096,5.29515-6.21875,6.28125-1.01501.44528-2.09287.81259-3.21875,1.125l-1.90625-14.8125zm-12.71875.875c-4.08532,1.59678-2.34497,3.74196.375,5.34375l.25-.28125c-2.72604-1.25273-3.84418-3.61451-.59375-4.8125l-.03125-.25zm26.28125,4.0625 6.3125,4.03125-1.375.5625-6.5-4.34375c.40807-.12119.98247-.20678 1.5625-.25zm-1.9375.375h.03125l6.53125,4.34375-.21875.09375-.03125,1.4375-6.40625-4.15625c-.0627-.51838-.09859-1.07972-.03125-1.59375 .02358-.03905.06751-.08997.125-.125zm42.65625.8125v1.90625l-.53125-1.75c.17285-.0589.35086-.10722.53125-.15625zm-98.0625,1.21875c-3.39003-.02899-4.84814,1.42928-6.15625,4.40625 1.98164-3.45071 3.65782-4.23801 7.90625-4.15625l-.03125-.125c-.63105-.07418-1.18906-.12047-1.71875-.125zm55.34375.1875 1.4375.9375c-.5155.24471-.79848-.34135-1.46875-.875l.03125-.0625zm-43.03125,1.5625c3.59708-.03885 6.74385.33965 9.4375.46875 6.07691.66362 12.65077.9635 17.90625,4.40625 .59701.38666 1.08241,1.04958 1.34375,1.6875-5.65669-4.82792-13.36302-5.1908-20.5-5.71875-7.19828-.166-18.46817-.51792-24,4.0625 2.17665-3.1387 10.41689-4.84797 15.8125-4.90625zm90.53125.09375c-.16877.01055-.34687.03398-.53125.0625l.03125.34375c2.50322-.33459 3.12195,1.96806 3,4.125h.25c.55696-2.86464-.21848-4.68948-2.75-4.53125zm-40.53125.875 1.0625.1875v2.34375l-1.15625-.3125 .09375-2.21875zm-48.9375.21875c2.29844-.01593 4.59202.08501 6.75.21875 11.46312.30579 17.04884,2.51603 20.53125,5.4375l-.125.125c-.07091.03966-.14684.08581-.21875.125-6.4164-2.9745-15.61024-4.8223-24.6875-4.9375-6.54416-.08305-13.01395.75368-18.34375,2.6875 3.47349-2.77782 9.77691-3.61247 16.09375-3.65625zm85.15625.28125 .9375,3.125c-.52385-.14905-.65458-.55476-.9375-.71875v-2.40625zm-29.65625.28125v1.59375l.125.125-1.08571-.61327-.05162-.66544 1.01233-.44003zm-53.59375.53125c9.03465.0326 18.31375,1.80796 24.71875,4.9375-.18708.09859-.36931.21668-.5625.3125-3.05518-1.0497-6.48107-1.96821-10.09375-2.6875l.09375-.28125-2.9375-.25h-.03125c-4.67627-.76718-9.56825-1.1792-14.28125-1.0625-2.91622.07221-5.74822.3899-8.4375.90625 6.07887-1.075 13.59926-.85221 20.40625.03125l-.40625,1c-3.50334-.47292-7.02777-.71652-10.53125-.65625l.1875-.46875-4.3125-.1875-.34375.90625c-3.7429.37905-7.42777,1.16062-10.96875,2.5-.3086-.31739-.58825-.6217-.875-.96875 .915-.47549 1.93561-.90273 3.03125-1.25-1.07963.32339-2.12683.67467-3.125,1.09375-.14048-.17176-.32129-.35567-.4375-.5 .1168-.12546.24845-.25599.375-.375 5.15911-2.0687 11.77444-3.02438 18.53125-3zm51.53125.34375 2.25,1.5-.71875.1875v-.0625l-2.09375-1.375 .5625-.25zm-1.15625.5 2.3125,1.59375 .0625,1.5-3.84375-2.46875 1.46875-.625zm-56.3125,1.15625 3.375.15625-2.84375,7.875c-.09879.18983-2.58098-.41268-3.375-.59375l2.84375-7.4375zm60.0625.09375 .0625,1.625-1.125.59375v-1.875l.03125.03125 1.03125-.375zm-44.90625.03125 4.3125.46875-2.4375,6.84375c-1.63155.30659-3.28067.51121-4.90625.6875l3.03125-8zm-11.34375.3125c3.52023-.03359 7.11367.20326 10.53125.625l-.4375,1.0625c-3.19879-.3114-7.29502-.50622-10.53125-.5l.4375-1.1875zm-4.5.25-.46875,1.1875c-3.06506.27883-7.0321,1.04491-9.46875,1.90625-.20436-.09307-.46048-.3164-.71875-.5625 3.00179-1.40836 6.70103-2.18457 10.65625-2.53125zm20.625.03125c3.98395.75158 7.45008,1.69922 9.84375,2.6875-.34385.16533-.70175.31039-1.0625.46875-2.98367-.79484-6.06584-1.52918-9.1875-2.125l.40625-1.03125zm36.78125.5625 1.375.875 .3125,9.9375c-.95021-.14216-1.5599-.68087-1.59375-1.15625l-.09375-9.65625zm-37.25.59375c3.46445.6287 6.54409,1.39022 8.875,2.15625-.40543.17312-.79545.36427-1.21875.53125-2.30347-.51333-5.09316-1.22041-8.03125-1.65625l.375-1.03125zm-16.25.1875c3.15554.00385 7.33377.2896 10.46875.59375l-.46875,1.125-10.40625-.625 .40625-1.09375zm-4.5625.25-.25.59375-2.78125-.1875c1.04505-.18142 2.07465-.31829 3.03125-.40625zm-11.4375.09375c4.23611,5.17551 11.96375,6.65392 20.0625,6.5 8.58794-1.03865 11.8244.07367 23.0625-5.46875-1.36259,1.11346-2.82686,1.97829-4.5,2.65625-3.51443,1.37608-8.64152,2.39562-13.53125,3.09375s-10.02569.73215-14.5625-.46875c-4.01056-.95271-8.98407-3.68086-10.53125-6.3125zm71.3125.03125 .28125.4375 .71875-.40625 .09375,9.09375c.00576.45523-.41862.6237-.90625.75l-.1875-9.875zm-26.84375.40625c-.23921.47805-.5621,1.04387-.90625,1.625-7.57533,4.00308-16.39999,6.17107-25.25,5.875-5.86174-.42469-13.455-.88063-17.75-5.40625-.14101-.54133-.28327-1.07581-.40625-1.625 2.64905,3.26866 6.32886,4.82879 10.28125,5.875 4.72265,1.2501 9.73827,1.02359 14.71875.3125s9.88334-1.72112 13.46875-3.125c1.7921-.62568 4.33727-2.06621 5.84375-3.53125zm-37.1875.09375 3.8125.21875-.5,1.25-7.65625-.375c1.23579-.39605 2.75749-.77929 4.34375-1.09375zm8.21875.46875 10.4375.5625-.46875,1.15625-10.40625-.53125 .4375-1.1875zm16.1875.0625c1.94744.28057 3.70188.61293 5.375.9375l-5.59375-.34375 .21875-.59375zm-.28125.75 6.65625.375c.37522.07685.79726.14055 1.15625.21875-.76456.28676-1.56704.55123-2.375.8125l-5.84375-.28125 .40625-1.125zm-28.5.1875 7.53125.34375-.4375,1.125-5.09375-.28125c-.70849-.36106-1.37523-.74606-2-1.1875zm40.53125.3125c-.29642.48873-.63733.9805-1,1.5-7.36999,3.70494-15.84236,5.69066-24.34375,5.40625-3.11682-.10065-6.36039-.42876-9.4375-.875-2.80265-.52187-5.09848-1.98076-7.375-3.65625-.28245-.67931-.50262-1.36396-.6875-2.0625 4.52809,4.96586 11.53901,4.93564 17.6875,5.4375 9.01324.30153 17.50238-1.72195 25.15625-5.75zm-28.5.21875 10.375.5-.5,1.25-10.3125-.53125 .4375-1.21875zm94.75.25-.0625.21875c3.65049,1.69065 2.21911,6.01062-.875,7.75l.125.34375c3.36464-1.93904 4.73857-6.25584.8125-8.3125zm-78.8125.46875 5.15625.25c-1.46753.4502-2.9797.84766-4.53125,1.1875l-1.125-.0625 .5-1.375zm-25.21875.3125 4.1875.25-.4375,1.09375c-1.32196-.35624-2.57586-.80867-3.75-1.34375zm8.71875.5 10.3125.53125-.5,1.1875c-1.43148.13795-2.85314.2553-4.21875.28125-2.10441.04-4.20258-.05914-6.21875-.3125l.625-1.6875zm27.84375.03125c-.49535.68992-1.02375,1.39167-1.625,2.0625-5.67281,2.52512-11.90591,4.03807-18.25,4.34375-6.22668.5948-12.41127-.00791-18.09375-2.6875-.6813-.33289-1.32627-.72406-1.9375-1.15625-.40633-.59375-.73505-1.19736-1-1.8125 4.47258,4.32428 10.96496,4.13691 16.75,4.5 8.62405.28852 16.76428-1.56242 24.15625-5.25zm9.375.0625 .0625.28125c2.87389-.15126 4.55149,1.00536 4.09375,4l.25.21875c.83703-3.85087-1.09028-4.4517-4.40625-4.5zm17.3125.15625c-2.4964.2935-3.20991.7777-3,3.125l.34375.25c-.28905-1.96473.77548-2.79895 2.59375-3.15625l.0625-.21875zm37.6875.90625c.03385-.03422.08334.07636.15625.40625l-.28125,1.125 .34375.53125c-.46143.33562-.62811.1492-.8125,0l-.03125-.15625 .40625-.34375 .09375-1.1875c.07292-.16175.09115-.34078.125-.375zm-66.1875,1.15625c-.52439.5692-1.09278,1.12415-1.6875,1.625-3.41367,1.3551-7.00819,2.33892-10.6875,2.9375l-12.95581.46561c-4.78565-.26893-10.33289-1.82104-11.85669-3.59061-.30778-.3363-.56859-.68625-.8125-1.03125 .49592.37685 1.66252,1.12901 2.19416,1.429 5.4248,2.58784 12.20708,2.89024 18.21209,2.44064 6.18079-.33009 12.08228-1.83841 17.59375-4.27589zm62.53125.09375c-.16006,2.45678 2.39972,2.50602 4.34375,2.65625l.15625-.375c-1.59757.39734-3.58808-.42354-4.3125-2.03125l-.1875-.25zm-51.84375.15625c.03385-.03422.05208.04511.125.375l-.28125,1.125 .34375.53125c-.54852.39897-.66213.03997-.90625-.09375l.46875-.40625 .09375-1.1875c.07292-.16175.1224-.30953.15625-.34375zm-51.75.0625c-.3659.00816-.74584.08801-1.15625.25l-.0625.1875c1.30376-.67124 3.2794.29982 4.47097.94286l-.09597-.03661c-1.11705-.76553-2.05856-1.36824-3.15625-1.34375zm48.8125.25c-.83027,1.74873-1.07057,2.624.5,3.40625l.3125-.21875c-1.35831-.5682-1.07761-1.78908-.59375-3.09375l-.21875-.09375zm29.5.6875-.09375.40625c-1.37527,5.43075-10.18046,7.35159-12.5625,1.46875l-.21875-.0625c1.34533,6.42495 13.78629,3.84954 12.875-1.8125zm-40.03125.96875c-2.58917,1.1101-5.18297,1.90042-7.8125,2.21875 2.67117-.52474 5.2812-1.27001 7.8125-2.21875zm-33.15625,7.65625-.5.03125c3.28298,2.4105 7.36588,3.76171 13.03125,2.5625l-.03125-.25c-5.42612,1.14857-9.38732-.05829-12.5-2.34375z" fill-rule="evenodd"/>
</svg>
