<?xml version="1.0" encoding="UTF-8"?>
<svg viewBox="0 0 128 128" xmlns="http://www.w3.org/2000/svg" xmlns:xlink="http://www.w3.org/1999/xlink">
 <defs>
  <filter id="ap">
   <feGaussianBlur stdDeviation="1.79719"/>
  </filter>
  <linearGradient id="a">
   <stop stop-color="#6a3c1d" offset="0"/>
   <stop stop-color="#8f5127" offset="1"/>
  </linearGradient>
  <linearGradient id="b">
   <stop stop-color="#bb8f56" offset="0"/>
   <stop stop-color="#d1af63" offset="1"/>
  </linearGradient>
  <linearGradient id="c">
   <stop stop-color="#cf8d00" offset="0"/>
   <stop stop-color="#cea33e" offset="1"/>
  </linearGradient>
  <linearGradient id="s" x1="92.742" x2="93.476" y1="79.045" y2="80.482" gradientUnits="userSpaceOnUse">
   <stop stop-color="#007dff" offset="0"/>
   <stop stop-color="#58abff" offset="1"/>
  </linearGradient>
  <linearGradient id="l" x1="31.43" x2="46.654" y1="60.904" y2="84.783" gradientUnits="userSpaceOnUse">
   <stop stop-color="#4f3e2a" offset="0"/>
   <stop stop-color="#72593c" offset="1"/>
  </linearGradient>
  <linearGradient id="ao" x1="26.205" x2="56.303" y1="45.838" y2="85.189" gradientUnits="userSpaceOnUse" xlink:href="#a"/>
  <linearGradient id="an" x1="27.503" x2="46.962" y1="65.384" y2="83.2" gradientUnits="userSpaceOnUse" xlink:href="#b"/>
  <linearGradient id="am" x1="26.897" x2="27.546" y1="59.935" y2="60.108" gradientUnits="userSpaceOnUse" xlink:href="#b"/>
  <linearGradient id="al" x1="31.005" x2="34.551" y1="63.914" y2="73.297" gradientUnits="userSpaceOnUse" xlink:href="#b"/>
  <linearGradient id="ak" x1="37.708" x2="43.33" y1="71.049" y2="80" gradientUnits="userSpaceOnUse" xlink:href="#b"/>
  <linearGradient id="aj" x1="64.13" x2="105.9" y1="92.584" y2="64.13" gradientUnits="userSpaceOnUse" xlink:href="#a"/>
  <linearGradient id="ai" x1="72.775" x2="74.212" y1="87.882" y2="91.062" gradientUnits="userSpaceOnUse" xlink:href="#b"/>
  <linearGradient id="ah" x1="92.1" x2="92.895" y1="83.846" y2="85.742" gradientUnits="userSpaceOnUse" xlink:href="#b"/>
  <linearGradient id="ag" x1="93.323" x2="93.751" y1="77.914" y2="79.076" gradientUnits="userSpaceOnUse" xlink:href="#b"/>
  <linearGradient id="af" x1="124.51" x2="124.02" y1="67.518" y2="68.496" gradientUnits="userSpaceOnUse" xlink:href="#b"/>
  <linearGradient id="ae" x1="64.702" x2="72.714" y1="77.547" y2="68.802" gradientUnits="userSpaceOnUse" xlink:href="#b"/>
  <linearGradient id="ad" x1="66.415" x2="70.573" y1="75.712" y2="71.493" gradientUnits="userSpaceOnUse" xlink:href="#a"/>
  <linearGradient id="ac" x1="78.34" x2="86.351" y1="71.982" y2="63.237" gradientUnits="userSpaceOnUse" xlink:href="#b"/>
  <linearGradient id="ab" x1="80.052" x2="84.211" y1="70.147" y2="65.927" gradientUnits="userSpaceOnUse" xlink:href="#a"/>
  <linearGradient id="aa" x1="91.427" x2="99.438" y1="66.967" y2="58.222" gradientUnits="userSpaceOnUse" xlink:href="#b"/>
  <linearGradient id="z" x1="93.139" x2="97.298" y1="65.132" y2="60.913" gradientUnits="userSpaceOnUse" xlink:href="#a"/>
  <linearGradient id="y" x1="103.54" x2="111.55" y1="62.258" y2="53.513" gradientUnits="userSpaceOnUse" xlink:href="#b"/>
  <linearGradient id="x" x1="105.25" x2="109.41" y1="60.424" y2="56.204" gradientUnits="userSpaceOnUse" xlink:href="#a"/>
  <linearGradient id="w" x1="116.01" x2="124.02" y1="57.243" y2="48.498" gradientUnits="userSpaceOnUse" xlink:href="#b"/>
  <linearGradient id="v" x1="117.72" x2="121.88" y1="55.409" y2="51.189" gradientUnits="userSpaceOnUse" xlink:href="#a"/>
  <linearGradient id="u" x2="0" y1="64.519" y2="33.557" gradientUnits="userSpaceOnUse" xlink:href="#a"/>
  <linearGradient id="t" x1="64.173" x2="58.638" y1="34.076" y2="25.6" gradientUnits="userSpaceOnUse" xlink:href="#a"/>
  <linearGradient id="r" x1="77.276" x2="78.659" gradientUnits="userSpaceOnUse" xlink:href="#a"/>
  <linearGradient id="q" x1="91.33" x2="92.714" gradientUnits="userSpaceOnUse" xlink:href="#a"/>
  <linearGradient id="p" x1="105.04" x2="106.42" gradientUnits="userSpaceOnUse" xlink:href="#a"/>
  <linearGradient id="o" x1="118.53" x2="119.91" gradientUnits="userSpaceOnUse" xlink:href="#a"/>
  <linearGradient id="n" x1="37.665" x2="39.049" gradientUnits="userSpaceOnUse" xlink:href="#a"/>
  <linearGradient id="m" x1="6.2703" x2="7.6541" gradientUnits="userSpaceOnUse" xlink:href="#a"/>
  <linearGradient id="k" x1="50.399" x2="50.706" y1="76.558" y2="77.662" gradientUnits="userSpaceOnUse" xlink:href="#a"/>
  <linearGradient id="j" x1="43.585" x2="51.872" y1="86.502" y2="78.645" gradientUnits="userSpaceOnUse" xlink:href="#b"/>
  <linearGradient id="i" x1="37.395" x2="60.488" gradientUnits="userSpaceOnUse" xlink:href="#c"/>
  <linearGradient id="h" x1="43.103" x2="44.275" y1="98.179" y2="93.144" gradientUnits="userSpaceOnUse" xlink:href="#c"/>
  <linearGradient id="g" x1="53.282" x2="52.783" y1="100.2" y2="96.703" gradientUnits="userSpaceOnUse" xlink:href="#c"/>
  <linearGradient id="f" x1="13.859" x2="20.908" y1="65.924" y2="65.47" gradientUnits="userSpaceOnUse" xlink:href="#c"/>
  <linearGradient id="e" x1="12.93" x2="14.011" y1="74.941" y2="69.989" gradientUnits="userSpaceOnUse" xlink:href="#c"/>
  <linearGradient id="d" x1="24.8" x2="23.942" y1="73.773" y2="71.738" gradientUnits="userSpaceOnUse" xlink:href="#c"/>
 </defs>
 <path d="m73.686 93.405-5.3622-0.51892-22.141 7.9568-11.07-6.4 16.951-6.746-5.3622-7.2649-1.5568 1.7297-19.027-8.1297-11.589 2.7676-11.07-6.4 9.3405-3.9784-9.5135-11.07 79.222-29.232 25.773 36.497-34.595 30.789z" fill-opacity=".66667" fill-rule="evenodd" filter="url(#ap)"/>
 <path d="m28.054 72.567 0.36832-14.242 8.3487 3.1921 9.6378 10.006 0.24555 13.567-18.6-12.523z" fill="url(#l)" fill-rule="evenodd"/>
 <path d="m59.53 70.901 3.0494-0.08839 29.036-11.181 35.046-13.789 0.26517-1.5026-20.904-23.6-7.3362 2.7842c-19.866 8.0806-39.806 16.1-60.369 23.6l21.213 23.776z" fill="url(#u)" fill-rule="evenodd"/>
 <path d="m59.762 96.692 0.08649-25.946-20.93-23.524-21.449-7.0919v23.178l7.8703 8.5622-0.25946-5.7946 0.17297-10.205 12.108 4.2378 10.984 10.811-0.08649 16.605 11.503 9.1676z" fill="url(#ao)" fill-rule="evenodd"/>
 <path d="m25.254 67.114 0.17297-11.416 12.108 4.3243 10.854 10.811-0.21622 12.368-1.8162-3.1135 0.08649-8.4757-9.6-10.119-10.551-3.8919 0.51892 15.741-1.5568-3.2865v-2.9405z" fill="url(#an)" fill-rule="evenodd"/>
 <path d="m26.724 57.773-0.08649 15.568 0.51892 0.08649 1.1243-0.6054 0.17297-14.53-1.7297-0.51892z" fill="url(#am)" fill-rule="evenodd"/>
 <path d="m27.58919,60.97297 .08649,1.2973-.51892-.04324v1.42703l.56216.3027v3.84865l-.56216-.21622-.04324,1.47027 .69189.38919v1.2973l8.12973,5.83784 .77838-.25946 .08649-8.90811 .77838-.3027v-.69189l-8.51892-5.62162-.90811.21622-.56216-.04324z" fill="url(#al)" fill-rule="evenodd"/>
 <path d="m36.541 76.886c0-0.17297 0.21622-9.3838 0.21622-9.3838l1.254-0.56216 8.3892 5.8811 0.12973 4.8865-1.0378 0.3027-4.7135 1.9892-4.2378-3.1135z" fill="url(#ak)" fill-rule="evenodd"/>
 <path d="m17.46875,40.125v23.1875l7.875,8.5625-.0625-1.78125 1.53125,3.25-.53125-15.75 10.5625,3.90625 9.59375,10.125-.03125,1.6875v-.5l-8.40625-5.875-.40625.1875v-.71875l-8.53125-5.59375-.90625.21875-.5625-.0625 .09375,1.3125-.53125-.0625v1.4375l.5625.3125v3.84375l-.5625-.21875-.03125,1.46875 .6875.375v1.3125l8.125,5.84375 .59375-.21875c-.00116.05782 0,.49078 0,.5l4.25,3.125 4.71875-2 .875-.25-.03125,2.34375 1.84375,3.09375 .125-9.09375-.0625,13.4375 11.5,9.15625 .09375-25.9375-20.9375-23.53125-21.4375-7.09375zm7.78125,15.75 .1875.0625-.1875,11.1875v2.5625l-.15625-3.625 .15625-10.1875zm12.28125,11.28125-.71875.3125v-.0625l.71875-.25z" fill-opacity=".15686" fill-rule="evenodd"/>
 <path d="m59.805 70.659 2.4216 0.17297 1.6-2.2919 3.9784 0.25946 1.2973-2.2919 2.7676 0.25946 0.95135-1.946 3.5027 0.43243 0.77838-1.773 3.8919-0.08649 0.04324-1.6 4.2378-0.04324 0.38919-1.7297 3.7189 0.12973 0.43243-1.8162 3.373 0.25946 0.69189-1.6432h3.373l0.34595-1.6 3.4162 0.25946 0.6054-1.6865 3.5027-0.04324 0.43244-1.5135 3.373 0.21622 0.17297-1.7297 3.4162 0.25946 0.08649-1.773 3.1568 0.3027 0.64865-1.773 2.5946 0.47568 0.9081-1.8162 2.8541 0.47568 0.43243-1.773 2.6378 0.56216 0.77838-1.3405 0.08648 26.378-66.941 25.859-0.08649-24.649 0.12973-1.3838z" fill="url(#aj)" fill-rule="evenodd"/>
 <path d="m71.246 85.803-0.06115 7.2163 2.6297 1.2231 0.73386-0.42809 2.6908-5.8709-5.9932-2.1404z" fill="url(#ai)" fill-rule="evenodd"/>
 <path d="m76.933 88.127 50.392-19.814 0.06115 0.36693-2.9966 4.8924-50.025 20.426 2.5685-5.8709z" fill="url(#ah)" fill-rule="evenodd"/>
 <path d="m71.735 85.497 51.248-19.753-0.42809 2.6297-47.518 18.775-3.3024-1.6512z" fill="url(#ag)" fill-rule="evenodd"/>
 <path d="m122.8 65.744-0.48924 3.0578 1.3454 0.85617 3.4247-1.4677-4.2809-2.4462z" fill="url(#af)" fill-rule="evenodd"/>
 <path d="m63.234 71.615 0.18347 7.8279 9.2956-3.4247-0.12231-7.889-9.3567 3.4858z" fill="url(#ae)" fill-rule="evenodd"/>
 <path d="m64.947 72.777v4.2809l6.1155-2.5074 0.06116-4.2197-6.1767 2.4462z" fill="url(#ad)" fill-rule="evenodd"/>
 <path d="m76.872 66.05 0.18347 7.8279 9.2956-3.4247-0.12231-7.889-9.3567 3.4858z" fill="url(#ac)" fill-rule="evenodd"/>
 <path d="m78.584 67.212v4.2809l6.1155-2.5074 0.06116-4.2197-6.1767 2.4462z" fill="url(#ab)" fill-rule="evenodd"/>
 <path d="m89.959 61.035 0.18347 7.8279 9.2956-3.4247-0.12231-7.889-9.3567 3.4858z" fill="url(#aa)" fill-rule="evenodd"/>
 <path d="m91.672 62.197v4.2809l6.1155-2.5074 0.06116-4.2197-6.1767 2.4462z" fill="url(#z)" fill-rule="evenodd"/>
 <path d="m102.07 56.326 0.18346 7.8279 9.2956-3.4247-0.12231-7.889-9.3567 3.4858z" fill="url(#y)" fill-rule="evenodd"/>
 <path d="m103.78 57.488v4.2809l6.1155-2.5074 0.06116-4.2197-6.1767 2.4462z" fill="url(#x)" fill-rule="evenodd"/>
 <path d="m114.54 51.311 0.18346 7.8279 9.2956-3.4247-0.12231-7.889-9.3567 3.4858z" fill="url(#w)" fill-rule="evenodd"/>
 <path d="m116.26 52.473v4.2809l6.1155-2.5074 0.06116-4.2197-6.1767 2.4462z" fill="url(#v)" fill-rule="evenodd"/>
 <path d="m38.582 47.125-21.788-7.292 1.2816-1.1932 5.0381-0.7955 0.39775-1.3258 4.2868-0.48614-0.26516-1.1932 4.1984-0.39775 0.35355-1.3258 4.0217-0.22097 0.30936-1.2816 3.8449-0.53033 0.26517-1.1932 3.7565-0.39775 0.53033-1.3258 3.7123-0.22097 0.57452-1.2374 3.0936-0.17678 0.04419-1.149 3.9775-0.70711-0.17678-1.1048 4.4636-0.13258-0.13258-1.2374 3.8449-0.39775 0.30936-1.0607 3.4913-0.39775 0.08839-1.4142 3.4913 0.04419 0.08839-1.3258 3.5355-0.17678 0.17678-1.2374h2.9168l0.04419-1.1048 3.2262-0.17678-0.35355-1.2374 3.6239-0.22097 20.462 7.2478-15.114 6.0546-16.838 7.0711-18.738 7.3804-16.042 5.8778z" fill="url(#t)" fill-rule="evenodd"/>
 <path d="m73.723 86.323 6.6048-2.2627 3.333-1.3454 7.7056-3.3024 5.932-2.2322 4.342-1.5289 4.8618-1.4066 6.0849-2.7214 4.6784-2.0793s5.1982-2.3239 5.3817-2.1098 1.9875 1.8652 1.9875 1.8652l-15.992 6.2378-24.86 9.6931-6.88 2.7214-3.1801-1.5289z" fill="url(#s)" fill-rule="evenodd"/>
 <path d="m76.32432,95.61081-.12973,8.25946 1.16757.47568h.95135l1.2973-.64865 .17297-8.21622-1.47027-.47568-1.2973.12973-.69189.47568z" fill="url(#r)" fill-rule="evenodd"/>
 <path d="m76.71351,95.26487-.47568.60541 1.08108.95135 .56216.04324 .9946-.25946 .95135-.95135-1.42703-.73513-1.68649.34595z" fill-opacity=".15686" fill-rule="evenodd"/>
 <path d="m90.37838,90.46487-.12973,8.25946 1.16757.47568h.95135l1.2973-.64865 .17297-8.21622-1.47027-.47568-1.2973.12973-.69189.47568z" fill="url(#q)" fill-rule="evenodd"/>
 <path d="m90.76757,90.11892-.47568.6054 1.08108.95135 .56216.04324 .9946-.25946 .95135-.95135-1.42703-.73513-1.68649.34595z" fill-opacity=".15686" fill-rule="evenodd"/>
 <path d="m104.08649,84.84324-.12973,8.25946 1.16756.47568h.95136l1.29729-.64865 .17298-8.21622-1.47027-.47568-1.2973.12973-.69189.47568z" fill="url(#p)" fill-rule="evenodd"/>
 <path d="m104.47568,84.4973-.47568.6054 1.08108.95135 .56216.04324 .9946-.25946 .95135-.95135-1.42703-.73513-1.68648.34595z" fill-opacity=".15686" fill-rule="evenodd"/>
 <path d="m117.57838,79.30811-.12973,8.25946 1.16756.47568h.95136l1.29729-.64865 .17298-8.21622-1.47027-.47568-1.2973.12973-.69189.47568z" fill="url(#o)" fill-rule="evenodd"/>
 <path d="m117.96757,78.96216-.47568.6054 1.08108.95135 .56216.04324 .9946-.25946 .95135-.95135-1.42703-.73513-1.68648.34595z" fill-opacity=".15686" fill-rule="evenodd"/>
 <path d="m36.71351,95.48108-.12973,8.25946 1.16757.47568h.95135l1.2973-.64865 .17297-8.21622-1.47027-.47568-1.2973.12973-.69189.47568z" fill="url(#n)" fill-rule="evenodd"/>
 <path d="m37.1027,95.13514-.47568.6054 1.08108.95135 .56216.04324 .9946-.25946 .95135-.95135-1.42703-.73513-1.68649.34595z" fill-opacity=".15686" fill-rule="evenodd"/>
 <path d="m5.31892,72.73514-.12973,8.25946 1.16757.47568h.95135l1.2973-.64865 .17297-8.21622-1.47027-.47568-1.2973.12973-.69189.47568z" fill="url(#m)" fill-rule="evenodd"/>
 <path d="m5.70811,72.38919-.47568.60541 1.08108.95135 .56216.04324 .99459-.25946 .95135-.95135-1.42703-.73513-1.68649.34595z" fill-opacity=".15686" fill-rule="evenodd"/>
 <path d="m58.0109,73.42678-16.82009,6.26149-.92081.92081c0,0-.06139.42971 0,.67526s.42971.55249.42971.55249l.55248.06139 4.41988-1.65745 9.69918-3.80601 3.00797-.92081 .42971-.9822-.12277-.61387-.67526-.4911z" fill="url(#k)" fill-rule="evenodd"/>
 <path d="m41.068 81.96 0.30694 5.709 0.84144 0.52025 12.418-4.8174v-6.5684l-13.567 5.1565z" fill="url(#j)" fill-rule="evenodd"/>
 <path d="m41.06804,79.93382-1.04358.67526 .06139.67526 .4911.55249 .61387.18416 .21666,5.47068 .73743.41419 .27366-6.19181-.55248-.55248-.18416-.73665-.61387-.4911z" fill-opacity=".15686" fill-rule="evenodd"/>
 <path d="m48.42085,102.73695-1.49755-3.25555 .88985-5.38251c0,0 11.37271-3.95006 11.52464-3.81984s.41237,1.172.41237,1.172l.13022.54259-.21704.13022 .32555.5643-.28215.30385 .45578.49918-.30385.21704 .41237.62941-.41237.17363 .15192.34726-.23874.45578 .30385.80303-.23874.15193 .21704.49918-.23874.32555 .15193.43407-.13022.36896-.0217.39067-.62941-.30385c0,0 .26044.91155.30385.97666-.21704-.06511-.80304-.23874-.80304-.23874l-.08681.30385-.65111-.04341 .0217.45578-.82474-.23874-.08681.36896-.65111-.13022-.1846.41245-.50991-.15201-.23874.34726-.49918-.13023-.28215.32556-.41237.0217-.36896.36896-.39067-.15192-.39067.49918-.34726-.21703-.32555.52088-.41237-.28214-.30385.49918-.39067-.26044-.22793.84636-.5317-.56422-.23874.43408-.45578-.32556-.34726,1.172-.45578-.75963-.21704.45578-.45578.23874z" fill="url(#g)" fill-rule="evenodd"/>
 <path d="m41.15013,85.2438-.17363.23874-.69452-.28215 .08682.49918-.62941-.39066-.04341.54259-.47748-.39067c0,0 .15193.67281.06511.67281s-.47748-.15193-.47748-.15193l-.04341.39067-.84644-.75963 .15193.97666-.32555-.19533-.34726-.04341 .65111.52089 2.43081,1.758c0,0 7.07539,5.18717 7.22732,5.3391s1.32392,1.06348 1.32392,1.06348l.80304,1.08518-.06511-1.10689 .54259.26044 .08682-.6077 .39067.08681 .26044-.30385 .52089.65111 .13022-.78133 .34726-.0217 .32555-.6077 .45578.32555 .17363-.32555 .36896.10852 .28215-.54259 .34726.04341 .32556-.41237 .41237.13022 .23874-.28215 .32556.15192 .34726-.586 .45578.43407 .15192-.32556 .41237.17363 .30385-.39067 .39067.36896 .17363-.62941 .80304.39066-.10852-.69452 .36896.15193 .26044.04341-.04341-.43407 .41237.13022 .13022-.586 .43407.52089 .26044.06511 .43407-.17363-.65111-.69452-3.03851-1.60607-1.73629-.86815-2.84318-1.62777-2.08355-1.23711-7.7482,2.90829-1.2154-.75963-.0217-2.21377z" fill="url(#i)" fill-rule="evenodd"/>
 <path d="m40.95479,88.97683-3.10362-2.25718-.47748-.39067 .0217.15193 .26044.54259-.41237.23874 .26044.73792-.71622.54259 .67281.49918-.28215.65111 .24963.83563-.33645.03251 .23874.93326-.15192.41237 .17363.65111-.586-.08681 .6077,1.02007-.26044.52089 .04341.45578 .39067.26044 2.58273.54259 .06511,1.28052 .41237.26044 .43407.15193 .45578.21704 .62941.49918 .93326.75963 1.38903,1.38903 3.08192,2.23548 .97666.67281-.10852-.54259 .34726-.30385-.32555-.67282 .36896-.13022-.30385-.86815 .41237-.19533-.30385-.73792 .56429-.0217-.54259-.97666 .54259-.19533-.39067-.65111 .15193-.43407-.13022-.62941 .21704-.39067-.39066-.6077 .45578-.49918-6.05532-4.42754-2.06185-1.47585z" fill="url(#h)" fill-rule="evenodd"/>
 <path d="m25.98919,67.61081 .23784.60541-.21622.17297 .23784.3027-.19459.43243 .43243.54054-.21622.19459 .36757.64865-.43243.10811 .19459.28108-.25946.47568 .3027.60541-.17297.17297 .19459.51892-.19459.28108 .08649.43243-.08649.36757v.36757l-.67027-.36757 .28108.9946-.73513-.3027-.06486.32432-.67027-.02162 .06487.38919-.69189-.17297-.10811.28108-.62703-.08649-.12973.4-.47568-.18378-.25946.32432-.41081-.10811-.28108.23784-.45405.06486-.28108.36757-.34595-.17297-.32432.50811-.36757-.21622-.28108.46487-.38919-.28108-.25946.46487-.38919-.22703-.23784.8-.45405-.4973-.25946.4-.41081-.31351-.32432,1.12432-.36757-.73513-.21622.38919-.36757.2054c0,0-.58378-.91892-.45405-1.39459s.06486-6.46487.06486-6.46487l9.72973-3.41622 .99459.38919-.10811.32433z" fill="url(#d)" fill-rule="evenodd"/>
 <path d="m8.73514,65.38378-2.84324-2.03243-.35676-.28108 .56216.12973 .02162-.67027 .47568.38919 .10811.10811 .12973-.32432 .41081.15135v-.56216l.41081.28108 .04324-.41081 .51892.28108v-.43243l.62703.21622 .15135-.17297 .54054.23784 .17297-.32432 .41081.10811 .21622-.15135 .34595.02162 .25946-.17297c0,0 .32432.15135.38919.02162s.17297-.23784.17297-.23784l.23784.06487 .25946-.3027h.28108l.19459-.3027 .41081.10811 .12973-.47568 .45405.34595 .04324-.82162 .51892.64865 .15135-.32432 .41081.33513 .3027-.65946 .12973.41081c.34177.2972.67922.60738 1.04865.82162l3.01622,1.77297 2.7027,1.53514c0,0 1.9027.86486 2.05405.99459s2.52973,1.34054 2.52973,1.34054l.4973.58378-.51892.1946-.38919-.25946-.17297-.28108-.08649.54054-.45405-.10811 .08649.38919-.60541-.1946 .12973.69189-.75676-.34595-.15135.4973-.38919-.3027-.21622.34595-.47568-.15135-.15135.23784-.34595-.3027-.32432.47568-.36757-.10811-.23784.23784h-.34595l-.25946.28108-.32432-.08649-.3027.56216-.32432-.15135-.10811.32432-.43243-.25946-.25946.54054-.38919-.02162-.12973.73513-.4973-.58378-.15135.25946-.41081-.04324-.06487.56216-.54054-.32432 .06487,1.03784c0,0-.95135-1.14595-.8-1.01622s-6.85405-5.1027-6.85405-5.1027l-.58378-.51892z" fill="url(#f)" fill-rule="evenodd"/>
 <path d="m16.23784,70.91892-.36757.47568 .34595.58378-.17297.38919 .12973.51892-.17297.41081 .38919.60541-.4973.19459 .51892.88649-.58378.02162 .3027.64865-.32432.23784 .23784.73513-.34595.10811 .28108.64865-.32432.28108 .10811.51892-1.53514-1.16757-2.16216-1.57838-2.22703-2.05405-.84324-.4973-.15135-.4973-1.64324-.58378-1.96757-1.25405v-.43243l.25946-.41081-.56216-1.03784 .51892.12973-.10811-.64865 .15135-.28108-.27027-.94054 .29189-.03243-.23784-.75676 .29189-.60541-.61622-.47568 .64865-.47568-.23784-.71351 .34595-.21622-.23784-.62703 1.00541.71351 3.88108,2.8973c0,0 4.71351,3.52432 4.90811,3.67567s1.03784.56216.97297.60541z" fill="url(#e)" fill-rule="evenodd"/>
 <path d="m71.246 85.803-0.06115 7.2163 2.6297 1.2231 0.73386-0.42809 2.6908-5.8709-5.9932-2.1404z" fill-opacity=".15686" fill-rule="evenodd"/>
 <path d="m40.95479,88.97683-3.10362-2.25718-.47748-.39067 .0217.15193 .26044.54259-.41237.23874 .26044.73792-.71622.54259 .67281.49918-.28215.65111 .24963.83563-.33645.03251 .23874.93326-.15192.41237 .17363.65111-.586-.08681 .6077,1.02007-.26044.52089 .04341.45578 .39067.26044 2.58273.54259 .06511,1.28052 .41237.26044 .43407.15193 .45578.21704 .62941.49918 .93326.75963 1.38903,1.38903 3.08192,2.23548 .97666.67281-.10852-.54259 .34726-.30385-.32555-.67282 .36896-.13022-.30385-.86815 .41237-.19533-.30385-.73792 .56429-.0217-.54259-.97666 .54259-.19533-.39067-.65111 .15193-.43407-.13022-.62941 .21704-.39067-.39066-.6077 .45578-.49918-6.05532-4.42754-2.06185-1.47585z" fill-opacity=".15686" fill-rule="evenodd"/>
 <path d="m16.23784,70.91892-.36757.47568 .34595.58378-.17297.38919 .12973.51892-.17297.41081 .38919.60541-.4973.19459 .51892.88649-.58378.02162 .3027.64865-.32432.23784 .23784.73513-.34595.10811 .28108.64865-.32432.28108 .10811.51892-1.53514-1.16757-2.16216-1.57838-2.22703-2.05405-.84324-.4973-.15135-.4973-1.64324-.58378-1.96757-1.25405v-.43243l.25946-.41081-.56216-1.03784 .51892.12973-.10811-.64865 .15135-.28108-.27027-.94054 .29189-.03243-.23784-.75676 .29189-.60541-.61622-.47568 .64865-.47568-.23784-.71351 .34595-.21622-.23784-.62703 1.00541.71351 3.88108,2.8973c0,0 4.71351,3.52432 4.90811,3.67567s1.03784.56216.97297.60541z" fill-opacity=".15686" fill-rule="evenodd"/>
 <path d="m85.09375,13.25-4.03125.4375 .21875,1.0625-3.03125.34375-.15625.875-2.875.28125-.34375.96875-3.5.40625-.09375,1-3.40625.28125-.25,1.15625-3.1875.625-.40625.875-3.78125.5625 .03125.90625-4.4375.5-.0625,1.21875-3.71875.5625-.21875.96875-2.96875.34375-.6875,1.09375-3.6875.46875-.4375,1.125-3.75.59375-.40625,1-3.375.59375c-.58181.01543-.32444.83706-.90625,1.0625l-3.71875.5-.59375,1.1875-3.96875.5 .03125,1.03125-4.0625.6875-.5,1.09375-5.125.9375-1.21875,1.5 .78125.28125 .125,21.78125c-.47616-.27459-1.00987-.49973-1.46875-.78125 .5643.40068 1.28517.86379 2.21875,1.40625-1.2295.4365-2.48434.86504-3.78125,1.25-.98149-.72459-1.94145-1.47164-2.9375-2.1875l.125-.125 .28125.0625 .21875-.3125 .34375.03125 .125-.34375 .4375.1875 .125-.5625 .4375.375 .03125-.8125 .53125.65625 .1875-.34375 .375.3125 .28125-.5625c-.10639.10046.1513.33855.5625.65625-.30528-.25479-.5153-.55111-.5625-.9375l-.28125.71875-.4375-.3125-.15625.3125-.53125-.65625-.03125.8125-.5-.34375-.125.5-.40625-.125-.15625.28125h-.3125l-.1875.28125-.375-.03125-.1875.28125-.34375-.03125-.21875.21875-.3125-.03125-.25.125-.40625-.09375-.125.28125-.59375-.25-.1875.21875-.65625-.21875 .09375.375-.5625-.28125-.03125.46875-.46875-.34375 .03125.59375-.4375-.125-.0625.3125-.8125-.71875 .21875.875-.5625-.0625 .21875.0625 .46875.21875-.09375-.8125 .65625.625 .09375-.34375 .4375.125-.03125-.5625 .40625.28125 .03125-.4375 .5625.3125v-.4375l.59375.21875 .125-.25 .5625.28125 .1875-.34375 .375.1875 .28125-.21875 .28125.03125 .15625-.125c1.01792.76173 2.02352,1.4876 3.03125,2.21875-1.6653.47863-3.39936.87449-5.28125,1.1875l-3.0625-2.21875 2.96875,2.28125c.33157,2.23884.09358,4.48029-.03125,6.71875-.43175-.14207-.85462-.24946-1.28125-.28125l-1.875-1.21875-.03125-.5 .25-.375-.5-.9375 .375.03125-.5-.125 .5625,1.0625-.28125.40625 .03125.4375 1.75,1.1875c-.65396-.00356-1.322.19757-2,.6875v8.46875c1.5664,1.15512 2.36395,1.03329 3.75-.125-.03786-2.9006-.00649-4.97193.28125-7.875l.03125.03125c.96495.50622 1.83086,1.54121 2.75,2.4375l3.4375,2.5 .53125.34375 .3125-.15625 .28125-.40625 .375.6875 .3125-1.125 .40625.3125 .25-.375 .5.5 .21875-.78125 .34375.1875 .03125-.03125-.40625-.28125-.25.78125-.4375-.5-.28125.40625-.375-.3125-.3125,1.03125-.375-.6875-.28125.4375-.3125.21875-.03125-.4375 .28125-.25-.25-.65625 .34375-.09375-.3125-.75 .34375-.25-.40625.1875 .28125.71875-.34375.15625 .28125.65625-.34375.25 .125.46875-.375-.3125-3.0625-2.3125c.06043-2.39018.43637-4.8899.15625-7.15625l3.5625,2.6875-.15625.4375 .3125.53125-.21875.28125 .1875.625-.1875.375 .375.59375-.5.1875 .5.84375-.5625.0625 .375.71875h.03125l-.3125-.625 .59375-.0625-.53125-.875 .5-.21875-.34375-.625 .125-.40625-.09375-.53125 .15625-.375-.28125-.46875 .15625-.375 .25.21875 .65625.84375-.09375-1.09375 .5625.3125 .0625-.53125 .375.03125 .21875-.28125-.125-.15625-.15625.3125-.40625-.125-.0625.5625-.5-.25v.9375l-.5625-.96875-3.8125-2.78125 4.65625-1.625c1.20515.89615 2.41368,1.83534 3.65625,2.84375l-.03125.0625-.3125-.09375-.25.5-.34375-.09375-.15625.3125-.4375-.25-.3125.53125-.3125-.03125-.09375.71875-.4375-.40625 .5.65625 .125-.875 .3125.0625 .28125-.5625 .4375.3125 .125-.28125 .34375.09375 .25-.59375 .3125.125 .125-.09375c.0382.03111.0555.03124.09375.0625-.16955,2.02062-.12132,4.16206-.03125,6.3125l-.28125.375-.375-.15625-.34375.46875-.34375-.21875-.25.46875-.40625-.25-.25.5 .25-.375 .40625.25 .28125-.5 .375.21875 .3125-.46875 .375.15625 .28125-.375 .40625-.03125 .34375-.25 .375.0625 .25-.3125 .4375.125-.5-.1875-.21875.28125-.4375-.0625-.125.125c-.25594-2.20055-.22203-4.32646.03125-6.5l.15625-.09375 .28125.03125 .3125-.4375 .4375.34375 .125-.28125 .4375.125 .1875-.34375 .40625.3125 .1875-.53125 .96875.46875-.34375-.75 .625.125-.0625-.34375 .4375.0625 .0625-.5 .3125.875-.1875.125 .25.4375-.25.34375 .40625.5-.25.1875 .375.5625-.40625.1875 .1875.3125-.21875.46875 .28125.625-.0625.0625-.1875.09375 .25.46875v.03125 .03125l-.21875.25 .1875.40625-.125.34375-.03125.34375-.5625-.3125 .03125.125 .65625.28125v-.375l.09375-.34375-.03125-.09375 .625.4375 1.375-.84375 .03125-1.59375 7.59375,5.53125 .375-.15625v.34375l4.03125,2.875c-.81335,1.10343-.64292,1.82392.6875,2.375v2.96875l-.125.15625-.71875-.21875 .09375.40625-.59375-.3125-.03125.5-.5-.375 .03125.65625-.46875-.15625-.0625.34375-.90625-.78125 .25.96875-.625-.09375h-.03125v.03125h.03125l.25.0625 .5.21875-.09375-.875 .71875.6875 .09375-.375 .46875.125-.03125-.59375 .4375.28125 .03125-.46875 .625.34375v-.46875l.625.25 .03125-.0625 .03125,2.09375 1.125.75 3.59375-1.34375c.21595.16027.44004.31188.65625.46875-1.88775.54939-3.82074.91433-5.75,1.28125l-3.3125-2.375 3.21875,2.46875c.38585,2.6053.05848,5.2072-.0625,7.8125l-.3125-.21875c.04022-.45854.07022-.9005.125-1.40625-.69772-.24927-1.35719-.45152-2.03125-.46875-.28727-.00734-.5827.02205-.875.09375l-.28125-.1875-.03125-.53125 .25-.40625-.53125-1.03125 .40625.0625-.53125-.15625 .59375,1.15625-.3125.4375 .0625.46875 .3125.21875c-.37272.09983-.74517.25678-1.125.53125v8.46875c1.5664,1.15512 2.36395,1.03329 3.75-.125-.03366-2.57937-.0183-4.50776.1875-6.9375l.3125.1875c1.32284.34111 2.45239,1.70107 3.65625,2.875l3.71875,2.71875 .5625.375 .34375-.1875 .3125-.4375 .40625.75 .34375-1.21875 .4375.34375 .28125-.40625 .53125.53125 .21875-.84375 .375.21875 .03125-.0625-.4375-.28125-.25.84375-.46875-.5625-.3125.4375-.40625-.3125-.34375,1.09375-.40625-.71875-.3125.46875-.3125.21875-.0625-.46875 .3125-.28125-.25-.6875 .34375-.125-.3125-.8125 .40625-.25-.34375-.6875 .625-.0625-.5625-.9375 .53125-.25-.375-.65625 .15625-.46875-.125-.5625 .1875-.40625-.3125-.5 .15625-.40625 .28125.21875 .71875.9375-.09375-1.1875 .59375.3125 .0625-.5625 .40625.03125 .25-.28125 .53125.6875 .125-.9375 .34375.0625 .3125-.59375 .46875.3125 .15625-.28125 .34375.09375 .28125-.65625 .34375.15625 .125-.125 .125.09375c-.18357,2.1877-.16002,4.48425-.0625,6.8125l-.28125.40625-.40625-.15625-.375.5-.375-.25-.28125.53125-.4375-.28125-.28125.53125 .28125-.40625 .4375.28125 .3125-.53125 .40625.21875 .34375-.5 .40625.15625 .3125-.40625 .4375-.03125 .34375-.25 .4375.0625 .25-.34375 .46875.125-.53125-.1875-.25.3125-.46875-.0625-.125.125c-.2771-2.3825-.24297-4.67799.03125-7.03125l.15625-.125 .3125.03125 .34375-.46875 .46875.375 .15625-.28125 .46875.125 .1875-.375 .4375.34375 .21875-.59375 1.03125.53125-.375-.8125 .6875.125-.0625-.375 .46875.0625 .0625-.53125 .34375.9375-.1875.15625 .25.46875-.25.375 .4375.53125-.28125.1875 .40625.625-.4375.1875 .1875.34375-.1875.46875-.03125.03125 .3125.6875-.28125.1875 .25.53125-.21875.3125 .0625.09375 .125.34375-.125.375-.03125.34375-.625-.3125 .25,1-.8125-.28125-.0625.375-.65625-.125 .03125.5-.75-.25-.125.375-.625-.09375-.1875.4375 .0625.03125 .1875-.375 .65625.09375 .1875-.3125 .6875.15625 .0625-.40625 .53125.03125 .1875-.3125 .8125.3125-.375-1.03125 .6875.3125v-.40625l.125-.375-.125-.4375 11.125-4.34375v.34375l2.90625,1.3125 .21875-.25 50.5-20.3125 1.5-2.59375 .8125-.3125v-1.125l.75-1.3125 .1875-.0625-.9375-.59375v-23.40625l.375-.15625-21.375-23.78125-20.84375-7.28125zm-47.8125,79.3125 .09375.03125-.15625-.6875 .15625-.34375-.25-.96875 .28125-.0625-.375-.03125 .28125,1-.1875.40625 .15625.65625zm.125-2.03125h.0625l-.25-.84375 .125-.28125 .15625-.375-.65625-.46875 .6875-.53125-.25-.75 .40625-.21875-.3125-.6875 .21875.625-.375.25 .21875.71875-.6875.5625 .6875.53125-.21875.3125-.125.3125 .3125.84375zm-11.78125-16.6875 .1875.8125-.75-.25-.0625.34375-.59375-.125 .03125.46875-.71875-.25-.09375.34375-.59375-.0625-.15625.40625 .0625.03125 .15625-.375 .59375.09375 .1875-.28125 .625.15625 .0625-.375h.5l.15625-.28125 .75.28125-.34375-.9375zm-20.21875-5.0625 .09375.03125-.15625-.625 .15625-.3125-.25-.90625 .28125-.0625-.34375-.03125 .25.9375-.1875.375 .15625.59375zm.125-1.875h.03125l-.21875-.78125 .125-.25 .09375-.3125-.21875.28125-.125.28125 .3125.78125zm.03125-1.34375 .03125-.03125-.59375-.4375 .625-.5-.21875-.6875 .375-.1875-.28125-.65625 .1875.59375-.34375.21875 .21875.6875-.65625.5 .65625.5zm75.96875-51.6875h3.59375l19,7.09375c-.91893.35938-1.83249.73017-2.75,1.09375l-18.875-7.15625-.96875-1.03125zm.3125,1.28125 18.875,7.15625c-.84704.33661-1.68523.69162-2.53125,1.03125l-18.96875-7.15625-.5625-.90625 3.1875-.125zm-6.3125,1.3125 3.21875.03125 18.78125,7.09375c-.92819.37349-1.85405.74855-2.78125,1.125l-19-7.21875-.21875-1.03125zm-.3125,1.34375 18.875,7.15625-3,1.21875-19.09375-7.21875-.15625-1.09375 3.375-.0625zm-6.96875,1.3125 3.34375.1875 18.875,7.15625c-.92563.37968-1.85609.74383-2.78125,1.125l-19.21875-7.25-.21875-1.21875zm-.28125,1.53125 19.09375,7.21875-3.125,1.28125-.0625-.0625-19.25-7.25-.03125-1.03125 3.375-.15625zm36.90625.5625 .625.25 20.53125,22.4375-.3125,1.65625-2.75-.46875-21.09375-22.625c1.00176-.41437 1.99703-.83883 3-1.25zm-40.6875.9375 19.15625,7.25c-1.07083.44271-2.14784.86983-3.21875,1.3125l-.125-.125-19.25-7.25-.125-1 3.5625-.1875zm37.15625.53125 21.25,22.5625 .03125,1.59375-2.8125-.5-21.0625-22.59375c.8631-.35962 1.72995-.70471 2.59375-1.0625zm-41.0625.96875 19.25,7.3125c-1.06205.43888-2.12501.8747-3.1875,1.3125l-.0625-.09375-19.4375-7.34375-.59375-1.125 4.03125-.0625zm37.9375.3125 21.21875,22.53125-.4375,1.59375-2.71875-.375-20.96875-22.53125 2.90625-1.21875zm-42.03125,1.15625 19.59375,7.375c-1.12705.46406-2.24704.94458-3.375,1.40625l-.09375-.125-19.5-7.34375-.34375-.90625 3.71875-.40625zm38.59375.28125 21.25,22.59375c-.52305.12703-.09214,1.24797-.40625,1.375l-3-.21875-20.90625-22.4375c1.02191-.42959 2.04021-.88387 3.0625-1.3125zm-42.625,1.34375 19.71875,7.375c-1.08026.44163-2.16853.87415-3.25,1.3125l-.125-.15625-19.6875-7.3125 .4375-1.125 2.90625-.09375zm39,.1875 21.09375,22.375 .125,1.625-3.3125-.375-20.84375-22.375c.97957-.41205 1.95787-.83807 2.9375-1.25zm-42.9375,1.28125 19.84375,7.40625 .03125.03125-3.46875,1.40625-19.75-7.5625 .09375-1.09375 3.25-.1875zm39.46875.1875 21,22.28125 .0625,1.8125-3.5-.46875-20.78125-22.28125c1.07495-.45119 2.14408-.89176 3.21875-1.34375zm-43.46875,1.34375 19.75,7.5625c-1.24709.49719-2.50025.97893-3.75,1.46875l-19.71875-7.5625 .125-1.21875 3.59375-.25zm39.71875.21875 20.9375,22.21875v1.5l-3.5-.125-20.6875-22.21875c1.08828-.45445 2.16237-.91873 3.25-1.375zm-43.90625,1.5625 19.53125,7.5c-1.13711.44419-2.26649.90694-3.40625,1.34375l-19.6875-7.59375 .28125-1.125 3.28125-.125zm40.09375.03125 21.0625,22.40625-.21875,1.4375-3.375-.375-20.65625-22.15625c1.0587-.43857 2.12977-.87126 3.1875-1.3125zm-44.25,1.46875 19.59375,7.59375c-1.23665.47196-2.47845.91325-3.71875,1.375l-19.6875-7.53125 .09375-1.21875 3.71875-.21875zm40.5.0625 20.8125,22.09375-.0625,1.53125-3.5625-.09375-20.5625-22.125c1.12462-.4605 2.25188-.94166 3.375-1.40625zm-3.9375,1.625 20.9375,22.15625-.28125,1.5-3.3125-.28125-20.59375-22.0625c1.08424-.43761 2.16752-.8701 3.25-1.3125zm-41.03125.03125 19.65625,7.5c-1.16107.4301-2.30401.89269-3.46875,1.3125l-19.28125-7.625-.375-.90625 3.46875-.28125zm-3.65625,1.46875 19.15625,7.59375c-1.35183.48442-2.70507.96879-4.0625,1.4375l-19.40625-7.40625 .21875-1.09375 4.09375-.53125zm40.90625.03125 20.71875,22-.15625,1.6875-3.5-.25-20.4375-22.09375c1.12656-.44651 2.25073-.89102 3.375-1.34375zm-3.90625,1.5625 20.5625,22.03125-.15625,1.71875-3.96875-.09375-20.34375-22.125c1.30592-.50485 2.60397-1.01652 3.90625-1.53125zm-41.8125.21875 19.1875,7.46875c-1.21238.41568-2.43888.81711-3.65625,1.21875l-21.21875-6.96875 .9375-.9375 4.75-.78125zm37.34375,1.53125 20.5,22.03125 .0625,1.625-3.8125-.125-20.1875-22.21875c1.14911-.43262 2.29164-.87107 3.4375-1.3125zm-42.28125.96875 1.8125.625 36.25,26.3125 3.0625,3.40625 .15625.8125-41.28125-29.875v-1.28125zm38.3125.5625c6.7659,7.39447 13.67087,14.87476 20.375,22.3125l-.28125,1.53125-3.5625-.21875-20.46875-22.1875c1.31166-.47718 2.63062-.94738 3.9375-1.4375zm-35.9375.28125 5,1.75 26.3125,19.46875 3.625,4.03125-34.9375-25.25zm-2.375.625 41.28125,30v1.375l-41.28125-29.90625v-1.46875zm33.8125.75 20.65625,22.125-.6875,1.65625-2.8125-.3125-1.21875,2.28125-3.59375-.375-20.75-22.46875c1.4143-.47253 2.84252-.91528 4.25-1.40625l20.84375,22.03125 .46875-.0625-20.75-22.1875c1.19855-.42035 2.39964-.84888 3.59375-1.28125zm-25.875.5625 6.25,2.1875 13.34375,10.1875 5.375,6.03125-24.96875-18.40625zm-7.9375.375 41.28125,30 .03125,1.4375-.375-.28125c.25883-.77659.04029-1.52023-.9375-1.78125l-1,.375-39.03125-28.1875 .03125-1.5625zm108.375,1.53125v.625l-58.34375,23-5.40625,2.125-2.5,1-.09375-.90625 2.59375-.09375 1.65625-2.34375 3.75.21875 1.03125-2.0625c.79272-.28942 2.42858.41442 3.0625.125l.78125-1.625 3.65625.03125 .96875-1.8125 3.5625.03125 .40625-1.5625 3.90625-.0625 .5-1.625 3.53125.09375 .5625-1.6875 3.25.125 1.03125-1.78125 3,.0625 .65625-1.4375 3.21875.0625 .71875-1.59375 3.3125-.0625 .5625-1.4375 3.1875.0625 .34375-1.5625 3.375.09375 .15625-1.75 3.09375.375 .78125-1.71875c.55372-.23988 2.04004.53086 2.59375.34375 .58433-.19746.22817-1.36424.8125-1.5625l2.75.21875 .5625-1.40625 2.5625.15625 .40625-.65625zm-108.40625.25 38.71875,28.09375-1.375.53125-12.25-8.875-5.53125-5.40625-3.78125-1.34375-15.78125-11.40625v-1.59375zm14.75.21875 5.59375,1.96875 6.40625,7.125-12-9.09375zm10.09375.1875 20.90625,22.34375-1.34375,2.34375-2.65625.03125-20.5625-23.53125c1.22376-.3893 2.43806-.78315 3.65625-1.1875zm83.5625.25v1.40625l-2.40625.9375v-1.1875l-9.96875,3.96875v1.15625l-2.1875.875-.03125-.90625-9.875,3.625v1.15625l-2.34375.9375v-1l-9.71875,3.875v.96875l-3.15625,1.25v-1.03125l-10.0625,3.875v1.125l-3.78125,1.5-.03125-1-9.875,3.8125v1.0625l-2.8125,1.125v-1.46875l66.25-26.0625zm-108.40625,1.125 15.09375,10.96875-3.90625-1.375-11.1875-8.125v-1.46875zm108.40625.5625v1.5l-2.375.9375v-1.5l2.375-.9375zm-3.0625.34375 .1875,7.21875-8.75,3.1875 .0625-7 8.5-3.40625zm-105.34375.78125 10.59375,7.6875-3.5-1.25v.25l-7.125-5.15625 .03125-1.53125zm108.40625.625v1.46875l-2.34375.9375-.03125-1.46875 2.375-.9375zm-3.96875.25-6.59375,2.5625v4.9375l6.5625-2.5 .03125-5zm-104.46875.875 7.125,5.15625v1.3125l-7.125-5.15625v-1.3125zm103.96875,0-.03125,3.5-1.6875.65625v-3.5l1.71875-.65625zm4.46875.625v1.40625l-2.34375.9375v-1.40625l2.34375-.9375zm-6.59375.21875-.0625,3.53125-1.4375.5625c.0296-.78504.14027-2.66121.15625-3.5l1.34375-.59375zm-101.84375.6875 7.125,5.15625-.03125,1.40625-7.09375-5.125v-1.4375zm99.96875.09375c-.02415,1.13659-.09054,3.41427-.09375,3.5l-1.375.53125v-3.53125l1.46875-.5zm-3.90625.34375 .03125,1.53125-2.1875.84375-.03125-1.5 2.1875-.875zm-2.6875.25 .09375,7.21875-8.75,3.1875 .0625-7 8.59375-3.40625zm15.0625.09375v1.375l-2.3125.90625-.03125-1.375 2.34375-.90625zm-108.4375.875 7.09375,5.15625v1.46875l-7.09375-5.125v-1.5zm96.09375.5625v1.5l-2.15625.84375-.03125-1.5 2.1875-.84375zm-3.71875.1875-6.59375,2.5v4.9375l6.5-2.53125 .09375-4.90625zm16.0625,0v1.375l-66.25,26.09375v-1.40625l2.875-1.125v.28125l10-3.6875v-.53125l3.6875-1.4375v.21875l10-3.6875v-.46875l3.21875-1.28125v.375l9.65625-3.9375v-.25l2.40625-.9375v.15625l10-3.6875v-.40625l2.09375-.8125v.15625l10-3.6875v-.40625l2.3125-.90625zm-16.53125.8125-.0625,3.5-1.6875.65625v-3.4375l1.75-.71875zm-91.90625.15625 7.09375,5.15625-.03125,1.4375-7.09375-5.125 .03125-1.46875zm7.5625.53125 11.71875,4 10.90625,10.84375-.0625,5.9375-1.25.46875-.0625-6.0625-9.78125-9.9375-10.6875-4v9.5l-.78125-.40625v-10.34375zm88.53125.03125 .03125,1.4375-2.15625.84375-.03125-1.4375 2.15625-.84375zm12.34375.09375v1.40625l-66.21875,26.125-.03125-1.46875 66.25-26.0625zm-18.6875.0625-.0625,3.5-1.4375.5625c.0296-.78504.14027-2.66121.15625-3.5l1.34375-.5625zm-1.875.75c-.02415,1.13659-.09054,3.41427-.09375,3.5l-1.375.53125v-3.53125l1.46875-.5zm-87.90625.21875 7.09375,5.125v1.5625l-7.09375-5.125v-1.5625zm84,.125 .03125,1.5625-2.375.90625v-1.53125l2.34375-.9375zm12.15625.4375v1.375l-2.09375.84375-.03125-1.375 2.125-.84375zm-14.90625.0625 .1875,7.1875-8.75,3.1875 .0625-7 8.5-3.375zm-72.3125.03125 1.28125.5 .03125,2.375-.71875-.0625v1.3125l-.5-.03125 .03125,1.6875 .5.28125 .03125,3.6875-.46875-.3125v1.71875l.5.28125v1.34375l.46875.34375-.1875,1.65625-.84375.4375-.125-15.21875zm99.53125,0v1.53125l-66.21875,26.09375v-1.5625l66.21875-26.0625zm-97.8125.6875 7.90625,3.09375 9.71875,9.875v.9375l-8.09375-5.8125-.375.15625 .03125-.4375-8.65625-5.78125-.53125.09375v-2.125zm-10.65625.4375 7.09375,5.125-.03125,1.71875-7.0625-5.125v-1.71875zm84.03125.125v1.46875l-2.375.9375v-1.5l2.375-.90625zm-3.75.25-6.53125,2.65625v4.9375l6.5625-2.5625-.03125-5.03125zm28.1875.3125v1.40625l-66.21875,26.09375v-1.4375l66.21875-26.0625zm-28.53125.53125-.125,3.625-1.6875.65625v-3.5l1.8125-.78125zm4.09375.625 .03125,1.46875-2.40625.90625v-1.4375l2.375-.9375zm-84.03125.03125 7.0625,5.15625v.125l-2.96875-1.4375-.0625-.03125 .0625-.03125-.40625-.21875-.0625.03125-2.78125-1.625c.02009-.00679.01116-.02446.03125-.03125l-.375-.25-.09375.03125-.40625-.25v-1.46875zm11.25.09375 7.84375,5.3125-.875.375-8.03125-5.53125 1.0625-.15625zm66.5.1875-.09375,3.5625-1.4375.5625c.0296-.78504.14027-2.66121.15625-3.5l1.375-.625zm30.71875.1875v1.46875l-66.21875,26.125v-1.53125l66.21875-26.0625zm-98.5.15625 7.875,5.625-.03125,9-7.8125-5.71875v-1.25l-.65625-.3125-.03125-1.15625 .6875.28125-.03125-4.125-.6875-.40625v-1.15625l.6875.09375v-.875zm65.875.46875c-.02415,1.13659-.09054,3.41427-.09375,3.5l-1.375.53125v-3.53125l1.46875-.5zm-3.90625.15625 .03125,1.5-3.1875,1.28125v-1.53125l3.15625-1.25zm12.125.4375v1.40625l-2.40625.90625v-1.40625l2.40625-.90625zm-15.6875.15625-.15625,7.375-8.75,3.1875 .0625-7 8.84375-3.5625zm-67.71875.1875c.90629.51968 1.87074,1.04312 2.875,1.59375-1.27353.61369-2.65872,1.11031-4.09375,1.5625-.87953-.63835-1.75381-1.2629-2.625-1.90625 1.28573-.39279 2.57792-.82238 3.84375-1.25zm9.96875.1875 .15625,6.96875 6.46875,4.75-.15625-7.1875-6.46875-4.53125zm97.84375,0v1.6875l-2.65625,1.03125-.78125-.46875-52.03125,20.09375v1.21875l-10.65625,4.21875-.09375-.125v-1.59375l66.21875-26.0625zm-97.53125.4375 5.84375,4.28125 .03125,1.25-5.84375-4.1875-.03125-1.34375zm61.03125.3125v1.53125l-3.1875,1.21875v-1.46875l3.1875-1.28125zm-75.625.4375c.87139.63205 1.74803,1.28868 2.625,1.9375-1.62254.49776-3.29594.95875-4.90625,1.46875l-3-2.15625c1.81932-.29498 3.5819-.74506 5.28125-1.25zm70.78125.1875-6.59375,2.625v4.9375l6.5-2.5625 .09375-5zm-63.1875.25c.05696.03114.13061.06268.1875.09375 1.4787.80764 3.03572,1.52779 4.09375,2.1875l.0625.03125 .5625.53125-.40625.09375-.15625-.0625-.4375-.46875-.125.59375-.40625-.15625v.4375l-.5625-.25 .125.6875-.71875-.375-.15625.53125-.34375-.3125-.25.34375-.4375-.15625-.1875.28125-.3125-.34375-.34375.5-.34375-.15625-.15625.21875c-1.31816-.87114-2.61837-1.74819-3.875-2.65625 1.42028-.50076 2.82691-1.02336 4.1875-1.59375zm104.53125.34375v2l-.40625.15625-1.96875-1.21875 2.375-.9375zm-41.875.21875v3.625l-1.6875.65625v-3.53125l1.6875-.75zm-55.59375.03125 5.8125,4.15625 .03125,1.34375-5.8125-4.1875-.03125-1.3125zm60.96875.28125v1.4375l-3.1875,1.25v-1.4375l3.1875-1.25zm-80.90625.0625 2.9375,2.25c.69041,2.35914.0406,4.76656-.09375,7.15625-.94744-.75045-1.39864-1.63281-2.8125-2.25 .02139-.2148.03813-.39998.0625-.625l-.125-.03125c.0821-2.17486.29357-4.35687.03125-6.5zm113.6875.4375c-.06402.3866-.06116,1.10561-.1875,1.15625-2.13104.85416-4.69923,1.89717-6.84375,2.71875-3.11027,1.1922-5.87597,2.82528-9.0625,4.09375l-6.375,1.90625-7.84375,2.84375-10.96875,4.6875-7.71875,2.6875-1.28125-.46875 50.28125-19.625zm.34375,0 3.40625,2.09375-1.90625.75-1.65625-1.59375 .15625-1.25zm-78.84375.125 10.90625,7.90625-1.25.5-5.3125-3.875v-.28125l-4.34375-4.25zm38.25.03125-.0625,3.53125-1.4375.5625c.0296-.78504.14027-2.66121.15625-3.5l1.34375-.59375zm-45.0625.28125 .03125.40625-.78125.28125-.25,9.0625-.15625.09375 .125-9.46875 1.03125-.375zm.78125.5 7.96875,5.71875-.78125.625-8.375-5.90625 1.1875-.4375zm42.40625,0c-.02415,1.13659-.09054,3.41427-.09375,3.5l-1.375.53125v-3.53125l1.46875-.5zm-51.59375.0625 5.84375,4.15625 .03125,1.375-5.84375-4.1875-.03125-1.34375zm60.96875.21875v1.375l-3.21875,1.28125v-1.40625l3.21875-1.25zm-13.28125.03125 .03125,1.5-3.78125,1.5-.03125-1.53125 3.78125-1.46875zm49.75,0v.125l-.125-.0625 .125-.0625zm-3.6875.15625 1.5625,1.53125-47.1875,18.4375-3-1.125 7.40625-2.6875 10.90625-4.6875 8.03125-2.875 6.28125-1.84375 9.21875-4.1875 6.78125-2.5625zm-96.6875.15625 .25.1875 .03125-.03125v.0625 .15625l-.28125-.375zm.3125.5625-.03125.15625v.28125l-.1875-.28125 .21875-.15625zm10.625,0 8.1875,5.71875 .03125,1.4375 .59375.28125v1.34375l-.625-.375 .0625,1.3125-1.09375.4375-.09375-4.4375-5.96875-4.21875-.0625,3.75v.0625l-.03125,2.96875 3.71875,2.78125-.8125.34375-4-2.78125 .09375-8.625zm35.3125.09375 .1875,7.21875-8.75,3.1875 .0625-7 8.5-3.40625zm54.71875.4375-2.84375,4.6875-49.15625,19.9375 2.4375-5.34375 49.5625-19.28125zm-100.6875.03125v.59375l-.1875-.28125 .1875-.3125zm2.6875.09375 5.84375,4.15625 .03125,1.0625-5.84375-4.25-.03125-.96875zm47.6875.15625v1.53125l-3.75,1.5-.03125-1.53125 3.78125-1.5zm-5.53125.8125-6.375,2.6875v4.9375l6.5625-2.6875-.1875-4.9375zm-32.71875.5625 5.09375,3.78125 .0625,1.34375-5.15625-3.71875v-1.40625zm32.5.09375-.09375,3.84375-1.6875.65625-.0625-3.625 1.84375-.875zm5.75.3125v1.40625l-3.71875,1.46875-.03125-1.40625 3.75-1.46875zm-28.15625.21875 5.0625,3.6875-1.3125.5-3.75-2.6875v-1.5zm-22.21875.125v.375l-.09375-.1875 .09375-.1875zm42.40625.34375-.03125,3.71875-1.4375.5625c.0296-.78504.07777-2.84871.09375-3.6875l1.375-.59375zm-61.78125.65625c.34244.00542.71716.12218 1.09375.25l.09375.0625h.09375c.12684.0453.24603.07783.375.125-.15052,2.59412-.2314,5.18424-.1875,7.78125-1.07154,1.13399-1.89607.86076-3,.125 .04886-2.67045.10738-5.1405.15625-7.625 .39622-.52604.86134-.72688 1.375-.71875zm31.5.09375 5.1875,3.75 .0625,1.15625-5.25-3.71875v-1.1875zm28.375.03125c-.02415,1.13659-.02804,3.60177-.03125,3.6875l-1.375.53125v-3.53125l1.40625-.6875zm9.90625.21875v1.40625l-3.71875,1.4375v-1.375l3.71875-1.46875zm-13.75.1875 .03125,1.5625-2.84375,1.09375v-1.53125l2.8125-1.125zm-14.4375.09375 3.5,2.53125-1.125.4375-2.40625-1.71875 .03125-1.25zm-2.3125.375v1.53125l-.5625.28125v-1.375l.5625-.4375zm-38.1875.0625c-.80841.53574-1.41051.2462-2.0625.15625l-.09375.3125c.58108.12793.72769.82067 2.0625-.03125l.09375-.4375zm50.03125.25c.62508.2634.7107.90154.3125,1.53125l-17.21875,6.71875c-1.16098-.25338-.63718-1.36611.03125-1.78125l16.875-6.46875zm-19.625.375 5.28125,3.75 .0625.90625-.46875.15625-4.84375-3.5-.03125-1.3125zm10.0625.4375 2.15625,1.5625-1.3125.5-.84375-.625v-1.4375zm14.5.15625v1.53125l-2.84375,1.125v-1.53125l2.84375-1.125zm-16.78125.53125v.4375l-.1875.125-.34375-.34375 .53125-.21875zm12.65625.09375 .46875.34375v1.53125l-1.625-1.15625 .96875-.375c.07268-.11059.13365-.22989.1875-.34375zm-20.40625.5 4.5,3.25-.875.34375-3.625-2.75v-.84375zm7.75.125v1.3125l-.15625.09375-.03125-1.34375 .1875-.0625zm11.25.1875 1.875,1.34375v1.375l-3.09375-2.25 1.21875-.46875zm-8.96875.125 .59375.4375-.59375.25v-.6875zm14.5.1875v1.46875l-2.84375,1.09375v-1.4375l2.84375-1.125zm-7.03125.25 3.375,2.46875v1.4375l-4.4375-3.1875v-.3125l1.0625-.40625zm-1.8125.71875-.03125,6.0625-11.46875,4.625 .125-6.34375 11.375-4.34375zm-8.5625.09375 .46875.03125 .15625-.03125v.3125l-.59375.21875-.03125-.53125zm9.3125.15625 4.46875,3.25v1.21875l-4.46875-3.21875v-1.25zm8.125.5v1.375l-2.875,1.125v-1.40625l2.875-1.09375zm56.375.53125c-.20877-.01455-.41379.0043-.625.03125-.5069.06467-1.03767.277-1.5625.65625v8.46875c1.5664,1.15512 2.36395,1.03329 3.75-.125-.04079-3.12535-.01197-5.2473.34375-8.53125-.65412-.23369-1.27994-.45635-1.90625-.5zm-.25.46875c.51367.00813 1.07588.22522 1.65625.4375-.15052,2.59412-.2314,5.18424-.1875,7.78125-1.07154,1.13399-1.89607.86076-3,.125 .04886-2.67045.10738-5.1405.15625-7.625 .39622-.52604.86133-.72688 1.375-.71875zm-64.25.03125 4.46875,3.25v1.40625l-4.4375-3.21875-.03125-1.4375zm65.34375,1.03125c-.80841.53574-1.41051.2462-2.0625.15625l-.09375.3125c.58108.12793.72769.82067 2.0625-.03125l.09375-.4375zm-72.46875.21875c-2.08781.31534-2.72862,3.15017-.78125,4.8125l-.53125.4375 .3125.3125 2.34375-.90625-.6875-.4375c-2.25708-1.41419-1.29132-2.91096-.5625-3.25 2.236-.54859 1.77615,1.58205 1.90625,2.75v.71875l2.59375-.96875-.21875-.3125-.9375.1875c-.09-1.18647-.209-2.51882-.90625-3-.87233-.60469-1.5734-.46978-2.53125-.34375zm-6.59375-.09375c.54452.21759.33063.79281.375,1.25l.125.03125c.62518-.48812.18039-.89928.0625-1.28125h-.5625zm13.75.5625 4.4375,3.21875v1.40625l-4.4375-3.21875v-1.40625zm-12.84375,1.125-.09375,5.875-.5-.3125v-5.34375l.59375-.21875zm12.84375.625 4.4375,3.21875 .03125,1.34375-4.65625-3.375 .1875-.0625v-1.125zm-.46875,1.28125 4.9375,3.59375v1.53125l-6.34375-4.59375 1.40625-.53125zm51.5.125c-.67406-.01722-1.36272.15058-2.0625.65625v8.46875c1.5664,1.15512 2.36395,1.03329 3.75-.125-.04079-3.12535-.01197-5.2473.34375-8.53125-.69772-.24927-1.35719-.45153-2.03125-.46875zm-.125.46875c.51366.00813 1.07588.19397 1.65625.40625-.15052,2.59412-.2314,5.18424-.1875,7.78125-1.07154,1.13399-1.89607.86076-3,.125 .04886-2.67045.10738-5.1405.15625-7.625 .39622-.52604.86134-.69563 1.375-.6875zm-53.03125.03125 6.59375,4.8125v1.03125l-2.21875-1.0625-5.8125-4.21875 1.4375-.5625zm-1.6875.65625 4.84375,3.53125-.6875-.34375-.0625-.03125 .0625-.03125-.4375-.25-.0625.03125-3.03125-1.75 .0625-.03125-.4375-.28125-.09375.03125-.4375-.25c-.15413-.12267-.34305-.23657-.53125-.34375l.8125-.28125zm-1,.34375c.30939.19118.61613.38886.96875.59375-1.33116.4726-2.6896.92696-4.09375,1.34375-.22053-.16281-.43558-.33565-.65625-.5l3.78125-1.4375zm56.8125,0c-.80841.53574-1.41051.2462-2.0625.15625l-.09375.3125c.58108.12793.72769.82067 2.0625-.03125l.09375-.4375zm-35.125.84375 4.71875,1.875-2.40625,5.65625-2.40625-1 .09375-6.53125zm-20.25.03125c.98123.56265 2.0377,1.12259 3.125,1.71875-1.37883.66443-2.88381,1.22917-4.4375,1.71875-.95225-.69113-1.90053-1.3972-2.84375-2.09375 1.39205-.42527 2.78575-.88077 4.15625-1.34375zm19.40625.6875v2.0625l-10.78125,4.25v-1.78125l.375-.125-.15625-.25 10.5625-4.15625zm-24.09375.8125c.94344.68432 1.89426,1.39128 2.84375,2.09375-1.7567.53892-3.53779,1.04158-5.28125,1.59375l-3.25-2.34375c1.96975-.31938 3.84764-.79706 5.6875-1.34375zm8.25.46875 .1875.09375c1.60097.87442 3.29199,1.66074 4.4375,2.375l.0625.03125 .625.59375-.4375.09375-.1875-.0625-.46875-.53125-.125.65625-.46875-.1875v.5l-.59375-.28125 .125.75-.78125-.40625-.15625.5625-.375-.34375-.28125.375-.46875-.15625-.1875.3125-.34375-.375-.375.53125-.375-.15625-.15625.21875c-1.42715-.94318-2.82696-1.89186-4.1875-2.875 1.53772-.54217 3.05815-1.10119 4.53125-1.71875zm-13.96875,1 3.1875,2.4375c.7475,2.55421.05171,5.16272-.09375,7.75-1.05208-.83333-1.88479-1.77635-3.15625-2.5 .06142-2.56511.37233-5.15614.0625-7.6875zm29.8125,0 .03125,1.9375-10.8125,4.28125v-1l.15625-.0625-.15625-.25v-.65625l10.78125-4.25zm21.15625.375c-.67406-.01722-1.33147.18183-2.03125.6875v8.46875c1.56639,1.15512 2.36395,1.03329 3.75-.125-.04079-3.12535-.01197-5.2473.34375-8.53125-.69773-.24927-1.38844-.48278-2.0625-.5zm-.09375.46875c.51366.00813 1.07588.22522 1.65625.4375-.15052,2.59412-.2314,5.18424-.1875,7.78125-1.07155,1.13399-1.89607.86076-3,.125 .04885-2.67045.10738-5.1405.15625-7.625 .39622-.52604.86134-.72688 1.375-.71875zm-41.96875.0625c1.3048.97025 2.62344,1.97071 3.96875,3.0625l-.03125.0625-.34375-.09375-.28125.53125-.375-.09375-.15625.34375-.46875-.28125-.34375.59375-.34375-.03125-.09375.78125-.59375-.625-.1875.34375-.4375-.125-.0625.59375-.5625-.28125 .03125,1.03125-.625-1.0625-4.125-3 5.03125-1.75zm43.0625,1c-.80842.53574-1.41051.2462-2.0625.15625l-.09375.3125c.58108.12793.72769.82067 2.0625-.03125l.09375-.4375zm-22.125.28125 .03125.59375-10.84375,4.21875v-.53125l10.8125-4.28125zm-26.0625.65625 3.84375,2.9375-.15625.46875 .34375.5625-.25.3125 .1875.65625-.1875.4375 .40625.625-.53125.21875 .53125.90625-.59375.0625 .375.78125-.4375.1875 .3125.78125-.375.1875 .3125.6875-.375.28125 .125.5-.40625-.3125-3.3125-2.53125c.06542-2.58782.49078-5.29625.1875-7.75zm33.15625,2.71875c-.67406-.01723-1.33147.15058-2.03125.65625v8.46875c1.5664,1.15512 2.36395,1.03329 3.75-.125-.04078-3.12535-.01197-5.2473.34375-8.53125-.69772-.24927-1.38844-.45152-2.0625-.46875zm-39.84375.25c.51367.00813 1.07588.19397 1.65625.40625-.15052,2.59412-.2314,5.18424-.1875,7.78125-1.07154,1.13399-1.89607.86076-3,.125 .04886-2.67045.10738-5.1405.15625-7.625 .39622-.52604.86133-.69563 1.375-.6875zm39.75.21875c.51366.00813 1.07588.19397 1.65625.40625-.15052,2.59412-.2314,5.18424-.1875,7.78125-1.07154,1.13399-1.89607.86076-3,.125 .04886-2.67045.10738-5.1405.15625-7.625 .39622-.52603.86134-.69563 1.375-.6875zm-38.65625.8125c-.80841.53574-1.41051.2462-2.0625.15625l-.09375.3125c.58108.12793.72769.82067 2.0625-.03125l.09375-.4375zm39.75.21875c-.80841.53574-1.41051.2462-2.0625.15625l-.09375.3125c.58108.12793.72769.82067 2.0625-.03125l.09375-.4375z" fill-rule="evenodd"/>
</svg>
