<?xml version="1.0" encoding="UTF-8"?>
<svg viewBox="0 0 128 128" xmlns="http://www.w3.org/2000/svg" xmlns:xlink="http://www.w3.org/1999/xlink">
 <defs>
  <filter id="o">
   <feGaussianBlur stdDeviation="1.93215"/>
  </filter>
  <linearGradient id="a">
   <stop stop-color="#b49900" offset="0"/>
   <stop stop-color="#ffda0a" offset=".5"/>
   <stop stop-color="#c6a800" offset="1"/>
  </linearGradient>
  <linearGradient id="b">
   <stop stop-color="#b1b1b1" offset="0"/>
   <stop stop-color="#e4e4e4" offset="1"/>
  </linearGradient>
  <linearGradient id="n" x1="44.643" x2="46.111" y1="110.23" y2="108.52" gradientUnits="userSpaceOnUse" xlink:href="#b"/>
  <linearGradient id="m" x1="65.609" x2="87.83" y1="117.85" y2="106.84" gradientUnits="userSpaceOnUse" xlink:href="#b"/>
  <linearGradient id="l" x1="43.848" x2="56.752" y1="101.12" y2="84.977" gradientUnits="userSpaceOnUse" xlink:href="#b"/>
  <linearGradient id="k" x1="61.022" x2="80.919" y1="110.63" y2="76.324" gradientUnits="userSpaceOnUse" xlink:href="#b"/>
  <linearGradient id="j" x1="56.079" x2="85.006" y1="117.33" y2="104.91" gradientUnits="userSpaceOnUse" xlink:href="#b"/>
  <linearGradient id="i" x1="46.967" x2="78.768" y1="70.239" y2="73.358" gradientUnits="userSpaceOnUse" xlink:href="#b"/>
  <linearGradient id="h" x1="52.843" x2="69.535" y1="47.395" y2="44.324" gradientUnits="userSpaceOnUse" xlink:href="#a"/>
  <linearGradient id="g" x1="66.382" x2="75.691" y1="62.176" y2="48.338" gradientUnits="userSpaceOnUse" xlink:href="#a"/>
  <linearGradient id="f" x1="34.271" x2="43.368" y1="37.669" y2="33.345" gradientUnits="userSpaceOnUse" xlink:href="#a"/>
  <linearGradient id="e" x1="64.346" x2="55.697" y1="21.103" y2="33.5" gradientUnits="userSpaceOnUse" xlink:href="#a"/>
  <linearGradient id="d" x1="23.914" x2="38.746" y1="-16.908" y2="34.768" gradientUnits="userSpaceOnUse" xlink:href="#a"/>
  <linearGradient id="c" x1="50.028" x2="101.38" y1="72.801" y2="31.524" gradientUnits="userSpaceOnUse" xlink:href="#a"/>
 </defs>
 <path d="m10.371 46.277c0.61516 1.764 0.71025 3.6068 1.6434 5.3226 3.5894 4.0566 7.4347 8.171 10.865 12.191-1.052 0.02571-2.5371 0.86073-2.528 1.8123-0.85411 1.1587 1.2962 1.1094 2.6256 1.3147 0.26102 0.52061-0.23868 1.8309 0.47619 2.7334 0.68869 0.83166 1.6945 2.3919 2.9463 1.245 1.217-0.62498 2.4897-1.1433 4.2659-0.69566 2.4618 0.27722 5.0602 0.41416 7.4336 0.94438 2.1525 1.2572 4.6106 2.355 5.8192 4.1043 1.2062 0.92058 1.5983 1.8926 1.1127 2.92 1.3268 0.73724 0.82928 1.9956 1.0708 3.0036-0.14979 0.97909 0.79199 2.2576 0.38448 3.059-4.0828 1.1107-9.8507 4.1792-13.991 5.219 1.094 5.7831 2.1881 5.6851 3.2821 11.468-1.9847 0.7082-1.0013 0.75298-3.036 1.4098 4.54 6.6206 16.437 15.344 23.898 19.279 6.708-4.1063 28.874-9.7939 32.972-15.418-0.79272-2.3388-7.0419 2.383-9.3438 0.35557-1.5137-5.3987-3.0486-10.797-4.5744-16.195-3.3041-1.6805-6.6189-3.3512-9.9275-5.0276-0.37226-2.6048 1.8542-4.8234 1.191-7.4672-0.22128-3.4485-1.6784-6.9689-3.7619-10.315-1.8322 1.1113-3.8219 2.4263-6.4446 2.9053 0.20857-1.0114 0.68803-2.0224-0.39166-3.0361-0.46533-1.3642-2.6745-1.9061-4.4975-2.0945-2.9754-0.56531 1.5187-1.2891-0.12254-1.9835-2.7868-1.1534 0.00175-1.023-0.39449-1.9166-0.93866-0.9614-1.5925-1.9119-0.9064-2.8868 0.593-1.621-0.03326-3.467-1.5235-5.0335-1.2806-1.815 0.07064 0.62826-0.41657 1.2429-0.30806 1.0041-0.51127 2.0375-1.2081 2.9332-1.4495-0.75088-2.8192-0.99202-4.1397-0.32968-1.1688 0.81232-2.337 1.4419-3.4968-0.03892-1.7765-1.3279-3.0515-2.884-4.6152-4.3087 1.0872 2.1418 0.51081 4.5124 2.8793 6.4206 0.57273 0.91466 3.3673 1.3794 2.7643 2.3747-0.32123 1.0504 0.55293 1.8522 1.0138 2.7968 1.1765 1.3993-0.10557 1.662-1.9878 1.6473-2.0493-0.12628-2.5465 1.5826-4.368 1.6579-1.9718-0.72457-3.7351-1.6432-5.3509-2.6992 0.33911-0.81886 1.5519-2.2265-0.26446-2.697-1.2538-0.29506-3.0388 1.0078-3.4994-0.28837-2.9071-4.1172-6.0877-8.1846-8.1944-12.448l-7.6593-3.4822z" fill-opacity=".70588" fill-rule="evenodd" filter="url(#o)"/>
 <path d="m42.503 70.208 15.228 14.127 25.135-10.152-14.677-12.904-13.393 3.9751-12.292 4.9536z" fill="url(#i)" fill-rule="evenodd"/>
 <path d="m35.653 99.441 21.404 19.325 33.758-13.148-9.846-9.9071-38.161 0.30578-7.1552 3.4247z" fill="url(#j)" fill-rule="evenodd"/>
 <path d="m42.136 70.025-0.42809 30.578 15.962 13.515 0.06115-29.844-15.595-14.249z" fill="url(#l)" fill-rule="evenodd"/>
 <path d="m35.103 99.563-0.30578 2.2627 22.138 19.998 0.48924-0.24462-0.36693-2.8743-21.955-19.142z" fill="url(#n)" fill-rule="evenodd"/>
 <path d="m70.062 63.125-7 2.1875-7.625 13.125-0.6875 2.4375 2.9375 3.7188 25.25-10.469-12.875-11zm13.75 35.812 0.34375 5.5312-26.469 9.6875-0.6875 4.9375 34.062-13.5-7.25-6.6562z" fill="#fff" fill-opacity=".12549" fill-rule="evenodd"/>
 <path d="m55.331 78.326-3.2704-2.2981-2.0329-2.74 0.08839-2.2097 2.5633-2.8284 2.8284-0.97227 8.8388-0.53033 2.5633 0.35355 5.8336 1.0607 2.2981 0.97227 1.4142 3.2704-2.0329 3.2704-4.4194 2.2097-5.5685 0.97227-3.4471-0.08839-5.6568-0.44194z" fill="url(#c)" fill-rule="evenodd"/>
 <path d="m28.195 7.5243 0.17297 7.6108 8.3027 18.941-2.4216 1.2108-0.95135 2.6811 3.027 0.86486-0.69189 1.5568 0.17297 2.854 1.2973 2.4216 3.7189-2.1622 5.1027 0.77838 3.9784 0.77838 3.8054 3.8054 2.2486 4.7568-0.60541 2.4216 0.69189 0.69189-0.17297 2.4216-0.25946 2.5081 0.08649 5.5351c0.16469 2.4021-1.7794 3.9906-3.2285 5.4706l2.7961 5.5132 1.3838 2.4216 1.5568 0.51892 1.8162-0.69189 0.95135-1.5568-1.5635-7.34 3.1601-0.95516 5.9381 4.4403c1.4238-0.35814 2.7068 0.55049 4.3414-1.705l-0.68809-2.4396c-2.8074-2.9298-5.6881-2.8314-8.8188-2.4444l1.0037-1.6642 0.77838-1.6432 1.9892-1.2973 3.8919 1.5568 3.2865 2.9405 0.34595-3.6324 2.4216-6.4 0.43243-3.9784v-6.1405l-0.95135-6.573-0.51892-1.8162-1.8162 1.5568-2.9405 1.9027-2.4216 1.1243 0.86486-3.027-0.86486-3.1135-1.2973-1.2108-2.3351-0.6054-0.86487-0.43243-0.08649-0.6054 1.8162-1.3838-1.9027-2.2486 1.7297-0.51892-1.2108-3.027 1.2108-3.6324 0.08649-3.373-1.3838-3.9784v2.4216l-1.2973 3.6324-0.86486 1.5568-2.0757-1.2973-1.9892 0.77838-2.2486 1.6432-1.9027-2.5946-2.9405-5.6216 0.17297 2.0757v2.0757l0.17297 3.4595 1.2973 2.6811 2.3351 2.1622-0.51892 1.1243-0.08649 2.4216 0.43243 0.25946 0.34595 3.4595-3.8054 0.51892-2.9405 2.3351h-0.60541l-2.5081-1.7297-2.2486-2.4216 1.2973-3.4595-0.95135-0.60541-3.027 0.69189-4.1514-13.146-1.4703-6.8324-6.8324-5.2757z" fill="url(#h)" fill-rule="evenodd"/>
 <path d="m42.378 70.141 13.8-5.069c-1.096 0.59837-0.24 1.0929-0.77415 2.2397-0.03373 2.7471-2.0177 4.3579-2.6425 5.6172 0.87236 1.9987 0.92253 2.9438 2.359 5.1304 0.50327 0.76611-0.84947 2.3412-0.45703 3.1958 0.59001 1.2848 2.8667 1.9787 3.109 3.1562l-0.08649 29.838-0.77838 4.7568 0.17297 2.7676-22.054-19.805 0.08649-2.2486 6.4865-3.2865 0.77838-26.292z" fill-opacity=".15686" fill-rule="evenodd"/>
 <path d="m51.5625,18.5v6l2.0625,4.125 1.6875,1.875-.5625,3 2.875-1.4375 3.8125-.3125 4.375-.6875-1.0625-2.9375-1.6875-2.4375-2.1875-1.5h-2.125l-1.6875,1.25-.875,1-1.5625-1.9375-1.5625-3.1875-1.5-2.8125z" fill="url(#e)" fill-rule="evenodd"/>
 <path d="m42.6875,32.09375-1.59375.5-.5625.125 .25,1.21875-.65625,1.15625-.9375.5625-1.28125-.25-.78125-.3125-.625-1.21875-2.0625,1.34375-.9375,1.90625-.09375,1.15625 3.78125.8125 2.375-.0625 1.78125-.6875 1.65625-1.34375 1.40625-2.875-.0625-1.46875-1.65625-.5625z" fill="url(#f)" fill-rule="evenodd"/>
 <path d="m75.719 40-2.5312 2.125-3.1562 1.7812-5.1562 1.2188-2.125 0.3125 1.0312 10.344-0.5 6.5312 3.6875 1.5312 5.0625 2.2812 2.4062 2.3125-0.125-2.5 2.4375-7.0938 0.84375-5.3438v-3.5938l-0.71875-6.6562-1.1562-3.25z" fill="url(#g)" fill-rule="evenodd"/>
 <path d="m57.18 118.77v2.9354l34.063-13.821 0.06115-2.3239-34.125 13.21z" fill="url(#m)" fill-rule="evenodd"/>
 <path d="m57.486 114.12 0.36693-29.599 25.441-10.396 0.73386 30.455-26.541 9.5402z" fill="url(#k)" fill-rule="evenodd"/>
 <path d="m28.108 7.4383 0.44194 7.8666 8.7504 19.799 1.4142 0.70711 0.70711-0.26516 1.3258-1.5026s-5.2149-20.683-5.7452-21.302-6.8059-5.2149-6.8943-5.3033z" fill="url(#d)" fill-rule="evenodd"/>
 <path d="m28.062 6.8125 0.09375 8.5625 8.1562 18.406c-3.1137 1.5697-3.3221 3.083-3.3438 4.6562 1.1098 0.35505 2.091 0.54441 3 0.6875-1.3293 1.9583-0.47197 4.2727 0.9375 6.6875 1.6843 0.04754 3.407-1.7257 4-2.2188l8.5 1.7188c2.7622 1.7305 5.4417 4.3633 6.0938 8.625 0.32255 0.55751-0.44514 2.0145-0.5 2.6562l0.6875 0.1875 0.03125 2.0312c-0.43061 1.9571-0.29118 3.9996-0.34375 6.0312l-13.406 5.3438-0.65625 26.25c-2.1116 1.1539-4.4158 2.1995-6.5625 3.125l-0.09375 2.3125 22.094 20.219 34.75-13.969 0.125-2.5625-7.3438-6.6875-0.875-24.625-8.8125-7.7812c0.34666-2.8637 1.5556-5.4502 2.5625-8.0938 1.1303-6.4525 0.49336-12.729-1.0625-18.938-2.0145 1.9169-4.3278 3.7112-6.8125 4.5938 1.3188-3.4617 0.79773-6.7408-3.6875-7.6875-0.04285-0.27981-1.1293-0.42211-1.1562-0.71875-0.09788-0.43983 2.1069-1.2469 2-1.6875-0.17395-0.71681-1.6382-1.1914-1.8125-1.9062 0.1585-0.61748 1.6226-0.52284 1.5625-1.0312-0.13772-1.1654-0.64572-2.0815-1.1875-2.9062 1.7131-3.8716 1.8128-8.0292-0.59375-11.438 0.43162 2.7513-0.38268 5.1051-1.9375 7.8125-1.9445-1.7243-4.222-0.99141-6.2812 1.4688-2.1839-2.5043-3.3305-6.5522-5.4688-9.125 1.8178 4.3294-1.393 9.7069 4.0938 13.25l-0.5 3.5938 0.40625 0.53125c0.09279 1.0117 0.21643 2.0146 0.375 3-2.4382 0.87899-4.2564-0.17207-6.75 2.9688-1.5986-0.29805-3.2586-2.5142-4.4375-4.1562 0.77167-1.5626 0.79604-3.1593 0.84375-3.5 0.3058-0.36906-2.6439-1.0305-4.2188 0.09375l-5.3438-19.969-7.125-5.8125zm1.0625 1.8125 5.4062 4.4688 5.875 20.75c-0.56835 1.6575-1.1459 2.0582-2.9062 1.2188l-8.625-19.719-0.09375-6.625 9.7812 24.656-9.4375-24.75zm35.688 9.6562c1.3062 2.9648 1.3441 5.5661-0.375 8.9375-0.14544-0.23012-0.29999-0.46429-0.40625-0.6875-0.31634-0.58542-0.62356-1.091-0.96875-1.5 0.51256-1.5909 1.8506-3.6898 1.75-6.75zm-13.062 1.375c2.5516 3.2008 2.6775 8.5482 7.6562 8.5938-0.05216 0.86694 0.39206 1.8005-2.0625 2.1562-4.3893 0.17289-6.2561-7.5415-5.5938-10.75zm7.6875 4.5625c0.15422-0.01746 0.3134-0.01125 0.46875 0 1.3256 0.09605 2.6513 1.2349 3.5312 2.5625 0.97109 1.5768 1.7738 2.3144 1.9688 4.1562l-8.0312 0.96875-2.5625 1.4688c-0.02422-0.90041 0.46629-2.0421 0.65625-2.9062 0.39697 0.21838 0.80383 0.45511 1.2812 0.65625 2.4073-0.22164 3.8422-1.0372 3.5625-2.9688-1.577-0.12244-2.7602-0.84049-3.75-1.8438 0.76959-1.1609 1.7954-1.9716 2.875-2.0938zm4.3125 7.4062c-0.14596 0.57241 1.4178 1.7168 1.5625 2.5625 0.08089 0.47279-1.31 0.84175-1.3125 0.96875 0.1629 0.87258 0.59191 1.8264 0.78125 2.4375l-3.7812 1-5.5-2.875c-0.07427-0.42269-0.1405-0.85783-0.1875-1.2812 0.50106-1.114 1.3016-1.9837 2.9375-2.125l5.5-0.6875zm-21.094 0.84375c1.1127-0.08389 1.941 0.28006 1.25 1.0938-1.26 7.527-8.3012 4.8942-9.9375 4.4062-0.53645-1.7889 1.4716-2.7948 2.5312-3.7188l0.5 1.0938c3.5354 1.3787 3.264-0.45799 3.9062-1.4062l-0.21875-0.875c0.61372-0.34297 1.3312-0.54568 1.9688-0.59375zm12.938 3.75c2.4467 0.86487 4.3898 4.2125 9.4688 1.6562 0.38847 1.4746 0.13561 3.1963-2.9688 4.125-1.7058 1.1079-4.2888-0.5797-5.8438-3.125-0.23581-0.87171-0.47803-1.7509-0.65625-2.6562zm-12.031 0.375c1.9343 3.3077 5.6371 4.6158 8.9688 5.8125 0.15398 1.1599 1.5483 2.8335-1.7188 2.625l-9.3438-1.9375c1.4075-1.5124 0.92587-2.1675 0.96875-3.0625-0.43559 2.3831-2.9987 4.026-5.0625 5.2188-2.1013-1.3614-1.7132-4.6386-0.90625-6l-0.09375-0.0625c4.0325 0.52274 6.1188-0.89949 7.1875-2.5938zm22 0.125c2.409 0.09153 4.9688 1.5963 3.0312 7.2812-1.9994 0.65219-4.1092 0.80892-6.2188 1.2188 0.1853 3.1315 0.62973 6.3241 0.875 9.5-2.0697 1.3845-5.3569 2.3168-7.6875 1.5625l0.84375-2.5c-1.7552-2.8515-2.7373-6.1414-5.7812-8.1875l0.96875 0.15625c3.8466-0.83243 1.5897-2.1458 1.625-3.875-1.4262-0.41242-2.9094-0.7916-4.3125-1.3438 2.59-2.5758 3.948-2.1366 6.2812-2.75 0.06034 0.37931 0.13375 0.7743 0.1875 1.1562 2.3141 2.9747 4.8608 4.944 8.2812 2.8438 2.3511-1.227 2.1711-3.3688 1.9062-5.0625zm10.219 3.5312c1.9604 5.7362 2.157 12.076 0.9375 17.812-1.054 2.9463-3.0914 6.3708-2.625 9.9688-2.4321-3.588-7.396-3.9341-10.5-5.6875 1.0236-4.9414-0.08984-11.742-0.625-16.781 1.701-0.45461 3.938-0.58707 5.9375-1.1875 2.391-0.71801 4.9684-2.3069 6.875-4.125zm-3.75 4.875-3.3125 1.0625 0.5625 4.4062h0.3125l-0.5-4.1875 3.0312-1.0625-0.09375-0.21875zm-11.812 0.21875c-1.4641 1.8509-1.0261 3.7116-4.625 5.5625l0.46875-0.0625c3.581-0.76808 2.8624-3.5237 4.3125-5.4062l-0.15625-0.09375zm13.594 3.3125-0.375 0.03125 0.28125 2.4062 3.25-0.65625-0.1875-0.28125-2.75 0.625-0.21875-2.125zm-5.0625 2.625-4.0625 0.71875 0.1875 2.2188 0.3125-0.0625-0.28125-2.0625 3.8125-0.59375 0.03125-0.21875zm8 0.8125-3.0625 0.875 0.34375 3.25 0.4375-0.09375-0.375-2.9375 2.6875-0.8125-0.03125-0.28125zm-13.438 3.25c0.16401 2.4009 0.19713 4.8099-0.09375 7.125 0.85018 0.42979 2.201 0.94206 3.0625 1.2812-2.3235 0.83353-2.146 3.2196-3.0312 4.875 5.1265-0.33821 9.1062 0.61043 9.0625 4.2188 0.07698 1.9496-2.5476 1.6724-3.5625 1.875l-6.2188-4.4062-0.375 0.09375c1.0519-3.8065 0.33861-7.4294-0.96875-11l-0.09375 0.1875c1.1728 3.8287 1.4474 7.5076 0.4375 11.094l-2.4062 0.46875 1.1562 7.0625c0.8466 0.99162-1.9918 3.6988-3.7812 1.75l-3.625-7.3125c5.2079-4.4819 2.2113-8.9556 3.3125-13.438v-0.09375l0.09375-2.3125c2.0686 0.76312 5.0579-0.78851 7.0312-1.4688zm7.4688 0.6875-2.75 0.46875 0.09375 0.21875 2.25-0.4375 0.53125 4.9062 0.4375 0.03125-0.5625-5.1875zm-3.5312 8.125c2.479 0.96008 4.9459 2.016 7.25 4.375-0.01771-0.4348-0.02593-0.86099 0-1.2812l7.9062 6.8438-24.344 9.7188-15.219-13.594 12.469-4.9062c-0.02179 0.39735-0.04628 1.1718-0.09375 1.5625-3.217 1.2948-5.3716 2.367-5.6875 6 0.44655 2.2314 2.6813 3.827 5.2812 5.375l0.0625-0.09375 1.125 2.5625c1.2749 0.9641 3.5926 1.4756 5.375-1.375 3.5553-0.26943 6.9395-0.36174 9.5-1.4062 4.4136-1.7601 7.6141-4.6986 4.1875-8.9062-1.8077-1.328-5.8217-1.6968-10.531-2.3438 0.31898-1.1472 1.2852-2.3419 2.7188-2.5312zm-2.25 2.7188c4.739 0.65151 8.2419 1.4463 9.7188 2.5312 3.5448 3.2622-1.1039 6.8875-4.0312 8.125-2.315 0.94438-6.441 0.74977-9.75 0.96875l-1.0312-6.9062 2.3438-0.875 6.1875 4.75c3.177-0.42894 5.003-1.3792 5-3.0312-3.6189-5.2849-7.331-4.4461-10-4.0312 0.17987-0.44094 1.4348-1.0447 1.5625-1.5312zm-9.875 0.59375c-0.31073 1.8532-1.012 3.593-2.7812 5.0938l2.1875 4.875c-2.2897-1.4838-4.152-3.5421-4.4062-4.8125 0.20529-2.7372 3.0138-4.2351 5-5.1562zm-12.625 3 14.781 14.406-0.03125 26.969-2.125-3.2812-0.46875-4.2188-2.25-2.875 3.0312-6.6562-3.0938 5.5625-0.875-3.0625-0.125 0.0625 0.53125 3.8438-0.09375 0.1875 2.5 3.0312 0.03125 3.6562-2.625-1.4688-3.9062-5.7188-0.15625 0.03125 3.4375 5.6562 0.03125 0.03125 0.03125 0.0625 3.5312 2.0625 1.75 3.9062-14-12.156 2.3125-1.7188 2.2188-1.1562-0.15625-0.0625-2.0625 0.71875-0.0625-3.2812 0.125-0.125v-0.03125l1.375-1.7188-1.4688 1.2812-0.96875-4.7812-0.125-0.03125 0.6875 5.1562-0.09375 0.09375 0.0625 3.625-2.0938 1.125 0.34375-29.125zm3.6562 22.656 0.15625-0.15625v-0.0625l-0.15625 0.21875zm36.844-18.594 0.65625 28.875-4.8125-2.0625 0.875-3.875 2.4062-2.0625-2.7188-2.7812-0.1875-0.125 2.2188 2.9688-2.0625 1.4688-3.2812-0.96875 0.25-1.625-2.0938-2.3125 1.6875 2.5312-0.40625 1.0625-3.875-2.5938 0.0625 0.21875 3.9688 3.0312 3.5 1-0.71875 3.5-2.1562 0.84375v0.125l2.0938-0.15625 4.875 2.9375-24.719 9.0312 1.0312-2.2188 8.0312-2.375 0.0625-0.125-3.4062 0.8125 0.75-2.625-0.0625-0.1875-1.0312 2.8438-4.4375 1.1562-0.53125-2.8125 3.0312-2.4062 2.0312-1.9375 2.1562 1.0312 0.0625-0.09375c0.96916 0.53557 2.25 1.4375 2.25 1.4375l0.125-0.21875s-1.2634-1.2265-2.125-1.6875l0.96875-1.8125 2.75 0.90625 0.09375-0.03125-3-1.3125-1.4375 2.1875-1.5-0.8125 0.1875-3.2812 2.4062-1-2.7188 0.6875-0.1875 3.3438-2.4062 1.7812-2.0625-5 1.6875-3.6562-1.4375-3.0312 1 3.0938-1.6562 3.6562 2.2812 5.5312-3.125 2.5625 0.875 3.2812-1.3125 1.875 0.125-28.312 24.969-10.281zm-41.688 22.594-0.09375 3.5625 16.344 14 26.906-9.875-0.0625-5.3125 5.8125 6.0938-33.188 12.875-21-18.75 5.2812-2.5938zm-5.9375 2.6562 21.438 19.312 0.25 2.2188-21.75-19.344 0.0625-2.1875zm55.562 6.1875-0.125 1.7188-33.406 13.375-0.09375-1.9062 33.625-13.188z" fill-rule="evenodd"/>
</svg>
