<?xml version="1.0" encoding="UTF-8"?>
<svg viewBox="0 0 128 128" xmlns="http://www.w3.org/2000/svg" xmlns:xlink="http://www.w3.org/1999/xlink">
 <defs>
  <filter id="ci">
   <feGaussianBlur stdDeviation="1.36734"/>
  </filter>
  <linearGradient id="c">
   <stop stop-color="#b1b1b1" offset="0"/>
   <stop stop-color="#e4e4e4" offset="1"/>
  </linearGradient>
  <linearGradient id="a">
   <stop stop-color="#6a3c1d" offset="0"/>
   <stop stop-color="#8f5127" offset="1"/>
  </linearGradient>
  <linearGradient id="d">
   <stop stop-color="#1a1a1a" offset="0"/>
   <stop stop-color="#2b2b2b" offset="1"/>
  </linearGradient>
  <linearGradient id="e">
   <stop stop-color="#bb8f56" offset="0"/>
   <stop stop-color="#d1af63" offset="1"/>
  </linearGradient>
  <linearGradient id="b">
   <stop stop-color="#cf8d00" offset="0"/>
   <stop stop-color="#cea33e" offset="1"/>
  </linearGradient>
  <linearGradient id="u" x1="94.461" x2="100.56" y1="86.542" y2="81.902" gradientUnits="userSpaceOnUse">
   <stop stop-color="#c2a05c" offset="0"/>
   <stop stop-color="#d6be91" offset="1"/>
  </linearGradient>
  <linearGradient id="ch" x1="12.066" x2="12.647" y1="73.775" y2="76.466" gradientUnits="userSpaceOnUse" xlink:href="#c"/>
  <linearGradient id="cg" x1="11.821" x2="16.729" y1="67.752" y2="76.894" gradientUnits="userSpaceOnUse" xlink:href="#a"/>
  <linearGradient id="cf" x1="7.6627" x2="8.2437" y1="57.355" y2="57.386" gradientUnits="userSpaceOnUse" xlink:href="#a"/>
  <linearGradient id="ce" x1="10.843" x2="11.087" y1="60.474" y2="60.994" gradientUnits="userSpaceOnUse" xlink:href="#a"/>
  <linearGradient id="cd" x1="8.58" x2="9.4056" y1="58.655" y2="58.471" gradientUnits="userSpaceOnUse" xlink:href="#a"/>
  <linearGradient id="cc" x1="13.686" x2="14.084" y1="67.69" y2="67.14" gradientUnits="userSpaceOnUse" xlink:href="#a"/>
  <linearGradient id="cb" x1="15.429" x2="21.82" y1="60.78" y2="73.561" gradientUnits="userSpaceOnUse" xlink:href="#a"/>
  <linearGradient id="ca" x1="11.607" x2="12.739" y1="63.96" y2="65.489" gradientUnits="userSpaceOnUse" xlink:href="#a"/>
  <linearGradient id="bz" x1="24.664" x2="25.703" gradientUnits="userSpaceOnUse" xlink:href="#a"/>
  <linearGradient id="by" x1="26.101" x2="27.049" gradientUnits="userSpaceOnUse" xlink:href="#a"/>
  <linearGradient id="bx" x1="32.614" x2="44.692" y1="79.86" y2="68.73" gradientUnits="userSpaceOnUse" xlink:href="#a"/>
  <linearGradient id="bw" x1="33.348" x2="33.501" y1="72.797" y2="73.133" gradientUnits="userSpaceOnUse" xlink:href="#a"/>
  <linearGradient id="bv" x1="46.404" x2="49.401" y1="71.054" y2="75.304" gradientUnits="userSpaceOnUse" xlink:href="#a"/>
  <linearGradient id="bu" x1="47.475" x2="47.597" y1="74.418" y2="74.754" gradientUnits="userSpaceOnUse" xlink:href="#a"/>
  <linearGradient id="bt" x1="57.718" x2="57.382" y1="72.644" y2="71.818" gradientUnits="userSpaceOnUse" xlink:href="#c"/>
  <linearGradient id="bs" x1="47.383" x2="46.771" y1="78.301" y2="76.497" gradientUnits="userSpaceOnUse" xlink:href="#c"/>
  <linearGradient id="br" x1="51.932" x2="51.587" y1="77.842" y2="76.933" gradientUnits="userSpaceOnUse" xlink:href="#c"/>
  <linearGradient id="bq" x1="41.451" x2="42.491" y1="79.555" y2="81.022" gradientUnits="userSpaceOnUse" xlink:href="#c"/>
  <linearGradient id="bp" x1="45.838" x2="59.849" y1="66.076" y2="53.103" gradientUnits="userSpaceOnUse" xlink:href="#a"/>
  <linearGradient id="bo" x1="19.065" x2="25.031" y1="50.701" y2="64.136" gradientUnits="userSpaceOnUse" xlink:href="#b"/>
  <linearGradient id="bn" x1="34.356" x2="33.738" y1="43.364" y2="41.685" gradientUnits="userSpaceOnUse" xlink:href="#b"/>
  <linearGradient id="bm" x1="37.016" x2="64.865" y1="58.638" y2="33.557" gradientUnits="userSpaceOnUse" xlink:href="#b"/>
  <linearGradient id="bl" x1="50.43" x2="51.086" gradientUnits="userSpaceOnUse" xlink:href="#a"/>
  <linearGradient id="bk" x1="59.836" x2="59.68" y1="62.767" y2="62.298" gradientUnits="userSpaceOnUse" xlink:href="#a"/>
  <linearGradient id="bj" x1="50.586" x2="65.43" y1="72.985" y2="62.235" gradientUnits="userSpaceOnUse" xlink:href="#a"/>
  <linearGradient id="bi" x1="67.68" x2="68.742" gradientUnits="userSpaceOnUse" xlink:href="#a"/>
  <linearGradient id="bh" x1="69.148" x2="70.273" gradientUnits="userSpaceOnUse" xlink:href="#a"/>
  <linearGradient id="bg" x1="76.273" x2="90.742" y1="54.86" y2="72.673" gradientUnits="userSpaceOnUse" xlink:href="#a"/>
  <linearGradient id="bf" x1="75.492" x2="75.305" y1="63.392" y2="63.642" gradientUnits="userSpaceOnUse" xlink:href="#a"/>
  <linearGradient id="be" x1="70.523" x2="81.148" y1="60.798" y2="77.61" gradientUnits="userSpaceOnUse" xlink:href="#a"/>
  <linearGradient id="bd" x1="74.711" x2="74.211" y1="71.079" y2="71.704" gradientUnits="userSpaceOnUse" xlink:href="#c"/>
  <linearGradient id="bc" x1="82.398" x2="83.711" y1="80.048" y2="78.923" gradientUnits="userSpaceOnUse" xlink:href="#c"/>
  <linearGradient id="bb" x1="80.773" x2="84.242" y1="81.22" y2="81.564" gradientUnits="userSpaceOnUse" xlink:href="#c"/>
  <linearGradient id="ba" x1="88.43" x2="89.898" y1="86.048" y2="83.985" gradientUnits="userSpaceOnUse" xlink:href="#c"/>
  <linearGradient id="az" x1="81.117" x2="81.68" y1="71.673" y2="71.72" gradientUnits="userSpaceOnUse" xlink:href="#a"/>
  <linearGradient id="ay" x1="85.617" x2="82.867" y1="74.392" y2="77.079" gradientUnits="userSpaceOnUse" xlink:href="#a"/>
  <linearGradient id="ax" x1="84.961" x2="84.398" y1="76.923" y2="77.548" gradientUnits="userSpaceOnUse" xlink:href="#a"/>
  <linearGradient id="aw" x1="93.805" x2="94.023" y1="78.11" y2="77.829" gradientUnits="userSpaceOnUse" xlink:href="#a"/>
  <linearGradient id="av" x1="89.43" x2="100.18" y1="74.829" y2="91.548" gradientUnits="userSpaceOnUse" xlink:href="#a"/>
  <linearGradient id="au" x1="104.77" x2="105.15" gradientUnits="userSpaceOnUse" xlink:href="#a"/>
  <linearGradient id="at" x1="103.18" x2="103.68" y1="81.86" y2="81.892" gradientUnits="userSpaceOnUse" xlink:href="#a"/>
  <linearGradient id="as" x1="113.15" x2="112.93" y1="91.454" y2="90.892" gradientUnits="userSpaceOnUse" xlink:href="#c"/>
  <linearGradient id="ar" x1="106.09" x2="121.46" y1="91.642" y2="81.454" gradientUnits="userSpaceOnUse" xlink:href="#a"/>
  <linearGradient id="aq" x1="112.09" x2="112.27" y1="82.454" y2="82.954" gradientUnits="userSpaceOnUse" xlink:href="#a"/>
  <linearGradient id="ap" x1="107.24" x2="121.43" y1="82.642" y2="70.704" gradientUnits="userSpaceOnUse" xlink:href="#a"/>
  <linearGradient id="ao" x1="123.09" x2="123.3" y1="77.329" y2="77.86" gradientUnits="userSpaceOnUse" xlink:href="#a"/>
  <linearGradient id="an" x1="125.34" x2="125.96" gradientUnits="userSpaceOnUse" xlink:href="#a"/>
  <linearGradient id="am" x1="123.71" x2="125.09" gradientUnits="userSpaceOnUse" xlink:href="#a"/>
  <linearGradient id="al" x1="123.18" x2="122.8" y1="75.142" y2="75.704" gradientUnits="userSpaceOnUse" xlink:href="#a"/>
  <linearGradient id="ak" x1="109.27" x2="116.37" y1="71.423" y2="63.673" gradientUnits="userSpaceOnUse" xlink:href="#b"/>
  <linearGradient id="aj" x1="80.336" x2="102.15" y1="36.235" y2="69.173" gradientUnits="userSpaceOnUse" xlink:href="#b"/>
  <linearGradient id="ai" x2="0" y1="51.923" y2="50.423" gradientUnits="userSpaceOnUse" xlink:href="#b"/>
  <linearGradient id="ah" x1="59.336" x2="61.648" y1="26.735" y2="29.923" gradientUnits="userSpaceOnUse" xlink:href="#b"/>
  <linearGradient id="ag" x1="65.086" x2="67.711" y1="23.735" y2="20.798" gradientUnits="userSpaceOnUse" xlink:href="#b"/>
  <linearGradient id="af" x1="77.211" x2="77.586" y1="25.11" y2="22.923" gradientUnits="userSpaceOnUse" xlink:href="#b"/>
  <linearGradient id="ae" x1="84.586" x2="85.773" y1="32.548" y2="30.642" gradientUnits="userSpaceOnUse" xlink:href="#b"/>
  <linearGradient id="ad" x1="77.773" x2="96.461" y1="54.673" y2="35.423" gradientUnits="userSpaceOnUse" xlink:href="#a"/>
  <linearGradient id="ac" x1="49.898" x2="59.211" y1="31.235" y2="48.11" gradientUnits="userSpaceOnUse" xlink:href="#a"/>
  <linearGradient id="ab" x1="17.211" x2="20.023" y1="61.048" y2="66.048" gradientUnits="userSpaceOnUse" xlink:href="#e"/>
  <linearGradient id="aa" x1="32.148" x2="36.461" y1="67.329" y2="62.704" gradientUnits="userSpaceOnUse" xlink:href="#e"/>
  <linearGradient id="z" x1="52.648" x2="56.961" y1="58.767" y2="54.142" gradientUnits="userSpaceOnUse" xlink:href="#e"/>
  <linearGradient id="y" x1="77.836" x2="80.648" y1="56.86" y2="61.86" gradientUnits="userSpaceOnUse" xlink:href="#e"/>
  <linearGradient id="x" x1="111.21" x2="115.52" y1="76.642" y2="72.017" gradientUnits="userSpaceOnUse" xlink:href="#e"/>
  <linearGradient id="w" x1="94.961" x2="97.773" y1="70.485" y2="75.485" gradientUnits="userSpaceOnUse" xlink:href="#e"/>
  <linearGradient id="v" x1="97.642" x2="97.952" y1="80.311" y2="81.106" gradientUnits="userSpaceOnUse" xlink:href="#a"/>
  <linearGradient id="t" x1="35.93" x2="30.523" y1="83.767" y2="89.642" gradientUnits="userSpaceOnUse" xlink:href="#d"/>
  <linearGradient id="s" x1="40.773" x2="35.93" y1="88.235" y2="94.142" gradientUnits="userSpaceOnUse" xlink:href="#d"/>
  <linearGradient id="r" x1="38.711" x2="34.961" y1="86.267" y2="89.985" gradientUnits="userSpaceOnUse" xlink:href="#a"/>
  <linearGradient id="q" x1="40.711" x2="43.742" y1="95.61" y2="91.767" gradientUnits="userSpaceOnUse" xlink:href="#a"/>
  <linearGradient id="p" x1="45.836" x2="41.898" y1="92.892" y2="97.204" gradientUnits="userSpaceOnUse" xlink:href="#a"/>
  <linearGradient id="o" x1="31.992" x2="26.586" y1="78.923" y2="84.798" gradientUnits="userSpaceOnUse" xlink:href="#d"/>
  <linearGradient id="n" x1="36.836" x2="31.992" y1="83.392" y2="89.298" gradientUnits="userSpaceOnUse" xlink:href="#d"/>
  <linearGradient id="m" x1="34.773" x2="31.023" y1="81.423" y2="85.142" gradientUnits="userSpaceOnUse" xlink:href="#a"/>
  <linearGradient id="l" x1="36.773" x2="39.805" y1="90.767" y2="86.923" gradientUnits="userSpaceOnUse" xlink:href="#a"/>
  <linearGradient id="k" x1="41.898" x2="37.961" y1="88.048" y2="92.36" gradientUnits="userSpaceOnUse" xlink:href="#a"/>
  <linearGradient id="j" x1="27.961" x2="22.555" y1="88.329" y2="94.204" gradientUnits="userSpaceOnUse" xlink:href="#d"/>
  <linearGradient id="i" x1="32.805" x2="27.961" y1="92.798" y2="98.704" gradientUnits="userSpaceOnUse" xlink:href="#d"/>
  <linearGradient id="h" x1="30.742" x2="26.992" y1="90.829" y2="94.548" gradientUnits="userSpaceOnUse" xlink:href="#a"/>
  <linearGradient id="g" x1="32.742" x2="35.773" y1="100.17" y2="96.329" gradientUnits="userSpaceOnUse" xlink:href="#a"/>
  <linearGradient id="f" x1="37.867" x2="33.93" y1="97.454" y2="101.77" gradientUnits="userSpaceOnUse" xlink:href="#a"/>
 </defs>
 <path d="m47.898 34.079-40.969 15.906-4.3438 9.5312 1.9062 13.312 17.656 9.5 6.4062 4.5-9.6875 7.0938 11.219 7.7812 13.688-7.25-10.906-14.719 33.719-11.062 11.094 7.4375 11.062 8.6562 13.125 8.125 15.406-10.219-69.375-48.594zm-38.563 22.831 4.8605 11.25-6.5828 2.2355-3.1272-10.892 4.8495-2.5938z" fill-opacity=".66667" fill-rule="evenodd" filter="url(#ci)"/>
 <path d="m7.1351 70.314-0.12973 1.2973 17.689 13.173-0.03058-1.7429-17.246-12.843-0.28293 0.11565z" fill="url(#ch)" fill-rule="evenodd"/>
 <path d="m7.3263 63.104 0.09173 7.0023 17.246 12.934 0.12231-0.88675 1.3454-2.4768-0.06116-2.8131-18.744-13.76z" fill="url(#cg)" fill-rule="evenodd"/>
 <path d="m7.2958 52.463v10.58l1.0091 0.73386 0.42809-10.794-1.5595-0.70329 0.12231 0.18347z" fill="url(#cf)" fill-rule="evenodd"/>
 <path d="m12.31 59.465-2.9354 1.376 0.06116 1.3454 2.9966-1.59-0.12231-1.1314z" fill="url(#ce)" fill-rule="evenodd"/>
 <path d="m8.5188 53.319-0.12231 10.305 0.97848-0.51982 0.03058-9.479-0.88675-0.30578z" fill="url(#cd)" fill-rule="evenodd"/>
 <path d="m8.5188 63.654 0.79502-0.45866 15.442 11.711-0.12231 1.0702-16.114-12.323z" fill="url(#cc)" fill-rule="evenodd"/>
 <path d="m12.494 56.132-0.03058 9.4485 12.2 9.2344s0.39751-9.3567-0.03058-9.5708-12.17-9.265-12.17-9.265l0.03058 0.15289z" fill="url(#cb)" fill-rule="evenodd"/>
 <path d="m12.28 60.749-2.9354 1.376 0.09173 1.1925 3.0883 2.3545-0.24462-4.923z" fill="url(#ca)" fill-rule="evenodd"/>
 <path d="m24.664 65.519v10.519s1.4372 1.1925 1.4372 1.0702-0.06115-10.824-0.06115-10.824l-1.376-0.76444z" fill="url(#bz)" fill-rule="evenodd"/>
 <path d="m26.101 66.284 0.15289 10.672 1.2843-0.58097-0.12231-10.702-1.3148 0.61155z" fill="url(#by)" fill-rule="evenodd"/>
 <path d="m26.376 76.864 16.879-7.0023 0.33635 6.8494-7.1552 2.966-1.2843-0.82559-0.12231-0.5504-1.0702-0.91733-0.79502-0.12231-0.48924 0.2752s-0.97848-0.61155-1.1008-0.61155-2.5685 0.36693-2.5685 0.36693l-2.3545 1.7429-0.48924 0.18346 0.21404-2.3545z" fill="url(#bx)" fill-rule="evenodd"/>
 <path d="m27.63 74.999 14.28-6.0238 1.376 0.76444-15.839 6.7271" fill="url(#bw)" fill-rule="evenodd"/>
 <path d="m43.286 70.901 7.2775-2.9966 0.33635 4.8313-7.308 2.8743-0.30578-4.709z" fill="url(#bv)" fill-rule="evenodd"/>
 <path d="m43.469 75.61 7.2775-2.9966 0.97848 0.97848-8.256 3.3024v-1.2843z" fill="url(#bu)" fill-rule="evenodd"/>
 <path d="m36.62 79.83 32.687-13.515-0.12231 2.1098-13.454 5.4428-17.643 7.0634-0.67271-0.58097-0.79502-0.51982z" fill="url(#bt)" fill-rule="evenodd"/>
 <path d="m41.39 78.76 13.515-5.5651 1.8346 1.4677-14.035 5.6874-1.1925-1.6512" fill="url(#bs)" fill-rule="evenodd"/>
 <path d="m42.643 80.35 14.064-5.6868 0.03192 1.0695-14.157 5.6263 0.06115-1.0091z" fill="url(#br)" fill-rule="evenodd"/>
 <path d="m41.329 78.76c0.21404 0.2752 1.376 1.4983 1.376 1.4983l-0.03058 1.0396-0.15289 0.03058-1.4372-1.2537 0.03058-1.3454 0.21404 0.03058z" fill="url(#bq)" fill-rule="evenodd"/>
 <path d="m27.385 65.703 0.2752 9.2344 14.219-5.9626 1.4372 0.70328 0.09173 1.162 7.094-3.0578-0.15289-2.171 17.399-6.7882-0.06115-9.4485-21.802 8.7452-18.499 7.5832z" fill="url(#bp)" fill-rule="evenodd"/>
 <path d="m7.4422 52.336c0.57452 0 14.982-3.0494 14.982-3.0494l3.7123 17.192-18.694-14.142z" fill="url(#bo)" fill-rule="evenodd"/>
 <path d="m7.0886 52.203 48.569-19.622 18.075-7.9108-0.7955 2.2539-27.312 11.844-23.556 10.474-14.982 2.961z" fill="url(#bn)" fill-rule="evenodd"/>
 <path d="m22.291 49.198 3.8891 17.147 43.001-17.545 3.8891-21.965-24.086 10.562-26.693 11.8z" fill="url(#bm)" fill-rule="evenodd"/>
 <path d="m50.43 65.517 1.2188 0.625 0.09375 7.1562-0.9375-0.75-0.375-7.0312z" fill="url(#bl)" fill-rule="evenodd"/>
 <path d="m50.555 65.735 1.0312 0.40625 16.156-6.4688v-0.78125l-17.219 6.6875 0.03125 0.15625z" fill="url(#bk)" fill-rule="evenodd"/>
 <path d="m51.617 66.079s-0.28125 7.375 0.125 7.2812 17.625-6.9375 17.625-6.9375l-0.15625-7.1562-17.594 6.8125z" fill="url(#bj)" fill-rule="evenodd"/>
 <path d="m67.68 49.392 0.09375 10.219s1.4375-0.3125 1.4375-0.46875-0.25-10.25-0.25-10.25l-1.2812 0.5z" fill="url(#bi)" fill-rule="evenodd"/>
 <path d="m69.148 59.11 0.09375-10.094 1.5312 1.2188-0.25 10.094-1.375-1.2188z" fill="url(#bh)" fill-rule="evenodd"/>
 <path d="m70.867 50.11-0.21875 9.4688 11.438 8.9375v2.9688l7.2188 5.0312v-1.5625l1.25-0.4375 12.219 9.8125 0.09375-9.375-32-24.844z" fill="url(#bg)" fill-rule="evenodd"/>
 <path d="m70.617 59.423 0.03125 0.9375 10.25 8.4375 1.0938-0.4375-11.375-8.9375z" fill="url(#bf)" fill-rule="evenodd"/>
 <path d="m69.336 59.392 0.125 7.0625 11.125 8.6562 0.34375-6.375-11.594-9.3438z" fill="url(#be)" fill-rule="evenodd"/>
 <path d="m69.336 66.329-0.1875 2.0938 23.344 18.156 11.719 9.125v-2.0625l-23.312-18.094-11.562-9.2188z" fill="url(#bd)" fill-rule="evenodd"/>
 <path d="m79.117 75.048c-0.15625 0.0625-2.3125 1.5312-2.3125 1.5312l11.188 8.5938 2.1562-1.5312-11.031-8.5938z" fill="url(#bc)" fill-rule="evenodd"/>
 <path d="m76.711 76.61-0.0625 1.375 11.062 8.5312 0.03125-1.6562-11.031-8.25z" fill="url(#bb)" fill-rule="evenodd"/>
 <path d="m87.773 85.142 2.3438-1.4688 0.375 1.3438-2.625 1.5625-0.09375-1.4375z" fill="url(#ba)" fill-rule="evenodd"/>
 <path d="m80.898 68.767-0.28125 6.1562 1.3438-0.8125 0.0625-5.5938-1.125 0.25z" fill="url(#az)" fill-rule="evenodd"/>
 <path d="m82.023 71.579-0.1875 2.625 7.4062 5.7188-0.09375-3.5-7.125-4.8438z" fill="url(#ay)" fill-rule="evenodd"/>
 <path d="m80.555 74.829 1.4062-0.65625 7.1875 5.7812-0.03125 1.9375-8.5625-6.8125v-0.25z" fill="url(#ax)" fill-rule="evenodd"/>
 <path d="m90.648 74.642-1.5 0.53125 13.656 10.781-0.0625-1.6562-12.094-9.6562z" fill="url(#aw)" fill-rule="evenodd"/>
 <path d="m89.586 75.517c0.1875 0.40625 14.656 11.438 14.656 11.438l0.03125 6.9688-15.094-11.938-0.03125-6.2812 0.4375-0.1875z" fill="url(#av)" fill-rule="evenodd"/>
 <path d="m104.3 76.048-0.03125 11.094 1.75-0.75-0.25-10.969-1.4688 0.625z" fill="url(#au)" fill-rule="evenodd"/>
 <path d="m102.8 75.204-0.03125 10.781 1.25 0.90625 0.15625-10.844-1.375-0.84375z" fill="url(#at)" fill-rule="evenodd"/>
 <path d="m104.15 93.767 22.438-8.875 0.25 1.5625-22.781 9.125 0.09375-1.8125z" fill="url(#as)" fill-rule="evenodd"/>
 <path d="m104.34 87.142 21.969-9.1562 0.25 6.9375s-22.281 8.875-22.281 8.75-0.03125-6.5312 0.0625-6.5312z" fill="url(#ar)" fill-rule="evenodd"/>
 <path d="m105.99 84.767 0.09375 1.6562 19.156-8.0625-1.5625-0.84375-17.688 7.25z" fill="url(#aq)" fill-rule="evenodd"/>
 <path d="m106.02 84.767-0.25-9.25 16.281-6.6562-0.03125 9.4375-16 6.4688z" fill="url(#ap)" fill-rule="evenodd"/>
 <path d="m122.18 75.298 1.5938 1.0625-0.0625 1.2812-1.625 0.65625 0.09375-3z" fill="url(#ao)" fill-rule="evenodd"/>
 <path d="m125.12 78.235-0.21875-10.625 1.7188-0.375-0.125 10.594-1.3125 0.625-0.0625-0.21875z" fill="url(#an)" fill-rule="evenodd"/>
 <path d="m123.71 68.11 0.0625 9.5 1.3125 0.5625-0.09375-10.531-1.2812 0.46875z" fill="url(#am)" fill-rule="evenodd"/>
 <path d="m122.24 74.173-0.03125 1.1562 1.5312 1.0938v-1.375l-1.5-0.875z" fill="url(#al)" fill-rule="evenodd"/>
 <path d="m112.21 60.048-7.7812 15.75 21.781-8.7812-14-6.9688z" fill="url(#ak)" fill-rule="evenodd"/>
 <path d="m69.086 48.985 35.375 27.188 0.125-0.5625 7.75-15.562-39.312-33.188-3.9375 22.125z" fill="url(#aj)" fill-rule="evenodd"/>
 <path d="m126.34 66.86-14.062-6.9375-39.062-33 14.812 10.312 27.625 21.25 10.688 8.375z" fill="url(#ai)" fill-rule="evenodd"/>
 <path d="m47.398 26.923 26.25-2.5625-0.125 0.4375-18.25 7.8125-7.875-5.6875z" fill="url(#ah)" fill-rule="evenodd"/>
 <path d="m47.773 26.673 25.938-7.3125-0.125 4.9375-24.25 2.625-1.5625-0.25z" fill="url(#ag)" fill-rule="evenodd"/>
 <path d="m73.648 19.423 0.0625 5.0625 21.75 8.6875-21.812-13.75z" fill="url(#af)" fill-rule="evenodd"/>
 <path d="m73.773 24.423 22.562 9.25-8.625 3.1875-14.75-9.9375 0.8125-2.5z" fill="url(#ae)" fill-rule="evenodd"/>
 <path d="m87.586 36.86 8.5625-3.1875 0.3125 10-8.875-6.8125z" fill="url(#ad)" fill-rule="evenodd"/>
 <path d="m55.648 32.61-8.5625-5.8125 0.1875 9.1875 8.375-3.375z" fill="url(#ac)" fill-rule="evenodd"/>
 <path d="m15.648 58.61 0.125 4.5625 5.3125 4.0625-0.0625-4.75-5.375-3.875z" fill="url(#ab)" fill-rule="evenodd"/>
 <path d="m31.461 64.048 0.125 5.0625 6.25-2.5-0.25-4.9375-6.125 2.375z" fill="url(#aa)" fill-rule="evenodd"/>
 <path d="m51.961 55.485 0.125 5.0625 6.25-2.5-0.25-4.9375-6.125 2.375z" fill="url(#z)" fill-rule="evenodd"/>
 <path d="m76.273 54.423 0.125 4.5625 5.3125 4.0625-0.0625-4.75-5.375-3.875z" fill="url(#y)" fill-rule="evenodd"/>
 <path d="m110.52 73.36 0.125 5.0625 6.25-2.5-0.25-4.9375-6.125 2.375z" fill="url(#x)" fill-rule="evenodd"/>
 <path d="m93.398 68.048 0.125 4.5625 5.3125 4.0625-0.0625-4.75-5.375-3.875z" fill="url(#w)" fill-rule="evenodd"/>
 <path d="m16.711 59.423-0.0625 3.5625 3.5625 2.5625 0.1875-3.5625-3.6875-2.5625z" fill="#d59163" fill-rule="evenodd"/>
 <path d="m77.08 55.313-0.0625 3.5625 3.5625 2.5625 0.1875-3.5625-3.6875-2.5625z" fill="#d59163" fill-rule="evenodd"/>
 <path d="m52.906 55.18-0.10669 3.916 4.2254-1.415-0.03347-3.7393-4.0852 1.2382z" fill="#d59163" fill-rule="evenodd"/>
 <path d="m32.488 63.533-0.10669 3.916 4.2254-1.415-0.03347-3.7393-4.0852 1.2382z" fill="#d59163" fill-rule="evenodd"/>
 <path d="m111.73 72.858-0.10669 3.916 4.2254-1.415-0.03347-3.7393-4.0852 1.2382z" fill="#d59163" fill-rule="evenodd"/>
 <path d="m94.448 68.969-0.0625 3.5625 3.5625 2.5625 0.1875-3.5625-3.6875-2.5625z" fill="#d59163" fill-rule="evenodd"/>
 <path d="m102.68063,77.96839-10.16466,4.06586c0,0-.44194.88388-.44194,1.06066s.39775.66291.39775.66291l.70711.04419 10.03207-4.24264 .61872-.61872-.26516-.66291-.88389-.30936z" fill="url(#v)" fill-rule="evenodd"/>
 <path d="m93.488 83.581c0 0.57452 0.13258 4.4194 0.13258 4.4194l7.8224-3.0936-0.0442-4.5962-7.9108 3.2704z" fill="url(#u)" fill-rule="evenodd"/>
 <path d="m7.3263 63.104 0.09173 7.0023 17.246 12.934 0.12231-0.88675 1.3454-2.4768-0.06116-2.8131-18.744-13.76z" fill-opacity=".15686" fill-rule="evenodd"/>
 <path d="m12.494 56.132-0.03058 9.4485 12.2 9.2344s0.39751-9.3567-0.03058-9.5708-12.17-9.265-12.17-9.265l0.03058 0.15289z" fill-opacity=".15686" fill-rule="evenodd"/>
 <path d="m12.28 60.749-2.9354 1.376 0.09173 1.1925 3.0883 2.3545-0.24462-4.923z" fill-opacity=".15686" fill-rule="evenodd"/>
 <path d="m43.286 70.901 7.2775-2.9966 0.33635 4.8313-7.308 2.8743-0.30578-4.709z" fill-opacity=".15686" fill-rule="evenodd"/>
 <path d="m41.329 78.76c0.21404 0.2752 1.376 1.4983 1.376 1.4983l-0.03058 1.0396-0.15289 0.03058-1.4372-1.2537 0.03058-1.3454 0.21404 0.03058z" fill-opacity=".15686" fill-rule="evenodd"/>
 <path d="m7.4422 52.336c0.57452 0 14.982-3.0494 14.982-3.0494l3.7123 17.192-18.694-14.142z" fill-opacity=".15686" fill-rule="evenodd"/>
 <path d="m70.867 50.11-0.21875 9.4688 11.438 8.9375v2.9688l7.2188 5.0312v-1.5625l1.25-0.4375 12.219 9.8125 0.09375-9.375-32-24.844z" fill-opacity=".15686" fill-rule="evenodd"/>
 <path d="m69.336 59.392 0.125 7.0625 11.125 8.6562 0.34375-6.375-11.594-9.3438z" fill-opacity=".15686" fill-rule="evenodd"/>
 <path d="m76.711 76.61-0.0625 1.375 11.062 8.5312 0.03125-1.6562-11.031-8.25z" fill-opacity=".15686" fill-rule="evenodd"/>
 <path d="m82.023 71.579-0.1875 2.625 7.4062 5.7188-0.09375-3.5-7.125-4.8438z" fill-opacity=".15686" fill-rule="evenodd"/>
 <path d="m122.18 75.298 1.5938 1.0625-0.0625 1.2812-1.625 0.65625 0.09375-3z" fill-opacity=".15686" fill-rule="evenodd"/>
 <path d="m69.086 48.985 35.375 27.188 0.125-0.5625 7.75-15.562-39.312-33.188-3.9375 22.125z" fill-opacity=".15686" fill-rule="evenodd"/>
 <path d="m47.398 26.923 26.25-2.5625-0.125 0.4375-18.25 7.8125-7.875-5.6875z" fill-opacity=".15686" fill-rule="evenodd"/>
 <path d="m44.711 88.954 1.4688 0.71875 0.46875 1.125 0.125 1.0312-0.15625 1.1875-0.4375 1.125-1 1.3125-1.3438 1.5625-1.125 0.65625-1.5625 0.4375-1.1875-0.09375-1.75-1.7188 1.6562-5 4.8438-2.3438z" fill="url(#p)" fill-rule="evenodd"/>
 <path d="m45.617 89.704-0.09375 1.9375-1.0312 2.6875-2.8125 2.375-2.1875 1.0938-1.4688-1.5938 2.25-6.4375 4.4688-1.2812 0.875 1.2188z" fill="url(#q)" fill-rule="evenodd"/>
 <path d="m35.492 81.704 3.6875 2.1875 2.9062 1.9375 2.5 2.0938s1.5 1.5938 1.375 1.5625-1.9688-0.03125-1.9688-0.03125l-1.3438 0.59375-1.125 1.0938-1.0938 1.3125-0.53125 1-0.5625 1.4062-0.3125 0.9375-0.03125 0.625 0.21875 1.3438-1.875-0.9375-2.3438-1.3438-3.4062-2.8125-2.375-2.0625-0.46875-0.84375s-0.1875-1.4375-0.1875-1.5625 0.1875-1.4375 0.1875-1.4375l1.4375-2.6562 2.3125-1.875 3-0.53125z" fill="url(#r)" fill-rule="evenodd"/>
 <path d="m43.117 86.267-2.6562 1.2812-2.4375 1.9375-1.5625 1.9062-0.8125 1.9375-0.40625 1.7812-0.0625 0.96875 0.75 0.78125 1 0.15625 0.28125-0.90625 0.375-1.8438 1.375-2.6875 1.1562-1.3438s1.8125-1.4375 1.9375-1.4375 3.0938-1 2.8125-1.125-0.65625-0.65625-0.65625-0.65625l-1.0938-0.75z" fill="url(#s)" fill-rule="evenodd"/>
 <path d="m31.27331,92.79797 .5-1.84375 .8125-2.15625 1.34375-2 2.4375-2 2.625-1.3125c.15387-.25-.27502-.5-.5-.75l-1.0625-.59375-1.46875.65625-1.90625,1.03125-1.71875,1.40625-1.125,1.5625-1.1875,2.28125-.5625,2.125 .28125.75 .8125.5625 .71875.28125z" fill="url(#t)" fill-rule="evenodd"/>
 <path d="m36.742 93.517 1.4688 0.71875 0.46875 1.125 0.125 1.0312-0.15625 1.1875-0.4375 1.125-1 1.3125-1.3438 1.5625-1.125 0.65625-1.5625 0.4375-1.1875-0.09375-1.75-1.7188 1.6562-5 4.8438-2.3438z" fill="url(#f)" fill-rule="evenodd"/>
 <path d="m37.648 94.267-0.09375 1.9375-1.0312 2.6875-2.8125 2.375-2.1875 1.0938-1.4688-1.5938 2.25-6.4375 4.4688-1.2812 0.875 1.2188z" fill="url(#g)" fill-rule="evenodd"/>
 <path d="m27.523 86.267 3.6875 2.1875 2.9062 1.9375 2.5 2.0938s1.5 1.5938 1.375 1.5625-1.9688-0.03125-1.9688-0.03125l-1.3438 0.59375-1.125 1.0938-1.0938 1.3125-0.53125 1-0.5625 1.4062-0.3125 0.9375-0.03125 0.625 0.21875 1.3438-1.875-0.9375-2.3438-1.3438-3.4062-2.8125-2.375-2.0625-0.46875-0.84375s-0.1875-1.4375-0.1875-1.5625 0.1875-1.4375 0.1875-1.4375l1.4375-2.6562 2.3125-1.875 3-0.53125z" fill="url(#h)" fill-rule="evenodd"/>
 <path d="m35.148 90.829-2.6562 1.2812-2.4375 1.9375-1.5625 1.9062-0.8125 1.9375-0.40625 1.7812-0.0625 0.96875 0.75 0.78125 1 0.15625 0.28125-0.90625 0.375-1.8438 1.375-2.6875 1.1562-1.3438s1.8125-1.4375 1.9375-1.4375 3.0938-1 2.8125-1.125-0.65625-0.65625-0.65625-0.65625l-1.0938-0.75z" fill="url(#i)" fill-rule="evenodd"/>
 <path d="m23.30456,97.36047 .5-1.84375 .8125-2.15625 1.34375-2 2.4375-2 2.625-1.3125c.15387-.25-.27502-.5-.5-.75l-1.0625-.59375-1.46875.65625-1.90625,1.03125-1.71875,1.40625-1.125,1.5625-1.1875,2.28125-.5625,2.125 .28125.75 .8125.5625 .71875.28125z" fill="url(#j)" fill-rule="evenodd"/>
 <path d="m40.773 84.11 1.4688 0.71875 0.46875 1.125 0.125 1.0312-0.15625 1.1875-0.4375 1.125-1 1.3125-1.3438 1.5625-1.125 0.65625-1.5625 0.4375-1.1875-0.09375-1.75-1.7188 1.6562-5 4.8438-2.3438z" fill="url(#k)" fill-rule="evenodd"/>
 <path d="m41.68 84.86-0.09375 1.9375-1.0312 2.6875-2.8125 2.375-2.1875 1.0938-1.4688-1.5938 2.25-6.4375 4.4688-1.2812 0.875 1.2188z" fill="url(#l)" fill-rule="evenodd"/>
 <path d="m31.555 76.86 3.6875 2.1875 2.9062 1.9375 2.5 2.0938s1.5 1.5938 1.375 1.5625-1.9688-0.03125-1.9688-0.03125l-1.3438 0.59375-1.125 1.0938-1.0938 1.3125-0.53125 1-0.5625 1.4062-0.3125 0.9375-0.03125 0.625 0.21875 1.3438-1.875-0.9375-2.3438-1.3438-3.4062-2.8125-2.375-2.0625-0.46875-0.84375s-0.1875-1.4375-0.1875-1.5625 0.1875-1.4375 0.1875-1.4375l1.4375-2.6562 2.3125-1.875 3-0.53125z" fill="url(#m)" fill-rule="evenodd"/>
 <path d="m39.18 81.423-2.6562 1.2812-2.4375 1.9375-1.5625 1.9062-0.8125 1.9375-0.40625 1.7812-0.0625 0.96875 0.75 0.78125 1 0.15625 0.28125-0.90625 0.375-1.8438 1.375-2.6875 1.1562-1.3438s1.8125-1.4375 1.9375-1.4375 3.0938-1 2.8125-1.125-0.65625-0.65625-0.65625-0.65625l-1.0938-0.75z" fill="url(#n)" fill-rule="evenodd"/>
 <path d="m27.33581,87.95422 .5-1.84375 .8125-2.15625 1.34375-2 2.4375-2 2.625-1.3125c.15387-.25-.27502-.5-.5-.75l-1.0625-.59375-1.46875.65625-1.90625,1.03125-1.71875,1.40625-1.125,1.5625-1.1875,2.28125-.5625,2.125 .28125.75 .8125.5625 .71875.28125z" fill="url(#o)" fill-rule="evenodd"/>
 <path d="m73.74206,19.11047-26.75,7.5625 .125,9.15625-40.125,16.34375v17.625l-.125,1.84375 17.65625,13.34375 .03125.1875c.29056.31484.56725.62638.875.9375-.01099.06431-.02091.06099-.03125.09375-.69002.23486-1.27565.6272-1.9375,1.0625-2.01062,1.73551-3.31287,3.97043-3,6.6875 .00469.0408-.03669.08396-.03125.125l.09375.53125c.29056.31484.5985.62638.90625.9375-.05065.2964-.10055.1503-.125.46875 .57015.55176 1.29785,1.45435 2.25,1.6875 .00541-.04779-.00596-.13933 0-.1875 1.08561.93708 2.25806,1.85997 3.53125,2.71875-.01527.13146-.02084.2707-.03125.40625 .70896.87118 1.3121,1.12004 2.25,1.21875 .00829-.07331.02164-.14454.03125-.21875 .83065.48078 1.68857.93745 2.59375,1.375 .1601.10384.82807.31456 1.125.4375l.96875-.21875c.03847-.0838-.13077-.24833-.1875-.34375 .04957-.01686.42012.23657.46875.21875 .23644-.08666.4736-.17357.6875-.28125 .05147-.02592-.14392-.25419-.09375-.28125 .05718-.03084.35074.12601.40625.09375 .31081.00814.38644-.21174.5625-.375 .04423-.03816-.04516-.24322 0-.28125s.23153.10425.28125.0625c.1569-.1318.32448-.26605.46875-.40625 .06196-.05381-.15138-.34949-.09375-.40625 .05414-.05335.38579.1175.4375.0625 .14924-.15886.25609-.31066.40625-.46875 .03437-.0402-.22115-.30316-.1875-.34375s.34371.13267.375.09375c.13232-.16468.28731-.32871.40625-.5 .03878-.05586-.22471-.31842-.1875-.375 .03484-.05297.37283.08484.40625.03125 .11036-.17708.18807-.34749.28125-.53125 .02475-.04883-.17969-.23197-.15625-.28125 .02502-.05263.28903.0219.3125-.03125 .08264-.18707.1566-.36879.21875-.5625 .01644-.05123-.23365-.22958-.21875-.28125s.29974.04959.3125,0c.00807-.03138.02394-.06214.03125-.09375l.9375.46875c.16009.10384.79682.31456 1.09375.4375l1-.21875c.03847-.0838-.13077-.24833-.1875-.34375 .04957-.01686.38887.23657.4375.21875 .23644-.08666.4736-.17357.6875-.28125 .05147-.02592-.11267-.25419-.0625-.28125 .05718-.03084.35074.12601.40625.09375 .27956-.02311.38644-.21174.5625-.375 .04423-.03816-.07641-.24322-.03125-.28125s.26278.10425.3125.0625c.15691-.1318.32448-.26605.46875-.40625 .06195-.05381-.18263-.34949-.125-.40625 .05415-.05335.38579.1175.4375.0625l.4375-.46875c.03436-.0402-.22115-.30316-.1875-.34375s.34371.13267.375.09375c.13232-.16468.25606-.32871.375-.5 .03878-.05586-.22471-.31842-.1875-.375 .03484-.05297.40408.08484.4375.03125 .11036-.17708.18807-.34749.28125-.53125 .02475-.04883-.21094-.23197-.1875-.28125 .02502-.05263.32028.0219.34375-.03125 .08264-.18707.1566-.36879.21875-.5625 .01644-.05123-.2649-.22958-.25-.28125s.29974.04959.3125,0c.06025-.23428.12987-.47511.15625-.71875 .00807-.07472-.28593-.36191-.28125-.4375s.28022.04921.28125-.03125c.00417-.32934.00377-.68573-.0625-1.03125-.01215-.06328-.32372-.24854-.34375-.3125-.02931-.09362.24575-.06159.21875-.15625-.11965-.4194-.26287-.8375-.5-1.28125-.32782-.378-.56551-.48674-1.59375-1.53125l.40625-.15625c-.54292-.78588-1.33897-1.31019-2.1875-1.875l-.0625.03125c-.11965-.4194-.29412-.86875-.53125-1.3125-.32782-.378-.53426-.48674-1.5625-1.53125 .12818-.04614.24256-.08114.375-.125-.54291-.78589-1.33897-1.34144-2.1875-1.90625l-.25.21875c-.11593-.09937-.2598-.18976-.375-.28125l2.625-1.0625v.15625l1.46875,1.4375 14.40625-5.78125v-1.15625l-.96875-.71875 13.15625-5.3125 9,7-1.53125,1.03125v1.46875l11.40625,8.65625 2.46875-1.59375v.0625l2.9375,2.28125v.65625l.5625-.21875 10.21875,7.9375 22.9375-9.28125-.1875-1.5-.0625-18.0625-30.09375-23.5v-9.8125l-22.96875-14.59375zm-.28125.625-.125,4.4375-24.03125,2.59375 24.15625-7.03125zm.4375.1875 19.28125,12.15625-19.25-7.75-.03125-4.40625zm-2.125.625-1.625.5-.09375-.09375-.0625.125-4,1.25-.40625-.1875-.09375.28125 .0625.03125-4.21875,1.3125-.40625-.25-.1875.15625 .3125.1875-.96875.28125 .21875.15625 1-.3125 1.28125.71875 .3125-.0625-1.3125-.75 4.28125-1.3125 2.96875,1.25-.375.15625v.0625l.46875-.15625 .6875.28125 .1875-.0625-.65625-.3125 2.84375-.96875 .4375.3125 .15625-.0625-.375-.3125 .59375-.21875-.09375-.125-.625.21875-1.71875-1.4375 1.71875-.53125-.3125-.125zm-1.8125.78125 1.90625,1.40625-2.8125,1.03125-2.78125-1.3125 3.6875-1.125zm6.75,1.4375-.15625.1875c.32643.20338.64448.41819.96875.625l-2.71875.65625-.03125.125 2.96875-.625c.81323.52118 1.63354,1.02677 2.4375,1.5625l-1.0625.25 .09375.125 1.125-.25c1.22927.82062 2.46283,1.64202 3.6875,2.46875l.0625-.09375c-1.1602-.86143-2.28911-1.64854-3.4375-2.4375l.9375-.21875 .0625-.15625-1.15625.25c-.76934-.5263-1.56219-1.07126-2.375-1.59375l.8125-.15625-.15625-.1875-.875.21875c-.39337-.25151-.77702-.49523-1.1875-.75zm-3.46875,1.75-17.40625,7.875-7.53125-5.09375 24.9375-2.78125zm-15.625.15625-3,.8125 .1875.21875 2.84375-.875-.03125-.15625zm16.46875,0 21.40625,8.875-8.09375,3.0625 .03125-.09375-1.5-1.03125-11.84375-10.8125zm-.25.21875 9.90625,9.125-9.6875-6.5625-.78125-.65625 .5625-1.90625zm-.5.03125-.4375,1.71875-17.59375,7.71875v-.03125l-1.125-.15625 8.84375-3.90625v-.03125l5.09375-1.75-.09375-.1875-9.25,3.1875 .0625.1875 2.71875-.9375-7.625,3.40625-1.09375-.15625-.15625.1875 .90625.125-.90625.40625 .21875.03125 .9375-.40625 1.21875.15625-33.0625,14.53125-12.875,2.75 17.71875-7.21875-.03125.15625 .59375.09375-6.28125,2.625h-.78125l-.34375.15625h.71875l-1.3125.5625 .28125.21875 1.78125-.75 2.46875.03125 .09375-.1875-2.15625-.03125 5.96875-2.53125 1.78125.3125 .03125-.25-1.46875-.21875 11.21875-4.75-.03125-.15625-11.65625,4.84375-.84375-.125 16.03125-6.5 9.9375-4.0625 3.53125-1.4375 2.40625-1.0625 14.5625-6.5625zm-30.4375,13.125-.09375.1875 .65625.40625-.90625.40625 .03125.21875 1.125-.5 .25.15625 .28125-.1875-.21875-.09375 5.875-2.59375-.09375-.28125-6.03125,2.71875-.875-.4375zm17.21875-11.75-.1875.21875 .9375.84375-6.6875.90625-1.5-1.09375-.28125.15625 1.34375.96875-1.28125.1875v.15625l1.46875-.1875 2.53125,1.84375 .15625-.25-2.28125-1.65625 6.65625-.90625 .78125.6875 .1875-.15625-.625-.59375 5.8125-.78125v-.125l-5.9375.8125-1.09375-1.03125zm-12.8125.71875 6.03125,4.4375-.03125,1.84375-1.0625.4375-4.8125-3.53125-.125-3.1875zm25.4375.125-3.875,21.5-42.59375,17.21875-3.75-16.5 50.21875-22.21875zm.375.15625 38.8125,32.65625-7.65625,15.875-17.1875-13.28125-17.59375-13.59375 3.625-21.65625zm7.4375,1.375-.25.1875 6.65625,4.6875-1.53125.6875 .09375.25 1.625-.78125 2.0625,1.4375 .28125-.03125-2.125-1.53125 2.9375-1.40625-.125-.0625-3,1.34375-6.625-4.78125zm-4.84375.1875 10.25,7.21875 .96875.875 9.46875,7.28125 28.4375,21.78125-12.59375-6.34375-36.53125-30.8125zm20.6875,15.375-7.46875-4.5-.15625.09375 7.75,4.59375-.125-.1875zm-21.625-14.21875-.15625,1.09375c-.37317-.3346-.75335-.66331-1.125-1l-.1875.15625c.41431.37567.83342.75173 1.25,1.125l-2,13.125-.34375-.25-.125.15625 .4375.3125-.25,1.53125 .1875.1875 .25-1.59375 4.40625,3.15625-.375,2.71875 .28125.09375 .34375-2.625 1.5,1.0625 .15625-.125-1.625-1.15625 1.28125-9.375 1.90625,1.5625 .125-.28125-2-1.625 .0625-.4375-.1875-.09375-.0625.375-3.71875-3.0625-.125.28125 3.8125,3.125-1.34375,9.34375-4.40625-3.15625 2.0625-13.03125c3.43337,3.06977 6.93328,6.06954 10.4375,9.0625l-2.0625,8 .25.125 2.03125-7.9375c2.14193,1.82941 4.28139,3.6542 6.40625,5.5l.03125-.25c-2.11356-1.84726-4.24772-3.67643-6.375-5.5l.5-2-.28125.0625-.4375,1.75c-3.51138-3.00984-7.01801-6.00573-10.46875-9.09375l.1875-1.15625-.25-.15625zm-27.34375.375 2.59375,1.90625-.03125,2.3125-.5625.28125-1.875-1.34375-.125-3.15625zm20.125.125c-.0025.01464.01523.06328.03125.125 .03007-.06851-.02506-.16126-.03125-.125zm.03125.125c-.01503.03425-.06088.05117-.125.0625 .27755,2.49519.00466,5.0269.125,7.53125l-3.5625,1.53125c-.53071-2.02378-1.06279-4.04724-1.625-6.0625l-.1875.15625c.54369,2.0111 1.05288,4.0158 1.5625,6.03125l-9.53125,4.09375-2.46875-5.21875 5.21875-2.25 1.1875,2.96875 .15625-.1875-1.15625-2.84375 2.8125-1.21875-.1875-.1875-2.71875,1.1875-.28125-.6875-.1875.0625 .28125.6875-5.25,2.25-.15625-.34375-.09375.21875 .09375.1875-18.1875,7.84375-.125-.375-.28125.09375 .125.375-6.8125,2.9375c-.08228-.2705-.16811-.54188-.25-.8125-.23601-.23562.04167-.14583-.28125-.0625 .09569.33577.21403.66505.3125,1l-1.125.46875 .03125.25 1.15625-.5c.74296,2.51183 1.53726,5.00801 2.34375,7.5h.28125c-.8304-2.52319-1.63205-5.05291-2.40625-7.59375l6.8125-2.9375 1.78125,5.5625-.75.34375-.03125.25 .875-.375 1.6875,5.28125-3.6875,1.53125-2.3125-7.53125-.21875-.03125 2.25,7.6875-1.96875.8125 .125.25 1.90625-.8125 .59375,2.0625 .34375-.15625-.625-2.03125 3.65625-1.53125 .4375,1.34375h.28125l-.46875-1.4375 8.4375-3.53125-.1875-.15625-8.3125,3.4375-1.6875-5.3125 4.21875-1.84375 .65625,1.875 .1875-.09375-.625-1.875 2.25-.96875v-.28125l-2.3125,1.03125-.96875-2.84375-.3125.0625 1.03125,2.875-4.1875,1.875-1.78125-5.59375 18.21875-7.84375 2.53125,5.21875-6.1875,2.65625-.65625-1.40625-.15625.09375 .625,1.40625-1.90625.8125 .0625.21875 1.9375-.84375 3.4375,7.5625 .34375-.0625-3.59375-7.59375 6.15625-2.6875 2.8125,5.84375-.5.21875 .15625.125 .40625-.1875 .375.75 .125-.03125-.375-.78125 6.125-2.78125 .5625,1.46875 .21875-.09375-.53125-1.46875 .53125-.25-.03125-.21875-.59375.28125-.90625-2.46875-.28125-.03125 .96875,2.59375-6.125,2.8125-2.78125-5.84375 9.46875-4.09375c.17606.6954.34948,1.39831.53125,2.09375l.28125-.125c-.18249-.69925-.3793-1.39468-.5625-2.09375l3.5625-1.53125c.0246.44829.03705.89771.09375,1.34375l.1875.0625c-.06885-.48544-.12641-.97459-.15625-1.46875l1.03125-.4375 .03125-.1875-1.0625.46875c-.1332-2.48379.11843-5.05477-.15625-7.5-.00536-.01797.00381-.01656 0-.03125zm-14.09375.90625 1.46875,1.09375-1.5.59375 .03125-1.6875zm-3.34375.84375 1.9375,1.40625-1.9375.8125v-2.21875zm-2.59375,1.375 1.65625,1.21875-1.59375.65625-.0625-1.875zm48.40625.25v2.71875l-4.625,1.8125 .03125-2.78125 4.59375-1.75zm-4.78125,1.8125-.03125,2.8125-.5.21875-2.46875-1.90625 3-1.125zm4.78125,1.1875v3.3125l-2.25.875-2.8125-2.15625 5.0625-2.03125zm0,3.53125v2.375l-2.03125-1.5625 2.03125-.8125zm0,3.875-.15625.125 15.0625,12.875-.71875-.125-.0625.1875 1.15625.28125 2.96875,2.53125 4.65625,1.71875-.09375-.34375-4.375-1.53125-2.65625-2.28125 2.0625.5 .03125-.34375-2.5-.5-15.375-13.09375zm-52.9375.5-.15625.1875 2.4375,6.28125 .3125.03125-2.59375-6.5zm46.53125,1.75c-.35619.9402-.72833,1.87586-1.09375,2.8125l-2.5-2.1875-.0625.25 2.46875,2.1875c-.89045,2.27739-1.7994,4.5466-2.71875,6.8125l-1.75-1.46875-.03125.15625 1.71875,1.46875c-.17759.43755-.35339.87508-.53125,1.3125l.25.125c.16572-.42652.33163-.85575.5-1.28125l5.59375,4.71875c-.32387.65835-.65459,1.32172-.9375,2.03125l.25.0625c.25969-.65061.54991-1.30245.84375-1.9375l8.4375,7.09375-.625,1.125 .125.1875 .65625-1.15625 1.34375,1.125 .25-.09375-1.5-1.25 3.1875-5.6875 1.03125.90625 .1875-.1875-1.0625-.96875 1.6875-3 2.375,2.21875 .1875-.125-2.46875-2.28125 .9375-1.6875-.125-.1875-.96875,1.71875-5.59375-5.1875 1.21875-2.4375-.21875-.09375-1.1875,2.375-.6875-.65625-.125.15625 .71875.6875-1.65625,3.28125-2.9375-2.59375c.29642-.70862.57528-1.42232.8125-2.15625l-.125-.0625c-.20645.76437-.46724,1.48878-.75,2.1875l-6-5.3125c.38445-.98489.76159-1.97573 1.125-2.96875l-.25-.03125zm-20.75,2.5625 .125,9.78125-1.03125.40625 .03125-9.8125 .875-.375zm.6875.25 .9375.71875-.0625,9.71875-.78125-.65625-.09375-9.78125zm-47.40625.0625 3.71875,16.53125-17.46875-13.5625 13.75-2.96875zm45.40625.21875 .03125,2.5625-2.84375,1.125v-2.5625l2.8125-1.125zm21.09375.15625 5.96875,5.3125c-.35248.84108-.74219,1.64214-1.15625,2.4375l-3.40625-2.9375-.28125.0625 3.59375,3.125c-.60782,1.15565-1.24677,2.29953-1.84375,3.5l-5.59375-4.6875c.90132-2.27437 1.82627-4.5348 2.71875-6.8125zm-17.65625.65625 5.09375,4 .03125,2.28125-5.15625-4 .03125-2.28125zm-52.5.34375-.96875,1-.65625-.53125-.15625.21875 .625.53125-2.9375,3.0625-1.90625-1.5 1.15625-1.21875-.25-.125-1,1.25-1.125-.875-.125.09375 1.125.90625-.34375.4375 .0625.0625 .40625-.40625 1.90625,1.5-.28125.28125 .25.21875 .28125-.3125 2.78125,2.21875 .21875-.0625-2.90625-2.28125 2.84375-3.125 2.3125,1.875-.25.28125h.125l.1875-.21875 2.5,2.0625 .15625-.21875-2.46875-2.03125 2.09375-2.15625-.1875-.0625-1.96875,2.15625-2.3125-1.875 .9375-1.03125-.125-.125zm46.0625.0625v2.5625l-5.78125,2.28125v-2.5l5.78125-2.34375zm3.03125,1.5625 .03125,2.65625-5.78125,2.3125v-2.625l5.75-2.34375zm-59.8125.15625 .65625.5-.15625,10.125-.59375-.4375 .09375-10.1875zm63.1875.3125 1.875,1.46875-.03125,2.71875-1.90625-1.5 .0625-2.6875zm-12.375.375v2.53125l-.25.09375-.0625-2.5 .3125-.125zm-49.71875.15625 .3125.25 .125,9.3125-.6875.34375 .25-9.90625zm48.90625.1875 .1875,4.15625-5.53125,1.9375-.09375-3.90625 .40625-.15625v3.5625l4.46875-1.5625v-3.8125l.5625-.21875zm-.875.34375 .09375,3.46875-4.03125,1.4375 .0625-3.34375 3.875-1.5625zm-47.28125.03125 2.65625,2.03125-.03125,3.15625-2.65625,1.25 .03125-6.4375zm89.96875.375 5.59375,5.1875-1.6875,3.03125-5.59375-4.9375 1.6875-3.28125zm-26.59375.125 3.125,2.4375 .03125,2.09375 2.09375,1.625v.71875l-5.25-4.125v-2.75zm-11.34375.34375v2.625 .03125l-6.8125,2.71875v-.78125l3.5625-1.34375-.0625-1.90625 3.3125-1.34375zm14.9375,0 .46875.375v3.46875l1.21875.90625v.65625l-1.75-1.3125 .0625-4.09375zm18.09375.3125 2.9375,2.625-.5625,1.125 .1875.0625 .53125-1.0625 5.5625,4.9375-3.1875,5.6875-8.4375-7.0625c.56794-1.21683 1.12775-2.42038 1.71875-3.625l3.40625,2.96875 .21875-.15625-3.5-3.03125c.39599-.81168.77048-1.6398 1.125-2.46875zm-27.0625.15625 .03125,2.75-2.625,1.03125v-2.75l2.59375-1.03125zm9.71875.09375 3.34375,2.625-.09375,3.03125-3.34375-2.375 .09375-3.28125zm-6.4375.3125 4.09375,3.21875v2.78125l-4.1875-3.21875 .09375-2.78125zm-19.1875.375 .0625,2.46875-1.96875.78125v-2.46875l1.90625-.78125zm13.125.34375v2.75l-5.78125,2.28125v-2.71875l5.78125-2.3125zm-51.9375.09375 2.5,1.90625 .0625,2.5-2.5625-1.875v-2.53125zm6.3125.375-.25.15625 2,1.59375-1.15625,1.375 .15625.1875 1.15625-1.4375 2.71875,2.15625 .15625-.15625-2.71875-2.1875 1.15625-1.40625-.09375-.15625-1.21875,1.4375-1.90625-1.5625zm30.40625.03125v2.5l-10.34375,4.125v-2.4375l10.34375-4.1875zm18.03125,1.34375v.375l-5.46875,2.125v-.3125l5.46875-2.1875zm13.34375,0 .40625.3125v4.0625l-2.96875-2.25v-.6875l2.46875,1.8125 .09375-3.25zm-10.1875.34375 1.59375,1.21875-.03125.65625-1.53125-1.21875-.03125-.65625zm-19.03125.1875 .03125,1.78125 2.84375-1.09375v.78125l-10,4v-2.59375l7.125-2.875zm7.125,0-.03125,2.75-8.8125,3.53125v-2.71875l8.84375-3.5625zm-42.8125.125 .5.375v3.59375l3.84375,2.875 .09375-3.4375 .375.28125 .0625,3.96875-4.8125-3.6875-.0625-3.96875zm51.5625.03125v.46875l-16.28125,6.4375 .0625,6.9375c-.14583-.09971-.28845-.20897-.40625-.375l-.1875-6.875 16.8125-6.59375zm7.46875.09375 5.5,4.34375-.03125,2.65625-5.46875-4.21875v-2.78125zm6.90625,0 5.125,4v2.21875l-5.125-3.9375v-2.28125zm-69.125.15625 2.125,1.5625v2.6875l-2.125-1.5625v-2.6875zm56.09375.15625 .09375,6.5625-17.03125,6.9375-.125-6.75 17.0625-6.75zm-52.125.15625 3.375,2.59375-.09375,3.1875-3.34375-2.375 .0625-3.40625zm53.9375.03125 10.90625,8.71875-.5625.21875-10.34375-8.40625v-.53125zm-1.15625.125 11,9.03125-.1875,5.9375-10.75-8.46875-.0625-6.5zm-57.40625.03125v.6875l-2.6875,1.375v-.84375l2.6875-1.21875zm60.3125.25 5.28125,4.125-.03125.6875-5.25-4.15625v-.65625zm39.84375.3125 13.125,6.53125-20.65625,8.625 7.53125-15.15625zm-50.40625.28125v.28125l-6.6875,2.59375v-.1875l6.6875-2.6875zm16.4375.21875 3.59375,2.75v-1.9375l1.71875,1.34375v2.75l-5.3125-4.15625v-.75zm-66.21875.09375-.03125,4.21875-2.625-1.96875v-.96875l2.65625-1.28125zm3,.03125 .25.1875 .0625,2.15625 5.875,4.5 .03125-2.25 .71875.5625-.03125,2.5625-6.90625-5.0625v-2.65625zm23.90625.28125-.03125,2.46875-1.125.4375-.0625-2.40625 1.21875-.5zm73.84375.46875-.28125.03125c.3288,1.01721.69205,2.02766 1.0625,3.03125l-1.4375.6875 .1875.125 1.3125-.59375c.52172,1.40489 1.08412,2.79069 1.625,4.1875-2.44917,1.1813-4.89854,2.36083-7.40625,3.28125l.0625.0625c2.52423-.88854 4.93967-2.06834 7.375-3.21875 .04892.12644.1075.24853.15625.375l.1875-.125c-.04309-.11343-.08191-.23017-.125-.34375 1.34293-.63342 2.69648-1.24848 4.0625-1.8125l.53125,1 .15625-.09375-.46875-1c.39318-.16018.79044-.32017 1.1875-.46875l-.125-.1875c-.38055.1472-.74667.31045-1.125.46875l-.96875-2.09375-.34375.125 1.0625,2.0625c-1.34525.57112-2.69946,1.20234-4.03125,1.84375-.52191-1.37652-1.02899-2.76496-1.53125-4.15625l2.53125-1.125-.1875-.3125-2.4375,1.1875c-.35155-.97867-.7053-1.95673-1.03125-2.9375zm-68.5.09375v2.59375l-9.28125,3.71875v-.375l2.84375-1.09375-.0625-2.21875 6.5-2.625zm-7.1875.1875 .1875,4.40625-5.53125,2.125 .03125-4.375 .34375-.15625 .03125,3.65625 4.4375-1.5625v-3.90625l.5-.1875zm-24.375.125 2.125,1.5625 .03125.03125 2.59375,1.90625v2.5l-4.75-3.46875v-2.53125zm23.59375.1875 .09375,3.59375-4.0625,1.4375 .09375-3.4375 3.875-1.59375zm13.375.21875v2.6875l-10.59375,4.21875v-2.65625l10.59375-4.25zm-28.40625.5625 3,2.3125v2.1875l-3.03125-2.25 .03125-2.25zm62.4375.03125 6,4.65625-.03125,2.8125-5.96875-4.71875v-2.75zm3.375.125 5.8125,4.53125-.03125,2.125-5.78125-4.46875v-2.1875zm-78.09375.0625 5.625,4.28125 7.09375,5.40625 2.5625,1.96875v.53125l-15.71875-11.875 .4375-.3125zm45.9375.0625v.1875l-4.9375,1.90625 .125,2.125-5.25,2.21875v-2.375l10.0625-4.0625zm25.59375.15625 6.09375,4.8125-.03125,2.5625-6.0625-4.6875v-2.6875zm-73.03125.0625 18.15625,13.625v2.4375c-.59751.83285-1.01596,1.75392-1.21875,2.75l-16.9375-12.4375v-6.375zm70.3125.65625 5.1875,4.03125-.03125,2.71875-.90625-.71875 .03125-1.9375-4.3125-3.375 .03125-.71875zm-46.71875.15625 .03125,2.40625-.625.25v-2.40625l.59375-.25zm-.78125.3125v2.40625l-2.75,1.125-.03125-2.375 2.78125-1.15625zm-17.59375.09375 1.90625,1.40625v.90625l-1.90625-1.4375v-.875zm4.9375.9375 6.625,4.875v2.4375l-6.625-4.84375v-2.46875zm7.25.125 .71875.53125 .03125,10.125-.8125-.59375 .0625-10.0625zm2.1875.15625 .0625,10.125-.6875.28125-.09375-10.09375 .71875-.3125zm-4.96875.1875 2.15625,1.59375v2.59375l-2.15625-1.59375v-2.59375zm-7.3125.125 2.65625,1.9375 .03125.03125 4.21875,3.09375v1.0625l-6.90625-5.1875v-.9375zm54.46875.3125 23.9375,18.875v1.21875l-2.78125-2.125-.03125-.90625-11.40625-8.875-.71875.46875-8.96875-6.875-.03125-1.78125zm-.28125.03125-.09375,1.53125-13.4375,5.40625-.75-.5625-13.8125,5.59375-.03125.84375-2.96875,1.1875c-.29468-.21945-.69385-.50555-1.09375-.78125l32.1875-13.21875zm-30.0625.15625-.03125,2.6875-8.09375,3.21875v-2.625l8.125-3.28125zm-7.78125.25 .03125,2.125 3.625-1.40625v.40625l-7.21875,2.875-.03125-2.53125 3.59375-1.46875zm78.9375,0-.25.125 1.0625,2.46875 .15625-.1875-.96875-2.40625zm-65.40625.40625v2.40625l-1.25.53125-.0625-.9375-1.65625-.75-6.71875,2.78125v-.125l9.6875-3.90625zm81.46875.03125-.28125,10.25-.75.3125-.09375-10.28125 1.125-.28125zm-33.15625.34375 .09375.0625 .0625,2.1875-.15625-.125v-2.125zm-3.125.03125 3.28125,2.5625 .0625,2.34375 3,2.28125-.03125.625-3.25-2.5625-3.0625-2.4375v-2.8125zm34.8125.0625 .15625,9.875-1.0625-.46875v-9.03125l.90625-.375zm-74.5.25 .28125,4.28125-6.75,2.75-.25-4.1875 6.71875-2.84375zm43.46875.125 .4375.34375v3.65625l3.84375,2.875 .09375-3.5 .53125.40625 .09375,4.375-4.9375-3.90625-.0625-4.25zm-10.5.0625 6.15625,4.75v1.40625l-.5.1875v.78125l-5.65625-4.40625v-2.71875zm3.5625,0 6.21875,4.9375v2.4375l-6.21875-4.78125v-2.59375zm36.625.09375 .09375,6.28125-1.21875-.78125 .03125-5.03125 1.09375-.46875zm-41.6875.0625-.09375,5.46875-.8125.4375 .21875-5.59375 .6875-.3125zm12.75.34375 3.34375,2.59375-.09375,3.25-3.34375-2.375 .09375-3.46875zm-52.71875.28125 .9375.5-14.96875,6.25v-.90625l14.03125-5.84375zm79.9375.03125v2.15625l-2.59375,1.09375-2.09375.84375 .03125-2.21875 4.65625-1.875zm-91,.96875v2.65625l-3,1.1875-.03125-2.625 3.03125-1.21875zm12.1875.03125 .3125,6.3125-7.03125,2.875-.8125-.5625-.1875-.34375c-.40165-.62214-.81762-1.20276-1.78125-1.46875-.05593.04581-.1603.07874-.25.09375-.11751.00528-.4142-.06246-.46875.09375-.11334-.05602-.20614-.12467-.3125-.1875l-.59375-.34375c-.53076-.13756-1.00236-.20079-1.40625-.1875-1.21168.03986-1.95286.68545-2.90625,1.3125-.31429.27129-.5975.54941-.875.84375l-.03125-1.59375 16.34375-6.84375zm-35.5625.25 17.09375,12.75c-.02562.35497-.03459.71912 0,1.09375l-17.21875-12.875 .125-.96875zm74.78125.0625 6.78125,5.28125v.25l-6.78125-4.96875v-.5625zm34.5.75-.03125,4.25-5.4375,2.1875-.09375-4.1875 .46875-.1875v3.6875l4.46875-1.5625v-3.9375l.625-.25zm-81.71875.1875v.125l-7.1875,2.96875v-.1875l7.1875-2.90625zm-12.90625.0625 2.375,1.75v1.125l-2.375-1.78125v-1.09375zm99.71875.0625-.03125,2.6875-2.375.96875v-2.65625l2.40625-1zm-39.625.0625 6.8125,5.25 .03125,2.65625-6.90625-5.53125 .0625-2.375zm33.59375,0 .09375,3.625-4.0625,1.40625 .09375-3.46875 3.875-1.5625zm-16.5.90625 1.59375,1.25-.03125,2.09375-1.5625-1.21875v-2.125zm19.9375.125v2.625l-9.40625,3.84375v-2.53125l.8125-.34375 .0625,2.375 6.40625-2.6875 .03125-2.40625 2.09375-.875zm-68.4375.09375 .40625.5-.46875.21875-6.78125,2.75-.03125-.53125 6.875-2.9375zm4.0625.5 1.625,1.25-13.5625,5.59375-1.25-1.46875 13.1875-5.375zm34.8125,0 6.375,4.9375 .03125.4375-5.5625-4.46875-.84375.3125v-1.21875zm3.59375.15625 6.8125,5.40625-1.96875.78125-4.84375-3.75v-2.4375zm17.28125.34375 .0625,2.15625-4.375,1.8125-.03125-2.1875 4.34375-1.78125zm-9.5625.09375 1.59375,1.25v2.125l-1.59375-1.21875v-2.15625zm21.4375.46875 1.25.8125v.90625l-1.25-.9375v-.78125zm-40.5.0625 7.125,5.625v1.4375l-8.15625-6.4375 1.03125-.625zm39.875.0625v2.8125l-6.90625,2.78125 .03125-2.6875 6.875-2.90625zm-65.125.3125v.71875l-13.75,5.53125v-.59375l13.75-5.65625zm34.03125,0 6.46875,5.21875-.90625.375-6.5625-5.1875 1-.40625zm8.59375.3125 3.3125,2.59375v.125l-2.3125.9375-3.75-2.9375 .03125-.59375 2.71875,2.09375v-2.21875zm-20.09375.125 10.71875,8.34375-1.875,1.3125-10.8125-8.34375 1.96875-1.3125zm43.21875.25 1.25.90625 .03125,1-1.28125.53125v-2.4375zm-19.28125.0625 .8125.65625v2.25c-.10753-.30703-.37835-.54954-.8125-.65625v-2.25zm2.375.3125 .21875,10.375-1.0625.4375-.03125-10.46875 .875-.34375zm-15.875.15625 6,4.625-3.03125,1.21875c-.93881.72268-1.14231,1.81076.40625,2.1875l.40625-.1875v1.0625l-3.6875-2.90625-.09375-6zm20,.6875v2.5625l-3.375,1.375-.03125-2.5 3.40625-1.4375zm-32.75.0625 10.78125,8.21875 .0625,1.03125-10.75-8.15625-.09375-1.09375zm-45.21875.40625 .78125.40625-.59375.28125c-.34491-.20233-.69091-.42472-1.03125-.625 .27741-.028.56083-.05134.84375-.0625zm-1.03125.0625 1.125.65625c-.38384.19794-.76839.43052-1.125.65625-.51143-.32064-.98641-.6494-1.5-.96875 .46825-.16601.96621-.27954 1.5-.34375zm3.0625.1875c.58112.268 1.58895.85346 1.15625,1.125-5.40087,2.12388-6.28926,5.21486-7.65625,9.21875-.54494-.31206-1.2169-.58047-1.46875-1.375 1.02706-3.58098 2.20877-7.12976 7.96875-8.96875zm81.03125.03125v2.71875l-8.40625,3.40625-.0625-2.5625 8.46875-3.5625zm7.0625,0v.71875l-2.03125.8125v-.6875l2.03125-.84375zm-92.78125.1875c.51015.32361 1.02234.64375 1.53125.96875-.41458.26733-.81381.53578-1.1875.84375-.53337-.34832-1.0859-.68434-1.625-1.03125 .35152-.35515.793-.59453 1.28125-.78125zm94.84375.0625 1.09375.5625-18.59375,7.71875-.03125-1.15625 17.53125-7.125zm-21.0625.53125c.57059-.10564 1.54097.54558.28125,1.125l-10,4.25c-1.05248-.33333-.38832-.91667-.40625-1.25 .21307.03081.74197.0598.6875.90625 .29436-.39503.70676-.70302-.0625-1.25l9.5-3.78125zm23.28125,0 .09375,6.34375-21.46875,8.6875-.03125-5.9375 21.40625-9.09375zm-29.875.125 1.75,1.34375-.375.15625-1.34375-1.0625-.03125-.4375zm23.375.03125v.6875l-9.59375,3.875 .03125-.5625 9.5625-4zm-91.9375.09375c.53505.35085 1.09438.70993 1.625,1.0625-.35766.3015-.68419.62667-1,.96875l-1.5-1.03125c.28728-.33866.56293-.68887.875-1zm13.65625.40625 1.34375,1.40625-.0625.9375-1.3125-1.3125 .03125-1.03125zm-6.34375.0625c1.31711.72968 2.63976,1.48647 3.625,2.5l-.6875.34375c-1.35121-1.00735-2.54624-1.80343-3.71875-2.53125 .257-.09918.50361-.22511.78125-.3125zm69,.0625v7.46875l-.875-.6875 .03125-5.96875 .0625-.03125c.44668-.1733.68494-.47128.78125-.78125zm-69.9375.28125c1.3096.83392 2.56901,1.67963 3.75,2.5625-.3915.20136-.75109.42896-1.125.65625-1.22489-.88862-2.54933-1.73877-3.875-2.59375 .4008-.22019.78404-.43982 1.25-.625zm-7.3125.25 1.46875,1.03125c-.27183.30025-.5123.63602-.75.96875l-1.46875-1.03125c.21724-.33606.49066-.65776.75-.96875zm5.9375.4375c1.30496.85825 2.59976,1.7233 3.84375,2.625-.42201.26347-.86049.54084-1.25.84375-1.24216-.88769-2.53581-1.75331-3.84375-2.625 .37676-.29677.7941-.58533 1.25-.84375zm69.96875.03125v.59375l-.53125-.40625 .53125-.1875zm-.71875.25 .71875.5625 .03125,2.3125-.90625-.6875v-2.125l.15625-.0625zm-.59375.25 .0625,4.15625-7.3125,2.875-.0625-3.90625 7.3125-3.125zm-75.375.09375 1.4375,1c-.23992.34292-.45442.71515-.65625,1.09375-.45486-.33091-.89245-.6698-1.34375-1 .1519-.37587.34428-.7465.5625-1.09375zm5.375.3125c1.28733.86701 2.5756,1.74095 3.8125,2.625-.37414.29861-.72836.62731-1.0625.96875l-3.8125-2.625c.30931-.34487.67635-.6556 1.0625-.96875zm68.84375.65625-.625,1.40625-.78125-1.3125 .53125,1.59375 .25.625-.21875,1.09375 .375.125 .03125-1.03125 .65625-.4375 .875-1.46875-1.21875,1.03125 .125-1.625zm-60.78125.03125c.49891.09951 1.06977.70573 1.15625,1.03125-3.31106,1.27658-6.82289,3.60846-7.40625,9.0625-.23552.33505-.96119.36423-1.5-.5625-.05706-1.05289.09486-2.00714.40625-2.90625l.03125.03125 .03125-.125c1.22433-3.38573 4.6439-5.65121 7.28125-6.53125zm-14.0625.1875c.45163.33036.89099.66957 1.34375,1-.19441.3735-.34442.74694-.5,1.15625-.38631-.27838-.77007-.53562-1.15625-.8125 .04955-.46626.14863-.91691.3125-1.34375zm4.90625.1875 3.75,2.625c-.27209.2849-.51075.5888-.75.90625l-3.75-2.5625c.21923-.33151.47547-.65521.75-.96875zm79.625.5v.53125l-3.5,1.40625v-.46875l3.5-1.46875zm-8.09375.1875 .90625.6875v.59375l-.90625-.71875v-.5625zm-72.34375.375 3.75,2.59375c-.25047.34173-.54271.64906-.75,1.03125-1.2344-.83259-2.43692-1.68377-3.625-2.53125 .17895-.38067.38739-.72535.625-1.09375zm-4.40625.1875 1.125.8125c-.13767.37217-.30202.78485-.40625,1.1875l-.5-.375c-.07292-.20721-.11348-.4337-.21875-.625-.03753-.33325-.02579-.6856 0-1zm15.4375,0c.36444.38795.75542.79459 1.09375,1.21875-.10738-.00839-.2085.00172-.3125,0-.4277-.37606-.81363-.72451-1.21875-1.0625 .15514-.05179.27468-.10861.4375-.15625zm-.625.21875c.40364.33018.83428.66292 1.21875,1-.55136.0119-1.07188.10464-1.53125.28125-.31004-.26269-.64421-.49217-.96875-.75 .39088-.19275.82593-.3717 1.28125-.53125zm57.5.03125c-.23623-.00107-.45065.19061-.5625.6875l.125.4375c.4604-1.20045 1.57446.24002.4375.625l.3125.3125c1.27901-.33284.3962-2.0593-.3125-2.0625zm4.4375.25 .90625.75v.96875l-.90625-.71875v-1zm-11.59375.125 .21875.875-2.34375,1.625 .0625-1.09375 2.0625-1.40625zm5.9375.03125c-1.26639.03883-1.95949.77465-1.5625,1.3125h.0625c1.14336-.08399 1.54532-.84561 1.5625-1.25l-.0625-.0625zm.15625,0c.19232.83242-.87251,1.52785-1.75,1.5l1.375,1.25c.66479-.21325 1.41454-.39252 1.25-.9375l-.875-1.8125zm-57.84375.1875c.31621.24569.62896.4675.9375.71875-.45354.19281-.81649.49923-1.1875.8125-.33442-.25805-.65838-.52518-1-.78125 .37608-.27591.79032-.51374 1.25-.75zm-9.65625.21875c1.19655.85747 2.39011,1.69634 3.625,2.53125-.18955.36177-.38477.72461-.53125,1.125-.00272.0074.00269.02382 0,.03125-1.19929-.81911-2.38441-1.69276-3.5625-2.53125 .12644-.3934.29096-.76459.46875-1.15625zm12.53125.5c.04678-.00258.26514.22028.3125.21875 .08371,1.96934-.51835,3.41715-1.5,4.5625-.16361.19088-.31659.38671-.5.5625s-.39373.33885-.59375.5c-.9298.74909-1.99971,1.36097-3.125,1.9375-.12233-.13911-.23681-.31686-.28125-.5-.00959-.03951-.36797-.2711-.375-.3125s.38006.10909.375.0625c-.09548-.40066-.00601-.76079.03125-1.125 .01235-.05065-.23193-.26161-.21875-.3125s.29881.08132.3125.03125c.10753-.39333.25413-.78018.40625-1.15625 .01492-.0369-.26536-.21333-.25-.25 .01433-.03424.32905.06529.34375.03125 .13633-.3159.27028-.61059.4375-.90625 .02148-.03801-.14699-.24363-.125-.28125s.22883.06632.25.03125c.18002-.29852.37274-.58083.59375-.84375 .03455-.04112-.16047-.24108-.125-.28125 .04134-.04684.3324.07678.375.03125 .24834-.26554.52137-.50312.8125-.71875 .04726-.035-.20464-.27896-.15625-.3125s.41786.15785.46875.125c.31058-.20052.61274-.39545.96875-.53125 .06203-.02365-.12593-.32224-.0625-.34375 .0684-.02321.39871.23939.46875.21875 .37503-.11062.79644-.18743 1.21875-.21875 .03945-.00293-.10238-.21658-.0625-.21875zm-4.28125.125c.3427.25378.69203.5269 1.03125.78125-.32017.28625-.64245.59211-.90625.9375l-1.125-.8125c.30087-.32183.62083-.61703 1-.90625zm4.96875.09375c.09018.002.18911-.00569.28125,0 .14859.29396.2629.59755.34375.875l-.65625-.46875c.00568-.13295.02778-.26866.03125-.40625zm-16.625.03125c.12074.08934.22416.22134.34375.3125-.18463-.07051-.26572-.19393-.34375-.3125zm76.0625,0 2.5625,2v6.1875l-7.8125-6.15625 5.25-2.03125zm25.25.15625 .1875,1.09375-22.46875,8.84375-9.78125-7.46875 1.03125-.40625 8.65625,6.8125 22.375-8.875zm-98.40625.40625c1.177.83948 2.36172,1.65143 3.5625,2.46875-.14314.40873-.24977.8612-.34375,1.3125-1.20129-.81353-2.39783-1.66786-3.5625-2.53125 .08472-.41908.21063-.81871.34375-1.25zm13.6875.03125 .71875.4375c.09763.40377.08677.78429.0625,1.15625l-.84375-.59375c.0404-.31791.04371-.65241.0625-1zm-6,.3125 1.125.8125c-.238.32199-.42872.62289-.625.96875l-1.25-.84375c.21437-.32161.4772-.63592.75-.9375zm7.03125,0-.15625.125-.03125-.03125c-.02199-.07022.12939-.0613.1875-.09375zm.34375.5c.49892.09952 1.06977.70573 1.15625,1.03125-.44737.17248-.89869.37119-1.34375.59375 .01367-.07371.05436-.14355.0625-.21875 .00807-.07472-.31718-.33066-.3125-.40625s.31147.01796.3125-.0625c.00363-.28754.01267-.57478-.03125-.875 .05255-.01946.10571-.04563.15625-.0625zm-17.59375.40625c.33379.3426.71511.7074 1.15625,1l-.21875.125c-.51143-.32064-1.01766-.6494-1.53125-.96875 .19082-.06766.39287-.10916.59375-.15625zm16.125,0 .875.625c-.03899.30505-.11501.58885-.21875.875-.28268-.21078-.56003-.44472-.84375-.65625 .06916-.26863.14398-.55317.1875-.84375zm-13.96875.125c1.16263.86482 2.36267,1.71756 3.5625,2.53125-.05584.28685-.12161.57024-.15625.875-1.30686-.86128-2.48449-1.80222-3.53125-2.8125 .03034-.19665.08578-.3916.125-.59375zm7.25.03125 1.25.84375c-.19754.35708-.40283.7073-.5625,1.0625-.44121-.27943-.84921-.56135-1.28125-.84375 .16969-.37025.36456-.70648.59375-1.0625zm-10.09375.03125c.51015.32361 1.02234.64375 1.53125.96875-.41458.26732-.84506.56703-1.21875.875-.53337-.34832-1.0859-.68434-1.625-1.03125 .35152-.35515.82425-.62578 1.3125-.8125zm-1.375.875c.53505.35085 1.06313.70993 1.59375,1.0625-.35766.3015-.68419.59542-1,.9375l-1.46875-1c.28728-.33866.56293-.68887.875-1zm17.9375,0 .875.5625c-.09799.24744-.23996.48371-.375.71875l-.78125-.46875c.11783-.2583.19978-.53404.28125-.8125zm-14.53125.0625c.19174.10831.37952.19754.59375.25 .00541-.04779.02529-.10808.03125-.15625 .35419.30572.72432.60552 1.09375.90625-3.57235,2.04838-4.39554,4.76951-5.5625,8.1875-.54494-.31206-1.2169-.58047-1.46875-1.375 .84444-2.94425 1.80244-5.84957 5.3125-7.8125zm7.40625.21875c.43054.2811.84191.5691 1.28125.84375-.18549.42091-.32718.81185-.46875,1.1875-.4349-.27988-.8823-.55916-1.3125-.84375 .12236-.40718.3219-.78424.5-1.1875zm9.28125.09375c.40364.33019.83428.66292 1.21875,1-.55136.0119-1.07188.10464-1.53125.28125-.19143-.16219-.39187-.31739-.59375-.46875 .03109-.08623.06578-.16283.09375-.25 .01002-.03124-.05485-.08745-.125-.15625 .07433-.03336.1421-.09267.21875-.125 .23665-.09981.46544-.19249.71875-.28125zm-2.5.53125 .78125.5c-.12758.21068-.28881.42298-.4375.625l-.65625-.5c.12973-.19776.21139-.41638.3125-.625zm-18.53125.15625 1.46875,1.03125c-.27183.30026-.5123.60477-.75.9375l-1.46875-1c.21724-.33606.49066-.65776.75-.96875zm6.34375.21875c.67848.54241 1.37137,1.08542 2.125,1.59375-.00632.0544.00349.10377 0,.15625-.79814-.54599-1.61188-1.09252-2.4375-1.625 .09634-.05293.2092-.0796.3125-.125zm13.75.03125c.17108.13357.33778.27415.5.40625-.35746.15197-.66732.36114-.96875.59375 .09391-.15956.16717-.33666.25-.5 .02475-.04883-.21094-.23197-.1875-.28125 .02502-.05263.32028.0219.34375-.03125 .02755-.06236.03791-.12413.0625-.1875zm-14.1875.1875c.84965.55881 1.69984,1.11513 2.53125,1.6875-.0014.02173.00172.04006 0,.0625 .4047.4973.77025.78961 1.1875.96875-.37474.23845-.74527.479-1.09375.75-1.24216-.88768-2.53581-1.78456-3.84375-2.65625 .37676-.29677.76285-.55408 1.21875-.8125zm5.3125.125c.42039.27741.85586.53947 1.28125.8125-.04946.13254-.11149.28386-.15625.40625-.03799.30065-.03191.60043-.03125.875-.44879-.26387-.90378-.53733-1.34375-.8125 .07862-.41578.12718-.85464.25-1.28125zm6.875.0625 .6875.46875c-.16506.21746-.35201.41598-.53125.625l-.6875-.5c.18469-.19961.38434-.38453.53125-.59375zm4.40625.03125c.04678-.00258.26514.18903.3125.1875 .08371,1.96934-.51835,3.4484-1.5,4.59375-.1636.19088-.31659.38671-.5.5625s-.39373.3076-.59375.46875c-.92979.74909-1.99971,1.36097-3.125,1.9375-.12233-.13911-.20556-.31686-.25-.5-.00877-.03613-.31384-.2162-.375-.28125 .05723-.00292.34831.10443.34375.0625-.09548-.40066-.00601-.76079.03125-1.125 .01235-.05065-.23193-.29286-.21875-.34375s.29881.08132.3125.03125c.10753-.39333.25413-.78018.40625-1.15625 .01492-.0369-.26536-.18208-.25-.21875 .01432-.03424.32905.03404.34375,0 .13632-.3159.27028-.61058.4375-.90625 .02149-.03801-.14699-.21238-.125-.25s.22883.06632.25.03125c.18002-.29852.37274-.58083.59375-.84375 .02591-.03084-.05548-.14364-.09375-.21875l.0625-.0625c.1013.01287.2493.0654.28125.03125 .24834-.26554.52137-.50312.8125-.71875 .04726-.035-.20464-.27896-.15625-.3125s.41786.1266.46875.09375c.31058-.20052.61274-.3642.96875-.5 .06203-.02365-.12593-.35349-.0625-.375 .0684-.02321.39871.27064.46875.25 .37504-.11062.79644-.21868 1.21875-.25 .03945-.00293-.10238-.18533-.0625-.1875zm.71875.21875c.09018.002.15786-.00569.25,0 .14859.29396.2629.59755.34375.875l-.625-.5c.00568-.13295.02778-.23741.03125-.375zm-24.03125.1875 1.46875,1c-.23992.34293-.48567.6839-.6875,1.0625-.45486-.33091-.89245-.6698-1.34375-1 .1519-.37586.34428-.71525.5625-1.0625zm19.96875.1875c.0324-.04926.33686.08814.40625.0625-.05783.04587-.13088.07719-.1875.125-.07178-.05539-.1495-.10019-.21875-.15625-.00504-.00408.00506-.02718 0-.03125zm-14.5625.09375c1.28733.86701 2.54435,1.7722 3.78125,2.65625-.37414.29861-.69711.59606-1.03125.9375l-3.8125-2.59375c.30931-.34487.67635-.68685 1.0625-1zm12.84375,0 .6875.5c-.16398.18817-.30184.37983-.46875.5625-.01317.01204-.01799.05053-.03125.0625l-.78125-.625c.20374-.16889.42308-.32584.59375-.5zm5.71875.125 .71875.46875c.09762.40377.11802.78429.09375,1.15625l-.875-.625c.04039-.31791.04371-.65241.0625-1zm-12.21875.5c.45201.28082.91346.5765 1.375.84375 .01091.25431.04638.4944.125.71875-.57418-.25345-1.09959-.53867-1.625-.8125 .03448-.24359.07943-.49759.125-.75zm5.78125,0 .8125.59375c-.21039.18274-.41924.3408-.65625.5l-.75-.65625c.21185-.14334.4094-.29159.59375-.4375zm1.875.09375c.00776-.00938.06038-.00788.09375,0l-.0625.0625c-.01084-.01952-.03768-.05474-.03125-.0625zm-20,.15625c.45163.33036.89099.66957 1.34375,1-.19441.3735-.34442.77819-.5,1.1875-.38631-.27838-.77007-.56687-1.15625-.84375 .04955-.46626.14863-.91691.3125-1.34375zm4.875.21875 3.78125,2.59375c-.27209.28491-.542.62005-.78125.9375l-3.75-2.59375c.21923-.33151.47547-.62396.75-.9375zm12.4375.09375 .8125.625c-.27099.17239-.56576.29929-.875.4375l-.75-.53125c.30821-.16977.54763-.36002.8125-.53125zm7.15625.1875 .875.59375c-.03899.30505-.11501.58885-.21875.875l-.84375-.625c.06916-.26862.14398-.55317.1875-.84375zm-5.15625.0625c.02707-.02667.12456-.00208.21875.03125-.05173.07711-.07651.17162-.125.25-.04353-.10741-.13019-.24536-.09375-.28125zm-2.96875.375 .78125.5c-.2816.11878-.59021.22472-.90625.3125l-.59375-.4375c.24791-.12105.49445-.25418.71875-.375zm-4.1875.03125c.41532.24039.82044.48624 1.25.71875-2.69205,1.41487-5.14716,3.78249-5.625,8.25-.23552.33505-.92994.36423-1.46875-.5625-.05706-1.05289.09486-2.00714.40625-2.90625 .01008.00683.02116-.00684.03125,0v-.09375c.84575-2.33881 2.75478-4.13149 4.71875-5.3125 .19146.0469.4013.10146.625.125 .00829-.07331.05289-.14454.0625-.21875zm7.03125.1875c-.04191.07262-.0831.14491-.125.21875l-.0625-.03125c.06932-.05864.12043-.12756.1875-.1875zm-15.09375.09375 3.71875,2.59375c-.25047.34173-.51146.68031-.71875,1.0625-1.2344-.83259-2.46817-1.68377-3.65625-2.53125 .17895-.38067.41864-.7566.65625-1.125zm14.5625.0625c.01518-.0128.05834.02066.09375.03125l.25.15625c-.19754.35709-.37158.7073-.53125,1.0625-.23523-.14898-.45538-.31715-.6875-.46875-.02535-.07416-.10086-.19806-.0625-.21875 .05718-.03084.35074.12601.40625.09375 .37331.28939.38644-.18049.5625-.34375 .04423-.03816-.07641-.27447-.03125-.3125zm-3.125.0625 .53125.4375-.28125.0625c-.37444-.05481-.62856-.11205-.84375-.21875l.59375-.28125zm-15.875.09375 1.125.8125c-.13767.37217-.27077.7536-.375,1.15625-.1655-.12422-.33438-.22067-.5-.34375-.07292-.2072-.14473-.46495-.25-.65625-.03753-.33325-.02579-.65435 0-.96875zm24.5625.09375 .875.5625c-.09799.24744-.23996.48371-.375.71875l-.78125-.5c.11783-.2583.19978-.50279.28125-.78125zm-10.34375.375c.28299.14799.58168.29571.875.4375 .13003.08434.55076.19505.875.3125-.52496.01756-.99624.1116-1.4375.28125-.31004-.26269-.64421-.49217-.96875-.75 .20119-.09921.43334-.18804.65625-.28125zm3.8125.25c.24106.15534.47714.31771.71875.46875-.18549.42091-.35843.8431-.5,1.21875l-.4375-.28125c-.08759-.24316-.17624-.49502-.3125-.75-.07885-.09092-.22089-.18803-.3125-.28125 .00796-.01734-.02406-.04117-.03125-.0625l.0625-.15625c.10391.05371.19444.10266.21875.09375 .20506-.07515.40429-.16172.59375-.25zm-4.625.125c.31621.24569.66021.4675.96875.71875-.45354.19282-.81649.46798-1.1875.78125-.33442-.25805-.68963-.49393-1.03125-.75 .37608-.27591.79032-.51374 1.25-.75zm10.8125.15625 .78125.5c-.12758.21068-.28881.42298-.4375.625l-.65625-.5c.12973-.19776.21139-.41638.3125-.625zm-20.46875.03125c1.19655.85747 2.42136,1.69634 3.65625,2.53125-.18955.36178-.38477.75586-.53125,1.15625-.00272.00741-.02856-.00743-.03125,0-1.19929-.81911-2.38441-1.66151-3.5625-2.5 .12644-.3934.29096-.79584.46875-1.1875zm12.5625.53125c.04678-.00258.26514.18903.3125.1875 .08371,1.96934-.51835,3.4484-1.5,4.59375-.16361.19088-.31659.38671-.5.5625s-.39373.33885-.59375.5c-.9298.74909-1.99971,1.32972-3.125,1.90625-.12233-.13911-.23681-.31686-.28125-.5-.00958-.03951-.39922-.2711-.40625-.3125s.38006.14034.375.09375c-.09548-.40066.02524-.76079.0625-1.125 .01235-.05065-.26318-.29286-.25-.34375s.33006.11257.34375.0625c.10754-.39333.22288-.81143.375-1.1875 .01492-.0369-.23411-.18208-.21875-.21875 .01433-.03424.32905.06529.34375.03125 .13633-.3159.27028-.64183.4375-.9375 .02149-.03801-.17824-.21238-.15625-.25s.26008.06632.28125.03125c.18002-.29852.37274-.58083.59375-.84375 .03455-.04112-.19172-.24108-.15625-.28125 .04134-.04684.36365.07678.40625.03125 .24834-.26554.52137-.50312.8125-.71875 .04726-.035-.20464-.27896-.15625-.3125s.38661.1266.4375.09375c.31058-.20052.61274-.3642.96875-.5 .06203-.02365-.09468-.35349-.03125-.375 .0684-.02321.39871.27064.46875.25 .37503-.11062.76519-.18743 1.1875-.21875 .03945-.00293-.07113-.21658-.03125-.21875zm-4.28125.125c.3427.25378.66078.49565 1,.75-.32018.28625-.6112.62336-.875.96875l-1.15625-.8125c.30087-.32183.65208-.61703 1.03125-.90625zm11.75.0625 .6875.5c-.16507.21746-.35201.41598-.53125.625l-.6875-.5c.1847-.19961.38434-.41578.53125-.625zm-6.78125.03125h.0625c.09498.06205.18691.12698.28125.1875 .1135.23292.21773.4695.28125.6875l-.65625-.5c.00568-.13295.02778-.23741.03125-.375zm-16.65625.03125c.12699.09397.24856.1859.375.28125-.00199.00797.00197.02327 0,.03125-.18463-.0705-.29697-.19393-.375-.3125zm17.53125.5c.10236.06507.20856.12079.3125.1875-.04946.13254-.08024.28386-.125.40625-.0054.04273.00484.08237 0,.125-.09703-.0802-.23598-.17398-.25-.21875-.02932-.09362.2145-.06159.1875-.15625-.03304-.11583-.08688-.22756-.125-.34375zm-14.625.03125c1.17701.83949 2.39297,1.68268 3.59375,2.5-.14314.40874-.28102.82995-.375,1.28125-1.20129-.81353-2.39783-1.63661-3.5625-2.5 .08472-.41908.21063-.84996.34375-1.28125zm13.71875.03125 .71875.46875c.06508.26918.06568.52838.0625.78125-.28222-.16558-.56651-.33028-.84375-.5 .02761-.24427.04842-.48956.0625-.75zm6.15625.125 .6875.46875c-.16398.18817-.30184.41108-.46875.59375l-.03125.03125-.78125-.59375c.20375-.16889.42308-.32584.59375-.5zm-12.1875.21875 1.15625.78125c-.238.32199-.45997.65414-.65625,1l-1.21875-.84375c.21437-.3216.44595-.63592.71875-.9375zm11.46875.40625 .8125.5625c-.21039.18274-.41924.37205-.65625.53125l-.75-.65625c.21185-.14334.4094-.29159.59375-.4375zm-5.53125.15625c.28656.17476.58266.33395.875.5-.00301.07308.00472.14642 0,.21875l-.875-.625c.00375-.02954-.00364-.06392 0-.09375zm-.03125.34375 .875.59375c-.009.0704-.01842.14777-.03125.21875-.31681-.14301-.63404-.2842-.9375-.4375 .02866-.12661.07429-.24509.09375-.375zm4.75.0625 .84375.59375c-.27098.17239-.59701.33054-.90625.46875l-.75-.53125c.30821-.16977.54763-.36002.8125-.53125zm-18.6875.0625c1.16263.86482 2.33142,1.71756 3.53125,2.53125-.05584.28685-.09036.53899-.125.84375-1.30686-.86128-2.48449-1.77096-3.53125-2.78125 .03034-.19665.08578-.3916.125-.59375zm7.25,0 1.21875.875c-.19754.35709-.37158.7073-.53125,1.0625-.44121-.27943-.88046-.56134-1.3125-.84375 .1697-.37025.39581-.73773.625-1.09375zm7.8125.40625c.02061-.00026.03596.02738.0625.03125 .00894.07436.0161.14715.03125.21875-.07191-.09059-.15859-.18095-.15625-.21875 .00123-.01988.03305-.03088.0625-.03125zm2.65625.15625 .78125.5c-.2816.11878-.59021.22472-.90625.3125l-.59375-.4375c.24791-.12105.49445-.25418.71875-.375zm-3.96875.15625c.28655.1635.58082.34188.875.5-.01637.0515-.01315.10631-.03125.15625-.28268-.21078-.56003-.44472-.84375-.65625zm-.03125.21875 .84375.5625c-.09799.24744-.20871.48371-.34375.71875l-.8125-.5c.11783-.2583.23103-.50279.3125-.78125zm3.1875.03125 .53125.4375-.28125.0625c-.37444-.05481-.62856-.11205-.84375-.21875l.59375-.28125zm-10.34375.25c.43054.2811.87316.53785 1.3125.8125-.18549.42091-.32718.8431-.46875,1.21875-.43489-.27988-.8823-.55916-1.3125-.84375 .12237-.40718.29065-.78424.46875-1.1875zm6.78125.625 .78125.5c-.12758.21068-.25756.42298-.40625.625l-.6875-.5c.12973-.19776.21139-.41638.3125-.625zm-7.28125.6875c.4204.27741.85586.57072 1.28125.84375-.04946.13254-.11149.25261-.15625.375-.03799.30065-.06316.60043-.0625.875-.44879-.26387-.87253-.50608-1.3125-.78125 .07862-.41578.12718-.88589.25-1.3125zm6.84375.0625 .6875.5c-.16506.21746-.35201.41598-.53125.625l-.65625-.5c.18469-.19961.35309-.41578.5-.625zm-.625.75 .6875.46875c-.16398.18817-.30184.41108-.46875.59375l-.03125.03125-.78125-.59375c.20374-.16889.42308-.32584.59375-.5zm-6.5.625c.45201.28082.88221.54525 1.34375.8125 .01092.25431.07763.52565.15625.75-.57418-.25345-1.13084-.53867-1.65625-.8125 .03448-.24359.11068-.49759.15625-.75zm5.78125,0 .8125.5625c-.21039.18274-.41924.37205-.65625.53125l-.75-.65625c.21185-.14334.4094-.29159.59375-.4375zm-.8125.5625 .8125.59375c-.27099.17239-.59701.33054-.90625.46875l-.75-.53125c.30821-.16977.57888-.36002.84375-.53125zm-.96875.625 .75.5c-.2816.11878-.59021.22472-.90625.3125l-.5625-.4375c.24791-.12105.49445-.25418.71875-.375zm-.84375.40625 .53125.4375-.25.0625c-.37444-.05481-.65981-.0808-.875-.1875 .2141-.09626.39514-.21681.59375-.3125z" fill-rule="evenodd"/>
</svg>
