<?xml version="1.0" encoding="UTF-8"?>
<svg viewBox="0 0 128 128" xmlns="http://www.w3.org/2000/svg" xmlns:xlink="http://www.w3.org/1999/xlink">
 <defs>
  <filter id="bk">
   <feGaussianBlur stdDeviation="2.32253"/>
  </filter>
  <linearGradient id="c">
   <stop stop-color="#bb8f56" offset="0"/>
   <stop stop-color="#d1af63" offset="1"/>
  </linearGradient>
  <linearGradient id="a">
   <stop stop-color="#6a3c1d" offset="0"/>
   <stop stop-color="#8f5127" offset="1"/>
  </linearGradient>
  <linearGradient id="b">
   <stop stop-color="#cfc7a9" offset="0"/>
   <stop stop-color="#eeebe0" offset="1"/>
  </linearGradient>
  <linearGradient id="e" x1="97.05" x2="102.53" y1="46.771" y2="38.816" gradientUnits="userSpaceOnUse">
   <stop stop-color="#004300" offset="0"/>
   <stop stop-color="#006200" offset="1"/>
  </linearGradient>
  <linearGradient id="d" x1="68.324" x2="71.418" y1="51.632" y2="44.561" gradientUnits="userSpaceOnUse">
   <stop stop-color="#4f0000" offset="0"/>
   <stop stop-color="#610000" offset="1"/>
  </linearGradient>
  <linearGradient id="bj" x1="50.249" x2="37.362" y1="88.303" y2="70.659" gradientUnits="userSpaceOnUse" xlink:href="#a"/>
  <linearGradient id="bi" x1="31.222" x2="50.249" y1="82.205" y2="95.351" gradientUnits="userSpaceOnUse" xlink:href="#a"/>
  <linearGradient id="bh" x1="57.859" x2="108.37" y1="95.957" y2="53.059" gradientUnits="userSpaceOnUse" xlink:href="#a"/>
  <linearGradient id="bg" x1="95.688" x2="96.202" y1="71.406" y2="59.656" gradientUnits="userSpaceOnUse" xlink:href="#a"/>
  <linearGradient id="bf" x1="108.47" x2="107.25" y1="69.076" y2="63.826" gradientUnits="userSpaceOnUse" xlink:href="#a"/>
  <linearGradient id="be" x1="109.31" x2="110.38" y1="68.938" y2="62.582" gradientUnits="userSpaceOnUse" xlink:href="#a"/>
  <linearGradient id="bd" x1="111.38" x2="111.31" y1="64.406" y2="65.844" gradientUnits="userSpaceOnUse" xlink:href="#a"/>
  <linearGradient id="bc" x1="104.62" x2="112.19" y1="82.812" y2="47.375" gradientUnits="userSpaceOnUse" xlink:href="#a"/>
  <linearGradient id="bb" x1="118.38" x2="119.12" y1="55.656" y2="66.156" gradientUnits="userSpaceOnUse" xlink:href="#a"/>
  <linearGradient id="ba" x1="113.5" x2="115.25" y1="56.375" y2="57.312" gradientUnits="userSpaceOnUse" xlink:href="#a"/>
  <linearGradient id="az" x1="116.38" x2="116.5" y1="62.906" y2="65" gradientUnits="userSpaceOnUse" xlink:href="#a"/>
  <linearGradient id="ay" x1="114.44" x2="113.88" y1="69.562" y2="70.125" gradientUnits="userSpaceOnUse" xlink:href="#a"/>
  <linearGradient id="ax" x1="109.81" x2="108.88" y1="74.688" y2="74.75" gradientUnits="userSpaceOnUse" xlink:href="#a"/>
  <linearGradient id="aw" x1="104.5" x2="105" y1="71.375" y2="71.75" gradientUnits="userSpaceOnUse" xlink:href="#a"/>
  <linearGradient id="av" x1="102.31" x2="102.47" y1="66.625" y2="67.281" gradientUnits="userSpaceOnUse" xlink:href="#a"/>
  <linearGradient id="au" x1="103.25" x2="103.38" y1="66.5" y2="68.812" gradientUnits="userSpaceOnUse" xlink:href="#a"/>
  <linearGradient id="at" x1="103.94" x2="103.12" y1="60.562" y2="61.219" gradientUnits="userSpaceOnUse" xlink:href="#a"/>
  <linearGradient id="as" x1="107.88" x2="107" y1="55.125" y2="55.188" gradientUnits="userSpaceOnUse" xlink:href="#a"/>
  <linearGradient id="ar" x1="56.825" x2="57.34" y1="97.122" y2="85.372" gradientUnits="userSpaceOnUse" xlink:href="#a"/>
  <linearGradient id="aq" x1="69.607" x2="68.388" y1="94.792" y2="89.542" gradientUnits="userSpaceOnUse" xlink:href="#a"/>
  <linearGradient id="ap" x1="70.45" x2="71.513" y1="94.654" y2="88.298" gradientUnits="userSpaceOnUse" xlink:href="#a"/>
  <linearGradient id="ao" x1="72.513" x2="72.45" y1="90.122" y2="91.56" gradientUnits="userSpaceOnUse" xlink:href="#a"/>
  <linearGradient id="an" x1="65.763" x2="73.325" y1="108.53" y2="73.091" gradientUnits="userSpaceOnUse" xlink:href="#a"/>
  <linearGradient id="am" x1="79.513" x2="80.263" y1="81.372" y2="91.872" gradientUnits="userSpaceOnUse" xlink:href="#a"/>
  <linearGradient id="al" x1="74.638" x2="76.388" y1="82.091" y2="83.029" gradientUnits="userSpaceOnUse" xlink:href="#a"/>
  <linearGradient id="ak" x1="77.513" x2="77.638" y1="88.622" y2="90.716" gradientUnits="userSpaceOnUse" xlink:href="#a"/>
  <linearGradient id="aj" x1="75.575" x2="75.013" y1="95.279" y2="95.841" gradientUnits="userSpaceOnUse" xlink:href="#a"/>
  <linearGradient id="ai" x1="70.95" x2="70.013" y1="100.4" y2="100.47" gradientUnits="userSpaceOnUse" xlink:href="#a"/>
  <linearGradient id="ah" x1="65.638" x2="66.138" y1="97.091" y2="97.466" gradientUnits="userSpaceOnUse" xlink:href="#a"/>
  <linearGradient id="ag" x1="64.388" x2="64.513" y1="92.216" y2="94.529" gradientUnits="userSpaceOnUse" xlink:href="#a"/>
  <linearGradient id="af" x1="63.45" x2="63.607" y1="92.341" y2="92.997" gradientUnits="userSpaceOnUse" xlink:href="#a"/>
  <linearGradient id="ae" x1="65.075" x2="64.263" y1="86.279" y2="86.935" gradientUnits="userSpaceOnUse" xlink:href="#a"/>
  <linearGradient id="ad" x1="69.013" x2="68.138" y1="80.841" y2="80.904" gradientUnits="userSpaceOnUse" xlink:href="#a"/>
  <linearGradient id="ac" x1="23.604" x2="24.118" y1="85.59" y2="73.84" gradientUnits="userSpaceOnUse" xlink:href="#a"/>
  <linearGradient id="ab" x1="32.541" x2="40.104" y1="96.996" y2="61.559" gradientUnits="userSpaceOnUse" xlink:href="#a"/>
  <linearGradient id="aa" x1="37.729" x2="36.791" y1="88.871" y2="88.934" gradientUnits="userSpaceOnUse" xlink:href="#a"/>
  <linearGradient id="z" x1="32.416" x2="32.916" y1="85.559" y2="85.934" gradientUnits="userSpaceOnUse" xlink:href="#a"/>
  <linearGradient id="y" x1="30.229" x2="30.385" y1="80.809" y2="81.465" gradientUnits="userSpaceOnUse" xlink:href="#a"/>
  <linearGradient id="x" x1="38.692" x2="35.62" y1="59.212" y2="67.211" gradientUnits="userSpaceOnUse" xlink:href="#b"/>
  <linearGradient id="w" x1="46.139" x2="39.289" y1="70.724" y2="59.543" gradientUnits="userSpaceOnUse" xlink:href="#a"/>
  <linearGradient id="v" x1="39.421" x2="39.863" y1="72.669" y2="71.608" gradientUnits="userSpaceOnUse" xlink:href="#c"/>
  <linearGradient id="u" x1="47.774" x2="50.116" y1="68.051" y2="69.288" gradientUnits="userSpaceOnUse" xlink:href="#c"/>
  <linearGradient id="t" x1="41.763" x2="44.194" y1="60.803" y2="60.449" gradientUnits="userSpaceOnUse" xlink:href="#a"/>
  <linearGradient id="s" x1="33.72" x2="36.858" gradientUnits="userSpaceOnUse" xlink:href="#b"/>
  <linearGradient id="r" x1="31.555" x2="35.046" y1="59.632" y2="59.145" gradientUnits="userSpaceOnUse" xlink:href="#b"/>
  <linearGradient id="q" x1="29.072" x2="32.88" y1="49.512" y2="50.528" gradientUnits="userSpaceOnUse" xlink:href="#b"/>
  <linearGradient id="p" x1="35.134" x2="37.432" y1="43.876" y2="47.324" gradientUnits="userSpaceOnUse" xlink:href="#b"/>
  <linearGradient id="o" x1="49.453" x2="47.288" y1="49.688" y2="51.677" gradientUnits="userSpaceOnUse" xlink:href="#b"/>
  <linearGradient id="n" x1="57.276" x2="54.933" y1="58.925" y2="60.825" gradientUnits="userSpaceOnUse" xlink:href="#b"/>
  <linearGradient id="m" x1="58.911" x2="56.613" y1="70.857" y2="71.078" gradientUnits="userSpaceOnUse" xlink:href="#b"/>
  <linearGradient id="l" x1="59.662" x2="55.773" y1="78.016" y2="77.84" gradientUnits="userSpaceOnUse" xlink:href="#b"/>
  <linearGradient id="k" x1="67.409" x2="87.086" y1="70.543" y2="16.749" gradientUnits="userSpaceOnUse" xlink:href="#b"/>
  <linearGradient id="j" x1="26.174" x2="29.66" y1="106.35" y2="108.43" gradientUnits="userSpaceOnUse" xlink:href="#a"/>
  <linearGradient id="i" x1="28.467" x2="30.346" y1="107.44" y2="108.24" gradientUnits="userSpaceOnUse" xlink:href="#a"/>
  <linearGradient id="h" x1="13.638" x2="28.559" y1="112.16" y2="121.76" gradientUnits="userSpaceOnUse" xlink:href="#a"/>
  <linearGradient id="g" x1="19.08" x2="19.692" y1="114.06" y2="112.65" gradientUnits="userSpaceOnUse" xlink:href="#a"/>
  <linearGradient id="f" x1="31.923" x2="33.33" y1="121.55" y2="121.92" gradientUnits="userSpaceOnUse" xlink:href="#a"/>
 </defs>
 <path d="m14.319 124.11 3.133-9.4449-5.9599-1.5742 1.5182-3.7266 6.3951 3.1208 10.048-22.366-11.599-8.6126 11.844-10.783-6.8943-8.1317 53.563-27.577 31.466 21.213s0.35356 15.026-2.8284 14.319-13.965 0.53033-13.965 0.53033l-14.319 9.8995s2.4749 9.0156-0.35355 10.253-12.728 0.53033-12.728 0.53033l-15.026 7.4246-16.655-7.6014-10.392 23.511 10.253 4.773-1.2374 2.4749-8.8388-4.4194-2.4749 6.5407-4.9498-0.35356z" fill-opacity=".66667" fill-rule="evenodd" filter="url(#bk)"/>
 <path d="m33.853 43.501 3.0936-0.35355 4.0659 0.17678 4.773 2.5633 5.4801 3.9775 3.0052 3.2704 3.7123 3.9775 0.35355 1.0607 2.9762 25.639 15.438-10.5 19.875-13.812 13.812-8.875-0.9375-8-0.9375-7.4375-1.5-11.125-6.625-7.75-5.125-4.125-5.25-2.625-4.375-0.375-3.5625 0.6875-2.8125 2.25-1.75 1.875-1 2.625-1.6875 2-2.125 2.0625-3.375 3.0625-6 4.25-4.125 2.4375-3.6875 2.0625-4.875 2.875-6.9375 3.5-9.8973 4.6257z" fill="url(#k)" fill-rule="evenodd"/>
 <path d="m52.238 89.686 43.935-29.665 14.27-9.946-0.95135 11.157-27.07 18.508-27.676 19.2-2.5081-9.254z" fill="url(#bh)" fill-rule="evenodd"/>
 <path d="m108.75,48.125-4.5,1.625-3.875,3.5625-2.6875,3.625-1.375,2.75-1.3125,4.9375 .25,6.9375 2.125,6.125c0,0 1.8125,1.75 2.25,2.125s2.9375,1.8125 2.9375,1.8125l3.25.5h2.5l3.1875-1.25-5.875.125-5.5625-3-2.75-6.9375-.375-4.8125 1.0625-4.875 2.5625-5.9375c0,0 3.5625-3.5 3.75-3.75s3.9375-2.375 3.9375-2.375 3.125-.625 2.875-.75-2.5-.375-2.375-.4375z" fill="url(#bg)" fill-rule="evenodd"/>
 <path d="m105.5,68.6875-.75-1.1875-.4375-2.1875 .625-1.8125 1.375-1.9375c0,0 2.1875-.8125 2.8125-.4375s2.6875.4375 2.6875.4375l.8125,1.8125-.9375,4.375-1.3125,1.0625-1.875.4375-1.875.25-1.125-.8125z" fill="url(#bf)" fill-rule="evenodd"/>
 <path d="m105.5,68.6875-.75-1.1875-.4375-2.1875 .625-1.8125 1.375-1.9375c0,0 2.1875-.8125 2.8125-.4375s2.6875.4375 2.6875.4375l.8125,1.8125-.9375,4.375-1.3125,1.0625-1.875.4375-1.875.25-1.125-.8125z" fill-opacity=".15686" fill-rule="evenodd"/>
 <path d="m111.875,67.5625-2.5,1.375-1.5-.375-.8125-1.75 .25-2.625 .5625-1.4375c0,0 1.3125-1.75 1.875-1.5s2.25.4375 2.25.4375l.6875,1.4375-.8125,4.4375z" fill="url(#be)" fill-rule="evenodd"/>
 <path d="m114.0625,63.5-4.4375-.125-.625,1.25-.125,1.25 .4375,1.5625 4.4375-.0625 .75-.9375 .3125-1.3125-.75-1.625z" fill="url(#bd)" fill-rule="evenodd"/>
 <path d="m113.4375,48.1875-3.375.4375-3.625,1.375-3.9375,3.4375-1.75,2.0625-1.25,2.25-1.9375,5.375-.625,4.625 .375,4.25 1.375,3.5625 2.6875,3.625 3.9375,2.125 4.3125-.0625 3.3125-1.375 3.25-2.625 2.875-3.3125 2.6875-6.6875 .4375-8.875-1.9375-5.375-3.375-3.0625-3.4375-1.75zm-2.5,2.375 2.5.1875 2.5625.9375 2.9375,2.9375 1.1875,3.0625 .6875,3.4375-.625,5.3125-1.6875,4.6875-2.625,3.875-3.5625,2.9375-2.875.9375-3.75-.1875-2.6875-1.1875-2.8125-3.875-1.125-4.25v-3.9375l.9375-4 1.25-3.4375 3.375-4.1875 3.625-2.5625 2.6875-.6875z" fill="url(#bc)" fill-rule="evenodd"/>
 <path d="m108.25,51.375 3,.25 2.3125.9375 4.125,4.125 1.0625,3.8125 .125,4.875-.5625,4.4375-1,3.1875 1.4375-2.625 1.4375-4.375 .4375-2.8125-.5-4.125-.9375-3.875-2.1875-2.75-2.5-1.375c0,0-1.1875-.5-2.0625-.5s-2.4375.25-2.4375.25l-1.75.5625z" fill="url(#bb)" fill-rule="evenodd"/>
 <path d="m108.25,51.375 3,.25 2.3125.9375 4.125,4.125 1.0625,3.8125 .125,4.875-.5625,4.4375-1,3.1875 1.4375-2.625 1.4375-4.375 .4375-2.8125-.5-4.125-.9375-3.875-2.1875-2.75-2.5-1.375c0,0-1.1875-.5-2.0625-.5s-2.4375.25-2.4375.25l-1.75.5625z" fill-opacity=".15686" fill-rule="evenodd"/>
 <path d="m110.5625,61 4.9375-8.1875 1.0625.375 1.0625,1.6875-1,1.8125-4.4375,5.125-1.625-.8125z" fill="url(#ba)" fill-rule="evenodd"/>
 <path d="m113.5,63.4375 6.3125-1.5 .5,1.25-.6875,1.625-4.9375.1875c-.184-.62675-.06544-1.40478-1.1875-1.5625z" fill="url(#az)" fill-rule="evenodd"/>
 <path d="m111.5625,68 5.375,5.625 1-2.25-5.1875-4.0625h-.6875l-.5.6875z" fill="url(#ay)" fill-rule="evenodd"/>
 <path d="m108.3125,69.125 .1875,10 2.5-.5-.9375-9.75-1.75.25z" fill="url(#ax)" fill-rule="evenodd"/>
 <path d="m102.6875,76.6875 4.875-7.8125-.4375-.625-1.0625-.1875-5,7 1.4375,2.1875 .1875-.5625z" fill="url(#aw)" fill-rule="evenodd"/>
 <path d="m105.5625,68.8125-5.125-.25 2.3125-2.875 1.875-1.25-.375.875 .5625,2.375 .75,1.125z" fill="url(#au)" fill-rule="evenodd"/>
 <path d="m105.5625,68.8125-5.125-.25 2.3125-2.875 1.875-1.25-.375.875 .5625,2.375 .75,1.125z" fill-opacity=".15686" fill-rule="evenodd"/>
 <path d="m99.0625,66.0625 6.5625-.4375 .4375.875-.4375.6875-6.75,1.75 .125-2.125 .0625-.75z" fill="url(#av)" fill-rule="evenodd"/>
 <path d="m100.31 60.188 5.8125 4.5 0.625-0.6875 0.0625-1.375-5.375-4.875-1.125 2.4375z" fill="url(#at)" fill-rule="evenodd"/>
 <path d="m105.9375,52.5625 1.1875,9.125 .625.4375 1.0625-.9375-.375-10-2.5,1.375z" fill="url(#as)" fill-rule="evenodd"/>
 <path d="m108.75,48.125-4.5,1.625-3.875,3.5625-2.6875,3.625-1.375,2.75-1.3125,4.9375 .25,6.9375 2.125,6.125c0,0 1.8125,1.75 2.25,2.125s2.9375,1.8125 2.9375,1.8125l3.25.5h2.5l3.1875-1.25-5.875.125-5.5625-3-2.75-6.9375-.375-4.8125 1.0625-4.875 2.5625-5.9375c0,0 3.5625-3.5 3.75-3.75s3.9375-2.375 3.9375-2.375 3.125-.625 2.875-.75-2.5-.375-2.375-.4375z" fill-opacity=".15686" fill-rule="evenodd"/>
 <path d="m113.75,63.6875-.9375.8125-.0625,1.5625 1.125,1.3125 .6875-.875 .25-1.3125-.5625-1.3125-.5-.1875z" fill-opacity=".15686" fill-rule="evenodd"/>
 <path d="m69.888 73.841-4.5 1.625-3.875 3.5625-2.6875 3.625-1.375 2.75-1.3125 4.9375 0.25 6.9375 2.125 6.125s1.8125 1.75 2.25 2.125 2.9375 1.8125 2.9375 1.8125l3.25 0.5h2.5l3.1875-1.25-5.875 0.125-5.5625-3-2.75-6.9375-0.375-4.8125 1.0625-4.875 2.5625-5.9375s3.5625-3.5 3.75-3.75 3.9375-2.375 3.9375-2.375 3.125-0.625 2.875-0.75-2.5-0.375-2.375-0.4375z" fill="url(#ar)" fill-rule="evenodd"/>
 <path d="m66.63784,94.40372-.75-1.1875-.4375-2.1875 .625-1.8125 1.375-1.9375c0,0 2.1875-.8125 2.8125-.4375s2.6875.4375 2.6875.4375l.8125,1.8125-.9375,4.375-1.3125,1.0625-1.875.4375-1.875.25-1.125-.8125z" fill="url(#aq)" fill-rule="evenodd"/>
 <path d="m66.63784,94.40372-.75-1.1875-.4375-2.1875 .625-1.8125 1.375-1.9375c0,0 2.1875-.8125 2.8125-.4375s2.6875.4375 2.6875.4375l.8125,1.8125-.9375,4.375-1.3125,1.0625-1.875.4375-1.875.25-1.125-.8125z" fill-opacity=".15686" fill-rule="evenodd"/>
 <path d="m73.01284,93.27872-2.5,1.375-1.5-.375-.8125-1.75 .25-2.625 .5625-1.4375c0,0 1.37728-1.13781 1.875-1.5 .68756-.50034 2.27348.29661 2.25.4375l.6875,1.4375-.8125,4.4375z" fill="url(#ap)" fill-rule="evenodd"/>
 <path d="m75.20034,89.21622-4.4375-.125-.625,1.25-.125,1.25 .4375,1.5625 4.4375-.0625 .75-.9375 .3125-1.3125-.75-1.625z" fill="url(#ao)" fill-rule="evenodd"/>
 <path d="m74.57534,73.90372-3.375.4375-3.625,1.375-3.9375,3.4375-1.75,2.0625-1.25,2.25-1.9375,5.375-.625,4.625 .375,4.25 1.375,3.5625 2.6875,3.625 3.9375,2.125 4.3125-.0625 3.3125-1.375 3.25-2.625 2.875-3.3125 2.6875-6.6875 .4375-8.875-1.9375-5.375-3.375-3.0625-3.4375-1.75zm-2.5,2.375 2.5.1875 2.5625.9375 2.9375,2.9375 1.1875,3.0625 .6875,3.4375-.625,5.3125-1.6875,4.6875-2.625,3.875-3.5625,2.9375-2.875.9375-3.75-.1875-2.6875-1.1875-2.8125-3.875-1.125-4.25v-3.9375l.9375-4 1.25-3.4375 3.375-4.1875 3.625-2.5625 2.6875-.6875z" fill="url(#an)" fill-rule="evenodd"/>
 <path d="m69.38784,77.09122 3,.25 2.3125.9375 4.125,4.125 1.0625,3.8125 .125,4.875-.5625,4.4375-1,3.1875 1.4375-2.625 1.4375-4.375 .4375-2.8125-.5-4.125-.9375-3.875-2.1875-2.75-2.5-1.375c0,0-1.1875-.5-2.0625-.5s-2.4375.25-2.4375.25l-1.75.5625z" fill="url(#am)" fill-rule="evenodd"/>
 <path d="m69.38784,77.09122 3,.25 2.3125.9375 4.125,4.125 1.0625,3.8125 .125,4.875-.5625,4.4375-1,3.1875 1.4375-2.625 1.4375-4.375 .4375-2.8125-.5-4.125-.9375-3.875-2.1875-2.75-2.5-1.375c0,0-1.1875-.5-2.0625-.5s-2.4375.25-2.4375.25l-1.75.5625z" fill-opacity=".15686" fill-rule="evenodd"/>
 <path d="m71.7 86.716 4.9375-8.1875 1.0625 0.375 1.0625 1.6875-1 1.8125-4.4375 5.125-1.625-0.8125z" fill="url(#al)" fill-rule="evenodd"/>
 <path d="m74.63784,89.15372 6.3125-1.5 .5,1.25-.6875,1.625-4.9375.1875c-.184-.62675-.06544-1.40478-1.1875-1.5625z" fill="url(#ak)" fill-rule="evenodd"/>
 <path d="m72.7 93.716 5.375 5.625 1-2.25-5.0652-4.246-0.80981 0.18347-0.5 0.6875z" fill="url(#aj)" fill-rule="evenodd"/>
 <path d="m69.45 94.841 0.1875 10 2.5-0.5-0.9375-9.75-1.75 0.25z" fill="url(#ai)" fill-rule="evenodd"/>
 <path d="m63.825 102.4 4.875-7.8125-0.4375-0.625-1.0625-0.1875-5 7 1.4375 2.1875 0.1875-0.5625z" fill="url(#ah)" fill-rule="evenodd"/>
 <path d="m66.7 94.529-5.125-0.25 2.3125-2.875 1.875-1.25-0.375 0.875 0.5625 2.375 0.75 1.125z" fill="url(#ag)" fill-rule="evenodd"/>
 <path d="m66.7 94.529-5.125-0.25 2.3125-2.875 1.875-1.25-0.375 0.875 0.5625 2.375 0.75 1.125z" fill-opacity=".15686" fill-rule="evenodd"/>
 <path d="m60.20034,91.77872 6.5625-.4375 .4375.875-.4375.6875-6.75,1.75 .125-2.125 .0625-.75z" fill="url(#af)" fill-rule="evenodd"/>
 <path d="m61.45 85.904 5.8125 4.5 0.625-0.6875 0.0625-1.375-5.375-4.875-1.125 2.4375z" fill="url(#ae)" fill-rule="evenodd"/>
 <path d="m67.07534,78.27872 1.1875,9.125 .625.4375 1.0625-.9375-.375-10-2.5,1.375z" fill="url(#ad)" fill-rule="evenodd"/>
 <path d="m69.888 73.841-4.5 1.625-3.875 3.5625-2.6875 3.625-1.375 2.75-1.3125 4.9375 0.25 6.9375 2.125 6.125s1.8125 1.75 2.25 2.125 2.9375 1.8125 2.9375 1.8125l3.25 0.5h2.5l3.1875-1.25-5.875 0.125-5.5625-3-2.75-6.9375-0.375-4.8125 1.0625-4.875 2.5625-5.9375s3.5625-3.5 3.75-3.75 3.9375-2.375 3.9375-2.375 3.125-0.625 2.875-0.75-2.5-0.375-2.375-0.4375z" fill-opacity=".15686" fill-rule="evenodd"/>
 <path d="m74.88784,89.40372-.9375.8125-.0625,1.5625 1.125,1.3125 .6875-.875 .25-1.3125-.5625-1.3125-.5-.1875z" fill-opacity=".15686" fill-rule="evenodd"/>
 <path d="m36.666 62.309-4.5 1.625-3.875 3.5625-2.6875 3.625-1.375 2.75-1.3125 4.9375 0.25 6.9375 2.125 6.125s1.8125 1.75 2.25 2.125 2.9375 1.8125 2.9375 1.8125l3.25 0.5h2.5l3.1875-1.25-5.875 0.125-5.5625-3-2.75-6.9375-0.375-4.8125 1.0625-4.875 2.5625-5.9375s3.5625-3.5 3.75-3.75 3.9375-2.375 3.9375-2.375 3.125-0.625 2.875-0.75-2.5-0.375-2.375-0.4375z" fill="url(#ac)" fill-rule="evenodd"/>
 <path d="m41.35372,62.37128-3.375.4375-3.625,1.375-3.9375,3.4375-1.75,2.0625-1.25,2.25-1.9375,5.375-.625,4.625 .375,4.25 1.375,3.5625 2.6875,3.625 3.9375,2.125 4.3125-.0625 3.3125-1.375 3.25-2.625 2.875-3.3125 2.6875-6.6875 .4375-8.875-1.9375-5.375-3.375-3.0625-3.4375-1.75zm-2.5,2.375 2.5.1875 2.5625.9375 2.9375,2.9375 1.1875,3.0625 .6875,3.4375-.625,5.3125-1.6875,4.6875-2.625,3.875-3.5625,2.9375-2.875.9375-3.75-.1875-2.6875-1.1875-2.8125-3.875-1.125-4.25v-3.9375l.9375-4 1.25-3.4375 3.375-4.1875 3.625-2.5625 2.6875-.6875z" fill="url(#ab)" fill-rule="evenodd"/>
 <path d="m36.22872,83.30878 .1875,10 2.5-.5-.9375-9.75-1.75.25z" fill="url(#aa)" fill-rule="evenodd"/>
 <path d="m30.60372,90.87129 4.875-7.8125-.4375-.625-1.0625-.1875-5,7 1.4375,2.1875 .1875-.5625z" fill="url(#z)" fill-rule="evenodd"/>
 <path d="m26.97872,80.24628 6.5625-.4375 .4375.875-.4375.6875-6.75,1.75 .125-2.125 .0625-.75z" fill="url(#y)" fill-rule="evenodd"/>
 <path d="m36.666 62.309-4.5 1.625-3.875 3.5625-2.6875 3.625-1.375 2.75-1.3125 4.9375 0.25 6.9375 2.125 6.125s1.8125 1.75 2.25 2.125 2.9375 1.8125 2.9375 1.8125l3.25 0.5h2.5l3.1875-1.25-5.875 0.125-5.5625-3-2.75-6.9375-0.375-4.8125 1.0625-4.875 2.5625-5.9375s3.5625-3.5 3.75-3.75 3.9375-2.375 3.9375-2.375 3.125-0.625 2.875-0.75-2.5-0.375-2.375-0.4375z" fill-opacity=".15686" fill-rule="evenodd"/>
 <path d="m33.124 69.535-10.032 5.7081 28.8 14.53 5.6216-3.7189 1.6432-3.6324-26.032-12.886z" fill="url(#bj)" fill-rule="evenodd"/>
 <path d="m23.611 75.503 6.3135 10.724 24.822 12.714-2.9405-9.254-28.195-14.184z" fill="url(#bi)" fill-rule="evenodd"/>
 <path d="m36.77 66.04-1.6794-3.403 0.08839-2.961-1.1048-3.1378-1.7678-2.0771 0.39775-1.2816s0.26517-2.4749 0.13258-2.6958-0.7513-1.9887-0.7513-1.9887l1.9445 0.57452 1.9445-0.04419 1.8562-0.7955 2.1213-1.8562 1.149-1.149 1.812 2.5191 3.8891 4.0217 4.5962 2.4307-8.9244 7.6699-5.7039 4.1742z" fill="url(#x)" fill-rule="evenodd"/>
 <path d="m36.77 66.04-1.6794-3.403 0.08839-2.961-1.1048-3.1378-1.7678-2.0771 0.39775-1.2816s0.26517-2.4749 0.13258-2.6958-0.7513-1.9887-0.7513-1.9887l1.9445 0.57452 1.9445-0.04419 1.8562-0.7955 2.1213-1.8562 1.149-1.149 1.812 2.5191 3.8891 4.0217 4.5962 2.4307-8.6489 7.2407-5.9794 4.6034z" fill-opacity=".15686" fill-rule="evenodd"/>
 <path d="m36.681 65.775 5.0922-3.6114 9.4918-7.9674 1.9887 0.57452-0.22097 3.5797 1.1048 3.7565 2.2539 4.2868-0.48614 1.9887-0.22097 3.0052 0.92808 3.5797-1.1049 1.5026-0.53033 2.0329 0.92808 2.4749-21.081-10.739 1.2816-1.3258 0.57452-1.6352v-1.5026z" fill="url(#w)" fill-rule="evenodd"/>
 <path d="m35.709 69.133 19.224 9.3692 0.30936 1.149 1.0165 1.5026-21.611-10.828 1.0607-1.1932z" fill="url(#v)" fill-rule="evenodd"/>
 <path d="m45.608 69.84 8.4411-7.7782 1.149 2.1655-9.0598 9.8111-0.22097-1.0165-0.30936-3.182z" fill="url(#u)" fill-rule="evenodd"/>
 <path d="m36.681 65.775 5.0922-3.6114 9.4918-7.9674 1.9887 0.57452-0.22097 3.5797 1.1048 3.7565 2.2539 4.2868-0.48614 1.9887-0.22097 3.0052 0.92808 3.5797-1.1049 1.5026-0.53033 2.0329 0.92808 2.4749-21.081-10.739 1.2816-1.3258 0.57452-1.6352v-1.5026z" fill-opacity=".15686" fill-rule="evenodd"/>
 <path d="m39.907 46.418 2.1213 27.179 0.26517 1.37 0.7955 0.66291 0.88388 0.22097 1.4142-0.26516 0.57452-0.48614-1.1048-15.424-0.88388-10.562-2.9168-4.0659-1.149 1.37z" fill="url(#t)" fill-rule="evenodd"/>
 <path d="m31.864 63.83 3.2704-1.1932 1.2374 2.0771 0.48614 2.0771-2.1213 3.4472-1.7236-0.7955-1.149-5.6127z" fill="url(#s)" fill-rule="evenodd"/>
 <path d="m31.997 63.874 3.0494-1.1932-0.30936-4.9498-2.3865-3.3146-2.2981 0.48614 1.9445 8.9714z" fill="url(#r)" fill-rule="evenodd"/>
 <path d="m30.185 54.947 2.0329-0.53033 0.66291-1.9004-0.66291-3.9333-2.0329-2.4749s-1.591 1.37-1.4584 1.812 1.5026 7.1153 1.4584 7.0269z" fill="url(#q)" fill-rule="evenodd"/>
 <path d="m30.273 46.152 1.6794 2.2539 1.6352 0.53033 3.0052 0.08839 1.7678-1.0165 1.4142-1.37 1.3258-1.5026 0.44194-1.591-4.9939-0.48614-2.961 0.61872-1.4584 0.7955-2.0329 1.4584 0.17678 0.22097z" fill="url(#p)" fill-rule="evenodd"/>
 <path d="m41.454 43.457 5.0823 2.7842 6.7175 5.1707 2.0329 2.5633-1.1049 0.39775-1.1932 0.39775-6.2314-2.8726-3.403-3.4913-2.2981-3.3588 0.08839-1.4142 0.30936-0.17678z" fill="url(#o)" fill-rule="evenodd"/>
 <path d="m53.21 54.903 0.7513-0.53033 1.149-0.35355 3.0052 3.7565 1.1048 8.7062-2.6516 0.04419-2.6958-4.9498-0.83969-3.8449 0.17678-2.8284z" fill="url(#n)" fill-rule="evenodd"/>
 <path d="m56.524 66.57 2.6958-0.13258 1.149 9.2808-3.7565-0.66291-1.0165-3.0494v-2.1213l0.48614-2.0329 0.44194-1.2816z" fill="url(#m)" fill-rule="evenodd"/>
 <path d="m56.745 75.011 3.3588 0.7513 0.97227 3.8891-1.9887 2.74-3.182-1.5468-0.92808-1.9004 0.04419-1.5026 1.7236-2.4307z" fill="url(#l)" fill-rule="evenodd"/>
 <path d="m23.611 75.503 6.3135 10.724 24.822 12.714-2.9405-9.254-28.195-14.184z" fill-opacity=".15686" fill-rule="evenodd"/>
 <path d="m31.864 63.83 3.2704-1.1932 1.2374 2.0771 0.48614 2.0771-2.1213 3.4472-1.7236-0.7955-1.149-5.6127z" fill-opacity=".15686" fill-rule="evenodd"/>
 <path d="m31.997 63.874 3.0494-1.1932-0.30936-4.9498-2.3865-3.3146-2.2981 0.48614 1.9445 8.9714z" fill-opacity=".15686" fill-rule="evenodd"/>
 <path d="m30.185 54.947 2.0329-0.53033 0.66291-1.9004-0.66291-3.9333-2.0329-2.4749s-1.591 1.37-1.4584 1.812 1.5026 7.1153 1.4584 7.0269z" fill-opacity=".15686" fill-rule="evenodd"/>
 <path d="m30.273 46.152 1.6794 2.2539 1.6352 0.53033 3.0052 0.08839 1.7678-1.0165 1.4142-1.37 1.3258-1.5026 0.44194-1.591-4.9939-0.48614-2.961 0.61872-1.4584 0.7955-2.0329 1.4584 0.17678 0.22097z" fill-opacity=".15686" fill-rule="evenodd"/>
 <path d="m41.454 43.457 5.0823 2.7842 6.7175 5.1707 2.0329 2.5633-1.1049 0.39775-1.1932 0.39775-6.2314-2.8726-3.403-3.4913-2.2981-3.3588 0.08839-1.4142 0.30936-0.17678z" fill-opacity=".15686" fill-rule="evenodd"/>
 <path d="m53.21 54.903 0.7513-0.53033 1.149-0.35355 3.0052 3.7565 1.1048 8.7062-2.6516 0.04419-2.6958-4.9498-0.83969-3.8449 0.17678-2.8284z" fill-opacity=".15686" fill-rule="evenodd"/>
 <path d="m56.524 66.57 2.6958-0.13258 1.149 9.2808-3.7565-0.66291-1.0165-3.0494v-2.1213l0.48614-2.0329 0.44194-1.2816z" fill-opacity=".15686" fill-rule="evenodd"/>
 <path d="m56.745 75.011 3.3588 0.7513 0.97227 3.8891-1.9887 2.74-3.182-1.5468-0.92808-1.9004 0.04419-1.5026 1.7236-2.4307z" fill-opacity=".15686" fill-rule="evenodd"/>
 <path d="m9.7237 114.48 2.2627-3.547 8.5617 3.547 4.4032 2.3851 7.889 3.4858-1.957 2.9354-8.5006-3.1801-5.0147-2.2016-7.6444-3.4247z" fill="url(#h)" fill-rule="evenodd"/>
 <path d="m12.109 110.88 2.752-0.48924 11.253 5.504 7.7667 4.0362-1.2231 0.36693-8.0725-3.6082-4.342-2.3239-8.1336-3.4858z" fill="url(#g)" fill-rule="evenodd"/>
 <path d="m36.204 89.289-10.763 17.429-6.8494 10.886-4.1586 6.4213 2.6908 1.59 2.5685-3.7305 5.4428-7.9502 2.4462-4.0974 7.2163-12.659 3.8528-6.6659-2.4462-1.2231z" fill="url(#j)" fill-rule="evenodd"/>
 <path d="m38.467 90.634c-6.3229 11.781-13.399 23.359-21.221 34.736l1.8347-0.42809 6.5436-10.396 2.6692-4.3389c2.3001-3.7348 4.3618-7.39 6.5041-11.072l4.5866-8.0725-0.91733-0.42809z" fill="url(#i)" fill-rule="evenodd"/>
 <path d="m31.067 123.23 1.6512-2.752 1.2843-0.61155-1.5289 3.3024-1.4066 0.06116z" fill="url(#f)" fill-rule="evenodd"/>
 <path d="m77.361 14.251 1.4677-1.4677 2.8743-2.6297 1.5289-0.30578-0.85617 1.3454-2.2627 3.0578-2.8743 2.9966-2.6297 2.385-3.9139 3.1801-0.97848 0.42809 2.2627-1.8347 2.3239-2.2016 2.2016-2.4462 0.85617-2.5074z" fill-opacity=".15686" fill-rule="evenodd"/>
 <path d="m63.1875,50.8125 .53125.6875 .375.84375 1,2.96875 .78125-.4375 9.8125-7-.40625-.375-1.03125-.71875-.34375-.53125-.0625-2.21875-10.65625,6.78125z" fill="url(#d)" fill-rule="evenodd"/>
 <path d="m94.406 42.688c0.3125-0.09375 9.3125-6.125 9.3125-6.125l1.0625 7.6562-8.8125 5.9375-1.5625-7.4688z" fill="url(#e)" fill-rule="evenodd"/>
 <path d="m86.375,8.96875c-.91683.00331-1.85989.10945-2.8125.3125-2.36045.69803-4.45293,2.3193-6.15625,4.90625-1.25107,4.06713-5.47937,6.98646-8.625,9.96875-2.9267,2.13094-6.02676,4.17294-9.125,6-9.783,5.76913-20.46741,10.88254-27.15625,13.90625-3.43933,2.37895-2.78593,2.36214-4,3.71875l3.1875,16.375c-.53439.41399-1.06768.85855-1.625,1.34375-2.79669,2.43475-4.92581,5.41482-6.28125,9.125l-.8125.4375 .0625.09375-.25-.125 .59375.96875c-1.2124,4.68756-.71374,9.29369.5625,13.9375 1.47477,3.2893 3.65641,5.28555 7.625,6.21875l-10.375,17.09375-6.5625-3.03125-2.6875.375-2.40625,4.03125 8.15625,3.6875-3.84375,5.90625 3.3125,1.78125 1.90625-.9375 3.28125-4.75 8.59375,3.25 1.5625-.21875 1.59375-3.53125-8.75-4.5 11.28125-19.09375c2.16217-.59362 4.13679-1.71257 5.78125-3.125 .03491-.02653.05978-.06586.09375-.09375l12.1875,6.40625 1.78125-1.25c-.24082.72079.52838,2.30118.8125,3.25 1.80844,4.03352 4.65888,6.11515 10.59375,6.6875 2.96936-.30352 5.71425-1.67538 7.875-3.53125 1.66888-1.2681 3.18003-2.83732 4.4375-4.53125 3.71824-6.0435 5.01954-13.56205 2.125-19.90625l12.78125-8.90625c.22365,1.5252.54846,3.03319.96875,4.5625 1.80844,4.03351 4.65888,6.11514 10.59375,6.6875 2.96936-.30352 5.71425-1.67538 7.875-3.53125 1.66888-1.26811 3.18003-2.83733 4.4375-4.53125 4.43449-7.20767 5.47598-16.53722 0-23.4375-2.23866-2.10858-4.60389-2.90634-6.9375-2.84375-.58271-.08016-1.1389-.13275-1.65625-.1875l-3-23.8125c-4.98009-6.4499-12.13735-15.18826-21-15.15625zm.15625.5625c8.46453.11566 15.53033,8.59557 20.40625,14.65625l2.8125,23.6875c-.17043-.00955-.40048-.03562-.53125-.03125-3.05145.102-4.84328,1.59519-7.03125,3.5-2.4941,2.17132-4.45217,4.7706-5.8125,7.9375-6.07384,4.27755-15.28646,10.33059-21.375,14.59375-.58488-.09893-1.1666-.14065-1.75-.125-1.08453-.1492-2.19637-.30185-2.8125-.28125-3.05145.102-4.84328,1.59519-7.03125,3.5-.81942.71337-1.54597,1.50268-2.25,2.3125l-2.6875-21.53125c-3.97783-6.35128-9.73761-10.77653-16.21875-14.34375-1.68794-.74137-3.47352-.89042-5.28125-.78125 6.31046-3.00245 14.10646-7.24096 22.8125-12.375 3.19879-1.88636 6.38392-3.97207 9.40625-6.15625 .82589-.33915 1.4066-.95513 2.0625-1.5 1.90627-1.4588 3.68115-2.97514 5.3125-4.5 .62091.25108 1.33353.71313 2.03125,1.15625l-.09375-.3125-1.71875-1.03125c.86132-.81347 1.68319-1.61349 2.4375-2.4375 1.77381.67133 2.80441,1.71143 4.21875,2.5625v-.21875c-1.62826-1.33194-2.91555-2.13191-4-2.59375 .66493-.73837 1.28059-1.47646 1.84375-2.21875 2.60028,1.08246 6.61403,3.27651 8.84375,4.6875l.03125-.0625c-2.8447-1.9894-5.68655-3.77225-8.53125-5.09375 .61155-.84087 1.16632-1.69171 1.625-2.53125 1.03834-.42364 2.17627-.43598 3.28125-.46875zm-3.8125.6875c-.38613.69442-.92184,1.46499-1.53125,2.25-.50488.02654-1.10162-.07053-1.65625-.09375 .3477.07127.81148.26027 1.34375.46875-.60157.74795-1.26404,1.52702-2,2.3125l-.78125-.03125c.22723.05357.41907.12329.625.1875-.80291.85-1.67005,1.68296-2.5625,2.53125l-.28125.0625c.05984.00395.12455.05079.1875.0625-1.81786,1.72129-3.73478,3.38381-5.5,4.8125 2.4043-2.33822 6.67837-5.64583 7.9375-9.4375 1.22578-1.44837 2.74807-2.48912 4.21875-3.125zm18.75,25.46875-.3125.09375 .6875,1.84375-1.4375.9375-.78125-2.40625-.40625.0625 .9375,2.5-2.53125,1.65625-.625-2.21875-.34375.15625 .625,2.28125-3.09375,2.03125 .65625,3.09375-.9375.46875v.28125l1-.53125 .375,1.78125-1.21875.75 .3125.21875 .96875-.59375 .5,2.28125 2.9375-1.90625 .34375,1.0625 .34375-.09375-.34375-1.1875 1.75-1.15625c.32746.88421.6579,1.78811.875,2.71875h.21875c-.14214-1.05727-.34996-2.04326-.65625-3l1.71875-1.125 .6875,2.25 .28125-.15625-.71875-2.25 1.75-1.125-.4375-3 2.0625-1.3125-.125-.28125-2,1.21875-.40625-2.625 1.03125-.65625-.125-.28125-.96875.59375-.25-1.75-1.71875,1.125-.625-1.75zm2.03125,1.15625 .21875,1.4375-.5.3125 .09375.3125 .46875-.28125 .40625,2.625-.59375.34375 .03125.40625 .625-.375 .375,2.4375-1.5,1-.3125-1-.1875.28125 .28125.875-1.75,1.1875c-.21653-.60451-.45178-1.19684-.78125-1.78125l-.28125.15625c.17536.65383.39474,1.27886.625,1.90625l-1.71875,1.1875-.21875-.71875-.375.21875 .25.71875-2.59375,1.75-.40625-1.9375 .6875-.4375-.125-.34375-.65625.40625-.375-1.75 .71875-.375v-.25l-.75.375-.5625-2.59375 2.8125-1.90625 .5625,2.09375 .4375-.125-.65625-2.21875 2.53125-1.75 .1875.5 .21875-.09375-.1875-.5625 1.4375-.96875 .21875.59375 .25-.1875-.21875-.59375 1.3125-.875zm-66,6.53125c1.16902.00567 2.27259.32253 3.4375.6875l-.0625,1.03125c-2.49698,3.78994-5.52347,4.16042-8.75,3.28125l-1.71875-2.375c1.81542-1.83028 4.43373-2.67599 7.09375-2.625zm36.46875.53125-2.21875,1.375c-.215-.26028-.43998-.49706-.71875-.8125l-.21875.03125c.29424.27716.54791.5793.78125.90625l-1.875,1.15625-.71875-1.21875-.21875.28125 .75,1.03125-2.25,1.40625-.90625-1.28125-.1875.15625 .90625,1.25-2.28125,1.4375-.28125-.375-.1875.0625 .3125.40625-1.75,1.09375c.78291.70991 1.09422,1.34336 1.28125,1.96875l-.8125.5625 .03125.125 .8125-.5c.21226.8129.25693,1.62544.8125,2.625l2.96875-2.125 .65625,1 .1875-.21875-.625-.9375 2.1875-1.53125c.29472.49799.5625.96875.5625.96875l.28125-.1875c0,0-.3001-.45273-.65625-.9375l1.71875-1.21875 .5625.65625 .03125-.1875-.46875-.5625 1.71875-1.21875c.55041.50707 1.15625.90625 1.15625.90625l-.03125-.25c0,0-.42707-.40712-.84375-.84375l1.34375-.96875c-.33265-.56197-.74671-.7218-1.09375-.90625l.625-.5-.21875-.09375-.65625.40625c-.43041-.32168-.70326-.89382-.46875-2.9375zm-32.59375.28125c.1772.05656.34992.09879.53125.15625 3.95507,1.47234 8.44881,4.81627 12.65625,9.59375l-1.1875.65625c-5.32147-1.9372-9.16887-4.85584-12.09375-9.65625l.09375-.75zm32.3125,0c-.15128,1.24303.02317,2.1547.5625,2.78125l-.25.15625 .0625.34375 .40625-.3125c.28593.25849.61939.49126 1.0625.625l-1.28125.90625c-.08202-.08907-.18115-.16967-.25-.25l-.3125.15625c.08705.10156.18135.21339.28125.3125l-1.71875,1.21875-.21875-.28125-.09375.15625 .1875.21875-1.6875,1.1875c-.13614-.1794-.2706-.34175-.40625-.5l-.15625.09375c.13202.15403.27559.32452.40625.53125l-2.21875,1.5625-.28125-.40625-.21875.15625 .28125.40625-2.40625,1.71875c-.5789-.63445-.85112-1.369-1.0625-2.0625l1.15625-.6875c.02521.01784.01106-.00475 0-.03125-.01336-.00753.01829.05622-.21875-.21875l-1.03125.71875c-.21164-.71029-.38357-1.34326-.84375-1.75l1.4375-.9375 .8125,1.09375 .15625-.09375-.8125-1.09375 2.21875-1.46875 .34375.46875 .1875-.15625-.3125-.46875 2.1875-1.4375 .78125,1.0625 .09375.03125-.71875-1.21875 1.84375-1.1875c.18719.26843.37856.54294.5625.8125l.21875-.09375c-.20082-.34193-.39738-.5971-.59375-.84375l1.84375-1.21875zm-32.59375,1.0625c.59083,1.20366 1.90726,3.07739 2.71875,4.15625l2.03125,25.5625c-1.1754,1.03056-3.09441,1.02576-3.53125-.84375l-2.21875-27.75c.37359-.44665.646-.64987 1-1.125zm-11,1.09375 1.71875,1.96875c.63264,2.15123 1.07018,3.79014.34375,5.96875l-1.84375.1875-1.3125-6.53125c.30785-.59315.67383-1.11831 1.09375-1.59375zm9.6875.34375 1.25,15.71875-4.15625,2.96875c-.30777-.8583-.88191-1.75134-1.65625-2.78125 .58126-3.53273-.16035-5.84796-2.78125-8.1875 1.60979-1.55347.60186-4.03298.09375-5.59375 3.55345,1.44509 5.50634-.07302 7.25-2.125zm69.78125,1.8125c-3.52775,1.0058-6.81502,3.79881-9.1875,7-4.42727,7.20972-5.48299,16.54026 0,23.4375 3.18227,3.00721 6.64691,3.41451 9.875,2.34375-1.11891.47199-2.29037.71734-3.625.8125-4.85126-.40315-7.30948-2.33292-9.75-6.46875-1.6713-3.72765-2.1572-9.23922-.8125-14.65625 1.30246-3.79918 3.96527-7.09882 6.6875-9.46875 1.90116-1.65512 4.20447-2.75744 6.8125-3zm1.96875.4375c.27751-.01383.56565-.01082.84375,0 2.02257.07867 4.07601.83362 5.9375,2.4375 5.45273,6.51374 3.98279,15.89736.0625,22.75-4.00504,6.04993-11.77818,9.56496-17.4375,4.03125-5.49895-6.51681-4.0873-15.35304-.15625-22.21875 2.5483-3.86668 6.5874-6.79257 10.75-7zm-67.375.6875c1.81109,2.15869 3.89723,3.79847 6.5625,4.71875l-5.78125,4.65625-.78125-9.375zm66.875.8125c-.43841.01656-.87591.05955-1.34375.125-7.68277,2.40678-10.5988,9.49425-11.0625,17 .06537,6.98495 3.6957,12.79263 11.15625,11.75 7.68507-2.4039 10.69164-9.92459 11.15625-17.4375-.06023-6.57374-3.33006-11.68597-9.90625-11.4375zm.03125.40625c6.2242-.36985 8.9211,5.70403 9.28125,11.375-.00213.07192-.02844.14686-.03125.21875-.05163-.4712-.22191-.80575-.5-.8125l-.59375.125c.0011-.24893.00511-.57367 0-.6875-.15872-1.93014-.86159-3.67748-1.90625-5.21875l.53125-.65625c.10265-.85263-1.6195-2.83918-2.75-2.5l-.28125.53125c-1.63453-1.48944-3.64353-1.78953-5.75-1.9375 .62621-.33152 1.31121-.3629 2-.4375zm-1.71875.78125c.20975.01033.42594.03756.625.0625l-.125,1.8125-1.09375.75c-.02797-.8503-.07597-1.67056-.09375-2.59375 .23324-.00708.46707-.04211.6875-.03125zm-1.1875.0625c.07088,3.13092.19922,6.44563.28125,9.5625 .09619.28651-1.29509.8888-1.1875.1875l-.9375-8.65625c.57489-.40116 1.19707-.7751 1.84375-1.09375zm2.53125.15625c1.52309.33575 2.7508,1.02515 3.9375,1.71875l-4.0625,7.40625c-.31029-.0637-.52202-.05689-.71875-.0625l.84375-9.0625zm-4.72411,1.41383 .25536,2.74242-3.6875,2.5-.71875-.6875c.85863-1.51145 1.62905-2.60399 2.92868-3.74808 .26564-.23385.93821-.59135 1.22221-.80684zm9.66161-.00758c.88479-.2095 1.90035,1.51258 1.5,2.03125l-5,6.25c-.40237-.27669-.78561-.45838-1.15625-.53125 1.57054-2.53128 2.851-5.46681 4.65625-7.75zm-5.78125.53125-.21875,3.53125-.78125.53125c-.0272-1.08815-.05725-2.22218-.09375-3.3125l1.09375-.75zm-55,.5c.99619,1.15096 1.9869,2.34631 2.9375,3.65625l1.0625,8.375-2.15625-.0625c-2.29063-3.37858-3.60537-7.24377-3.15625-11.5625l1.3125-.40625zm-3.59375.25c.53766.16072 1.10208.3067 1.6875.40625-.49193,2.49311-.05073,4.80175.84375,6.96875-2.58296,2.87833-5.27303,5.21512-7.96875,7.53125l-.8125-9.65625 6.25-5.25zm-18.96875.0625c2.40614,2.11357 2.39877,5.11862 2.65625,8.03125l-2.8125.9375-1.6875-8.46875 1.84375-.5zm84.78125,1.5625c.96248,1.48092 1.34328,3.15677 1.5,5.0625 .04338.27318.03587.472.03125.6875l-5.59375,1.3125c-.12395-.46684-.32637-.9209-.59375-1.375l4.65625-5.6875zm-10.8125.09375 .34375,3.09375-1.8125,1.28125-2.09375-2 3.5625-2.375zm3.375,1.15625-.1875,3.375 .09375.09375c-.21763.01595-.40319.06683-.65625.09375 .00489-1.07164-.00746-2.05398-.03125-3.03125l.78125-.53125zm-8,.71875 5,4.71875c-.02267.77539-.03682,1.53021-.75,1.5l-5.125-4.34375c.26011-.64528.547-1.26882.875-1.875zm5,1.375 .1875,1.75c-.4427-.17808-.57945.28972-.875.4375l-1.0625-1 1.75-1.1875zm-10.71875.9375c-.06132.16719-.1294.32977-.1875.5-.2684.87528-.44458,1.75522-.59375,2.625l-16.96875,11.46875c-.71596-.42374-1.461-.7279-2.1875-.9375 5.96747-4.11917 14.15994-9.55746 19.9375-13.65625zm4.65625.0625 1.96875,1.625-2.9375,2c.2188-1.2374.53501-2.45835.96875-3.625zm6.25.9375 .0625.4375c.5917.88535 1.30076.19646 1.71875-.3125h.3125c-.45543.33098-.89554.77302-1.3125,1.28125-1.11126,1.91634-1.18612,3.89603 0,5.75 .2683.20449.52754.35798.78125.46875l-.78125.09375c.20502-.97662-1.12867-1.19993-1.5625-1.34375-.17387.26618-.32931.49305-.5.75-.22524-.31002-.39093-.64665-.53125-1l.90625-.25c.51226-.79671.09948-1.47603-.25-1.875l-1,.0625c-.06162-.36931.04128-.69374.15625-1.03125l.3125-.21875 .90625.75c.5399-.40646 1.11197-1.16402.90625-2.34375l-.8125-.75 .6875-.46875zm3.0625.03125c.6661-.08385 1.5034.33777 2.15625.71875 .2199.31629.14789.71923.25,1.0625l-2.78125-.0625c-.74167.58695-1.14949,1.3362-1.15625,2.125s.36934,1.56955.96875,2.3125l2.1875-.0625-.0625.03125c-.93793,1.00548-2.29575,1.37204-3.46875.6875-1.04826-1.50344-.65872-3.87272.09375-5.4375 .46401-.63935 1.1464-1.29115 1.8125-1.375zm-7.25.75 1.875,1.53125c-.09452.18937-.15062.39659-.1875.59375l-1.90625,1.3125-3.0625.25c.0511-.53924.12963-1.06305.21875-1.59375l3.0625-2.09375zm-48.71875.03125c.28522.65029.61275,1.28461.96875,1.90625l-8.71875,9.28125-.3125-3.375c2.74553-2.18902 5.47224-5.23537 8.0625-7.8125zm65.59375,0c.37086.28587.64756,1.54049-.21875,2.3125l-4.4375.125c-.11657-.48418-.31471-.91612-.625-1.21875l5.28125-1.21875zm-84.46875.5c1.79983,2.67297 1.78429,5.03941-.34375,7.3125l-1.375-.6875h-.03125l-1.09375-5.4375 2.84375-1.1875zm6.0625.40625 .6875,8.90625-5.625-2.84375c.85518-1.13645 1.08914-2.13511.90625-3.15625l4.03125-2.90625zm72.71875.5c.24689.17979.686,1.02488.75,1.5 .06121.45436-.28239,1.34001-.71875,1.84375l-4.28125.1875c-.39418-.54531-.56603-1.36902-.5625-1.78125 .00371-.43255.26573-1.20662.75-1.625l4.0625-.125zm6.40625.125c-.25719,2.63424-.96475,5.18938-2.15625,7.46875 .57305-1.99612.91184-4.0564 1.0625-6.125h.625c.21636-.36814.37457-.85498.46875-1.34375zm-25.15625.09375c-.18418,1.17911-.25415,2.3585-.25,3.53125l-14.25,9.71875c-.12836-.17482-.2386-.35938-.375-.53125-.59088-.55654-1.17565-1.02406-1.78125-1.40625l16.65625-11.3125zm17.71875.09375c-.72118.64829-1.24328,1.6137.0625,2.5l.46875.03125c-.77235-.94146-.38017-1.72102-.125-2.5l-.40625-.03125zm-57.75.46875c.40824.69156.85196,1.37486 1.3125,2.03125-.90742,2.41415-1.53985,5.19643.09375,8.53125-1.21245,1.1766-1.77565,2.13547-1.71875,3.21875l-8.21875-4.15625 8.53125-9.625zm-23.25.3125 .1875.96875c-1.38332,1.15064-2.64707,2.49148-3.71875,3.9375-.68302,1.11229-1.27278,2.27261-1.78125,3.46875l-2.21875,1.25c1.3793-3.47979 3.83555-6.50795 6.375-8.71875 .37008-.32219.75564-.62932 1.15625-.90625zm72.46875.09375c-.01394.22129-.01543.43359-.03125.65625l-1.03125.09375 1.0625-.75zm14.53125.28125c-.06719,2.03447-.43238,4.08204-1.09375,5.96875l-4.4375-3.5625 .59375-.03125c.84162-.73449.9481-1.33551 1.09375-2.3125l3.84375-.0625zm-13.375.71875c.39535.35817.49071.73557.0625,1.09375l-6.125,1.53125c-.11569-.65443-.07262-1.49808-.0625-2.15625l6.125-.46875zm-73.3125.40625 .25,1.375c-1.31086,1.14956-2.35386,2.51078-3.1875,4.03125l-1.75.96875c.38462-.86302.78368-1.71681 1.25-2.53125 .95675-1.45173 2.13071-2.75365 3.4375-3.84375zm26.78125.375 1.09375,8.71875-3.15625-.46875c-1.39224-2.43977-1.16248-5.36907-.25-8.1875l2.3125-.0625zm54.0625.90625 4.625,3.96875c-.22549.59441-.49156,1.17203-.78125,1.71875l-4.9375-5.28125c.11638-.12271.23004-.24132.34375-.375l.75-.03125zm-18.125.03125c.01047,1.0522.08257,2.10604.21875,3.15625l-12.9375,8.9375c-.40755-.82569-.87828-1.63003-1.4375-2.40625l14.15625-9.6875zm9.8125.125c.13343.29903.31907.646.5625,1.03125l-3.3125-.28125 2.75-.75zm1.90625.5c.47048-.01497.85611.66274.4375,1l-4.40625,7.28125c-.41612-.44403-.79143-.96597-1.125-1.5 1.6743-1.98525 3.16082-4.37725 4.625-6.5 .15071-.19862.31192-.27626.46875-.28125zm4.96875.0625 5.0625,5.375c-1.44405,1.90333-3.29844,3.4974-5.59375,4.53125l-.625-9.09375c.40085-.17491.78784-.47092 1.15625-.8125zm-79,.125 .25,1.3125-2.46875,1.34375c.63771-.96593 1.38445-1.85745 2.21875-2.65625zm68.21875.40625 4.375.375c-1.24544,1.85063-2.46817,3.56951-3.875,5.40625-.91374-1.60723-1.49161-3.49075-1.78125-5.4375l1.28125-.34375zm9.09375.46875 .8125,9.03125c-.27999.11768-.55135.24197-.84375.34375-.35045.06576-.70048.09627-1.03125.125l-.09375-9.40625 1.15625-.09375zm-1.65625.15625 .125,9.375c-2.1859.0809-3.90279-.64654-5.25-1.875l4.40625-7.4375 .71875-.0625zm-72.25.0625 5.9375,3.40625 .0625.75-6.71875-3.3125c.28418-.28459.50099-.57709.71875-.84375zm-2.6875.34375 8.625,4.34375c.18454.98318 1.7791,2.36519 3.3125,1.65625l13.5625,6.84375c-.49223.85781-.92684,1.76263-1.3125,2.71875l-.15625-.15625-26.71875-13.84375 2.6875-1.5625zm-2.75,1.59375 .0625.21875 26.84375,13.78125c-.05698.14199-.10167.29324-.15625.4375-.80935.54974-1.75344,1.15026-2.6875,1.75l-27.78125-14.03125 3.71875-2.15625zm-3.90625,2.28125v.03125l27.78125,14c-.95961.61556-1.91121,1.2282-2.75,1.78125l-28.03125-14.0625 3-1.75zm44.21875.4375c-3.52775,1.0058-6.81502,3.79881-9.1875,7-4.42727,7.20972-5.48299,16.54026 0,23.4375 3.18227,3.00722 6.64691,3.41451 9.875,2.34375-1.11891.47199-2.29037.71734-3.625.8125-4.85126-.40314-7.30948-2.33292-9.75-6.46875-1.6713-3.72765-2.1572-9.23922-.8125-14.65625 1.30246-3.79918 3.96527-7.09882 6.6875-9.46875 1.90116-1.65512 4.20447-2.75744 6.8125-3zm-24.59375.1875 8.59375,4.5625 .03125-.03125c.12551.49024.35833,1.01212.71875,1.59375l-9.8125-4.78125c.44774-.39345.40391-.94946.46875-1.34375zm26.59375.25c.27751-.01383.5344-.01082.8125,0 2.02257.07867 4.07601.83362 5.9375,2.4375 5.45273,6.51374 3.98279,15.89736.0625,22.75-4.00504,6.04994-11.77818,9.56497-17.4375,4.03125-5.49895-6.51681-4.0873-15.35304-.15625-22.21875 2.5483-3.86668 6.61865-6.79257 10.78125-7zm-16.0625.71875 3.34375.65625 .5,4c-.56032.6995-1.057,1.44312-1.53125,2.21875l-2.78125-1.375c-2.24121-2.42016-.23184-3.75806.46875-5.5zm15.53125.78125c-.43841.01656-.87591.05955-1.34375.125-7.68277,2.40678-10.5988,9.49425-11.0625,17 .06537,6.98495 3.6957,12.79263 11.15625,11.75 7.68507-2.4039 10.69164-9.92459 11.15625-17.4375-.06023-6.57374-3.33006-11.68597-9.90625-11.4375zm-48.03125.3125c8.68128,4.45913 18.53496,9.51345 27.3125,13.78125l.71875,2.21875-26.15625-13.03125-1.875-2.96875zm-.5625.09375 1.25,2c-.90208,5.09054-.07702,10.32189 3.34375,14.625 1.2123,1.14561 2.4836,1.89113 3.75,2.34375l-.21875.34375c-3.13206-.84577-5.09972-2.72674-7.03125-6-1.53274-3.4186-2.05328-8.34193-1.09375-13.3125zm48.625,0c6.2242-.36985 8.9211,5.70404 9.28125,11.375-.00213.07192-.02844.14686-.03125.21875-.05163-.4712-.22191-.80575-.5-.8125l-.59375.125c.0011-.24893.00511-.57367 0-.6875-.15872-1.93014-.86159-3.67748-1.90625-5.21875l.53125-.65625c.10265-.85263-1.6195-2.83918-2.75-2.5l-.28125.53125c-1.63453-1.48944-3.64353-1.78953-5.75-1.9375 .62621-.33152 1.31121-.3629 2-.4375zm-1.90625.78125-.63258.36206c-.00356-.13044.13515-.19752.13258-.33081l.5-.03125zm.625.03125c1.05562.11133 1.97508.42662 2.8125.8125l-3.8125,2.5c-.02719-.79977-.01977-1.71711-.04956-2.55714l1.04956-.75536zm-1.625.03125c.07088,3.13092.19922,6.44563.28125,9.5625 .09619.28651-1.29509.88881-1.1875.1875l-.9375-8.65625c.57489-.40116 1.19707-.7751 1.84375-1.09375zm4.625.875c.64602.31106 1.24948.65266 1.84375,1l-1.03125,1.875-4.71875,3.25c-.02084-1.14298-.05585-2.26219-.09375-3.375l4-2.75zm-6.90625.5625 .0625.56786-2.375,1.61964c.68848-.80598 1.45737-1.53866 2.3125-2.1875zm9.75.125c.88479-.2095 1.90035,1.51258 1.5,2.03125l-5,6.25c-.40237-.27669-.78561-.45838-1.15625-.53125 1.57054-2.53128 2.851-5.46681 4.65625-7.75zm-51.4375.4375 1.125,1.875c-.01294.17727-.02033.35446-.03125.53125 .05112,5.46242 2.30494,10.19105 6.84375,11.5l-.84375,1.375c-1.28053-.43045-2.53333-1.15269-3.6875-2.28125-3.22952-3.82731-4.05485-8.44234-3.40625-13zm.875.375 26.03125,12.90625 .90625,2.84375-24.4375-11.8125-2.5-3.9375zm40.9375.28125 .28125,2.3125-3.21875,2.3125-1.25-1.15625c.29162-.51335.62615-.99322.96875-1.46875l3.21875-2zm7.40625,1.40625-2.84375,5.21875c-.87013-.17864-1.13406-.05888-1.6875,0 .00331-.72406.01123-1.4193 0-2.09375l4.53125-3.125zm3.65625.40625c.07922.12189.14722.25046.21875.375l-1.34375,1 1.125-1.375zm-51.09375.4375 .21875.375-.1875.03125c-.02207-.12483-.02166-.26971-.03125-.40625zm40.34375.40625 .375,3.15625-1.375.9375-2.125-1.96875 3.125-2.125zm11.21875,0c.62133,1.26849.90329,2.6628 1.03125,4.21875 .04338.27318.03587.472.03125.6875l-5.59375,1.3125c-.12395-.46684-.32637-.9209-.59375-1.375l2.40625-2.9375 2.71875-1.90625zm-51,.53125 1.875,3.09375 .9375.5c-.47166.65253-.95456,1.29743-1.46875,1.96875-.91374-1.60723-1.49161-3.49075-1.78125-5.4375l.4375-.125zm35.09375.59375 5,4.71875c-.02267.77539-.03682,1.53021-.75,1.5l-5.125-4.34375c.26011-.64528.547-1.26882.875-1.875zm-33.9375.09375 24.40625,11.90625 .90625,2.78125-24.03125-12.625-1.28125-2.0625zm39.03125,2.15625 .09375.875c-.4427-.17808-.57945.28973-.875.4375l-.5-.46875 1.28125-.84375zm-6.15625.125 .125.09375-.21875.1875c.03297-.09292.0594-.18886.09375-.28125zm.28125.21875 2.28125,1.875-3.6875,2.5c.18247-1.38819.49263-2.75349.9375-4.0625l.46875-.3125zm-5.1875.5c-.3284,1.12597-.58256,2.25749-.71875,3.375l-3.09375,1.90625-.71875-2.40625c1.58641-1.05195 2.97751-1.94038 4.53125-2.875zm-25.90625.125 1.28125.65625-1.8125,3c-.41612-.44403-.79143-.96597-1.125-1.5 .57136-.67747 1.12335-1.40902 1.65625-2.15625zm37.0625.09375 .0625.4375c.5917.88535 1.30076.19646 1.71875-.3125h.3125c-.45543.33098-.89554.77302-1.3125,1.28125-1.11126,1.91634-1.18612,3.89603 0,5.75 .2683.2045.52754.35798.78125.46875l-.78125.09375c.20502-.97662-1.12867-1.19993-1.5625-1.34375-.17387.26618-.32931.49305-.5.75-.22524-.31001-.39093-.64665-.53125-1l.90625-.25c.51226-.79671.09948-1.47603-.25-1.875l-1,.0625c-.0836-.50107.15044-.94083.28125-1.40625l1.09375.90625c.5399-.40645 1.11197-1.16402.90625-2.34375l-.8125-.75 .6875-.46875zm3.0625.03125c.6661-.08384 1.47215.33777 2.125.71875 .2199.31629.17914.71923.28125,1.0625l-2.78125-.0625c-.74167.58695-1.14949,1.3362-1.15625,2.125s.36934,1.56955.96875,2.3125l2.1875-.0625-.0625.03125c-.93793,1.00548-2.29575,1.37204-3.46875.6875-1.04826-1.50343-.65872-3.87272.09375-5.4375 .46401-.63935 1.1464-1.29115 1.8125-1.375zm9.625.78125c.37086.28587.64756,1.54049-.21875,2.3125l-4.4375.125c-.11657-.48418-.31471-.91612-.625-1.21875l5.28125-1.21875zm-47.9375.03125 2.875,1.5-1.96875,3.25c-1.06268-.31478-1.99287-.87486-2.78125-1.59375l1.875-3.15625zm31.6875.4375 1.25,1.03125c-.27801.55697-.239,1.15525-.28125,1.75l-4.875.40625c.01799-.18985.03983-.37361.0625-.5625l3.84375-2.625zm10.5625.9375c.24689.17979.686,1.02488.75,1.5 .06121.45437-.28239,1.34001-.71875,1.84375l-4.28125.1875c-.39418-.5453-.56603-1.36902-.5625-1.78125 .00371-.43255.26573-1.20662.75-1.625l4.0625-.125zm6.40625.125c-.25719,2.63424-.96475,5.18938-2.15625,7.46875 .57305-1.99612.91184-4.0564 1.0625-6.125h.625c.21636-.36814.37457-.85498.46875-1.34375zm-7.4375.1875c-.72118.64829-1.24328,1.6137.0625,2.5l.46875.03125c-.77235-.94146-.38017-1.72102-.125-2.5l-.40625-.03125zm-37.78125.125 1.90625,1-12.1875,21.53125-8.90625,12.96875-2.3125-1.1875 3.71875-5.90625 2.46875-3.65625 15.3125-24.75zm19.9375.65625c-.1349,1.17679-.17034,2.32861-.125,3.5l-2.03125,1.40625-.84375-2.875 3-2.03125zm23.84375.375c-.06719,2.03448-.43238,4.08204-1.09375,5.96875l-4.4375-3.5625 .59375-.03125c.84162-.73448.9481-1.33551 1.09375-2.3125l3.84375-.0625zm-41.375.21875 .5.25-.3125.53125c-4.46875,7.63542-6.48432,12.32701-13.40625,22.90625l-4.15625,6.71875-2.40625,3.3125-1.09375.40625 2.8125-4.21875 4.4375-6.34375 13.625-23.5625zm.75.40625 .625.34375c-.37428.21409-.75788.41432-1.15625.59375l.53125-.9375zm27.25.09375c.39535.35818.49071.73557.0625,1.09375l-6.125,1.53125c-.11569-.65443-.07262-1.49808-.0625-2.15625l6.125-.46875zm-25.875.625 1.21875.625c-1.42572,1.01339-2.96975,1.7689-4.5625,2.125l.90625-1.625c.86923-.31726 1.69199-.67924 2.4375-1.125zm33.40625,1.0625 4.625,3.96875c-.22549.59442-.49156,1.17203-.78125,1.71875l-4.9375-5.28125c.11638-.1227.23004-.24132.34375-.375l.75-.03125zm-8.3125.15625c.11885.26636.29698.57272.5.90625l-2.90625-.25 2.40625-.65625zm1.90625.5c.47048-.01497.85611.66274.4375,1l-4.40625,7.28125c-.41612-.44402-.79143-.96597-1.125-1.5 1.6743-1.98525 3.16082-4.37725 4.625-6.5 .15072-.19862.31192-.27626.46875-.28125zm4.96875.0625 5.0625,5.375c-1.44405,1.90334-3.29844,3.4974-5.59375,4.53125l-.625-9.09375c.40085-.17491.78784-.47092 1.15625-.8125zm-16.6875.25c.05285,1.08889.19536,2.19351.375,3.28125l-1.46875,1-.875-2.9375 1.96875-1.34375zm6.25.1875 4.09375.375c-1.26755,1.8868-2.50677,3.63205-3.9375,5.5-.91374-1.60723-1.49161-3.49075-1.78125-5.4375l1.625-.4375zm8.75.5625 .8125,9.03125c-.27999.11769-.55135.24197-.84375.34375-.35045.06577-.70048.09627-1.03125.125l-.09375-9.40625 1.15625-.09375zm-1.65625.15625 .125,9.375c-2.1859.08091-3.90279-.64653-5.25-1.875l4.40625-7.4375 .71875-.0625zm-31.25.40625c-.41958.17699-.84244.32086-1.28125.4375l.03125-.125c.42001-.0854.83576-.17509 1.25-.3125zm-23.59375,15.21875 6.5,2.875-.46875.75-7.71875-3.3125 1.6875-.3125zm-2.3125.46875 8.1875,3.53125-2.40625,3.28125-7.84375-3.4375 2.0625-3.375zm12.84375,4.46875 8.28125,4.28125-.4375.1875-8.375-3.5 .53125-.96875zm-.625,1.1875 7.9375,3.84375-1.5625,2.53125-8.25-3.46875 1.875-2.90625zm9.0625,3.46875-1.1875,2.59375-.78125.15625 1.40625-2.53125 .5625-.21875z"/>
</svg>
