<?xml version="1.0" encoding="UTF-8"?>
<svg viewBox="0 0 128 128" xmlns="http://www.w3.org/2000/svg" xmlns:xlink="http://www.w3.org/1999/xlink">
 <defs>
  <filter id="ab">
   <feGaussianBlur stdDeviation="1.40812"/>
  </filter>
  <filter id="z">
   <feGaussianBlur stdDeviation=".80814"/>
  </filter>
  <filter id="aa" x="-.07818" y="-.10603" width="1.1564" height="1.2121">
   <feGaussianBlur stdDeviation=".49536"/>
  </filter>
  <linearGradient id="a">
   <stop stop-color="#b1b1b1" offset="0"/>
   <stop stop-color="#e4e4e4" offset="1"/>
  </linearGradient>
  <linearGradient id="b">
   <stop stop-color="#007dff" offset="0"/>
   <stop stop-color="#58abff" offset="1"/>
  </linearGradient>
  <linearGradient id="y" x1="56.653" x2="58.693" y1="98.43" y2="123.99" gradientUnits="userSpaceOnUse" xlink:href="#a"/>
  <linearGradient id="x" x1="42.724" x2="69.535" y1="114.03" y2="62.4" gradientUnits="userSpaceOnUse" xlink:href="#a"/>
  <linearGradient id="w" x1="63.741" x2="96.086" y1="90.378" y2="113.04" gradientUnits="userSpaceOnUse" xlink:href="#a"/>
  <linearGradient id="v" x1="59.589" x2="58.551" y1="113.17" y2="57.038" gradientUnits="userSpaceOnUse" xlink:href="#a"/>
  <linearGradient id="u" x1="52.843" x2="89.859" y1="64.173" y2="84.93" gradientUnits="userSpaceOnUse" xlink:href="#b"/>
  <linearGradient id="t" x1="40.303" x2="44.195" y1="59.286" y2="65.6" gradientUnits="userSpaceOnUse" xlink:href="#a"/>
  <linearGradient id="s" x1="95.135" x2="101.54" y1="57.574" y2="69.596" gradientUnits="userSpaceOnUse" xlink:href="#a"/>
  <linearGradient id="r" x1="64.951" x2="78.876" y1="76.627" y2="79.827" gradientUnits="userSpaceOnUse" xlink:href="#a"/>
  <linearGradient id="q" x1="67.286" x2="94.876" y1="70.443" y2="75.027" gradientUnits="userSpaceOnUse" xlink:href="#a"/>
  <linearGradient id="p" x1="62.616" x2="66.162" y1="73.081" y2="37.535" gradientUnits="userSpaceOnUse" xlink:href="#a"/>
  <linearGradient id="o" x1="58.119" x2="80.432" y1="51.382" y2="65.739" gradientUnits="userSpaceOnUse" xlink:href="#b"/>
  <linearGradient id="n" x1="53.572" x2="55.04" y1="51.22" y2="53.666" gradientUnits="userSpaceOnUse" xlink:href="#a"/>
  <linearGradient id="m" x1="81.887" x2="85.067" y1="50.119" y2="54.4" gradientUnits="userSpaceOnUse" xlink:href="#a"/>
  <linearGradient id="l" x1="65.742" x2="74.181" y1="58.436" y2="62.105" gradientUnits="userSpaceOnUse" xlink:href="#a"/>
  <linearGradient id="k" x1="65.62" x2="77.606" y1="54.522" y2="56.418" gradientUnits="userSpaceOnUse" xlink:href="#a"/>
  <linearGradient id="j" x1="67.087" x2="65.253" y1="55.317" y2="39.294" gradientUnits="userSpaceOnUse" xlink:href="#a"/>
  <linearGradient id="i" x1="61.461" x2="71.613" y1="46.602" y2="52.596" gradientUnits="userSpaceOnUse" xlink:href="#b"/>
  <linearGradient id="h" x1="68.127" x2="70.94" y1="43.912" y2="48.131" gradientUnits="userSpaceOnUse" xlink:href="#a"/>
  <linearGradient id="g" x1="67.087" x2="71.185" y1="45.441" y2="49.11" gradientUnits="userSpaceOnUse" xlink:href="#a"/>
  <linearGradient id="f" x1="68.31" x2="66.904" y1="45.318" y2="41.894" gradientUnits="userSpaceOnUse" xlink:href="#a"/>
  <linearGradient id="e" x1="67.087" x2="68.738" y1="42.75" y2="44.462" gradientUnits="userSpaceOnUse" xlink:href="#b"/>
  <linearGradient id="d" x1="62.439" x2="67.76" y1="36.573" y2="41.343" gradientUnits="userSpaceOnUse" xlink:href="#b"/>
  <linearGradient id="c" x1="69.014" x2="74.09" y1="37.032" y2="49.171" gradientUnits="userSpaceOnUse" xlink:href="#b"/>
 </defs>
 <path d="m45.25 99.5c2.1254 6.3761-23.147-0.68354-27.27-17.981-3.1549-13.236 24.699-34.311 44.52-27.019 16.769 6.1694 11.25 52.5-17.25 45z" fill-opacity=".62745" fill-rule="evenodd" filter="url(#ab)"/>
 <path d="m21.795 79.222 0.43243 4.9297 0.69189 2.4216 2.4216 4.1514 4.1514 4.4108 3.2865 2.4216 7.3514 4.3243 7.9568 2.9405 9.0811 2.0757 8.9946 0.6054 9.773-0.51892 7.3514-1.4703 6.573-1.6432 10.465-4.5838 6.1405-3.8919 5.4486-5.1892 1.4703-2.1622 1.1243-2.6811 0.69189-3.4595-0.08649-3.2-0.51892-1.8162-0.17297 4.1514-1.4703 4.6703-1.7297 2.7676-3.8054 4.5838-7.2649 5.3622-9.5135 3.9784-11.416 2.9405-12.541 0.86487-7.9568-0.51892-10.292-2.0757-8.3027-3.2865-3.4595-1.6432-4.4108-3.2865-4.5838-3.9784-2.7676-3.6324-1.9892-4.3243-0.34595-2.0757-0.17297-4.3243-0.6054 2.1622z" fill="url(#y)" fill-rule="evenodd"/>
 <path d="m22.227 84.151 0.69189 2.4216 2.4216 4.1514 4.1514 4.4108 3.2865 2.4216 7.3514 4.3243 7.9568 2.9405 9.0811 2.0757 8.9946 0.6054 9.773-0.51892 8.2075-1.776-0.12673-1.1021-4.7943 1.2349-12.541 0.86487-7.9568-0.51892-10.292-2.0757-8.3027-3.2865-3.4595-1.6432-4.4108-3.2865-4.5838-3.9784-2.7676-3.6324-1.9892-4.3243-0.69189 0.69189z" fill-opacity=".15686" fill-rule="evenodd"/>
 <path d="m29.059 65.47-2.5946 2.5081-2.5946 4.2378-1.9027 6.4 0.86486 4.7568 2.9405 5.6216s1.9027 1.9892 2.4216 2.854 5.7081 4.9297 5.7081 4.9297l7.6108 4.3243 6.9189 2.4216 7.4378 1.6432 10.551 1.2108 10.119-0.60541 7.9568-1.6432 9.0811-2.7676 6.6595-3.2 5.1892-3.4595 3.373-3.027 2.7676-3.373 1.9892-3.8919 0.95135-3.8919 0.08648-3.9784-0.43243-1.4703-1.9892-3.027-1.5568-1.5568-2.3351-1.4703 1.2108 4.8432-0.69189 7.0054-2.1622 4.8432-5.1892 5.1027-6.573 3.8919-8.3892 2.9405-5.9676 1.4703-12.281 1.0378-10.638-0.86486-7.4378-1.6432-7.6108-2.9405-6.054-3.2-4.7568-4.1514-3.7189-5.4486-0.86487-3.1135 0.17297-3.2865-0.08649-2.854 1.0378-4.3243 0.77838-2.854z" fill="url(#x)" fill-rule="evenodd"/>
 <path d="m27.243 74.638-0.17297 3.6324 2.0757 5.6216 5.6216 6.054 7.3514 4.9297 10.119 3.373 12.022 1.7297 10.724-0.08649 7.1784-0.95135 10.724-3.2865 7.3514-3.7189 5.9676-5.7081 3.027-6.227 0.08649-7.1784-0.25946 1.7297-0.69189 2.3351-0.77838 2.1622-1.2973 2.4216-1.8162 2.6811-2.7676 2.854-3.9784 2.9405-6.4 2.854-7.6973 2.0757-11.676 1.3838-10.205-0.25946-10.292-1.9892-8.6486-3.373-5.7081-3.027-4.1514-3.2-2.0757-2.4216-2.4216-3.546-1.2108-3.8054z" fill="url(#w)" fill-rule="evenodd"/>
 <path d="m44.281 56.908c-0.34595 0.25946 2.0757-3.546 2.0757-3.546l-2.9405 1.0378-7.4378 3.7189-3.546 3.027-2.854 3.7189-1.5568 4.0649-0.69189 5.0162 0.17297 1.9027 1.0378 2.5946 1.4703 2.7676 3.027 3.373 3.546 2.5946 5.7081 3.373 7.4378 2.9405 9.773 2.2486 13.059 0.43243 7.9568-0.86486 5.6216-1.1243 6.4865-1.7297 6.4-3.2865 3.373-2.7676 1.9892-2.2486 1.8162-2.5081 1.9027-3.6324 0.51892-1.9027 0.51892-2.0757-0.95136-5.6216-3.7189-6.4-6.6595-5.4486-5.4486-2.1622-2.5081-0.6054 1.6432 4.0649 1.0378 2.6811-1.0378-3.6324 1.4703 0.43243 2.0757 1.3838 3.7189 2.854 2.3351 2.4216 1.6432 3.6324 0.77837 4.0649-0.43243 2.9405-1.4703 3.6324-3.5459 4.7568-5.5351 3.9784-5.3622 2.4216-8.2162 2.0757-7.2649 0.69189-7.2649 0.25946-9.254-1.2108-7.0054-2.1622-5.9676-2.6811-5.9676-4.6703-2.854-5.1027-1.2108-3.8919-0.17297-1.2973 0.95135-4.6703 2.2486-3.373 3.9784-3.8054 5.1027-2.6811z" fill="url(#v)" fill-rule="evenodd"/>
 <path d="m43.07 61.405-4.4973 2.0757-2.9405 2.7676-1.9027 2.854-1.0378 4.3243 0.08649 1.8162c0.95708 3.1328 2.5117 5.2697 4.1514 7.2649l7.5243 5.1892 9.1676 3.2865 12.8 1.6432 10.119-0.77838 11.849-2.6811 7.5243-4.0649 2.854-2.7676 3.2865-4.4973 1.7297-5.3622c-0.80391-2.6605-1.6805-5.1394-2.9405-6.6595-2.354-2.6344-5.1294-3.5835-7.6973-5.3622l-50.076 0.95135z" fill="url(#u)" fill-rule="evenodd"/>
 <path d="m44.195 57.254-4.1514 1.6432-4.4108 3.6324-1.9892 3.027-1.3838 4.3243 0.08649 3.8919 0.60541 0.17297v-1.5568l0.77838-2.9405 1.6432-2.9405 2.854-2.6811 5.0162-2.4216 0.25946-2.0757 0.69189-2.0757z" fill="url(#t)" fill-rule="evenodd"/>
 <path d="m91.416 56.649 1.2973 4.0649 3.027 1.0378 3.373 2.3351 2.1622 1.9892 1.3838 3.546s0.86486 2.3351 0.86486 1.9892-1.0378-5.2757-1.0378-5.2757l-2.0757-3.2-2.5946-2.6811-2.7676-2.1622-3.6324-1.6432z" fill="url(#s)" fill-rule="evenodd"/>
 <path d="m57 79.75c-0.97837-4.0032-2.9209-4.1498-4.5-5.75 0 0-9.3022-3.4441-10.25-5.5-3.649-7.9149 4.3429-11.762 10.25-11.25 5.734 0.49681 15.5 4 16 7.25s-10.5 15.25-11.5 15.25z" fill-opacity=".58824" fill-rule="evenodd" filter="url(#z)"/>
 <path d="m56.908 79.481 0.69189-3.2865 4.4973 1.4703 5.6216 0.43243 4.4973-0.6054 5.4486-1.3838 0.6054 3.8054-3.2 2.0757-5.5351 1.3838-4.9297 0.17297-4.1514-1.3838-2.6811-1.5568-0.86487-1.1243z" fill="url(#r)" fill-rule="evenodd"/>
 <path d="m43.935 58.119-0.86487 2.854 0.17297 2.4216 0.86487 2.5081 2.2486 3.2 6.054 4.7568 5.4486 2.6811 6.227 1.1243 5.1892 0.25946 6.4-1.0378 4.1514-1.4703 5.7081-3.1135 4.8432-4.3243 1.9892-3.2865 0.51892-2.4216-0.77838-3.7189-0.60541 2.7676-1.4703 3.4595-1.7297 2.3351-3.2865 2.5946-5.1892 2.6811-6.4865 1.4703-4.6703 0.86486-2.7676-0.08649-4.7568-0.77838-4.5838-1.2973-5.1027-2.1622-3.373-2.5946-1.9892-2.3351-1.4703-3.027-0.6054-1.6432-0.08649-2.6811z" fill="url(#q)" fill-rule="evenodd"/>
 <path d="m56.995 47.135-5.0162 2.4216-3.4595 1.6432-2.0757 2.3351-1.9892 2.854-0.69189 3.2865 0.60541 2.5946 1.8162 3.546 2.7676 3.027 7.0054 3.546 3.373 1.1243 5.2757 1.0378 3.6324 0.25946 4.4108-0.60541 5.2757-1.2108 4.8432-1.9027 2.5946-1.6432 1.7297-1.2108 1.6432-1.5568 1.9892-3.1135 1.1243-4.2378-1.1243-4.0649-2.5946-3.546-5.4486-3.1135-4.6703-1.3838-21.016-0.08649z" fill="url(#p)" fill-rule="evenodd"/>
 <path d="m56.649 50.508-4.4108 2.2486-1.7297 1.4703-2.1622 2.2486-1.3689 3.6578 1.196 3.5206 3.8919 3.546 3.9784 1.9027 5.3622 1.2973s4.6703 0.17297 6.1405 0.6054 7.0054-0.6054 7.0054-0.6054l5.2757-1.4703 5.0162-2.7676 2.2486-2.5946 1.9027-3.8919-1.4703-2.9405-1.1243-1.8162-3.027-2.3351-3.8054-1.8162-22.919-0.25946z" fill="url(#o)" fill-rule="evenodd"/>
 <path d="m46.539 58.956 0.97848-2.8743 1.4066-2.385 3.0578-2.9354 4.342-1.8347v1.7735l-2.5074 0.91733-2.5074 1.6512-1.8346 1.8958-1.4066 1.8958-1.0396 3.0578-0.48924-1.162z" fill="url(#n)" fill-rule="evenodd"/>
 <path d="m79.318 48.743 3.8528 1.957 2.8743 2.3239 2.0793 2.752 0.91733 3.3024-1.7123-2.6297-1.7735-2.3239-2.8131-1.8346-3.3024-1.4677-0.12231-2.0793z" fill="url(#m)" fill-rule="evenodd"/>
 <path d="m60.75 60-2.5-3.5s-3.75-0.75-3.75-2.75 5.75-5.75 9.5-4.75 6.5 5.75 5.5 6.75-8 4.75-8.75 4.25z" fill-opacity=".54902" fill-rule="evenodd" filter="url(#aa)"/>
 <path d="m60.482 60.179 0.85617-3.0578 1.957 0.91733 3.4858 0.61155h2.6908l5.5651-1.957 0.42809 3.1801-1.7124 1.6512-4.7701 1.59-2.8131-0.18347s-1.8346-0.36693-2.1404-0.48924-3.4858-2.2016-3.547-2.2627z" fill="url(#l)" fill-rule="evenodd"/>
 <path d="m56.507 48.926-0.24462 1.0396 0.12231 1.162 0.85617 2.5074 1.8958 2.2016 2.0181 1.2231s3.3024 1.0396 3.9139 1.2843 3.8528 0.36693 3.8528 0.36693l2.385-0.42809 4.342-1.8958 2.6297-2.5074 1.0396-2.385 0.06115-1.7735-0.61155-1.7123-22.26 0.91733z" fill="url(#k)" fill-rule="evenodd"/>
 <path d="m56.507 48.926-0.24462 1.0396 0.12231 1.162 0.85617 2.5074 1.8958 2.2016 2.0181 1.2231s3.3024 1.0396 3.9139 1.2843 3.8528 0.36693 3.8528 0.36693l2.385-0.42809 4.342-1.8958 2.6297-2.5074 1.0396-2.385 0.06115-1.7735-0.61155-1.7123-22.26 0.91733z" fill-opacity=".15686" fill-rule="evenodd"/>
 <path d="m56.569 47.764 0.06115 1.7735 0.79502 2.0181 1.4066 1.3454 1.8958 1.2843 4.0974 1.4677 2.3239 0.24462 2.5685-0.18346 4.4643-1.3454 3.1189-1.957 1.59-3.7916-1.4066-2.8743-2.752-2.385-3.3635-1.4677-6.1155-0.12231-4.7701 1.5289-2.752 2.2016-1.162 2.5685v-0.30578z" fill="url(#j)" fill-rule="evenodd"/>
 <path d="m58.954 48.437 0.42809 2.3239 2.2627 1.7123 1.957 0.73386 4.0974 0.48924 4.0362-0.48924 2.9966-1.59 1.2843-1.5289 0.30578-0.97848c-0.5329-1.0746-1.2717-1.7374-1.957-2.5074l-3.3024-1.162-7.3386 0.30578c-1.3658-0.07158-2.7316 0.90074-4.0974 1.7735l-0.67271 0.91733z" fill="url(#i)" fill-rule="evenodd"/>
 <path d="m61.55269,47.45863-.85617.09173-.30578.24462-.12231.45866 .82559,1.25368 .61155.12231 .97848.12231 .9479-.2752 .36693-.2752 .06115-.61155-.24462-.79502-.42809-.2752-1.83466-.06116z" fill="#fff" fill-opacity=".12549" fill-rule="evenodd"/>
 <path d="m58.403 48.07 1.4066-2.5074 3.7916-1.7735 7.2775-0.24462 4.4032 1.8958 1.2231 2.0793-0.24462 1.6512c-0.3878-0.93579-0.79666-1.7873-1.3454-2.0793l-3.1189-1.5289-7.4609-0.24462-3.8528 1.2843-1.6512 1.8958-0.42809-0.42809z" fill="url(#h)" fill-rule="evenodd"/>
 <path d="m71.7656,49.32386-.36693.33635-.12231.36693-.2752.64213 .21404.39751 .48924.39751 .88675.30578h.94791l.51982-.2752 .5504-.48924 .24462-.61155-.33635-.45866-.85617-.30578-1.89581-.30578z" fill="#fff" fill-opacity=".12549" fill-rule="evenodd"/>
 <path d="m58.403 48.07 1.4066-2.5074 3.7916-1.7735 7.2775-0.24462 4.4032 1.8958 1.2231 2.0793-0.24462 1.6512c-0.3878-0.93579-0.79666-1.7873-1.3454-2.0793l-3.1189-1.5289-7.4609-0.24462-3.8528 1.2843-1.6512 1.8958-0.42809-0.42809z" fill-opacity=".15686" fill-rule="evenodd"/>
 <path d="m64.458 48.437 0.67271-5.504c0.06584 1.2644 0.83861 1.5863 1.3454 2.2627 1.5819 0.39547 2.7383 0.15277 3.6693-0.42809 0.81109-0.40943 0.55538-1.2456 0.61155-1.957l0.42809 5.8709-2.6908 1.1008-3.0578-0.61155-0.97848-0.73386z" fill="url(#g)" fill-rule="evenodd"/>
 <path d="m66.72 45.196-1.6512-1.4066-0.06115-0.67271 1.4066-0.97848 2.8131-0.24462 1.7123 1.162-0.36693 1.0396-1.4066 1.2231-2.4462-0.12231z" fill="url(#f)" fill-rule="evenodd"/>
 <path d="m67.699 42.75-1.3454 0.30577 0.42809 1.1008 1.4066 0.30578 1.4066-0.79502-0.48924-0.67271-1.4066-0.24462z" fill="url(#e)" fill-rule="evenodd"/>
 <path d="m67.39301,43.30007 .36693-.73386-.18347-1.2231 .03058-2.56852-.61155-2.41563-.8256-1.37599-1.31484-.85617-1.4983-.21404-1.10079.48924-.88675.97848-.51982,1.92639-.21404,1.59004 .09173,2.20159 .58097,4.80068 .24462,1.62061 .12231.70328 .30578.36693 .5504.18347 .58097-.09173 .30578-.36693-.36693-2.9966-.36693-3.45527-.06115-1.95696 .42809-1.86523 .97848-1.31484 .97848-.36693 .48924.79502 .30578,1.16195 .36693,1.59004 .2752,1.89581 .48924,1.25368c.15586.3869.22187.42429.45866.24462z" fill="url(#d)" fill-rule="evenodd"/>
 <path d="m67.91283,43.36123-.12231-1.07022-.24462-.67271 .15289-2.17101 .42809-1.95697 .45866-1.00906 .51982-.51982 .73386-.42809 .9479-.18346 .97848.24462 .85617.42809 .76444.70328 .30578.51982 .42809,1.00906 .33635,1.16195 .18347,1.10079 .06115,1.80408-.33635,3.57758-.45866,2.93545-.24462,1.13137-.15289.58097-.21404.18347-.45156.13683-.67981-.16741-.2752-.76444 .70328-4.21971 .15289-2.78256-.18347-2.3239-.88675-1.92639-1.28426-1.2231-.39751.48924-.30578.91733-.36693,1.68177-.18347,1.37599-.18346,1.2231-.18347.5504-.2752.12231c0,0-.61155.42809-.58097-.45866z" fill="url(#c)" fill-rule="evenodd"/>
 <path d="m27.243 74.638-0.17297 3.6324 2.0757 5.6216 5.6216 6.054 7.3514 4.9297 10.119 3.373 12.022 1.7297 10.724-0.08649 7.1784-0.95135 10.724-3.2865 7.3514-3.7189 5.9676-5.7081 3.027-6.227 0.08649-7.1784-0.25946 1.7297-0.69189 2.3351-0.77838 2.1622-1.2973 2.4216-1.8162 2.6811-2.7676 2.854-3.9784 2.9405-6.4 2.854-7.6973 2.0757-11.676 1.3838-10.205-0.25946-10.292-1.9892-8.6486-3.373-5.7081-3.027-4.1514-3.2-2.0757-2.4216-2.4216-3.546-1.2108-3.8054z" fill-opacity=".15686" fill-rule="evenodd"/>
 <path d="m56.908 79.481 0.69189-3.2865 4.4973 1.4703 5.6216 0.43243 4.4973-0.6054 5.4486-1.3838 0.6054 3.8054-3.2 2.0757-5.5351 1.3838-4.9297 0.17297-4.1514-1.3838-2.6811-1.5568-0.86487-1.1243z" fill-opacity=".15686" fill-rule="evenodd"/>
 <path d="m43.935 58.119-0.86487 2.854 0.17297 2.4216 0.86487 2.5081 2.2486 3.2 6.054 4.7568 5.4486 2.6811 6.227 1.1243 5.1892 0.25946 6.4-1.0378 4.1514-1.4703 5.7081-3.1135 4.8432-4.3243 1.9892-3.2865 0.51892-2.4216-0.77838-3.7189-0.60541 2.7676-1.4703 3.4595-1.7297 2.3351-3.2865 2.5946-5.1892 2.6811-6.4865 1.4703-4.6703 0.86486-2.7676-0.08649-4.7568-0.77838-4.5838-1.2973-5.1027-2.1622-3.373-2.5946-1.9892-2.3351-1.4703-3.027-0.6054-1.6432-0.08649-2.6811z" fill-opacity=".15686" fill-rule="evenodd"/>
 <path d="m60.482 60.179 0.85617-3.0578 1.957 0.91733 3.4858 0.61155h2.6908l5.5651-1.957 0.42809 3.1801-1.7124 1.6512-4.7701 1.59-2.8131-0.18347s-1.8346-0.36693-2.1404-0.48924-3.4858-2.2016-3.547-2.2627z" fill-opacity=".15686" fill-rule="evenodd"/>
 <path d="m63.469 33.875c-0.53095 0.07494-1.0902 0.32355-1.6875 0.75-1.5007 2.4772-1.3322 5.4313-0.96875 8.2812-1.7839 0.87318-3.2738 2.1982-4.1875 4.125-3.4062 1.9896-5.0088 1.454-10.219 5.9688-7.235 2.1957-13.839 6.1259-17.156 12.062-3.0921 2.569-5.2263 5.5525-6.2812 8.8125v-0.28125c-1.9916 5.9738-1.3825 11.011 0.78125 14.781s5.6817 7.1716 10.062 10.031c4.2074 2.7465 9.2055 4.9998 14.562 6.5938v0.03125l0.0625-0.03125c5.782 1.7144 11.975 2.6783 18.031 2.6562 11.63-0.04206 24.625-3.1506 34.312-8.5 8.5536-4.668 16.952-11.88 13.781-23.031-0.85221-2.9369-3.2238-5.4538-6.1562-7.2188-2.4752-8.1298-10.341-13.278-18.469-15.469-2.8054-3.2265-7.0672-5.057-11.219-6.4688-0.81055-1.9001-2.2298-3.1824-3.9375-4.0312 0.08206-1.9783-0.13605-4.0295-1.1875-6.0938-1.5928-1.6349-2.8187-1.8675-4.3438-1.0625-1.2005 0.93572-1.4942 2.2224-1.5625 3.7812-0.04197-1.7334-0.27084-3.2458-1.5625-4.6562-0.95315-0.801-1.7713-1.1562-2.6562-1.0312zm0.46875 0.15625c0.67228 0.02666 1.3783 0.32518 2.1562 0.9375 1.3332 1.8232 1.5903 4.1019 1.4375 6.2812-0.05344 0.76213 0.49439 1.1103-0.28125 2.2188 0.19296-0.13693 0.32777-0.28637 0.40625-0.46875 0.04167 0.26549 0.18187 0.50182 0.375 0.75-0.02916-0.11435 0.02403-0.20292 0.03125-0.40625-0.74451-1.3428-0.32582-6.5725 1.25-7.5 0.38897-0.18461 0.76481-0.30264 1.125-0.34375 0.13507-0.01542 0.27509-0.03564 0.40625-0.03125 0.91814 0.03071 1.7378 0.55231 2.5312 1.4062 1.977 3.5386 1.0827 7.1265 0.6875 10.281-0.099 0.60088-0.20611 1.7656-0.4375 2.5625-0.02429 0.27815-0.10437 0.63583-0.21875 0.875-0.66927 0.65019-1.8331-0.11113-1.3438-0.75 0.12079-1.553 0.86828-3.8544 0.8125-5.4688-0.11716-2.4279 0.24844-5.2864-2.4375-6.9688-1.0182 0.39694-0.66332 1.1371-1.2812 3.1562 0.0613 0.50787-0.21899 3.1189-0.59375 3.1562-0.0444 0.06453-0.04157 0.05175-0.0625 0.125 0.3181-0.09384 0.3107-0.25361 0.4375-0.59375 0.09308 0.03417 0.17835 0.07584 0.28125 0.125-0.69498 1.3726-2.4496 0.66421-2.5938-0.125 0.06499-0.04133 0.12602-0.06551 0.1875-0.09375 0.04986 0.05255 0.09741 0.11012 0.15625 0.15625 7.6e-4 -0.08333 0-0.16676 0-0.25-0.36344-0.43732-0.80733-2.8554-0.75-3.3125-0.61792-2.2123-0.26302-2.8474-1.2812-3.5625-2.6859 0.84298-2.3203 3.7962-2.4375 6.1875-0.05578 1.5969 0.69171 4.1593 0.8125 5.75 0.23907 0.51336-1.0556 0.89748-1.5625 0.21875-0.11725-0.15699 0.1148-0.40264 0.03125-0.6875-0.25984-0.88589-0.36405-2.2068-0.46875-2.875-0.39524-3.2783-1.2582-7.1417 0.71875-10.062 0.60456-0.4617 1.234-0.71416 1.9062-0.6875zm1.0938 2.5c0.84303 1.2792 0.95192 3.3756 1.2188 4.9688-1.1491 0.09804-2.2688 0.31758-3.3438 0.625-0.45096-2.3115 0.02835-5.1 2.125-5.5938zm5.3125 1.2188c1.5378 0.84268 2.2059 2.6465 2.2812 4.4062-1.0784-0.30372-2.2093-0.5192-3.3438-0.625 0.19207-1.3751 0.36466-2.9404 1.0625-3.7812zm-4.75 4.5312c-0.29498 0.18359-0.59083 0.39817-0.875 0.6875-0.00316 0.05585 5.2e-4 0.10308 0 0.15625l-0.03125 0.21875c-0.56941 0.08382-1.1292 0.18608-1.6875 0.3125-0.02378-0.27389-0.02568-0.5367-0.03125-0.8125 0.79655-0.23351 1.666-0.40987 2.625-0.5625zm3.5625 0c0.61992 0.1835 1.1681 0.50377 1.5625 1-0.36149 0.90217-1.2747 1.6695-2.1562 1.9375-1.5801 0.21863-2.8136-0.76238-3.3438-2.0938 0.35426-0.29762 0.77477-0.51172 1.2188-0.6875 0.03988 0.132 0.06703 0.2611 0.125 0.375l-0.5625 0.1875c0.24128 1.6468 1.0708 1.6254 2.5625 1.5312 0.89578-0.07379 0.74505-0.5874 1.25-1.125-0.28443-0.39286-0.49541-0.60349-0.71875-0.75 0.0237-0.11394 0.04148-0.253 0.0625-0.375zm1.4375 0c0.7009 0.11734 1.3718 0.31473 2.0312 0.53125-0.01389 0.32382-0.04147 0.63258-0.09375 0.9375-0.41303-0.10451-0.83016-0.20437-1.25-0.28125-0.00425-0.60273-0.2706-0.95922-0.6875-1.1875zm-9.6875 1.3438c0.03381 0.24854 0.05996 0.50422 0.09375 0.75-1.5767 0.82354-2.4527 2.1577-2.8125 4.0625 0.72284 4.5693 5.3901 5.262 9.3438 5.4062 3.8004 0.01893 7.3884-0.78852 8.7812-4.1875 0.12728-0.37763 0.22652-0.77259 0.34375-1.1562-0.09468-1.8184-0.8735-3.0755-2-3.875 0.03452-0.30487 0.06928-0.59785 0.09375-0.90625 1.7786 1.0404 3.1648 2.6266 3.7812 4.9375-1.2068 5.4099-6.2482 6.4601-11.062 7.0625-10.947-0.81058-14.097-8.5792-6.5625-12.094zm3.75 0.1875-0.125 1.25c-0.44717 0.06554-0.88282 0.17627-1.3125 0.28125-0.05081-0.37151-0.10935-0.72131-0.15625-1.125 0.54115-0.1547 1.0701-0.30344 1.5938-0.40625zm6.5938 0.1875c0.39517 0.1099 0.79148 0.23216 1.1875 0.375 0.00495 0.36341-0.00124 0.71078-0.03125 1.0625-0.36345-0.11325-0.73969-0.20816-1.125-0.28125l-0.03125-1.1562zm-0.4375 0.03125 0.03125 4.4062c-2.1026 1.3066-4.0717 1.273-6.0625-0.125l0.5-3.7188c0.75237 0.66226 2.0089 1.324 3.2812 1.25 1.0528 0.04742 1.9772-0.97699 2.25-1.8125zm-9.7188 0.96875c0.05188 0.32477 0.09058 0.66381 0.125 1-0.91263 0.43393-1.684 1.0145-2.1875 1.8125 0.2495-1.3549 0.98635-2.1891 2.0625-2.8125zm13.469 0.375c0.95343 0.66658 1.6649 1.6475 1.75 3.125-0.03174 0.16326-0.08111 0.31609-0.125 0.46875-0.39249-1.1463-1.008-1.9434-1.7812-2.5312 0.05073-0.35256 0.10889-0.7041 0.15625-1.0625zm-3.2812 0.40625c0.36033 0.05886 0.71635 0.12976 1.0625 0.21875-0.0977 0.81789-0.26515 1.5777-0.3125 2.2188-0.03479 0.30918-0.08333 0.63734-0.125 0.96875-0.40259 0.17226-0.50277 0.22135-0.8125 1-0.20592 0.34585-0.33418 0.68489-0.03125 0.9375 0.84343 0.57787 1.5843 0.89435 2.6562 0.71875 0.74758-0.68717 1.6319-0.96309 1.0625-1.9062-0.35445-0.0805-0.55352-0.29645-0.8125-0.3125 0.15249-0.66946 0.18941-1.4867 0.3125-2.2188 0.02529-0.18272 0.03602-0.37799 0.0625-0.5625 0.82437 0.51902 1.4813 1.2342 1.8125 2.25-1.092 3.4827-5.3121 4.1625-8.625 4.2812-3.4772-0.02478-7.1155-0.92469-8.3438-4.3125h0.03125c0.02287-1.1114 0.88885-1.8768 2.0938-2.4062 0.03346 0.26778 0.06988 0.50814 0.125 0.75-0.31869-0.13966-0.57312 0.08338-1 0.09375-0.74461 0.81197 0.09055 1.2411 0.6875 2.0625 1.0161 0.38408 1.809 0.24345 2.75-0.15625 0.3469-0.18772 0.28972-0.55776 0.15625-0.9375-0.14802-0.81557-0.24303-0.88312-0.59375-1.125-0.04066-0.28283-0.06497-0.57897-0.09375-0.84375-0.00925-0.12814-0.04722-0.29891-0.0625-0.4375 0.3917-0.09167 0.78606-0.18913 1.1875-0.25l-0.25 2.8125c2.4915 1.9294 4.6122 1.6984 7.125 0.28125l-0.0625-3.125zm-10.25 1.7812c0.15659-0.00319 0.31977 0.02982 0.46875 0.09375-0.01084 1.0438 0.66722 1.1481 1.75 1.0938 0.25352-0.3992 0.26886-0.64225 0.21875-1.125 0.12024 0.09854 0.24393 0.1769 0.34375 0.25-0.04877 0.1573 0.30095 0.9043-0.03125 1.3438-0.97425 0.76018-2.1075 0.44723-2.6562 0.0625-1.1566-1.1628-0.70131-1.7064-0.09375-1.7188zm17.969 0.0625c6.0031 1.6895 11.36 5.0014 12.469 11.594-0.23593 10.666-14.641 14.769-24 15.312-9.3302-0.3119-23.362-5.1298-23.25-15.312 0.41301-6.0428 6.0646-8.9341 12.094-11.438-0.22761 0.33142-0.27491 0.81203-0.34375 1.1562-4.9658 0.87075-8.1698 4.9134-9.6562 10 1.3196 9.8598 13.186 12 21.375 12.375 8.2386-0.23952 19.999-2.6121 21.375-12.375-0.44305-5.4572-4.9736-8.4568-9.625-10.375-0.04633-0.59903-0.27673-0.593-0.4375-0.9375zm-22.875 1.5312c0.00753 0.41169 0.05765 0.79792 0.09375 1.1875-5.2745 2.0103-8.6232 5.2074-9.125 9.125-0.03387-0.17722-0.06772-0.34868-0.09375-0.53125 0.47767-5.0664 4.7284-8.0536 9.125-9.7812zm23.438 0.0625c4.2336 1.6163 7.6666 4.4226 8.8438 8.8125-1.1661-3.9327-4.9179-5.7965-8.8125-7.4062 0.04461-0.46417 0.0353-0.92818-0.03125-1.4062zm-0.4375 0.0625c0.36395 2.625-0.79369 4.1881-3.0312 6.25-5.1356 3.9984-11.812 3.644-16.781-0.0625-1.4035-1.6931-3.0101-3.2139-2.9062-5.4062 1.4907 4.2755 6.8804 5.7576 11.062 6 4.4631-0.169 10.485-1.913 11.656-6.7812zm-7.25 0.15625c-0.02987 0.42127-0.00698 0.85526 0.21875 1.2812 1.1201 0.4058 1.5797-0.06604 1.8125-0.84375 0.72492-0.0194 1.4435 0.63949-0.125 1.6875-0.61399 0.26864-1.8203 0.34406-2.625-0.59375-0.23875-0.49646 0.26671-1.1487 0.25-1.3125 0.1308-0.06047 0.31538-0.13509 0.46875-0.21875zm-15.594 1.4688c0.27195 1.9386 0.99647 3.6342 2.7812 5.2188 0.63124 0.43795 1.2725 0.82487 1.9375 1.1562l-0.625 2.875c3.8512 4.455 11.385 4.1515 15.25-0.09375l-0.375-3.125c0.02115-0.08424 0.93688-0.63179 1.2812-0.84375 1.6622-1.6045 2.7386-3.2868 3.0312-5.0625 4.0883 1.6002 8.0839 4.2302 8.9688 8.6562-1.7336 8.8663-13.251 10.769-20.844 11.125-7.3169-0.2514-18.091-2.3399-20.375-10.406 0.15504-3.8665 3.5174-7.4206 8.9688-9.5zm-10.531 3c-0.64318 0.87996-1.1585 1.8514-1.5625 2.9062-7.5378 2.6806-11.752 7.3584-12.375 15.25 2.2233 16.597 22.252 20.206 36.031 20.844 13.854-0.41363 33.724-4.4048 36.031-20.844 0.08638-7.7191-5.9792-12.461-12.375-15.656-0.3019-0.80247-0.69329-1.5637-1.1562-2.25 9.2612 2.3733 16.389 9.1218 18.5 18.5 0.45245 6.0938-4.6396 13.294-11.938 17.375s-17.792 6-28.969 6-21.02-3.122-28.344-7.1562c-7.6-4.1863-12.52-9.6948-11.844-16.312 0.42295-10.586 9.3235-15.511 18-18.656zm10.094 1.4062c-4.3352 1.6076-3.5272 3.7026-0.0625 5.6562l0.0625-0.3125c-3.0383-1.3287-2.9672-3.6278 0-5.0312v-0.3125zm35.844 1.625 0.1875 0.34375c5.936 2.5127 10.061 6.6034 11.125 12.656-1.4881-5.1533-4.7715-7.3514-10.312-9.9375-0.22041-1.0551-0.62875-2.0558-1-3.0625zm-16.812 0.125 0.25 2.8438c-4.0702 3.844-10.9 3.8346-14.312 0.15625l0.65625-2.5c3.031 1.6756 9.0684 2.0156 13.406-0.5zm-30.938 0.4375c-0.08665 0.3146-0.21106 0.79507-0.25 0.9375-0.36088 0.82104-0.47501 1.8056-0.59375 2.7188-6.5615 2.5093-9.7468 5.4601-10.438 12.156-0.0843-0.4089-0.19014-0.82383-0.25-1.25-0.0153-7.3248 5.4241-11.591 11.5-14.531 0.01007-0.02985 0.02262-0.00603 0.03125-0.03125zm35.344 0.78125-0.3125 0.125c3.6981 2.8598-2.1794 4.107-4.5 4.3438l0.125 0.3125c3.8081 0.01535 8.7573-2.3475 4.6875-4.7812zm12.844 1.0938c1.3304 4.9084-1.141 8.4838-7.6875 13.156-10.416 6.7625-23.062 6.8104-33.375 0-4.2647-2.9627-9.0335-6.9668-7.4375-12.406 2.0018 10.591 14.414 14.129 23.844 14.688 9.7359-0.36477 22.924-4.314 24.656-15.438zm0.6875 1.4375c6.466 2.7915 9.4307 4.8091 10.375 11.812-2.5432 15.721-22.121 18.95-35.344 19.562-12.575-0.39929-30.826-3.7036-34.844-17.375-0.07824-7.407 3.9478-10.4 10.094-13.188-0.13929 4.8323 3.4014 8.0356 7.4375 11.281 2.1394 1.5598 4.3852 2.7566 6.6875 3.625l-0.59375 3.2188c5.9685 6.4141 16.195 4.6478 21.906 0.3125l-0.625-3.6875c2.3752-0.83912 4.7075-1.9214 6.9375-3.25 3.8339-3.2029 8.6673-6.6195 7.9688-12.312zm-37.344 3.3438v0.25c4.6059 4.2233 10.082 5.0733 15.812 2.7812v-0.375c-5.3763 2.2427-11.441 1.0548-15.812-2.6562zm-26.656 1.7188c-0.70095 1.423-1.1987 2.949-1.5 4.5938l-1.9375-0.21875c0.95281-1.5434 2.0988-3.0205 3.4375-4.375zm65.594 1.4688-0.6875 0.375c3.3135 0.89809 3.4965 4.0099 3.4062 7l0.125 0.3125c0.36316-3.6981 0.74091-6.3892-2.8438-7.6875zm-49.531 0.15625-0.25 0.125c-1.0915 1.6055-0.85762 2.4623 0.53125 3.9062l0.25-0.1875c-1.2594-1.0624-0.73478-2.3864-0.53125-3.8438zm-4.8125 1.4688-0.25 0.0625c-1.7592 3.6809-1.1733 7.1146 1.0938 11.656h0.3125c-1.9642-4.4229-2.7283-8.4294-1.1562-11.719zm68.469 0.5 0.125 0.03125c0.00374 0.00928-0.00372 0.02197 0 0.03125 1.2652 0.53111 2.4948 1.7713 3.5625 3.1875l-2.5938 0.5c-0.15931-1.2444-0.48248-2.475-0.96875-3.6875-0.04184-0.01756-0.08312-0.04651-0.125-0.0625zm-83.344 1.0625 2.0625 0.3125c-0.08952 0.55698-0.18091 1.1347-0.21875 1.7188 0 0.33961 0.03675 0.66429 0.0625 1-0.07589 1.3262-0.13734 2.6634-0.09375 3.9375 0.03612 0.94629 0.19617 1.8732 0.4375 2.7812l-4.4375 2.1875c-0.92162-4.2166 0.01742-8.2958 2.1875-11.938zm87.344 2.5625c0.69813 0.97418 1.299 2.0118 1.7812 2.9375 0.48201 4.9267-0.74069 8.8138-2.9688 12.125l-4.6875-2.25c1.8929-2.6474 2.9688-5.5437 2.9688-8.5938 0.14753-1.2484 0.18019-2.4597 0.0625-3.6562l2.8438-0.5625zm-3.5 0.84375c0.085 1.0628 0.08474 2.1648-0.125 3.375 0 6.1106-4.4208 11.7-11.719 15.781s-17.324 6.6875-28.5 6.6875-21.199-2.4489-28.438-6.5312-12.548-9.7606-12.781-15.875l0.03125-1.25c1.3745 5.0064 5.6192 9.4363 11.656 12.812 7.4302 4.1554 17.28 7.4688 28.562 7.4688s22.101-1.9384 29.531-6.0938c6.8922-3.8544 11.16-10.489 11.781-16.375zm-24.938 0.46875-0.375 0.125c2.5893 3.9956-0.54405 6.398-4.1562 8l0.3125 0.0625c4.7435-1.7082 6.6803-3.651 4.2188-8.1875zm-6.3125 2-0.1875 0.40625 0.5625 2.9688c-5.631 4.3005-16.193 4.8131-21.062-0.21875l0.5625-2.875c6.5272 2.3349 13.519 2.026 20.125-0.28125zm36.906 1.6562c1.1881 4.3507-0.14431 8.3134-2.8125 11.781l-0.28125-1.25c1.9806-3.0451 3.1482-6.5488 3.0938-10.531zm-92.469 0.09375c-0.06261 1.4691 0.06985 2.9792 0.40625 4.5l-0.09375 0.03125-0.0625 1.375c-0.38963-1.9409-0.47743-4.0234-0.25-5.9062zm5.3125 2.4375c1.1899 4.0746 4.3223 7.7381 8.6562 10.812l-3.5312 4.2188c-2.9823-2.2988-5.6261-5.0385-7.7812-8.3125-0.89272-1.5617-1.4868-3.113-1.8438-4.6562l4.5-2.0625zm-4.8125 2.4062c0.34421 1.4291 0.85392 2.865 1.5625 4.3125 2.2772 3.5293 5.1112 6.4437 8.3125 8.8438l-0.03125 1c-3.596-2.5793-6.5517-5.5602-8.4688-8.6875-0.65667-1.0712-1.1647-2.398-1.5-3.8125l0.125-1.6562zm30.5 0.875v0.3125c6.9153 6.1537 16.733 5.1815 22.406 3.5938v-0.25c-5.4256 1.5184-15.91 2.1244-22.406-3.6562zm53.25 2.3438 4.7188 2.2188c-2.4308 3.4918-6.0111 6.3268-9.9688 9.0312-0.26423 0.15004-0.54158 0.29063-0.8125 0.4375l-4.7812-3.25c0.63884-0.31588 1.2717-0.63135 1.875-0.96875 3.7864-2.1176 6.8624-4.6363 8.9688-7.4688zm4.9375 2.6562 0.28125 1.2188c-2.7187 3.4267-6.7385 6.3507-10.969 8.625l-0.15625-0.5 0.21875-0.125c4.3144-2.4095 8.095-5.4634 10.625-9.2188zm-74.812 2.7812c1.0184 0.70324 2.088 1.3936 3.2188 2.0312 2.9281 1.6514 6.3016 3.0376 10 4.125l-1.5 5.4688c-5.5795-1.6237-10.875-4.0362-15.406-7.4688l3.6875-4.1562zm58.719 3.1562 4.6875 3.3125c-4.5485 2.41-9.9678 4.3709-15.625 5.75l-2.125-4.7812c4.8303-0.96255 9.249-2.4338 13.062-4.2812zm-62.406 1.5625c4.5478 3.3384 9.8242 5.6612 15.375 7.25l0.0625 1c-5.2155-1.5463-10.089-3.72-14.156-6.375-0.40123-0.26191-0.79937-0.54101-1.1875-0.8125l-0.09375-1.0625zm17.312 1.5625c4.6723 1.336 9.8587 2.1813 15.375 2.4062l0.5 5.75c-5.7443-0.26301-11.728-1.0932-17.438-2.7188l1.5625-5.4375zm50 0.4375 0.28125 0.46875-0.0625 0.03125c-4.7619 2.6294-10.342 4.7199-16.156 6.1562l0.03125-0.59375c5.7386-1.3986 11.204-3.4695 15.906-6.0625zm-18.375 0.8125 2.125 4.7812c-5.6965 1.3583-11.605 2.1365-17.062 2.1562-0.10343-0.00383-0.20889-0.02706-0.3125-0.03125l-0.75-5.75c0.90975 0.034 1.8238 0.0625 2.75 0.0625 4.6413 0 9.0937-0.41875 13.25-1.2188zm-33.219 4.5312c5.74 1.6087 11.742 2.4436 17.5 2.8125v0.75c-5.863-0.02338-11.878-0.92429-17.5-2.5625v-1zm35.344 0.78125-0.03125 0.59375c-5.7501 1.3932-11.714 2.167-17.375 2.1875h-0.0625l0.09375-0.71875 0.40625 0.03125c5.5669-0.02013 11.382-0.75921 16.969-2.0938z"/>
</svg>
