<?xml version="1.0" encoding="UTF-8"?>
<svg viewBox="0 0 128 128" xmlns="http://www.w3.org/2000/svg" xmlns:xlink="http://www.w3.org/1999/xlink">
 <defs>
  <filter id="aj">
   <feGaussianBlur stdDeviation="1.56279"/>
  </filter>
  <linearGradient id="d">
   <stop stop-color="#b1b1b1" offset="0"/>
   <stop stop-color="#e4e4e4" offset="1"/>
  </linearGradient>
  <linearGradient id="a">
   <stop stop-color="#6a3c1d" offset="0"/>
   <stop stop-color="#8f5127" offset="1"/>
  </linearGradient>
  <linearGradient id="b">
   <stop stop-color="#cfc7a9" offset="0"/>
   <stop stop-color="#eeebe0" offset="1"/>
  </linearGradient>
  <linearGradient id="c">
   <stop stop-color="#9e2612" offset="0"/>
   <stop stop-color="#bd5032" offset="1"/>
  </linearGradient>
  <linearGradient id="k" x1="54.381" x2="102.47" y1="100.38" y2="10.612" gradientUnits="userSpaceOnUse">
   <stop stop-color="#bb8f56" offset="0"/>
   <stop stop-color="#d1af63" offset="1"/>
  </linearGradient>
  <linearGradient id="ai" x1="59.382" x2="85.801" y1="119.93" y2="97.3" gradientUnits="userSpaceOnUse" xlink:href="#d"/>
  <linearGradient id="ah" x1="26.297" x2="47.762" y1="103.72" y2="121.95" gradientUnits="userSpaceOnUse" xlink:href="#d"/>
  <linearGradient id="ag" x1="35.805" x2="51.546" y1="43.935" y2="88.389" gradientUnits="userSpaceOnUse" xlink:href="#a"/>
  <linearGradient id="af" x1="16.649" x2="17.124" y1="110.62" y2="111.09" gradientUnits="userSpaceOnUse" xlink:href="#a"/>
  <linearGradient id="ae" x1="14.746" x2="21.405" y1="115.24" y2="109.23" gradientUnits="userSpaceOnUse" xlink:href="#a"/>
  <linearGradient id="ad" x1="23.568" x2="24.476" y1="107.63" y2="107.68" gradientUnits="userSpaceOnUse" xlink:href="#a"/>
  <linearGradient id="ac" x1="25.211" x2="26.205" y1="109.36" y2="109.41" gradientUnits="userSpaceOnUse" xlink:href="#a"/>
  <linearGradient id="ab" x1="33.47" x2="34.292" y1="111.78" y2="111.83" gradientUnits="userSpaceOnUse" xlink:href="#a"/>
  <linearGradient id="aa" x1="35.546" x2="35.805" gradientUnits="userSpaceOnUse" xlink:href="#a"/>
  <linearGradient id="z" x1="25.557" x2="41.514" gradientUnits="userSpaceOnUse" xlink:href="#a"/>
  <linearGradient id="y" x1="27.286" x2="26.941" y1="104.13" y2="105.47" gradientUnits="userSpaceOnUse" xlink:href="#a"/>
  <linearGradient id="x" x1="38.486" x2="37.924" y1="105.56" y2="104.65" gradientUnits="userSpaceOnUse" xlink:href="#a"/>
  <linearGradient id="w" x1="27.2" x2="28" y1="107.68" y2="108.32" gradientUnits="userSpaceOnUse" xlink:href="#a"/>
  <linearGradient id="v" x1="37.405" x2="37.968" y1="108.97" y2="109.43" gradientUnits="userSpaceOnUse" xlink:href="#a"/>
  <linearGradient id="u" x1="46.312" x2="58.688" y1="11.875" y2="30.438" gradientUnits="userSpaceOnUse" xlink:href="#c"/>
  <linearGradient id="t" x1="43.062" x2="35.062" y1="62.812" y2="50" gradientUnits="userSpaceOnUse" xlink:href="#a"/>
  <linearGradient id="s" x1="37.919" x2="32.969" y1="93.794" y2="86.281" gradientUnits="userSpaceOnUse" xlink:href="#a"/>
  <linearGradient id="r" x1="65.875" x2="81.241" y1="91.375" y2="48.389" gradientUnits="userSpaceOnUse" xlink:href="#a"/>
  <linearGradient id="q" x1="68.324" x2="63.914" y1="81.643" y2="98.768" gradientUnits="userSpaceOnUse" xlink:href="#a"/>
  <linearGradient id="p" x1="80.605" x2="77.232" y1="52.497" y2="73.168" gradientUnits="userSpaceOnUse" xlink:href="#a"/>
  <linearGradient id="o" x1="63.395" x2="60.454" y1="43.589" y2="61.319" gradientUnits="userSpaceOnUse" xlink:href="#a"/>
  <linearGradient id="n" x1="60.849" x2="72.53" y1="24.342" y2="14.679" gradientUnits="userSpaceOnUse" xlink:href="#c"/>
  <linearGradient id="m" x1="67.454" x2="68.677" y1="17.126" y2="18.074" gradientUnits="userSpaceOnUse" xlink:href="#c"/>
  <linearGradient id="l" x1="68.31" x2="73.937" y1="20.917" y2="15.597" gradientUnits="userSpaceOnUse" xlink:href="#a"/>
  <linearGradient id="j" x1="43.75" x2="46.875" y1="41.094" y2="35.781" gradientUnits="userSpaceOnUse" xlink:href="#b"/>
  <linearGradient id="i" x1="72.188" x2="71.438" y1="55.375" y2="57.562" gradientUnits="userSpaceOnUse" xlink:href="#a"/>
  <linearGradient id="h" x1="58.307" x2="63.37" y1="81.898" y2="84.828" gradientUnits="userSpaceOnUse" xlink:href="#b"/>
  <linearGradient id="g" x1="89.433" x2="92.47" y1="74.596" y2="72.145" gradientUnits="userSpaceOnUse" xlink:href="#b"/>
  <linearGradient id="f" x1="83.73" x2="87.359" y1="28.601" y2="30.626" gradientUnits="userSpaceOnUse" xlink:href="#b"/>
  <linearGradient id="e" x1="29.5" x2="40.75" y1="89.625" y2="101.62" gradientUnits="userSpaceOnUse" xlink:href="#a"/>
 </defs>
 <path d="m69.438 64.281-4.6666 12.657-1.538-2.7069-0.38811 0.04462 0.48994-0.17848s-17.838-6.729-18.323-7.0201c-0.04318-0.0259-0.18289 0.05091-0.33369 0.17848l-19.874-1.9186-9.5109 8.1207 1.2106 0.59492-5.7216-2.0822-1.1846 0.69903 2.4182 0.95188-0.64028 1.5766-2.9526-0.72878-0.46081 1.2493 2.4788 0.63954-0.95684 1.874-3.4676-0.9965-0.98902 1.0262 11.154 2.9151 3.8815 22.548-6.442 6.0105 4.2617 4.7572-9.218 4.8277 1.8982 0.13386 0.50203-0.14873 0.00605 0.01487 4.9384-3.4065 5.1873 0.99963 0.67705 1.2507 2.3039 0.63293 9.404 1.7192-1.1579 1.614 2.7125 0.21373 1.7178-0.58555 10.305 2.1511 6.2059-0.77562 0.79131 0.17848 34.477-14.353-4.5655-0.69904-0.7379 0.02975-8.1574-18.573-0.32353-0.56518 21.734 10.339 1.1241-0.84776-2.382-0.86264 0.99912-1.3088 2.2671 0.58005 0.50111-0.9965-2.0271-0.75853 0.8318-1.4129 2.8719 0.68416 0.90833-0.60979-15.814-5-13.847-4.7743-3.3578-0.44981 15.03-17.297-2.7338-0.26771-1.0152 1.1155-3.4475-0.63954 0.8257-0.96675-2.135-0.63954-0.72088 1.0709-2.9233-0.58005 0.22088-1.0709-2.3226-0.17848z" fill-opacity=".66667" fill-rule="evenodd" filter="url(#aj)"/>
 <path d="m60.727 104.27 27.092-9.4179-0.42809-1.1008 0.79502-0.06116 4.2809 1.4677 3.6082 12.781-43.909 17.368-0.73386-0.36693 0.18347-16.328 4.709 0.61155-0.79502 2.752 2.752 0.79502 2.4462-8.5006z" fill="url(#ai)" fill-rule="evenodd"/>
 <path d="m25.135 95.955-4.342 3.9139-2.8743 15.289 33.146 9.6014 0.85617-16.634-8.701-4.9923-16.556-2.1017 1.7735-0.97849-3.4247-1.3454 0.12231-2.752z" fill="url(#ah)" fill-rule="evenodd"/>
 <path d="m28.714 100.02-1.5135-0.47567 0.21622-1.254-2.0324-0.69189 5.9676-61.103 4.4108-13.881 17.73 5.7946-1.1243 58.465-9.9892 17.557-13.665-4.4108z" fill="url(#ag)" fill-rule="evenodd"/>
 <path d="m7.9568 119.48 15.265-16.822 0.56216-0.21622-0.64865 2.7676-13.319 14.53-1.8595-0.25946z" fill="url(#af)" fill-rule="evenodd"/>
 <path d="m10.508 118.96 12.843-14.227-0.60541 3.8919-4.454 6.4865-7.9135 4.3676 0.12973-0.51892z" fill="url(#ae)" fill-rule="evenodd"/>
 <path d="m24.216 98.076-2.5946 20.151 2.5514 0.6054 2.0324-20.411 0.99202-0.25738-1.8108-0.75364-1.1704 0.66507z" fill="url(#ad)" fill-rule="evenodd"/>
 <path d="m26.205 98.335-1.0378 7.6108-0.95135 12.93 1.5135-0.6919 1.6432-20.022-1.1676 0.17297z" fill="url(#ac)" fill-rule="evenodd"/>
 <path d="m33.73 100.84-0.64865 7.3946-0.43243 13.146 2.6811 0.86487-0.38919-13.881 0.17297-3.1568 0.69189-3.8054 1.3838-0.51892-2.4216-0.6919-1.0378 0.64865z" fill="url(#ab)" fill-rule="evenodd"/>
 <path d="m35.805 101.41-0.82162 4.1514-0.08649 3.2 0.21622 13.449 1.6432-0.77838-0.51892-13.535 0.34595-3.6324 0.64865-3.4595-1.427 0.60541z" fill="url(#aa)" fill-rule="evenodd"/>
 <path d="m31.438 98.595-4.2811 2.4216-0.04324 1.0378-1.5568 0.43244 0.56216 0.34594 8.8649 2.6811 6.5297-4.1514-10.076-2.7676z" fill="url(#z)" fill-rule="evenodd"/>
 <path d="m23.524 102.53-0.25946 2.2054 11.676 3.6757 0.08649-2.854-11.503-3.027z" fill="url(#y)" fill-rule="evenodd"/>
 <path d="m34.897 105.56c0.43243-0.12973 7.1784-4.4541 7.1784-4.4541l0.12973 2.4649-7.2649 5.1027-0.17297-0.38919 0.12973-2.7243z" fill="url(#x)" fill-rule="evenodd"/>
 <path d="m26.292 108.45 1.946-2.1189 1.5568 0.47567-3.5892 3.9784 0.08649-2.3351z" fill="url(#w)" fill-rule="evenodd"/>
 <path d="m36.281 110.23c0.43243-0.30271 2.2054-3.6324 2.2054-3.6324l1.3838-0.9081 0.51892 0.21621-4.0216 7.2649-0.08649-2.9405z" fill="url(#v)" fill-rule="evenodd"/>
 <path d="m33.562 20.562 12.812-17.062 19.312 4.0625-12.312 20.812-18.062-5.5625-1.75-2.25z" fill="url(#u)" fill-rule="evenodd"/>
 <path d="m31.25 51.562-0.8125 11.375 20.062 2.75 0.5-12.062-19.75-2.0625z" fill="url(#t)" fill-rule="evenodd"/>
 <path d="m31.997 98.478 0.70711-12.198 9.8111 2.3865-0.44194 12.64-10.076-2.8284z" fill="url(#s)" fill-rule="evenodd"/>
 <path d="m46.375,3.5-12.8125,17.0625 1.75,2.25 .34375.09375-4.3125,13.59375-6.21875,59.46875-4.34375,3.90625-1.3125,6.90625-11.5,12.6875 1.84375.28125 8.3125-4.53125 3.75,1.09375-.25,1.90625 2.5625.625 1.53125-.65625 .0625-.75 6.9375,2-.0625,1.9375 2.46875.8125v.03125l.0625-.03125 .15625.0625 1.40625-.8125-.03125-.84375 14.34375,4.15625 .84375-16.625-8.6875-5h-.09375l9.25-16.25 1.125-58.46875-.125-.03125 12.3125-20.8125-19.3125-4.0625z" fill-opacity=".15686" fill-rule="evenodd"/>
 <path d="m29.5,99.125 1-15.375 14.75,3.375-1,13.5-1.75,3.375-.5-.625 .5-14.625-9.875-2.5-.625,12.375-2.5.5z" fill="url(#e)" fill-rule="evenodd"/>
 <path d="m87.562 94.75-26.562 9.3125-8.75-17.688 1.3125-57.688 27.625-6.5 4.0625 51.438 2.3125 21.125z" fill="url(#r)" fill-rule="evenodd"/>
 <path d="m61.665 101.1 9.6-2.9405-2.4216-24.13-7.1784 27.07z" fill="url(#q)" fill-rule="evenodd"/>
 <path d="m74.119 76.714-0.51892-14.616 3.2865-12.627 3.9784-3.373 2.5946 28.022-9.3405 2.5946z" fill="url(#p)" fill-rule="evenodd"/>
 <path d="m67.286 61.405-9.5135 2.2486-0.34595-28.281 7.3514-1.7297 2.5081 27.762z" fill="url(#o)" fill-rule="evenodd"/>
 <path d="m53.327 28.256s12.17-21.71 12.537-21.099 15.472 14.738 15.472 14.738l-0.67271 0.48924-27.031 6.299-0.30578-0.42809z" fill="url(#n)" fill-rule="evenodd"/>
 <path d="m66.72 12.906 3.1801 2.6297-4.0362 7.4609-0.73386 0.24462 1.59-10.335z" fill="url(#m)" fill-rule="evenodd"/>
 <path d="m65.558 23.119 4.2197-7.5221 4.1586 5.5651-8.3783 1.957z" fill="url(#l)" fill-rule="evenodd"/>
 <path d="m66.72 12.906 3.1801 2.6297-4.0362 7.4609-0.73386 0.24462 1.59-10.335z" fill-opacity=".15686" fill-rule="evenodd"/>
 <path d="m29.66 17.431 38.895 34.92 0.85617-1.1008 1.8346-0.73386 2.0793-0.06116 18.102-49.169 2.2627 0.36693-0.67271 2.2627 2.6908 1.2231 1.162-2.2627 1.8958 1.3454-1.2231 2.0181 3.1801 1.3454 1.4677-2.3239 2.6297 0.5504-27.887 45.928 0.5504 1.4066 0.24462 1.162-0.24462 1.8958 18.775 15.839 17.796 15.595-1.162 1.2843-2.5685-1.4677-1.4066 2.9966 1.7123 1.59-0.91733 2.0793-2.0181-1.2231-1.5289 2.752 2.0181 1.8347-1.4677 1.7735-30.516-37.977-1.7123 0.73386-2.6297-0.30578-3.9751 15.289-9.4179 35.653-2.8743-0.5504 0.36693-2.8131-5.3205-1.1008-0.61155 2.752-3.547-1.1008 1.3454-2.5685-3.6082-0.91732-1.6512 1.7735-1.8346-0.67271 26.908-46.661-1.5289-1.5289-0.30578-1.2231-44.46-27.398 1.4066-2.1404 3.0578 2.0793 1.7124-3.9139-2.2016-1.3454 0.97848-2.6297 2.6297 1.5289 1.2843-3.3024-2.0181-2.0181 1.4677-1.4677z" fill="url(#k)" fill-rule="evenodd"/>
 <path d="m31.812 21.5-2.0625 3.5625 19.062 15.25 1.25-2-18.25-16.812zm-3.0625 5.75-1.6875 4.125 19.625 12.625 1.3125-2.1875-19.25-14.562zm23.062 12.688-1 1.75 15.812 12.75 0.8125-0.9375-15.625-13.562zm-2 3.375-1.125 1.9375 16.75 10.938 0.375-0.8125-16-12.062z" fill="url(#j)" fill-rule="evenodd"/>
 <path d="m76.375,55.8125-5.125-1.875-1.75,1.125-.5625,1.75 .3125,1.8125 4.1875,1.4375 1.6875-.5625 1.5625-1.125 .1875-1.25-.5-1.3125z" fill="url(#i)" fill-rule="evenodd"/>
 <path d="m76.5,56.1875-1.0625-.0625-1.6875,1.125-.5625,1.0625 .3125,1.75 1.4375-.4375 1.5625-1.25 .3125-.875-.3125-1.3125z" fill-opacity=".15686" fill-rule="evenodd"/>
 <path d="m68.219 61.219-9.0625 16.625 2.25 1.0312 7.25-17.5-0.4375-0.15625zm1.375 0.375-6.7188 17.531 2.7812 0.59375 4.5312-17.969-0.59375-0.15625zm-11.406 17.812-14.062 25.188 4.5312 1.25 11.844-25.656-2.3125-0.78125zm3.9062 1.1562-10.594 25.594 6 2.2812 7.7812-26.969-3.1875-0.90625z" fill="url(#h)" fill-rule="evenodd"/>
 <path d="m77.875 57.5-0.15625 1.6875 10.969 10.344 1.125-1.125-11.938-10.906zm-0.28125 2.2812-0.59375 0.625 9.5 11.031 1.0625-0.90625-9.9688-10.75zm13.719 9.8125-1.125 1.3125 17.938 18.25 1.5-3.0625-18.312-16.5zm-2.25 2.4062-1.4375 1.4375 17.469 21.188 2.25-2.9688-18.281-19.656z" fill="url(#g)" fill-rule="evenodd"/>
 <path d="m91.938 5.4062-9.5938 25.125 1.5938 0.78125 10.938-24.625-2.9375-1.2812zm4.375 1.9375-11.625 24.281s2.3742 1.2074 1.9062 0.90625c-0.31874-0.20513 13.372-23.671 13.406-23.656l-3.6875-1.5312zm-14.5 24.875-7.0938 18.406 0.4375 0.25 8-17.812-1.3438-0.84375zm2.0625 1.1875-8.4062 17.625 0.375 0.28125 9.6875-17.125-1.6562-0.78125z" fill="url(#f)" fill-rule="evenodd"/>
 <path d="m91.28125,1.1875c-2.9828,7.96555-6.37665,17.25881-9.375,25.21875l-.40625-4.71875-15.78125-14.75-19.59375-3.6875-12.875,17.03125-3.625-3.1875-1.90625,2 2.25,1.625-1.34375,3.03125c-.16995.35708-1.5994-1.37965-2.28125-1.15625-.85745.28093-.97378,2.5323-1.1875,3.0625l2.03125,1.15625-1.5,3.34375-3.0625-2.09375-1.59375,2.71875 10.03125,5.90625-5.84375,58.78125-.6875.34375-4.15625,4.0625-.5,5.5625-12.28125,14.25 2.59375.34375 7.6875-4.53125 3.90625,1.125-.28125,1.71875 2.875.9375 1.5-.9375 .0625-.46875 6.5625,1.9375-.0625,1.84375 2.84375.9375 1.59375-1.09375v-.40625l15.0625,4.4375 44.75-17.21875-3.84375-13.34375-5.15625-2.0625-1.71875-18.78125 20.75,25.5625 1.78125-2.3125-2.125-1.8125 1.4375-2.34375 1.875,1.125 1.21875-2.40625-1.6875-1.59375 1.125-2.53125 2.375,1.4375 1.71875-1.6875-2.6875-2.15625-26.84375-23.625-1.65625-19.4375 21.78125-36.625-3-.625-1.46875,2.09375-2.65625-1.28125 1.03125-1.75-2.21875-1.4375-1,2.125-2.375-1.125 .625-2.25-2.6875-.28125zm.28125.375 1.75.28125-.71875,2.28125 3.3125,1.40625 .9375-2.25 1.65625.875-1.3125,2.21875 3.46875,1.46875c.20232.02613 1.36019-2.31538 1.5625-2.125l2.0625.21875-27.8125,46c.6498.67917 1.15692,1.59976 1.09375,2.84375-.00737.54604-.20985,1.0436-.34375,1.5625l36.40625,31.28125-1.09375,1.03125-2.375-1.875-1.625,3.53125 1.84375,1.75-.78125,1.71875-2.125-1.15625-1.71875,2.9375 2.03125,1.875-1.125,1.46875-30.3125-37.9375c-2.06946,1.08647-3.24467.99685-4.59375.5625l-13.4375,51-2.4375-.625 .5625-3.03125-5.875-1.3125-.6875,3-3-.84375 1.46875-2.65625-4.21875-.9375-1.625,1.5625-1.3125-.375 26.125-45.65625 .1875-.03125v-.03125l-.09375-.0625 .4375-.78125c-1.2096-.98936-1.98892-1.89105-1.8125-3.125l-44.21875-27.09375 .875-1.375 3.21875,1.8125 2.03125-4.4375-2.28125-1.46875 .90625-2.09375 2.53125,1.625 1.875-3.71875-2.3125-2 1.03125-.96875 38.84375,34.90625c.77593-.80257 1.31308-2.41508 5.125-2.125 5.90375-15.83905 11.912-33.31884 17.90625-49.125zm-45.28125,2.53125 18.5,3.59375-11.4375,20.15625-17.625-5.5-1.59375-1.5625 12.15625-16.6875zm45.625,1.09375-9.71875,25.5 1.84375.90625 11.125-25.0625-3.25-1.34375zm.34375.65625 2.28125.90625-10.65625,24.25-1.1875-.53125 9.5625-24.625zm-44.78125.96875-1.53125,1.96875-1.34375-.3125-.15625.375 .96875.46875-4.8125,6.6875-1.28125-.375-.3125.40625 1.125.53125-1.6875,2.09375 .34375.34375 2.03125-2.15625 3.0625,1.125 .3125-.34375-3.03125-1.3125 4.875-6.8125 4.3125.75-1.875,2.5625 .46875.09375 1.84375-2.5 1.53125.25 .15625-.25-1.4375-.59375 1.15625-1.6875-.4375-.21875-1.3125,1.78125-3.9375-.71875 1.375-1.78125-.40625-.375zm48.625.125-11.6875,24.90625 2.21875.875 13.75-24-4.28125-1.78125zm.40625.75 2.96875,1.34375-12.96875,23.15625-1.46875-.625 11.46875-23.875zm-30.5.3125 14.96875,13.875-27.125,6.375 12.15625-20.25zm-4.0625.96875-.90625,1.65625-2.03125-.53125-.0625.125 1.75,1-2.125,3.9375-2.3125-1.03125 .53125-1.34375-.3125-.09375-.8125,1.3125-1.09375-.25-.3125.28125 1.1875.4375-1.4375,3.1875-1.75-.8125c.1467-.28425.46916-1.16498.5625-1.375l-.65625.28125c-.10213.22979-.2784.63143-.46875,1l-4.25-.9375 .09375.375 3.78125,1.15625c-.79594,1.45273-1.75715,3.19545-2.59375,4.625l.28125.125c1.0072-1.44819 2.26233-2.98437 2.71875-4.65625l2.34375.90625 .875.21875-.625-.65625 1.625-3.21875 2.34375,1.125-.6875,1.125 .84375.46875 .625-1.40625 .84375.09375-.8125-.5625 2.0625-3.9375 .71875.28125 .25-.96875-.625-.03125 .71875-1.6875-.28125-.21875zm4.46875,3-1.53125,11.6875 9.5625-2.34375-4.40625-5.90625-3.625-3.4375zm.78125,2.40625 2.28125,1.28125-4.03125,7.15625 1.75-8.4375zm4.6875.21875-.46875.28125 4.125,4.46875-1.15625.40625 .0625.5 1.625-.34375 1,1.1875 .25-.40625-.6875-.84375 1.03125-.15625-.125-.40625-1.34375.15625-4.3125-4.84375zm-2.15625,1.3125 .96875,1.5v.03125l.15625,3.78125-2.09375.5v-3.8125l.96875-2zm-8.21875,1.84375-.4375.3125 .375,1.15625-.78125.375 .25.25 .71875-.1875 1.25,3.71875-3.03125.71875-.9375-2.46875-.4375.125 .875,2.4375-1,.53125 .09375.3125 1.09375-.3125 .4375,1.21875 .46875-.1875-.28125-1.1875 2.8125-.875 .3125.90625 .25-.125-1.40625-4.9375 1.625-.4375v-.28125l-1.75.21875-.5-1.28125zm9.65625.4375 1.625,2.5625-1.5.375-.125-2.9375zm-2.84375.59375 .03125,3.03125-1.6875.40625 1.65625-3.4375zm-13.34375,1.84375-.65625,1.25-2.5625-.8125-.3125.5 2.5625.71875-1.5,3.15625 .46875.0625 1.46875-2.53125 1.34375.40625 .0625-.46875-1.15625-.59375 .71875-1.4375-.4375-.25zm-23.40625.09375-2.0625,4.59375 19.59375,15.40625 1.3125-2.4375-18.84375-17.5625zm.3125,1.625 17.84375,15.9375-.875,1.59375-18.375-14.625 1.40625-2.90625zm48.75.34375 .5,5.78125c-2.00868,5.35079-4.00562,10.72811-5.53125,14.8125-.84834,2.27117-1.55899,4.19541-2.0625,5.5625-.1857.50419-.34269.83982-.46875,1.1875-1.86266.2233-3.52361.34041-4.6875,1.875l-1.96875-1.8125-1.59375-16.71875-7.5,1.84375 .09375,6.65625-3.53125-3.21875 .125-9.875 26.625-6.09375zm-43.15625,1.21875 15.5625,4.875-.15625,9-15.40625-13.875zm37.8125,1.21875-.28125.0625 .875,6.84375-4.625,1.34375-.21875-2.25-.28125.0625 .21875,2.28125-1.3125.375 .15625.1875 1.15625-.34375 1,10.90625 .28125.03125-1-11 4.65625-1.375 .3125,2.46875 .28125-.03125-.3125-2.5 1.96875-.59375-.03125-.21875-1.96875.5625-.875-6.8125zm-46.59375,1.75-2.1875,4.96875 20.28125,12.375c.32483-.7963.8007-1.81353 1.4375-2.3125l-19.53125-15.03125zm.4375,1.15625 18.53125,13.9375-.96875,1.78125-19.21875-12.28125 1.65625-3.4375zm52.59375,4.0625-7.1875,18.625 .6875.34375 8.09375-18.125-1.59375-.84375zm.1875.5 .875.53125-7.625,17.59375-.34375-.0625 7.09375-18.0625zm1.90625.53125-8.4375,17.96875 .5625.34375 9.875-17.4375-2-.875zm.28125.46875 1.15625.5-9.375,17.09375-.25-.21875 8.46875-17.375zm-19.65625.125 .75,7.875-2.21875.40625-.59375-7.5625 2.0625-.71875zm-2.6875.9375 .65625,7.46875-2.0625.34375-.5-7.4375 1.90625-.375zm-2.21875.4375 .25,7.34375-1.59375.15625-.34375-.3125-.21875-6.78125 1.90625-.40625zm-28,1.84375 21.125,13.15625-.59375,36.375-2.59375,4.5c-.03191-1.3206-.08817-4.1831-.125-7.03125l1,.1875 .0625-.4375-1.0625-.21875c-.0063-.56208-.03125-1.36212-.03125-1.78125l-.3125-.0625c0,.50292-.00292,1.07608 0,1.78125l-3.09375-.625 .25-4.0625 2.84375.46875 .0625-.3125-2.875-.46875 .1875-3.25-.375-.0625-.21875,3.25-8.78125-1.46875-.0625.375 8.8125,1.40625-.25,4.03125-1.21875-.25-.0625.5 1.25.25-.09375,1.15625 .4375-.0625 .0625-1.03125 3.125.625c.01534,3.24229.05789,7.24412.0625,7.8125l-4.65625,8.09375 .78125-13-15.125-3.375-.71875,16-.375.1875-1.46875-.28125 .09375-1.21875-1.875-.4375 5.8125-60.71875zm20.21875,2.625-1.28125,2.125 16.15625,12.9375 .875-1.1875-15.75-13.875zm-17.625.5-.75,7.9375-1.09375-.21875-.1875.3125c.41678.08833.83158.16959 1.25.25l-.09375.96875h.3125l.0625-.90625c2.29838.43252 4.62141.75976 6.9375,1.09375l-.0625.96875 .25.0625 .0625-1c.49986.07222 1.00082.14448 1.5.21875l.125-.1875c-.53922-.07131-1.08087-.16666-1.625-.25l.1875-2.78125-.25-.0625-.1875,2.8125c-2.30322-.35916-4.62347-.81077-6.90625-1.25l.59375-7.84375-.125-.125zm17.78125.1875 15.21875,13.3125-.375.6875-15.6875-12.59375 .84375-1.40625zm13.3125,2.15625 .71875,7.25-2.5625-2.3125-.34375-4.59375 2.1875-.34375zm-2.75.46875 .3125,3.90625-2.375-2.15625-.0625-1.40625 2.125-.34375zm-12.65625.09375-1.5,2.21875 17.0625,11.0625 .5625-.9375c-5.17253-4.30473-11.58452-8.19038-16.125-12.34375zm9.90625.03125 .0625,1.0625-1.09375-1 1.03125-.0625zm-9.8125.6875 15.71875,11.71875-.28125.5-16.34375-10.6875 .90625-1.53125zm32.53125.09375 1.4375,17.0625-1.59375-1.21875-1.1875-13.53125 1.34375-2.3125zm-1.71875,2.84375 .65625,7.5-2.125.59375-.375-5.0625 1.84375-3.03125zm-2.40625,3.9375 .34375,4.03125-.8125.125c.09847-.85014.12189-1.72868-.5625-2.46875l1.03125-1.6875zm-24.65625.15625 3.90625,2.4375 .15625,10.65625 8.84375-1.96875-14,24.09375 1.09375-35.21875zm-22.5.53125-1.125,11.78125 20.65625,2.96875 .5625-12.6875-20.09375-2.0625zm.4375.5 4.375.5-.46875,5.5-4.3125-.59375 .40625-5.40625zm4.75.53125 4.46875.5-.5,5.65625-4.46875-.625 .5-5.53125zm4.9375.53125 4.59375.53125-.28125,5.8125-4.8125-.65625 .5-5.6875zm16.65625.5625 1.90625,1.1875-1.875.3125-.03125-1.5zm-11.5.03125 4.3125.46875-.3125,5.96875-4.375-.625 .375-5.8125zm24.6875.1875c-1.82173.79329-3.34233,1.95627-1.96875,5.15625l4.46875,1.53125c3.75534-.74307 3.72113-3.00257 2.96875-4.59375l-5.46875-2.09375zm.1875.53125 4.59375,1.6875c1.08633.7164 1.38729,2.9182-2.53125,4l-3.75-1.40625c-.53842-1.04805-.45803-3.27792 1.6875-4.28125zm10.15625,1 .40625,4.1875-2.40625-1.8125-.15625-2.03125 2.15625-.34375zm-21.03125.03125 .53125,7.59375-2.875.59375-.09375-7.875 2.4375-.3125zm.65625.1875 2.5,1.5625 .40625,5-2.46875.59375-.4375-7.15625zm17.625.25 .09375,1.40625-1.09375-.84375c-.00411-.1276.02147-.27079.03125-.40625l.96875-.15625zm-3.1875.40625c-2.01178.33394-2.96805,1.6511-2.3125,3l.25.125c-.11443-1.24371 1.06095-2.1681 2.21875-3.09375l-.15625-.03125zm2.21875,1.1875c-.0861.72955.07583,1.38461-.09375,2.03125l11,10.6875 1.4375-1.5625-12.34375-11.15625zm-13.53125.09375 1.34375.84375c.07799.79028.45439,1.60214 1.3125,2.34375l.0625.71875-2.3125.65625-.40625-4.5625zm-33.0625.3125 4.3125.625-.4375,4.9375-4.25-.5625 .375-5zm46.875.3125 11.46875,10.5-.78125.8125-10.8125-10.125 .125-1.1875zm-42.21875.375 4.46875.65625-.4375,4.84375-4.5-.59375 .46875-4.90625zm4.9375.71875 4.8125.6875-.25,4.8125-5-.65625 .4375-4.84375zm36.78125.65625c.0272.17235-.38864.58319-.6875.78125l9.78125,11.5 1.1875-1.3125c-3.46089-3.56762-6.57852-7.77485-10.28125-10.96875zm-31.5.09375 4.40625.65625-.25,4.71875-4.5-.59375 .34375-4.78125zm31.5625.28125 9.71875,10.40625-.8125.6875-9.1875-10.65625 .28125-.4375zm-10.65625.5c.08673.07227.15307.14817.25.21875l-.125.21875-.125-.4375zm1.21875.59375-9.21875,16.875 2.5625,1.0625 7.21875-17.65625-.5625-.28125zm.0625.25 .28125.1875-7.3125,17.03125-1.6875-.71875 8.71875-16.5zm1.375.15625-6.9375,17.71875 3.125.6875 4.5-18.09375-.6875-.3125zm6.34375.03125 .40625.5 .28125,5.1875-2.40625.375-.0625-5.375c.72139-.13235 1.24242-.47893 1.78125-.6875zm-6.28125.3125 .375.03125-4.46875,17.53125-2.40625-.40625 6.5-17.15625zm2.5625.1875c.60563.20492 1.10152.24014 1.53125.21875l.21875,14.6875 9.8125-2.625-.46875-3.53125 1.53125,1.9375 2.375,21.75c-8.69752,2.72081-17.26412,5.86682-25.875,8.84375l.625-2.03125 9.4375-2.90625-2.34375-24.40625 3.15625-11.9375zm-16.75.34375-.25.03125-.0625,6.78125-1.25.4375v.3125l1.21875-.4375v1.1875l.21875-.0625 .03125-1.21875 1.78125-.65625 .15625,6.90625 .1875-.03125-.0625-6.96875 3.375-1.21875-.1875-.21875-3.1875,1.15625-.03125-1.75h-.28125l.03125,1.84375-1.78125.625 .09375-6.71875zm21.5.4375 2.5625,3.25 .0625.84375-2.40625.40625-.21875-4.5zm-40.71875,1.96875-.65625,5.75-4.375-.875 .15625-1.53125h-.375l-.15625,1.46875-.625-.125-.125.3125 .71875.15625-.875,8.75 .4375.0625 .8125-8.75 4.375.90625-.1875,1.625 .375.125 .1875-1.6875 3.84375.8125-.40625,3.25 .3125.125 .40625-3.3125 3.0625.625 .1875-.375-3.21875-.65625 .1875-1.46875-.3125-.0625-.1875,1.46875-3.84375-.75 .59375-5.71875-.3125-.125zm44.1875,2.375 2.4375,3.0625 .3125,3.65625-2.28125.65625-.65625-7.34375 .1875-.03125zm-.78125.1875 .59375,7.25-2.46875.75-.46875-7.65625 2.34375-.34375zm-2.96875.5 .5625,7.65625-2.96875.90625-.03125-8.25 2.4375-.3125zm14.59375,1.5-1.4375,1.53125 18.40625,18.875 1.625-3.6875-18.59375-16.71875zm.0625.6875 17.75,16.25-1.0625,2.40625-17.59375-17.8125 .90625-.84375zm-2.28125,1.65625-1.71875,1.8125 17.78125,21.4375 2.53125-3.34375-17.65625-18.96875-.9375-.9375zm0,.53125 17.78125,19.3125-1.875,2.71875-17.125-20.75 1.21875-1.28125zm-20.3125,3 .25,2.90625-1.09375.3125 .84375-3.21875zm12,2.375-.28125.0625 .21875,1.6875-1.4375.40625 .125.3125 1.375-.375 .75,5.5-4.34375,1.5-.78125-4.84375-.34375.03125 .78125,4.9375-1.03125.34375 .21875.28125 .875-.28125 .8125,5.125 .40625.28125-.875-5.53125 4.34375-1.46875 .25,1.8125 .34375-.15625-.25-1.75 2.03125-.6875-.21875-.375-1.875.65625-.8125-5.46875 2.78125-.78125-.15625-.28125-2.65625.75-.25-1.6875zm-22.5625,1.53125-14.34375,25.625 4.875,1.375 12.09375-26.09375-2.625-.90625zm10.90625,0 1.125,11.4375-2.40625.28125-.71875-9.34375 .5625-2.15625 1.4375-.21875zm-10.71875.59375 1.59375.59375c-3.89884,8.214-7.50808,16.95459-11.5,25.125l-3.6875-.9375 13.59375-24.78125zm3.59375.5625-11.125,26.4375 7,2 7.65625-27.5-3.53125-.9375zm.28125.6875 2.71875.6875-7.5,26.25-5.65625-1.71875 10.4375-25.21875zm4.375,2.34375 .59375,7.625-2.40625.40625-.03125-1.03125 1.84375-7zm-35.8125.84375 13.65625,3.3125-.6875,13.40625-1.46875,2.53125 .40625-14.90625-10.25-2.59375-.75,12.25-1.6875.875 .78125-14.875zm2.15625,2.40625 9.21875,2.46875-.4375,11.84375-9.5-2.4375 .71875-11.875zm.9375.6875-.90625,4.9375 2.5-2.25-2.15625,5.46875 3.34375-3.96875-2.53125,6.875 4.28125-5.5625-2.25,6.25 .0625-.0625 3.625-4.8125-1.6875,5.28125 2.25-2.25v2.53125l1.0625-5-2.28125,2.625 2.28125-6.34375-3.34375,3.84375 2.46875-5-4.8125,5.0625 2.75-5.9375-3.4375,3.1875 2.09375-3.96875-3.625,2.71875 .3125-3.625zm36.28125,3.65625 .625,7-2.28125.65625-.65625-7.34375 2.3125-.3125zm-2.90625.46875 .625,7.46875-2.5.78125-.46875-7.90625 2.34375-.34375zm-2.96875.625 .625,7.875-2.875.84375 2.25-8.71875zm23.34375,1.9375 2.375,1.0625-3.1875,1.21875-1.21875-.46875 2.59375-.90625-.5625-.90625zm4.25,1.4375 .5,1.78125-4.15625,1.53125-.5625-1.78125 4.21875-1.53125zm-6.59375.5 1.1875.5-8.75,3.375-1.5-.65625c3.02103-1.07769 6.03732-2.15623 9.0625-3.21875zm2.09375,1.15625 .40625,1.84375-9,3.3125-.71875-1.75 9.3125-3.40625zm-62.40625.09375-.0625.4375-.53125.09375 .59375-.53125zm67.5.34375 .6875,2.4375-8.34375,3.1875-.6875-2.53125 8.34375-3.09375zm-67.28125.15625 1.71875.5625-.65625.09375-1.6875-.4375 .625-.21875zm-.9375.46875 1.71875.53125-.65625,3.78125-1.375-.125 .3125-4.1875zm-.4375.03125-.0625.84375-.84375.75-.59375-.28125 1.5-1.3125zm3.3125.25-.25,3.59375-1.03125.1875 .4375-3.5625 .84375-.21875zm4.34375.78125 5.3125,1.4375-2.125-.46875-1.21875.4375-.3125,3.9375-7.03125-1.96875 1.125-.46875 .0625-.875 4.1875-2.03125zm44.25.09375 1.40625.71875-11.625,4.46875h-.15625l-1.53125-.9375c3.96844-1.41153 7.93778-2.83374 11.90625-4.25zm-52,.0625-.0625.75-.46875-.21875 .53125-.53125zm3.6875.6875 .46875.15625-.53125.28125 .0625-.4375zm-6.4375.03125 1.8125.625-.59375,2.46875-.3125.21875-1.25-.34375 .34375-2.96875zm72.25.125 .75,2.6875-3.4375,1.375-1.21875-2.5625 3.90625-1.5zm-58.25.21875 1.8125.53125-.84375.21875-1.71875-.4375 .75-.3125zm42.8125.15625 .59375,1.8125-12.1875,4.5-.4375-1.90625 12.03125-4.40625zm-54.84375.15625 .625.21875-.09375,1.3125-.71875.5 .1875-2.03125zm60.8125,0 .65625,2.5625-10.8125,4.125-.5625-2.71875 10.71875-3.96875zm-46.4375.0625 3.1875.875-3.8125,2.21875 .625-3.09375zm-3.46875.25 1.75.4375-.625,3.40625-.1875.125-1.21875-.34375 .28125-3.625zm3.03125.0625-.53125,2.96875-.84375.5 .40625-3.03125 .96875-.4375zm4.9375.53125 .03125,1.46875-6.8125,5.15625 .21875-2.5 6.5625-4.125zm47.21875.15625 1.21875,2.5625-9.78125,3.90625-.6875-2.9375 9.25-3.53125zm-65.75,1.09375-.21875,1.625-13,14.53125-1.46875.34375 14.6875-16.5zm.375,0 11.0625,3.125-.09375,2.09375-11.1875-3.5 .21875-1.71875zm70.40625.375 .625,2.25-8,3.21875-.90625-2.1875 8.28125-3.28125zm-73.5.28125 .78125.21875-.875.625 .09375-.84375zm42.78125.15625 1.6875.96875-4.71875,1.8125 .6875-1.9375c.78211-.27693 1.56183-.56581 2.34375-.84375zm-21.46875.65625-.625,1.0625-.5625-.1875 1.1875-.875zm30.8125.46875 .46875,2.75-11.34375,4.3125-.40625-2.875 11.28125-4.1875zm-49.21875.21875 1.46875.46875-.9375,12.90625-2.21875-.375 1.6875-13zm41.9375.0625 .34375,1.96875-6.125,2.25 .75-2.375 5.03125-1.84375zm13.96875.375 .71875,2.90625-12.21875,4.875-.5625-3.15625 12.0625-4.625zm-53.875.21875 .8125.1875-.46875,6.875h-.03125v.375l-.3125,4.875-1.0625.5625 1.0625-12.875zm69.3125.21875 .4375,1.59375-2.96875,1.21875-.65625-1.53125 3.1875-1.28125zm-55.125.0625 .40625.09375-3.59375,6.40625-.09375-2.21875 2.09375-3.375 1.1875-.90625zm-12.84375.125 .8125.25-.9375,1.28125 .125-1.53125zm13.5625.0625 .65625.1875-.65625,1.3125 2.25.71875 1.625-1.84375 .40625.125-.8125,3.28125-4.71875-1.40625 1.25-2.375zm-17.71875.15625-.1875,1.90625-2.0625,3.0625-2.34375,3.40625-6.96875,3.9375 11.5625-12.3125zm5.625.25 .78125.25-2.5625,3.125 .125-1.375 1.65625-2zm57.1875.0625 .75,2.25-10.875,4.375-.625-2.375 10.75-4.25zm-40.53125.125 2.46875.78125-1.28125,2.46875 4.03125,1.25 .53125-2.28125 .5625.1875-.15625,2.90625-6.875-2.03125 .71875-3.28125zm-14.875.375 2.8125.875-.09375,3.03125-3.40625-.875 .6875-3.03125zm-.53125.1875-.625,2.71875-1.3125-.34375 1.9375-2.375zm61.75,0 .625,1.53125-9.6875,3.9375-.46875-1.625 9.53125-3.84375zm-53.53125.09375-1.40625,2.1875-.0625-1.09375 1.46875-1.09375zm-4.40625.71875 1.21875.375 .125,13.21875-1.8125-.5625 .46875-13.03125zm2.65625.40625 .4375,12.84375-1.09375.5-.125-12.9375 .78125-.40625zm3.09375.46875 8.625,2.53125-.46875,3.125-9.0625-2.28125 .90625-3.375zm21.875.125 .40625,2.90625-9.5625,3.625c.03872-1.06266.05959-2.09834.09375-3.125l3.46875-1.3125-.34375,1.03125 3.46875.625 1-3.1875 1.46875-.5625zm-8.96875.125 1.90625.03125 .21875.0625-.0625,2.03125-2.125.78125c.03081-.98711.06166-1.98151.0625-2.90625zm-29.625.0625-.21875,2.46875-1.09375-.3125c.60168-1.06207 1.12515-1.98947 1.3125-2.15625zm31.90625.0625 1.59375.40625-.34375,1.0625-1.0625.40625-.1875-1.875zm-15.71875.1875-.65625,2.75-.6875-.15625 1.34375-2.59375zm-11.21875.40625 5.34375,1.40625-.96875,3-5.46875-1.5 .15625-1.75 .9375-1.15625zm39.5.28125 .5,3.1875-11.34375,4.53125-.4375-3.40625 11.28125-4.3125zm7.4375.8125 .5625,2.375-11.65625,4.6875-.375-2.53125 11.46875-4.53125zm7.15625.21875 .46875,1.625-12.75,5.1875-.375-1.75 12.65625-5.0625zm-33.46875.3125 3.125.9375-.15625,3.0625-3.34375-.84375 .375-3.15625zm-27.09375.21875 1.25.34375-.15625,1.875-2.0625-.625c.33558-.51505.66051-1.05693.96875-1.59375zm11.84375.34375-.09375,2.5-.53125-.15625 .625-2.34375zm4.3125.34375 5.71875,1.5-.71875,3.21875-5.4375-1.46875-.09375-2.21875 .53125-1.03125zm-10.8125.75 .375.09375-.53125,1.9375 .15625-2.03125zm.75.21875 5.65625,1.5-.09375,2.28125-6-1.84375 .4375-1.9375zm-7.25.21875 .53125.15625-.65625,1.5-1-.25c.35778-.31525.73264-.82646 1.125-1.40625zm.84375.28125 1.375.40625-.15625,1.5625-2.03125-.53125 .8125-1.4375zm22.40625.09375 7.9375,2.09375-.15625,3.4375-8.34375-2.28125 .5625-3.25zm12.375.59375 .25,3.46875-3.84375,1.53125c.01092-1.21991.01945-2.4408.0625-3.65625l3.53125-1.34375zm-29.3125.9375 4.9375,1.46875-.8125,1.53125-4.25-1.40625 .125-1.59375zm36.46875.125 .3125,2.5625-11.03125,4.4375c-.03384-.90244-.03617-1.82742-.03125-2.75l10.75-4.25zm-25.90625.34375 .40625.09375-.3125,1.8125-.09375-1.90625zm.8125.1875 9,2.4375-.375,2.65625-9.15625-2.78125 .53125-2.3125zm30.96875.28125 .21875,1.78125-11.6875,4.75-.15625-1.875 11.625-4.65625zm-37.1875.59375 1.34375.40625-.0625,1.84375-1.96875-.65625 .6875-1.59375zm5.53125,1.65625 4.75,1.4375-.40625,1.40625-4.28125-1.25-.0625-1.59375zm10.03125,0 3.96875,1.0625-.125,2.875-4.21875-1.28125 .375-2.65625zm-4.875,1.5625 8.6875,2.59375-.0625,1.46875-9.03125-2.65625 .40625-1.40625zm14.59375.96875-.09375,1.96875-4.46875,1.8125c-.05931-.62814-.09455-1.25798-.125-1.90625l4.6875-1.875z" fill-rule="evenodd"/>
</svg>
