<?xml version="1.0" encoding="UTF-8"?>
<svg viewBox="0 0 128 128" xmlns="http://www.w3.org/2000/svg" xmlns:xlink="http://www.w3.org/1999/xlink">
 <defs>
  <filter id="ab">
   <feGaussianBlur stdDeviation=".77232"/>
  </filter>
  <linearGradient id="a">
   <stop stop-color="#b1b1b1" offset="0"/>
   <stop stop-color="#e4e4e4" offset="1"/>
  </linearGradient>
  <linearGradient id="aa" x1=".14118" x2=".73442" y1=".8065" y2=".14424" xlink:href="#a"/>
  <linearGradient id="z" x1=".46024" x2=".52623" y1=".5272" y2=".41632" xlink:href="#a"/>
  <linearGradient id="y" x1=".43249" x2=".48532" y1=".5" y2=".43379" xlink:href="#a"/>
  <linearGradient id="x" x1=".39954" x2=".37644" y1=".675" y2=".57083" xlink:href="#a"/>
  <linearGradient id="w" x1=".36256" x2=".34597" y1=".68952" y2=".57258" xlink:href="#a"/>
  <linearGradient id="v" x1=".34091" x2=".46591" y1=".53333" y2=".30556" xlink:href="#a"/>
  <linearGradient id="u" x1=".45078" x2=".5544" y1=".64054" y2=".46757" xlink:href="#a"/>
  <linearGradient id="t" x1=".38534" x2=".36842" y1=".67687" y2=".60884" xlink:href="#a"/>
  <linearGradient id="s" x1=".45816" x2=".43305" y1=".59962" y2=".5" xlink:href="#a"/>
  <linearGradient id="r" x1=".52" x2=".5" y1=".62162" y2=".54054" xlink:href="#a"/>
  <linearGradient id="q" x1=".5" x2=".46841" y1=".63306" y2=".5" xlink:href="#a"/>
  <linearGradient id="p" x1=".12501" x2=".80355" y1="1.2038" xlink:href="#a"/>
  <linearGradient id="d" x1=".21875" x2=".5" xlink:href="#a"/>
  <linearGradient id="c" x1=".5" x2=".52473" y1="1.1408" y2=".36742" xlink:href="#a"/>
  <linearGradient id="b" x1=".5" x2=".79032" y1=".83146" y2=".5" xlink:href="#a"/>
  <linearGradient id="e" x2="0" y1=".58228" y2=".27848" xlink:href="#a"/>
  <linearGradient id="o" xlink:href="#a"/>
  <linearGradient id="n" x1=".05967" x2=".94988" y1=".90635" y2=".09048" xlink:href="#a"/>
  <linearGradient id="m" x1=".53658" x2=".51007" y1="1.0363" y2=".06931" xlink:href="#a"/>
  <linearGradient id="l" x1=".19048" x2=".86857" y1=".34911" y2=".7002" xlink:href="#a"/>
  <linearGradient id="k" x1=".07605" x2=".93795" y1=".90822" y2=".07477" xlink:href="#a"/>
  <linearGradient id="j" x1=".19835" x2=".56818" y1=".83234" y2=".22156" xlink:href="#a"/>
  <linearGradient id="i" x1=".24508" x2=".92779" y1=".96259" y2=".15306" xlink:href="#a"/>
  <linearGradient id="h" x1=".0503" x2=".86095" y1=".3122" y2=".61075" xlink:href="#a"/>
  <linearGradient id="g" x1=".70598" x2=".18711" y1=".79067" y2=".07918" xlink:href="#a"/>
  <linearGradient id="f" x1=".53617" x2=".40567" y1="1.1004" y2=".03725" xlink:href="#a"/>
 </defs>
 <path d="m37.881 118.66-37.535-27.33 55.697-25.6 45.838 34.941-24.389 14.184-17.47-9.8595-22.141 13.665z" fill-opacity=".6758" fill-rule="evenodd" filter="url(#ab)"/>
 <path d="m3.3882 89.193 24.165-11.186 64.286-24.284 35.296 21.001-28.225 13.573 12.657 9.0861-33.119 16.229-12.027-9.483-26.638 12.8-36.396-27.737z" fill="url(#aa)" fill-rule="evenodd"/>
 <path d="m3.1963 89.298 0.1875 2.4375 36.375 27.438 0.375-0.0625-0.5-2.25-36.438-27.562z" fill="url(#z)" fill-rule="evenodd"/>
 <path d="m3.1963 89.298 0.1875 2.4375 36.375 27.438 0.375-0.0625-0.5-2.25-36.438-27.562z" fill-opacity=".15686" fill-rule="evenodd"/>
 <path d="m9.0713 86.735-0.1875 2.4375 31.813 24.938 0.125-2.6875-15.188-11.938-16.562-12.75z" fill="url(#y)" fill-rule="evenodd"/>
 <path d="m9.0713 86.735-0.1875 2.4375 31.813 24.938 0.125-2.6875-15.188-11.938-16.562-12.75z" fill-opacity=".15686" fill-rule="evenodd"/>
 <path d="m39.634 116.99 27.062-12.875-0.0625 2.625-26.687 12.375-0.3125-2.125z" fill="url(#x)" fill-rule="evenodd"/>
 <path d="m40.946 111.17 26.062-12.562-0.1875 2.9375-26.187 12.562" fill="url(#w)" fill-rule="evenodd"/>
 <path d="m66.821 98.798v2.625l11 8.625-0.3125-3.125-10.688-8.125z" fill="url(#v)" fill-rule="evenodd"/>
 <path d="m66.821 98.798v2.625l11 8.625-0.3125-3.125-10.688-8.125z" fill-opacity=".15686" fill-rule="evenodd"/>
 <path d="m66.509 104.24 0.125 2.5 11.938 9.0625-0.0625-2.0625-12-9.5z" fill="url(#u)" fill-rule="evenodd"/>
 <path d="m66.509 104.24 0.125 2.5 11.938 9.0625-0.0625-2.0625-12-9.5z" fill-opacity=".15686" fill-rule="evenodd"/>
 <path d="m78.634 113.61 32.625-16.188 0.4375 0.25 0.1875 2.1875-33.188 15.938-0.0625-2.1875z" fill="url(#t)" fill-rule="evenodd"/>
 <path d="m77.571 110.17 29.75-13.875-0.0625-1.6875-0.625-0.75-29.188 13.688 0.125 2.625z" fill="url(#s)" fill-rule="evenodd"/>
 <path d="m94.759 85.235 26.125-12.188 0.375 0.3125 0.0625 1.9375-24.625 11.625-1.9375-1.6875z" fill="url(#r)" fill-rule="evenodd"/>
 <path d="m101.2 90.235 26.438-12.625-0.25-2.5625s0-0.3125-0.25-0.3125-28.188 13.5-28.188 13.5l2.25 2z" fill="url(#q)" fill-rule="evenodd"/>
 <path d="m3.3882 89.193 24.165-11.186 64.286-24.284 35.296 21.001-28.225 13.573 12.657 9.0861-33.119 16.229-12.027-9.483-26.638 12.8-36.396-27.737z" fill="#fff" fill-opacity=".12549" fill-rule="evenodd"/>
 <path d="m9.0736 86.63 31.643 24.749 26.075-12.64 10.783 8.4853 29.08-13.435-11.756-8.5737 26.163-12.198-18.296-10.695-76.544 16.44-17.147 7.8666z" fill="url(#p)" fill-rule="evenodd"/>
 <path d="m9.0736 86.63 31.643 24.749 26.075-12.64 10.783 8.4853 29.08-13.435-11.756-8.5737 26.163-12.198-18.296-10.695-76.544 16.44-17.147 7.8666z" fill-opacity=".15686" fill-rule="evenodd"/>
 <path d="m13.86458,83.0876-.1875-5.4375-.3125-8.25 .1875-4.25 .4375-2.1875 1.8125.3125 3.3125-.3125 .0625,3.4375 .1875,4-.0625,6.625-.0625,3.9375-.25,2.1875-.9375.5-1.9375.5625-1.125-.1875-1.125-.9375z" fill="url(#d)" fill-rule="evenodd"/>
 <path d="m13.86458,83.1501-2.875,2.375 2.8125,1.3125 2.0625.3125 1.625-.0625 1.625-.375 1.75-.75 .91161-.77589-2.66161-1.91161-.9375.5-.9375.3125-1.75.125-.875-.4375-.75-.625z" fill="url(#c)" fill-rule="evenodd"/>
 <path d="m10.97749,85.55485v1.98875l1.45841.79549 2.2981.7071 2.2539.13259 2.29809-.39775 1.23744-.26517 1.41422-.7513-.0442-2.51907-1.06066.61872-1.5026.66291-1.32583.44195-1.67937.13258-1.59099-.17678-2.07713-.53033-1.67938-.83969z" fill="url(#b)" fill-rule="evenodd"/>
 <path d="m11.022 60.276v1.6794l1.8562 0.7071 1.7236 0.53034 1.5026 0.08838 1.7678-0.13258 1.9446-0.48614 1.9003-1.0165 0.13259-1.8562-10.828 0.48614z" fill="url(#e)" fill-rule="evenodd"/>
 <path d="m20.29841,88.13142-.1875-5.4375-.3125-8.25001 .1875-4.24999 .4375-2.1875 1.8125.31249 3.3125-.31249 .0625,3.43749 .1875,4-.0625,6.625-.0625,3.93751-.25,2.1875-.9375.5-1.9375.5625-1.125-.18751-1.125-.93749z" fill="url(#d)" fill-rule="evenodd"/>
 <path d="m20.29841,88.19392-2.875,2.37499 2.8125,1.3125 2.0625.31251 1.625-.0625 1.625-.37501 1.75-.74999 .91161-.77589-2.66161-1.91162-.9375.5-.9375.31251-1.75.125-.875-.43751-.75-.62499z" fill="url(#c)" fill-rule="evenodd"/>
 <path d="m17.41133,90.59866v1.98875l1.45841.79549 2.2981.70709 2.2539.1326 2.29809-.39775 1.23744-.26517 1.41422-.75129-.0442-2.51907-1.06066.61872-1.5026.6629-1.32583.44195-1.67937.13259-1.59099-.17678-2.07713-.53034-1.67938-.83968z" fill="url(#b)" fill-rule="evenodd"/>
 <path d="m17.456 65.32v1.6794l1.8562 0.70711 1.7236 0.53033 1.5026 0.08839 1.7678-0.13258 1.9446-0.48614 1.9003-1.0165 0.13259-1.8561-10.828 0.48613z" fill="url(#e)" fill-rule="evenodd"/>
 <path d="m26.61311,92.61922-.1875-5.4375-.3125-8.25 .1875-4.25 .4375-2.1875 1.8125.3125 3.3125-.3125 .0625,3.4375 .1875,4-.0625,6.625-.0625,3.9375-.25,2.1875-.9375.5-1.9375.5625-1.125-.1875-1.125-.9375z" fill="url(#d)" fill-rule="evenodd"/>
 <path d="m26.61311,92.68172-2.875,2.375 2.8125,1.3125 2.0625.3125 1.625-.0625 1.625-.375 1.75-.75 .91161-.77589-2.66161-1.91161-.9375.5-.9375.3125-1.75.125-.875-.4375-.75-.625z" fill="url(#c)" fill-rule="evenodd"/>
 <path d="m23.72602,95.08646v1.98875l1.45841.79549 2.2981.70711 2.2539.13258 2.29809-.39775 1.23744-.26517 1.41422-.7513-.0442-2.51907-1.06066.61873-1.5026.66291-1.32583.44195-1.67937.13258-1.59099-.17679-2.07713-.53033-1.67938-.83969z" fill="url(#b)" fill-rule="evenodd"/>
 <path d="m23.77 69.807v1.6794l1.8562 0.70712 1.7236 0.53033 1.5026 0.08839 1.7678-0.13258 1.9446-0.48614 1.9003-1.0165 0.13259-1.8562-10.828 0.48614z" fill="url(#e)" fill-rule="evenodd"/>
 <path d="m33.00722,97.42474-.1875-5.4375-.3125-8.25 .1875-4.25 .4375-2.1875 1.8125.3125 3.3125-.3125 .0625,3.4375 .1875,4-.0625,6.625-.0625,3.9375-.25,2.1875-.9375.5-1.9375.5625-1.125-.1875-1.125-.9375z" fill="url(#d)" fill-rule="evenodd"/>
 <path d="m33.00722,97.48724-2.875,2.375 2.8125,1.3125 2.0625.3125 1.625-.0625 1.625-.375 1.75-.75 .91161-.77589-2.66161-1.91161-.9375.5-.9375.3125-1.75.125-.875-.4375-.75-.625z" fill="url(#c)" fill-rule="evenodd"/>
 <path d="m30.12015,99.89198v1.98875l1.45841.79549 2.2981.7071 2.2539.13259 2.29809-.39775 1.23744-.26517 1.41422-.7513-.0442-2.51907-1.06066.61872-1.5026.66291-1.32583.44195-1.67937.13258-1.59099-.17678-2.07713-.53033-1.67938-.83969z" fill="url(#b)" fill-rule="evenodd"/>
 <path d="m30.164 74.613v1.6794l1.8562 0.70711 1.7236 0.53033 1.5026 0.08839 1.7678-0.13258 1.9446-0.48614 1.9003-1.0165 0.13259-1.8562-10.828 0.48614z" fill="url(#e)" fill-rule="evenodd"/>
 <path d="m39.75879,102.54797-.1875-5.4375-.3125-8.25 .1875-4.25 .4375-2.1875 1.8125.3125 3.3125-.3125 .0625,3.4375 .1875,4-.0625,6.625-.0625,3.9375-.25,2.1875-.9375.5-1.9375.5625-1.125-.1875-1.125-.9375z" fill="url(#d)" fill-rule="evenodd"/>
 <path d="m39.75879,102.61047-2.875,2.375 2.8125,1.3125 2.0625.3125 1.625-.0625 1.625-.375 1.75-.75 .91161-.77589-2.66161-1.91161-.9375.5-.9375.3125-1.75.125-.875-.4375-.75-.625z" fill="url(#c)" fill-rule="evenodd"/>
 <path d="m36.8717,105.01522v1.98875l1.45841.79549 2.2981.7071 2.2539.13259 2.29809-.39775 1.23744-.26517 1.41422-.7513-.0442-2.51907-1.06066.61872-1.5026.66291-1.32583.44195-1.67937.13258-1.59099-.17678-2.07713-.53033-1.67938-.83969z" fill="url(#b)" fill-rule="evenodd"/>
 <path d="m36.916 79.736v1.6794l1.8562 0.70711 1.7236 0.53033 1.5026 0.08839 1.7678-0.13258 1.9446-0.48614 1.9003-1.0165 0.13259-1.8562-10.828 0.48614z" fill="url(#e)" fill-rule="evenodd"/>
 <path d="m48.65495,98.17932-.1875-5.4375-.3125-8.25 .1875-4.25 .4375-2.1875 1.8125.3125 3.3125-.3125 .0625,3.4375 .1875,4-.0625,6.625-.0625,3.9375-.25,2.1875-.9375.5-1.9375.5625-1.125-.1875-1.125-.9375z" fill="url(#d)" fill-rule="evenodd"/>
 <path d="m48.65495,98.24182-2.875,2.375 2.8125,1.3125 2.0625.3125 1.625-.0625 1.625-.375 1.75-.75 .91161-.77589-2.66161-1.91161-.9375.5-.9375.3125-1.75.125-.875-.4375-.75-.625z" fill="url(#c)" fill-rule="evenodd"/>
 <path d="m45.76787,100.64657v1.98875l1.45841.79549 2.2981.7071 2.2539.13259 2.29809-.39775 1.23744-.26517 1.41422-.7513-.0442-2.51907-1.06066.61872-1.5026.66291-1.32583.44195-1.67937.13258-1.59099-.17678-2.07713-.53033-1.67938-.83969z" fill="url(#b)" fill-rule="evenodd"/>
 <path d="m45.812 75.368v1.6794l1.8562 0.70711 1.7236 0.53033 1.5026 0.08839 1.7678-0.13258 1.9446-0.48614 1.9003-1.0165 0.13259-1.8562-10.828 0.48614z" fill="url(#e)" fill-rule="evenodd"/>
 <path d="m57.51141,94.04896-.1875-5.43751-.3125-8.25 .1875-4.25 .4375-2.1875 1.8125.3125 3.3125-.3125 .0625,3.4375 .1875,4-.0625,6.625-.0625,3.9375-.25,2.1875-.9375.5-1.9375.5625-1.125-.1875-1.125-.93749z" fill="url(#d)" fill-rule="evenodd"/>
 <path d="m57.51141,94.11145-2.875,2.37501 2.8125,1.31249 2.0625.3125 1.625-.06249 1.625-.37501 1.75-.75 .91161-.77588-2.66161-1.91162-.9375.5-.9375.31251-1.75.12499-.875-.4375-.75-.625z" fill="url(#c)" fill-rule="evenodd"/>
 <path d="m54.62433,96.5162v1.98875l1.45841.7955 2.2981.70709 2.2539.13259 2.2981-.39774 1.23743-.26517 1.41422-.75131-.0442-2.51907-1.06066.61873-1.5026.66291-1.32583.44195-1.67937.13258-1.59099-.17678-2.07713-.53033-1.67938-.8397z" fill="url(#b)" fill-rule="evenodd"/>
 <path d="m54.669 71.237v1.6794l1.8562 0.70711 1.7236 0.53033 1.5026 0.08838 1.7678-0.13258 1.9446-0.48614 1.9004-1.0165 0.13259-1.8562-10.828 0.48614z" fill="url(#e)" fill-rule="evenodd"/>
 <path d="m70.37908,94.04896-.1875-5.43751-.3125-8.25 .1875-4.25 .4375-2.1875 1.8125.3125 3.3125-.3125 .0625,3.4375 .1875,4-.0625,6.625-.0625,3.9375-.25,2.1875-.9375.5-1.9375.5625-1.125-.1875-1.125-.93749z" fill="url(#d)" fill-rule="evenodd"/>
 <path d="m70.37908,94.11145-2.875,2.37501 2.8125,1.31249 2.0625.3125 1.625-.06249 1.625-.37501 1.75-.75 .91161-.77588-2.66161-1.91162-.9375.5-.9375.31251-1.75.12499-.875-.4375-.75-.625z" fill="url(#c)" fill-rule="evenodd"/>
 <path d="m67.492,96.5162v1.98875l1.45841.7955 2.2981.70709 2.2539.13259 2.2981-.39774 1.23743-.26517 1.41422-.75131-.04421-2.51907-1.06065.61873-1.5026.66291-1.32583.44195-1.67938.13258-1.59099-.17678-2.07713-.53033-1.67938-.8397z" fill="url(#b)" fill-rule="evenodd"/>
 <path d="m67.536 71.237v1.6794l1.8562 0.70711 1.7236 0.53033 1.5026 0.08838 1.7678-0.13258 1.9446-0.48614 1.9004-1.0165 0.13258-1.8562-10.828 0.48614z" fill="url(#e)" fill-rule="evenodd"/>
 <path d="m76.73349,98.77505-.1875-5.4375-.3125-8.25 .1875-4.25 .4375-2.1875 1.8125.3125 3.3125-.3125 .0625,3.4375 .1875,4-.0625,6.625-.0625,3.9375-.25,2.1875-.9375.5-1.9375.5625-1.125-.1875-1.125-.9375z" fill="url(#d)" fill-rule="evenodd"/>
 <path d="m76.73349,98.83755-2.875,2.375 2.8125,1.3125 2.0625.3125 1.625-.0625 1.625-.375 1.75-.75 .91161-.77589-2.66161-1.91161-.9375.5-.9375.3125-1.75.125-.875-.4375-.75-.625z" fill="url(#c)" fill-rule="evenodd"/>
 <path d="m73.84641,101.24229v1.98875l1.45842.79549 2.2981.7071 2.2539.13259 2.29809-.39775 1.23744-.26517 1.41422-.7513-.04421-2.51907-1.06066.61872-1.50259.66291-1.32584.44195-1.67937.13258-1.59099-.17678-2.07713-.53033-1.67938-.83969z" fill="url(#b)" fill-rule="evenodd"/>
 <path d="m73.891 75.963v1.6794l1.8562 0.70711 1.7236 0.53033 1.5026 0.08839 1.7678-0.13258 1.9446-0.48614 1.9003-1.0165 0.1326-1.8562-10.828 0.48614z" fill="url(#e)" fill-rule="evenodd"/>
 <path d="m91.70606,77.35171-2.875,2.375 2.81251,1.3125 2.06249.3125 1.625-.0625 1.625-.375 1.75-.75 .91161-.77589-2.66161-1.91161-.9375.5-.93749.3125-1.75001.125-.87499-.4375-.75001-.625z" fill="url(#c)" fill-rule="evenodd"/>
 <path d="m88.81898,79.75645v1.98875l1.45841.79549 2.2981.7071 2.2539.13259 2.2981-.39775 1.23744-.26517 1.41422-.7513-.0442-2.51907-1.06066.61872-1.5026.66291-1.32583.44195-1.67937.13258-1.591-.17678-2.07713-.53033-1.67938-.83969z" fill="url(#b)" fill-rule="evenodd"/>
 <path d="m89.48202,85.23222-.1875-5.4375-.3125-8.25 .1875-4.25 .4375-2.1875 1.8125.3125 3.3125-.3125 .0625,3.4375 .1875,4-.0625,6.625-.0625,3.9375-.25,2.1875-.9375.5-1.9375.5625-1.125-.1875-1.125-.9375z" fill="url(#d)" fill-rule="evenodd"/>
 <path d="m89.48202,85.29472-2.875,2.375 2.8125,1.3125 2.0625.3125 1.625-.0625 1.625-.375 1.75-.75 .91161-.77589-2.66161-1.91161-.9375.5-.9375.3125-1.75.125-.875-.4375-.75-.625z" fill="url(#c)" fill-rule="evenodd"/>
 <path d="m86.59494,87.69946v1.98875l1.45841.79549 2.2981.7071 2.2539.13259 2.2981-.39775 1.23743-.26517 1.41422-.7513-.04421-2.51907-1.06065.61872-1.5026.66291-1.32583.44195-1.67938.13258-1.59099-.17678-2.07713-.53033-1.67938-.83969z" fill="url(#b)" fill-rule="evenodd"/>
 <path d="m101.35681,64.06409-.1875-5.4375-.3125-8.25 .1875-4.25 .4375-2.1875 1.8125.3125 3.3125-.3125 .0625,3.4375 .1875,4-.0625,6.625-.0625,3.9375-.25,2.1875-.9375.50001-1.9375.5625-1.125-.1875-1.125-.93751z" fill="url(#d)" fill-rule="evenodd"/>
 <path d="m101.35681,64.12659-2.875,2.37501 2.8125,1.3125 2.0625.3125 1.625-.0625 1.625-.375 1.75-.75 .91161-.7759-2.66161-1.9116-.9375.5-.9375.3125-1.75.125-.875-.4375-.75-.62501z" fill="url(#c)" fill-rule="evenodd"/>
 <path d="m98.46973,66.53136v1.98872l1.45841.79551 2.2981.70711 2.2539.13258 2.2981-.39775 1.23743-.26517 1.41422-.75131-.04421-2.51907-1.06065.61872-1.5026.66291-1.32582.44196-1.67938.13257-1.59099-.17677-2.07713-.53033-1.67938-.83968z" fill="url(#b)" fill-rule="evenodd"/>
 <path d="m100.8008,72.96027-.1875-5.4375-.3125-8.25 .1875-4.25 .4375-2.1875 1.8125.3125 3.3125-.3125 .0625,3.4375 .1875,4-.0625,6.625-.0625,3.9375-.25,2.1875-.9375.5-1.9375.5625-1.125-.1875-1.125-.9375z" fill="url(#d)" fill-rule="evenodd"/>
 <path d="m100.8008,73.02277-2.875,2.375 2.8125,1.3125 2.0625.3125 1.625-.0625 1.625-.375 1.75-.75 .91161-.77589-2.66161-1.91161-.9375.5-.9375.3125-1.75.125-.875-.4375-.75-.625z" fill="url(#c)" fill-rule="evenodd"/>
 <path d="m97.91373,75.42751v1.98875l1.45841.79549 2.2981.7071 2.2539.13259 2.2981-.39775 1.23743-.26517 1.41422-.7513-.04421-2.51907-1.06065.61872-1.5026.66291-1.32583.44195-1.67938.13258-1.59099-.17678-2.07713-.53033-1.67938-.83969z" fill="url(#b)" fill-rule="evenodd"/>
 <path d="m97.958 50.148v1.6794l1.8562 0.70711 1.7236 0.53033 1.5026 0.08839 1.7678-0.13258 1.9446-0.48614 1.9003-1.0165 0.13259-1.8562-10.828 0.48614z" fill="url(#e)" fill-rule="evenodd"/>
 <path d="m95.83643,89.83916-.1875-5.4375-.3125-8.25 .1875-4.25 .4375-2.1875 1.8125.3125 3.3125-.3125 .0625,3.4375 .1875,4-.0625,6.625-.0625,3.9375-.25,2.1875-.9375.5-1.9375.5625-1.125-.1875-1.125-.9375z" fill="url(#d)" fill-rule="evenodd"/>
 <path d="m95.83643,89.90166-2.875,2.375 2.8125,1.3125 2.0625.3125 1.625-.0625 1.625-.375 1.75-.75 .91161-.77589-2.66161-1.91161-.9375.5-.9375.3125-1.75.125-.875-.4375-.75-.625z" fill="url(#c)" fill-rule="evenodd"/>
 <path d="m92.94935,92.3064v1.98875l1.45841.79549 2.2981.7071 2.2539.13259 2.29809-.39775 1.23744-.26517 1.41422-.7513-.0442-2.51907-1.06067.61872-1.50259.66291-1.32584.44195-1.67937.13258-1.59099-.17678-2.07713-.53033-1.67938-.83969z" fill="url(#b)" fill-rule="evenodd"/>
 <path d="m92.994 67.027v1.6794l1.8562 0.70711 1.7236 0.53033 1.5026 0.08839 1.7678-0.13258 1.9446-0.48614 1.9004-1.0165 0.13259-1.8562-10.828 0.48614z" fill="url(#e)" fill-rule="evenodd"/>
 <path d="m8.1338 50.735 7.375 5.25 25.438 19.438-0.25 7-32.5-24.688-0.0625-7z" fill="url(#l)" fill-rule="evenodd"/>
 <path d="m8.1338 50.735 7.375 5.25 25.438 19.438-0.25 7-32.5-24.688-0.0625-7z" fill-opacity=".15686" fill-rule="evenodd"/>
 <path d="m8.3838 50.61 28.25-13.188 30.687 25.375-26.312 12.5-32.625-24.688z" fill="url(#m)" fill-rule="evenodd"/>
 <path d="m40.634 82.735 0.25-7.25 25.937-12.438-0.1875 7.1875-26 12.5z" fill="url(#n)" fill-rule="evenodd"/>
 <path d="m66.884 62.798-0.25 1.6875-0.0625 5.8125 11 8.4375-0.125-7.375-10.562-8.5625z" fill="url(#o)" fill-rule="evenodd"/>
 <path d="m66.884 62.798-0.25 1.6875-0.0625 5.8125 11 8.4375-0.125-7.375-10.562-8.5625z" fill-opacity=".15686" fill-rule="evenodd"/>
 <path d="m42.446 79.36-0.0625-3.25 22.562-10.75 0.0625 3.6875-21.812 10.812-0.75-0.5z" fill-opacity=".15686" fill-rule="evenodd"/>
 <path d="m77.259 71.298 27.375-12.312 0.6875 6.9375-27.688 12.875-0.375-7.5z" fill="url(#k)" fill-rule="evenodd"/>
 <path d="m109.97498,68.75047-.1875-5.4375-.3125-8.25 .1875-4.25 .4375-2.1875 1.8125.3125 3.3125-.3125 .0625,3.4375 .1875,4-.0625,6.625-.0625,3.9375-.25,2.1875-.9375.5-1.9375.5625-1.125-.1875-1.125-.9375z" fill="url(#d)" fill-rule="evenodd"/>
 <path d="m109.97498,68.81297-2.875,2.375 2.8125,1.3125 2.0625.3125 1.625-.0625 1.625-.375 1.75-.75 .91161-.77589-2.66161-1.91161-.9375.5-.9375.3125-1.75.125-.875-.4375-.75-.625z" fill="url(#c)" fill-rule="evenodd"/>
 <path d="m107.0879,71.21772v1.98875l1.45841.79549 2.2981.7071 2.2539.13259 2.29809-.39775 1.23744-.26517 1.41422-.7513-.0442-2.51907-1.06066.61872-1.5026.66291-1.32584.44195-1.67937.13258-1.59099-.17678-2.07713-.53033-1.67938-.83969z" fill="url(#b)" fill-rule="evenodd"/>
 <path d="m107.13 45.939v1.6794l1.8562 0.70711 1.7236 0.53033 1.5026 0.08839 1.7678-0.13258 1.9446-0.48614 1.9003-1.0165 0.1326-1.8562-10.828 0.48614z" fill="url(#e)" fill-rule="evenodd"/>
 <path d="m78.892 72.176s0 3.7069 0.22467 3.7069 23.533-10.447 23.533-10.447l-0.05617-3.8754-23.702 10.615z" fill-opacity=".15686" fill-rule="evenodd"/>
 <path d="m77.432 71.221 27.184-12.244-14.435-6.5152-12.75 18.759z" fill="url(#j)" fill-rule="evenodd"/>
 <path d="m80.97 68.076 9.6043-13.311 10.896 4.2686-20.5 9.0427z" fill-opacity=".15686" fill-rule="evenodd"/>
 <path d="m99.449 54.821-5.9536-4.9426 25.218-11.57 0.44932 0.22466v6.796l-19.714 9.492z" fill="url(#i)" fill-rule="evenodd"/>
 <path d="m95.012 51.17 22.242-10.11 0.22465 3.4261-19.209 9.3235-3.2576-2.6398z" fill-opacity=".15686" fill-rule="evenodd"/>
 <path d="m36.333 37.305 17.236-15.489 36.458 30.66-12.629 18.825-26.371-21.843-14.695-12.153z" fill="url(#h)" fill-rule="evenodd"/>
 <path d="m36.333 37.305 17.236-15.489 36.458 30.66-12.629 18.825-26.371-21.843-14.695-12.153z" fill-opacity=".15686" fill-rule="evenodd"/>
 <path d="m53.728 22.054 8.9756 2.8595 41.542 33.758-14.377-6.1956-36.141-30.422z" fill="url(#g)" fill-rule="evenodd"/>
 <path d="m62.783 24.914 23.114-10.008 32.884 23.194-25.338 11.994-30.66-25.179z" fill="url(#f)" fill-rule="evenodd"/>
 <g>
  <path d="m85.91503,14.73547-23.06249,10.125-9.40625-3.1875-17.03125,15.65625-.03125.03125-28.37501,13.3125 .15625,7.15625 2.78125,2.15625v1.90625c.7488.24344 1.70305.66027 2.8125.96875-1.04626,6.55492-.15695,13.0162.03125,19.90625l-2.875,2.53125v.125l-7.75,3.625 .03125,2.78125 36.53126,27.59375 26.78124-12.53125 11.96875,9.125 33.46875-16.03125-.03125-2.375-7.75-5.75-2.71875-1.6875 26.28125-12.59375-.09375-2.625-12.34375-7.375c.30314-7.54121.31971-12.939-.03125-18.9375 .87958-.27841 1.82836-.68813 2.8125-1.3125v-1.25l1.28125-.59375-.03125-7.125-33.40625-23.625zm.1875.375 32.0625,22.8125-5.1875-.375-3.90625-4.53125-4.15625,1.125-3.84375-3.875-.0625.1875 3.25,3.5c-1.25325.1089-2.33864.46557-3.625.59375l-4.25-1.96875v.0625l3.875,2-2.59375,2.1875 .125.125 2.84375-2.1875c1.35295-.06466 2.73209-.22892 4.09375-.34375v.03125l4.09375-1 3.71875,4.15625-6.0625-.1875 .03125-.03125-1.5-1.1875 1.21875,1.40625-1.71875,2.71875h-.0625l-7.53125.46875 .125.125 7.03125-.34375-1.96875,2.15625-3.875.46875 .1875.1875 3.875-.5 2.40625-2.46875 1.875-2.625 6.46875.25 4.9375.46875-24.46875,11.28125-30.46874-24.71875 22.53124-9.9375-2.375,3.1875h-3.03125l-3.90625,3.65625-2.21875-.8125h-.0625l2.4375,1.125 3.78125-3.53125 .65625-.03125 .34375,3.09375-2.9375,1.03125 .125.1875 2.9375-.90625 1.65625,2.8125h.125l-1.625-3.125-.25-3.125 2.3125-.09375 .78125-1.09375 1.71875,2.8125 5.34375.875 .15625.84375-1.3125,4.6875 2.9375,1.375 .0625-.0625-2.5625-1.46875 1.03125-3.84375 .5625,2.84375 6.34375,1.0625 .0625-.0625-6.28125-1.25-.875-4.3125-5.15625-.75-1.6875-3.1875 1.4375-1.96875zm-32.37499,7.1875 17.90624,15-.84375,2.625-2.35574.47855-2.11301,1.9277-3.93749-1.84375-2.59375,2.4375h.1875l2.46875-2.0625 3.34374,1.96875-1.1875,1.5625v.09375l-3.40624.46875 .125.0625 3.28124-.1875-.0625,3.15625 .0625-.0625 .4375-3.09375 1.3125-1.875 2.26199-2.26165 .39426,3.5429 .07703-.10574-.01926-3.46622 2.12973-.27179 1.53125-2.09375 16.8125,14-2.46875-.59375-2.09375-2.15625v.0625l1.8125,2.28125-.75,1.21875h.0625l.90625-1 2.40625.90625-11.5,17.1875 .21875-3.59375 2.34375-5.1875-.84375-3.03125 2.4375-.34375 3.40625-3.28125h-.0625l-3.3125,2.875-2.46875.3125 4.59375-6.5-5.03125,6.34375 .0625-.1875-.875-2.5 1.5625-3.625-2.83968-.93436 2.43343,1.12186-1.53125,3.375 1,3-.03125.03125 1.15625,3.25-2.375,4.96875-1.6875-1.28125 1.4375-4.375h-.0625l-1.6875,3.90625-3.34375-4.1875 1.14109-2.61427 .95266-1.51073-.125-.1875-.8125,1.3125-1.5-3.375-.0625-.0625 1.21875,3.75-1.25,2.46875-3.75-1.90625-.71875-3.90625-.125.0625 .61994,3.8245-3.43244,1.33175 3.27399-1.11773 4.18277,2.07702 3.64459,4.39518 2.02366,1.95803-.4375,4.1875-39.99999-33.28125 2.125.4375 1.78125-1.59375 7.9375,3.65625 .8125,4.4375 .0625.125-.59375-4.53125 2.6875.125 .0625-.125-3.1875-.46875-7.40625-3.5625 .59375-.53125 3.65625-2.53125 4.375,2.9375 2.4375-.78125-.0625-.0625-2.1875.5-4.78125-2.8125-3.6875,2.5-2.6875,2.28125-2.40625-.375 16.1875-14.6875-.53125,1.8125 4,2.0625-1.0625,6.8125h.125l.875-4.65625 1.6875.59375 .125-.25-1.75-.75 .375-2-3.75-1.9375 .65625-2.09375zm1.4375.28125 7.5,2.53125 40.59374,33.1875-13.03125-5.78125 .75-1.0625 2.1875,1.03125h.125l-2.09375-1.375 .0625-.0625-1.5625-1.34375 .4375-2.0625h-.125l-.59375,1.6875-2.25-1.15625-.75-1.90625-.0625.125 .375,2.0625 2.53125,1.34375 1.34375,1.375-.84375,1-16.375-13.75 2.75.53125 2.25,3.3125 .125-.0625-1.78125-3.0625 1.34375-.21875v-.0625l-1.59375-.15625-4.5625-1.53125-16.65624-14 4,2.8125 1.375-.1875 4.62499,3.28125 .0625-.0625-4.24999-3.28125 1.34375-.15625 1.46875.84375 .0625-.0625-1.4375-1.125-2.9375.3125-4.40625-2.96875zm-5.46875,10.4375-3.8125.0625 .4375.3125 3.4375-.25-.0625-.125zm-13.40625,4.71875-.66698,2.86964-1.86427,1.63036 .25.0625 1.9375-1.53125 3.15625,1.625 .65625,3.40625 .125-.1875-.46875-3.09375 1.71875,1.46875 .0625-.0625-1.8125-1.6875-.03125-.21875-3.40625-1.59375 .78125-2.625 30.06249,25-25.43749,12.1875 .90625-4.5 3.4375.03125-.15625-3.71875 5.53125-1.40625-.0625-.0625-5.25,1.09375 .5-4.84375h-.0625l-.40625,2.375-3.03125-1.09375 2.9375,1.6875-.34375,1.96875 .09375,3.5625-3.625-.15625 .03125.0625-4.75-1.15625-2.21875-3.09375-.21875-2.5-.15625,2.34375-5.06251-1.78125-.1875.0625 5.43751,2.25 2.125,2.9375 5,1.4375-.90625,4.65625-31.75001-24.0625 6.25-.40625 9.09375-4.8125 3.13259,4.2942 2.96116,1.92455 .3125,3.59375h.125l-.1875-3.75-3.0625-1.78125 7.25001.71875 3.71875,3.125 .0625-.0625-3.8125-3.3125-7.18751-.65625-2.84375-4.21875 7.37501,1.25v-.0625l-7.56251-1.59375-9.40625,5.03125-6.53125.375 27.43751-13zm82.65624.75 .09375,6.65625-19.6875,9.46875-.96875-.71875 19.1875-9.3125-.1875-3.6875-22.375,10.15625-1.15625-1.15625 25.09375-11.40625zm-2.25,2.96875-.90625,2.09375-1.78125-.625-1.90625,1.5-3.25.96875-.03125.09375 2.90625-.53125-.78125.9375 .125.03125 1.1875-1.0625 1.78125-1.4375 1.96875.34375 1.125-2.0625 .125,2.625-7,3.4375h-.03125l-2.28125-.28125-2.5-.40625-.21875.03125 2.03125.75-2.9375,1.875-2.71875-.9375-.0625.03125 2.46875,1.03125-3.0625.9375 .09375.03125 3.28125-.84375 .125.0625 3.59375-2.15625 1.21875.34375-11.0625,5.40625-2.875-2.4375 21.375-9.75zm1,4.8125v.84375c-1.57872,1.23734-3.39437,1.66322-5.3125,1.6875l5.3125-2.53125zm-2.6875,2.46875c.63493,9.76504.08834,15.19061-.0625,20.03125-1.07963,1.09007-3.97112,1.51008-4.875.03125-.35161-6.63466-1.00169-12.8251-.125-18.84375l1.90625-.90625c.51463.02991 1.04962.0327 1.625-.03125 .49344-.05484.99788-.12838 1.53125-.28125zm-5.4375,1.40625c-.55259,4.6467-.22807,9.25465.03125,14.03125l-2.96875-1.78125c.1445-3.70059.23649-6.96585.21875-9.96875 .65481-.25736 1.32798-.55382 2.03125-1v-.96875l.6875-.3125zm-1.0625.5v.5625c-1.38426,1.08493-2.96507,1.51036-4.625,1.625l4.625-2.1875zm-99.8125.53125 32.00001,24.28125-.21875,5.9375-1.28125-5.34375-5.96875-1.46875-1.65626-4.625 1.12501,4.09375-5.25001-3.53125 .53125-2.875-.15625.03125 .15625-.0625-1.09375-1.75 .5625,1.875-1.8125.3125 1.96875-.09375-.46875,2.71875 5.71876,3.875 .0625.28125 5.90625,1.53125 1.4375,5.625-31.87501-24.46875 .03125-6 1.53125,3.40625 2.21875,1.125 5.6875,8.1875h.125l-2.28125-3.5 3.8125.9375h.125l-4.1875-1.28125-3.03125-4.65625-2.15625-.9375-1.5625-3.625zm97.9375,1.34375c.01484,3.91256-.15507,6.87166-.28125,9.59375 .00173-3.21719-.09589-6.207-.28125-9.375 .18007-.05699.37692-.15003.5625-.21875zm-16.65625.28125 14.28125,6.15625-26.40625,11.9375 12.125-18.09375zm15.84375.03125c.63494,9.76504.08834,15.19061-.0625,20.03125-.9171.92596-3.13987,1.35674-4.34375.5625-.04332-1.20095-.08411-2.39204-.15625-3.625 .87958-.27841 1.82836-.68814 2.8125-1.3125v-1.875l1.40625-.65625-.59375-7-4.34375-3.375c.04562-.40712.0987-.81371.15625-1.21875l2.5625-1.21875c.33334.00486.6711.00878 1.03125-.03125 .49345-.05484.99788-.12838 1.53125-.28125zm-15.375,1.6875-9.34375,13.1875-.625.84375 .90625-.40625 20.4375-9.125-11-4.34375-.375-.15625zm9.875,0c-.03045.28088-.0384.56311-.0625.84375l-.25-.21875v-.46875l.3125-.15625zm-9.53125.40625 9.875,4.125-17.71875,8 1.21875-.84375 2.5625-1.28125-.0625-.0625-2.38794.99686 .38794-1.74686-.15625-.0625-.59375,1.78125-1.6875,1.125 8-11.625-.15625,1.6875 1.6875.71875-1.15625,2.09375-3.28125,1.53125 .15625.0625 2.59375-1.0625-.5,1.0625 .09375.25-1.6875,1 .1875.09375 1.625-.78125 .3125.875h1.3125l-.09375-.15625-.96875-.28125-.40625-.96875 .59375-1.28125 .1875-.09375 1.33303-2.08524 .41697,1.33524-.21875,1.09375 .1875.03125 .46875-1 1.4375-.03125 .40625,1.03125 .1875-.03125-.39552-1.05714 2.11427.05714-.0625-.03125-1.96875-.3125-1.75.21875-.59375-1.5-2.00222-.84911 .50222-2.02589zm13.78125,4.3125 .65625,6.5625-27.40625,12.625-.1875-7.0625 26.9375-12.125zm-93.34375.96875 .0625.03125 3.28125,2.53125c-1.08788-.21223-2.2152-.59522-3.34375-1.21875v-1.34375zm91.4375,1.28125-23.78125,10.625 .15625,3.875 23.90625-10.46875-.28125-4.03125zm-.15625.59375 .1875,3.0625-23.0625,10.34375 1.46875-1.84375 1.5625.21875 2.78125-2.0625 2.84375-.46875 .03125-.0625-2.375.21875 .6875-1.53125h-.09375l-1.0625,1.59375-2.78125,1.96875-1.375-.28125-.875-1.1875-.125.09375 .4375,1.09375-1.5,2.125-.1875-3.09375 22.59375-10.09375-1.28125.96875-.09375.40625-3.375,1.40625-.09375.34375 3.3125-1.125-.46875,1.84375-1.5-.21875-2.8125,1.90625-1.59375-1.09375-1.625.15625 .0625.21875 1.375-.03125 1.3125.96875-1.25.53125-2.34375-.21875 .03125.0625 2.3125.59375 1.96875-.875 2.71875-1.84375 1.625.09375 .3125-1.0625 1.71875-.03125-.03125-.28125-1.5625-.1875 .375-1.21875 1.75-1.40625zm4.125.625 2.96875,1.84375c.02858.53534.0374,1.08524.0625,1.625l-2.84375-1.71875-.25-.1875c.02458-.56757.04089-1.01984.0625-1.5625zm-39.71875.15625 9.8125,8.1875-1.71875,1.40625-2.3125-3.5625-.1875.03125c-.41983-.74681-2.33585-1.71578-3.3125-2.375 .5817.87778 1.62087,1.61493 3,2.4375l-3.65625.6875 .1875.3125 3.875-.8125 1.90625,3.09375-1.46875-.09375 1.75.625v-.09375l2.3125-1.34375 .0625.0625 .1875,6.71875-10.59375-8.125 .15625-7.15625zm-52.8125.09375c.29722.07346.61621.14218.9375.1875l2.28125,1.75 .03125,2.125c.51911.16877 1.17515.41469 1.875.65625 .21526,6.83772-.15744,11.27707-.28125,15.25-1.07962,1.09007-3.97111,1.51008-4.875.03125-.37403-7.05776-1.12001-13.62051.03125-20zm52.34375.34375 .03125,6.75-25.56249,12.21875 .0625-6.65625 25.46874-12.3125zm39.90625,1.25h.03125l1.125.6875 1.625,1.0625c-.97769.67804-1.9516,1.11575-2.90625,1.40625 .02983-1.07993.07987-2.08689.09375-3.09375 .01753-.01334.01628-.04568.03125-.0625zm-41.375.59375-22.56249,10.90625-.125,3.46875 .3125-.0625 .34375.28125 .09375.25 22.15624-10.84375-.21875-4zm-47.34375.1875c.19357.13435.42774.25382.71875.375l.0625.03125 2.9375,2.25c-1.20471-.19765-2.45592-.61478-3.71875-1.3125v-1.34375zm47.125.25 .125,2.9375-1.24999-.3125-.65625-1.5625-.09375-.03125 .4375,1.5-2.125-.53125-1.6875,2.5625 .03125.0625 1.84375-2.09375 2.5.75-1,.6875 1.24999-.5 .28125.09375-9.28124,4.59375-.0625-.46875 1.59375-1.3125-1.5625,1.0625-.34375-1.53125v.6875l-1.375.21875 1.4375.09375-.09375,1.40625-11.65625,5.75 .53125-2.40625 1.71875.125 .5625-1.0625 1.5625.46875 1.59375-2.25 2.40625.59375 .03125-.03125-2.21875-.71875 1.375-1.03125h-.125l-1.46875.9375-.15625-.03125-1.4375,2.28125-1.40625-.5 .78125-1.4375-.09375-.0625-1.53125,2.53125-1.96875-.1875-.65625,2.1875-.03125-2.78125 22.21874-10.6875zm44.5625.71875 .375.21875c.03096.69693.07448,1.38828.09375,2.09375l-.375.3125-2.5,2.21875v2.09375c2.15544,1.56427 6.33672,2.77612 11.15625.25l-.03125-1.96875 2.65625,1.53125-19.1875,8.78125c.01559-.99564.03235-2.02467.03125-2.96875 2.07637.35574 4.60408.15472 7.34375-1.28125l-.0625-2.65625-2.75-2.03125c.04339-1.00176.06058-1.85194.09375-2.78125 1.03935-.22277 2.125-.59785 3.25-1.1875l-.09375-2.625zm-.1875.21875 .09375,2.25c-.90358.54558-1.95897.94312-3.0625,1.15625 .02299-.65464.0447-1.34474.0625-1.96875 1.16971-.31929 2.19713-.81242 2.90625-1.4375zm-5.4375.53125v1.21875c-1.78092,1.39581-3.87474,1.77055-6.0625,1.6875-.19639-.01836-.39471-.06021-.59375-.09375l4-1.84375c.92315-.20142 1.82445-.49297 2.65625-.96875zm-84.21875.71875c.23232.07679.43906.14967.6875.21875-.70124,4.3933-.52646,8.7504-.28125,13.21875l-.5625.25c.20964-5.29399.26887-9.55508.15625-13.6875zm95.8125.25 11.4375,6.6875-25.34375,12.15625c.02206-.6207.04498-1.2816.0625-1.875l20.03125-9.53125-.1875-2.28125-3.28125-1.96875v-.375l-2.75-2.03125c.01219-.28146.01986-.50587.03125-.78125zm-94.78125.0625c.3705.09155.77845.14368 1.1875.1875l2.03125,1.5625v1.6875c.51221.16653 1.15536.41763 1.84375.65625 .26346,7.2178-.09101,11.77607-.21875,15.875-1.07962,1.09007-3.9711,1.51008-4.875.03125-.37403-7.05776-1.12001-13.62051.03125-20zm89.40625.90625c1.42751,1.78203 3.89283,1.10196 5.1875.0625l2.71875,1.78125c-3.70471,2.56929-7.28893,2.15445-10.46875.375l2.5625-2.21875zm-8.90625.90625c.63493,9.76504.08834,15.19061-.0625,20.03125-1.07963,1.09007-3.97112,1.51008-4.875.03125-.36671-6.91975-1.08821-13.36315-.03125-19.625l.59375-.28125c.86189.16552 1.79543.24152 2.84375.125 .49345-.05484.99788-.12838 1.53125-.28125zm-77,.15625 2.96875,2.28125c-.97013-.22909-1.97131-.60516-2.96875-1.15625v-1.125zm42.65625.40625 .78125.59375 .03125,1.875c.74879.24344 1.70304.66026 2.8125.96875-1.04627,6.55492-.15694,13.0162.03125,19.90625l-2.875,2.53125v2.09375c1.62662,1.1805 4.40838,2.11681 7.75,1.4375l-1.40625,1.25v2.09375c2.15544,1.56427 6.33672,2.74486 11.15625.21875l-.0625-2.65625-2.75-2c.35686-8.23895.37071-13.82027 0-20.15625 .87958-.27841 1.82836-.68814 2.8125-1.3125v-1.8125l4-1.84375c.04145,1.89232.14227,3.79253.25,5.71875l-.34375.28125v2.09375c.13807.1002.31431.1849.46875.28125 .04904.98729.09758,1.96487.125,2.96875l-2.875,2.53125v2.09375c1.62662,1.18047 4.40838,2.11681 7.75,1.4375l-1.40625,1.25v2.09375c2.15544,1.56427 6.33672,2.74487 11.15625.21875l.09375-2.46875 2.15625,1.71875-28.5,13.21875-10.875-8.65625-26.28124,12.625-31.03126-24.3125 1.28125-.59375v1.25c1.72349,1.25079 4.76632,2.24625 8.375,1.3125l-1.96875,1.71875v2.09375c1.55942,1.13171 4.18501,2.05219 7.34375,1.53125l-.96875.875v2.09375c1.63043,1.18324 4.42925,2.15639 7.78125,1.46875l-1.46875,1.28125v2.09375c1.80089,1.30695 5.05063,2.34853 8.87501,1.1875l-2.125,1.875v2.09375c2.15544,1.56427 6.33671,2.77611 11.15625.25l-.0625-2.65625-2.75-2.03125c.35686-8.23894.37071-13.82027 0-20.15625 .8796-.27841 1.82835-.68814 2.8125-1.3125v-1.75l.5-.25c-.80721,6.20422-.02212,12.34512.15625,18.875l-2.875,2.53125v2.09375c2.15544,1.56427 6.36796,2.74486 11.1875.21875l-.09375-2.65625-2.75-2c.35686-8.23894.37071-13.82027 0-20.15625 .8796-.27841 1.82835-.68814 2.8125-1.3125l.03125-1.59375 .46875-.25c-.84172,6.25739-.05487,12.4465.125,19.03125l-2.875,2.53125v2.09375c2.15544,1.56428 6.33671,2.77611 11.15624.25l-.0625-2.65625-2.74999-2.03125c.35686-8.23894.3707-13.82027 0-20.15625 .87958-.27841 1.82835-.68814 2.81249-1.3125v-1.71875l.90625-.4375zm29,.0625c-.35241,2.52473-.41874,5.02827-.375,7.5625-.05382.01366-.10292.05138-.15625.0625 .04862-2.61653.02196-5.0219-.03125-7.375l.5625-.25zm-.78125.34375c.14905,6.26133-.16375,10.51056-.28125,14.28125-1.07963,1.09007-3.97112,1.51008-4.875.03125-.21306-4.02055-.55839-7.86853-.59375-11.625l5.75-2.6875zm-29.53125.125 .03125,1.40625c-1.78091,1.39581-3.87474,1.77055-6.06249,1.6875l-.21875-.03125c2.03288-1.10024 4.16137-2.102 6.24999-3.0625zm52.46875.0625 .09375,2.28125c-3.24655,1.96026-8.49937,1.70889-10.71875-.15625l.03125-1.78125c3.39438,2.44138 8.43392,1.56012 10.59375-.34375zm-50.0625.25 3.3125,2.53125c-1.07899-.22019-2.19401-.63203-3.3125-1.25v-1.28125zm-41.9375.96875c.24117.08014.46008.14683.71875.21875-.31015,1.94317-.46176,3.86986-.5,5.8125l-.125.0625c.00536-2.10052-.03126-4.11576-.09375-6.09375zm1.0625.3125c.16739.04136.35311.06496.53125.09375l2.625,2v1.6875c.54208.17624 1.23039.43642 1.96876.6875 .23487,6.9984-.15577,11.47305-.28126,15.5-1.07962,1.09007-3.9711,1.51008-4.875.03125-.37403-7.05776-1.12001-13.62051.03125-20zm79.03125.5625 2.71875,1.78125c-2.45191,1.70044-4.85974,2.07074-7.125,1.625-.01473-.93705-.03095-1.88552-.0625-2.8125 1.43399.89991 3.37578.28377 4.46875-.59375zm15.0625.03125 .09375,2.1875-19.59375,9.3125c.01745-.64246.01959-1.91579.03125-2.53125l19.46875-8.96875zm-50.34375.8125c.26633.0658.55525.11588.84375.15625l2.34375,1.78125v1.78125c.53418.17367 1.21245.40839 1.9375.65625 .24194,7.0555-.15517,11.54793-.28125,15.59375-1.07963,1.09007-3.97112,1.51008-4.875.03125-.37403-7.05776-1.12002-13.62051.03125-20zm-7.93749.03125c.63492,9.76504.08833,15.19061-.0625,20.03125-1.07963,1.09007-3.97112,1.51008-4.875.03125-.36189-6.82872-1.05951-13.19071-.0625-19.375l1-.46875c.76015.11623 1.56814.1626 2.46875.0625 .49344-.05484.99787-.12838 1.53125-.28125zm-32.37501.875 2.96876,2.28125c-.96851-.23447-1.97286-.60601-2.96876-1.15625v-1.125zm96.84375,0 .28125,2.5625-26.25,12.5625c.02859-.67585.28835-2.13866.3125-2.78125l25.65625-12.34375zm-18.53125.25 .0625,2.28125c-2.02242,1.22112-4.79801,1.56664-7.15625,1.21875-.00149-.59608-.02337-1.16615-.03125-1.75 2.7489.41775 5.63347-.43523 7.125-1.75zm-52.15624.15625v1.1875c-1.78093,1.39581-3.87475,1.77055-6.0625,1.6875l6.0625-2.875zm28.09374.5625v1.21875c-1.78092,1.39581-3.87474,1.77055-6.0625,1.6875-.15449-.01444-.312-.04034-.46875-.0625l4.0625-1.90625c.85226-.20325 1.69953-.49751 2.46875-.9375zm-10.46875.25 3.21875,2.46875c-1.04662-.22498-2.13605-.62054-3.21875-1.21875v-1.25zm-41.84374,1.03125c.20245.06567.37933.12788.59375.1875-.83283,5.21767-.44642,10.38752-.15625,15.75l-.65625-.5c.26704-6.16528.35314-10.81895.21875-15.4375zm.9375.28125c.158.03905.33222.06358.5.09375l3.09375,2.375v1.625c.43639.14188.96522.3586 1.53125.5625 .2206,6.88203-.15698,11.32465-.28125,15.3125-1.07963,1.09007-3.97112,1.51008-4.875.03125-.37404-7.05776-1.12002-13.62051.03125-20zm20.59375.6875c.63493,9.76504.08834,15.19061-.0625,20.03125-1.07963,1.09007-3.97112,1.51008-4.875.03125-.35883-6.77091-1.05402-13.08377-.09375-19.21875l1.25-.59375c.69971.08894 1.4347.12186 2.25.03125 .49344-.05484.99787-.12839 1.53125-.28125zm41.49999.3125c.01874.8706.05363,1.74846.09375,2.625-.1049.01714-.20718.04591-.3125.0625 .02873-.92783.0451-1.78611.0625-2.65625l.15625-.03125zm-19.3125.03125c.22212.07296.41951.15292.65625.21875-.8373,5.24576-.44681,10.41893-.15625,15.8125l-.6875-.5c.26824-6.19295.32476-10.89211.1875-15.53125zm5.90625.25c.63493,9.76504.08834,15.1906-.0625,20.03125-1.07963,1.09007-3.97112,1.51008-4.875.03125-.37402-7.05778-1.12002-13.62051.03125-20 .99555.24602 2.11482.3588 3.375.21875 .49345-.05484.99788-.12838 1.53125-.28125zm-55.84375.46875c-.01538,3.11895.20529,6.25947.375,9.46875l-.75-.5625c.14372-3.3181.23086-6.19382.25-8.875l.125-.03125zm21.53126.28125-.03125,1.4375c-1.78093,1.39581-3.87475,1.77055-6.0625,1.6875l-.28125-.03125c2.04727-1.1191 4.25848-2.14871 6.375-3.09375zm41.59374.4375c.02331.01677.03903.04604.0625.0625 .0344.61768.06226,1.25182.09375,1.875l-.1875-.15625 .03125-1.78125zm-52.09374.21875 2.84375,2.1875c-.44167-.10736-.89162-.23023-1.34375-.40625-.499-.19427-.99756-.44115-1.5-.71875v-1.0625zm58.34374,1.15625c.02897.61433.05992,1.2254.09375,1.84375-.17662.01621-.35462.01851-.53125.03125 .0227-.60446.04418-1.23466.0625-1.8125l.375-.0625zm-75.5.75c.02739.489.06684.97672.09375,1.46875l-.75-.53125c.01051-.24263.02133-.44939.03125-.6875l.625-.25zm18.65626.125c.33707.11793.6569.23967 1.03125.34375-.83122,5.20763-.44625,10.36736-.15625,15.71875l-1.09375-.78125c.26403-6.09581.3466-10.71384.21875-15.28125zm6.28125.375c.63493,9.76504.08834,15.19061-.0625,20.03125-1.07963,1.09007-3.97112,1.51008-4.875.03125-.37404-7.05776-1.12002-13.62051.03125-20l.4375.09375 .21875.15625 .1875-.09375c.77733.12112 1.61002.16489 2.53125.0625 .49345-.05484.99787-.12838 1.53125-.28125zm-30.93751.625c1.42752,1.78203 3.89284,1.10196 5.1875.0625l.90625.59375c.03792.70286.06256,1.4145.09375,2.125-3.09141,1.41865-6.06503.94003-8.75-.5625l2.5625-2.21875zm81.59375.21875c.02343.42429.04806.85341.0625,1.28125l-.65625.28125c.01999-.51297.04315-.99599.0625-1.5 .17612-.01205.35116-.04411.53125-.0625zm.09375,1.9375c.00535.12518-.00674.24981 0,.375l-.3125-.21875 .3125-.15625zm-6.03125.0625c1.42751,1.78203 3.89283,1.10196 5.1875.0625l.875.5625c.03811.72024.06374,1.45905.09375,2.1875-3.08876,1.41491-6.03545.90785-8.71875-.59375l2.5625-2.21875zm-78.34375.1875c2.68067,1.92806 6.40154,1.77089 8.90625.6875 .02314.55457.04721,1.09628.0625,1.65625l-.5625.5c-3.04981.83313-6.68746.40822-8.4375-1.0625l.03125-1.78125zm-1.96875,1.3125 31.50001,24.6875-.09375,2.3125-31.46876-24.625 .0625-2.375zm-.6875.1875 .09375,2.21875 31.93751,25.03125 26.06249-12.625 11.03125,8.65625 29.78125-14.09375-.125-1.75 3.6875,2.78125-32.5625,16.15625-11.875-9.5-26.93749,12.84375-35.90626-27.5 4.8125-2.21875zm78.3125.71875c2.67138,1.92138 6.34021,1.76067 8.84375.6875 .0171.43784.05045.87128.0625,1.3125l-1.1875,1.0625c-2.89273.59669-6.12737.0824-7.75-1.28125l.03125-1.78125zm-66.5625.5c1.42751,1.78203 3.89284,1.10196 5.1875.0625l.90625.625c.03594.69473.06609,1.39124.09375,2.09375-3.1012,1.43507-6.05668.94469-8.75-.5625l2.5625-2.21875zm-16.65625,1.4375 35.87501,27.46875 .25,1.75-35.96876-26.96875-.15625-2.25zm92.25.4375c1.42751,1.78203 3.89283,1.10196 5.1875.0625l2.71875,1.78125c-3.70471,2.56929-7.28892,2.15445-10.46875.375l2.5625-2.21875zm-78.28125.53125c2.68995,1.93472 6.40189,1.78111 8.90625.6875 .01277.34641.02173.68271.03125,1.03125l-1.5625,1.375c-2.80506.49677-5.84519-.0006-7.40625-1.3125l.03125-1.78125zm86.1875,1.53125 .09375,2.25c-3.24655,1.96026-8.49937,1.74014-10.71875-.125l.03125-1.78125c3.39439,2.44138 8.43392,1.56012 10.59375-.34375zm-77.125.5625c1.42751,1.78203 3.89284,1.10196 5.1875.0625l.84376.53125c.04024.75523.0622,1.51703.09375,2.28125-3.06511,1.3756-6.0239.83432-8.68751-.65625l2.5625-2.21875zm79.875,1.21875 .46875.625 .15625,1.53125-29.3125,13.65625-.15625-2.21875 28.84375-13.59375zm-36.125.1875c1.42751,1.78203 3.89283,1.10196 5.1875.0625l.875.5625c.03811.72024.06374,1.45905.09375,2.1875-3.08876,1.41491-6.03545.90785-8.71875-.59375l2.5625-2.21875zm-12.84374.09375c1.4275,1.78203 3.89283,1.10196 5.1875.0625l2.71874,1.78125c-3.70471,2.5693-7.28893,2.15446-10.46874.375l2.5625-2.21875zm-33.59376.90625c2.66192,1.91457 6.30963,1.78126 8.81251.71875 .01775.45089.05008.88929.0625,1.34375l-1.06251.9375c-2.91828.63216-6.2022.16081-7.84375-1.21875l.03125-1.78125zm41.5,1.15625 .0625,2.28125c-3.24654,1.96026-8.46812,1.70889-10.68749-.15625l.03125-1.78125c3.39438,2.44138 8.43391,1.56013 10.59374-.34375zm2.25.25c2.67138,1.92138 6.34021,1.76067 8.84375.6875 .0171.43784.05045.87128.0625,1.3125l-1.1875,1.0625c-2.89273.59669-6.12737.0824-7.75-1.28125l.03125-1.78125zm43.59375,1 .375,2.125-32.875,15.875v-1.96875l32.5-16.03125zm-78.34374.03125c1.4275,1.78204 3.89283,1.10196 5.1875.0625l1.28125.84375c.03141.58955.03589,1.18633.0625,1.78125-3.21122,1.61562-6.31206,1.08791-9.09376-.46875l2.56251-2.21875zm15.6875.75c1.4275,1.78204 3.89283,1.10196 5.1875.0625l2.71875,1.78125c-3.70472,2.56929-7.28893,2.15445-10.46875.375l2.5625-2.21875zm28.09374.59375c1.42751,1.78203 3.89283,1.10196 5.1875.0625l2.71875,1.78125c-3.7047,2.56929-7.28892,2.15445-10.46875.375l2.5625-2.21875zm-10.28125.0625 .09375,2.28125-25.81249,12.375 .15625-2.25 25.56249-12.40625zm.5625.125 10.21875,8 .09375,2.25-10.46875-7.9375 .15625-2.3125zm-36.75.875c2.7979,2.01237 6.71914,1.77653 9.21876.5625 .02599.60673.07699,1.19935.09375,1.8125l-.375.3125c-3.14954,1.05016-7.11257.65368-8.96876-.90625l.03125-1.78125zm26.28126.40625 .09375,2.25c-3.24656,1.96026-8.49938,1.74014-10.71875-.125l.03125-1.78125c3.39437,2.44138 8.43391,1.56012 10.59375-.34375zm28.09374.59375 .09375,2.25c-3.24655,1.96026-8.49937,1.74014-10.71875-.125l.03125-1.78125c3.39439,2.44138 8.43392,1.56012 10.59375-.34375zm-44.93749,1.75c1.42751,1.78203 3.89283,1.10196 5.1875.0625l2.71875,1.78125c-3.70472,2.56929-7.28893,2.15445-10.46875.375l2.5625-2.21875zm26.62499,1.53125 .09375,2.125-26.49999,12.4375v-1.75l26.40624-12.8125zm.34375.4375 11.5,9.15625 .15625,1.625-11.5-8.59375-.15625-2.1875zm-19.06249.09375 .09375,2.28125c-3.24656,1.96026-8.49938,1.70889-10.71875-.15625l.03125-1.78125c3.39438,2.44138 8.43391,1.56012 10.59375-.34375z" fill-rule="evenodd"/>
 </g>
</svg>
