<?xml version="1.0" encoding="UTF-8"?>
<svg viewBox="0 0 128 128" xmlns="http://www.w3.org/2000/svg" xmlns:xlink="http://www.w3.org/1999/xlink">
 <defs>
  <filter id="cy">
   <feGaussianBlur stdDeviation=".92497"/>
  </filter>
  <linearGradient id="f">
   <stop stop-color="#4a585b" offset="0"/>
   <stop stop-color="#5e7074" offset="1"/>
  </linearGradient>
  <linearGradient id="a">
   <stop stop-color="#b1b1b1" offset="0"/>
   <stop stop-color="#e4e4e4" offset="1"/>
  </linearGradient>
  <linearGradient id="c">
   <stop stop-color="#6a3c1d" offset="0"/>
   <stop stop-color="#8f5127" offset="1"/>
  </linearGradient>
  <linearGradient id="e">
   <stop stop-color="#c2a05c" offset="0"/>
   <stop stop-color="#d6be91" offset="1"/>
  </linearGradient>
  <linearGradient id="d">
   <stop stop-color="#b49900" offset="0"/>
   <stop stop-color="#ffda0a" offset=".5"/>
   <stop stop-color="#c6a800" offset="1"/>
  </linearGradient>
  <linearGradient id="ab" x1="56.057" x2="86.879" y1="112.65" y2="73.387" gradientUnits="userSpaceOnUse">
   <stop stop-color="#4f3e2a" offset="0"/>
   <stop stop-color="#72593c" offset="1"/>
  </linearGradient>
  <linearGradient id="b">
   <stop stop-color="#8dbbdc" offset="0"/>
   <stop stop-color="#dadada" offset="1"/>
  </linearGradient>
  <linearGradient id="cx" x1="27.558" x2="27.935" y1="40.485" y2="35.776" gradientUnits="userSpaceOnUse" xlink:href="#a"/>
  <linearGradient id="cw" x1="32.267" x2="32.541" y1="42.931" y2="40.669" gradientUnits="userSpaceOnUse" xlink:href="#a"/>
  <linearGradient id="cv" x1="35.325" x2="35.447" y1="38.65" y2="35.226" gradientUnits="userSpaceOnUse" xlink:href="#a"/>
  <linearGradient id="cu" x1="21.076" x2="21.535" y1="38.406" y2="33.324" gradientUnits="userSpaceOnUse" xlink:href="#a"/>
  <linearGradient id="ct" x1="32.451" x2="31.913" y1="33.452" y2="30.884" gradientUnits="userSpaceOnUse" xlink:href="#a"/>
  <linearGradient id="cs" x1="25.601" x2="25.785" y1="33.391" y2="29.538" gradientUnits="userSpaceOnUse" xlink:href="#a"/>
  <linearGradient id="cr" x1="26.422" x2="28.973" gradientUnits="userSpaceOnUse" xlink:href="#a"/>
  <linearGradient id="cq" x1="25.173" x2="25.785" y1="25.502" y2="21.344" gradientUnits="userSpaceOnUse" xlink:href="#a"/>
  <linearGradient id="cp" x1="25.081" x2="31.438" gradientUnits="userSpaceOnUse" xlink:href="#a"/>
  <linearGradient id="co" x1="19.608" x2="19.632" y1="23.851" y2="22.2" gradientUnits="userSpaceOnUse" xlink:href="#a"/>
  <linearGradient id="cn" x1="15.816" x2="20.709" y1="19.448" y2="19.142" gradientUnits="userSpaceOnUse" xlink:href="#a"/>
  <linearGradient id="cm" x1="15.572" x2="15.755" y1="28.193" y2="23.973" gradientUnits="userSpaceOnUse" xlink:href="#a"/>
  <linearGradient id="cl" x1="12.208" x2="12.432" y1="31.067" y2="29.001" gradientUnits="userSpaceOnUse" xlink:href="#a"/>
  <linearGradient id="ck" x1="10.251" x2="10.595" y1="23.729" y2="22.443" gradientUnits="userSpaceOnUse" xlink:href="#a"/>
  <linearGradient id="cj" x1="17.59" x2="17.829" y1="42.503" y2="39.697" gradientUnits="userSpaceOnUse" xlink:href="#a"/>
  <linearGradient id="ci" x1="15.266" x2="15.265" y1="37.244" y2="34.674" gradientUnits="userSpaceOnUse" xlink:href="#a"/>
  <linearGradient id="ch" x1="9.0893" x2="9.5135" y1="38.65" y2="33.47" gradientUnits="userSpaceOnUse" xlink:href="#a"/>
  <linearGradient id="cg" x1="17.406" x2="17.712" y1="48.13" y2="46.011" gradientUnits="userSpaceOnUse" xlink:href="#a"/>
  <linearGradient id="cf" x1="11.107" x2="11.092" y1="47.335" y2="42.931" gradientUnits="userSpaceOnUse" xlink:href="#a"/>
  <linearGradient id="ce" x1="12.881" x2="13.003" y1="54.673" y2="51.371" gradientUnits="userSpaceOnUse" xlink:href="#a"/>
  <linearGradient id="cd" x1="19.119" x2="19.481" y1="57.119" y2="53.022" gradientUnits="userSpaceOnUse" xlink:href="#a"/>
  <linearGradient id="cc" x1="9.9455" x2="10.19" y1="61.706" y2="58.281" gradientUnits="userSpaceOnUse" xlink:href="#a"/>
  <linearGradient id="cb" x1="19.669" x2="19.547" y1="62.623" y2="60.728" gradientUnits="userSpaceOnUse" xlink:href="#a"/>
  <linearGradient id="ca" x1="15.449" x2="15.459" y1="68.8" y2="65.73" gradientUnits="userSpaceOnUse" xlink:href="#a"/>
  <linearGradient id="bz" x1="15.144" x2="15.083" y1="73.692" y2="70.4" gradientUnits="userSpaceOnUse" xlink:href="#a"/>
  <linearGradient id="by" x1="7.3158" x2="7.6973" y1="68.922" y2="64" gradientUnits="userSpaceOnUse" xlink:href="#a"/>
  <linearGradient id="bx" x1="25.173" x2="25.295" y1="52.41" y2="50.698" gradientUnits="userSpaceOnUse" xlink:href="#a"/>
  <linearGradient id="bw" x2="0" y1="56.08" y2="54.918" gradientUnits="userSpaceOnUse" xlink:href="#a"/>
  <linearGradient id="bv" x1="29.454" x2="29.271" y1="60.911" y2="58.162" gradientUnits="userSpaceOnUse" xlink:href="#a"/>
  <linearGradient id="bu" x1="30.127" x2="30.188" y1="64.03" y2="61.645" gradientUnits="userSpaceOnUse" xlink:href="#a"/>
  <linearGradient id="bt" x1="25.968" x2="26.029" y1="68.739" y2="66.048" gradientUnits="userSpaceOnUse" xlink:href="#a"/>
  <linearGradient id="bs" x1="30.738" x2="30.555" y1="73.264" y2="71.308" gradientUnits="userSpaceOnUse" xlink:href="#a"/>
  <linearGradient id="br" x1="26.152" x2="25.968" y1="76.322" y2="73.448" gradientUnits="userSpaceOnUse" xlink:href="#a"/>
  <linearGradient id="bq" x1="33.307" x2="33.276" y1="78.157" y2="76.281" gradientUnits="userSpaceOnUse" xlink:href="#a"/>
  <linearGradient id="bp" x1="21.443" x2="21.748" y1="74.182" y2="66.598" gradientUnits="userSpaceOnUse" xlink:href="#a"/>
  <linearGradient id="bo" x1="17.04" x2="17.009" y1="79.563" y2="77.729" gradientUnits="userSpaceOnUse" xlink:href="#a"/>
  <linearGradient id="bn" x2="0" y1="77.545" y2="73.387" gradientUnits="userSpaceOnUse" xlink:href="#a"/>
  <linearGradient id="bm" x1="11.352" x2="11.597" y1="85.923" y2="81.153" gradientUnits="userSpaceOnUse" xlink:href="#a"/>
  <linearGradient id="bl" x1="17.406" x2="18.018" y1="86.657" y2="82.315" gradientUnits="userSpaceOnUse" xlink:href="#a"/>
  <linearGradient id="bk" x2="0" y1="81.459" y2="79.563" gradientUnits="userSpaceOnUse" xlink:href="#a"/>
  <linearGradient id="bj" x2="0" y1="86.902" y2="84.884" gradientUnits="userSpaceOnUse" xlink:href="#a"/>
  <linearGradient id="bi" x1="33.123" x2="33.307" y1="91.122" y2="89.104" gradientUnits="userSpaceOnUse" xlink:href="#a"/>
  <linearGradient id="bh" x1="32.206" x2="32.451" y1="95.892" y2="93.568" gradientUnits="userSpaceOnUse" xlink:href="#a"/>
  <linearGradient id="bg" x1="26.58" x2="27.13" y1="93.935" y2="89.532" gradientUnits="userSpaceOnUse" xlink:href="#a"/>
  <linearGradient id="bf" x1="26.641" x2="26.824" y1="101.7" y2="96.32" gradientUnits="userSpaceOnUse" xlink:href="#a"/>
  <linearGradient id="be" x1="31.839" x2="31.9" y1="101.33" y2="98.46" gradientUnits="userSpaceOnUse" xlink:href="#a"/>
  <linearGradient id="bd" x1="22.238" x2="22.391" y1="102.19" y2="99.622" gradientUnits="userSpaceOnUse" xlink:href="#a"/>
  <linearGradient id="bc" x1="16.734" x2="16.856" y1="96.687" y2="91.55" gradientUnits="userSpaceOnUse" xlink:href="#a"/>
  <linearGradient id="bb" x1="9.0893" x2="9.762" y1="90.938" y2="85.74" gradientUnits="userSpaceOnUse" xlink:href="#a"/>
  <linearGradient id="ba" x1="14.443" x2="19.546" y1="33.124" y2="92.973" gradientUnits="userSpaceOnUse" xlink:href="#a"/>
  <linearGradient id="az" x1="26.984" x2="34.595" y1="72.389" y2="71.524" gradientUnits="userSpaceOnUse" xlink:href="#a"/>
  <linearGradient id="ay" x1="23.351" x2="23.265" y1="30.27" y2="19.632" gradientUnits="userSpaceOnUse" xlink:href="#a"/>
  <linearGradient id="ax" x1="20.843" x2="19.286" y1="22.227" y2="25.514" gradientUnits="userSpaceOnUse" xlink:href="#a"/>
  <linearGradient id="aw" x1="23.87" x2="24.822" y1="26.465" y2="30.616" gradientUnits="userSpaceOnUse" xlink:href="#a"/>
  <linearGradient id="av" x1="63.963" x2="74.923" y1="72.734" y2="29.247" gradientUnits="userSpaceOnUse" xlink:href="#f"/>
  <linearGradient id="au" x1="30.287" x2="28.873" y1="52.582" y2="53.643" gradientUnits="userSpaceOnUse" xlink:href="#f"/>
  <linearGradient id="at" x1="93.131" x2="93.838" y1="71.762" y2="72.646" gradientUnits="userSpaceOnUse" xlink:href="#f"/>
  <linearGradient id="as" x1="41.384" x2="56.571" y1="72.413" y2="97.288" gradientUnits="userSpaceOnUse" xlink:href="#c"/>
  <linearGradient id="ar" x1="56.634" x2="58.509" gradientUnits="userSpaceOnUse" xlink:href="#c"/>
  <linearGradient id="aq" x1="66.259" x2="65.759" y1="90.538" y2="91.163" gradientUnits="userSpaceOnUse" xlink:href="#c"/>
  <linearGradient id="ap" x1="63.571" x2="72.821" y1="92.85" y2="106.04" gradientUnits="userSpaceOnUse" xlink:href="#e"/>
  <linearGradient id="ao" x1="115.7" x2="121.76" y1="68.288" y2="79.475" gradientUnits="userSpaceOnUse" xlink:href="#c"/>
  <linearGradient id="an" x1="121.63" x2="123.07" gradientUnits="userSpaceOnUse" xlink:href="#c"/>
  <linearGradient id="am" x1="87.696" x2="91.321" y1="87.225" y2="63.913" gradientUnits="userSpaceOnUse" xlink:href="#e"/>
  <linearGradient id="al" x1="74.446" x2="78.759" y1="90.475" y2="102.79" gradientUnits="userSpaceOnUse" xlink:href="#e"/>
  <linearGradient id="ak" x1="87.384" x2="110.82" y1="97.35" y2="74.85" gradientUnits="userSpaceOnUse" xlink:href="#e"/>
  <linearGradient id="aj" x1="84.159" x2="84.513" y1="80.071" y2="80.292" gradientUnits="userSpaceOnUse" xlink:href="#c"/>
  <linearGradient id="ai" x1="93.926" x2="96.269" y1="91.561" y2="98.676" gradientUnits="userSpaceOnUse" xlink:href="#c"/>
  <linearGradient id="ah" x1="104.62" x2="105.24" y1="82.59" y2="83.982" gradientUnits="userSpaceOnUse" xlink:href="#c"/>
  <linearGradient id="ag" x1="109.44" x2="110.32" y1="93.196" y2="94.743" gradientUnits="userSpaceOnUse" xlink:href="#c"/>
  <linearGradient id="af" x1="97.506" x2="97.749" y1="97.085" y2="96.423" gradientUnits="userSpaceOnUse" xlink:href="#c"/>
  <linearGradient id="ae" x1="95.694" x2="96.578" y1="93.196" y2="93.307" gradientUnits="userSpaceOnUse" xlink:href="#c"/>
  <linearGradient id="ad" x1="112.44" x2="115.27" y1="84.777" y2="88.18" gradientUnits="userSpaceOnUse" xlink:href="#c"/>
  <linearGradient id="ac" x1="114.65" x2="115.8" gradientUnits="userSpaceOnUse" xlink:href="#c"/>
  <linearGradient id="aa" x1="103.13" x2="99.307" y1="90.104" y2="92.122" gradientUnits="userSpaceOnUse" xlink:href="#b"/>
  <linearGradient id="z" x1="108.2" x2="103.72" y1="86.761" y2="90.091" gradientUnits="userSpaceOnUse" xlink:href="#b"/>
  <linearGradient id="y" x1="101.08" x2="99.464" y1="77.515" y2="80.042" gradientUnits="userSpaceOnUse" xlink:href="#b"/>
  <linearGradient id="x" x1="98.869" x2="102.47" y1="83.848" y2="82.004" gradientUnits="userSpaceOnUse" xlink:href="#d"/>
  <linearGradient id="w" x1="111.83" x2="108.32" y1="83.372" y2="85.542" gradientUnits="userSpaceOnUse" xlink:href="#b"/>
  <linearGradient id="v" x1="103.36" x2="107.08" y1="78.481" y2="76.579" gradientUnits="userSpaceOnUse" xlink:href="#d"/>
  <linearGradient id="u" x1="105.95" x2="104.82" y1="74.795" y2="76.668" gradientUnits="userSpaceOnUse" xlink:href="#b"/>
  <linearGradient id="t" x1="102.82" x2="104.67" y1="75.612" y2="74.839" gradientUnits="userSpaceOnUse" xlink:href="#d"/>
  <linearGradient id="s" x1="110.19" x2="110.72" y1="76.684" y2="77.777" gradientUnits="userSpaceOnUse" xlink:href="#b"/>
  <linearGradient id="r" x1="116.98" x2="113.68" y1="82.19" y2="84.098" gradientUnits="userSpaceOnUse" xlink:href="#b"/>
  <linearGradient id="q" x1="111.54" x2="110.78" y1="72.729" y2="75.432" gradientUnits="userSpaceOnUse" xlink:href="#b"/>
  <linearGradient id="p" x1="81.524" x2="86.056" y1="74.816" y2="82.846" gradientUnits="userSpaceOnUse" xlink:href="#b"/>
  <linearGradient id="o" x1="87.129" x2="86.851" y1="85.112" y2="83.522" gradientUnits="userSpaceOnUse" xlink:href="#b"/>
  <linearGradient id="n" x1="84.227" x2="88.64" y1="90.24" y2="85.072" gradientUnits="userSpaceOnUse" xlink:href="#b"/>
  <linearGradient id="m" x1="78.662" x2="84.068" y1="80.441" y2="87.477" gradientUnits="userSpaceOnUse" xlink:href="#b"/>
  <linearGradient id="l" x1="55.884" x2="50.634" y1="118.29" y2="106.48" gradientUnits="userSpaceOnUse" xlink:href="#b"/>
  <linearGradient id="k" x1="44.915" x2="48.79" y1="93.494" y2="98.932" gradientUnits="userSpaceOnUse" xlink:href="#d"/>
  <linearGradient id="j" x1="43.884" x2="42.353" y1="100.66" y2="93.053" gradientUnits="userSpaceOnUse" xlink:href="#b"/>
  <linearGradient id="i" x1="47.728" x2="42.853" y1="114.44" y2="108.69" gradientUnits="userSpaceOnUse" xlink:href="#b"/>
  <linearGradient id="h" x1="38.946" x2="42.165" y1="108.33" y2="106.93" gradientUnits="userSpaceOnUse" xlink:href="#d"/>
  <linearGradient id="g" x1="42.321" x2="37.353" y1="111.88" y2="102.73" gradientUnits="userSpaceOnUse" xlink:href="#b"/>
 </defs>
 <path d="m48.259 110.7-15.568-2.0757 0.69189-6.746-17.124-2.9405-11.589-8.3027-2.9405-47.568 9.1676-1.9027 8.8216 25.6 35.805 10.032-7.2649 33.903z" fill-opacity=".66667" fill-rule="evenodd" filter="url(#cy)"/>
 <path d="m57.518 117.71 64.959-31.037-27.281-21.485-58.464 16.39 20.787 36.132z" fill="url(#ab)" fill-rule="evenodd"/>
 <path d="m23.611 32.519 2.0757-1.0378 10.205-3.7189 0.60541 7.7838 0.34595 7.4378-12.627 3.4595-0.25946 0.60541-0.08649 1.9027 5.3622 4.4973 6.054 5.5351v5.7946l-0.34595 11.503 0.51892 1.5568-0.34595 1.9892-0.08649 10.032 0.17297 1.2973-0.25946 2.0757-0.08649 1.4703-0.86486 3.4595-0.25946 2.4216-0.17297 1.8162-8.1297 3.2-0.6054-0.77838-0.60541-21.708-0.34595-10.551-0.25946-6.4 0.08649-12.627 0.34595-1.0378-0.25946-1.4703 0.34595-16.346-0.43243-1.0378-0.08649-1.1243z" fill="url(#az)" fill-rule="evenodd"/>
 <path d="m10.551 20.151 4.7568 4.4108 3.8919 3.9784 4.4973 3.7189 0.25946 7.5243-0.25946 16.259v12.627l0.25946 9.6865 1.0378 26.724-6.227-4.4973-9.1676-7.0054-4.1514-4.2378 0.60541-18.595-0.43243-3.8919 0.51892-2.9405 0.17297-5.9676 1.8162-16.692-0.17297-1.2973-0.08649-2.1622 1.2108-4.7568 0.60541-7.7838-0.25946-1.2108 0.69189-1.7297 0.43243-2.1622z" fill="url(#ba)" fill-rule="evenodd"/>
 <path d="m10.551 20.151 4.7568 4.4108 3.8919 3.9784 4.4973 3.7189 0.25946 7.5243-0.25946 16.259v12.627l0.25946 9.6865 1.0378 26.724-6.227-4.4973-9.1676-7.0054-4.1514-4.2378 0.60541-18.595-0.43243-3.8919 0.51892-2.9405 0.17297-5.9676 1.8162-16.692-0.17297-1.2973-0.08649-2.1622 1.2108-4.7568 0.60541-7.7838-0.25946-1.2108 0.69189-1.7297 0.43243-2.1622z" fill-opacity=".15686" fill-rule="evenodd"/>
 <path d="m5.60349,88.85888 1.40657-.79502 1.46772-.18347 1.7735.73386 .61155.67271 .79502,1.83466 .12231,1.2231-.36693,2.20159-.42809.12231-5.38166-5.80974z" fill="url(#bb)" fill-rule="evenodd"/>
 <path d="m14.777 92.65 1.5289 0.48924 3.0578 1.59 1.59 1.7735 0.48924 1.4677-1.3454 1.1008s-0.97848-0.06115-1.59-0.24462-3.1189-1.5289-3.1189-1.5289l-1.59-1.0396-0.5504-0.85617-0.30578-1.2843 0.67271-1.2231 1.162-0.24462z" fill="url(#bc)" fill-rule="evenodd"/>
 <path d="m20.587 101.76 0.85617-0.67271 0.67271-0.30577 1.1008 0.48924 0.61155 1.4066 0.36693 1.6512-2.0793-1.1008-1.5289-1.4677z" fill="url(#bd)" fill-rule="evenodd"/>
 <path d="m33.73488,99.13295-1.34541-.67271-1.2231.42809-.85617.85617-.24462.97848 .24462.85617 1.10079,1.40657 2.26274-.91732 .06115-2.93546z" fill="url(#be)" fill-rule="evenodd"/>
 <path d="m27.68051,97.2983 .73386,1.40657 .30578,1.10079v1.71235 1.34541l-.5504.85618-.85617.36693-.97848-.18347-.42809-.61155v-1.46773l-.12231-1.7735-.24462-2.14043 .5504-.73386 .5504-.18347 1.03964.30578z" fill="url(#bf)" fill-rule="evenodd"/>
 <path d="m24.62275,90.99931 1.40657-.24462 1.40657.06115 .97848.30578 .36693,1.2231-.36693,2.44621-.61155.42809-3.42469.24462-1.65119-.24462-1.03964-.61155-1.16195-2.26274 .12231-1.89581 1.40657-.06115 1.7735.30577 .79502.30578z" fill="url(#bg)" fill-rule="evenodd"/>
 <path d="m33.4291,94.24054-2.69083.18346-.97848.48924-.61155,1.03964-.18347.79502 .36693.48924 .85617.30578 1.7735-.5504 .97848.06115 .73386-.67271 .42809-.97848-.67271-1.16195z" fill="url(#bh)" fill-rule="evenodd"/>
 <path d="m35.08029,89.1035-2.38505.5504-1.83466.73386-.30578.85617 .18347.73386 .85617.61155 1.65119.06115 1.83466-.24462c0,0 .24462-.97848.18346-1.2231s-.18346-1.89581-.18346-2.07928z" fill="url(#bi)" fill-rule="evenodd"/>
 <path d="m24.98968,86.47383 .67271-.85617 2.81314-.73386h2.01812l1.34541.18347 .30578.42809 .24462.36693 .18347.91733-.30578,1.28426-.48924.91733-3.05776.24462-1.03964-.06115-1.89581-.85617-.67271-.97848-.12231-.85617z" fill="url(#bj)" fill-rule="evenodd"/>
 <path d="m24.25582,79.74676 .61155-.30578 1.83465-.12231 1.59004.24462 1.28426.30578 1.10079.36693 .67271.91733-.91733,1.34541c0,0-1.46772.91733-1.7735.67271s-4.34202-.18346-4.34202-.18346l-.91733-.12231-.91733-.36693-1.16195-.91733-1.71234-1.10079v-.61155l.42809-1.34541 .73386-.30578 .67271-.06115 1.52888.5504 1.28426,1.03964z" fill="url(#bk)" fill-rule="evenodd"/>
 <path d="m23.76658,85.5565-1.52888.97848-1.83466.73386v.42809l-.73386,1.46772-1.71234,1.34541-.79502-.5504-.73386-.97848-.48924-1.52888 .18347-2.14043 .73386-1.59004c0,0 .30577-.67271 1.10079-.73386 .71108-.0547 1.03964.06115 1.03964.06115l2.9966.5504 .73386.30578 .67271.48924 .36693,1.16195z" fill="url(#bl)" fill-rule="evenodd"/>
 <path d="m14.899 87.452-0.12231-1.4677-1.0396-1.957-0.48924-1.2843-1.7124-0.97848-2.5685-0.48924-0.91733-0.12231-0.85617 1.7735-0.12231 1.1008 0.79502 1.8958 1.59 1.2231 1.59 0.61155 1.7124 0.42809 0.97848 0.12231 1.162-0.85617z" fill="url(#bm)" fill-rule="evenodd"/>
 <path d="m7.13237,74.2428-.42809,1.03964v1.89581l.42809.78452 .73386.43858 1.34541.30578 1.28426.18347 1.46772.24462 1.2231-.24462 .85617-.36693 .30578-1.03964-.36693-1.40657-1.52888-.91733-3.08309-.84875-2.23741-.06857z" fill="url(#bn)" fill-rule="evenodd"/>
 <path d="m17.77337,77.72864-1.16195.12231-.97848.97848-.06116,1.83466 .42809.5504 .48924.18347 1.03964-.36693 .91733-1.65119-.67271-1.65119z" fill="url(#bo)" fill-rule="evenodd"/>
 <path d="m22.11539,66.78186 .48924.85617 .42809,1.65119 .06115,2.44621 .12231,1.10079 .06116,1.65119-.06116,1.03964-.61155.85617-.79502.42809c-.47257.21127-.79656.1254-1.16195.12231l-.48924-.42809-.42809-.4744-.30578-1.11563 .36693-1.16195 .67271-1.7735-.18347-2.38505-.18347-1.40657 .18347-1.28426 .42809-.30578 1.40657.18347z" fill="url(#bp)" fill-rule="evenodd"/>
 <path d="m34.8973,76.28108-2.29189.04324-.9946.47568-.56216.9946 .69189,1.12432 1.03784.56216 1.94595.38919 .77838-1.03784-.08649-1.55676-.51892-.9946z" fill="url(#bq)" fill-rule="evenodd"/>
 <path d="m25.38378,74.63784 .90811.04324 .9946.21622 .86486.73514 .17297.47567-.17297.47568-.56216.86487-.99459.56216-1.08108.21622-.56216-.56216-.34595-.51892-.08649-1.2973 .34595-.69189 .51892-.51892z" fill="url(#br)" fill-rule="evenodd"/>
 <path d="m28.8,74.76757 .86486.25946 1.72973-.04324 1.77297-.25946 1.2973-1.16757-.21622-1.6-2.07568-.64865-2.03243.04324-1.21081,1.25406-.34595,1.21081 .21622.95135z" fill="url(#bs)" fill-rule="evenodd"/>
 <path d="m24.69189,67.93514 2.63784-.64865 1.85946-.21622 1.25405-.08649 1.08108.43243 .21622.77838-.43243.69189-1.38378.56216-1.72973.17297-.60541.56216-1.03784.08649-1.25405-.38919-.73514-.90811-.08649-.38919 .21622-.64865z" fill="url(#bt)" fill-rule="evenodd"/>
 <path d="m34.98378,63.3946-1.94595-.86487-2.68108.6054-1.16757.47568c0,0-.56216.51892-.6054.64865s0,.82162 0,.82162l.51892.56216 .90811.3027 1.55676-.43243 1.25405-.34595 .69189.43243 1.34054-.04324 .43243-.17297 .04324-1.21081-.34595-.77838z" fill="url(#bu)" fill-rule="evenodd"/>
 <path d="m29.83784,58.16216-1.16757.86486-1.38378,1.12432-1.9027-.25946-.43243.08649-.3027.86487 .12973.90811c0,0 .47567.51892.73513.51892s1.55676-.17297 1.55676-.17297l2.37838-.64865 1.85946-.73513 .69189-1.08108-.25946-.64865-.77838-.47568-1.12432-.34595z" fill="url(#bv)" fill-rule="evenodd"/>
 <path d="m30.14054,54.4-1.12432.17297-1.21081.56216-.34595.77838-.12973.82162 .17297.77838 .51892.08649 .6054-.04324 1.51351-.69189 .86487-.25946 1.08108.43243 .77838.43243 .51892-.08649-3.24324-2.98378z" fill="url(#bw)" fill-rule="evenodd"/>
 <path d="m26.5946,51.37297-.95135-.3027-1.68649.38919-1.25405-.99459-1.47027-.34595-1.03784.21622-.12973.51892 .12973,1.16757 .3027.34595c0,0 .69189.43243 1.03784.60541s1.85946.56216 1.85946.56216l.47568-.08649h1.6l.56216-.12973 .69189-.86487 .3027-.51892-.43243-.56216z" fill="url(#bx)" fill-rule="evenodd"/>
 <path d="m6.35676,64 1.03784.08649 1.21081.82162 .73514.82162-.21622.99459-.17297,1.34054c0,0 .08649.9946.17297,1.25405l.47568,1.42703-.95135.69189-1.12432-.21622-1.34054-.17297-.38919-3.32973 .04324-2.42162c0,0 .17297-1.25405.51892-1.2973z" fill="url(#by)" fill-rule="evenodd"/>
 <path d="m11.373 70.573 0.64865-0.17297 2.9405 1.1676 2.4649 1.2108 0.12973 1.3838-0.25946 0.90811-1.427 0.60541-1.1676-0.25946-2.7676-1.6432-1.4703-1.773-0.17297-0.47568 0.51892-0.73513 0.56216-0.21622z" fill="url(#bz)" fill-rule="evenodd"/>
 <path d="m13.62162,65.72973 .69189.04324 1.51351.69189 1.21081.21622 1.21081.47568 .43243.25946 .17297,1.34054v1.98919l-.3027.73513-1.51351-.51892-1.77297-.69189-2.16216-1.34054-.43243-.47568-.38919-.64865-.21622-.86487 .47568-.99459 .47568-.21622h.60541z" fill="url(#ca)" fill-rule="evenodd"/>
 <path d="m18.42162,60.32432-2.20541.64865-1.42703.69189-.08649,1.16757 .51892.77838 .86487.56216 .99459.21622c0,0 1.42703.3027 1.72973.3027s2.63784-.08649 2.63784-.08649l.64865-.17297 .99459-.82162v-.60541c-.11876-1.26157-.78484-1.42852-1.34054-1.81622 0,0-2.33514-1.12432-3.32973-.86487z" fill="url(#cb)" fill-rule="evenodd"/>
 <path d="m12.54054,61.75135-1.38378-1.64324-1.08108-.77838-.77838-.56216-.77838-.82162-1.47027.43243-.12973.9946 .12973,1.16757 .64865.95135 .69189.56216 1.42703.64865 1.21081.21622c.10656.10656 1.52674-.33273 1.38378-.77838-.07113-.22174.12973-.3027.12973-.38919z" fill="url(#cc)" fill-rule="evenodd"/>
 <path d="m17.03784,53.96757 .9946-.12973 1.42703-.04324 1.42703.64865 1.2973.95135 .51892.77838 .08649.43243-.56216,1.21081-1.16757.95135c0,0-1.42703.47568-1.85946.34595s-1.64324-.51892-1.64324-.51892l-.9946-1.08108-.3027-.95135-.08649-1.34054 .17297-.64865 .69189-.6054z" fill="url(#cd)" fill-rule="evenodd"/>
 <path d="m9.72973,50.94054 .99459.12973 1.77297.56216 1.03784.77838 .51892.82162 .43243,1.12432 .12973,1.34054-.99459.64865-.95135.38919h-1.34054l-1.03784-.43243-2.29189-2.20541-.43243-1.38378 .34595-1.08108 .99459-.51892 .82162-.17297z" fill="url(#ce)" fill-rule="evenodd"/>
 <path d="m11.58919,42.33514-1.34054,1.08108-.69189.9946-.82162,1.12432-.25946,1.21081 .08649,1.08108 .69189.99459 .56216.38919 1.34054.34595 1.42703-.47568 .90811-.86486 .21622-.47568-.34595-2.16216-.51892-1.51351-.25946-.56216c0,0-.12973-.69189-.9946-1.16757z" fill="url(#cf)" fill-rule="evenodd"/>
 <path d="m14.31351,46.65946 1.12432-.64865 1.51351.21622 1.16757-.04324 1.9027.12973 1.51351.25946 .90811.43243 .34595,1.42703-1.51351.51892-1.34054.17297-1.68649.04324-1.77297-.17297-1.42703-.60541-.60541-1.03784-.12973-.69189z" fill="url(#cg)" fill-rule="evenodd"/>
 <path d="m9.12432,32.6054 .69189.12973 .99459.17297 .38919.47568-.21622,1.38378-.3027,1.08108-.34595,1.08108-.12973,1.55676v1.38378l-.43243.9946c0,0-.43243.51892-.60541.51892h-1.08108l-.25946-2.07568 .60541-2.94054 .43243-3.24324 .25946-.51892z" fill="url(#ch)" fill-rule="evenodd"/>
 <path d="m12.23784,34.33514 1.34054-.12973 1.03784.04324 1.2973.25946 1.77297.64865 .3027.17297 .64865.95135 .17297,1.68649-.17297.43243-2.72432.3027-1.72973-.17297-.69189-.17297-1.12432-.69189-.64865-1.21081v-.86487l.51892-1.25405z" fill="url(#ci)" fill-rule="evenodd"/>
 <path d="m13.83784,40.3027 .86486-.47568 1.21081-.12973 1.12432.3027 .86486.6054 1.12432.90811 .60541.3027 1.25405.43243 .99459.6054 .08649.73513 .04324.34595-.60541.51892c0,0-.90811.38919-1.08108.34595s-3.28649-.90811-3.28649-.90811l-2.46487-1.16757c0,0-.82162-.82162-.90811-1.47027s.17297-.86486.17297-.95135z" fill="url(#cj)" fill-rule="evenodd"/>
 <path d="m10.20541,21.83784 .73514.47568 .64865.86486 .12973.77838-.12973.69189-.38919.51892-1.2973.25946-.43243-1.38378 .73513-2.2054z" fill="url(#ck)" fill-rule="evenodd"/>
 <path d="m10.81081,28.06487-.56216.69189-.25946.90811-.12973.82162 .38919.86486 .56216.56216 1.08108.04324 1.16757-.08649h.73513l.82162.12973 .77838.04324 .47567-.17297 .34595-.43243-.73514-.77838-1.2973-.82162-1.03784-.43243c0,0-1.03784-.90811-1.38378-1.08108s-.82162-.17297-.95135-.25946z" fill="url(#cl)" fill-rule="evenodd"/>
 <path d="m23.611 32.519-12.8-12.368 10.984-2.6811 13.924 9.8595-12.108 5.1892z" fill="url(#ay)" fill-rule="evenodd"/>
 <path d="m13.708 22.832-0.34595 1.0811 0.08649 1.946 0.51892 1.6865 0.86486 1.4703 0.64865 0.25946 1.8162 0.73513 1.4703-0.17297 0.51892-0.3027 0.34595-1.8162-1.1676-2.2054-1.1676-1.1676-1.9027-0.64865-1.6865-0.86486z" fill="url(#cm)" fill-rule="evenodd"/>
 <path d="m13.449 19.546 2.2486-1.0378 2.1622-0.3027 1.8595 0.08649-0.56216 0.86486-1.6 1.6-1.1243-0.12973-1.5568 0.12973-1.254-0.69189-0.17297-0.51892z" fill="url(#cn)" fill-rule="evenodd"/>
 <path d="m16.346 22.141 5.7946-1.3838 0.08649 6.746-5.8811-5.3622z" fill="url(#ax)" fill-rule="evenodd"/>
 <path d="m16.346 22.141 5.7946-1.3838 0.08649 6.746-5.8811-5.3622z" fill-opacity=".15686" fill-rule="evenodd"/>
 <path d="m17.68649,22.91892 1.21081-.12973 .99459.12973 1.38378.43243 .3027.73514-.43243.43243-1.9027.08649-1.55676-1.68649z" fill="url(#co)" fill-rule="evenodd"/>
 <path d="m25.081 20.238 0.60541 1.5135 0.82162 1.3838 1.773 1.1676 1.4703 0.17297 1.6865 0.21622s-0.3027-0.82162-0.73513-0.9946-1.9892-1.5568-1.9892-1.5568l-3.6324-1.9027z" fill="url(#cp)" fill-rule="evenodd"/>
 <path d="m21.881 20.497 0.08649 6.8324 2.2486 2.0757 7.7838-2.2486-10.119-6.6595z" fill="url(#aw)" fill-rule="evenodd"/>
 <path d="m21.881 20.497 0.08649 6.8324 2.2486 2.0757 7.7838-2.2486-10.119-6.6595z" fill-opacity=".15686" fill-rule="evenodd"/>
 <path d="m24.90811,22.57297-1.34054.08649-.69189.73513-.25946.99459 .47568,1.47027 .77838.21622 .99459.38919 .95135.04324 1.08108-.51892 1.38378-1.34054-3.37297-2.07568z" fill="url(#cq)" fill-rule="evenodd"/>
 <path d="m28.973 27.719-1.1243-0.51892-0.86487 0.3027-0.56216 1.3838 2.5514-1.1676z" fill="url(#cr)" fill-rule="evenodd"/>
 <path d="m26.42162,31.04865-.64865-.69189-.82162.04324-.90811.69189-.25946.99459-.12973,1.21081 .25946.86487 1.2973.56216 .64865-.04324 1.12432-.51892 .3027-1.77297-.86487-1.34054z" fill="url(#cs)" fill-rule="evenodd"/>
 <path d="m34.378 29.968-1.254 0.17297-1.773 0.77838-1.6432 1.1676-0.95135 1.3838-0.12973 0.77838s-0.04324 0.12973 0.38919 0.43243 1.6432 0.12973 1.6432 0.12973l1.946-0.21622 1.3405-0.56216 1.0378-1.254 0.21622-0.86486-0.82162-1.946z" fill="url(#ct)" fill-rule="evenodd"/>
 <path d="m20.92973,31.91351 .86487.47568 .77838.60541 .51892.90811 .04324.56216-.38919,1.47027-.38919,1.77297-.08649,1.6-.25946,1.34054-.51892.3027-.77838-.34595-.56216-.64865-.12973-.77838v-.60541l.34595-.95135-.3027-2.20541-.12973-1.9027c0,0 .64865-1.51351.9946-1.6z" fill="url(#cu)" fill-rule="evenodd"/>
 <path d="m36.23784,35.71892-1.16757.12973-.90811.51892-.69189,1.03784-.08649.90811 .47568.86486 .82162.47568 .82162.34595 1.03784.17297 .3027-1.64324c0,0-.25946-2.68108-.6054-2.81081z" fill="url(#cv)" fill-rule="evenodd"/>
 <path d="m29.362 45.189 0.47568-0.86487 1.1676-1.5135 1.8162-1.1676 0.56216 0.04324 1.2108 0.73513 1.1243 0.90811-6.3568 1.8595z" fill="url(#cw)" fill-rule="evenodd"/>
 <path d="m28.15135,36.92973h.99459l1.34054.47568 .47567,1.25406-.08649.73513c0,0 .04324.34595-.04324.51892s-.77838,1.34054-1.16757,1.2973-1.64324.47568-1.64324.47568l-1.77297-.04324-.9946-.77838-.34595-1.38378 .38919-1.38378 .82162-.64865c0,0 1.72973-.56216 2.03243-.51892z" fill="url(#cx)" fill-rule="evenodd"/>
 <path d="m75.29 5.3816-45.438 17.406 0.53125 0.90625 5.6562 3.7812 1.1562 15.562-13.094 3.875 41.438 38.375 61.812-29.875-52.062-50.031zm-66.141 25.364-2.2027 0.63572 1.9375 1.5625 0.26516-2.1982z" fill="url(#av)" fill-rule="evenodd"/>
 <path d="m6.9463 31.538-0.15625 1.5 1.75 1.7812 0.28125-1.6875-1.875-1.5938zm17.344 15.375-0.53125 0.09375-0.1875 1.4062 41.906 38.188v-1.5l-41.188-38.188z" fill="url(#au)" fill-rule="evenodd"/>
 <path d="m6.9463 31.538-0.15625 1.5 1.75 1.7812 0.28125-1.6875-1.875-1.5938zm17.344 15.375-0.53125 0.09375-0.1875 1.4062 41.906 38.188v-1.5l-41.188-38.188z" fill-opacity=".15686" fill-rule="evenodd"/>
 <path d="m65.289 85.197 55.066-26.34 6.9827-3.3588 0.08838 1.149-30.229 14.849-31.555 15.203-0.35355-1.5026z" fill="url(#at)" fill-rule="evenodd"/>
 <path d="m35.00878,59.03784 22.3125,20.125-.5,38.4375-4.875-3.875 .8125-1.25 1.4375-2.5625 .9375-4.1875 .4375-6.0625-1.625-.5c-1.06721.02826-2.03684-.52894-2.9375-1.5l-1.1875,1.6875h-.5l.25-6.4375-1.6875-.5625-3-1.375-2.375-2.3125-.6875-.75-2,7.5625-2.1875-2.5625-1.25-1.8125-1.0625,2.75-.3125-.4375 .125-1.1875v-6.4375l-.1875-5.75 .5625-1.3125-.5-3.5625 .3125-10.1875-.0625-1.9375-.25-4z" fill="url(#as)" fill-rule="evenodd"/>
 <path d="m35.00878,59.03784 22.3125,20.125-.5,38.4375-4.875-3.875 .8125-1.25 1.4375-2.5625 .9375-4.1875 .4375-6.0625-1.625-.5c-1.06721.02826-2.03684-.52894-2.9375-1.5l-1.1875,1.6875h-.5l.25-6.4375-1.6875-.5625-3-1.375-2.375-2.3125-.6875-.75-2,7.5625-2.1875-2.5625-1.25-1.8125-1.0625,2.75-.3125-.4375 .125-1.1875v-6.4375l-.1875-5.75 .5625-1.3125-.5-3.5625 .3125-10.1875-.0625-1.9375-.25-4z" fill-opacity=".15686" fill-rule="evenodd"/>
 <path d="m57.32128,79.41284 1.5625,1.375-.3125,36.5625-1.4375.375-.5-.6875 .6875-37.625z" fill="url(#ar)" fill-rule="evenodd"/>
 <path d="m58.44628,83.35034 18.125,15 .25,1.1875-.5.8125-18.375-14.4375-.5-1.25 .0625-.8125 .9375-.5z" fill="url(#aq)" fill-rule="evenodd"/>
 <path d="m60.696 88.225 0.125 10.562 13.625 10.438 0.5625 0.625 0.875-0.5625-0.1875-9.5-1.375-1.125-13.625-10.438z" fill="url(#ap)" fill-rule="evenodd"/>
 <path d="m121.63 59.663-22.188 10.625 3 2.3125 7.875-3.4375 8.1875 5.0625 0.1875 10.625 3.0625 2.125-0.125-27.312z" fill="url(#ao)" fill-rule="evenodd"/>
 <path d="m121.63 59.663-22.188 10.625 3 2.3125 7.875-3.4375 8.1875 5.0625 0.1875 10.625 3.0625 2.125-0.125-27.312z" fill-opacity=".15686" fill-rule="evenodd"/>
 <path d="m121.63 59.6 0.25 27.25 1.1875-1.0625-0.1875-26.812-1.25 0.625z" fill="url(#an)" fill-rule="evenodd"/>
 <path d="m72.384 85.663 37.938-16.438 8.125 5.1875-38.812 17.125-7.25-5.875z" fill="url(#am)" fill-rule="evenodd"/>
 <path d="m72.196 85.788 7.4375 5.8125-0.1875 11.875-3-2.6875 0.5-1.875-5.0625-4.4375 0.3125-8.6875z" fill="url(#al)" fill-rule="evenodd"/>
 <path d="m79.571 91.538 39.125-17.125-0.1875 10.75-39.062 18.188 0.125-11.812z" fill="url(#ak)" fill-rule="evenodd"/>
 <path d="m72.196 85.788 7.4375 5.8125-0.1875 11.875-3-2.6875 0.5-1.875-5.0625-4.4375 0.3125-8.6875z" fill-opacity=".15686" fill-rule="evenodd"/>
 <path d="m88.134 75.913-2.4688 1.25-3.1875 4.5 1.9375 0.40625 3.7188-6.1562zm-6.3125 8.7188-1.4062 0.09375-1.4688 2.8125 0.40625 0.65625 0.6875 0.09375 1.6562-0.25 1.1875-2.5312-1.0625-0.875z" fill="url(#aj)" fill-rule="evenodd"/>
 <path d="m78.98875,87.5837 .48614.66291 .88388.04419 1.37002-.13258-.39775-.7513-.92808-.44194-.61872.17678-.7955.44194z" fill-opacity=".15686" fill-rule="evenodd"/>
 <path d="m93.175 86.877c0 0.17678-0.30936 2.3865-0.30936 2.3865l0.04419 9.3692 5.3475 1.9445 2.4749-0.08839-1.8562-2.74-3.6681-0.92808 0.17678-6.7617-2.2097-3.182z" fill="url(#ai)" fill-rule="evenodd"/>
 <path d="m93.308 86.965 15.777-6.9385 5.4359-2.2981 0.97227 2.4307-20.02 10.076-2.1655-3.2704z" fill="url(#ah)" fill-rule="evenodd"/>
 <path d="m98.832 97.925 20.374-10.076 1.6352 2.4749-19.976 10.12-2.0329-2.5191z" fill="url(#ag)" fill-rule="evenodd"/>
 <path d="m95.429 96.909 1.6352-0.97227 3.0052 1.3258-1.4584 0.70711-3.182-1.0607z" fill="url(#af)" fill-rule="evenodd"/>
 <path d="m95.385 90.014c0 0.17678-0.17678 7.0269-0.17678 7.0269l1.6794-1.0165-0.22097-6.4524-1.2816 0.7513v0.04419" fill="url(#ae)" fill-rule="evenodd"/>
 <path d="m112.49 81.794c0 0.61872-0.04419 5.7894-0.04419 5.7894l3.8891 1.5468 2.74-1.0607-3.9775-1.812-0.48614-2.961 0.08839-2.8726-2.2097 1.37z" fill="url(#ad)" fill-rule="evenodd"/>
 <path d="m114.65 80.689 0.17677 5.701 0.97228-1.1048-0.30936-4.9056-0.83969 0.30936z" fill="url(#ac)" fill-rule="evenodd"/>
 <path d="m93.175 86.877c0 0.17678-0.30936 2.3865-0.30936 2.3865l0.04419 9.3692 5.3475 1.9445 2.4749-0.08839-1.8562-2.74-3.6681-0.92808 0.17678-6.7617-2.2097-3.182z" fill-opacity=".15686" fill-rule="evenodd"/>
 <path d="m112.49 81.794c0 0.61872-0.04419 5.7894-0.04419 5.7894l3.8891 1.5468 2.74-1.0607-3.9775-1.812-0.48614-2.961 0.08839-2.8726-2.2097 1.37z" fill-opacity=".15686" fill-rule="evenodd"/>
 <path d="m97.48915,87.08538-.5504-.73386 .12231-.88675 .67271.24462 .51982,1.07022 .09173.21404 2.17101-.33635-1.4983,1.00906 4.64779,9.99887 .15289,2.01812-1.55946-1.28426-4.95356-10.02945-1.40657.30577 .67271-.61155 .97848-.73386-.06115-.24462z" fill="url(#aa)" fill-rule="evenodd"/>
 <path d="m99.91 83.848 1.1298-0.56488 1.2189-0.38649 0.74326 1.3973 1.7244 2.8541 1.4865 2.4676 0.53515 1.1298 0.86218 2.0514 0.5946 2.2298-0.20811 2.7946-2.2892-1.5162-1.6352-2.319-0.86218-1.873-1.6352-4.2812-1.1595-3.3298-0.50541-0.65407z" fill="url(#z)" fill-rule="evenodd"/>
 <path d="m99.25596,80.96393-1.36759-.26757c0,0-.41622-.11892-.23784-.56488s.6838-1.01083.6838-1.01083l1.24867-.59461 1.24867.11892v.38649l-.50542,1.21894-1.07028.71353z" fill="url(#y)" fill-rule="evenodd"/>
 <path d="m99.22622,80.90447 1.15948-.56488 .14865.86218 .71353.89191 2.49735-.53514 .56487,1.07029-1.84328.17838-1.99193.80272-1.21894.89191-.71353.83245-.26757-1.2784 1.42705-1.18921 .32703-.32703-.11892-.77299-.6838-.86218z" fill="url(#x)" fill-rule="evenodd"/>
 <path d="m104.04 78.586 1.0406-0.20811 1.2189-0.71353 6.9569 15.014 0.14865 2.7352-1.9919-1.8136-7.3731-15.014z" fill="url(#w)" fill-rule="evenodd"/>
 <path d="m101.6 78.021 3.4784-0.2973 2.3487-2.4082 0.68379 1.2487-1.546 0.9811-1.4271 0.86218-2.1703 0.62434-0.74326 0.05946-0.62434-1.0703z" fill="url(#v)" fill-rule="evenodd"/>
 <path d="m104.99 77.604-1.6946-1.7838 1.2784-0.62434 0.68379 2.319-0.26757 0.08919z" fill="url(#u)" fill-rule="evenodd"/>
 <path d="m103.26954,75.85032 1.12975-.56488 .26758-1.45678-.74326.89191-.2973.44595-1.3676.26757 1.01083.41622z" fill="url(#t)" fill-rule="evenodd"/>
 <path d="m107.64 78.314 2.2659-1.2323 1.0733-0.55653 2.2659-0.59628 0.55653 1.1131-5.7641 2.5839-0.39752-1.3118z" fill="url(#s)" fill-rule="evenodd"/>
 <path d="m109.79 78.831 1.5503-0.75529 0.79504-0.19876 4.7703 10.018 1.1528 2.1864-0.27827 2.7827-2.2261-1.6696-5.7641-12.363z" fill="url(#r)" fill-rule="evenodd"/>
 <path d="m109.87 76.923-0.67578-1.0733-1.1926-0.31802 0.63603-1.3516 2.0274-0.23851-0.55653 1.3118 0.67579 1.3913-0.91431 0.27826z" fill="url(#q)" fill-rule="evenodd"/>
 <path d="m78.265 83.044 1.8286-1.8684 5.9628 1.1926-1.1926 2.1466-6.5989-1.4708z" fill="url(#p)" fill-rule="evenodd"/>
 <path d="m85.102 84.277 0.9143-1.9081 5.0485 1.1926-0.67579 0.59628-5.287 0.11926z" fill="url(#o)" fill-rule="evenodd"/>
 <path d="m85.062 84.237 5.287-0.11926 0.71554-0.59628 0.55653 1.8286-1.1528 0.59628-5.4063 1.8684-0.11926-3.2994 0.11926-0.27827z" fill="url(#n)" fill-rule="evenodd"/>
 <path d="m78.185 83.243 6.7579 1.2721 0.15901 3.2994-2.9814-0.67579 0.67579-1.7094-1.0336-0.8348-1.2323 0.0795-0.87455 1.6696-1.5901-0.27827 0.11926-2.8224z" fill="url(#m)" fill-rule="evenodd"/>
 <path d="m78.185 83.243 6.7579 1.2721 0.15901 3.2994-2.9814-0.67579 0.67579-1.7094-1.0336-0.8348-1.2323 0.0795-0.87455 1.6696-1.5901-0.27827 0.11926-2.8224z" fill-opacity=".15686" fill-rule="evenodd"/>
 <path d="m46.384 99.35 1.5938 0.5 1.625-0.3125 1.4375-1.9062 1 0.9375 3.375 1.0625 0.15625 2.0625-0.46875 3.7188-0.625 3.4688-0.625 1.875-1.5938 2.75-3.4375 3.0312-2.625 0.96875-1.7188-3.9688-0.65625-4.3438s1.2812-5.3438 1.1875-5.6562 1.375-4.125 1.375-4.1875z" fill="url(#l)" fill-rule="evenodd"/>
 <path d="m44.759 90.882-0.1875 1.7812-1.2188 5.4062 0.59375 0.28125-1.25 2.5312-0.0625 0.90625s2.2812 1.625 2.2812 1.5 1.6562-3.9688 1.6562-3.9688l1.6875 0.5625 1-0.3125 0.34375-6.6875-3.0625-0.90625-1.7812-1.0938z" fill="url(#k)" fill-rule="evenodd"/>
 <path d="m39.915 95.257 2.0625-7.3125 1.4062 1.5938 1.4062 1.2812-0.25 1.1875-1.125 6.1562-2.1875-1.375-1.3125-1.5312z" fill="url(#j)" fill-rule="evenodd"/>
 <path d="m42.478 101.73-1.75 6.5938-1 4.9375 2 0.34375 2.4375-0.5625-0.21875-3.0312 0.46875-3.7812 0.65625-3-1.3438-0.875-1.25-0.625z" fill="url(#i)" fill-rule="evenodd"/>
 <path d="m42.478 101.79-1.625 5.9062-0.96875 5.5625-0.375-0.21875-0.71875-3.1875-0.40625-2.8125 1.0312-1.4375 1.6562-2.1875 1.3438-1.8125 0.0625 0.3125v-0.125z" fill="url(#h)" fill-rule="evenodd"/>
 <path d="m36.478 91.225 1.4375 2.0938 1.6562 2.0312 2.5938 2.125 1.7188 0.875-1.0938 2-1.5 2.8438-2.2812 3.0312-3 3.2188-1.2812 0.875-0.84375-3.4375-0.25-2.9375 0.03125-2.8125 0.40625-3.25s1-3.4062 1.1875-3.7188 1.2812-3 1.2188-2.9375z" fill="url(#g)" fill-rule="evenodd"/>
 <path d="m36.54 93.632 0.90625 1.0625 1.1562 1.5938 1.1562 1.3438 2 1.3125 0.625 0.25-1.5312 2.6562-1.8438 2.9375-2.8125 3.0312-0.9375 0.5625-0.59375-2.125-0.28125-3.8125s0.25-2.625 0.25-2.8125 0.59375-2.8438 0.59375-2.8438l1.3125-3.1562z" fill-opacity=".15686" fill-rule="evenodd"/>
 <path d="m75.10253,5.16284-45.625,17.40625-3.75-2.625-3.6875-2.5625v-.09375l-2.84375.625c-1.73732.2081-3.24655.18202-5.875,1.28125l-3.34375.71875-.1875,1.875c-.24753,1.05715-.75356,1.98917-.34375,3.375l-.53125,5.34375-2.3125.75-.04324,1.83142c-.02543.35848 1.85478,1.49164 1.80051,1.86554-.33634,2.31703-.91557,4.14727-.50726,6.17804l-1.65625,16.5625h-.0625l-.1875,6.03125c-.69291,2.94069-.19021,4.86816-.25,7.28125l-.25,7.65625-.34375,10.84375c5.56645,6.27618 12.96746,11.40576 20.375,16.53125v-.15625c2.04488-.75218 1.97243-.4891 7.9375-3.4375 .00609,2.56779.42488,5.19998 1.21875,8 1.19124-.51425 2.42527-1.58945 3.625-2.9375 .17213,1.94159.58405,3.87535 1.34375,5.8125 1.42996.67725 2.96456.51405 4.4375-.0625 .41435,1.43811 1.08587,2.88672 2,4.40625 2.57097-.52937 4.45351-1.7488 5.84375-3.375l5.15625,3.90625 1.6875-.59375 .34375-30.34375 1,.78125 .0625,10.875 14.75,11.28125 1.09375-.5625-.1875-8.84375 3.65625,3.03125 13.3125-6.21875v1.03125l5.5625,2.09375 2.40625-.09375 2.5625-1.28125 .5625.46875-.03125-.75 3.28125-1.6875 .9375.625 .09375-1.125 4.375-2.15625 .9375.875-.03125-1.4375 3.53125-1.8125 .875.5625 .09375-.9375 3.09375-1.625-1.8125-2.625-2.75-1.21875 2.3125-1.09375 3,1.8125 1.40625-1-.09375-27.03125 4.65625-2.3125-.125-1.5-52.5-50.21875zm-.1875.5625 51.84375,49.5625-61.125,29.5-40.96875-37.8125 12.75-3.84375-.15625-.375-1-15.5-5.96875-4.15625 44.625-17.375zm-1.75,3.90625-.40625.25 8.78125,9.59375-9,3.96875-6.28125-6.71875-.5.15625 6.375,6.75-13.09375,5.78125-5.03125-5.71875-.3125.25 4.96875,5.625-12.96875,5.71875-6.96875-7.90625h-.21875l7,8-1.5625.6875 .1875.34375 1.625-.71875 16.5,18.90625-5.375,2.8125-7.8125-8.375-.3125.09375 7.8125,8.4375-.71875.375v.28125l.90625-.46875 1.5,1.625 .21875-.25-1.4375-1.53125 5.40625-2.8125 8.75,10.0625-11.71875,6.90625-20.5625-21.28125 11.1875-6.09375-.4375-.28125-11,6.125-2.1875-2.25-.4375.15625 2.25,2.3125-1.53125.84375 .34375.1875 1.4375-.78125 20.65625,21.21875-1.46875.875 .15625.1875 1.5-.875 3.40625,3.53125 .09375-.34375-3.21875-3.34375 11.78125-6.8125 3.0625,3.5 .3125-.34375-3-3.375 4.96875-2.875 7.96875,8.84375 .21875-.15625-7.90625-8.84375 3.46875-2-.40625-.28125-3.34375,1.96875-3.21875-3.59375-.3125.15625 3.25,3.59375-4.90625,2.90625-8.84375-10 18.90625-9.84375-.25-.1875-18.8125,9.84375-16.625-18.84375 12.90625-5.75 8.875,10.03125 .3125-.25-8.78125-9.96875 13.0625-5.8125 10.375,10.96875-5.3125,2.78125-3.90625-4.15625-.40625.34375 3.875,4.03125-3.46875,1.8125 .34375.09375 3.28125-1.71875 3.65625,3.78125 .21875-.34375-3.4375-3.65625 5.3125-2.78125 8.875,9.375 .15625-.15625-8.75-9.375 5.5-2.90625-.25-.09375-5.40625,2.8125-10.28125-11 9-4 1.3125,1.4375 .15625-.34375-1.125-1.25 2.65625-1.1875-.03125-.25-2.8125,1.25-8.71875-9.6875zm-4.96875,2.6875-24.5,10.25-1.65625-1.6875-.5.25 1.65625,1.65625-1.25.53125 .375.5 1.34375-.5625 4.375,4.375 .34375-.25-4.25-4.34375 24.25-10.46875-.1875-.25zm-46.65625,5.8125 3.4375,2.34375c.37021.71569.60269,1.54301 1.03125,2.21875l-3.75-2.5-6.65625,1.875 8.53125,7.9375 8.5625-2.84375-4.09375-2.75c.68505.05765 1.79099.36274 2.625.40625h.03125l4,2.78125c-2.87947,1.05271-5.92809,2.28402-8.78125,3.25-.93242-.95977-1.37623-.96739-2.34375-.09375-.20958.20652-.39769.49699-.5.90625-.01489.05025-.01883.10585-.03125.15625l-3.84375-3.65625c.02175-.14578.0439-.28715.0625-.4375 .07441-.6014-.22365-1.13752-.5625-1.78125-.7928-.71517-1.09326-1.2391-2.03125-1.84375-.8259.07009-1.79269-.52274-2.6875-.9375l-.09375-.09375-2.78125-2.65625 1.78125-.40625c.86643,1.19924 2.41242.76416 3.9375.84375 1.2013-.56251 1.64997-1.25241 2.1875-2.28125l1.96875-.4375zm-3.59375.3125c.43426-.00312.86261.05 1.3125.125-.40956.94077-1.03758,1.68509-2.09375,1.84375-1.34102.47931-2.58536.10523-3.4375-.53125 1.30823-.93396 2.72588-1.42676 4.21875-1.4375zm-7.4375,1.96875 2.875,2.75c-.33303,2.35016.10376,4.20646 1.5,6.09375 1.58333.05208 2.45352,1.95834 4.75.15625-.00136-.08027.02703-.16756.03125-.25l3.8125,3.6875c-.01082.29859-.02157.60683-.03125.90625 .03881.08437.08365.14348.125.21875l-.0625,17.09375c-.65742-.73889-1.21194-.96175-2.21875-1.09375-1.70794.20863-1.52428.60503-1.09375,2.21875 .89202.83244 2.08846,1.21749 3.28125,1.4375l-.0625,17.5h.0625l.21875,7.8125c-.23367-.09004-.47633-.16855-.71875-.28125-.66211-.3821-1.24667-.60609-1.75-.625-.83888-.03151-1.45437.53136-1.84375,2.0625 .03468.8614 1.13281,1.01841 1.9375,1.65625 .93138.79583 1.49387,1.24981 2.5,1.25l.0625,2.625 .15625,5c-.63179-.16054-1.27869-.30468-2.09375-.3125-.37485-.0036-.78475.02201-1.25.09375-.69029,1.23999-.36732,2.00184.15625,3.21875 .84511,1.74955 1.77605,2.15479 3.3125,2l.25,8.25c-.0872-.02289-.16488-.06772-.25-.09375 .09865-1.709-.22397-2.64718-1.84375-3.1875-.09507-.01482-.19383-.01049-.28125,0-.53354.06401-.9303.52582-1.34375.875-3.64542-2.10177-6.64069-4.20741-9.28125-6.625 .36513-.36619.18019-.92993.40625-1.53125 .11895-1.80812-.05739-3.03231-1.0625-4.46875l-.03125-.0625c-.95387-.78176-1.80394-1.13952-2.65625-1.125-.64557.011-1.29395.2199-1.96875.65625l.21875-13.75 .0625-3.46875c1.13194.1093 1.91831,1.23942 3.34375-.375-1.1662-2.26924-.61054-3.30708-.25-4.9375-.88892-1.43333-1.57475-1.53515-2.96875-2.03125l.09375-5.65625h.03125l1.65625-16.6875c2.03992.34867 1.88782-.87711 2.125-2.875-.38492-1.95015 1.13369-3.59149.78125-5.46875-.32067-.55266-1.13509-.40589-1.90625-.6875l.6875-6.90625c1.20037-.01304 1.55917-.03701 1.78125-1.25 .26184-1.36509-.4582-1.67209-1.40625-2.4375l.15625-1.375zm13.375,65.21875c-.08401-1.25908-.80371-1.65677-1.84375-2.1875-1.31976-.31513-2.68423-.40735-4.03125-.5625-1.47436.00766-1.69515,1.02043-1.96875,2.28125-.52485,2.30034-.05815,3.90208 1.6875,5.4375 1.65084-.35303 2.2128-1.97673 2.9375-3.375 1.47982-.36849 2.30384-.9993 3.21875-1.59375zm1.53125-64.84375c1.48576.8427 3.68041,1.3524 5.375,3.65625-1.5709.1404-3.10544-.4776-4.4375-1.78125-.4185-.52419-.65553-1.2223-.9375-1.875zm-3.75.40625 .03125,2.5c-1.12914-1.26633-2.512-1.09379-4.0625-.875l-.5-.46875 4.53125-1.15625zm.65625.0625 1.875,1.21875c-1.23437.07472-1.43529.67795-1.6875,1.90625 .02549.53348.19413,1.055.40625,1.59375 1.63074.01738 2.63814,2.04331 5.21875-1l3.09375,1.96875-2.15625.6875c-.7089-.63837-1.04424-.54757-2.03125-.3125-.46006.41398-.63602.73182-.78125,1.21875l-1.78125.59375-2.15625-2v-5.875zm-11.96875.75c.75292.57782 1.26908,1.28804 1.25,2.1875-.08196,1.01393-.84887.86317-1.59375,1.03125l.03125-.25c-.60757-1.28772.15671-2.00819.3125-2.96875zm13.84375.71875c.13478-.00504.28725-.00584.4375.03125l.09375.03125 3,1.9375 .0625.09375c-.9974,1.70142-2.9736,1.8135-4.46875.96875-.51066-.42118-.42291-1.03831-.4375-1.34375-.00434-.9521.50384-1.68849 1.3125-1.71875zm-5.28125.28125c.90178-.01048 1.8567.17136 2.5.96875 .15317.52835-1.41723.48212-2,.46875l-1.46875-1.375c.30991-.03137.62054-.05845.96875-.0625zm-5.21875.4375c2.09592,1.15852 3.70177,3.48787 5.53125,5.3125-.01184.22198-.02262.41421-.03125.625-1.15152.89179-3.16612.06057-4.1875-.5-1.39353-1.48385-1.77776-3.91617-1.3125-5.4375zm1.125.0625c.81346.3803 1.74296.89539 2.34375,1.0625 .79112.34779 1.02907,1.02624 1.53125,1.71875 .18732.37404.68904.88871.625,1.40625-.0052.04204.0048.11086 0,.15625-1.97812-1.03771-3.12097-2.79254-4.5-4.34375zm6.90625.59375 .03125,2.5-2.0625-1.875c.70792-.12101 1.55034.25271 2.03125-.625zm6.03125,3.4375c.31651.01094.63136.11773.9375.21875l-1.875.625c.09416-.27619.28042-.52356.40625-.78125 .1842-.05082.35432-.06862.53125-.0625zm-16.8125.34375c-.4615-.03585-.52792.24598-1.09375,1.59375-.02877.84465-.20722,1.84983.8125,2.375 .82744.4167 1.78307.05978 2.71875.125 .93722-.1954 1.79751.73904 2.84375-.4375-.42132-1.45372-1.75832-1.39706-2.96875-2.15625-.64765-.2736-1.0046-1.2013-1.6875-1.375-.27607-.05471-.47117-.11305-.625-.125zm24.4375.21875 .5625,7.4375c-1.84094.35743-2.67883,1.06971-2.6875,2.8125 .59783,1.47337 1.65768,1.61062 3.0625,1.90625l.1875,2.25-1.125.34375c-.77211-.59433-1.54219-1.27056-2.4375-1.3125-1.84587.45358-2.52756,1.74167-3.5,3.21875l-5.3125,1.5625 .0625-11.59375c.76951.569 1.76201.30866 2.8125-.34375 .69925-1.49986.54248-1.82059-.09375-2.96875l8.46875-3.3125zm-24.34375.0625c.13047-.01629.25574-.00392.375.0625 .68224.18174 1.46978,1.10989 1.75,1.25v.03125h.03125c1.0129.42109 2.57976,1.26248 2.9375,2.03125-.53204.74354-2.14561.32469-2.71875.15625-.70625-.20757-1.81342.38264-2.5625,0-1.10584-.56488-.91507-1.65159-.75-2 .15025-1.03542.5461-1.48237.9375-1.53125zm23.25,1.59375c-2.10549.25352-3.48009,1.24528-5.15625,2.5-1.0365,2.2684-.76964,2.64953 1.78125,2.875 2.02657-.25319 3.44024-.90102 4.3125-2.6875 .21548-1.21262-.33482-1.96577-.9375-2.6875zm-.03125.3125c.34934.4106.82695,1.87817.6875,2.34375-.64534,1.70387-2.6029,2.26957-4.09375,2.21875-1.63542.05194-2.84276.14648-1.375-1.90625 .97942-1.2966 2.8152-2.51519 4.78125-2.65625zm-9.125.40625c.35341-.0772.63305.25634.90625.53125-.67675.34346-1.25704.96469-1.96875.9375-.0398-.05907-.09359-.10493-.125-.1875 .06453-.24438.48603-.70635.59375-.8125 .21657-.29023.41704-.43015.59375-.46875zm-16.19476.58429-.21149,1.25946-1.20642-.78851 1.41791-.47095zm17.63226.44696c.44761.78857.30887,1.76555.09375,2.59375-.86532.9849-2.40837.16673-2.875-.625l-.03125-.03125c.00712-.00999-.00694-.02143 0-.03125 .35783-.50593.49134-.77834.5-.96875 .58728-.39283 1.15203-.83126 2.3125-.9375zm-5.75.1875c-1.50305,1.62655-.79453,3.77734-.5625,5.84375-.83397,2.63375.06594,3.15569 1.3125,3.5 1.16564-.88033.7147-2.23663.96875-3.59375 .09721-1.16422.71875-2.22567.71875-3.28125-.34678-1.36267-1.29566-1.82908-2.4375-2.46875zm-13.78125.21875 1.5625,1.46875-.29324.90118-1.375-1.25726 .10574-1.11267zm13.9375.1875c1.05665.13519 1.86105,1.47534 2,2.15625 .00664,1.10382-.60417,2.22074-.6875,3.21875-.06965.8342-.11514,2.77632-.59375,3.375-1.67609-.03911-1.9232-2.18998-1.1875-3.25-.56554-2.49957-.55999-4.71279.46875-5.5zm-11.75.6875c.60171.02004 1.67978.14626 1.8125.375 .016,1.72626-1.04931,3.82737-.90625,5.625-.05627,1.81492-.41553,2.64822-1.8125,2.375-.47538-3.21106.63428-5.6361.90625-8.28125v-.09375zm4.40625,1.34375c-.49192.01176-.99311.07704-1.46875.25-1.40103,2.59862-.09898,3.77018 2.65625,4.46875 1.32249-.0304 2.32141.08634 3.875-.40625 .56845-1.51966.26413-2.02813-.6875-3.21875-1.39312-.56092-2.89925-1.12902-4.375-1.09375zm-.71875.1875c.22676-.01866.47676-.00718.71875,0 1.45194.04311 3.18405.56394 4.28125,1.0625 .7726.55169.7247,2.07369.625,2.90625-.77072.1706-2.34499.50078-3.625.25-2.54945.04695-3.71619-2.16703-2.625-4.09375 .19473-.05756.39824-.10634.625-.125zm89.25,1.03125-3.21875,1.875-1.6875-1.78125-.40625.15625 1.75,1.84375-4.6875,2.75 .1875.28125 4.75-2.78125 12.25,12.90625-12.71875,6.59375-3.15625-3.53125-.15625.21875 3.03125,3.4375-8.6875,4.53125-11.90625-12.46875h-.5l12.15625,12.59375-1.5625.8125 .25.1875 1.53125-.78125 1.375,1.4375 .21875-.15625-1.34375-1.40625 8.6875-4.5 2.71875,3.09375 .25-.21875-2.6875-3.03125 12.71875-6.59375 2.96875,3.125 .21875-.25-2.875-3.03125 3.46875-1.78125-.1875-.28125-3.5,1.8125-12.21875-12.9375 3.3125-1.9375-.34375-.1875zm-66.1875.4375c.44423,1.1943.68654,2.45463.34375,4.3125-1.19065-.19645-2.57576-1.12909-2.75-1.75-.00911-2.10409 1.3254-2.30263 2.40625-2.5625zm-7.5,1c-2.56795.34242-3.8093.97695-3.625,3.25 .25539,2.25088 1.96482,1.76434 4,1.625 1.08944-.32654 1.6081-1.11595 2.21875-2 .23685-2.30709-.81381-2.75587-2.59375-2.875zm.5625.28125c1.26134.07037 2.07223,1.15395 1.6875,2.34375 .13148.69636-.75138,1.77436-1.9375,1.8125-1.59451.85816-3.7135.27067-3.625-1.1875-.37961-2.32579 1.6821-3.07406 3.3125-2.9375 .19658-.03411.38231-.0413.5625-.03125zm-13.15625,2.375c-2.48279.44129-3.00858,1.20101-1.46875,3.28125 1.8086.94757 3.6481,1.77659 5.65625,2.1875h.03125 .03125c.89493-.01222 1.55134-.50149 2.09375-1.21875-.00312-1.59274-1.70417-1.70651-2.9375-2.0625-1.08318-1.01988-2.00855-1.93046-3.40625-2.1875zm-.65625.375c.21912-.00899.48452.0119.75.0625 1.17601-.02911 2.15921,1.14334 3.09375,1.78125 .58397.35079 2.84816.50896 2.875,1.84375-.09884.5694-1.18792,1.2622-1.8125,1.15625-1.81456-.34867-3.999-1.27698-5.65625-2.09375-1.15958-1.28657-.78381-2.68705.75-2.75zm17.6875,1.96875c.63299-.06248 1.36223.68567 2.09375,1.21875-1.7015.79008-3.56089,1.69351-5.25,1.6875 .71154-1.31744 1.84232-2.37234 3.15625-2.90625zm-21.375.4375c-.4023-.00601-.85154.51869-1.71875,1.5-1.58453,2.29159-2.2416,3.98253 0,5.59375 1.84649.70161 3.09186.21752 3.9375-1.53125v-.0625c.08159-1.33838-.63996-2.54344-.75-3.875-.71108-1.08228-1.06645-1.61899-1.46875-1.625zm.0625.3125c.36331-.01741.6615.41694 1.03125,1.3125 .1593,1.22008.94716,2.77027.9375,4-.5578,1.2607-2.31136,1.68287-3.53125,1.375-2.40872-1.35541-1.39812-4.16476.1875-5.34375 .58326-.85716 1.01169-1.32634 1.375-1.34375zm4.21875,3.40625c-.58176.04075-1.10892.22499-1.625.71875 .30257,3.01196 3.17789,2.47256 5.4375,2.625 1.13721-.01874 2.13725-.28118 3.15625-.71875 .94455-2.67876-3.13444-2.40344-5.46875-2.53125-.32427-.03652-.62416-.07692-.90625-.09375-.21157-.01262-.39983-.01358-.59375,0zm2.78125.34375c1.18484-.00464 1.98984.30465 3.3125.625 .31365.15683.29576.9948.625,1.28125-.78759.51709-1.9238.73029-2.84375.84375-2.2689.13163-5.16835-.05971-5.21875-2.375 .54894-.57301 2.02738-.21444 2.78125-.25 .51306-.08028.94881-.12345 1.34375-.125zm5.5,1.15625 40.6875,37.53125 .3125,1.09375-41-37.5625v-1.0625zm0,1.65625 2.15625,2c-.18373-.09623-.38423-.18205-.65625-.1875l-1.5.34375v-2.15625zm-3.1875,1.125c.81076-.06054 2.05631.55684 2.78125,1.21875 .00426.00721-.00415.02405 0,.03125 .3949.68547.26503,1.3063-.21875,1.90625v.125c-.62674-.27746-2.35581-.53073-3.09375-1.34375-.50741-1.3752-.13493-1.88775.53125-1.9375zm-11.125.4375c-2.20323.51764-2.77705,1.60351-1.96875,3.5625 2.35946,2.70356 4.54742,3.75112 6.96875,1.40625-.65402-1.90849.48699-3.69449-5-4.96875zm.1875.375c2.04807.4592 4.6596,1.337 4.375,4.375-2.02192,2.79962-4.90873.41898-6.15625-1.5-1.18093-1.68823.1223-2.82846 1.78125-2.875zm15.65625.25c1.71664.2157 1.23772.88714.375,1.9375-.31438.19104-1.21762.14504-1.9375.125 .15782-.55911.2839-1.12733.0625-1.78125 .56339-.11512 1.19206-.29437 1.5-.28125zm1.5625.65625 2.65625,2.46875c-.63239-.0106-1.22805.12423-1.8125.40625-.98994.88727-.82473,1.7858-.625,2.8125 1.08724.45286 2.45392-.65096 3.5625-.90625 .79469.24802 1.59167.90732 2.34375.84375l1.5625,1.4375-.03125,4.21875c-.66774-.1283-1.41492-.71396-2.0625-.71875-1.25186.18437-2.41709.54554-3.59375,1.03125-.06775.04847-.09721.10859-.15625.15625 .45508-.25888 2.64059-.66125 3.78125-.875 .8942-.25474 1.26233.46622 2.0625.65625 .40852.41682.39931,1.06989.09375,1.84375l-.0625-.15625c-.6875.2413-1.375.45175-2.0625,0-1.23518.08877-2.29003.69561-2.90625.5625-1.1913.22477-1.55556-1.09141-1.125-1.78125-.89692.9151-.26135,1.63509 1.03125,2.09375 .75815.16377 1.66772-.62525 2.96875-.71875 .68666.34197 1.34504.47834 2.03125.375l-.0625,10.46875c-.31205-.03024-.61868-.05441-.90625-.03125-1.20019.08921-2.45319.07278-2.96875,1.53125 .5752,1.86436 2.1353,2.03848 3.84375,2.25l-.0625,9.03125c-1.5356.14085-2.81643.57071-4.09375,1.5-.2401.76925-.36104.82481-.0625,1.3125s.66642.89421 1.1875.96875c1.00083.09407 1.98535.10434 2.96875,0l-.03125,2.15625c-.46036,1.35765-.76297,2.71507-.96875,4.0625l-1.34375-.625c-1.922.59816-2.67971,1.57745-2.25,3.40625 .22573.39234.56796.76126 1.03125,1.09375-1.15542.77746-3.41035,1.59309-5.71875,2.09375l-.40625-9.4375 3.21875-.09375c.51032-1.43633.96737-2.86674.4375-4.1875-1.23663-.75032-2.49704-.56212-3.84375-.375l-.34375-7.84375c1.29268-.07748 2.92495.29909 4.15625.3125 2.95736-.80797 4.36504-2.55995.84375-3.59375-1.8333-.36-3.30462-.9015-5.0625-.375l-.09375-.0625-.34375-8.125 .09375-17.5625c.77599.02723 1.64098.07537 2.125-.21875l1-1.40625zm-8,1.71875c-.40863.00782-.83043.07803-1.3125.0625-2.09539.00358-1.84373,1.3234-1.71875,3.0625 .37202,1.07876.82978,2.00356 2.46875,2.375h.03125 .03125c2.40413.38485 3.53145-.4046 4.1875-2.65625-.22174-1.55358-1.26874-1.68125-2.4375-2.5625-.44591-.2345-.84137-.28907-1.25-.28125zm-1.3125.25c.77878-.10562 1.48935.16571 2.21875.375 .88893.39994 2.34519,1.20905 2.5625,2.25-.38243,1.82413-2.21885,2.34989-3.90625,2.25-1.48454-.33644-2.0678-1.4748-2.28125-2.09375-.45895-1.63327-.21691-2.6269 1.40625-2.78125zm11.90625.59375c.0705-.00316.14401.02629.21875.03125l3,2.75c-.62621-.06611-1.48616-.59008-2.125-.8125-.79711.15477-2.16602,1.36771-3.21875.9375-.55725-.89324.15306-2.18536.59375-2.34375 .29455-.10586.80963-.53012 1.53125-.5625zm97.125,1.5 .1875.75-61.34375,29.5625v-.8125l61.15625-29.5zm-118.8125,1.90625c-.42383.06555-.80489.32543-1.21875.4375-.18199,1.24382-.06758,2.39181.875,3.40625 1.36204.894 2.57095,1.36402 3.5625,1.0625-1.15125.23411-2.6555-.70989-3.375-1.28125-.81901-.73274-1.20252-2.31311-.8125-2.96875 .30648-.34559 1.65341-.85461 2.15625.40625 1.20007.62275 2.55815,1.76438 3.1875,2.875-.0588.12607-.12098.24559-.1875.34375 .11008-.11996.24076-.2423.34375-.40625-.70885-1.51997-1.92833-1.87723-3.0625-3.15625-.57834-.65553-1.04492-.7843-1.46875-.71875zm21.8125.1875c-1.01484.02132-1.75978,1.43228-2.625,1.90625-.82858.16761-1.79547-.57554-2.40625-.125-.23559.8158-.94436,1.60376.71875,2.53125 1.86234-.36117 3.80789-.78849 5.59375-1.53125l.0625-.03125c1.97691-1.54951.31372-2.31285-1.34375-2.75zm.40625.28125c.88543.09943 2.307,1.19562.84375,2.1875-1.37442.81144-3.37349,1.46732-5.53125,1.53125-1.24755.16305-.93972-1.90555-.5625-2.0625 .22461-.16568 1.43264.29666 2.28125.125 .79436-.55147 1.7372-1.45531 2.625-1.75 .09379-.02923.21726-.04545.34375-.03125zm92.4375.90625v26.21875l-.65625.375 .0625-26.3125 .59375-.28125zm-87.3125.25 2.5625,2.34375-.8125,29.90625c-.25153-.34334-.4925-.69196-.75-1.03125-.39354.75651-.74819,1.50827-1.0625,2.25 .00713-4.51218.02455-9.07787.03125-13.34375 .23426-1.08778.34976-2.20166 0-3.40625l.03125-16.71875zm86,.375 .0625,26.59375-2.0625-1.53125-.09375-24.03125 2.09375-1.03125zm-102.0625.28125c-2.03723-.06573-3.15726.77621-4.625,1.375-1.34626,3.5025 5.2863,3.27422 7.34375,3.09375 .53464-.19824.80297-.83147 1.125-1.28125-.18983-2.61606-2.35672-2.72206-3.84375-3.1875zm-.65625.34375c.22383.00124.42975.03256.65625.0625 2.19302.20249 5.15823,2.01221 2.65625,3.78125-3.37664.66538-7.85949.00408-7-2.53125 .66273-.68074 2.12072-1.32119 3.6875-1.3125zm100.40625.5 .09375,23.78125-.3125-.21875-.09375-10.46875-2.8125-1.71875 .1875-9.9375 2.9375-1.4375zm-80.90625,1.0625 3.125,2.875-.6875,26.53125c-.32284,1.15936-.6374,2.33038-.9375,3.5-.78174-.88545-1.52651-1.85398-2.25-2.84375l.75-30.0625zm77.75.46875-.1875,9.71875-2.625-1.625-.15625-6.65625 2.96875-1.4375zm-109.5,1.46875c1.16904.39243 2.05048.90727 2.71875,1.78125-.5885,1.50317-.23224,3.29671.1875,4.84375-.75962.74278-1.98439.43013-3.03125.21875-.55344-2.81483-.5687-5.47235.125-6.84375zm106.3125.09375 .09375,6.34375-2.5625-1.5625-.875.375-.0625-3.5 3.40625-1.65625zm-71.21875,1.03125 2.875,2.625v.03125l-.375,22.15625c-.85283-.76084-1.57841-1.59445-2.3125-2.4375-.23864.89999-.49621,1.80839-.75,2.71875l.5625-25.09375zm-28.15625.375c-.16354.00351-.34831.03048-.53125.0625-1.67388.91393-.90025,2.1108.03125,3.3125 1.88288,1.19764 2.5939,1.93121 5.53125,2.8125 .90652-.90439.53457-1.08392.46875-2.28125 .10942-2.51566-.04199-2.36209-2.375-2.96875-1.25511-.34842-1.98023-.96209-3.125-.9375zm.0625.25c1.01701-.02195 2.11215.84716 3.09375,1.03125 2.89536.279 2.0603,1.40665 2.09375,2.75 .08107.64933-.03279,1.19972-.34375,1.6875-1.29979-.43673-3.91664-1.24163-5.09375-2.5-1.44595-.83247-1.01926-2.64613-.1875-2.90625 .14172-.04382.29221-.05936.4375-.0625zm95.6875.09375v3.53125l-2.625,1.15625 .15625-3.46875 2.46875-1.21875zm-88.5.53125c-1.32347.48539-.13532,3.82591-.3125,5.46875 .05652,1.69545-2.35913,2.89124.28125,5.125 1.61095.15386 2.18267-.52249 2.78125-1.84375 .23833-1.06339-.19878-2.30532-.21875-3.21875 .21932-1.35965.07424-2.54842-.34375-3.8125-.3757-1.47563-.79685-1.62027-2.1875-1.71875zm.09375.28125c.74307-.03013 1.5699.04405 1.90625,1.4375 .46236,1.12105.12018,2.71084.28125,3.9375 .33567.84168.32461,2.0028.21875,2.96875-.22101,1.38915-1.6806,2.06837-2.34375,1.8125-2.17397-.97578-1.03261-3.12907-.25-4.71875l.0625-.0625c.1544-1.81712-1.17309-4.39342.125-5.375zm9.375.21875c-1.90146.04088-3.74778.25627-5.5625,1.03125-.66256.66051.07854,1.333.8125,2.0625 1.32713.66672 1.74742.48356 2.8125-.1875 .17299-.09753.24251-.11125.5625-.03125 1.15496.14758 1.94408-.35969 2.875-.9375 .48782-.45988.11839-.83306.09375-1.3125-.31772-.3917-.81076-.54794-1.53125-.625h-.03125-.03125zm.125.15625c.66719-.04299 1.83362.68129 1.09375,1.4375-.93351.69949-2.1939.86012-3.28125,1.09375-.64301.86895-1.77546.57194-2.53125.25-.74049-.15608-1.1414-1.66794-.8125-1.78125 1.4684-.54559 3.97995-.92749 5.53125-1zm76.15625.15625-.0625,3.4375-2.84375,1.25 .09375-3.3125 2.8125-1.375zm-61.75.78125 3.5,3.21875-.5,20.9375c-1.32438-.50916-2.42025-1.18205-3.34375-1.96875l.34375-22.1875zm58.5625.78125-.09375,3.3125-.59375.25-1.78125-1.375 .15625-1.0625 2.3125-1.125zm7.1875.6875 7.59375,4.75-4.40625,1.9375-.21875-.4375-2.53125.75-.53125-1.375 .5-1.3125-2.46875.3125-.6875,1.4375-.21875-.34375-2.1875,2.09375-.625-2.15625 .15625-1.53125-1.1875,1.375c-.27018.53407-1.38634-.00651-2,.53125l1.625.5 1.5625,1.65625-3.40625.28125 .6875,1.375 2-.3125 .5625,1.15625-3.5,1.53125c-.36234-.42976-.67685-.88253-.59375-1.5l.5-1.3125c-.06327-.32108-.39328-.45168-.8125-.46875-1.25764-.05122-3.42307,1.07653-2.4375,2.40625l1.34375.25c.42669.29761.62715.71935.71875,1.1875l-20.09375,8.90625-7.0625-5.34375 5.28125-2.28125v2.6875l1.40625.34375-.65625,1.125c.36548.72827 1.30699,1.13051 3.09375.5625l.40625-1 2.90625.71875h.03125l5.4375-1.90625h.03125l1-.6875-.5-1.9375-4.9375-1.09375-1.375-.34375 1.03125-1.875 24.5625-10.65625zm-9.875.625 .03125.84375-.6875-.53125 .65625-.3125zm-88.59375.25c-.94062-.06494-1.25471.36396-1.75,1.09375 .09778,1.06265.86,1.6985 1.625,2.375 1.09523.835 2.30079,1.30046 3.28125,2 .92916.30625 1.5839-.30734 2.34375-.78125 .11044-.75374.40951-1.43203-.03125-2.40625-1.78906-.88837-3.51156-1.80892-5.46875-2.28125zm-.125.25c1.71337.21139 3.8808,1.64243 5.4375,2.3125 .12603.57265.06066,1.78739-.03125,1.9375-.09834.16061-1.30074.63048-2,.6875-1.04105-.70058-2.38904-1.22603-3.28125-1.90625-.6631-.51903-1.27115-1.75686-1.40625-2.03125-.34982-.49364 1.09071-.86662 1.28125-1zm87.625.0625 2.5,1.9375-15.6875,6.71875 1.71875-3.125 11.46875-5.53125zm-68.375.46875c-.15201-.00135-.29518.01326-.4375.03125-.56928.07198-1.05901.33853-1.5625.9375-.37638.87578-1.02908,1.4292-.46875,2.65625 1.51525.91898 2.96621.44648 4.53125,0 .68369-.1391.99078-.67376 1.40625-1.1875 .29961-1.87343-.23234-1.99429-1.90625-2.28125-.59683-.06715-1.10645-.1522-1.5625-.15625zm-.28125.28125c.56744-.03305 1.1974.10371 1.8125.1875 1.16523.1422 1.55917.72636 1.78125,1.78125-.08427.1897-.70897.85909-1.40625,1.0625-1.14784.5089-2.92726.50399-4.125.3125-.22863-.82066.34019-2.20844.53125-2.46875 .33388-.63908.83881-.84195 1.40625-.875zm17.65625.0625 3,2.75-.375,23.21875c-.06508-.07432-.12406-.13704-.1875-.21875-.32729.8703-.78848,1.49351-1.375,1.875 .0474-2.50641.11946-4.35922.28125-6.3125-.68961-.1322-1.29451-.32351-1.875-.53125l.53125-20.78125zm-41.34375,2.625c-.43464.24349-.45996.74518-.5625,1.1875-.20508.88464-.15238,1.79647.4375,2.5625l.03125.03125 .0625.03125c1.36298,1.12336 3.12768.98352 4.78125,1.28125 2.82186-.2146 3.04583-.89471 2.1875-3.3125-2.08307-1.40681-4.45644-1.83478-6.9375-1.78125zm103.0625.125-.21875.875-.9375.5625-.75-.21875 .53125-1.03125 1.375-.1875zm-5.6875.03125-.21875.875-.9375.5625-.75-.21875 1.125-.1875 .78125-1.03125zm-97.0625.0625c1.81531.05557 4.52386.39696 6.3125,1.625 1.21598,1.96919.06038,3.13079-1.9375,2.9375-1.48291-.27427-3.34243-.01459-4.5-.9375-.41925-.54444-.54526-2.06644-.4375-2.53125-.03278-.43798.36294-.93954.5625-1.09375zm44.25.125 2.6875,2.46875-.25,22.125c-.97883-.20004-1.93999-.49339-2.78125-1.3125l.34375-23.28125zm-26,.0625c-1.00345-.02545-.76758.51924-1.25,1.21875-.01073,1.4052-.05635,1.81637 1.15625,2.59375 1.69362-.16762 2.36322-.85578 2.875-2.34375-.55103-1.14326-1.61391-1.25876-2.78125-1.46875zm.53125.21875c.82437.02403 1.69999.41448 2,1.3125 .03833,1.12832-1.41587,1.92097-2.5625,2.0625-1.44296-.58667-1.20003-2.73949-.21875-3.28125 .23826-.06462.50646-.10176.78125-.09375zm92.0625.28125v9.9375l-2.15625,1.03125-.28125-.59375-.15625-5-1.09375-2.71875-2.125.78125-.25-.53125 1.875-.84375-.09375-.1875 4.28125-1.875zm-8.25.40625 .5,1.09375-.53125.3125-.71875-1 .75-.40625zm-5.6875.03125 .71875,1.96875-1.46875-1.5625 .75-.40625zm3,.09375 .65625,1.0625-2.90625,1.65625-2.71875.65625-.5-.6875 3.34375-.4375 2.125-2.25zm.46875.21875 1.125.21875 .8125.96875-2.46875,1.375 .25.5625-.46875.1875-.53125-1.125 1.75-1.34375-.46875-.84375zm5.1875.46875 .53125.71875-5.21875,2.375-.53125-.9375 2.1875-1.125 .28125-.125 .71875-.375 2.03125-.53125zm-25.1875.0625-3.53125,5.59375-1.5625-.3125 2.9375-4.25 2.15625-1.03125zm-54.40625.125c.52874-2e-005 1.06627.08161 1.46875.1875l.03125-.09375c.52389.94701.24009,2.12722-.09375,3.1875-1.53259.12583-3.37073-.86148-3.53125-2.125 .36335-.90687 1.24377-1.15622 2.125-1.15625zm21.09375.625 2.5625,2.34375-.65625,37.15625-2.25-1.65625 .0625-4.65625c1.2359-3.3761 1.5167-7.35484 1.625-10.84375-.50308-.11751-1.02379-.21466-1.53125-.3125l.1875-22.03125zm30.8125.4375-2.375,3.3125-1.3125.5625-1.6875-.34375-1.84375,1.84375-6.09375,2.625-.3125,8.59375-12.5-10.28125-.03125-2.5 6.28125,5.78125 19.875-9.59375zm-68.21875.15625c-.24064.0403-.46597.13198-.71875.1875-.33648.21167-.52754.48463-.75.78125-.33685.72384-.163,1.49045-.09375,2.25 .14142.30396.49693.55666.84375.59375 1.61801-.07999 1.56051-.46251 2.125-1.96875l-.65625-1.75c-.25341-.12297-.50936-.13405-.75-.09375zm.15625.1875c.19559-.00024.37221.03477.53125.125 .16685.27866.51632,1.2934.5,1.46875-.71337,1.8979-1.44773,1.66279-1.9375,1.90625-.49359-.18024-.77016-1.9436-.34375-2.53125 .02174-.57535.66323-.96803 1.25-.96875zm88.9375.03125 7,14.84375 .15625,2.53125-1.8125-1.84375-7.28125-14.65625 .9375-.21875 6.1875,13.0625 1.78125,3-1.5625-3.1875-6.34375-12.96875 .9375-.5625zm8.3125.0625 .78125,2.0625-1.65625.8125-1.03125-2.0625 1.90625-.8125zm-2.53125.09375 5.875,11.9375-.125,2.59375-2.0625-1.53125-5.5625-12.15625 .75-.375 4.71875,10.40625 1.96875,3-1.4375-3.1875-5.15625-10.28125 1.03125-.40625zm-90.5625.21875c.48545.00763.9895.24858 1.4375.6875 .4097.19046.7106.57895.90625.8125l.09375,3.03125c-.87656-.02265-1.59871-.31388-2.34375-1.0625v-.03125c-.6873-.35117-1.52525-1.05415-1.84375-1.625 .21713-1.21177.94092-1.82521 1.75-1.8125zm78.6875.46875c.34098-.00584.62125.08938.71875.34375l-.625,1.15625-.9375.5625-1.21875-.21875c-.6117-.83066 1.03957-1.82624 2.0625-1.84375zm9.6875.28125 .25.53125-2.3125,1-.34375-.75 .46875-.21875 .125.25 1.8125-.8125zm-84.0625.5625c.15355-.01216.31168-.00351.46875,0 1.10094.02464 2.25836.36351 3.375.5 3.044.61856.81599,2.4504-.75,3-1.42109-.00789-2.94093-.40304-4.3125-.3125l-.125-2.8125c.43992-.21445.88311-.33852 1.34375-.375zm31.8125.28125 .78125.71875-.125,2.6875c-.27561.14522-.5268.30855-.71875.5l.0625-3.90625zm52.625,0 1.03125,2.1875-2.21875,1.15625-1.125-2.375 2.3125-.96875zm-9.90625.6875c-.04682.53785.32238,1.08714.84375,1.625l-.84375.3125c-.00844-.76961-.41554-1.25027-.75-1.53125l.75-.40625zm14.96875.09375v3.5l-.375-.78125-.0625-2.5 .4375-.21875zm-10.21875.1875 .3125.65625-1.1875.53125-.3125-.625h-.09375l1.28125-.5625zm9.53125.15625 .03125,1.78125-.71875-1.4375 .6875-.34375zm-106.59375.15625c-.73983.81865-.87155,1.76501-1.0625,2.78125 .06422.82885.49863,1.58395 1.15625,2.34375 1.59277,1.63859 3.51145,1.95489 5.6875,2.15625 2.04222-.88032 1.63856-1.32781.8125-3.25l-1.21875-2.53125c-1.73956-.83105-3.4284-1.53657-5.375-1.5zm.28125.21875c1.81731-.18042 3.59871.84219 4.84375,1.53125 .60207.63996.86253,1.86877 1.21875,2.46875 .69833,1.30143.49617,1.98712-.40625,2.78125-2.1365.07186-3.93637-.79084-5.5-2.03125-.51727-.62271-1.03187-1.72593-1.15625-2.21875-.09692-.38404.48471-1.79248 1-2.53125zm71.84375.15625 5.75.90625-.96875,1.96875-6.1875-1.3125 1.40625-1.5625zm23.5625.21875 .5.71875c-2.25186.15131-4.16365,1.09491-5.4375,2.46875l-.25-.71875c1.33521-1.25069 2.958-2.19365 5.1875-2.46875zm1.875.125 1.1875,2.40625-2.75,1.375c-.49828-.81922-1.00191-1.62643-1.4375-2.46875l.46875-.21875 1.53125-.25-.1875-.34375 1.1875-.5zm-19.4375.71875 4.8125,1-.4375.4375-5.15625.125 .78125-1.5625zm25.34375,0 .8125,1.75 .0625,3.28125 .1875.09375-1.15625.5625-2.15625-4.625 2.25-1.0625zm-9.21875.5625c2.03554,3.89682 4.92386,6.884 5.875,11.9375l-.125,2.59375-2.0625-1.53125c-3.15901-3.53015-3.85876-8.04399-5.5625-12.15625l.78125-.34375 4.6875,10.375 1.96875,3-2-3.46875-4.59375-10 1.03125-.40625zm-84.4375.03125c1.38331.05637 2.79398.29681 4.15625.53125 .66498-.15536 1.68976.97677 1.8125,1.875-1.03358.50999-1.82393,1.17063-3.28125,1.46875-.09139,1.74283-1.39631,2.53567-2.59375,3.34375-1.90938-1.16283-1.99946-3.72812-1.40625-5.125-.12014-.66395.55475-1.75096 1.3125-2.09375zm60.6875.21875 6.5,1.28125 .03125,3.03125-2.59375-.6875 .6875-1.625c-.42299-.71597-1.51338-1.15-2.5625-.71875l-.875,1.59375-1.1875-.3125-.125-2.53125 .125-.03125zm19.90625.34375c-.11411.13345-.22085.29224-.34375.46875l.1875.40625-5.15625,2.21875-.3125,2.34375 .0625,7.75-13.09375,6.125 .1875-11.28125 18.46875-8.03125zm-7.3125.0625 .28125,1.53125-.71875.5625-.125-1.5625 .5625-.53125zm-32.84375.0625 17.9375,14.46875c.38767.6164.72557,1.20879.1875,1.59375l-18.25-14.46875c-.54149-.96339-.26364-1.32795.125-1.59375zm32.03125.34375 .15625,1.6875-5.1875,1.75-.125-3.15625 5.15625-.28125zm9.84375.03125c.39966.91885.74244,1.86602 1.09375,2.8125l-1.8125.875-.09375-.21875 1.46875-1.125-2.375.25-.40625-1.09375-.71875-.3125 1.125-.46875 .25.5625 1.15625-1.15625 .3125-.125zm-69.65625.4375c-5.70599.36966-4.40455,1.073-5.625,1.65625 .08205,2.0588 1.36482,2.80202 3.21875,3.125 1.23837-.12909 2.4792-.25142 3.71875-.375 1.24436-.93162 1.1198-1.86331.875-3.28125-.53878-.85767-1.31995-.93702-2.1875-1.125zm50.1875.15625c.83699.00191 1.5969-.14323 2,.75l-1.0625,2.28125c-1.34264.51234-2.08414.33106-2.34375-.40625l1.40625-2.625zm26.375,0 2.1875,4.4375-2.46875,1.125c-.73262-1.45293-1.60481-2.84472-2.46875-4.25l2.75-1.3125zm-76.625.21875c.52705.12226 1.61464.01399 1.96875,1.03125 .33029.5049.01168,2.26658-.65625,2.875-1.07384.13807-2.43627-.01454-3.59375.15625-1.6146-.10651-3.02003-1.51212-2.8125-2.53125 .23116-1.34445 3.14512-1.58539 5.09375-1.53125zm66.78125.4375 .5625.5 .375.84375-.40625.25-.5625-.78125 .03125-.8125zm15.625,0 .71875,1.5625-.65625.21875-.0625-1.78125zm-15.75.0625-.1875.875 .625.78125-1.8125,1.6875 1.6875-.375 .15625.34375-2,1-1.84375-2.84375 3.375-1.46875zm-39.53125.21875 .8125.90625-.125,30.3125-1.09375.40625 .40625-31.625zm15.125.875 6.625,4.9375-.15625,11.03125-2.1875-1.78125c.27651-.85766.55169-1.70484 0-2.5625l-4.53125-3.625 .25-8zm27.6875.125-1.90625,1.40625-2.21875.375 1.90625-1.40625 2.21875-.375zm-19.96875.15625c-.27173.02049-.55078.13977-.75.40625l-.03125.09375c.56216-.42044 1.19826-.18371 1.84375.3125l.0625-.34375c-.21484-.26563-.67212-.5029-1.125-.46875zm12.90625.34375 1.71875,2.65625-1.9375-.65625 .21875-2zm23.53125,0 1.78125.8125-1.15625.5-.625-1.3125zm-3.15625.03125 .25.5625-.8125-.375 .5625-.1875zm-12.21875.28125c.55769,1.51714 1.10488,3.03196 1.75,4.5l-1.53125.71875-2-4.375c.58549-.29284 1.19451-.56844 1.78125-.84375zm-2.28125.3125 4.46875,9.90625 .21875,1.78125-1.46875-1.28125-4.71875-9.8125 .96875-.15625 .53125-.4375zm14.15625.15625 .84375.375 .6875,1.46875-2.21875,1.09375-1-2.15625 1.6875-.78125zm-105.125.0625c.85228.03959 1.72222.39528 2.375.84375 .99135,1.62286 1.77713,4.13132.59375,5.625-1.77656-1.66243-3.40238-3.46253-4.96875-5.5v-.21875c.54589-.54885 1.26135-.78431 2-.75zm33.96875.1875c.74587,1.10606 1.58941,1.97218 2.46875,2.65625-.21787,2.37082-.69709,4.65191-1.25,6.90625-1.21176-.55034-2.20698-1.37912-3.125-2.34375 .60317-2.46026 1.27929-4.88974 1.90625-7.21875zm77.09375,0 1.34375,1.9375-2.5625,1.3125 .125-1.5-.5-1 1.59375-.75zm-57.90625.90625 12.5,9.53125v.03125l.3125,9.65625-12.9375-9.96875 .125-9.25zm-26.53125.09375c.43582,1.16527.37311,2.12636.03125,3-.99451.09115-1.95214.27358-2.96875.3125-1.13586-.46899-1.11146-1.26159-.90625-1.96875 1.02287-.73989 2.48656-1.0662 3.84375-1.34375zm63,.09375 2.0625,4.21875-2.71875,1.3125-.21875-5.09375 .875-.4375zm-4.75.125 2.09375.9375-.15625,6.84375 3.375.75v2.15625l-5.1875-1.8125-.125-8.875zm16.4375.28125 1.09375,2.1875-2.65625,1.28125c-.23871-.78127-.5586-1.54045-.90625-2.28125l2.46875-1.1875zm-12.9375.21875 .28125,5.90625-1.40625.78125 .1875-6.21875 .9375-.46875zm18.5.34375 .46875,1.03125 1.25.8125-3.3125,1.625-.03125-1.125-.59375-1.28125 2.21875-1.0625zm-93.15625.15625c.74541-.02025 1.57165.15061 2.21875.4375l.125,4.34375c-1.72865-.07396-2.5833-.64248-2.96875-1.6875-.52325-.84798-.46786-2.09731-.25-2.96875 .25723-.06581.55822-.1164.875-.125zm4.59375.46875c.76241.02216 1.52556.17553 2.03125.40625 .23929.90039-.15758,2.72795-.5,3.5625-.8606.08641-1.99115-.00093-2.9375.28125l-.1875-4.0625c.26376-.07127.53809-.13147.84375-.15625 .2457-.01992.49586-.03864.75-.03125zm18.46875.25c1.34909.95749 2.81482,1.49901 4.3125,1.8125-.13281,1.83942-.08126,4.06708-.125,6.34375-.71089.25974-1.59379.18716-2.71875-.34375-.56176,1.29315-1.05555,2.60274-1.46875,3.9375-1.23127-.89395-.67714-.69472-2.125-1.46875 .08435-.29912.1669-.60608.25-.90625 .4553-.82034.87873-1.62 1.25-2.375-.20115-.06156-.40257-.11229-.59375-.1875 .54852-2.20588.99398-4.45975 1.21875-6.8125zm-8.40625.40625c1.7084,2.97663 4.21719,5.28122 6.95791,6.96608 .0619.31792-.65536,1.28505-.73916,1.59642-1.95942,3.8424-4.53972,7.22586-7.875,9.90625-2.13628-7.79744-.41831-13.38543 1.65625-18.46875zm74.21875.75 .625,1.25 .875.8125-4.03125,2 .125-1.3125c-.07074-.47707-.19009-.94821-.3125-1.40625l2.71875-1.34375zm-95.78125.0625c-1.22184.00244-1.52461.47742-2.03125,1.40625-.10123.75684.19624,1.53952.5625,2.21875 1.59732,1.63423 3.78118,2.42751 5.84375,3.3125 .9007.16332 1.5735-.59588 2.25-1.125 .31789-.54761.17644-1.19371-.125-1.6875-.60288-.98758-1.79952-1.78885-2.75-2.40625l-.03125-.03125h-.03125l-3.6875-1.6875zm88.46875.21875c.35268.75666.7199,1.51031 1.15625,2.21875l-1.65625.78125-1.03125-2.28125 1.53125-.71875zm-88.5625.09375c1.15576.66829 2.46948,1.16948 3.59375,1.6875 1.16988.77472 2.85218,2.1507 2.90625,3.5625-.09254.15942-1.15862.813-1.84375,1.03125-1.90573-.88074-4.41338-1.76313-5.75-3.125-.28225-.5491-.61078-1.67025-.5625-2.03125-.06578-.53378 1.42139-.98047 1.65625-1.125zm47.75.25-.0625,2.5 1.3125,1.25v-3.3125l-1.25-.4375zm-26,.28125c-2.68083,5.15348-2.95902,9.77328-1.40625,15.25 2.72042-1.17439 5.74725-5.99917 7.46875-9.5-2.77248-.84845-4.28542-3.40844-6.0625-5.75zm27.625.09375-.0625,3.875 5.1875,3.625 .125-4.0625-5.25-3.4375zm-27.59375.53125c1.23906,1.65598 2.63281,4.31362 5.46875,5.3125-1.58057,3.53957-3.77867,6.64335-6.75,9.03125-1.65627-6.0454-.32717-10.40263 1.28125-14.34375zm-3.84375.21875c-.35075.00549-.77404.08946-1.3125.15625-1.79382.04641-2.16046.89292-2.6875,2.25 .18259,1.01199.67736.9586 1.59375,1.0625 .90291-.10061 1.99221-.44977 2.625-.40625 1.18957-.54792 1.01074-1.3372 1.28125-2-.50716-.8548-.91542-1.07166-1.5-1.0625zm67.3125.0625 1.15625,2.34375-1.125.5-2.96875-.96875-.03125-.46875 2.96875-1.40625zm-67.5.21875c.29083-.02294.57459-.01478.8125,0 .47773.70857 1.04994,1.45738-.46875,2.375-.95051-.01791-2.46234.48866-3.125.5625-1.48432-.51255-.27872-1.84477.1875-2.4375 .69627-.21686 1.72127-.43119 2.59375-.5zm72.21875.84375c.2726.41873.56146.82341.875,1.21875l1.09375.71875-2.9375,1.5-.03125-1.0625-.71875-1.5625 1.71875-.8125zm-7.8125.90625 2.59375,1.15625-.8125.375-3.0625-.84375 1.28125-.6875zm-70.53125.59375c-.27002.01518-.55765.24369-.875.96875-.63128.58225.01638,2.64733.1875,3.6875-.1372.59164-.03676,1.18915-.03125,1.78125 .26579.40557.05729,1.00507 1.0625,1.09375 1.17699-.17306 1.38953-.24165 1.90625-1.15625 .19059-.77513.14639-1.59081.1875-2.28125 .10132-1.43395-.39948-2.49887-1.125-3.65625-.45565.10951-.86246-.4628-1.3125-.4375zm74.96875.15625 .75,1.53125 .8125.65625-2,1.03125-1.78125-2.15625 2.21875-1.0625zm-31.59375.21875-.125,3.5625 1.875.25 .25-2-2-1.8125zm-43.28125.03125c.48262-.08649.91789.14218 1.03125.28125 .42312.44766 1.06204,2.09122 1.03125,3.5 .25104,3.20253-1.62031,3.71053-2.65625,2.34375-.06854-.38636.05676-1.18778.15625-1.9375-.18191-1.15029-.29725-2.467-.4375-3.625 .28066-.35319.58543-.51061.875-.5625zm37.59375.59375-.0625.375-.9375.5 6.8125,5.375-.875-1.6875-.1875-1.125-4.75-3.4375zm-13.03125.25c.75165.76349 2.39944,1.735 4.15625,1.8125-.08613,3.73859-.2911,7.63318-1.5,10.625-.38678.95721-.91006,1.83917-1.5625,2.65625-1.19021-.48053-2.22103-.72772-2.5-1.25l-.03125.09375c.36068.67527.7485,1.4252 1.8125,1.96875-.44185.45635-.93372.9093-1.46875,1.3125-1.42928-.47907-2.0045-1.14213-2.59375-1.875l-.0625.125c.50246.62492.56153,1.57961 2.0625,2.15625-.90867.61448-1.91709,1.15447-3.0625,1.625-1.54463-2.7674-2.32132-5.73691-2.0625-8.5 .25752-2.74921 1.18517-6.18645 2.3125-9.0625 2.20193,1.02483 3.46411.21071 4.5-1.6875zm47.8125.4375 1.46875,1.84375-1.59375.03125 .125-1.875zm-66.5.25c.4492.10645.83219.35107 1.21875.59375-.1225.88377-.20029,1.76408-.21875,2.65625-.54957.33712-1.19686.61733-2.09375.8125-.3934-.40348-.79234-.98951-.90625-1.1875-.50759-1.50026.58747-2.85874 2-2.875zm42.34375.84375 .375.28125 .5,9.3125-.75.28125-.125-9.875zm-52.59375,1.5625c.17311.00037.36727.04461.5625.125 .32652.4506.97682,1.63908 1.21875,2.53125-1.1971-.41106-2.1752-1.14267-3.03125-2.0625 .42811-.33255.80511-.59469 1.25-.59375zm20.4375.875c1.55907.82985 1.33775.72958 2.1875,1.34375-.52825,1.76558-.92899,3.5671-1.1875,5.40625-.13075,1.3958-.01556,2.72967.3125,4.0625-1.14399.40969-2.52088.59319-3.90625.46875 .44995-3.86042 1.53273-7.54126 2.59375-11.28125zm-.40625.03125c-.9946,3.59954-1.9897,7.19918-2.4375,11.03125-.68454-1.9153-1.00942-3.90348-1.09375-5.9375 1.26112-1.49388 2.46736-3.30702 3.53125-5.09375zm11.78125,8.8125-.0625,3.9375-1.5-1.125c.62265-.85842 1.1493-1.79788 1.5625-2.8125z" fill-rule="evenodd"/>
</svg>
