<?xml version="1.0" encoding="UTF-8"?>
<svg viewBox="0 0 128 128" xmlns="http://www.w3.org/2000/svg" xmlns:xlink="http://www.w3.org/1999/xlink">
 <defs>
  <filter id="cp">
   <feGaussianBlur stdDeviation="1.46205"/>
  </filter>
  <linearGradient id="a">
   <stop stop-color="#b1b1b1" offset="0"/>
   <stop stop-color="#e4e4e4" offset="1"/>
  </linearGradient>
  <linearGradient id="ad">
   <stop stop-color="#9e2612" offset="0"/>
   <stop stop-color="#bd5032" offset="1"/>
  </linearGradient>
  <linearGradient id="ae" x1="93.544" x2="100.61" y1="104.25" y2="92.658" gradientUnits="userSpaceOnUse">
   <stop stop-color="#6a3c1d" offset="0"/>
   <stop stop-color="#8f5127" offset="1"/>
  </linearGradient>
  <linearGradient id="ac" x1="48.951" x2="58.941" y1="94.011" y2="111.87" gradientUnits="userSpaceOnUse" xlink:href="#a"/>
  <linearGradient id="ab" x1="62.832" x2="72.649" y1="107.68" y2="86.746" gradientUnits="userSpaceOnUse" xlink:href="#a"/>
  <linearGradient id="aa" x1="62.746" x2="67.373" y1="79.805" y2="86.465" gradientUnits="userSpaceOnUse" xlink:href="#a"/>
  <linearGradient id="z" x1="55.178" x2="58.984" y1="89.73" y2="81.081" gradientUnits="userSpaceOnUse" xlink:href="#a"/>
  <linearGradient id="y" x1="52.324" x2="53.362" y1="79.524" y2="78.184" gradientUnits="userSpaceOnUse" xlink:href="#a"/>
  <linearGradient id="x" x1="53.276" x2="54.27" y1="77.405" y2="78.573" gradientUnits="userSpaceOnUse" xlink:href="#a"/>
  <linearGradient id="w" x1="54.27" x2="55.308" y1="76.627" y2="75.286" gradientUnits="userSpaceOnUse" xlink:href="#a"/>
  <linearGradient id="v" x1="57.816" x2="58.292" y1="77.189" y2="75.805" gradientUnits="userSpaceOnUse" xlink:href="#a"/>
  <linearGradient id="u" x1="58.595" x2="59.805" y1="75.373" y2="77.059" gradientUnits="userSpaceOnUse" xlink:href="#a"/>
  <linearGradient id="t" x1="59.546" x2="60.584" y1="74.811" y2="72.865" gradientUnits="userSpaceOnUse" xlink:href="#a"/>
  <linearGradient id="s" x1="62.486" x2="63.092" y1="76.324" y2="75.416" gradientUnits="userSpaceOnUse" xlink:href="#a"/>
  <linearGradient id="r" x1="63.049" x2="63.697" y1="77.665" y2="76.93" gradientUnits="userSpaceOnUse" xlink:href="#a"/>
  <linearGradient id="q" x1="65.643" x2="65.968" y1="77.146" y2="75.546" gradientUnits="userSpaceOnUse" xlink:href="#a"/>
  <linearGradient id="p" x1="66.595" x2="67.546" y1="78.962" y2="77.838" gradientUnits="userSpaceOnUse" xlink:href="#a"/>
  <linearGradient id="o" x1="67.157" x2="68.886" y1="80.043" y2="78.486" gradientUnits="userSpaceOnUse" xlink:href="#a"/>
  <linearGradient id="n" x1="69.751" x2="70.443" y1="81.211" y2="78.097" gradientUnits="userSpaceOnUse" xlink:href="#a"/>
  <linearGradient id="m" x1="67.978" x2="69.319" y1="81.989" y2="83.546" gradientUnits="userSpaceOnUse" xlink:href="#a"/>
  <linearGradient id="l" x1="68.108" x2="68.238" y1="84.324" y2="83.07" gradientUnits="userSpaceOnUse" xlink:href="#a"/>
  <linearGradient id="k" x1="65.124" x2="65.903" y1="83.719" y2="82.335" gradientUnits="userSpaceOnUse" xlink:href="#a"/>
  <linearGradient id="j" x1="63.308" x2="64.389" y1="84.238" y2="85.492" gradientUnits="userSpaceOnUse" xlink:href="#a"/>
  <linearGradient id="i" x1="62.703" x2="63.135" y1="86.184" y2="85.405" gradientUnits="userSpaceOnUse" xlink:href="#a"/>
  <linearGradient id="h" x1="59.027" x2="59.222" y1="85.449" y2="84.411" gradientUnits="userSpaceOnUse" xlink:href="#a"/>
  <linearGradient id="g" x1="55.308" x2="56" y1="85.924" y2="85.405" gradientUnits="userSpaceOnUse" xlink:href="#a"/>
  <linearGradient id="f" x1="54.53" x2="55.092" y1="84.541" y2="83.632" gradientUnits="userSpaceOnUse" xlink:href="#a"/>
  <linearGradient id="e" x1="53.189" x2="54.097" y1="82.724" y2="81.686" gradientUnits="userSpaceOnUse" xlink:href="#a"/>
  <linearGradient id="d" x1="50.119" x2="51.459" y1="83.459" y2="82.811" gradientUnits="userSpaceOnUse" xlink:href="#a"/>
  <linearGradient id="c" x1="49.6" x2="50.119" y1="81.903" y2="80.822" gradientUnits="userSpaceOnUse" xlink:href="#a"/>
  <linearGradient id="b" x1="48.13" x2="49.73" y1="79.395" y2="78.011" gradientUnits="userSpaceOnUse" xlink:href="#a"/>
  <linearGradient id="co" x1="26.263" x2="45.951" y1="75.596" y2="102.97" gradientUnits="userSpaceOnUse" xlink:href="#a"/>
  <linearGradient id="cn" x1="30.951" x2="33.326" y1="70.033" y2="66.846" gradientUnits="userSpaceOnUse" xlink:href="#a"/>
  <linearGradient id="cm" x1="26.263" x2="28.701" y1="70.346" y2="67.158" gradientUnits="userSpaceOnUse" xlink:href="#a"/>
  <linearGradient id="cl" x1="23.513" x2="28.576" y1="67.752" y2="64.502" gradientUnits="userSpaceOnUse" xlink:href="#a"/>
  <linearGradient id="ck" x1="23.763" x2="25.888" y1="64.283" y2="62.033" gradientUnits="userSpaceOnUse" xlink:href="#a"/>
  <linearGradient id="cj" x1="47.076" x2="48.826" y1="84.471" y2="83.158" gradientUnits="userSpaceOnUse" xlink:href="#a"/>
  <linearGradient id="ci" x1="46.076" x2="48.388" y1="85.346" y2="83.908" gradientUnits="userSpaceOnUse" xlink:href="#a"/>
  <linearGradient id="ch" x1="45.513" x2="46.888" y1="83.096" y2="80.596" gradientUnits="userSpaceOnUse" xlink:href="#a"/>
  <linearGradient id="cg" x1="43.763" x2="45.701" y1="79.471" y2="77.783" gradientUnits="userSpaceOnUse" xlink:href="#a"/>
  <linearGradient id="cf" x1="39.826" x2="41.076" y1="80.783" y2="79.096" gradientUnits="userSpaceOnUse" xlink:href="#a"/>
  <linearGradient id="ce" x1="38.326" x2="41.576" y1="79.596" y2="75.096" gradientUnits="userSpaceOnUse" xlink:href="#a"/>
  <linearGradient id="cd" x1="37.076" x2="38.451" y1="74.846" y2="72.908" gradientUnits="userSpaceOnUse" xlink:href="#a"/>
  <linearGradient id="cc" x1="32.888" x2="34.076" y1="75.596" y2="73.846" gradientUnits="userSpaceOnUse" xlink:href="#a"/>
  <linearGradient id="cb" x1="30.513" x2="35.201" y1="73.721" y2="70.221" gradientUnits="userSpaceOnUse" xlink:href="#a"/>
  <linearGradient id="ca" x1="81.141" x2="100.83" y1="44.242" y2="71.617" gradientUnits="userSpaceOnUse" xlink:href="#a"/>
  <linearGradient id="bz" x1="78.641" x2="80.766" y1="32.929" y2="30.679" gradientUnits="userSpaceOnUse" xlink:href="#a"/>
  <linearGradient id="by" x1="78.391" x2="83.454" y1="36.398" y2="33.148" gradientUnits="userSpaceOnUse" xlink:href="#a"/>
  <linearGradient id="bx" x1="81.141" x2="83.579" y1="38.992" y2="35.804" gradientUnits="userSpaceOnUse" xlink:href="#a"/>
  <linearGradient id="bw" x1="85.829" x2="88.204" y1="38.679" y2="35.492" gradientUnits="userSpaceOnUse" xlink:href="#a"/>
  <linearGradient id="bv" x1="85.391" x2="90.079" y1="42.367" y2="38.867" gradientUnits="userSpaceOnUse" xlink:href="#a"/>
  <linearGradient id="bu" x1="87.766" x2="88.954" y1="44.242" y2="42.492" gradientUnits="userSpaceOnUse" xlink:href="#a"/>
  <linearGradient id="bt" x1="91.954" x2="93.329" y1="43.492" y2="41.554" gradientUnits="userSpaceOnUse" xlink:href="#a"/>
  <linearGradient id="bs" x1="93.204" x2="96.454" y1="48.242" y2="43.742" gradientUnits="userSpaceOnUse" xlink:href="#a"/>
  <linearGradient id="br" x1="94.704" x2="95.954" y1="49.429" y2="47.742" gradientUnits="userSpaceOnUse" xlink:href="#a"/>
  <linearGradient id="bq" x1="98.641" x2="100.58" y1="48.117" y2="46.429" gradientUnits="userSpaceOnUse" xlink:href="#a"/>
  <linearGradient id="bp" x1="100.39" x2="101.77" y1="51.742" y2="49.242" gradientUnits="userSpaceOnUse" xlink:href="#a"/>
  <linearGradient id="bo" x1="100.95" x2="103.27" y1="53.992" y2="52.554" gradientUnits="userSpaceOnUse" xlink:href="#a"/>
  <linearGradient id="bn" x1="102.28" x2="103.7" y1="53.53" y2="51.804" gradientUnits="userSpaceOnUse" xlink:href="#a"/>
  <linearGradient id="bm" x1="34.013" x2="55.388" y1="65.752" y2="35.252" gradientUnits="userSpaceOnUse" xlink:href="#a"/>
  <linearGradient id="bl" x1="55.326" x2="56.701" y1="29.221" y2="27.451" gradientUnits="userSpaceOnUse" xlink:href="#a"/>
  <linearGradient id="bk" x1="53.201" x2="55.639" y1="29.908" y2="33.658" gradientUnits="userSpaceOnUse" xlink:href="#a"/>
  <linearGradient id="bj" x1="53.388" x2="54.048" y1="33.596" y2="31.649" gradientUnits="userSpaceOnUse" xlink:href="#a"/>
  <linearGradient id="bi" x1="48.451" x2="49.638" y1="32.033" y2="29.658" gradientUnits="userSpaceOnUse" xlink:href="#a"/>
  <linearGradient id="bh" x1="45.013" x2="47.826" y1="33.096" y2="36.157" gradientUnits="userSpaceOnUse" xlink:href="#a"/>
  <linearGradient id="bg" x1="45.201" x2="45.576" y1="37.096" y2="35.471" gradientUnits="userSpaceOnUse" xlink:href="#a"/>
  <linearGradient id="bf" x1="40.513" x2="41.826" y1="35.533" y2="33.815" gradientUnits="userSpaceOnUse" xlink:href="#a"/>
  <linearGradient id="be" x1="37.638" x2="40.013" y1="36.533" y2="38.346" gradientUnits="userSpaceOnUse" xlink:href="#a"/>
  <linearGradient id="bd" x1="37.076" x2="37.638" y1="40.346" y2="38.658" gradientUnits="userSpaceOnUse" xlink:href="#a"/>
  <linearGradient id="bc" x1="31.826" x2="32.763" y1="38.783" y2="36.908" gradientUnits="userSpaceOnUse" xlink:href="#a"/>
  <linearGradient id="bb" x1="29.763" x2="30.638" y1="40.096" y2="41.846" gradientUnits="userSpaceOnUse" xlink:href="#a"/>
  <linearGradient id="ba" x1="29.013" x2="29.962" y1="43.408" y2="41.151" gradientUnits="userSpaceOnUse" xlink:href="#a"/>
  <linearGradient id="az" x1="23.326" x2="25.076" y1="42.033" y2="39.908" gradientUnits="userSpaceOnUse" xlink:href="#a"/>
  <linearGradient id="ay" x1="78.076" x2="85.326" y1="109.85" y2="96.283" gradientUnits="userSpaceOnUse" xlink:href="#a"/>
  <linearGradient id="ax" x1="84.701" x2="89.388" y1="90.908" y2="107.47" gradientUnits="userSpaceOnUse" xlink:href="#a"/>
  <linearGradient id="aw" x1="87.388" x2="104.14" y1="99.408" y2="87.096" gradientUnits="userSpaceOnUse" xlink:href="#a"/>
  <linearGradient id="av" x1="99.951" x2="114.45" y1="95.408" y2="84.158" gradientUnits="userSpaceOnUse" xlink:href="#a"/>
  <linearGradient id="au" x1="106.08" x2="107.36" y1="71.221" y2="69.44" gradientUnits="userSpaceOnUse" xlink:href="#a"/>
  <linearGradient id="at" x1="104.67" x2="106.48" y1="72.221" y2="75.096" gradientUnits="userSpaceOnUse" xlink:href="#a"/>
  <linearGradient id="as" x1="102.01" x2="102.67" y1="73.502" y2="73.033" gradientUnits="userSpaceOnUse" xlink:href="#a"/>
  <linearGradient id="ar" x1="97.076" x2="98.388" y1="73.221" y2="70.19" gradientUnits="userSpaceOnUse" xlink:href="#a"/>
  <linearGradient id="aq" x1="94.638" x2="96.107" y1="73.033" y2="75.315" gradientUnits="userSpaceOnUse" xlink:href="#a"/>
  <linearGradient id="ap" x1="92.201" x2="95.263" y1="77.252" y2="75.033" gradientUnits="userSpaceOnUse" xlink:href="#a"/>
  <linearGradient id="ao" x1="87.232" x2="89.544" y1="77.846" y2="73.908" gradientUnits="userSpaceOnUse" xlink:href="#a"/>
  <linearGradient id="an" x1="81.794" x2="83.138" y1="81.065" y2="79.283" gradientUnits="userSpaceOnUse" xlink:href="#a"/>
  <linearGradient id="am" x1="76.076" x2="77.248" y1="84.19" y2="82.877" gradientUnits="userSpaceOnUse" xlink:href="#a"/>
  <linearGradient id="al" x1="78.888" x2="80.013" y1="85.69" y2="83.221" gradientUnits="userSpaceOnUse" xlink:href="#a"/>
  <linearGradient id="ak" x1="80.013" x2="81.951" y1="81.971" y2="84.471" gradientUnits="userSpaceOnUse" xlink:href="#a"/>
  <linearGradient id="aj" x1="80.326" x2="94.669" y1="82.283" y2="67.502" gradientUnits="userSpaceOnUse" xlink:href="#a"/>
  <linearGradient id="ai" x1="38.054" x2="49.47" y1="64.865" y2="98.768" gradientUnits="userSpaceOnUse" xlink:href="#a"/>
  <linearGradient id="ah" x1="72.649" x2="80.432" y1="73.124" y2="61.622" gradientUnits="userSpaceOnUse" xlink:href="#ad"/>
  <linearGradient id="ag" x1="70.357" x2="69.881" y1="59.114" y2="44.973" gradientUnits="userSpaceOnUse" xlink:href="#ad"/>
  <linearGradient id="af" x1="50.595" x2="62.573" y1="48.951" y2="73.341" gradientUnits="userSpaceOnUse" xlink:href="#ad"/>
 </defs>
 <path d="m59.849 122.12-12.8-8.3027 4.6703-3.9784-33.557-20.065 0.34595-4.3243-2.9405 3.4595-13.665-6.746 0.34595-16.432 60.541-25.081 52.584 48.086-39.957 15.568-15.568 17.816z" fill-opacity=".66667" fill-rule="evenodd" filter="url(#cp)"/>
 <path d="m74.641 31.304-0.125 26.312 29.063 20.5 1.2337-21.476 0.82628-0.38068-3.7475-3.2681-0.0126 2.2747-2.9874-1.3997 0.3125-3.6875-3.6875-2.5625-0.0625 2.9375-2.75-1.9375-0.0625-3.4375-4.25-3.25 0.125 3.625-2.6875-1.9375-0.0625-3.75-3.6875-2.75v3.6875l-3.6875-2.875v-3.8125l-3.75-2.8125z" fill="url(#ca)" fill-rule="evenodd"/>
 <path d="m74.641 31.304-0.125 26.312 29.063 20.5-0.15593-19.855 2.2159-2.048-3.7475-3.2223-0.10433 2.3206-2.8957-1.4456 0.3125-3.6875-3.6875-2.5625-0.0625 2.9375-2.75-1.9375-0.0625-3.4375-4.25-3.25 0.125 3.625-2.6875-1.9375-0.0625-3.75-3.6875-2.75v3.6875l-3.6875-2.875v-3.8125l-3.75-2.8125z" fill-opacity=".15686" fill-rule="evenodd"/>
 <g transform="translate(2.0757 .34595)" fill-rule="evenodd">
  <path d="m46.27 78.919 0.21622 34.854 12.281 9.2108 0.17297-36.843-2.5514-1.254v2.2486l-3.0703-1.2488 0.34595-2.1242-2.6811-1.5568v2.1189l-2.4649-1.5135 0.12973-2.1189-2.3784-1.773z" fill="url(#ac)"/>
  <path d="m58.984 86.054c0 0.21622-0.21622 37.059-0.21622 37.059l15.135-6.8757-0.60541-35.892-3.027 1.6432-0.12973 1.9027-2.5946 1.3838-0.17297-2.0757-2.4216 1.0811 0.17297 1.5135-3.0703 1.2108-0.17297-1.773-2.8973 0.82162z" fill="url(#ab)"/>
  <path d="m46.27 78.703 3.9784-1.4703 1.2108 1.0811-2.4216 0.77838 1.6865 1.1676-1.9892 0.51892-2.4649-2.0757z" fill="url(#b)"/>
  <path d="m48.692 80.778-0.17297 2.1189 2.5081-0.86486-0.12973-1.6865-2.2054 0.43243z" fill="url(#c)"/>
  <path d="m51.2 82.292-0.21622-0.25946-2.4216 0.82162 2.2919 1.4703 0.34595-2.0324z" fill="url(#d)"/>
  <path d="m50.941 82.162 2.8108 1.7297 1.946-1.0378-2.7676-1.427-1.9892 0.73513z" fill="url(#e)"/>
  <path d="m53.622 83.762 2.0324-0.82162 0.04324 2.1189-2.3351 0.77838 0.25946-1.8162v-0.25946z" fill="url(#f)"/>
  <path d="m53.535 85.838 2.1189-0.82162 0.82162 0.38919-0.12973 1.7297-2.8108-1.2973z" fill="url(#g)"/>
  <path d="m56.346 84.757 1.773-0.95135 1.254 0.86487 1.7297-0.69189 0.99459 0.99459-3.0703 1.1676-2.6811-1.3838z" fill="url(#h)"/>
  <path d="m62.011 84.843v2.2486l3.2432-1.3838-3.2432-0.86486z" fill="url(#i)"/>
  <path d="m62.27 83.33-0.12973 1.5135 2.9838 0.95135-0.17297-1.6432-2.6811-0.82162z" fill="url(#j)"/>
  <path d="m62.357 83.243 2.5081-0.90811 2.5514 0.77838-2.4649 1.1243-2.5946-0.99459z" fill="url(#k)"/>
  <path d="m67.286 83.07 2.9405 0.77838-0.08649 0.17297-2.5946 1.254-0.25946-2.2054z" fill="url(#l)"/>
  <path d="m67.33 81.297 0.08649 1.8162 2.8108 0.73514-0.04324-1.946-2.6811-0.51892-0.17297-0.08649z" fill="url(#m)"/>
  <path d="m67.416 81.427 2.0324-0.77838-1.5568-0.60541 2.1622-1.254 3.4162 1.3405-0.21622 0.34595-3.1568 1.5568-2.6811-0.60541z" fill="url(#n)"/>
  <path d="m67.5027,81.03784-1.51351-1.03784 1.55676-.77838 1.03784.51892-.95135.43243-.12973.86486z" fill="url(#o)"/>
  <path d="m65.816 80.043 0.04324-1.9892 1.6865-0.77838-0.12973 2.0324-1.6 0.73513z" fill="url(#p)"/>
  <path d="m65.816 77.968-2.2486-1.3838-0.08649-0.25946 1.2973-0.77838 2.7243 1.773-1.6865 0.64865z" fill="url(#q)"/>
  <path d="m63.481 78.616-1.7297-1.2108 1.3405-0.82162 0.51892 0.60541 0.08649 1.4703-0.21622-0.04324z" fill="url(#r)"/>
  <path d="m61.665 77.362-0.04324-1.6865 1.3838-0.82162 0.08649 1.8162-1.427 0.69189z" fill="url(#s)"/>
  <path d="m61.708 75.589-1.0378-1.0378-1.2108 0.73513-1.3405-0.69189c0.01808 0.03616 2.6509-1.3144 2.8108-1.3405 0.39346-0.06432 2.1189 1.5135 2.1189 1.5135l-1.3405 0.82162z" fill="url(#t)"/>
  <path d="m59.33 75.243 0.25946 1.8162-1.254-0.90811-0.21622-1.5568 1.2108 0.64865z" fill="url(#u)"/>
  <path d="m58.378 76.195-1.3838 0.64865 0.08649 1.2973 2.5081-1.0811-1.2108-0.86486z" fill="url(#v)"/>
  <path d="m56.908 75.676v0.3027l-2.6378 1.2973-1.6-0.77838 2.8973-1.2108 1.3405 0.38919z" fill="url(#w)"/>
  <path d="m52.67 76.627 0.21622 1.6432 1.773 0.69189-0.34595-1.6432-1.6432-0.69189z" fill="url(#x)"/>
  <path d="m52.843 78.184-1.427 0.64865-0.04324 1.7297 3.2865-1.5568-1.8162-0.82162z" fill="url(#y)"/>
  <path d="m60.67 74.551v9.5568l-1.3838 0.51892-1.2541-0.73513-1.5135 0.86486v0.64865l-0.82162-0.43243-0.08649-2.1189-2.6378-1.427-2.0324 0.77838-0.04324-1.773-1.9027-1.2973 2.5081-0.86487-0.04324 2.1622 2.4216-0.99459 0.73513-0.34595-0.3027-1.8162 2.5946-1.3405 0.21622 2.2486 2.5514-1.2108-0.25946-1.6432 1.254-0.77838z" fill="url(#z)"/>
  <path d="m60.71351,74.63784-.08649,9.6 .43243-.25946 1.08108.99459 .12973-.21622v-1.34054l2.55135-1.08108 2.55135.73513-.04324-1.64324 .43243-.12973 1.72973-.73513-1.72973-.43243-.12973.04324v.86486l-.64865-.3027-1.25405-.77838 .08649-1.98919-2.24865-1.2973 .12973,2.11892-1.98919-1.34054-.04324-1.9027-.95135-.90811z" fill="url(#aa)"/>
  <path d="m50.292 95.827 0.34595-2.5081 0.69189-1.2108 1.0378-0.60541 1.3838 0.99459 0.43243 1.5568 0.17297 2.8108 0.12973 1.946-4.1946-2.9838z" fill="#d59163"/>
  <path d="m64.173 100.24 5.3189-1.946s-0.21622-2.6378-0.60541-2.9405-0.95135-1.6-0.95135-1.6l-1.7297-1.0811-1.0811 1.4703-0.82162 2.0324-0.04324 1.9027-0.08649 2.1622z" fill="#d59163"/>
  <path d="m46.27 78.919 0.21622 34.854 12.281 9.2108 0.17297-36.843-2.5514-1.254v2.2486l-3.0703-1.2488 0.34595-2.1242-2.6811-1.5568v2.1189l-2.4649-1.5135 0.12973-2.1189-2.3784-1.773z" fill-opacity=".15686"/>
  <path d="m62.27 83.33-0.12973 1.5135 2.9838 0.95135-0.17297-1.6432-2.6811-0.82162z" fill-opacity=".15686"/>
  <path d="m67.33 81.297 0.08649 1.8162 2.8108 0.73514-0.04324-1.946-2.6811-0.51892-0.17297-0.08649z" fill-opacity=".15686"/>
  <path d="m59.33 75.243 0.25946 1.8162-1.254-0.90811-0.21622-1.5568 1.2108 0.64865z" fill-opacity=".15686"/>
  <path d="m52.67 76.627 0.21622 1.6432 1.773 0.69189-0.34595-1.6432-1.6432-0.69189z" fill-opacity=".15686"/>
  <path d="m60.71351,74.63784-.08649,9.6 .43243-.25946 1.08108.99459 .12973-.21622v-1.34054l2.55135-1.08108 2.55135.73513-.04324-1.64324 .43243-.12973 1.72973-.73513-1.72973-.43243-.12973.04324v.86486l-.64865-.3027-1.25405-.77838 .08649-1.98919-2.24865-1.2973 .12973,2.11892-1.98919-1.34054-.04324-1.9027-.95135-.90811z" fill-opacity=".15686"/>
 </g>
 <g transform="translate(-41.924 -32.856)" fill-rule="evenodd">
  <path d="m46.27 78.919 0.21622 34.854 12.281 9.2108 0.17297-36.843-2.5514-1.254v2.2486l-3.0703-1.2488 0.34595-2.1242-2.6811-1.5568v2.1189l-2.4649-1.5135 0.12973-2.1189-2.3784-1.773z" fill="url(#ac)"/>
  <path d="m58.984 86.054c0 0.21622-0.21622 37.059-0.21622 37.059l15.135-6.8757-0.60541-35.892-3.027 1.6432-0.12973 1.9027-2.5946 1.3838-0.17297-2.0757-2.4216 1.0811 0.17297 1.5135-3.0703 1.2108-0.17297-1.773-2.8973 0.82162z" fill="url(#ab)"/>
  <path d="m46.27 78.703 3.9784-1.4703 1.2108 1.0811-2.4216 0.77838 1.6865 1.1676-1.9892 0.51892-2.4649-2.0757z" fill="url(#b)"/>
  <path d="m48.692 80.778-0.17297 2.1189 2.5081-0.86486-0.12973-1.6865-2.2054 0.43243z" fill="url(#c)"/>
  <path d="m51.2 82.292-0.21622-0.25946-2.4216 0.82162 2.2919 1.4703 0.34595-2.0324z" fill="url(#d)"/>
  <path d="m50.941 82.162 2.8108 1.7297 1.946-1.0378-2.7676-1.427-1.9892 0.73513z" fill="url(#e)"/>
  <path d="m53.622 83.762 2.0324-0.82162 0.04324 2.1189-2.3351 0.77838 0.25946-1.8162v-0.25946z" fill="url(#f)"/>
  <path d="m53.535 85.838 2.1189-0.82162 0.82162 0.38919-0.12973 1.7297-2.8108-1.2973z" fill="url(#g)"/>
  <path d="m56.346 84.757 1.773-0.95135 1.254 0.86487 1.7297-0.69189 0.99459 0.99459-3.0703 1.1676-2.6811-1.3838z" fill="url(#h)"/>
  <path d="m62.011 84.843v2.2486l3.2432-1.3838-3.2432-0.86486z" fill="url(#i)"/>
  <path d="m62.27 83.33-0.12973 1.5135 2.9838 0.95135-0.17297-1.6432-2.6811-0.82162z" fill="url(#j)"/>
  <path d="m62.357 83.243 2.5081-0.90811 2.5514 0.77838-2.4649 1.1243-2.5946-0.99459z" fill="url(#k)"/>
  <path d="m67.286 83.07 2.9405 0.77838-0.08649 0.17297-2.5946 1.254-0.25946-2.2054z" fill="url(#l)"/>
  <path d="m67.33 81.297 0.08649 1.8162 2.8108 0.73514-0.04324-1.946-2.6811-0.51892-0.17297-0.08649z" fill="url(#m)"/>
  <path d="m67.416 81.427 2.0324-0.77838-1.5568-0.60541 2.1622-1.254 3.4162 1.3405-0.21622 0.34595-3.1568 1.5568-2.6811-0.60541z" fill="url(#n)"/>
  <path d="m67.5027,81.03784-1.51351-1.03784 1.55676-.77838 1.03784.51892-.95135.43243-.12973.86486z" fill="url(#o)"/>
  <path d="m65.816 80.043 0.04324-1.9892 1.6865-0.77838-0.12973 2.0324-1.6 0.73513z" fill="url(#p)"/>
  <path d="m65.816 77.968-2.2486-1.3838-0.08649-0.25946 1.2973-0.77838 2.7243 1.773-1.6865 0.64865z" fill="url(#q)"/>
  <path d="m63.481 78.616-1.7297-1.2108 1.3405-0.82162 0.51892 0.60541 0.08649 1.4703-0.21622-0.04324z" fill="url(#r)"/>
  <path d="m61.665 77.362-0.04324-1.6865 1.3838-0.82162 0.08649 1.8162-1.427 0.69189z" fill="url(#s)"/>
  <path d="m61.708 75.589-1.0378-1.0378-1.2108 0.73513-1.3405-0.69189c0.01335 0.02003 2.7337-1.4824 2.8108-1.3405 0.22694 0.41741 2.1155 1.5204 2.1189 1.5135l-1.3405 0.82162z" fill="url(#t)"/>
  <path d="m59.33 75.243 0.25946 1.8162-1.254-0.90811-0.21622-1.5568 1.2108 0.64865z" fill="url(#u)"/>
  <path d="m58.378 76.195-1.3838 0.64865 0.08649 1.2973 2.5081-1.0811-1.2108-0.86486z" fill="url(#v)"/>
  <path d="m56.908 75.676v0.3027l-2.6378 1.2973-1.6-0.77838 2.8973-1.2108 1.3405 0.38919z" fill="url(#w)"/>
  <path d="m52.67 76.627 0.21622 1.6432 1.773 0.69189-0.34595-1.6432-1.6432-0.69189z" fill="url(#x)"/>
  <path d="m52.843 78.184-1.427 0.64865-0.04324 1.7297 3.2865-1.5568-1.8162-0.82162z" fill="url(#y)"/>
  <path d="m60.67 74.551v9.5568l-1.3838 0.51892-1.2541-0.73513-1.5135 0.86486v0.64865l-0.82162-0.43243-0.08649-2.1189-2.6378-1.427-2.0324 0.77838-0.04324-1.773-1.9027-1.2973 2.5081-0.86487-0.04324 2.1622 2.4216-0.99459 0.73513-0.34595-0.3027-1.8162 2.5946-1.3405 0.21622 2.2486 2.5514-1.2108-0.25946-1.6432 1.254-0.77838z" fill="url(#z)"/>
  <path d="m60.71351,74.63784-.08649,9.6 .43243-.25946 1.08108.99459 .12973-.21622v-1.34054l2.55135-1.08108 2.55135.73513-.04324-1.64324 .43243-.12973 1.72973-.73513-1.72973-.43243-.12973.04324v.86486l-.64865-.3027-1.25405-.77838 .08649-1.98919-2.24865-1.2973 .12973,2.11892-1.98919-1.34054-.04324-1.9027-.95135-.90811z" fill="url(#aa)"/>
  <path d="m50.292 95.827 0.34595-2.5081 0.69189-1.2108 1.0378-0.60541 1.3838 0.99459 0.43243 1.5568 0.17297 2.8108 0.12973 1.946-4.1946-2.9838z" fill="#d59163"/>
  <path d="m46.27 78.919 0.21622 34.854 12.281 9.2108 0.17297-36.843-2.5514-1.254v2.2486l-3.0703-1.2488 0.34595-2.1242-2.6811-1.5568v2.1189l-2.4649-1.5135 0.12973-2.1189-2.3784-1.773z" fill-opacity=".15686"/>
  <path d="m62.27 83.33-0.12973 1.5135 2.9838 0.95135-0.17297-1.6432-2.6811-0.82162z" fill-opacity=".15686"/>
  <path d="m67.33 81.297 0.08649 1.8162 2.8108 0.73514-0.04324-1.946-2.6811-0.51892-0.17297-0.08649z" fill-opacity=".15686"/>
  <path d="m59.33 75.243 0.25946 1.8162-1.254-0.90811-0.21622-1.5568 1.2108 0.64865z" fill-opacity=".15686"/>
  <path d="m52.67 76.627 0.21622 1.6432 1.773 0.69189-0.34595-1.6432-1.6432-0.69189z" fill-opacity=".15686"/>
  <path d="m60.71351,74.63784-.08649,9.6 .43243-.25946 1.08108.99459 .12973-.21622v-1.34054l2.55135-1.08108 2.55135.73513-.04324-1.64324 .43243-.12973 1.72973-.73513-1.72973-.43243-.12973.04324v.86486l-.64865-.3027-1.25405-.77838 .08649-1.98919-2.24865-1.2973 .12973,2.11892-1.98919-1.34054-.04324-1.9027-.95135-.90811z" fill-opacity=".15686"/>
 </g>
 <g transform="translate(6.997 -61.328)" fill-rule="evenodd">
  <path d="m46.27 78.919 0.21622 34.854 12.281 9.2108 0.17297-36.843-2.5514-1.254v2.2486l-3.0703-1.2488 0.34595-2.1242-2.6811-1.5568v2.1189l-2.4649-1.5135 0.12973-2.1189-2.3784-1.773z" fill="url(#ac)"/>
  <path d="m58.984 86.054c0 0.21622-0.21622 37.059-0.21622 37.059l15.135-6.8757-0.60541-35.892-3.027 1.6432-0.12973 1.9027-2.5946 1.3838-0.17297-2.0757-2.4216 1.0811 0.17297 1.5135-3.0703 1.2108-0.17297-1.773-2.8973 0.82162z" fill="url(#ab)"/>
  <path d="m46.27 78.703 3.9784-1.4703 1.2108 1.0811-2.4216 0.77838 1.6865 1.1676-1.9892 0.51892-2.4649-2.0757z" fill="url(#b)"/>
  <path d="m48.692 80.778-0.17297 2.1189 2.5081-0.86486-0.12973-1.6865-2.2054 0.43243z" fill="url(#c)"/>
  <path d="m51.2 82.292-0.21622-0.25946-2.4216 0.82162 2.2919 1.4703 0.34595-2.0324z" fill="url(#d)"/>
  <path d="m50.941 82.162 2.8108 1.7297 1.946-1.0378-2.7676-1.427-1.9892 0.73513z" fill="url(#e)"/>
  <path d="m53.622 83.762 2.0324-0.82162 0.04324 2.1189-2.3351 0.77838 0.25946-1.8162v-0.25946z" fill="url(#f)"/>
  <path d="m53.535 85.838 2.1189-0.82162 0.82162 0.38919-0.12973 1.7297-2.8108-1.2973z" fill="url(#g)"/>
  <path d="m56.346 84.757 1.773-0.95135 1.254 0.86487 1.7297-0.69189 0.99459 0.99459-3.0703 1.1676-2.6811-1.3838z" fill="url(#h)"/>
  <path d="m62.179 84.81-0.16854 2.2824 3.2432-1.3838-3.0747-0.89857z" fill="url(#i)"/>
  <path d="m62.27 83.33-0.12973 1.5135 2.9838 0.95135-0.17297-1.6432-2.6811-0.82162z" fill="url(#j)"/>
  <path d="m62.357 83.243 2.5081-0.90811 2.5514 0.77838-2.4649 1.1243-2.5946-0.99459z" fill="url(#k)"/>
  <path d="m67.286 83.07 2.9405 0.77838-0.08649 0.17297-2.5946 1.254-0.25946-2.2054z" fill="url(#l)"/>
  <path d="m67.33 81.297 0.08649 1.8162 2.8108 0.73514-0.04324-1.946-2.6811-0.51892-0.17297-0.08649z" fill="url(#m)"/>
  <path d="m67.416 81.427 2.0324-0.77838-1.5568-0.60541 2.1622-1.254 3.4162 1.3405-0.21622 0.34595-3.1568 1.5568-2.6811-0.60541z" fill="url(#n)"/>
  <path d="m67.5027,81.03784-1.51351-1.03784 1.55676-.77838 1.03784.51892-.95135.43243-.12973.86486z" fill="url(#o)"/>
  <path d="m65.816 80.043 0.04324-1.9892 1.6865-0.77838-0.12973 2.0324-1.6 0.73513z" fill="url(#p)"/>
  <path d="m65.816 77.968-2.2486-1.3838-0.08649-0.25946 1.2973-0.77838 2.7243 1.773-1.6865 0.64865z" fill="url(#q)"/>
  <path d="m63.481 78.616-1.7297-1.2108 1.3405-0.82162 0.51892 0.60541 0.08649 1.4703-0.21622-0.04324z" fill="url(#r)"/>
  <path d="m61.665 77.362-0.04324-1.6865 1.3838-0.82162 0.08649 1.8162-1.427 0.69189z" fill="url(#s)"/>
  <path d="m61.708 75.589-1.0378-1.0378-1.2108 0.73513-1.3405-0.69189c0.00497 0.0298 2.5186-1.3878 2.8108-1.3405 0.10382 0.01677 2.0742 1.5731 2.1189 1.5135l-1.3405 0.82162z" fill="url(#t)"/>
  <path d="m59.33 75.243 0.25946 1.8162-1.254-0.90811-0.21622-1.5568 1.2108 0.64865z" fill="url(#u)"/>
  <path d="m58.378 76.195-1.3838 0.64865 0.08649 1.2973 2.5081-1.0811-1.2108-0.86486z" fill="url(#v)"/>
  <path d="m56.908 75.676v0.3027l-2.6378 1.2973-1.6-0.77838 2.8973-1.2108 1.3405 0.38919z" fill="url(#w)"/>
  <path d="m52.67 76.627 0.21622 1.6432 1.773 0.69189-0.34595-1.6432-1.6432-0.69189z" fill="url(#x)"/>
  <path d="m52.843 78.184-1.427 0.64865-0.04324 1.7297 3.2865-1.5568-1.8162-0.82162z" fill="url(#y)"/>
  <path d="m60.67 74.551 0.16854 9.4893-1.5523 0.58633-1.2541-0.73513-1.5135 0.86486v0.64865l-0.82162-0.43243-0.08649-2.1189-2.6378-1.427-2.0324 0.77838-0.04324-1.773-1.9027-1.2973 2.5081-0.86487-0.04324 2.1622 2.4216-0.99459 0.73513-0.34595-0.3027-1.8162 2.5946-1.3405 0.21622 2.2486 2.5514-1.2108-0.25946-1.6432 1.254-0.77838z" fill="url(#z)"/>
  <path d="m60.71351,74.63784 .1437,9.34054 1.28333.99459 .12973-.21622v-1.34054l2.55135-1.08108 2.55135.73513-.04324-1.64324 .43243-.12973 1.72973-.73513-1.72973-.43243-.12973.04324v.86486l-.64865-.3027-1.25405-.77838 .08649-1.98919-2.24865-1.2973 .12973,2.11892-1.98919-1.34054-.04324-1.9027-.95135-.90811z" fill="url(#aa)"/>
  <path d="m46.27 78.919 0.21622 34.854 12.281 9.2108 0.17297-36.843-2.5514-1.254v2.2486l-3.0703-1.2488 0.34595-2.1242-2.6811-1.5568v2.1189l-2.4649-1.5135 0.12973-2.1189-2.3784-1.773z" fill-opacity=".15686"/>
  <path d="m62.27 83.33-0.12973 1.5135 2.9838 0.95135-0.17297-1.6432-2.6811-0.82162z" fill-opacity=".15686"/>
  <path d="m67.33 81.297 0.08649 1.8162 2.8108 0.73514-0.04324-1.946-2.6811-0.51892-0.17297-0.08649z" fill-opacity=".15686"/>
  <path d="m59.33 75.243 0.25946 1.8162-1.254-0.90811-0.21622-1.5568 1.2108 0.64865z" fill-opacity=".15686"/>
  <path d="m52.67 76.627 0.21622 1.6432 1.773 0.69189-0.34595-1.6432-1.6432-0.69189z" fill-opacity=".15686"/>
  <path d="m60.71351,74.63784 .17741,9.44166 1.24962.89347 .12973-.21622v-1.34054l2.55135-1.08108 2.55135.73513-.04324-1.64324 .43243-.12973 1.72973-.73513-1.72973-.43243-.12973.04324v.86486l-.64865-.3027-1.25405-.77838 .08649-1.98919-2.24865-1.2973 .12973,2.11892-1.98919-1.34054-.04324-1.9027-.95135-.90811z" fill-opacity=".15686"/>
 </g>
 <g transform="translate(53.323 -22.227)" fill-rule="evenodd">
  <path d="m46.27 78.919 0.21622 34.854 12.281 9.2108 0.17297-36.843-2.5514-1.254v2.2486l-2.9692-1.3836 0.24482-1.9893-2.6811-1.5568v2.1189l-2.4649-1.5135 0.12973-2.1189-2.3784-1.773z" fill="url(#ac)"/>
  <path d="m58.984 86.054c0 0.21622-0.21622 37.059-0.21622 37.059l15.135-6.8757-0.60541-35.892-3.027 1.6432-0.12973 1.9027-2.5946 1.3838-0.17297-2.0757-2.4216 1.0811 0.17297 1.5135-3.0703 1.2108-0.17297-1.773-2.8973 0.82162z" fill="url(#ab)"/>
  <path d="m46.27 78.703 3.9784-1.4703 1.2108 1.0811-2.4216 0.77838 1.6865 1.1676-1.9892 0.51892-2.4649-2.0757z" fill="url(#b)"/>
  <path d="m48.692 80.778-0.17297 2.1189 2.5081-0.86486-0.12973-1.6865-2.2054 0.43243z" fill="url(#c)"/>
  <path d="m51.2 82.292-0.21622-0.25946-2.4216 0.82162 2.2919 1.4703 0.34595-2.0324z" fill="url(#d)"/>
  <path d="m50.941 82.162 2.8108 1.7297 1.946-1.0378-2.7676-1.427-1.9892 0.73513z" fill="url(#e)"/>
  <path d="m53.622 83.762 2.0324-0.82162 0.04324 2.1189-2.3351 0.77838 0.25946-1.8162v-0.25946z" fill="url(#f)"/>
  <path d="m53.535 85.838 2.1189-0.82162 0.82162 0.38919-0.12973 1.7297-2.8108-1.2973z" fill="url(#g)"/>
  <path d="m56.346 84.757 1.773-0.95135 1.254 0.86487 1.7297-0.69189 0.99459 0.99459-3.0703 1.1676-2.6811-1.3838z" fill="url(#h)"/>
  <path d="m62.011 84.843v2.2486l3.2432-1.3838-3.2432-0.86486z" fill="url(#i)"/>
  <path d="m62.27 83.33-0.12973 1.5135 2.9838 0.95135-0.17297-1.6432-2.6811-0.82162z" fill="url(#j)"/>
  <path d="m62.357 83.243 2.5081-0.90811 2.5514 0.77838-2.4649 1.1243-2.5946-0.99459z" fill="url(#k)"/>
  <path d="m67.286 83.07 2.9405 0.77838-0.08649 0.17297-2.5946 1.254-0.25946-2.2054z" fill="url(#l)"/>
  <path d="m67.33 81.297 0.08649 1.8162 2.8108 0.73514-0.04324-1.946-2.6811-0.51892-0.17297-0.08649z" fill="url(#m)"/>
  <path d="m67.416 81.427 2.0324-0.77838-1.5568-0.60541 2.1622-1.254 3.4162 1.3405-0.21622 0.34595-3.1568 1.5568-2.6811-0.60541z" fill="url(#n)"/>
  <path d="m67.5027,81.03784-1.51351-1.03784 1.55676-.77838 1.03784.51892-.95135.43243-.12973.86486z" fill="url(#o)"/>
  <path d="m65.816 80.043 0.04324-1.9892 1.6865-0.77838-0.12973 2.0324-1.6 0.73513z" fill="url(#p)"/>
  <path d="m65.816 77.968-2.2486-1.3838-0.08649-0.25946 1.2973-0.77838 2.7243 1.773-1.6865 0.64865z" fill="url(#q)"/>
  <path d="m63.481 78.616-1.7297-1.2108 1.3405-0.82162 0.51892 0.60541 0.08649 1.4703-0.21622-0.04324z" fill="url(#r)"/>
  <path d="m61.665 77.362-0.04324-1.6865 1.3838-0.82162 0.08649 1.8162-1.427 0.69189z" fill="url(#s)"/>
  <path d="m61.708 75.589-1.0378-1.0378-1.2108 0.73513-1.3405-0.69189s2.5081-1.6 2.8108-1.3405 2.1189 1.5135 2.1189 1.5135l-1.3405 0.82162z" fill="url(#t)"/>
  <path d="m59.33 75.243 0.25946 1.8162-1.254-0.90811-0.21622-1.5568 1.2108 0.64865z" fill="url(#u)"/>
  <path d="m58.378 76.195-1.3838 0.64865 0.08649 1.2973 2.5081-1.0811-1.2108-0.86486z" fill="url(#v)"/>
  <path d="m56.908 75.676v0.3027l-2.6378 1.2973-1.6-0.77838 2.8973-1.2108 1.3405 0.38919z" fill="url(#w)"/>
  <path d="m52.67 76.627 0.21622 1.6432 1.773 0.69189-0.34595-1.6432-1.6432-0.69189z" fill="url(#x)"/>
  <path d="m52.843 78.184-1.427 0.64865-0.04324 1.7297 3.2865-1.5568-1.8162-0.82162z" fill="url(#y)"/>
  <path d="m60.67 74.551 0.13483 9.523-1.5186 0.55263-1.2541-0.73513-1.5135 0.86486v0.64865l-0.82162-0.43243-0.08649-2.1189-2.6378-1.427-2.0324 0.77838-0.04324-1.773-1.9027-1.2973 2.5081-0.86487-0.04324 2.1622 2.4216-0.99459 0.73513-0.34595-0.3027-1.8162 2.5946-1.3405 0.21622 2.2486 2.5514-1.2108-0.25946-1.6432 1.254-0.77838z" fill="url(#z)"/>
  <path d="m60.71351,74.63784 .11576,9.46517 .23018-.12463 1.08108.99459 .12973-.21622v-1.34054l2.55135-1.08108 2.55135.73513-.04324-1.64324 .43243-.12973 1.72973-.73513-1.69602-.60097-.16344.21178v.86486l-.64865-.3027-1.25405-.77838 .08649-1.98919-2.24865-1.2973 .12973,2.11892-1.98919-1.34054-.04324-1.9027-.95135-.90811z" fill="url(#aa)"/>
  <path d="m46.27 78.919 0.21622 34.854 12.281 9.2108 0.17297-36.843-2.5514-1.254v2.2486l-2.9692-1.3499 0.24482-2.023-2.6811-1.5568v2.1189l-0.59785-0.3671-1.867-1.1464 0.12973-2.1189-2.3784-1.773z" fill-opacity=".15686"/>
  <path d="m64.173 100.24 5.3189-1.946s-0.21622-2.6378-0.60541-2.9405-0.95135-1.6-0.95135-1.6l-1.7297-1.0811-1.0811 1.4703-0.82162 2.0324-0.04324 1.9027-0.08649 2.1622z" fill="#d59163"/>
  <path d="m62.27 83.33-0.12973 1.5135 2.9838 0.95135-0.17297-1.6432-2.6811-0.82162z" fill-opacity=".15686"/>
  <path d="m67.33 81.297 0.08649 1.8162 2.8108 0.73514-0.04324-1.946-2.6811-0.51892-0.17297-0.08649z" fill-opacity=".15686"/>
  <path d="m59.33 75.243 0.25946 1.8162-1.254-0.90811-0.21622-1.5568 1.2108 0.64865z" fill-opacity=".15686"/>
  <path d="m52.67 76.627 0.21622 1.6432 1.773 0.69189-0.34595-1.6432-1.6432-0.69189z" fill-opacity=".15686"/>
  <path d="m60.71351,74.63784 .01464,9.43146 .23019-.0235 1.1822.92718 .12973-.21622v-1.34054l2.55135-1.08108 2.55135.73513-.04324-1.64324 .43243-.12973 1.72973-.73513-1.62861-.56726-.23085.44774v.5952l-.64865-.3027-1.25405-.77838 .08649-1.98919-2.24865-1.2973 .12973,2.11892-1.98919-1.34054-.04324-1.9027-.95135-.90811z" fill-opacity=".15686"/>
 </g>
 <path d="m19.76318,62.65845-.125,26.3125 29.0625,20.5-.1875-23.875-1.5-1.25 .125,2.6875-3.125-1.8125 .3125-3.6875-3.6875-2.5625-.0625,2.9375-2.75-1.9375-.0625-3.4375-4.25-3.25 .125,3.625-2.6875-1.9375-.0625-3.75-3.6875-2.75v3.6875l-3.6875-2.875v-3.8125l-3.75-2.8125z" fill="url(#co)" fill-rule="evenodd"/>
 <path d="m19.638 62.596 5.125-1.125 3.625 2.375-4.6875 1.75-4.0625-3z" fill="url(#ck)" fill-rule="evenodd"/>
 <path d="m23.701 65.533 4.625-1.625 0.25 3.5-5.0625 1.8125 0.1875-3.6875z" fill="url(#cl)" fill-rule="evenodd"/>
 <path d="m23.51318,69.09595 5-1.9375 .8125.4375-2.0625.75-.125,3.9375-3.625-3.1875z" fill="url(#cm)" fill-rule="evenodd"/>
 <path d="m27.201 68.346 3.5625-1.5 4.5 2.6875-4.25 1.6875-3.8125-2.875z" fill="url(#cn)" fill-rule="evenodd"/>
 <path d="m30.951 71.221v3.75l2.6875-1.25v-0.375l1.875-1.125-0.1875-2.75-4.375 1.75z" fill="url(#cb)" fill-rule="evenodd"/>
 <path d="m33.576 73.846 0.0625 3.25-2.5-2.25 1.625-0.6875 0.8125-0.3125z" fill="url(#cc)" fill-rule="evenodd"/>
 <path d="m33.513 73.221 4-2.0625 4.125 3.125-3.6875 2.4375-4.4375-3.5z" fill="url(#cd)" fill-rule="evenodd"/>
 <path d="m37.76318,76.59595 .0625,3.5h.375l2.5-.9375-.125-.5 1.4375-1.125-.3125-3.1875-3.9375,2.25z" fill="url(#ce)" fill-rule="evenodd"/>
 <path d="m40.451 82.096-2.4375-2 2.6875-1-0.25 3z" fill="url(#cf)" fill-rule="evenodd"/>
 <path d="m40.826 78.971-0.3125-0.4375 3.625-2.4375 3.875 2.5-3.875 3-3.3125-2.625z" fill="url(#cg)" fill-rule="evenodd"/>
 <path d="m44.26318,81.53345-.25,3.6875 3-.625v-.3125l1.0625-.875-.125-4.9375-3.6875,3.0625z" fill="url(#ch)" fill-rule="evenodd"/>
 <path d="m47.01318,86.97095-2.875-1.8125 2.875-.6875 .0625,2.75-.3125-.125 .25-.125z" fill="url(#ci)" fill-rule="evenodd"/>
 <path d="m48.388 85.783-1.3125-1.375 1.4375-1.25-0.125 2.625z" fill="url(#cj)" fill-rule="evenodd"/>
 <path d="m19.76318,62.65845-.125,26.3125 29.0625,20.5-.1875-23.875-1.5-1.25 .125,2.6875-3.125-1.8125 .3125-3.6875-3.6875-2.5625-.0625,2.9375-2.75-1.9375-.0625-3.4375-4.25-3.25 .125,3.625-2.6875-1.9375-.0625-3.75-3.6875-2.75v3.6875l-3.6875-2.875v-3.8125l-3.75-2.8125z" fill-opacity=".15686" fill-rule="evenodd"/>
 <path d="m74.516 31.242 5.125-1.125 3.625 2.375-4.6875 1.75-4.0625-3z" fill="url(#bz)" fill-rule="evenodd"/>
 <path d="m78.579 34.179 4.625-1.625 0.25 3.5-5.0625 1.8125 0.1875-3.6875z" fill="url(#by)" fill-rule="evenodd"/>
 <path d="m78.39147,37.74197 5-1.9375 .8125.4375-2.0625.75-.125,3.9375-3.625-3.1875z" fill="url(#bx)" fill-rule="evenodd"/>
 <path d="m82.079 36.992 3.5625-1.5 4.5 2.6875-4.25 1.6875-3.8125-2.875z" fill="url(#bw)" fill-rule="evenodd"/>
 <path d="m85.829 39.867v3.75l2.6875-1.25v-0.375l1.875-1.125-0.1875-2.75-4.375 1.75z" fill="url(#bv)" fill-rule="evenodd"/>
 <path d="m88.454 42.492 0.0625 3.25-2.5-2.25 1.625-0.6875 0.8125-0.3125z" fill="url(#bu)" fill-rule="evenodd"/>
 <path d="m88.391 41.867 4-2.0625 4.125 3.125-3.6875 2.4375-4.4375-3.5z" fill="url(#bt)" fill-rule="evenodd"/>
 <path d="m92.64147,45.24197 .0625,3.5h.375l2.5-.9375-.125-.5 1.4375-1.125-.3125-3.1875-3.9375,2.25z" fill="url(#bs)" fill-rule="evenodd"/>
 <path d="m95.329 50.742-2.4375-2 2.6875-1-0.25 3z" fill="url(#br)" fill-rule="evenodd"/>
 <path d="m95.704 47.617-0.3125-0.4375 3.625-2.4375 3.875 2.5-3.875 3-3.3125-2.625z" fill="url(#bq)" fill-rule="evenodd"/>
 <path d="m99.141 50.179-0.25 3.6875 3-0.625v-0.3125l1.0625-0.875-0.125-4.9375-3.6875 3.0625z" fill="url(#bp)" fill-rule="evenodd"/>
 <path d="m101.89147,55.61697-2.875-1.8125 2.875-.6875 .0625,2.75-.3125-.125 .25-.125z" fill="url(#bo)" fill-rule="evenodd"/>
 <path d="m105.65 56.264-3.7434-3.3931 2.7676-2.0756 3.8658 2.3532-2.4674 1.1491c-0.1127 0.38869 0.11306 1.1902 0.11634 1.5789l-0.53892 0.38749z" fill="url(#bn)" fill-rule="evenodd"/>
 <path d="m32.82568,68.09595-1.1875-.8125-.1875-19.875-.0625-.1875-3.375-1.1875-1.4375.875-1.1875-.625 .125-1.875-1.9375-1.25 4.75-2-.125,3.375 3.5-1.4375-.0625-3.125 4.625-2 .25,3.375 4.4375-2.0625-.3125-2.9375 4.0625-1.75 .0625,3.5625 3.8125-1.875-.4375-3.375 4.4375-1.375c0,0-.25,3 0,3s3-1.1875 3-1.1875l-.1875-3.25 4.25-1.8125 .0625,16.125-7.375,1.625-19.6875,10.5625 .1875,11.5z" fill="url(#bm)" fill-rule="evenodd"/>
 <path d="m23.775 43.184-0.92808-0.53033-1.4142 0.88388 0.13258 0.61872-0.48614-0.39775v-1.6352l3.7123-1.7678 3.3588 0.83969-4.3752 1.9887z" fill="url(#az)" fill-rule="evenodd"/>
 <path d="m28.15 41.151 0.13258 3.3588 3.4913-1.5026-3.2262-1.7678-0.39775-0.08839z" fill="url(#ba)" fill-rule="evenodd"/>
 <path d="m28.415 41.195v-2.6075l3.0936 1.4584 0.22097 3.0936-3.3146-1.9445z" fill="url(#bb)" fill-rule="evenodd"/>
 <path d="m28.371 38.588 3.182 1.4142 4.6846-2.0771-3.3588-1.4142-4.5078 2.0771z" fill="url(#bc)" fill-rule="evenodd"/>
 <path d="m36.238 38.19 4.5962 1.149-4.2868 1.9445-0.30936-3.0936z" fill="url(#bd)" fill-rule="evenodd"/>
 <path d="m36.415 38.234v-2.8284l4.2426 1.0165 0.35355 2.9168-0.35355 0.04419-4.2426-1.149z" fill="url(#be)" fill-rule="evenodd"/>
 <path d="m36.415 35.273 4.8614-1.4584 3.2262 0.83969-3.9333 1.6352-4.1542-1.0165z" fill="url(#bf)" fill-rule="evenodd"/>
 <path d="m44.59 34.654 0.22097 3.5355 3.8007-1.9887-4.0217-1.5468z" fill="url(#bg)" fill-rule="evenodd"/>
 <path d="m44.59 34.566-0.30936-2.4749 3.8891 0.88388 0.22097 3.182-3.8007-1.591z" fill="url(#bh)" fill-rule="evenodd"/>
 <path d="m44.237 32.003 5.0381-1.6794 2.8726 1.2816-4.0659 1.4142-3.8449-1.0165z" fill="url(#bi)" fill-rule="evenodd"/>
 <path d="m52.457 31.649 3.182 1.6352-3.0494 1.3258-0.04419-2.74-0.08839-0.22097z" fill="url(#bj)" fill-rule="evenodd"/>
 <path d="m52.501 31.693-0.08839-2.7842 2.961 1.149 0.26517 3.1378-3.1378-1.5026z" fill="url(#bk)" fill-rule="evenodd"/>
 <path d="m52.501 28.953 3.5355-1.5026 3.7123 0.79549-4.4636 1.812-2.7842-1.1048z" fill="url(#bl)" fill-rule="evenodd"/>
 <path d="m28.415 41.195v-2.6075l3.0936 1.4584 0.22097 3.0936-3.3146-1.9445z" fill-opacity=".15686" fill-rule="evenodd"/>
 <path d="m36.415 38.234v-2.8284l4.2426 1.0165 0.35355 2.9168-0.35355 0.04419-4.2426-1.149z" fill-opacity=".15686" fill-rule="evenodd"/>
 <path d="m44.59 34.566-0.30936-2.4749 3.8891 0.88388 0.22097 3.182-3.8007-1.591z" fill-opacity=".15686" fill-rule="evenodd"/>
 <path d="m52.501 31.693-0.08839-2.7842 2.961 1.149 0.26517 3.1378-3.1378-1.5026z" fill-opacity=".15686" fill-rule="evenodd"/>
 <path d="m75.451 84.658 0.4375 28.625 10.062-4-0.375-28.688-3.3125 1.375 0.1875 3.1875-3.375 1.5v-3.5l-3.625 1.5z" fill="url(#ay)" fill-rule="evenodd"/>
 <path d="m82.638 78.971-0.0625-2.75 4.8125 2.25 0.3125 31.375-1.875-0.5-0.1875-28.75-3-1.625z" fill="url(#ax)" fill-rule="evenodd"/>
 <path d="m87.701 109.53-0.3125-31.188 5.375-2.25 0.125 2.0625 4.375-2.125-0.125-2 5-2.125 0.0625 32.125-14.438 5.875-0.0625-0.375z" fill="url(#aw)" fill-rule="evenodd"/>
 <path d="m102.01 74.033 1.5-0.5-0.0625 3.1875 3-1.3125-0.25-3.25 4.3125-1.875 0.0625 29.312-8.4375 3.4375-0.125-29z" fill="url(#av)" fill-rule="evenodd"/>
 <path d="m110.33 70.221-3.3125-0.78125-3.6875 1.5625 2.8438 1.0938 4.1562-1.875z" fill="url(#au)" fill-rule="evenodd"/>
 <path d="m103.42 73.565-0.0625-2.5312 2.8438 1.0625 0.28125 3.1875-3.0625-1.7188z" fill="url(#at)" fill-rule="evenodd"/>
 <path d="m102.07568,73.97095c.375-.125 1.25-.375 1.25-.375l-1.3125-.5625 .0625.9375z" fill="url(#as)" fill-rule="evenodd"/>
 <path d="m98.732 69.815 3.2812 1.8125 0.03125 0.3125-4.8438 2.1562-3.5-2.1875 5.0312-2.0938z" fill="url(#ar)" fill-rule="evenodd"/>
 <path d="m93.763 71.846c0.16309 0.16014 3.5139 2.0695 3.4688 2.25l-0.0625 1.625-3.2188-1.4688-0.1875-2.4062z" fill="url(#aq)" fill-rule="evenodd"/>
 <path d="m93.919 74.252-2.2188 1.0312 1.0312 0.59375 0.03125 2.2188 4.4375-2.0938-0.03125-0.34375-3.25-1.4062z" fill="url(#ap)" fill-rule="evenodd"/>
 <path d="m82.638 76.19 6.4688-2.6875 3.5938 2.375 0.0625 0.375-5.375 2.2188-4.75-2.2812z" fill="url(#ao)" fill-rule="evenodd"/>
 <path d="m79.138 80.565 3.7188-1.5312 2.5938 1.625-3.25 1.3438-3.0625-1.4375z" fill="url(#an)" fill-rule="evenodd"/>
 <path d="m75.357 82.408 3.7812 0.75-3.75 1.5938-0.03125-2.3438z" fill="url(#am)" fill-rule="evenodd"/>
 <path d="m78.888 83.283 0.40625-0.0625 3.25 1.7812-3.3438 1.5938-0.3125-3.3125z" fill="url(#al)" fill-rule="evenodd"/>
 <path d="m79.263 83.252c0-0.625-0.03125-2.625-0.03125-2.625l3.1562 1.4375 0.09375 3-3.2188-1.8125z" fill="url(#ak)" fill-rule="evenodd"/>
 <path d="m82.638 78.971-0.0625-2.75 4.8125 2.25 0.3125 31.375-1.875-0.5-0.1875-28.75-3-1.625z" fill-opacity=".15686" fill-rule="evenodd"/>
 <path d="m103.42 73.565-0.0625-2.5312 2.8438 1.0625 0.28125 3.1875-3.0625-1.7188z" fill-opacity=".15686" fill-rule="evenodd"/>
 <path d="m93.763 71.846c0.16309 0.16014 3.5139 2.0695 3.4688 2.25l-0.0625 1.625-3.2188-1.4688-0.1875-2.4062z" fill-opacity=".15686" fill-rule="evenodd"/>
 <path d="m79.263 83.252c0-0.625-0.03125-2.625-0.03125-2.625l3.1562 1.4375 0.09375 3-3.2188-1.8125z" fill-opacity=".15686" fill-rule="evenodd"/>
 <path d="m67.951 76.627 1.6562 1.0312-0.09375 2.0312 0.84375 0.46875 1.8125-0.96875 3.2812 1.3125 0.03125 1.875 3.8125 0.78125-0.0625-2.625 3.4062-1.5-0.03125-2.8125 6.4688-2.6562 2.6875 1.75 2.1875-0.96875-0.15625-2.375 2.4062-1.1562-0.125-6.7812-0.375-0.0625-27.75 12.656z" fill="url(#aj)" fill-rule="evenodd"/>
 <path d="m32.763 68.096 2.5625 1.5938 0.15625 2.625 2-1.125 4.2812 3.25 0.15625 3.2812 2.2812-1.6875 3.5625 2.4375 0.28125 4.9688h0.40625l-0.0625-4.3438 3.8125-1.4688 1.3438 1.125 0.03125 0.53125 1.4062-0.65625-0.1875-1.7188 2.8438-1.2812 1.3438 0.5 0.09375 1.0938 1.3125-0.625 0.03125-0.28125-17.719-12.562-10.062-7.125-0.1875 0.3125 0.3125 11.156z" fill="url(#ai)" fill-rule="evenodd"/>
 <path d="m32.763 68.096 2.5625 1.5938 0.15625 2.625 2-1.125 4.2812 3.25 0.15625 3.2812 2.2812-1.6875 3.5625 2.4375 0.28125 4.9688h0.40625l-0.0625-4.3438 3.8125-1.4688 1.3438 1.125 0.03125 0.53125 1.4062-0.65625-0.1875-1.7188 2.8438-1.2812 1.3438 0.5 0.09375 1.0938 1.3125-0.625 0.03125-0.28125-17.719-12.562-10.062-7.125-0.1875 0.3125 0.3125 11.156z" fill-opacity=".15686" fill-rule="evenodd"/>
 <path d="m67.93514,76.62703-1.08108-.73513-1.2973.77838 .04324.64865-.47567-.38919-.04324-.34595 8.38919-13.53513 21.83784.60541 .47567.25946-27.84865,12.71351z" fill="url(#ah)" fill-rule="evenodd"/>
 <path d="m51.935 46.054 11.632-2.7243 31.741 20.368-21.881-0.69189-21.492-16.951z" fill="url(#ag)" fill-rule="evenodd"/>
 <path d="m60.368 76.238-0.12973-1.2973 2.7676-1.2973 2.0757 1.5568 0.04324 1.3838 8.3892-13.578-21.535-16.951-19.373 10.551 27.762 19.632z" fill="url(#af)" fill-rule="evenodd"/>
 <path d="m60.368 76.238-0.12973-1.2973 2.7676-1.2973 2.0757 1.5568 0.04324 1.3838 8.3892-13.578-21.535-16.951-19.373 10.551 27.762 19.632z" fill-opacity=".15686" fill-rule="evenodd"/>
 <path d="m97.10693,89.22095-.71875.03125-.0625,1.25-1.5.21875v-1.25l-.84375.625-.09375.96875-.21875.09375v.75l.5-.03125-.125,1.84375-.8125.25-.0625-1.4375-.875.6875v1.125l-.4375.28125v1.0625l.40625-.09375-.15625,1.46875-.3125.15625-.03125,1.03125 .625-.09375-.0625,1.625-.46875.15625-.03125,1.15625 .53125-.09375-.0625,1.34375-.40625.28125 .0625,1.0625 .46875-.125v1.375l-.46875.21875v1.15625l.40625-.125-.03125.96875 1-.28125v-1.03125l.875-.40625 .09375,1.25 .9375-.34375-.03125-1.25 1.0625-.4375 .0625,1.125 1.03125-.375 .03125-1.28125 .59375-.21875 .03125,1.28125 .9375-.53125 .0625-1.28125 .25-.09375-.0625-.9375h-.25l.03125-1.03125 .25-.15625-.03125-.96875-.1875-.03125 .03125-1.5 .28125-.125-.0625-1.03125-.34375.03125 .0625-1.75 .28125-.09375v-.90625l-.3125-.03125v-1.46875l.3125-.21875v-1.1875l-.4375.03125-.03125-.9375c0-.06872-.375-.10362-.78125-.15625-.05546-.00718-.09296-.00498-.125.03125l-.25-.71875h-.40625l-.125-.90625zm.75,1.6875c-.16596.32291.09375,1.375.09375,1.375l-.75.28125v-1.46875l.65625-.1875zm-1.625.5 .09375,1.4375-1.25.5-.03125-1.71875 1.1875-.21875zm1.75,2.1875-.03125,1.375-.6875.1875-.0625-1.3125 .78125-.25zm-1.65625.5625 .0625,1.34375-1.28125.46875-.09375-1.34375 1.3125-.46875zm-2.25.8125v1.375l-.84375.25-.03125-1.4375c.20313,0 .875-.1875.875-.1875zm3.9375,1.25v1.5625l-.75.25 .0625-1.625 .6875-.1875zm-1.6875.59375-.03125,1.5625-1.21875.46875v-1.625l1.25-.40625zm-2.25.78125 .0625,1.5625c0,0-.92188.375-.90625.3125s.03125-1.625.03125-1.625l.8125-.25zm3.9375,1.40625v1.46875c0,0-.75.28125-.75.1875s.03125-1.375.03125-1.375l.71875-.28125zm-1.6875.59375v1.4375l-1.21875.375 .03125-1.375 1.1875-.4375zm-2.25.84375 .125,1.375-.90625.28125-.03125-1.4375 .8125-.21875zm3.875,1.28125 .0625,1-.6875.28125 .03125-1.15625 .59375-.125zm-1.65625.5625 .09375,1.125-1.1875.5-.0625-1.25 1.15625-.375zm-2.09375.6875v1.3125l-.8125.28125-.15625-1.28125 .96875-.3125z" fill="url(#ae)" fill-rule="evenodd"/>
 <path d="m67.95068,11.84595-2.9375,1.28125 .25,1.65625-1.15625.5625-.09375-.96875-1.4375-.5-3.03125,1.28125 .21875,1.6875-1.15625.46875v-.375l-1.40625-1.125-4,1.46875 .03125,11.25-.90625.40625 .0625,2.4375-.3125.09375-2.8125-1.25-5.09375,1.75 .25,2.53125-3.21875-.75-4.96875,1.5 .09375,2.4375-.0625.03125-3.34375-1.3125-4.78125,2.0625 .09375,2.40625-.125.03125-3.5625-.65625-.28125.21875-3.125,1.46875v-.09375l-2.15625-1.53125-2.9375,1.28125 .25,1.65625-1.15625.5625-.09375-.96875-1.4375-.5-3.03125,1.28125 .21875,1.6875-1.15625.46875v-.375l-1.40625-1.125-4,1.46875 .125,35.4375 12.46875,9.28125 2.71875-1.21875 .0625-.125 28.75,20.4375 .03125,4.84375 12.46875,9.28125 15.25-6.90625-.0625-3.375 9.9375-3.96875 1.46875.5 .5-.09375 14.3125-5.78125v-1.0625l8.09375-3.21875 1.75,1.28125 15.25-6.90625-.5625-36.375-3.40625-1.28125-1.71875.84375-.84375-.40625 .125-1.90625-2.875-1.8125-1.375.8125 .03125.53125-.28125-.25-.03125-1.875-2.15625-1.53125-2.9375,1.28125 .25,1.65625-1.15625.5625-.09375-.96875-1.4375-.5-.375.15625-3.75-2.5-.09375-.09375-1.65625,1.21875-.125-4.75-3.90625-2.5-2.125,1.4375-.15625-3.0625-4.28125-3.34375-2,1-.125-2.375-4.6875-2.875-1.625.6875-.46875-.25-.15625-3.46875-2.6875-1.65625-.1875-11.84375-3.40625-1.28125-1.71875.84375-.84375-.40625 .125-1.90625-2.875-1.8125-1.375.8125 .03125.53125-.28125-.25-.03125-1.875-2.15625-1.53125zm0,.1875 1.9375,1.4375-1.125.6875-1.0625-1-1.25.6875-1.15625-.59375 2.65625-1.21875zm-.3125,1.34375 .125,9.3125-1.46875.53125-1.1875-.78125-1.8125.96875 .0625.4375-.5625-.25-.03125-2.1875-2.8125-1.34375-1.8125.625-.125-1.71875-1.8125-1.125 2.09375-.78125 .0625,2.3125 3.4375-1.53125-.3125-1.90625 2.3125-1.15625 .21875,2.125 2.71875-1.125-.28125-1.75 1.1875-.65625zm-2.34375.03125 1,.5625 .21875,1.5625-1-.75-.21875-1.375zm2.5625.03125 .65625.8125 .0625,1.84375 2.1875,1.5-.0625-2.125 2.03125,1.3125-.0625,1.90625 1.90625,1.15625-.34375.125 .0625,1.65625-2.5625-.6875-2.59375,1.03125-.0625,1.4375-1.09375-.78125-.125-9.1875zm2.09375.15625 .0625,1.5625-1.1875.6875-.09375-1.5 1.21875-.75zm-7.375.4375 1.28125.4375-2.71875,1.34375-1.1875-.59375 2.625-1.1875zm9.25.3125 2.5,1.625-1.4375.625-2.375-1.5 1.3125-.75zm-6.46875.625 1.0625.6875-2.21875.9375-.09375-1.0625 1.25-.5625zm4.65625.4375 .46875.34375 .0625,1.46875-1.59375-1.1875 1.0625-.625zm-10.15625.03125 1.375.6875 .28125,1.34375-1.5-.65625-.15625-1.375zm-2.65625.59375 1.0625.84375-2.5.90625 1.6875,1.125-1.65625.375-2.375-1.78125 3.78125-1.46875zm17.25.0625-.125,1.78125-1.4375.71875 .0625-1.8125 1.5-.6875zm-14.46875.90625 1.53125.65625-2.84375,1.25-.03125-1.28125 1.34375-.625zm17.15625.59375 3.1875,1.3125-3.125,1.59375-2.46875-.46875 1.9375-.75-1.5-.59375 1.96875-1.09375zm-23.625.3125 1.96875,1.59375-.09375,2.03125 2.625,1.625 .15625-2 2.34375,1.375-.25,2 3.25,1.5 .0625-2.3125 2.28125,1.25-.21875,19.625-2.125-1.34375-3.78125.90625v-16.03125l.03125-.0625h-.03125l-3.65625-.78125-2.59375,1.15625 .03125-10.53125zm20.9375.15625 .65625.375-.59375.28125 .03125.875-1.4375-.875 1.34375-.65625zm.34375.75 1.40625.46875-1.375.46875-.03125-.9375zm-16.96875.34375 .0625,1.4375-2.21875.75 .15625-1.78125 2-.40625zm22.1875.3125 .21875,10.8125-.625-.375-5.1875,1.125v19.125l-8.3125-5.25 .0625-20.09375 2.625-.8125 .0625,1.9375 3.4375-1.5-.21875-1.46875 2.25-.90625 .125,2.0625 2.84375-1.375 .03125-1.90625 2.6875-1.375zm-5.5625.65625 2.625.59375v1.625l-2.5625-.6875c-.02469-.45543-.09108-1.04985-.0625-1.53125zm-14.5.1875 2.625,1.1875-1.84375.8125-2.53125-1.46875 1.75-.53125zm-2.0625.46875-.0625,2-2.125-1.25 2.1875-.75zm13.875.34375c.04036.01178 1.71806.44557 2.4375.65625l-2.3125,1-2.1875-.84375 2.0625-.8125zm-9.25.65625 .0625,1.8125-2.0625.71875 .1875-1.75 .03125.09375 1.78125-.875zm12.0625.0625 2.5.71875-2.40625,1.1875-.09375-1.90625zm-5.25.25 2.5.875 .0625,1.3125c-.53725-.15694-2.33681-.77107-2.5625-.84375v-1.34375zm-4.21875.5625 1.21875.78125 1.59375-.65625 .96875.8125-2.96875,1.15625-2.375-1.28125 1.5625-.8125zm4.03125.9375c.74189.16643 1.91329.64818 2.6875.875l-2.65625,1.03125-.03125-1.90625zm-6.46875.25 .65625.375-.0625,1.40625-2.46875-1.125 1.875-.65625zm-6.5625,3.71875 3.1875.6875-4,1.65625c-.14101-.0557-1.59485-.64727-2.5-.96875l3.3125-1.375zm3.375.9375-.0625,15.71875-7.40625,1.78125-19.65625,10.625 .28125,11.21875-.78125-.46875-.34375-20.1875-3.40625-1.28125-1.71875.84375-.84375-.40625 .125-1.90625-1.90625-1.21875 4.21875-1.8125 .09375,3.34375 3.75-1.5625-.1875-3.125 4.5-1.9375 .25,3.34375 4.65625-2.09375-.3125-3.03125 3.6875-1.59375 .1875,3.5625 4.0625-1.9375-.375-3.34375 3.875-1.25 .1875.09375 .125,2.875 3.3125-1.25-.28125-3.375 3.96875-1.625zm-6.9375.59375c.77599.26447 2.29961.90457 2.59375,1.03125l.28125,2.875-2.6875-1.40625-.1875-2.5zm26.96875,1.125 3.5,2.09375-4.5,1.625-3.78125-2.78125 4.78125-.9375zm-30.28125.25 2.65625,1.09375-3.8125,1.25-3.375-.84375 4.53125-1.5zm25.5625,1.15625 3.5625,2.59375-.15625,3.6875 4.03125,3.21875-.15625-3.78125 3.5625,2.5 .0625,3.6875 3,2.40625-.1875-3.6875 4.0625,3.03125v3.34375l2.96875,2.1875 .09375-3.0625 3.34375,2.5625-.1875,3.5 3.0625,1.65625-2.34375.875 .21875,13.90625-1.03125-.5625-2.375.90625-.15625-6.625-21.40625-13.59375 .03125-18.75zm-22.09375.21875 2.6875,1.40625-2.59375,1.125-.09375-2.53125zm-8.21875.5 3.46875.8125 .3125,2.84375-3.5-1.5-.28125-2.15625zm38.46875.28125 .25,2.9375-4.6875,1.8125 .09375-3.09375 4.34375-1.65625zm-41.78125,1.3125 2.84375.75-3.4375,1.53125-3.78125-.96875 4.375-1.3125zm3.625.78125 3.5,1.4375-3.28125,1.6875-.21875-3.125zm40.78125.8125 4.09375,2.53125-3.875,1.5625-3.5625-2.5625 3.34375-1.53125zm-48.96875.03125 3.90625.96875 .25,2.59375-.125.0625-4.09375-1 .0625-2.625zm46.75.34375 .28125.1875-1.71875.71875-.0625,3.53125-3.21875-2.53125 4.71875-1.90625zm-50.4375.78125 2.875,1.21875-4.375,1.875h-.03125l-2.71875-1.28125 4.25-1.8125zm3.40625,1.0625 .0625.03125-.0625.03125v-.0625zm53.71875.46875 .125,2.53125-1.84375.9375v.375l-2.3125,1.1875v-3.40625l4.03125-1.625zm-53.65625.15625 4.0625,1-3.84375,1.65625-.21875-2.65625zm-7.875.34375 2.71875,1.375 .03125-.03125 .1875,2.6875-2.84375-1.6875-.09375-2.34375zm63.96875,1.125 3.71875,3-3.46875,2.1875-.03125.0625-4.125-3.21875 3.90625-2.03125zm-73.5.65625 1.9375,1.4375-1.125.6875-1.0625-1-1.25.6875-1.15625-.59375 2.65625-1.21875zm5.65625.03125 2.96875.625-4.09375,1.90625-.71875-.4375-1.375.8125 .03125.53125-.28125-.25-.03125-1.46875 3.5-1.71875zm3.75.78125 3,1.6875-2.90625,1.28125-.09375-2.96875zm-9.71875.53125 .15625,9.28125-1.5.5625-1.1875-.78125-1.8125.96875 .0625.4375-.5625-.25-.03125-2.1875-2.8125-1.34375-1.8125.625-.125-1.71875-1.8125-1.125 2.09375-.78125 .0625,2.3125 3.4375-1.53125-.3125-1.90625 2.3125-1.15625 .21875,2.125 2.71875-1.125-.28125-1.75 1.1875-.65625zm-2.34375.03125 1,.5625 .21875,1.5625-1-.75-.21875-1.375zm2.625.03125 .59375.8125 .0625,1.84375 2.1875,1.5-.0625-2.125 2.03125,1.3125-.0625,1.90625 1.90625,1.15625-.34375.125 .0625,1.65625-2.5625-.6875-2.59375,1.03125-.0625,1.4375-.78125-.78125-.3125.03125-.0625-9.21875zm2.03125.15625 .0625,1.5625-1.1875.6875-.09375-1.5 1.21875-.75zm-7.375.4375 1.28125.4375-2.71875,1.34375-1.1875-.59375 2.625-1.1875zm74.71875,0 .0625,2.75-2.25-1.78125 2.1875-.96875zm-65.46875.3125 2.5,1.625-1.4375.625-2.375-1.5 1.3125-.75zm73.53125.25 .1875,3-1.3125,1 .15625.4375-2.59375,1-.125-3.15625 3.6875-2.28125zm-80,.375 1.0625.6875-2.21875.9375-.09375-1.0625 1.25-.5625zm47.0625.125 31.25,19.875-21.1875-.625-21.21875-16.6875 11.15625-2.5625zm-42.40625.3125 .46875.34375 .0625,1.46875-1.59375-1.1875 1.0625-.625zm-10.15625.03125 1.375.6875 .28125,1.34375-1.5-.65625-.15625-1.375zm-2.65625.59375 1.0625.84375-2.5.90625 1.6875,1.125-1.65625.375-2.375-1.78125 3.78125-1.46875zm55.40625.03125-5.78125,1.59375c-.11009-.08677-.35443-.11684-.46875-.15625 .08942.06604.26429.18265.3125.21875l-2.46875.75 .09375.15625 2.53125-.75c1.46843,1.11407 2.86625,2.3191 4.28125,3.5l-1.5625.71875 .15625.0625 1.65625-.5625c1.04033.87078 2.01987,1.68761 3.125,2.625 3.71193,3.14851 7.25,6.21875 7.25,6.21875l.21875-.25c0,0-3.66231-2.85084-7.375-6-1.0481-.88901-1.88154-1.84684-2.875-2.6875l2.09375-.71875 2.09375,1.34375 .03125-.15625-1.75-1.3125 2.9375-1.03125 6,4.1875-2.5.625-1.09375-.5625 .03125.09375 .71875.5625-1.28125.34375 .0625.28125 1.53125-.5625 4.34375,3.46875-.46875.34375 .0625.03125 .75-.09375 .65625.5 .125-.03125-.375-.53125 3.15625-.40625 6.53125,4.28125-14.15625-.8125v.09375l14.53125.96875 1.84375,1.21875 .03125-.03125-1.28125-1.15625h2.25l-.09375-.15625-2.6875-.1875-6.78125-4.21875 1.875-.375-.0625-.15625-1.9375.25-.96875-.40625-.0625.0625 .84375.46875-3.34375.4375-4.625-3.53125 2.59375-.78125 1.4375,1.125 .0625-.0625-1.125-1 1.0625-.5-.3125-.03125-1.09375.3125-6.0625-4.09375 1.15625-.375-.40625-.1875-1.0625.375-1.09375-.5-.125.03125 .875.59375-2.78125.90625-2-1.46875-.09375.09375 1.71875,1.5-2.1875.84375c-1.38861-1.2008-2.87774-2.48023-4.3125-3.625l5.625-1.65625v-.0625zm-38.15625.03125-.125,1.78125-1.4375.71875 .0625-1.8125 1.5-.6875zm73.53125.125 3.34375,2.3125-3.375,2.78125-3.5-2.53125 3.53125-2.5625zm-88,.78125 1.53125.65625-2.84375,1.25-.03125-1.28125 1.34375-.625zm17.15625.59375 3.1875,1.3125-3.125,1.59375-2.46875-.46875 1.9375-.75-1.5-.59375 1.96875-1.09375zm23.8125.15625 21.3125,16.84375-8.09375,13.21875-.03125-1.21875-2.15625-1.53125-2.9375,1.28125 .1875,1.1875-27.34375-19.3125 19.0625-10.46875zm-47.4375.15625 1.96875,1.59375-.09375,2.03125 2.625,1.625 .15625-2 2.34375,1.375-.25,2 3.25,1.5 .0625-2.3125 2.28125,1.25-.40625,36.21875-11.6875-9.0625-.25-34.21875zm20.9375.15625 .65625.375-.59375.28125 .03125.875-1.4375-.875 1.34375-.65625zm.34375.75 1.40625.46875-1.375.46875-.03125-.9375zm76.8125.125 .15625,4.46875-1.09375.9375-2.65625.78125 .25-3.40625 3.34375-2.78125zm-93.78125.21875 .0625,1.4375-2.21875.75 .15625-1.78125 2-.40625zm86.53125.15625-.15625,2.34375-2.0625-1.46875c.77051-.20583 1.48896-.55014 2.21875-.875zm-64.34375.15625 .5,19.25-.78125-.46875-1.625.6875-.46875-.25-.15625-3.46875-3.75-2.3125-5.1875,1.125v26.21875l-2.46875,1.125 .09375-36.5625 2.625-.8125 .0625,1.9375 3.4375-1.5-.21875-1.46875 2.25-.90625 .125,2.0625 2.84375-1.375 .03125-1.90625 2.6875-1.375zm-5.5625.65625 2.625.59375v1.625l-2.5625-.6875c-.02469-.45543-.09108-1.04984-.0625-1.53125zm-14.5.1875 2.625,1.1875-1.84375.8125-2.53125-1.46875 1.75-.53125zm38.4375.125-1.53125.875c-.30445-.24479-.80718-.47333-.90625-.5625h-.15625c.29162.06245.51253.38248.78125.59375l-12.59375,6.96875v.09375l12.8125-6.9375c.56938.44212 1.23819,1.00182 1.8125,1.4375-3.00929,1.78356-6.11108,3.79371-9.25,5.34375 .01399.00156.01875.00313.03125.03125 3.16684-1.59617 6.21487-3.41858 9.25-5.25 1.77648,1.35005 3.71339,2.63212 5.5,3.96875l-2.34375,1.96875 .15625.0625 2.25-1.78125 1.1875.875 .0625-.03125c0,0-.76365-.85141-1-1.03125l1.125-1.125-.09375-.0625-1.28125,1c-1.75713-1.34804-3.67382-2.78553-5.4375-4.125 1.63522-.99242 2.96875-1.84375 2.96875-1.84375l-.03125-.09375c0,0-1.93625,1.16323-3.0625,1.84375-.56669-.43209-1.12594-.87382-1.6875-1.3125l1.46875-.8125-.03125-.09375zm-40.5.34375-.0625,2-2.125-1.25 2.1875-.75zm13.875.34375c.04036.01178 1.71806.44557 2.4375.65625l-2.3125,1-2.1875-.84375 2.0625-.8125zm-9.25.65625 .0625,1.8125-2.0625.71875 .1875-1.75 .03125.09375 1.78125-.875zm12.0625.0625 2.5.71875-2.40625,1.1875-.09375-1.90625zm-5.25.25 2.5.875 .0625,1.3125c-.53726-.15694-2.33681-.77107-2.5625-.84375v-1.34375zm84.3125.34375 3.5,2.34375-2.3125.96875 .21875,1.6875-.46875.1875-3.625-3.15625 2.6875-2.03125zm9.59375.1875 1.9375,1.4375-1.125.6875-1.0625-1-1.25.6875-1.15625-.59375 2.65625-1.21875zm-98.125.03125 1.21875.78125 1.78125-.71875 .9375.875-3.125,1.15625-2.375-1.28125 1.5625-.8125zm4.03125.9375c.74188.16643 1.91329.64818 2.6875.875l-2.65625,1.03125-.03125-1.90625zm-6.46875.25 .65625.375-.0625,1.40625-2.46875-1.125 1.875-.65625zm100.25.125 .125,9.375-1.46875.46875-1.1875-.78125-1.8125.96875 .0625.4375-.5625-.25-.03125-2.1875-2.8125-1.34375-1.8125.625-.125-1.71875-1.8125-1.125 2.09375-.78125 .0625,2.3125 3.4375-1.53125-.3125-1.90625 2.3125-1.15625 .21875,2.125 2.71875-1.125-.28125-1.75 1.1875-.65625zm-2.34375.03125 1,.5625 .21875,1.5625-1-.75-.21875-1.375zm2.53125.0625 .6875.78125 .0625,1.84375 2.1875,1.5-.0625-2.125 2.03125,1.3125-.0625,1.90625 1.90625,1.15625-.34375.125 .0625,1.65625-2.5625-.6875-2.59375,1.03125-.0625,1.4375-.9375-.78125-.28125.03125-.03125-9.1875zm2.125.125 .0625,1.5625-1.1875.6875-.09375-1.5 1.21875-.75zm-7.3125.46875 1.125.4375-2.53125,1.28125-1.28125-.59375 2.6875-1.125zm-7.21875.0625 .0625,2.0625-2.4375-1.4375 2.375-.625zm.3125.0625 3.375,2.9375-.5.1875v-.375l-1.40625-1.125-1.5625.5625 .09375-2.1875zm16.09375.15625 2.5,1.625-1.4375.625-2.375-1.5 1.3125-.75zm-6.46875.625 1.0625.6875-2.21875.9375-.09375-1.0625 1.25-.5625zm4.65625.4375 .46875.34375 .0625,1.46875-1.59375-1.1875 1.0625-.625zm-10.15625.03125 1.375.6875 .28125,1.34375-1.5-.65625-.15625-1.375zm-2.65625.59375 1.0625.84375-2.5.90625 1.6875,1.125-1.65625.375-2.375-1.78125 3.78125-1.46875zm17.25.0625-.125,1.78125-1.4375.71875 .0625-1.8125 1.5-.6875zm-14.46875.90625 1.53125.65625-2.84375,1.25-.03125-1.28125 1.34375-.625zm17.15625.59375 3.1875,1.3125-3.125,1.59375-2.46875-.46875 1.9375-.75-1.5-.59375 1.96875-1.09375zm-74.25.0625-1.5625,1.0625-.90625-.71875-.125.09375 .875.71875c-1.10292.79665-2.32742,1.81241-3.5,2.5l.03125.0625c1.25892-.65553 2.52621-1.59298 3.6875-2.40625l6.53125,5.3125-1.75,1.5625 .0625.09375 1.71875-1.5 .84375.6875 .1875-.21875-.8125-.65625 4.84375-4.40625-.0625-.0625-5,4.28125-6.375-5.125c.64047-.44208 1.4375-1.25 1.4375-1.25l-.125-.03125zm-16.53125.125 27.65625,19.5625v.0625l-1.15625.5625-.09375-.96875-1.4375-.5-3.03125,1.28125 .21875,1.6875-1.15625.46875v-.375l-1.40625-1.125-4,1.46875v4.25l-.09375-.03125-.125-4.75-3.90625-2.5-2.125,1.4375-.15625-3.0625-4.28125-3.34375-2,1-.125-2.375-1.9375-1.1875-.375-.25-.15625-.09375-.3125-11.21875zm67.15625.125 1.96875,1.59375-.09375,2.03125 2.625,1.625 .15625-2 2.34375,1.375-.25,2 3.25,1.5 .0625-2.3125 2.28125,1.25-.15625,36.34375-1.34375-.875-.09375-29.34375 .03125-.0625h-.03125l-3.65625-.78125-3.75,1.65625 .0625,2.4375-1.09375-.4375v-1.40625l-2.1875-1.1875-.125-13.40625zm20.9375.15625 .65625.375-.59375.28125 .03125.875-1.4375-.875 1.34375-.65625zm.34375.75 1.40625.46875-1.375.46875-.03125-.9375zm-16.96875.34375 .0625,1.4375-2.21875.75 .15625-1.78125 2-.40625zm-93.78125.21875c-1.06262.28368-1.40273.97726-1.84375,1.90625l-.375,2.65625 4.5,3.1875c-.17197-1.60988-.12967-3.22986-.21875-4.84375 .00148-1.77255-1.10449-2.25309-2.0625-2.90625zm115.96875.09375 .71875,35.21875-14.65625,6.6875 .09375-36.5625 2.625-.8125 .0625,1.9375 3.4375-1.5-.21875-1.46875 2.25-.90625 .125,2.0625 2.84375-1.375 .03125-1.90625 2.6875-1.375zm-115.90625.34375c.84532.38857 1.61751,1.53228 1.625,2.59375 .00481.68135.26286,2.8817.28125,3.875l-3.6875-2.5c.09214-.69156.28057-1.83913.40625-2.375-.21073-.64458.63525-1.38327 1.375-1.59375zm110.34375.3125 2.625.59375v1.625l-2.5625-.6875c-.02469-.45543-.09108-1.04984-.0625-1.53125zm-14.5.1875 2.625,1.1875-1.84375.8125-2.53125-1.46875 1.75-.53125zm-2.0625.46875-.0625,2-2.125-1.25 2.1875-.75zm13.875.34375c.04036.01178 1.71806.44557 2.4375.65625l-2.3125,1-2.1875-.84375 2.0625-.8125zm-9.25.65625 .0625,1.8125-2.0625.71875 .1875-1.75 .03125.09375 1.78125-.875zm12.0625.0625 2.5.71875-2.40625,1.1875-.09375-1.90625zm-5.25.25 2.5.875 .0625,1.3125c-.53725-.15694-2.33681-.77107-2.5625-.84375v-1.34375zm-49.75.0625-4.78125,4.34375-2.71875-2.40625-.09375.0625 2.65625,2.375-5.40625,4.84375 .125.0625 5.53125-4.6875 1.84375,1.65625 .09375-.15625-1.90625-1.71875 4.75-4.3125-.09375-.0625zm-41.21875.46875 3.5,2.09375-4.5,1.625-3.78125-2.78125 4.78125-.9375zm86.75.03125 1.21875.78125 1.59375-.65625 .96875.8125-2.96875,1.15625-2.375-1.28125 1.5625-.8125zm4.03125.9375c.74189.16643 1.91329.64818 2.6875.875l-2.65625,1.03125-.03125-1.90625zm-6.46875.25 .65625.375-.0625,1.40625-2.46875-1.125 1.875-.65625zm-89.03125.1875 3.5625,2.59375-.15625,3.6875 4.03125,3.21875-.15625-3.78125 3.5625,2.5 .0625,3.6875 3,2.40625-.1875-3.6875 4.0625,3.03125v3.34375l2.96875,2.1875 .09375-3.0625 3.34375,2.5625-.1875,3.5 3.375,2.0625-.125-2.625 1.09375,1.0625 .0625,23.28125-28.46875-20.25 .0625-25.71875zm53.5625.0625 21.875.75-27.40625,12.65625-1.15625-.71875-1.375.8125 .03125.53125-.28125-.25v-.21875l8.3125-13.5625zm12.1875.90625-.0625.15625 .65625.96875-4.25,1.90625-1.40625-1.625-.09375.03125 1.21875,1.71875-4.46875,2.03125-3.1875-4.875-.125.0625 3.03125,4.90625-3.8125,1.71875-1.0625-2.09375-.125.0625 .90625,2.15625-3.90625,1.78125 .03125.09375 3.90625-1.71875 .75,1.375h.09375l-.53125-1.53125 3.84375-1.6875 .40625.40625 .09375-.15625-.1875-.375 4.4375-2.03125 .78125,1.0625 .15625.03125-.75-1.15625 4.4375-2.0625 1.40625,1.71875 .15625-.03125-1.25-1.65625 1.46875-.875-.0625-.0625-1.625.71875-.875-.96875zm-57.59375.03125 .25,2.9375-4.6875,1.8125 .09375-3.09375 4.34375-1.65625zm67.6875,0 .1875,6.65625-1.5625.59375-.4375.1875-.40625.15625 .21875,2.46875-2.0625.90625-2.6875-1.65625-6.53125,2.71875-.125,2.90625-3.40625,1.46875 .09375,2.40625-.125.03125-3.375-.625-.03125-1.90625-3.40625-1.28125-1.71875.84375-.84375-.40625 .125-1.90625-1.53125-.96875 27.625-12.59375zm-27.625.5-7.15625,7.875h.09375l7.09375-7.875h-.03125zm-37.4375,2.40625 4.09375,2.53125-3.875,1.5625-3.5625-2.5625 3.34375-1.53125zm-2.21875.375 .28125.1875-1.71875.71875-.0625,3.53125-3.21875-2.53125 4.71875-1.90625zm78.4375,2.21875 3.1875.6875-4,1.65625c-.14101-.0557-1.59485-.64727-2.5-.96875l3.3125-1.375zm-71.75.09375 .125,2.53125-1.84375.9375v.375l-2.3125,1.1875v-3.40625l4.03125-1.625zm63.4375.3125 3.28125,1.84375-4.90625,2.09375 .09375,1.625-3-1.40625-.1875-2.125 4.71875-2.03125zm20.84375.21875c-1.26834,1.04222-1.73488,2.38013-2.09375,3.90625l.03125,4.125 5.5-2.1875c-.13498-1.1102-.32337-2.19781-.59375-3.28125-.67383-1.07343-1.35576-2.14039-2.84375-2.5625zm-9.15625.3125 .09375,28.84375-8.09375,3.21875-.0625.125-.125-28.75 .03125.0625 1.03125-.34375 .125,3.09375 3.3125-1.25-.28125-3.375 3.96875-1.625zm9.34375.03125c.93614.40975 1.84112,1.44825 2.09375,2.15625 .24076.67473.73525,2.27417.84375,3.09375l-4.78125,1.90625c-.03641-.88461-.02126-2.95092.0625-3.75 .09821-.93696.89303-2.47001 1.78125-3.40625zm-16.28125.5625c.77599.26447 2.29961.90457 2.59375,1.03125l.28125,2.875-2.6875-1.40625-.1875-2.5zm-65.75.1875 3.71875,3-3.46875,2.1875-.03125.0625-4.125-3.21875 3.90625-2.03125zm64.3125.75v1.09375l.0625,30.65625-2.125.875-.09375-14.40625c-1.37347-1.34883-2.85641-1.92648-4.75-2.09375-2.02263,1.13768-2.99882,3.40447-3.90625,5.59375l-.125,14.5-3.15625,1.28125-.375-31 5-2.21875 .25,1.9375 4.5625-2.28125v-1.84375l4.65625-2.09375zm.1875,1.1875 .84375.34375-.84375.1875v-.53125zm-39.125.46875 1.9375,1.4375-1.125.6875-1.0625-1-1.25.6875-1.15625-.59375 2.65625-1.21875zm26.09375.03125 3.4375,2.21875-5.3125,2.34375-4.28125-2.125 6.15625-2.4375zm14.46875.15625 2.65625,1.375-2.59375,1.125-.0625-2.5zm-70.09375.0625 .0625,2.75-2.25-1.78125 2.1875-.96875zm60.625.40625 3,1.4375-4.125,1.9375-.0625-1.65625-.03125-.34375-.8125-.40625 2.03125-.96875zm-52.5625.15625 .1875,3-1.3125,1 .15625.4375-2.59375,1-.125-3.15625 3.6875-2.28125zm21.15625.53125-.03125.0625v9.3125l-1.3125.46875-1.1875-.78125-1.8125.96875 .0625.4375-.5625-.25-.03125-2.1875-2.8125-1.34375-1.8125.625-.125-1.71875-1.8125-1.125 2.09375-.78125 .0625,2.3125 3.4375-1.53125-.3125-1.90625 2.3125-1.15625 .21875,2.125 2.71875-1.125-.28125-1.75 1.1875-.65625zm-2.34375.03125 1,.5625 .21875,1.5625-1-.75-.21875-1.375zm2.5.0625 .71875.78125 .0625,1.84375 2.1875,1.5-.0625-2.125 2.03125,1.3125-.0625,1.90625 1.90625,1.15625-.34375.125 .0625,1.65625-2.5625-.6875-2.59375,1.03125-.0625,1.4375-.96875-.8125-.3125.09375v-9.21875zm2.15625.125 .0625,1.5625-1.1875.6875-.09375-1.5 1.21875-.75zm-7.375.4375 1.28125.4375-2.71875,1.34375-1.1875-.59375 2.625-1.1875zm9.25.3125 2.5,1.625-1.4375.625-2.375-1.5 1.3125-.75zm-22.71875.125 3.34375,2.3125-3.375,2.78125-3.5-2.53125 3.53125-2.5625zm38.46875.3125 4.53125,2.15625 .28125,31-1.1875-.28125 .15625-.0625-.28125-.0625-.09375-.03125-.3125-28.46875 .0625-.03125-.0625-.03125v-.15625l-2.78125-1.5c-.03622-.05145-.07636-.08982-.125-.15625l-.0625.03125-.125-2.40625zm-22.21875.1875 1.0625.6875-2.21875.9375-.09375-1.0625 1.25-.5625zm4.65625.4375 .46875.34375 .0625,1.46875-1.59375-1.1875 1.0625-.625zm-10.15625.03125 1.375.6875 .28125,1.34375-1.5-.65625-.15625-1.375zm-2.65625.59375 1.0625.84375-2.5.90625 1.6875,1.125-1.65625.375-2.375-1.78125 3.78125-1.46875zm17.25.0625-.125,1.78125-1.4375.71875 .0625-1.8125 1.5-.6875zm-14.46875.90625 1.53125.65625-2.84375,1.25-.03125-1.28125 1.34375-.625zm-7.25.1875 .15625,4.5-1.09375.90625-2.71875.59375 .3125-3.21875 3.34375-2.78125zm34.8125.34375 2.46875,1.40625-2.8125,1.1875h-.03125l-2.71875-1.28125 3.09375-1.3125zm-42.0625.03125-.15625,2.34375-2.0625-1.46875c.77052-.20583 1.48896-.55014 2.21875-.875zm31.65625.03125 3.1875,1.3125-3.125,1.59375-2.46875-.46875 1.9375-.75-1.5-.59375 1.96875-1.09375zm-23.625.3125 1.96875,1.59375-.09375,2.03125 2.625,1.625 .15625-2 2.34375,1.375-.25,2 3.25,1.5 .0625-2.3125 2.28125,1.25-.40625,36.21875-11.6875-9.0625-.25-34.21875zm20.9375.15625 .65625.375-.59375.28125 .03125.875-1.4375-.875 1.34375-.65625zm.34375.75 1.40625.46875-1.375.46875-.03125-.9375zm9.5.25 2.71875,1.375 .03125-.03125 .1875,2.6875-2.84375-1.6875-.09375-2.34375zm-26.46875.09375 .0625,1.4375-2.21875.75 .15625-1.78125 2-.40625zm32.5625,0h.03125l.28125,28.28125-9.71875,3.84375-.4375-28.15625 3.21875-1.375 .09375,3.34375 3.75-1.5625-.1875-3.125 2.96875-1.25zm-10.25.15625 .59375,35.375-14.65625,6.6875 .09375-36.5625 2.625-.8125 .0625,1.9375 3.4375-1.5-.21875-1.46875 2.25-.90625 .125,2.0625 2.84375-1.375 .03125-1.90625 2.8125-1.53125zm-5.6875.8125 2.625.59375v1.625l-2.5625-.6875c-.02469-.45543-.09108-1.04985-.0625-1.53125zm-14.5.1875 2.625,1.1875-1.84375.8125-2.53125-1.46875 1.75-.53125zm-2.0625.46875-.0625,2-2.125-1.25 2.1875-.75zm22.625.125 2.875.59375-2.84375,1.25-.03125-1.84375zm-8.75.21875c.04036.01178 1.71806.44557 2.4375.65625l-2.3125,1-2.1875-.84375 2.0625-.8125zm12.40625.53125 3,1.6875-2.90625,1.28125-.09375-2.96875zm-21.65625.125 .0625,1.8125-2.0625.71875 .1875-1.75 .03125.09375 1.78125-.875zm-9.28125.03125v1.84375l-1.15625-.9375 1.15625-.90625zm21.34375.03125 2.5.71875-2.40625,1.1875-.09375-1.90625zm-5.25.25 2.5.875 .0625,1.3125c-.53726-.15694-2.33681-.77107-2.5625-.84375v-1.34375zm-4.21875.5625 1.21875.78125 1.5625-.65625 1,.8125-2.96875,1.15625-2.375-1.28125 1.5625-.8125zm-13.28125.3125 .0625,2.0625-2.4375-1.4375 2.375-.625zm17.3125.625c.74188.16643 1.91329.64818 2.6875.875l-2.65625,1.03125-.03125-1.90625zm-6.46875.25 .65625.375-.0625,1.40625-2.46875-1.125 1.875-.65625zm37.46875,3c1.58322.05565 3.38167,1.1 4.3125,1.9375v14.34375l-7.84375,3.21875-.3125-14.0625c.86579-2.08433 2.31716-4.49324 3.84375-5.4375zm1,.5 .125,1.25-1.375.375-.03125-1.40625-1.09375.78125v.6875l-.3125.15625 .03125,1.09375h.46875l-.0625,1.6875-.53125.1875-.0625-1.625-1.15625.96875-.09375,1.125-.375.21875-.03125,1.21875 .40625-.0625v1.25l-.46875.15625 .0625,1.25h.59375l-.15625,1.4375-.375.125v1.3125l.40625-.0625v1.21875l-.375.125 .0625,1.375 .3125-.09375v1.1875l-.3125.09375v1.46875l.3125-.15625 .03125.9375 1.25-.4375v-1.03125l.59375-.25 .09375,1.1875 1.21875-.40625-.03125-1.3125 .84375-.34375 .03125,1.25 1.21875-.5c0,0 .06293-.8682.0625-1.28125l.34375-.15625 .0625,1.28125 1.1875-.5625c0,0 .03106-.81621.03125-1.21875l.21875-.21875 .03125-1.28125-.25.09375c-2e-005-.24123-3e-005-.48679 0-.78125l.21875-.125v-1.25h-.21875c.00022-.42899.00056-.74692 0-1.3125l.3125-.09375-.0625-1.09375-.28125-.09375c-.06216-.42673.03118-1.08129.03125-1.5625l.25-.09375-.03125-1.09375-.25.03125c-.0602-.28732.03125-1.00013.03125-1.34375-.00052-.04812-.0003-.08686 0-.125l.21875-.125 .03125-1.25-.28125.03125-.15625-.90625-1-.1875-.15625-.78125-.4375-.09375-.1875-.75-.9375-.09375zm.84375.28125 .09375,1 .375-.03125 .09375.5625-.53125.21875c.02353.604-.00713.98955 0,1.59375l.9375-.25c.05385-.3932.01424-1.1052.03125-1.5l.625.125c.04071.35272.05177.70836.0625,1.0625l.40625-.0625c.01842.31794.1351.72183.03125.90625-.08584.15243-.21979.16127-.34375.25 .00432.39678.03122,1.16062.03125,1.625h.21875l.0625.71875-.28125.21875c-.00173.67088-.03097,1.10979-.03125,1.8125l.375-.03125 .03125.875-.375.28125c.00114.90992-1e-005,.78509 0,1.59375l.21875-.09375 .03125.9375-.3125.15625c-.00022.51726.03161.84483.03125,1.21875l.375-.0625v.71875l-.34375.15625c-.00029.23539-7e-005,1.05906 0,1.34375l-.75.34375c-5e-005-.26623-.03144-1.04779-.03125-1.1875l-.8125.25c.00063.23248-.0311,1.04768-.03125,1.34375l-.78125.28125c-.00018-.27748.03062-1.08469.03125-1.21875l-1.40625.5625v1.21875l-.65625.28125-.03125-1.28125-1.1875.53125 .03125.96875-.78125.28125v-.96875l-.40625.09375-.03125-.9375 .5-.15625-.03125-1.6875-.34375.125-.09375-.8125 .46875-.21875v-1.65625l-.53125.15625-.0625-.875 .5-.1875 .03125-1.8125-.5625.09375 .0625-.90625 .375-.09375 .03125-1.75-.375.125v-.84375l.46875-.21875v-1.3125l.65625-.40625-.0625,1.28125 1.125-.25 .0625-2.1875-.46875.15625 .09375-.53125 .28125-.09375v-1.125l.53125-.375v1.3125l1.875-.40625c.00027-.20834-.09375-1.01044-.09375-1.21875l.59375-.03125zm.6875,1.78125c.0648.38638.03143.79284.03125,1.1875l-.375.125c-.00047-.40639-.01964-.81257-.03125-1.21875l.375-.09375zm-1.34375.1875-1.53125.28125-.03125,1.875 1.59375-.53125c.04244-.58435-.01501-1.04021-.03125-1.625zm-.3125.21875c.03603.45776.02353.91663.03125,1.375l-.90625.3125-.03125-1.4375 .90625-.25zm-41.6875.15625c-1.06262.28368-1.40273.97726-1.84375,1.90625l-.375,2.65625 4.5,3.1875c-.17197-1.60988-.12967-3.22986-.21875-4.84375 .00148-1.77255-1.10449-2.25309-2.0625-2.90625zm.0625.4375c.84532.38857 1.61751,1.53227 1.625,2.59375 .00481.68135.26286,2.8817.28125,3.875l-3.6875-2.5c.09213-.69156.28057-1.83913.40625-2.375-.21073-.64458.63525-1.38327 1.375-1.59375zm13.78125.75c-1.26834,1.04221-1.73488,2.38013-2.09375,3.90625l.03125,4.125 5.5-2.1875c-.13498-1.1102-.32337-2.19781-.59375-3.28125-.67383-1.07343-1.35576-2.14039-2.84375-2.5625zm.1875.34375c.93613.40975 1.84112,1.44825 2.09375,2.15625 .24075.67473.73524,2.27417.84375,3.09375l-4.78125,1.90625c-.03641-.88462-.02126-2.95092.0625-3.75 .09821-.93696.89303-2.47001 1.78125-3.40625zm29.71875.25-1,.34375c.00793.55187-.00678.92904 0,1.53125l.9375-.28125c-.00457-.55896.0678-1.10669.0625-1.59375zm-.34375.25c.00024.37501-.00127.78145 0,1.1875l-.375.125c-.00689-.40787-.02479-.8094-.03125-1.1875l.40625-.125zm-1.34375.25-1.5.5625v1.5625l1.53125-.46875c-.00653-.60429-.02331-1.09092-.03125-1.65625zm-.3125.34375c.00016.38328-.00179.77466 0,1.1875l-.90625.3125-.03125-1.1875 .9375-.3125zm-1.9375.53125-1.0625.3125v1.59375l1-.375 .0625-1.53125zm-.3125.28125 .03125,1.1875-.5.15625v-1.1875l.46875-.15625zm4.21875.96875-.9375.3125c.00164.60416.0001,1.17708 0,1.78125l.9375-.3125c.00104-.71875.00039-1.0625 0-1.78125zm-.28125.25c.00081.46296-.00018.9159 0,1.40625l-.375.125c-.00152-.46887-.0187-.93758-.03125-1.40625l.40625-.125zm-1.375.28125-1.5.5625v1.8125l1.46875-.5625c.00047-.65625.03125-1.15625.03125-1.8125zm-.28125.3125c-.00084.47917-.0003.95833 0,1.4375l-.90625.34375-.03125-1.46875 .9375-.3125zm-1.9375.53125-1.0625.375-.03125,1.78125 1.09375-.375v-1.78125zm-.3125.21875 .03125,1.46875-.5.15625v-1.4375l.46875-.1875zm4.1875,1.25-.90625.3125c.00422.90216-.00287.85789 0,1.625l.90625-.3125c.0001-.78116.00092-.72259 0-1.625zm-.28125.21875c.00025.46655.00016.8135 0,1.28125l-.34375.125c-.00684-.40753-.02582-.75254-.03125-1.28125l.375-.125zm-1.375.3125-1.4375.53125v1.59375l1.4375-.4375c.00092-.74412.00162-.80245 0-1.6875zm-.28125.28125c.00053.4597.00059.83033 0,1.28125l-.875.28125-.03125-1.25 .90625-.3125zm-1.90625.5625-1.0625.375-.0625,1.5625 1.15625-.375-.03125-1.5625zm-.3125.25 .03125,1.21875-.53125.1875v-1.25l.5-.15625zm4.09375,1.0625-.78125.25c.00176.51797-.00109.91119 0,1.28125l.8125-.25c.00037-.34992-.03153-.76437-.03125-1.28125zm-.21875.21875c5e-005,.30768.0001.60863 0,.84375l-.34375.15625c.00021-.26877.00043-.5528 0-.875l.34375-.125zm-1.375.3125-1.375.46875v1.46875l1.375-.59375c.00133-.3413-.00119-.83021 0-1.34375zm-.28125.28125c.00013.34615.00037.68754 0,.9375l-.84375.34375-.03125-1 .875-.28125zm-1.84375.4375-1.1875.375 .0625,1.5 1.125-.375v-1.5zm-.34375.3125 .03125,1.0625-.5625.21875v-1.09375l.53125-.1875z" fill-rule="evenodd"/>
</svg>
