<?xml version="1.0" encoding="UTF-8"?>
<svg viewBox="0 0 128 128" xmlns="http://www.w3.org/2000/svg" xmlns:xlink="http://www.w3.org/1999/xlink">
 <defs>
  <filter id="ba">
   <feGaussianBlur stdDeviation="1.88179"/>
  </filter>
  <linearGradient id="f">
   <stop stop-color="#010051" offset="0"/>
   <stop stop-color="#020090" offset="1"/>
  </linearGradient>
  <linearGradient id="a">
   <stop stop-color="#4a585b" offset="0"/>
   <stop stop-color="#5e7074" offset="1"/>
  </linearGradient>
  <linearGradient id="c">
   <stop stop-color="#b1b1b1" offset="0"/>
   <stop stop-color="#e4e4e4" offset="1"/>
  </linearGradient>
  <linearGradient id="e">
   <stop stop-color="#6a3c1d" offset="0"/>
   <stop stop-color="#8f5127" offset="1"/>
  </linearGradient>
  <linearGradient id="d">
   <stop stop-color="#004300" offset="0"/>
   <stop stop-color="#006200" offset="1"/>
  </linearGradient>
  <linearGradient id="b">
   <stop stop-color="#4f0000" offset="0"/>
   <stop stop-color="#610000" offset="1"/>
  </linearGradient>
  <linearGradient id="az" x1="14.703" x2="29.751" y1="63.914" y2="103.09" gradientUnits="userSpaceOnUse" xlink:href="#c"/>
  <linearGradient id="ay" x1="89.632" x2="92.132" y1="76.86" y2="75.892" gradientUnits="userSpaceOnUse" xlink:href="#b"/>
  <linearGradient id="ax" x1="93.445" x2="95.257" y1="75.86" y2="74.298" gradientUnits="userSpaceOnUse" xlink:href="#d"/>
  <linearGradient id="aw" x1="94.195" x2="95.882" y1="72.548" y2="71.36" gradientUnits="userSpaceOnUse" xlink:href="#b"/>
  <linearGradient id="av" x1="93.507" x2="94.351" y1="69.048" y2="68.11" gradientUnits="userSpaceOnUse" xlink:href="#d"/>
  <linearGradient id="au" x1="89.695" x2="91.132" y1="68.735" y2="67.36" gradientUnits="userSpaceOnUse" xlink:href="#b"/>
  <linearGradient id="at" x1="91.195" x2="93.945" y1="72.298" y2="69.86" gradientUnits="userSpaceOnUse" xlink:href="#f"/>
  <linearGradient id="as" x1="88.257" x2="90.445" y1="72.11" y2="70.173" gradientUnits="userSpaceOnUse" xlink:href="#d"/>
  <linearGradient id="ar" x1="120.05" x2="126.21" y1="71.677" y2="59.008" gradientUnits="userSpaceOnUse" xlink:href="#b"/>
  <linearGradient id="aq" x1="94.368" x2="99.504" y1="56.269" y2="47.423" gradientUnits="userSpaceOnUse" xlink:href="#b"/>
  <linearGradient id="ap" x1="64.237" x2="68.07" y1="91.194" y2="83.661" gradientUnits="userSpaceOnUse" xlink:href="#b"/>
  <linearGradient id="ao" x1="48.007" x2="54.32" y1="82.75" y2="91.482" gradientUnits="userSpaceOnUse" xlink:href="#b"/>
  <linearGradient id="an" x1="21.382" x2="22.382" y1="68.423" y2="71.235" gradientUnits="userSpaceOnUse" xlink:href="#f"/>
  <linearGradient id="am" x1="18.632" x2="19.695" y1="69.048" y2="70.923" gradientUnits="userSpaceOnUse" xlink:href="#d"/>
  <linearGradient id="al" x1="20.445" x2="21.57" y1="72.048" y2="74.235" gradientUnits="userSpaceOnUse" xlink:href="#b"/>
  <linearGradient id="ak" x1="23.007" x2="24.195" y1="73.173" y2="74.673" gradientUnits="userSpaceOnUse" xlink:href="#d"/>
  <linearGradient id="aj" x1="23.445" x2="25.07" y1="69.36" y2="71.673" gradientUnits="userSpaceOnUse" xlink:href="#b"/>
  <linearGradient id="ai" x1="21.32" x2="24.945" y1="65.61" y2="67.298" gradientUnits="userSpaceOnUse" xlink:href="#d"/>
  <linearGradient id="ah" x1="18.132" x2="20.007" y1="65.485" y2="66.235" gradientUnits="userSpaceOnUse" xlink:href="#b"/>
  <linearGradient id="ag" x1="39.632" x2="44.882" y1="88.514" y2="79.098" gradientUnits="userSpaceOnUse" xlink:href="#b"/>
  <linearGradient id="af" x1="89.07" x2="98.132" y1="107.49" y2="91.86" gradientUnits="userSpaceOnUse" xlink:href="#e"/>
  <linearGradient id="ae" x1="97.632" x2="86.382" y1="89.298" y2="109.92" gradientUnits="userSpaceOnUse" xlink:href="#e"/>
  <linearGradient id="ad" x1="16.632" x2="24.07" y1="84.173" y2="99.298" gradientUnits="userSpaceOnUse" xlink:href="#e"/>
  <linearGradient id="ac" x1="23.632" x2="17.695" y1="96.985" y2="81.735" gradientUnits="userSpaceOnUse" xlink:href="#e"/>
  <linearGradient id="ab" x1="115.51" x2="122.38" y1="47.985" y2="39.61" gradientUnits="userSpaceOnUse" xlink:href="#a"/>
  <linearGradient id="aa" x1="107.57" x2="112.07" y1="31.36" y2="44.548" gradientUnits="userSpaceOnUse" xlink:href="#a"/>
  <linearGradient id="z" x1="74.445" x2="84.132" y1="44.798" y2="28.11" gradientUnits="userSpaceOnUse" xlink:href="#a"/>
  <linearGradient id="y" x1="67.945" x2="76.32" y1="27.61" y2="21.048" gradientUnits="userSpaceOnUse" xlink:href="#a"/>
  <linearGradient id="x" x1="57.007" x2="63.632" y1="34.048" y2="23.985" gradientUnits="userSpaceOnUse" xlink:href="#a"/>
  <linearGradient id="w" x1="71.007" x2="75.07" y1="57.298" y2="70.548" gradientUnits="userSpaceOnUse" xlink:href="#a"/>
  <linearGradient id="v" x1="59.695" x2="67.445" y1="65.673" y2="59.11" gradientUnits="userSpaceOnUse" xlink:href="#a"/>
  <linearGradient id="u" x1="53.257" x2="59.945" y1="50.36" y2="59.423" gradientUnits="userSpaceOnUse" xlink:href="#a"/>
  <linearGradient id="t" x1="38.695" x2="46.757" y1="62.735" y2="50.173" gradientUnits="userSpaceOnUse" xlink:href="#a"/>
  <linearGradient id="s" x1="46.32" x2="52.195" y1="24.642" y2="34.704" gradientUnits="userSpaceOnUse" xlink:href="#a"/>
  <linearGradient id="r" x1="24.632" x2="33.82" y1="53.329" y2="41.892" gradientUnits="userSpaceOnUse" xlink:href="#a"/>
  <linearGradient id="q" x1="35.257" x2="42.132" y1="33.079" y2="42.079" gradientUnits="userSpaceOnUse" xlink:href="#a"/>
  <linearGradient id="p" x1="57.168" x2="70.141" y1="49.643" y2="39.611" gradientUnits="userSpaceOnUse" xlink:href="#c"/>
  <linearGradient id="o" x1="43.589" x2="51.114" y1="40.476" y2="53.449" gradientUnits="userSpaceOnUse" xlink:href="#c"/>
  <linearGradient id="n" x1="80.692" x2="100.58" y1="72.995" y2="51.805" gradientUnits="userSpaceOnUse" xlink:href="#c"/>
  <linearGradient id="m" x1="103.7" x2="111.05" y1="51.546" y2="67.719" gradientUnits="userSpaceOnUse" xlink:href="#c"/>
  <linearGradient id="l" x1="109.75" x2="133.19" y1="91.849" y2="77.232" gradientUnits="userSpaceOnUse" xlink:href="#c"/>
  <linearGradient id="k" x1="77.838" x2="118.57" y1="113.9" y2="72.822" gradientUnits="userSpaceOnUse" xlink:href="#c"/>
  <linearGradient id="j" x1="59.07" x2="76.714" y1="119.83" y2="89.124" gradientUnits="userSpaceOnUse" xlink:href="#c"/>
  <linearGradient id="i" x1="48.519" x2="62.962" y1="89.038" y2="113.25" gradientUnits="userSpaceOnUse" xlink:href="#c"/>
  <linearGradient id="h" x1="35.2" x2="45.838" y1="107.46" y2="90.595" gradientUnits="userSpaceOnUse" xlink:href="#c"/>
  <linearGradient id="g" x1="12.8" x2="17.341" y1="50.768" y2="58.119" gradientUnits="userSpaceOnUse" xlink:href="#c"/>
 </defs>
 <path d="m39.976 53.548c-0.52682 1.208-1.753 2.8905-2.5448 4.3058-1.7028 2.9351-3.2288 5.908-4.8614 8.8581l-14.103-4.1246-14.673 12.137c7.4828 2.6966 4.3277 0.58806-0.02603 0.32869 0.71703 1.6809 0.62109 3.452 1.8519 5.076-1.9258 0.54312-2.7732 0.57001-2.0569 1.8236l5.0965 16.729c7.4925 2.3853 11.988 6.2141 22.561 9.0775 1.1617 0.31462 8.9654-7.8581 13.404-7.57 3.4409 0.22338 3.7548 8.9135 4.3922 9.1176 1.0005 0.20438-8.8233 9.3851-7.4065 9.0641 1.931-0.65758 11.473 7.6794 13.404 7.0219 0.81511 2.5759 5.9545-8.1671 6.7696-5.5912 4.4595 1.4012-4.5729-5.3273-0.11346-3.9261-4.0621-12.253-4.004-12.079 0.08782 0.07901 4.223-0.98417 8.7723-1.784 12.793-2.8827 0.39452-0.86258 3.1453-0.82979 4.5717-1.3127l8.304-1.7149c1.3956 0.05485 3.6514-0.73157 5.3786-1.001 7.0593-1.4956 13.856-3.0104 21.03-4.4511 0.63916 0.72412 1.1005-6.177 2.5395-6.26 2.7591-0.6328-0.01685-6.1088 2.7423-6.7416-2.8631-9.1289 2.0575-7.8794-0.80562-17.008-1.4053-0.74972-2.5551-2.1296-3.8624-3.1211-4.9784-4.2747-11.687-6.6468-16.665-10.921 0.32274 1.3345 1.2697 6.3954 0.70723 4.4336-0.39524-0.30724-1.7014-2.2153-2.1834-1.5806-1.9564 3.9468-2.5498 5.9541-4.2781 9.9238l3.5399 11.238c-7.5439-2.7966-0.67568 1.1466-2.033-2.3688l-3.1065-10.353c-11.697 3.422-11.364 3.3462-0.08782-0.07902l-16.464-10.809c-2.2036 0.36936-28.375 8.078-14.537 3.9824l14.359-3.9508c-0.85259-0.41758-3.5203 0.65192-5.0746 0.80923-5.1988 0.97748-9.9772 2.3124-14.83 3.584-4.6292-3.932-9.0313-7.9388-13.82-11.821zm2.8604 10.193c2.7524 9.6171 2.6721 9.5838 0 0zm-10.579 3.5557c-0.22581 0.49833-0.52358 0.50329 0 0z" fill-opacity=".66667" fill-rule="evenodd" filter="url(#ba)"/>
 <path d="m10.205 92.8 0.25946-35.114 10.724-4.1514 13.405 22.227-0.17297 33.989-24.216-16.951z" fill="url(#az)" fill-rule="evenodd"/>
 <path d="m12.8 55.438 0.08649-10.032 8.9946 6.054-8.7351 4.6703-0.34595-0.69189z" fill="url(#g)" fill-rule="evenodd"/>
 <path d="m34.335 110.1 0.60541-34.162 10.897-4.8432-0.08649 32.086-11.416 6.9189z" fill="url(#h)" fill-rule="evenodd"/>
 <path d="m45.665 118.49 0.08649-54.919 11.676 11.07 0.25946 52.151-12.022-8.3027z" fill="url(#i)" fill-rule="evenodd"/>
 <path d="m57.773 126.96-0.43243-53.016 14.184-6.4 0.17297 53.449-0.43243 0.51892-13.492 5.4486z" fill="url(#j)" fill-rule="evenodd"/>
 <path d="m71.524 120.56 0.17297-39.524 19.027-23.784 22.486 15.654 0.25946 31.568-41.946 16.086z" fill="url(#k)" fill-rule="evenodd"/>
 <path d="m113.47 105.17-0.51892-52.67 14.616-7.3514-0.17298 54.141-13.924 5.8811z" fill="url(#l)" fill-rule="evenodd"/>
 <path d="m112.78 72.389-11.157-7.5243 0.08649-22.573 11.33 10.205-0.25946 19.892z" fill="url(#m)" fill-rule="evenodd"/>
 <path d="m100.32 63.914 0.25946-24.216-20.584 10.897 18.768 12.195 1.5568 1.1243z" fill="url(#n)" fill-rule="evenodd"/>
 <path d="m47.222 40.649-3.4595 0.69189-0.17297-8.8216 11.849 9.427-2.7676 6.4865-5.4486-7.7838z" fill="url(#o)" fill-rule="evenodd"/>
 <path d="m60.022 39.524 9.5135-4.8432 0.60541 9.8595-5.5351-3.4595-2.6811 3.027-1.9027-4.5838z" fill="url(#p)" fill-rule="evenodd"/>
 <path d="m13.007 45.423 18.562-24 12.938 8.25-1.0625 1.6875 0.5625 10.062-8.3125 2.625-13.812 7.4375-8.875-6.0625z" fill="url(#q)" fill-rule="evenodd"/>
 <path d="m10.632 57.423 11.375-6.0625 13.875-7.25s8.1875-2.875 8.4375-2.875 3-0.625 3-0.625l-26.188 12.938-9.75 4-0.75-0.125z" fill="url(#r)" fill-rule="evenodd"/>
 <path d="m43.445 31.673 7.9375-18.188 4.4375-9.4375 0.125 0.3125-0.75 37.75-11.75-10.438z" fill="url(#s)" fill-rule="evenodd"/>
 <path d="m20.945 53.548 26.312-12.812 5.4375 7.625-6.75 15.562-0.125 7.375-11.188 4.75-13.688-22.5z" fill="url(#t)" fill-rule="evenodd"/>
 <path d="m45.945 63.735 12.062-27.875 0.125 0.75-0.875 38-11.312-10.875z" fill="url(#u)" fill-rule="evenodd"/>
 <path d="m57.382 74.173 14.25-6.6875-13.312-31.438-0.1875 0.5-0.75 37.625z" fill="url(#v)" fill-rule="evenodd"/>
 <path d="m61.882 44.298 2.625-3.375 26.062 16.438-18.812 23.812-0.125-13.875-9.75-23z" fill="url(#w)" fill-rule="evenodd"/>
 <path d="m55.257 41.923 0.625-38s0-0.875 0.375 0 13.188 31.188 13.188 31.188l-9.5625 4.4375-1.6875-3.75s-0.0625-0.75-0.25-0.0625-2.625 6.1875-2.6875 6.1875z" fill="url(#x)" fill-rule="evenodd"/>
 <path d="m65.88243,26.98547 9.9375-4.75 11.5625-4.5-.0625.5-20.5,10.25-.875-1-.0625-.5z" fill="url(#y)" fill-rule="evenodd"/>
 <path d="m66.632 28.61 20.875-10.438 13 21.375-20.438 11.188-9.9375-6.3125-0.75-10-2.75-5.8125z" fill="url(#z)" fill-rule="evenodd"/>
 <path d="m101.69 42.298 12.062-28.375-0.125 16.188-0.5 22.562-11.438-10.375z" fill="url(#aa)" fill-rule="evenodd"/>
 <path d="m113.32 52.298 0.3125-32.5 0.25-6.1875 13.625 31.875-14.188 6.8125z" fill="url(#ab)" fill-rule="evenodd"/>
 <path d="m14.07 95.298 0.5625-13.312 6.25-5.3125 5.25 12.688-0.3125 14.375-11.75-8.4375z" fill="url(#ac)" fill-rule="evenodd"/>
 <path d="m15.445 96.485 0.4375-13.875 4.5625-4.3125 4.375 11.562-0.1875 12.938-9.1875-6.3125z" fill="url(#ad)" fill-rule="evenodd"/>
 <path d="m85.32 115.55v-21.938l6.6875-12.688 8.5 8.375-0.3125 20.375-14.875 5.875z" fill="url(#ae)" fill-rule="evenodd"/>
 <path d="m86.507 114.86 0.0625-20.5 5.875-11.5 6.9375 6.6875-0.3125 20.625-12.562 4.6875z" fill="url(#af)" fill-rule="evenodd"/>
 <path d="m39.632 90.235 0.1875-8.25 2.375-4.4375 2.6875 2.4375v8.25l-5.25 2z" fill="url(#ag)" fill-rule="evenodd"/>
 <path d="m20.38243,68.23547-2.625-1.1875 .1875-1.1875 1.3125-2.5 2.125-.4375 .0625,3.3125-.4375.6875-.625,1.3125z" fill="url(#ah)" fill-rule="evenodd"/>
 <path d="m21.63243,66.42297-.3125-3.5625 1.5.5625 2.125,3.125 .5625,1.75-2.75.0625-.375-1.25-.75-.6875z" fill="url(#ai)" fill-rule="evenodd"/>
 <path d="m22.63243,68.36047 2.8125-.25 .4375,2.125 .125,2.1875-.625,1.8125-2.5625-2.8125 .0625-1.125-.25-1.9375z" fill="url(#aj)" fill-rule="evenodd"/>
 <path d="m22.75743,71.54797 .5.1875 2.1875,2.625-.9375,1.1875-1.125.4375h-1.5v-1.5625l.1875-2.0625 .375-.125 .3125-.6875z" fill="url(#ak)" fill-rule="evenodd"/>
 <path d="m22.19493,72.29797-1.5-1.75-1.75,1.9375 .6875,1.4375 .9375,1.0625 1.0625.6875 .125-1.9375 .4375-1.4375z" fill="url(#al)" fill-rule="evenodd"/>
 <path d="m17.695 67.11 0.25 3 0.9375 2.375 2.0625-2.0625-0.5-1.125-0.0625-0.875-2.6875-1.3125z" fill="url(#am)" fill-rule="evenodd"/>
 <path d="m20.69493,70.48547-.1875-1.5-.0625-.9375 .625-.9375 .5625-.5 .6875.5625 .625,2.125-.0625,1.9375-.5,1.125-.9375-.375-.75-1.5z" fill="url(#an)" fill-rule="evenodd"/>
 <path d="m48.007 92.548 0.3125-11.188 3.125-3.6875 2.875 6.6875v11l-6.3125-2.8125z" fill="url(#ao)" fill-rule="evenodd"/>
 <path d="m61.82 95.61 0.125-11.75 2.75-6.3125 3.375 3.4375-0.0625 11.812-6.1875 2.8125z" fill="url(#ap)" fill-rule="evenodd"/>
 <path d="m90.945 57.485 0.3125-5.875 2.1875-4.1875 2.875 2.75-0.125 8.125-2.75 1-2.5-1.8125z" fill="url(#aq)" fill-rule="evenodd"/>
 <path d="m117.88 63.485s2.625-7.375 2.8125-6.75 3.3125 3.6875 3.3125 3.6875l0.0625 11.75-6.125 2.625-0.0625-11.312z" fill="url(#ar)" fill-rule="evenodd"/>
 <path d="m88.007 68.298 2.4375 1.9375-0.4375 1.375-0.0625 1.8125s-2.0625 2.3125-2.4375 1.875-0.5-2.1875-0.5-2.1875l0.0625-2.3125 1.25-2.4375-0.3125-0.0625z" fill="url(#as)" fill-rule="evenodd"/>
 <path d="m89.75743,72.36047 .625-2.25 1.125-.6875h1.0625l.8125.8125c0,0 .25,1.3125.1875,1.5625s-.625,2-.625,2l-1.25.875-1-.0625-.8125-.875-.125-1.375z" fill="url(#at)" fill-rule="evenodd"/>
 <path d="m90.50743,70.23547-2.25-1.8125 .75-1.25 1.4375-1.1875 1.375-.6875 .875.375-.375,2.25 .0625,1.4375-1.25.25-.625.625z" fill="url(#au)" fill-rule="evenodd"/>
 <path d="m92.31993,69.36047 .3125-3.8125 1.5.5625 1.5625,1.375 .6875,1.8125-2.8125,1.375-.1875-.5625-1.0625-.75z" fill="url(#av)" fill-rule="evenodd"/>
 <path d="m95.81993,74.29797-2.5-1.1875 .1875-1.3125 .125-.875 2.5-1.5625 .25,1.375-.0625,1.75-.5,1.8125z" fill="url(#aw)" fill-rule="evenodd"/>
 <path d="m92.257 78.235-0.8125-3.3125 1.125-0.5625 0.875-1.375 2.4375 1.375-1.1875 2.1875-2.4375 1.6875z" fill="url(#ax)" fill-rule="evenodd"/>
 <path d="m90.56993,74.54797-.75-1-2.4375,1.625 .8125,1.5625 1.5625,1.4375 2.375.0625-.75-3.4375-.8125-.25z" fill="url(#ay)" fill-rule="evenodd"/>
 <path d="m10.205 92.8 0.25946-35.114 10.724-4.1514 13.405 22.227-0.17297 33.989-24.216-16.951z" fill-opacity=".15686" fill-rule="evenodd"/>
 <path d="m12.8 55.438 0.08649-10.032 8.9946 6.054-8.7351 4.6703-0.34595-0.69189z" fill-opacity=".15686" fill-rule="evenodd"/>
 <path d="m45.665 118.49 0.08649-54.919 11.676 11.07 0.25946 52.151-12.022-8.3027z" fill-opacity=".15686" fill-rule="evenodd"/>
 <path d="m112.78 72.389-11.157-7.5243 0.08649-22.573 11.33 10.205-0.25946 19.892z" fill-opacity=".15686" fill-rule="evenodd"/>
 <path d="m47.222 40.649-3.4595 0.69189-0.17297-8.8216 11.849 9.427-2.7676 6.4865-5.4486-7.7838z" fill-opacity=".15686" fill-rule="evenodd"/>
 <path d="m13.007 45.423 18.562-24 12.938 8.25-1.0625 1.6875 0.5625 10.062-8.3125 2.625-13.812 7.4375-8.875-6.0625z" fill-opacity=".15686" fill-rule="evenodd"/>
 <path d="m43.445 31.673 7.9375-18.188 4.4375-9.4375 0.125 0.3125-0.75 37.75-11.75-10.438z" fill-opacity=".15686" fill-rule="evenodd"/>
 <path d="m45.945 63.735 12.062-27.875 0.125 0.75-0.875 38-11.312-10.875z" fill-opacity=".15686" fill-rule="evenodd"/>
 <path d="m61.882 44.298 2.625-3.375 26.062 16.438-18.812 23.812-0.125-13.875-9.75-23z" fill-opacity=".15686" fill-rule="evenodd"/>
 <path d="m101.69 42.298 12.062-28.375-0.125 16.188-0.5 22.562-11.438-10.375z" fill-opacity=".15686" fill-rule="evenodd"/>
 <path d="m56.00743.86047-.3125.0625-.3125,3.1875-11.09375,25-12.84375-7.90625-18.84375,24.1875-.0625,10.59375-2.3125,1.46875-.21875,35.40625 24.15625,17.53125 11.375-6.90625 .03125,15.25 12.34375,8.8125 13.65625-5.90625 .21875-.75 41.4375-16.03125 .21875.65625 14.21875-6.09375v-54.375l-13.34375-31-.375-3.25-.3125.0625-.3125,3.1875c-4.01292,9.04445-8.25038,18.54863-11.84375,28l.03125,22.1875-.84375-.53125 .15625-24.625-13.375-21.46875-11.34375,4.25-9.6875,4.78125-10.0625-22.71875-.34375-3.0625zm0,3.25h.0625l12.6875,30.46875-8.8125,4.625-1.3125-2.96875-.375-3.25-.3125.0625-.3125,3.1875-2.125,4.9375 .5-37.0625zm-.25.03125-.8125,37.25-11.125-9.4375 11.9375-27.8125zm-2.21875,6.46875-2.625,6.875 .375.1875 2.5625-6.9375-.3125-.125zm3.75.3125-.375.03125 5.21875,13.875-2.0625.59375-.78125-2.90625-.28125.0625 .78125,2.90625-2.5.71875-.125-9.21875-.3125.0625 .21875,9.21875-.375.125 .03125.40625 .375-.09375 .0625,3h.1875l-.03125-3.0625 2.59375-.78125 2.46875,9.0625-2.46875.90625 .125.34375 2.40625-.96875 .28125,1 .28125-.125-.28125-.96875 1.71875-.6875v-.25l-1.78125.65625-2.46875-9.03125 2.0625-.625 3.3125,8.78125 .25.03125-3.28125-8.875 1.21875-.375-.34375-.28125-1,.28125-5.125-13.8125zm56.6875,3.625 13,30.65625-13.40625,6.59375 .40625-37.25zm-.375.21875-.6875,37.0625-10.8125-9.875 11.5-27.1875zm-59.84375,2.1875-.5,4.28125-3.375-1.3125-.25.0625 3.59375,1.59375-.40625,3.375h.4375l.3125-3.21875 .8125.375-.125-.5-.65625-.25 .40625-4.40625h-.25zm33.4375,1-20.125,10.0625-.78125-.65625 9.75-4.96875 11.15625-4.4375zm.125.5625 12.625,21.03125-19.875,10.875-9.46875-5.90625-.9375-10.3125-2.375-5.4375 20.03125-10.25zm28.15625.125-.125.125 5.3125,16.375h.1875l-5.375-16.5zm-2.96875.5-.84375,22.71875-2.03125-1.71875c.26101-.9245.51141-1.85928.78125-2.78125h-.125c-.27421.90867-.55802,1.76872-.84375,2.625l-2.9375-2.53125 4.03125-9.90625-.25-.0625-4,9.78125-.84375-.71875-.125.375 .84375.6875-1,2.4375 .25.125 .96875-2.375 2.96875,2.4375c-.40056,1.20154-.78653,2.39747-1.125,3.6875l.3125.1875c.32016-1.24584.65201-2.48064 1-3.71875l2.09375,1.75-.125,3.5625 .375.0625 .125-3.34375 .4375.375 .0625-.1875-.5-.4375 .75-23.03125h-.25zm-81,2.5 12.375,8.40625-.9375,1.5 .5,9.78125-7.625,2.625-.03125.03125h-.03125l-13.875,6.9375-8.34375-5.5 17.96875-23.78125zm53.25.09375-.3125.0625 5.28125,8.03125-5.1875,2.65625 .25.25 5.125-2.59375 3.5625,5.40625-10.6875,5.03125-5.375-9.75c2.26317-.92348 4.52324-1.87745 6.78125-2.8125v-.125c-2.33513.8556-4.70246,1.64449-7.03125,2.5l-.15625-.3125-.4375.125 .1875.3125c-2.04275.7611-4.04489,1.59921-5.96875,2.625l.125.25c2.04346-.77771 4.06834-1.58202 6.09375-2.40625l5.46875,9.75-7.40625,3.46875 .375.125 7.15625-3.375 1.40625,2.5 .25-.1875-1.34375-2.4375 10.71875-5.03125 .875,1.3125 .1875-.1875-.8125-1.25 .875-.40625-.125-.25-.90625.4375-3.5625-5.4375 1.9375-.96875-.1875-.3125-1.9375.96875-5.21875-7.96875zm-35.28125,2.125-2.4375,6.0625-1.1875-.9375-.1875.0625 1.3125,1.09375-.625,1.53125 .125.1875 .65625-1.59375 4.90625,4.09375-.78125,3.125 .1875.1875 .78125-3.15625 1.375,1.15625 .25-.375-1.53125-1.1875 .8125-3.25-.25.0625-.75,3.03125-4.9375-3.90625 2.53125-6.1875h-.25zm65.28125.3125c.11744,4.8335-.06661,9.72928.0625,14.5625l.5.125c-.13106-4.83317-.0676-9.85404-.1875-14.6875h-.375zm-82.78125,1.21875c-.81447,1.16436-1.64561,2.32705-2.46875,3.5l-.78125-.5-.25.0625 .9375.59375c-3.74895,5.3403-7.59306,10.71558-11.59375,15.65625l.3125.25c4.38967-4.99786 7.83306-10.30285 11.5-15.71875l8.59375,5.59375-3.875,5.03125 .375.0625 3.78125-4.90625 2.28125,1.5 .25-.25-2.34375-1.5 2.21875-2.84375-.1875-.3125-2.3125,2.96875-8.65625-5.53125c.76933-1.13517 1.54199-2.2621 2.34375-3.40625l-.125-.25zm12.03125,7.53125 10.8125,9.6875-2.34375,5.25-5.15625-7.46875-2.90625.625-.40625-8.09375zm25.25,2.5625 .4375,8.46875-5.21875-3.25-2.59375,2.84375-1.6875-3.8125 9.0625-4.25zm-37.75.59375c-.86594,1.05599-1.75097,2.09711-2.65625,3.125l-1.40625-1.0625-.375.0625 1.59375,1.1875c-2.11093,2.39314-4.25524,4.76838-6.125,7.34375l.1875.0625c1.86345-2.37597 3.99289-4.83043 6.125-7.25l4.21875,3.15625 .125-.1875-4.15625-3.15625c.89343-1.0133 1.80005-2.05286 2.65625-3.03125l-.1875-.25zm26.46875.15625-.84375,37.6875-10.8125-9.84375 11.65625-27.84375zm.375.21875 12.84375,30.875-13.0625,6.125 .21875-37zm62.46875,2.625-.25.25 2.3125,4.40625-7.6875,3.78125 .125-4.84375h-.3125l-.09375,4.96875-.3125.15625-.125.3125 .4375-.21875-.03125,1.28125 .25.0625 .03125-1.46875 7.875-3.71875 .78125,1.46875 .25-.3125-.6875-1.3125 .84375-.40625-.1875-.3125-.84375.40625-2.375-4.5zm-20.53125,1.375-.15625,22.90625-6.125-4.09375c.7398-.30646 1.49997-.56477 2.25-.84375v-.03125h.0625l.03125-8.59375-3.03125-2.6875-2.40625,4.6875-.375,5.40625-9.9375-6.34375 19.6875-10.40625zm-53.84375.40625-25.6875,12.46875-9.21875,3.90625 24.53125-13 1.53125-.5c-1.13109.55569-2.21479,1.1176-3.28125,1.6875l-.625.125-.125.1875 .25-.03125c-3.6637,1.97521-7.09333,3.98978-11.03125,5.875l.375.3125c4.23498-2.00276 7.76441-4.18545 11.65625-6.34375l2.625-.375 .4375-.375-2.46875.4375c.84141-.46148 1.67047-.91726 2.5625-1.375l-.21875-.15625 8.6875-2.84375zm.6875.21875 5.03125,7.5-6.59375,14.8125-.125,7.25-10.21875,5-13.75-21.96875 25.65625-12.59375zm17.28125.25 25.875,16.15625-18.40625,22.6875v-13l-9.59375-22.59375 2.125-3.25zm37.625,1.65625 10.53125,9.4375 .125,19.34375-10.375-6.96875-.28125-21.8125zm-46.625,1.125-1.8125,4.40625-.25-.09375-.1875.1875 .34375.15625-3.8125,9.1875-.28125-.21875-.1875.1875 .375.28125-1.5625,3.78125 .375.3125 1.53125-3.84375 1.65625,1.21875-.6875,1.8125 .4375.375 .6875-1.875 2.65625,1.96875-.75,5.90625 .4375.125 .6875-5.78125 1.21875.90625-.0625-.3125-1.125-.84375 1.03125-8.84375-.3125.125-1.09375,8.4375-2.59375-1.9375 1.09375-3-.4375-.25-1.09375,2.9375-1.625-1.21875 3.75-9.28125 1.21875.5625 .1875-.3125-1.3125-.53125 1.75-4.34375-.25-.1875zm-10.1875.09375-.25.125 1.9375,3-9.9375,4.625-1.15625-2.25-.375.3125 1.125,2.125-3.65625,1.6875 .3125.1875 3.5-1.625 2.9375,5.46875c-1.45292.66555-2.9435,1.26501-4.53125,1.6875l-.625.375c1.80236-.51064 3.53316-1.16257 5.25-1.875l2.9375,5.46875 .25-.0625-2.875-5.53125c2.85672-1.2028 5.64266-2.5939 8.40625-3.9375l-.1875-.3125c-2.89555,1.20084-5.53621,2.7658-8.3125,4.0625l-2.875-5.53125 9.96875-4.65625 2.03125,3.15625 .3125-.3125-2.03125-3 1.59375-.75-.1875-.1875-1.5625.71875-2-2.96875zm15.40625.46875-.1875.25c1.29232,6.92629 4.48109,13.22242 7.125,19.71875l-6.03125,2.40625-1.46875-8.21875-.3125-.0625 1.5,8.40625-1.1875.46875v.25l1.21875-.5 .34375,1.875h.3125l-.34375-1.96875 6.0625-2.40625c.20741.51288.42606,1.0152.625,1.53125l.1875-.0625-.59375-1.53125 1.0625-.4375v-.3125l-1.1875.46875c-2.54122-6.56618-5.09237-13.12995-7.125-19.875zm4,.5625-.1875.3125c.9301.55806 7.42496,4.66606 11.75,7.40625l-2.53125,3.4375c-.59638-.34406-1.57475-.91653-1.78125-1.03125l-.25.1875c.19478.10821 1.2482.70309 1.875,1.0625l-1.65625,2.28125 .25.1875 1.625-2.3125c1.96811,1.12955 3.58388,2.03134 5.53125,3.15625l-5.375,6.1875 .375.0625 5.21875-6.09375c.81632.47159 2.46875,1.40625 2.46875,1.40625l.0625-.25-2.375-1.375 2.625-3.0625-.125-.1875-2.71875,3.125-5.53125-3.21875 2.4375-3.5c1.60626,1.0177 4.0625,2.59375 4.0625,2.59375l.1875-.1875-4.09375-2.625 .8125-1.15625-.0625-.125-.875,1.21875c-4.3436-2.78757-10.84881-6.97804-11.71875-7.5zm-51.28125.46875 7.5625,5.71875-7.4375,4.03125-.125-9.75zm113.75.0625-.125,53.15625-13.15625,5.5625-.5-51.75 13.78125-6.96875zm-33.5,1.9375 2.25,2.53125 .125,7.6875c-.36132.13142-1.64786.57627-2.5625.9375l-2.25-1.46875 .375-5.34375 2.0625-4.34375zm-72.65625,6.21875 13.15625,21.8125v33.40625l-7.96875-5.8125 .09375-14.3125-5.25-12.71875-6.5625,5.5625-.46875,13.0625-3.46875-2.15625 .25-34.71875 10.21875-4.125zm5.25.0625-.25.0625 8.1875,13.46875-.8125.25-.0625.28125c.34639-.09456.68713-.21026 1.03125-.3125l2.15625,3.5625 .25-.0625-2.1875-3.5625c2.58533-.78015 5.11663-1.73968 7.65625-2.65625l-.125-.25c-2.4983.85156-5.09872,1.86399-7.65625,2.65625l-8.1875-13.4375zm94.40625,2.40625-2.9375,6.59375-.03125,12.28125 6.625-2.96875v-12.1875l-3.65625-3.71875zm.1875,1 2.9375,3.1875v11.3125c-1.56271.6798-3.85431,1.63919-5.40625,2.34375l-.1875-10.84375 2.65625-6zm-30.125.34375 22.03125,15.21875 .28125,30.875-12.5,5.21875v-20.03125l-8.46875-8.34375-6.96875,12.8125-.0625,21.5625-13.09375,5.1875v-38.9375l18.78125-23.5625zm-70.3125,4.65625c-1.9659.22931-2.68954,2.86378-2.875,4.9375 0,3.6645 1.91641,7.61198 4.34375,8.75s4.375-1.023 4.375-4.6875-1.94766-7.61198-4.375-8.75c-.38724-.14643-.73724-.23421-1.0625-.25-.1423-.00691-.27519-.01529-.40625,0zm.625.75h.125l.125,3.3125c-.58723.43517-.89829.97659-.96875,1.625l-2.21875-1.21875c.17913-1.8715 1.21986-3.61869 2.9375-3.71875zm.53125.0625c.09874.01393.20988.00711.3125.03125 1.29647.60783 2.59873,2.64276 3.3125,4.84375l-2.09375.0625c-.02966-.6537-.27407-1.24016-1.21875-1.78125l-.3125-3.15625zm24.65625,1.34375 10.65625,10.5625 .5,51.21875-11.25-8 .09375-53.78125zm45.5625.59375c-2.78576.54356-4.96875,4.01095-4.96875,7.65625s2.18299,6.23106 4.96875,5.6875 4.96875-4.01095 4.96875-7.65625c-.08053-3.46089-1.65864-5.43391-4.96875-5.6875zm-.0625.5c.21577-.00955.39536-.02209.59375,0-.01812,1.06931-.23283,2.43145-.21875,3.46875-.07593-.01855-.13719-.04511-.21875-.0625-.77989.18499-1.1662.4302-1.4375.78125l-1.8125-1.625c.83241-1.34308 1.95154-2.33963 3.09375-2.5625zm1.15625.125c1.54339.4198 2.46695,1.82872 2.96875,3.40625l-2,1.125c-.1635-.51713-.59295-.82564-1.28125-1.0625 .00997-1.02446.28357-2.42006.3125-3.46875zm-71.25,1c.90049.98551.95313,2.26733 1.0625,3.53125 .11589.72947-.26473,1.33551-.5,1.9375-.61764-.68599-.99289-1.7629-1.34375-2.65625-.2545-1.02542.02009-1.90179.78125-2.8125zm-3.5625.5625 2.25,1.28125c.01092.3662.04663.76995.125,1.1875 .04174.22236.08007.4141.125.625l-1.5,1.5c-.59249-1.42057-1-3.00963-1-4.40625-.00044-.06183-.00137-.12566 0-.1875zm52.96875.78125 .46875,53.0625-13.375,5.5-.40625-52.1875 13.3125-6.375zm-45.71875.34375c.26508.9208.4375,1.87366.4375,2.75 0,.94517-.19571,1.77998-.5,2.5l-2.15625-2.375c.01197-.31119.00163-.66507.03125-1.09375-.10056-.62304-.01978-1.17281 0-1.6875l2.1875-.09375zm63,.3125 1.8125,1.53125c-.14418.32097-.26652.74211-.46875,1.21875-.13811.67497-.19212,1.30624-.0625,1.875l-1.96875,1.1875c-.19659-.62088-.34375-1.27371-.34375-1.96875 0-1.31862.41619-2.67164 1.03125-3.84375zm3.5625.78125c1.48004.19298 1.48717,1.19048 1.46875,2.46875-.24902,1.39844-.91736,2.06473-2.09375,2.625-1.03456-.7058-1.29152-1.88076-1.0625-3 .18954-1.15586.8198-1.57856 1.6875-2.09375zm4.09375.09375c.11956.45938.22885.92098.28125,1.375 0,.97025-.22975,1.9497-.59375,2.875l-2.0625-1.09375c.07344-.20189.13463-.4007.21875-.625 .08258-.51847.14507-.94897.125-1.3125l2.03125-1.21875zm-75.25,1.34375c.19468.67693.45933,1.21797 1.0625,1.5l-.375,2.84375c-.76624-.57054-1.47753-1.58389-2.0625-2.8125l1.375-1.53125zm24.78125.71875 .09375,30.625-10.8125,7.125 .375-33.21875 10.34375-4.53125zm-22.46875.0625 2,2.46875c-.69212,1.23145-1.79844,1.86866-2.90625,1.5l.25-3.15625c.39445-.23844.57698-.51958.65625-.8125zm70.375,1.46875 2.0625,1.1875c-.69204,1.48421-1.7755,2.7188-2.90625,3.28125l-.84375-2.6875c.98609-.26022 1.33468-.87456 1.6875-1.78125zm-3.625.625c.22318.4663.58543.91036 1.21875,1.28125 .13562-.01135.2555-.04269.375-.0625l.53125,2.875-.125.03125c-1.5343.29938-3.06-.90797-3.875-2.6875l1.875-1.4375zm-25.125,3.15625-2.9375,6.625-.03125,12.28125c2.21227-.98986 4.41264-2.01084 6.625-3v-12.1875l-3.65625-3.71875zm-22.625.0625-2.40625,4.6875-.0625,8.6875c1.80519-.67633 3.59618-1.39825 5.40625-2.0625v-.03125h.0625l.03125-8.59375-3.03125-2.6875zm-21.21875.09375 4.90625,11.96875-.09375,13.78125-.5625-.40625v-13.03125l-4.4375-11.59375-4.96875,4.59375-.34375,13.25-.84375-.53125 .5-12.78125 5.84375-5.25zm30.71875.21875-3.4375,3.9375-.125,11.4375 6.59375,2.9375 .03125-11.53125-3.0625-6.78125zm-9.21875.28125 2.3125,2.59375 .125,7.8125c-.5461.19862-3.19055,1.21663-4.875,1.875l.3125-7.875 2.125-4.40625zm9.25.25 2.5,6.375 .03125,10.625-5.8125-2.5 .25-10.96875 3.03125-3.53125zm13.28125.15625 2.90625,2.9375v11.46875c-1.56271.67979-3.97931,1.98294-5.53125,2.6875l-.03125-11.3125 2.65625-5.78125zm-44.75.8125-.375,20.03125-3.84375-2.71875 .34375-13.5 3.875-3.8125zm.375.1875 3.9375,10.625-.0625,12.5-3.96875-2.8125 .09375-20.3125zm71.65625,2.375 7.9375,7.75-.09375,20.0625-.46875.21875v-20.46875l-7.15625-6.53125-6.03125,11.71875-.0625,20.375-.75.28125 .09375-21.21875 6.53125-12.1875zm.375,1.75 6.40625,6.21875-.0625,20.3125-6.1875,2.375-.15625-28.90625zm-.28125.5625 .0625,28.5-5.53125,2.125 .21875-19.875 5.25-10.75z" fill-rule="evenodd"/>
 <path d="m16.945 83.829-0.28125-0.0625 2.5938 3.375 0.09375-0.34375-2.4062-2.9688z" fill-rule="evenodd"/>
 <path d="m16.695 86.767-0.15625 0.1875 2.2188 3.9375 0.46875-0.0625-2.5312-4.0625z" fill-rule="evenodd"/>
 <path d="m16.414 90.11-0.21875 0.09375 2.9688 4.4062 0.21875-0.1875-2.9688-4.3125z" fill-rule="evenodd"/>
 <path d="m16.507 94.392-0.15625 0.21875 2.4688 2.875 0.15625-0.09375-2.4688-3z" fill-rule="evenodd"/>
 <path d="m17.945 81.454-0.09375 0.03125 1.375 2.25 0.1875-0.15625-1.4688-2.125z" fill-rule="evenodd"/>
 <path d="m20.63243,84.04797 .0625.1875 1.40625-.8125-.4375-.125-1.03125.75z" fill-rule="evenodd"/>
 <path d="m22.601 86.36-1.8438 0.78125v0.28125l2-0.84375-0.15625-0.21875z" fill-rule="evenodd"/>
 <path d="m23.75743,90.14172-2.9375.6875 .15625.34375 2.84375-.6875-.0625-.34375z" fill-rule="evenodd"/>
 <path d="m23.56993,93.48547-2.875.90625 .15625.25 2.9375-.90625-.21875-.25z" fill-rule="evenodd"/>
 <path d="m23.851 97.392-3.125 1.2188v0.25l3.1875-1.1875-0.0625-0.28125z" fill-rule="evenodd"/>
 <path d="m98.38243,89.98547-4.875,4.8125 .28125.15625 4.6875-4.6875-.09375-.28125z" fill-rule="evenodd"/>
 <path d="m98.132 93.923-4.7812 4.7812 0.34375 0.25 4.5938-4.8438-0.15625-0.1875z" fill-rule="evenodd"/>
 <path d="m98.414 101.02-5.0312 5.8438 0.28125 0.28125 4.8125-5.8438-0.0625-0.28125z" fill-rule="evenodd"/>
 <path d="m97.945 106.92c-1.5666 0.91442-2.49 2.4798-3.625 3.875l0.3125 0.1875c0.93108-1.3374 2.2879-2.9999 3.5312-4.0312l-0.21875-0.03125z" fill-rule="evenodd"/>
 <path d="m95.476 86.735-2.4062 2.6562 0.28125 0.1875 2.2812-2.7188-0.15625-0.125z" fill-rule="evenodd"/>
 <path d="m90.03868,89.11047-.28125.03125 2.0625.875 .09375-.125-1.875-.78125z" fill-rule="evenodd"/>
 <path d="m88.101 93.298-0.0625 0.3125 3.6562 1.2188 0.1875-0.3125-3.7812-1.2188z" fill-rule="evenodd"/>
 <path d="m87.601 97.579-0.0625 0.3125 4.1875 1.0938 0.125-0.34375-4.25-1.0625z" fill-rule="evenodd"/>
 <path d="m87.57 106.74-0.25 0.15625 3.7812 1 0.25-0.34375-3.7812-0.8125z" fill-rule="evenodd"/>
 <path d="m87.289 110.8 0.125 0.09375 3.7188 1.3125-0.03125-0.3125-3.8125-1.0938z" fill-rule="evenodd"/>
 <path d="m87.695 102.74-0.1875 0.15625 3.7812 1 0.125-0.28125-3.7188-0.875z" fill-rule="evenodd"/>
 <path d="m98.289 97.142-5.1562 6.0312 0.15625 0.09375 5.0625-5.9062-0.0625-0.21875z" fill-rule="evenodd"/>
</svg>
