<?xml version="1.0" encoding="UTF-8"?>
<svg viewBox="0 0 128 128" xmlns="http://www.w3.org/2000/svg" xmlns:xlink="http://www.w3.org/1999/xlink">
 <defs>
  <filter id="an">
   <feGaussianBlur stdDeviation=".76022"/>
  </filter>
  <filter id="am">
   <feGaussianBlur stdDeviation=".99114"/>
  </filter>
  <filter id="ao">
   <feGaussianBlur stdDeviation="1.43222"/>
  </filter>
  <linearGradient id="a">
   <stop stop-color="#6a3c1d" offset="0"/>
   <stop stop-color="#8f5127" offset="1"/>
  </linearGradient>
  <linearGradient id="b">
   <stop stop-color="#bb8f56" offset="0"/>
   <stop stop-color="#d1af63" offset="1"/>
  </linearGradient>
  <linearGradient id="c">
   <stop stop-color="#4a585b" offset="0"/>
   <stop stop-color="#5e7074" offset="1"/>
  </linearGradient>
  <linearGradient id="d" x1="62.097" x2="28.714" y1="45.146" y2="103.44" gradientUnits="userSpaceOnUse">
   <stop stop-color="#4f3e2a" offset="0"/>
   <stop stop-color="#72593c" offset="1"/>
  </linearGradient>
  <linearGradient id="al" x1="30.087" x2="67.819" y1="88.83" y2="115" gradientUnits="userSpaceOnUse" xlink:href="#a"/>
  <linearGradient id="ak" x1="80.968" x2="96.99" y1="119.19" y2="91.062" gradientUnits="userSpaceOnUse" xlink:href="#a"/>
  <linearGradient id="aj" x1="99.253" x2="109.83" y1="100.85" y2="91.735" gradientUnits="userSpaceOnUse" xlink:href="#a"/>
  <linearGradient id="ai" x1="107.26" x2="123.35" y1="97.086" y2="81.858" gradientUnits="userSpaceOnUse" xlink:href="#a"/>
  <linearGradient id="ah" x1="114.97" x2="119.43" y1="47.397" y2="68.068" gradientUnits="userSpaceOnUse" xlink:href="#a"/>
  <linearGradient id="ag" x1="55.711" x2="104.02" y1="27.216" y2="54.92" gradientUnits="userSpaceOnUse" xlink:href="#a"/>
  <linearGradient id="af" x1="15.215" x2="50.645" y1="60.607" y2="26.91" gradientUnits="userSpaceOnUse" xlink:href="#a"/>
  <linearGradient id="ae" x1="6.2972" x2="13.88" y1="54.644" y2="90.481" gradientUnits="userSpaceOnUse" xlink:href="#a"/>
  <linearGradient id="ad" x1="38.35" x2="38.913" y1="88.75" y2="85.875" gradientUnits="userSpaceOnUse" xlink:href="#b"/>
  <linearGradient id="ac" x1="90.413" x2="89.288" y1="91.031" y2="87.594" gradientUnits="userSpaceOnUse" xlink:href="#b"/>
  <linearGradient id="ab" x1="107.35" x2="106.6" y1="78.812" y2="74.375" gradientUnits="userSpaceOnUse" xlink:href="#b"/>
  <linearGradient id="aa" x1="119.85" x2="118.73" y1="75.375" y2="70.75" gradientUnits="userSpaceOnUse" xlink:href="#b"/>
  <linearGradient id="z" x1="118.66" x2="121.48" y1="50.906" y2="47.281" gradientUnits="userSpaceOnUse" xlink:href="#b"/>
  <linearGradient id="y" x1="64.725" x2="65.413" y1="25.5" y2="22.562" gradientUnits="userSpaceOnUse" xlink:href="#b"/>
  <linearGradient id="x" x1="22.975" x2="22.225" y1="38.062" y2="36.875" gradientUnits="userSpaceOnUse" xlink:href="#b"/>
  <linearGradient id="w" x1="12.35" x2="14.069" y1="65" y2="64.188" gradientUnits="userSpaceOnUse" xlink:href="#b"/>
  <linearGradient id="v" x1="63.485" x2="75.053" y1="70.019" y2="51.306" gradientUnits="userSpaceOnUse" xlink:href="#a"/>
  <linearGradient id="u" x1="78.338" x2="78.705" y1="65.132" y2="65.927" gradientUnits="userSpaceOnUse" xlink:href="#a"/>
  <linearGradient id="t" x1="40.85" x2="43.051" gradientUnits="userSpaceOnUse" xlink:href="#a"/>
  <linearGradient id="s" x1="63.661" x2="67.514" gradientUnits="userSpaceOnUse" xlink:href="#a"/>
  <linearGradient id="r" x1="89.224" x2="92.159" gradientUnits="userSpaceOnUse" xlink:href="#a"/>
  <linearGradient id="q" x1="50.94" x2="61.092" y1="50.241" y2="60.454" gradientUnits="userSpaceOnUse" xlink:href="#a"/>
  <linearGradient id="p" x1="66.718" x2="79.622" y1="65.499" y2="52.473" gradientUnits="userSpaceOnUse" xlink:href="#a"/>
  <linearGradient id="o" x1="76.405" x2="75.267" y1="58.496" y2="61.615" gradientUnits="userSpaceOnUse" xlink:href="#a"/>
  <linearGradient id="n" x1="73.446" x2="77.298" y1="46.388" y2="53.238" gradientUnits="userSpaceOnUse" xlink:href="#a"/>
  <linearGradient id="m" x1="91.914" x2="89.774" y1="74.795" y2="75.59" gradientUnits="userSpaceOnUse" xlink:href="#b"/>
  <linearGradient id="l" x1="81.09" x2="79.989" y1="77.73" y2="78.281" gradientUnits="userSpaceOnUse" xlink:href="#b"/>
  <linearGradient id="k" x1="80.295" x2="81.335" y1="66.447" y2="68.221" gradientUnits="userSpaceOnUse" xlink:href="#b"/>
  <linearGradient id="j" x1="82.619" x2="83.658" y1="71.523" y2="73.297" gradientUnits="userSpaceOnUse" xlink:href="#b"/>
  <linearGradient id="i" x1="85.31" x2="86.349" y1="76.232" y2="78.006" gradientUnits="userSpaceOnUse" xlink:href="#b"/>
  <linearGradient id="h" x1="87.756" x2="88.796" y1="80.758" y2="82.531" gradientUnits="userSpaceOnUse" xlink:href="#b"/>
  <linearGradient id="g" x1="90.202" x2="91.242" y1="85.467" y2="87.24" gradientUnits="userSpaceOnUse" xlink:href="#b"/>
  <linearGradient id="f" x1="58.401" x2="63.538" y1="39.142" y2="52.412" gradientUnits="userSpaceOnUse" xlink:href="#c"/>
  <linearGradient id="e" x1="73.017" x2="69.104" y1="44.279" y2="36.451" gradientUnits="userSpaceOnUse" xlink:href="#c"/>
 </defs>
 <path d="m15.741 96.865-14.53-29.232 47.568-30.962 44.281 12.454-77.319 47.741z" fill-opacity=".66667" fill-rule="evenodd" filter="url(#an)"/>
 <path d="m5.2878 69.75 46.5-28 60.5 12.25 13.5 21.25-1.75 15.25-41.75 22.25-62-9.25-15-33.75z" fill="url(#d)" fill-rule="evenodd"/>
 <path d="m39.784 76.108-2.7676-8.6486-2.9405 1.5568-2.4216-3.9784 6.4-3.1135 1.3838-8.8216 12.8 1.9027 21.795 2.2486 15.049 13.492-0.17297 2.0757-8.3027-3.2865 14.184 13.838-14.011-11.416-5.3622 3.1135 12.281 14.011-14.53-12.627-12.8 1.7297 6.9189 8.9946-3.4595 0.17297-6.4-6.573-15.914-15.049 1.9027 9.6865-3.6324 0.69189z" fill-opacity=".54902" fill-rule="evenodd" filter="url(#am)"/>
 <path d="m51.027 46.357-8.6486 6.573 59.157 7.9568 5.5351 11.07-22.486 29.751 38.919-14.011 1.0378-19.027-17.297-28.022-41.341 0.17297-14.876 5.5351z" fill-opacity=".39216" fill-rule="evenodd" filter="url(#ao)"/>
 <path d="m18.834,75.28423-.06115,2.93545 .06115,2.69083 .61155,1.2231-.48924,2.9966-.36693,6.60476-.18347,5.93205 .42809,7.27747 .12231,1.2231 1.10079.97848 1.16195-.06115 .79502,1.10079 1.34541.5504 2.07928-.24462c.95379.77347 1.83887,1.20341 2.62967,1.16194l1.2231,1e-005 .97848-.42809 2.3239,1.03964 1.52888.42808 1.2231-.24462 1.83465.73387 .97848.18346 1.52888-.42809 1.34541.91733 1.46772.30578 2.26274-.42809 1.7735.91733 1.65119.36693 1.59003-.42809 1.03964.18347 1.59004,1.03964 1.89581-.06116 1.10079-.30577 1.34541.91732 1.40657.30578 2.26274-.67271 .97848,1.28426 1.65119.48924h2.01812l1.59003.91733h1.59004l1.7735-.18346 1.59004.85617 1.59004.36693 1.89581-.48924 1.03964.67271 1.46773.18346 .79502.24462 1.65119-.5504 .97848.61156 .97848-.06116 .24462-.79502-.12231-10.45753 .06115-8.62288 .12231-5.74859 .06115-6.72707-.79502.61155-.91733.06116-1.16195-.73386v1.16195l.18347,2.62967 .30578,5.01472-.30578,1.59004h-2.20159l-1.83465-1.16195-.91733.5504-2.81314-.12231-1.40657-.61155-2.3239.06115-2.3239-1.28426-.91733.36693-1.03964.12231-1.46772-.18347-1.83466-1.40657-1.59003.36693-2.38505-.30578-.85617-.73386-1.46772.24462-2.20159.12231-1.65119-.85617-2.26274.42809-2.50736-1.34541-.79502.36693h-1.89581l-2.20159-1.28426-.91733.12231h-1.65119l-1.34541-.61155-1.34541.24462-1.10079-.30578-1.46772-.24462-1.59003-.79502-1.46773.24462-1.16195.06116-2.69083-1.16195-1.59004-.06116-1.10079-.24462-1.95697-1.03964v-5.93205l.12231-4.64779-.5504.36693-.67271.30578-.67271-.12231-.79502-.5504z" fill="url(#al)" fill-rule="evenodd"/>
 <path d="m82.24923,95.83237 .85886-.12231 1.40657-.67271 1.2231-1.59003 1.03964.06115 1.34541-.42809 1.52888-2.01812 .85617-.12231 1.16195-.24462 1.65119-1.65119 1.71234-.24462 .79502-.48924 .61155-1.7735-.36693-3.66931-.06116-3.66931 .73386.24462 1.7735.48924 .12231,3.91393 .18347,4.15855-.18347,6.48245-.06115,8.68404 .18346,5.07588-.24462,1.59003-.73386.30578-1.2231-.18347-.67271.79502-1.46772.48924-.61155.48924-1.28426,1.28426-1.83465.18347-1.03964,1.40657-1.59003.6727-1.7735-.12231 .06116.48924-1.89581,1.52888-2.20159.30578-.06116-13.20952v-6.42129l.05847-2.01812z" fill="url(#ak)" fill-rule="evenodd"/>
 <path d="m98.886 81.828 1.4677-0.06115 2.0793-1.3454 1.2843-0.06115 2.385-1.8347h1.6512l1.2843-0.24462 1.1008-0.5504 1.162-0.73386 1.162-0.5504 0.06116 1.6512 0.12231 2.6297 0.06115 6.0544v5.3817l-0.24462 8.7452-1.1008 0.85618-0.91733 0.55039-1.2843 0.73387-2.4462 0.85617-1.4066 1.4066-1.1619 1.0396h-1.8347l-0.79502 1.0396-2.9354 0.79502 0.06115-6.9717 0.12231-11.436-0.06115-6.1155-0.12231-1.2231 0.30578-0.61155z" fill="url(#aj)" fill-rule="evenodd"/>
 <path d="m112.58489,100.96941 .18347-9.72367 .06115-6.78822-.18346-4.64779-.12231-3.30238-.18885-.79771-.36155-1.40388-.24462-4.0974 .91733.18346 .6727.36693 1.40657-.73386-.12231,2.20159v1.52888l.18885,3.36085 .48386.06384 2.01812-1.10079 1.40657-.06115 1.03964-.42809 1.03963-.73386 1.95697-.67271c.66666-.62953.74242-.65751 1.10079-1.83466 0-.30578.24462-7.95017.24462-7.95017l.30578-5.07588-.12231-1.59004 1.2231.97848 1.22311-.30578-.12231,2.07928 .06115,3.66931 .06116,6.11552-.12231,2.9966 .12231,3.48584-.12231,3.36353v3.66931l-.06116,3.97509v2.81314l-.06115,1.46772-.5504.85617-1.40657.48924-.79502.79502c0,0-.91732.48924-1.2231.5504s-1.28426.12231-1.28426.12231l-.97848.85617-2.26274.73386-3.42469,3.36353-.18347.67271-.91733.61155-.85617-.12231z" fill="url(#ai)" fill-rule="evenodd"/>
 <path d="m123.3482,73.02149-1.89581-3.24122-.79502,2.50736-.23789,1.97041-2.14716-2.70428-.24462-.85617-1.28426-.5504-.6727-1.7735v-1.71234l-1.16195-.67271-.73386-1.52888 .30577-1.71234-.85617-.42809-1.10079-.73386-.36694-2.3239 .24462-1.7735 .24463-8.01133 .12231-7.03285v-4.64779l.42808,1.34541 .06116.85617 .6727.97848 1.22311.85617-.06116,1.03964 .30578.97848 .42808,1.10079 1.03964.97848 .5504.85617 .24462,2.14043 .42809,1.52888 .61155.73386 .97848.42809 .24462,2.26274 1.16195,3.05776 1.83466,4.03624 .48924.97848h.85617l-.36693,5.56512-.18347,3.05776 .12231,2.56852-.48924-.12231z" fill="url(#ah)" fill-rule="evenodd"/>
 <path d="m85.49314,51.37256 .12231-5.07588 .73386-.30578-.12231-1.71234-.48924-.06115-4.95357-2.56852-4.64779-2.14043-7.46093-3.73047-9.90714.85617-6.36014,5.19819 .12231-10.02945-.06116-7.95017 1.52888.73386 1.34541.30578c0,0 1.16195-.85617 1.52888-.42809s1.65119,1.46773 1.65119,1.46773l1.59004-.12231h2.26274v.5504l1.28426.24462 .85617.42809 2.56852-.18347 1.34541.42809 1.40657.18347 1.65119-.06116 .91733.85617 1.10079.30578 1.71234.30578 1.52888.24462 1.95697.67271h1.46772l.91733-.18347 1.7735.42809 1.34541.30578 1.95697-.30578 1.7735.85617 1.46773.36693 1.7735-.42809 1.40657.97848 3.66931-.12231 1.89581,1.03964h1.7735 1.7735l1.03964.5504 1.28426.12231 2.01812-.24462 .85617.12231 .85617.79502h1.40657l1.34541-.18347 .06116-1.16195-.36693-3.73047v-3.85278l.67271.36693 .97848.12231 .79502-.30578 .24462,1.03964 .24462,2.01812v1.40657l-.12231,2.56852-.06116,3.24122-.30577,3.91393 .12231,4.7701-.12231,5.13703-.36694,7.88902-.73386.18346-.79502-.48924-.12231-1.34541-1.59003.36693-.85617.06115-.97849-.42809-.97848-.61155-1.71234.36693c0,0-1.28426-.24462-1.52888-.30578s-2.20159-.67271-2.20159-.67271l-1.89581.30578-1.40657-.12231-1.16195-.73386-.85617-.67271-1.10079.24462-1.7735-.24462-1.89581-1.16195-.73386.06115c-.49344.08694-1.09991.13619-2.07928.06115l-2.38505-.79502z" fill="url(#ag)" fill-rule="evenodd"/>
 <path d="m7.27567,48.49827 2.14043-.91733 1.46772-.61155c.90311-.61309 1.46151-1.14001 1.71235-1.59004l.48924-.61155 1.28426-.30577 2.20159-1.59004 1.7735-.18347 2.26274-1.16195 1.10079-1.10079 1.03964-.06116 1.83466-2.01812 1.71234-.48924 2.87429-2.62967 .91733.18347h.5504l1.89581-1.65119 .91733.42809 1.16195-.73386 1.2231-1.34541 1.71234-.48924 .97848-1.34541 .91733-.36693 1.46772-.5504 1.52888-1.34541 .48924-.67271 1.28426.12231 1.59004-1.65119 1.34541-.18346 2.01812-1.2231 .97848-.97848-.18347-5.93205-.06115-2.07928 .73386.48924 .5504.12231 .5504-.06115 .79502-.5504 .06115,7.58324-.06115,18.8358-5.3205,4.40317-.91733.67271 .91733.42809 .06115.61155-1.59004.67271-1.7735.36693-1.10079.97848-2.50736.73386-1.59003,1.83465-1.7735.36693-.42809.73386-.5504.79502-.91733.36693-1.34541-.24462-.61155,1.03964-.42809.48924-1.46773.85617-1.59003-.12231-.73386,1.28426-.48924.48924-.67271.42809-1.71234.12231-.73386,1.16195-1.95697,1.2231-1.03964.30578-1.34541,1.59004-1.03964.5504-1.03964-.12231-.91733.91733-.79502.61155-2.26274.42809-.97848-.73386-.48924-2.50736-.48924-1.71234-1.28426,2.44621-.06116-1.2231-.91733-4.83126-1.2231,1.28426-.30578-3.48585-.30578-1.71234-.79502-2.26274-.85617,2.81314-.06116-.91733 .18347-4.46433z" fill="url(#af)" fill-rule="evenodd"/>
 <path d="m6.90874,53.6353 .36693-12.78143-1.03964.85617-1.10079-.12231-.91733-.91733-.12231,5.19819-.24462,11.25255 .06116,6.36014 .24462,4.21971 .5504,4.15855-.06116,1.10079 .36693,1.40657 1.65119,1.10079-.06116,1.34541 .24462,1.03964 .79502,1.03964 1.03964.61155-.18347,1.40657 .42809,1.40657 .97848,1.10079 .79502.18347-.06115,1.46772 .30578,1.16195 1.34541.67271-.18346.97848 .12231,1.10079 .73386,1.03964 1.16195.79502-.24462,2.14043 1.40657,2.3239 .06116,1.28426 .24462,1.65119 .97848.48924 .67271.18347-.30578,2.01812 .12231,2.26275 .61155,1.7735 .85617.24462 .30578-.30578-.12231-1.95696-.30578-3.97509 .06116-5.07588 .30578-6.17667 .5504-5.56512-.67271-2.01812-.85617-.36693-.30578-.61155-.12231-1.28426-.85617-1.28426-.48924-1.16195c0,0-.24462-2.26274-.24462-2.50736s-.48924-.85617-.48924-.85617l-.91733-1.28426-.73386-3.73047-.5504.18347-.91733-1.28426-1.10079-3.547-1.16195-.85617-.61155-1.16195v-1.59004l-1.7735-3.05776-.36693-1.65119-.24462-.42809z" fill="url(#ae)" fill-rule="evenodd"/>
 <path d="m18.834,75.28423-.06115,2.93545 .06115,2.69083 .61155,1.2231-.48924,2.9966-.36693,6.60476-.18347,5.93205 .42809,7.27747 .12231,1.2231 1.10079.97848 1.16195-.06115 .79502,1.10079 1.34541.5504 2.07928-.24462c.95379.77347 1.83887,1.20341 2.62967,1.16194l1.2231,1e-005 .97848-.42809 2.3239,1.03964 1.52888.42808 1.2231-.24462 1.83465.73387 .97848.18346 1.52888-.42809 1.34541.91733 1.46772.30578 2.26274-.42809 1.7735.91733 1.65119.36693 1.59003-.42809 1.03964.18347 1.59004,1.03964 1.89581-.06116 1.10079-.30577 1.34541.91732 1.40657.30578 2.26274-.67271 .97848,1.28426 1.65119.48924h2.01812l1.59003.91733h1.59004l1.7735-.18346 1.59004.85617 1.59004.36693 1.89581-.48924 1.03964.67271 1.46773.18346 .79502.24462 1.65119-.5504 .97848.61156 .97848-.06116 .24462-.79502-.12231-10.45753 .06115-8.62288 .12231-5.74859 .06115-6.72707-.79502.61155-.91733.06116-1.16195-.73386v1.16195l.18347,2.62967 .30578,5.01472-.30578,1.59004h-2.20159l-1.83465-1.16195-.91733.5504-2.81314-.12231-1.40657-.61155-2.3239.06115-2.3239-1.28426-.91733.36693-1.03964.12231-1.46772-.18347-1.83466-1.40657-1.59003.36693-2.38505-.30578-.85617-.73386-1.46772.24462-2.20159.12231-1.65119-.85617-2.26274.42809-2.50736-1.34541-.79502.36693h-1.89581l-2.20159-1.28426-.91733.12231h-1.65119l-1.34541-.61155-1.34541.24462-1.10079-.30578-1.46772-.24462-1.59003-.79502-1.46773.24462-1.16195.06116-2.69083-1.16195-1.59004-.06116-1.10079-.24462-1.95697-1.03964v-5.93205l.12231-4.64779-.5504.36693-.67271.30578-.67271-.12231-.79502-.5504z" fill-opacity=".15686" fill-rule="evenodd"/>
 <path d="m123.3482,73.02149-1.89581-3.24122-.73252,2.38236-.23789,2.03291-2.20966-2.64178-.24462-.85617-1.28426-.5504-.6727-1.7735v-1.71234l-1.16195-.67271-.73386-1.52888 .30577-1.71234-.85617-.42809-1.10079-.73386-.36694-2.3239 .24462-1.7735 .24463-8.01133 .12231-7.03285v-4.64779l.42808,1.34541 .06116.85617 .6727.97848 1.22311.85617-.06116,1.03964 .30578.97848 .42808,1.10079 1.03964.97848 .5504.85617 .24462,2.14043 .42809,1.52888 .61155.73386 .97848.42809 .24462,2.26274 1.16195,3.05776 1.83466,4.03624 .48924.97848h.85617l-.36693,5.56512-.18347,3.05776 .12231,2.56852-.48924-.12231z" fill-opacity=".15686" fill-rule="evenodd"/>
 <path d="m85.49314,51.37256 .12231-5.07588 .73386-.30578-.12231-1.71234-.48924-.06115-4.95357-2.56852-4.64779-2.14043-7.46093-3.73047-9.90714.85617-6.36014,5.19819 .12231-10.02945-.06116-7.95017 1.52888.73386 1.34541.30578c0,0 1.16195-.85617 1.52888-.42809s1.65119,1.46773 1.65119,1.46773l1.59004-.12231h2.26274v.5504l1.28426.24462 .85617.42809 2.56852-.18347 1.34541.42809 1.40657.18347 1.65119-.06116 .91733.85617 1.10079.30578 1.71234.30578 1.52888.24462 1.95697.67271h1.46772l.91733-.18347 1.7735.42809 1.34541.30578 1.95697-.30578 1.7735.85617 1.46773.36693 1.7735-.42809 1.40657.97848 3.66931-.12231 1.89581,1.03964h1.7735 1.7735l1.03964.5504 1.28426.12231 2.01812-.24462 .85617.12231 .85617.79502h1.40657l1.34541-.18347 .06116-1.16195-.36693-3.73047v-3.85278l.67271.36693 .97848.12231 .79502-.30578 .24462,1.03964 .24462,2.01812v1.40657l-.12231,2.56852-.06116,3.24122-.30577,3.91393 .12231,4.7701-.12231,5.13703-.36694,7.88902-.73386.18346-.79502-.48924-.12231-1.34541-1.59003.36693-.85617.06115-.97849-.42809-.97848-.61155-1.71234.36693c0,0-1.28426-.24462-1.52888-.30578s-2.20159-.67271-2.20159-.67271l-1.89581.30578-1.40657-.12231-1.16195-.73386-.85617-.67271-1.10079.24462-1.7735-.24462-1.89581-1.16195-.73386.06115c-.49344.08694-1.09991.13619-2.07928.06115l-2.38505-.79502z" fill-opacity=".15686" fill-rule="evenodd"/>
 <path d="m6.90874,53.6353 .36693-12.78143-1.03964.85617-1.10079-.12231-.91733-.91733-.12231,5.19819-.24462,11.25255 .06116,6.36014 .24462,4.21971 .5504,4.15855-.06116,1.10079 .36693,1.40657 1.65119,1.10079-.06116,1.34541 .24462,1.03964 .79502,1.03964 1.03964.61155-.18347,1.40657 .42809,1.40657 .97848,1.10079 .79502.18347-.06115,1.46772 .30578,1.16195 1.34541.67271-.18346.97848 .12231,1.10079 .73386,1.03964 1.16195.79502-.24462,2.14043 1.40657,2.3239 .06116,1.28426 .24462,1.65119 .97848.48924 .67271.18347-.30578,2.01812 .12231,2.26275 .61155,1.7735 .85617.24462 .30578-.30578-.12231-1.95696-.30578-3.97509 .06116-5.07588 .30578-6.17667 .5504-5.56512-.67271-2.01812-.85617-.36693-.30578-.61155-.12231-1.28426-.85617-1.28426-.48924-1.16195c0,0-.24462-2.26274-.24462-2.50736s-.48924-.85617-.48924-.85617l-.91733-1.28426-.73386-3.73047-.5504.18347-.91733-1.28426-1.10079-3.547-1.16195-.85617-.61155-1.16195v-1.59004l-1.7735-3.05776-.36693-1.65119-.24462-.42809z" fill-opacity=".15686" fill-rule="evenodd"/>
 <path d="m20.22534,69.8125-.5625,1.3125-.5,1.75-.5,1.8125 .625,1.0625 .6875.25 1.375-.375v-.8125l-.5-2.875-.625-2.125zm3.8125,11.9375-2.5,3.5625v.75l2.1875,1 1.3125.125 .9375-.125 2.9375,1.4375 1.4375-.1875 1.25-.125 2.6875,1.0625 1.375-.0625 1-.0625 1.5625.6875h2.5625l2.1875,1.1875 1.3125.0625h1.3125l1.625.6875 1.25.1875 1-.1875h1l.9375.375 1.9375.5625 1.75-.625 .4375.0625 1.6875.8125 1.5625.125 1.5-.1875 .4375.125 2,1.0625 1,.25 .8125-.125 1.375-.0625 1.875.75 1.1875.1875h1.625l2,.5625h2.1875l.375-.4375 1.6875.9375 2.9375.1875v-1.375l-1.9375-2.9375-1.5,2-.625.5-1.5625-2.25-1.125-1.125-2.375,2.9375-.25.0625-2.6875-4.3125-1.5,2.4375-.6875,1.125-2.125-4.125-1.3125,1.375-1.3125,1.875-.6875-.0625-1.6875-4.125-2.0625,2.1875-.75,1.1875-.75-1.125-1.6875-4.4375-1.125,1.75-1.5625,2.9375-2.1875-5.5625-2.1875,4.25-.625.5625-1.1875-2.8125-1.375-2.875-2.5,4.5625c-.36608-1.0109-.59664-2.87183-1.5625-5l-2.0625,4.125-.375.125-2.5-4.6875-1.875,2.4375-.4375,1.25-.4375.1875-1.6875-3.9375-3.125,3.3125-.4375-.125-1.875-4.875z" fill="url(#ad)" fill-rule="evenodd"/>
 <path d="m97.47534,73.75-1.5,5.3125 .8125.8125 1.8125.125 .25-.75-1.125-4.9375-.25-.5625zm-16.6875,7.1875-.4375,1.25-.9375,3.6875 .625.5625 1.125.125 1.125-.75-.875-3.625-.625-1.25zm13.25,3.5625-.4375,1.6875-.1875,2.125-.375.1875-2.0625-3.1875-1.1875,3.9375-.0625,1.3125-.625-.625-2.0625-2.6875-.875,2.75-.5,1.8125-.0625,1-1.6875-2.3125-.625,1.375-.9375,2.375-.0625,1.4375h1.625l1.125-1.25 1-.75 2.25-.625 .875-1.0625 .875-1h.875l1.625-1.0625 .875-1 2.3125-.25 .5625-1.125-2.25-3.0625z" fill="url(#ac)" fill-rule="evenodd"/>
 <path d="m98.72534,81.75 .375-1.5625 1.5-2.6875 1.625,1.8125 .9375-2 .8125-2.0625 1.625,2.8125 .1875-.8125 1.875-3.5625 1.1875,1.5625 .875.875 .5625-3.3125 1.625,1.6875 .4375.9375 .125.625-2,1.4375-1.0625.6875-3.4375.375-.875,1-2.5625.875-.6875.3125-1.125.9375-1.75.125-.25-.0625z" fill="url(#ab)" fill-rule="evenodd"/>
 <path d="m125.47534,52.8125c-.125.375-1.375,4.875-1.375,4.875l.9375,1 1.5625-.625-1.125-5.25zm-12.4375,11.6875-1.3125,5.375 .375.625 1.8125.125 .8125-.5-1.6875-5.625zm8.4375,5.1875-.375,1.4375-.625,2.9375-1.25-1.3125-1.25-1.375-.6875,1.25-.4375,1.625-1-1.9375-.625,2.1875-.5625,1.8125 .125,1 1.5-.4375 1.125-.8125 1.4375-.125 1.5-.875 .25-.5 .5625.1875 1.3125-.625 .9375-.6875-1.9375-3.75z" fill="url(#aa)" fill-rule="evenodd"/>
 <path d="m124.41284,61.3125-.3125-3.875-.4375-.1875-.375-3.875-1.4375,2.625-.5-.4375 .5625-5.1875-2,2.5-.3125-1.0625-.125-8.1875-.6875,1-1.1875,2-.25-.5 .1875-.75-.9375-5.125-1.5,1.8125-.0625-.75-.8125-6.625-1.3125,3.0625 .3125,2.0625 .5625,1.1875 .9375.5625 .0625,1.25 .5-.0625 .125,1.4375 .6875,1.25 .6875.4375 .625,1v1.1875l.4375,1.8125 .5,1.0625 .8125.5625 .3125.5 .1875,1.375 1.125,2.75 1,2.75 1.0625,1.875 .5.8125 .3125.5625 .625-.1875 .125-.625z" fill="url(#z)" fill-rule="evenodd"/>
 <path d="m111.47534,19.0625-.875,3.125-.5625,2.6875 .3125.3125 .875.625 1-.3125 .6875-.5-1.4375-5.9375zm-56.5625.4375-2.375,3.625 .1875.8125 1.5625.875 2.4375-.25 1.0625.8125 1.8125.5625 2.125-.1875 1,.75 1.625.375 1.875.0625 .75-.25 1.0625.625 1,.1875 2.375-.1875 1.0625.8125 1.4375.5625 2.75.375 1.375.4375 2,.25 .75-.25 1.375.3125 1.875.5625 2-.5 2.3125,1.1875 3-.0625 1.5625.6875 2.6875.0625 1.125.3125 1.75.75 3-.125 1.75.75 3.1875-.25 1.5.8125 1.8125.1875 .875-.875-2.3125-3.75-1.75,2.8125-2.875-3.5625-2.5,3.4375-2.875-4.8125-2.3125,3.625-2.8125-4.4375-2.125,3.9375-2.5-5.5-2.4375,4.5625-2.3125-5.875-2.6875,4.9375-2.1875-5.875-2.6875,5.3125-2.625-6.0625-2.0625,4.6875-2.0625-5-2.3125,4.4375-2.5625-5.125-2.4375,4.1875-2.125-4.5625-2.5,3.8125-.875-.3125-1.75-4.6875z" fill="url(#y)" fill-rule="evenodd"/>
 <path d="m51.41284,9.3125-.375,1-1.3125,5.125 1.25.75 1.3125-.4375 .375-.5-1.25-5.9375zm-4,10.4375-1.125,3.75c0,0 0,.8125-.1875,1.5s-.25.6875-.25.6875l-1.25-2.1875-1.4375-2.125-.4375,2.1875-.5625,3.5-.25.5625-1.875-3.1875-1.625,5.4375-.8125-1.5-1-1.9375-1,2.8125-.375,2.1875-1.5625-2.75-.9375,3.625-.5625.5-1.9375-2.75-1.0625,3.5625-.5625,1.4375-2.0625-2.625-1.5625,3.5625-.625,1.875-1.5625-3.1875-1.8125,5.625-2.4375-3.6875-.875,2-.75,2.0625-.5625,1.6875-.8125-1.875-.875-2.1875-1.3125,5.75-.6875.5625-2.3125-3.5625-1.4375,3.5-.125,1.625-1.5625-1.5625-.125.625-.125,3.3125 2.1875-.9375 1.5-.5 1.75-1.375 .625-.875 2.1875-.75 1.5-1.25 2.75-.4375 1.75-1.625 2-.5 1.375-1.9375 3.25-1.3125 .9375-1.5 .875.125 1.375-.4375 1.3125-1.1875h1.5625l1.0625-.9375 .8125-1 1.8125-.4375 .6875-.75 .375-.75 1.25-.375 1.6875-1 .9375-1.125 2.0625-.625 1.0625-.8125 .6875-.25 2.6875-1.3125 1.25-1.1875-1.3125-1.875-1.5625-1.875z" fill="url(#x)" fill-rule="evenodd"/>
 <path d="m5.72534,35.25-1.0625,3.5625-.5,1.9375 .8125.9375h1.0625l1.25-.8125-1.5625-5.625zm2.25,15.75-.5,2-.3125,1.375 .5,1.5625 1,2.5 .625.625v1.3125l.5625,1.375 1.75.875c-.01876-.10874-.0625-.3125-.0625-.3125l-.3125-2.3125-.5-2.9375-.875,1.25c0,0-.625.4375-.625-.25s-.1875-2.3125-.1875-2.3125l-.375-2.875-.6875-1.875zm5,9.875-.8125,1.6875c0,0-.375,1-.4375.75-.04104-.16415-.08315-.41482-.125-.65625l.0625,2.15625 .625,1.6875 .75.875h.6875l.1875,1.9375 .1875.75 .625,1.4375 .875.75 .0625,1.3125 .3125,1.6875 1.375,2.9375 .3125.75 .1875.9375 1,.375v-4.5625l-1.0625,1.9375-.25-.75-.5-6.3125-1.3125,2.0625 .0625-.5v-2.4375l-.25-2.75-.6875,1-.8125,1.1875-.3125-2.5 .3125-1.5625-1.0625-4.1875z" fill="url(#w)" fill-rule="evenodd"/>
 <path d="m20.22534,69.8125-.5625,1.3125-.5,1.75-.5,1.8125 .625,1.0625 .6875.25 1.375-.375v-.8125l-.5-2.875-.625-2.125zm3.8125,11.9375-2.5,3.5625v.75l2.1875,1 1.3125.125 .9375-.125 2.9375,1.4375 1.4375-.1875 1.25-.125 2.6875,1.0625 1.375-.0625 1-.0625 1.5625.6875h2.5625l2.1875,1.1875 1.3125.0625h1.3125l1.625.6875 1.25.1875 1-.1875h1l.9375.375 1.9375.5625 1.75-.625 .4375.0625 1.6875.8125 1.5625.125 1.5-.1875 .4375.125 2,1.0625 1,.25 .8125-.125 1.375-.0625 1.875.75 1.1875.1875h1.625l2,.5625h2.1875l.375-.4375 1.6875.9375 2.9375.1875v-1.375l-1.9375-2.9375-1.5,2-.625.5-1.5625-2.25-1.125-1.125-2.375,2.9375-.25.0625-2.6875-4.3125-1.5,2.4375-.6875,1.125-2.125-4.125-1.3125,1.375-1.3125,1.875-.6875-.0625-1.6875-4.125-2.0625,2.1875-.75,1.1875-.75-1.125-1.6875-4.4375-1.125,1.75-1.5625,2.9375-2.1875-5.5625-2.1875,4.25-.625.5625-1.1875-2.8125-1.375-2.875-2.5,4.5625c-.36608-1.0109-.59664-2.87183-1.5625-5l-2.0625,4.125-.375.125-2.5-4.6875-1.875,2.4375-.4375,1.25-.4375.1875-1.6875-3.9375-3.125,3.3125-.4375-.125-1.875-4.875z" fill-opacity=".15686" fill-rule="evenodd"/>
 <path d="m124.41284,61.3125-.3125-3.875-.4375-.1875-.375-3.875-1.4375,2.625-.5-.4375 .5625-5.1875-2,2.5-.3125-1.0625-.125-8.1875-.6875,1-1.1875,2-.25-.5 .1875-.75-.9375-5.125-1.5,1.8125-.0625-.75-.8125-6.625-1.3125,3.0625 .3125,2.0625 .5625,1.1875 .9375.5625 .0625,1.25 .5-.0625 .125,1.4375 .6875,1.25 .6875.4375 .625,1v1.1875l.4375,1.8125 .5,1.0625 .8125.5625 .3125.5 .1875,1.375 1.125,2.75 1,2.75 1.0625,1.875 .5.8125 .3125.5625 .625-.1875 .125-.625z" fill-opacity=".15686" fill-rule="evenodd"/>
 <path d="m111.47534,19.0625-.875,3.125-.5625,2.6875 .3125.3125 .875.625 1-.3125 .6875-.5-1.4375-5.9375zm-56.5625.4375-2.375,3.625 .1875.8125 1.5625.875 2.4375-.25 1.0625.8125 1.8125.5625 2.125-.1875 1,.75 1.625.375 1.875.0625 .75-.25 1.0625.625 1,.1875 2.375-.1875 1.0625.8125 1.4375.5625 2.75.375 1.375.4375 2,.25 .75-.25 1.375.3125 1.875.5625 2-.5 2.3125,1.1875 3-.0625 1.5625.6875 2.6875.0625 1.125.3125 1.75.75 3-.125 1.75.75 3.1875-.25 1.5.8125 1.8125.1875 .875-.875-2.3125-3.75-1.75,2.8125-2.875-3.5625-2.5,3.4375-2.875-4.8125-2.3125,3.625-2.8125-4.4375-2.125,3.9375-2.5-5.5-2.4375,4.5625-2.3125-5.875-2.6875,4.9375-2.1875-5.875-2.6875,5.3125-2.625-6.0625-2.0625,4.6875-2.0625-5-2.3125,4.4375-2.5625-5.125-2.4375,4.1875-2.125-4.5625-2.5,3.8125-.875-.3125-1.75-4.6875z" fill-opacity=".15686" fill-rule="evenodd"/>
 <path d="m5.72534,35.25-1.0625,3.5625-.5,1.9375 .8125.9375h1.0625l1.25-.8125-1.5625-5.625zm2.25,15.75-.5,2-.3125,1.375 .5,1.5625 1,2.5 .625.625v1.3125l.5625,1.375 1.75.875c-.01876-.10874-.0625-.3125-.0625-.3125l-.3125-2.3125-.5-2.9375-.875,1.25c0,0-.625.4375-.625-.25s-.1875-2.3125-.1875-2.3125l-.375-2.875-.6875-1.875zm5,9.875-.8125,1.6875c0,0-.375,1-.4375.75-.04104-.16415-.08315-.41482-.125-.65625l.0625,2.15625 .625,1.6875 .75.875h.6875l.1875,1.9375 .1875.75 .625,1.4375 .875.75 .0625,1.3125 .3125,1.6875 1.375,2.9375 .3125.75 .1875.9375 1,.375v-4.5625l-1.0625,1.9375-.25-.75-.5-6.3125-1.3125,2.0625 .0625-.5v-2.4375l-.25-2.75-.6875,1-.8125,1.1875-.3125-2.5 .3125-1.5625-1.0625-4.1875z" fill-opacity=".15686" fill-rule="evenodd"/>
 <path d="m47.17838,53.31892-8.21622,4.54054 .43243,2.42162 .34595.90811 2.94054-.77838 .08649.99459 .25946.3027 .25946,1.03784 2.03243-.60541 .17297,2.03243 2.37838-.77838 .34595,1.25405 .21622.08649v1.34054l3.15676-.73514 .12973.73514 .08649,1.25405 2.59459-.43243 .08649,1.08108 .17297,1.2973 3.45946-.38919v1.81622l2.42162-.64865 .34595.73513-.12973.73513 3.07027.04324 .17297,1.38378-.04324-.77838 1.98919-.17297 13.05946-7.09189 15.00541-8.47568-.25946-1.25405-2.16216.04324-.12973-1.72973-2.8973-.04324-.77838-1.38378-2.42162-.38919v5.57838l-19.97838,10.24865-18.29189-9.72973 .08649-4.45405z" fill="url(#v)" fill-rule="evenodd"/>
 <path d="m64.028 72.226 2.0181-0.18347 8.1336-4.342 6.1155-3.4858 7.5221-4.342 6.3601-3.547-0.12231 1.162-9.2344 5.2594-11.191 6.299-7.4609 4.2809-2.2016-0.24462 0.06116-0.85617z" fill="url(#u)" fill-rule="evenodd"/>
 <path d="m40.422 61.157c0 0.85617-0.5504 14.371-0.5504 14.371l0.73386 1.6512 1.162 0.73386 1.0396 0.24462 1.3454-0.61155 0.12231-15.166-1.0396 0.30578-0.36693-1.162-0.24462-0.97848-2.2016 0.61155z" fill="url(#t)" fill-rule="evenodd"/>
 <path d="m63.41612,71.73723-.30578,14.55493 .30578,1.10079 .67271.97848 1.10079.5504h1.34541l1.10079-.73386 .18347-15.77804-1.46772.85617-2.20159-.24462-.18347-.91733-.18346-.61155-.36693.24462z" fill="url(#s)" fill-rule="evenodd"/>
 <path d="m92.159 74.489-0.24462-15.778-3.9751 2.385 0.24462 6.4824 3.3635 6.6048 0.61155 0.30578z" fill="url(#r)" fill-rule="evenodd"/>
 <path d="m47.332 47.397-0.24462 10.458 18.408 9.6625 0.18346-12.781-1.5289 0.18347-16.818-7.5221z" fill="url(#q)" fill-rule="evenodd"/>
 <path d="m47.332 47.397-0.24462 10.458 18.408 9.6625 0.18346-12.781-1.5289 0.18347-16.818-7.5221z" fill-opacity=".15686" fill-rule="evenodd"/>
 <path d="m65.495 67.273 0.18346-12.414 8.3171-8.8675 11.619-0.36693-0.06115 11.681-20.059 9.9683z" fill="url(#p)" fill-rule="evenodd"/>
 <path d="m80.417 59.812s0.36693-9.1733-0.24462-8.9898-7.889 3.4858-7.889 3.4858l0.30578 9.3567 0.42809 0.06116 7.3998-3.9139z" fill="url(#o)" fill-rule="evenodd"/>
 <path d="m80.417 59.812s0.36693-9.1733-0.24462-8.9898-7.889 3.4858-7.889 3.4858l0.30578 9.3567 0.42809 0.06116 7.3998-3.9139z" fill-opacity=".15686" fill-rule="evenodd"/>
 <path d="m64.272 54.92 1.4066-0.18347 8.3783-8.684 1.957-0.12231 10.335-0.30578 0.06115-1.4066-12.904 0.48924-4.1586 4.2197-5.0759 5.9932z" fill="url(#n)" fill-rule="evenodd"/>
 <path d="m85.371 62.442 10.641 19.753 0.36693 4.9536-0.42809-0.12231-1.2843-1.6512-3.8528-7.6444-2.8131-4.8313-2.3239-3.7916-2.5074-5.3205 2.2016-1.3454z" fill="url(#m)" fill-rule="evenodd"/>
 <path d="m74.179 68.863 6.299 11.558 5.7486 9.9683 0.79502-3.1189-2.752-5.2594-3.4247-6.6048-2.8131-5.0759-1.4677-2.9354-2.385 1.4677z" fill="url(#l)" fill-rule="evenodd"/>
 <path d="m76.87 67.884 7.3998-4.2809 0.97848 0.85617 0.5504 1.0396v1.162l-7.7667 3.7305-1.162-2.5074z" fill="url(#k)" fill-rule="evenodd"/>
 <path d="m79.194 72.96 7.3998-4.2809 0.97848 0.85617 0.5504 1.0396v1.162l-7.4609 3.2412-1.4677-2.0181z" fill="url(#j)" fill-rule="evenodd"/>
 <path d="m82.007 77.547 7.2775-4.1586 0.97848 0.85617 0.5504 1.0396v1.162l-7.7056 3.4858-1.1008-2.385z" fill="url(#i)" fill-rule="evenodd"/>
 <path d="m84.331 82.195 7.3998-4.2809 0.97848 0.85617 0.36693 1.3454-0.42809 0.85617-7.2163 3.3635-1.1008-2.1404z" fill="url(#h)" fill-rule="evenodd"/>
 <path d="m86.9 86.72 7.2775-4.0974 0.97848 0.85617 0.12231 1.4677-7.2163 3.6082-1.162-1.8346z" fill="url(#g)" fill-rule="evenodd"/>
 <path d="m58.829 36.756 14.738 7.9502-9.4179 10.274-11.008-4.8924-6.7882-3.1189 12.476-10.213z" fill="url(#f)" fill-rule="evenodd"/>
 <path d="m58.891 36.573 9.7848-0.79502 17.368 8.5617-12.476 0.36693-14.677-8.1336z" fill="url(#e)" fill-rule="evenodd"/>
 <path d="m58.829 36.756 14.738 7.9502-9.4179 10.274-11.008-4.8924-6.7882-3.1189 12.476-10.213z" fill-opacity=".15686" fill-rule="evenodd"/>
 <path d="m51.192 9.1968-1.6227 5.9908c0.45279 2.4626 0.3851 5.0252 0.40625 7.5312l-2.5938-3.2812-1.6562 5.6562-2.5312-3.8438-1.3438 5.875-1.875-3.0938-1.6875 5.4062-1.8125-3.625-1.4688 4.9062-1.4688-2.375-1.3438 3.9688-2.0938-2.5625-1.5 5.0312-2.0625-2.5938-2.125 4.8438-1.7188-2.6875-1.875 5.4062-2.4375-3.6875c-0.30213 1.9774-1.7181 4.074-2.0938 5.7188-0.40243-1.3232-0.94868-2.5401-1.7188-3.6875l-1.75 6.0625-0.0625 0.03125h-0.03125l-2.5-3.375-1.7188 4.625-1.1875-0.875 0.03125-3.7812-1.5625-5.875-0.125 0.09375-1.5312 5.6562c-0.30541 10.512-0.98611 20.717 0.34375 31.031-0.06312 2.0287 0.25867 3.6429 1.7188 4.0312 0.27409 1.5516 0.58235 3.0876 2.125 4.0625-0.19395 1.9095 0.52812 3.602 2.0938 3.9688-0.04691 1.1106-0.31969 2.5574 1.625 3.375-0.06559 1.4433-0.16826 2.3107 1.9062 4.1875-0.34657 1.5451-0.274 3.0325 1.25 4.3438-0.52955 1.7834 0.33486 3.8912 1.6875 3.375-0.96412 2.8773 0.33929 6.9261 1.6875 6.2812 0.36262 1.9942 1.8622 1.9916 2.875 2.4688 0.91192 1.2612 2.2654 1.2798 3.75 0.9375 1.5365 1.0307 3.162 1.6756 5.1562 0.875 1.3452 0.75186 2.6315 1.602 5.0938 1.125 1.8704 1.2211 2.9741 0.58691 4.3125 0.53125 1.7934 1.3918 3.3732 1.4333 5.2812 0.875 1.4895 1.0058 3.0425 1.6252 4.875 0.6875 1.727 1.0987 3.4709 1.7546 5.3125 0.90625 1.4472 1.5387 3.2148 1.1579 5 0.78125 1.2178 1.7944 3.0436 1.3038 4.6875 1.5 2.0797 1.4872 3.5036 0.93584 5.0312 0.65625 1.7765 1.5369 3.5672 1.228 5.3438 1.0938 1.5963 0.9124 3.185 0.53096 4.7812 0.46875 0.69018 0.71977 2.2117 0.6026 2.2812-0.46875 1.7233 0.03405 3.0478-0.91159 4.1875-2.25 1.5342 0.04783 2.8544 0.16836 4.1562-1.875 1.467 0.25543 2.9564-1.159 3.625-2.2188 0.97451 0.3519 1.6226-0.2795 2.25-0.96875 2.6898 0.22427 2.1583-0.95201 2.2812-1.8438 1.5122 0.13242 2.5578-0.78465 3.5-1.9062 2.313 0.2861 3.1087-1.2082 4.2188-2.3438 1.3556-0.6331 2.4256-0.27349 3.7812-1.9375 0.53846 0.0632 1.3678-0.55902 1.9062-1.1875 0.89263 0.12181 1.8233 0.44669 2.375-1.25l3.4688-3.2188c1.3637-0.22207 2.4584-0.82078 3.4062-1.625 1.1689-0.04975 2.0675-0.7075 2.9062-1.5 0.78807 0.13074 1.4786-0.71422 2.1875-1.375 0.05208-11.323 0.46929-22.646 0.15625-33.969l-1.25-5.9375-0.125 0.0625-1.5312 4.2188-0.3125-3.6562-1.75 2.5312 0.21875-5.4375h-0.03125l-2.0625 2.2188-0.25-9.125-2.0312 3.0312 0.03125-0.96875v-0.03125l-1-5.4062-1.375 1.8125-0.96875-7.375-1.3438 2.5938c0.02083-4.1146 0.55648-8.2292 0.0625-12.344v-0.09375l-1.4688-5.6875h-0.15625c-0.457 2.1756-1.4659 4.257-1.4688 6.4375 0.22213 2.3247 0.22106 4.6666 0.25 7l-1.9908-2.6632-1.6968 2.5382-2.9062-3.4062-2.4062 3.1562-2.9062-4.5-2.0938 3.4375-3.0938-4.25-2.0312 3.625-2.5-5.3438-2.375 4.3125-2.4062-5.5312-2.625 4.625-2.1875-5.5312-2.7188 5.0625-2.6562-5.9375-2.1562 4.6875-1.875-5-2.4688 4.375-2.5625-4.875-2.4375 3.8438-2.0915-4.2847-2.6898 3.7222-0.40625-0.15625-1.9897-4.787-2.1353 2.8808 0.03125-7-1.2975-5.9815-0.3298 0.05325zm0.17127 0.56691 1.0637 5.5871c-1.0083 1.112-1.7478 0.47656-2.4782-0.21875l1.4144-5.3683zm-1.1702 6.0268c0.54207 0.91515 1.7231 0.20971 2.2652 0.05901l-0.0845 7.9537-0.20024 18.181-1.7304 1.5834c0.35818-6.5351-0.84813-13.212-0.03026-19.609 0.06869-0.53731-0.26468-1.232-0.14069-1.7617-0.03783-1.9883 0.09175-4.2736-0.07905-6.4055zm61.282 3.8032 1.1875 5.3125c-0.74803 0.42213-1.4595 1.1072-2.3438 0.03125l1.1562-5.3438zm-63.969 0.3125 2.4375 3.3438c-1.0877 1.4042-2.2154 2.4082-3.4688 2.1562-0.35757-2.0087 0.68748-3.6667 1.0312-5.5zm7.4085-0.06841 1.3832 4.5604c-1.2421 0.65609-2.8248-0.21119-3.6644-0.62849l2.2812-3.9319zm-11.721 1.9434 2.4062 3.9062c-0.46473 1.5305-2.436 1.5906-3.2188 1.5312l0.8125-5.4375zm16.822-0.74089 1.5787 4.4469c-1.312-0.10531-2.8023 0.68084-3.8612-0.68978l2.2825-3.7571zm4.6725 0.26851 1.9757 4.9134c-1.6439 1.3109-2.9448 0.22136-4.3207-0.34375l2.345-4.5696zm4.7465 0.92825 1.9584 4.8393c-0.79167 0.35059-3.234 0.6052-4.0256-0.59147l2.0672-4.2479zm-19.46 1.7316c-0.65565 6.7111-0.08886 13.191-0.03125 19.75l-2.5625 2.2812c-0.35714-6.625-1.4328-13.25-1.0312-19.875 1.2083-0.28771 2.4167-0.71769 3.625-2.1562zm23.731-1.7826 2.3392 6.5535c-0.99948-0.11694-3.6784-0.31711-4.4191-1.5984l2.0799-4.9551zm-20.919 2.0951c0.98597 0.70598 2.3479 1.0666 3.4757 0.63774 0.58258 4.4268-0.1043 9.1076-0.17127 13.664l-3.3982 2.823 0.09375-17.125zm26.116-1.0696 1.713 5.7734c-1.2027 0.67641-2.4387 0.85479-3.7825-0.5845l2.0695-5.1888zm-21.991 1.8821c1.4537 1.8382 3.3448 0.83301 5.051 1.03-0.27076 3.2566-0.2848 6.77-0.42476 10.157l-2.9387 0.1875-2.0938 1.75c0.14736-4.378 0.77148-8.8752 0.40625-13.125zm55.594 0.4375c1.2905 3.8939 0.00627 8.2025 0 12.312 0.19256 6.4024-0.16707 12.816-0.53125 19.219-0.91072 0.78121-1.0537-0.30754-1.125-1.625 0.16888-7.2334-1.1075-15.264 0-22.25-0.41109-2.5074-0.66086-5.1539-0.40625-7.625 1.0018 0.61243 1.4595 0.15406 2.0625-0.03125zm-28.791-1.4319 2.0545 5.2826c-1.3447 1.4472-3.0086 0.50093-4.6251-0.09026l2.5707-5.1923zm-43.491 0.80688 1.7188 3.2188c-0.83681 1.1319-1.8299 1.6388-3 1.4375l1.2812-4.6562zm5.4688 1.5c-0.24513 6.6458 0.74528 13.292 1.125 19.938l-0.78125 0.65625 0.4375 0.1875c-0.44532 1.5746-1.3792 1.5207-2.3125 1.4688-0.9216-6.9167-1.6753-13.833-1.2812-20.75 1.0556 0.32681 1.915-0.7199 2.8125-1.5zm16.844 0.07752c1.5023 0.77115 3.0046 0.6399 4.507 0.58798-0.73612 2.647-0.31033 5.8749-0.46526 8.8125l-4.573 0.3345c0.17225-3.1556-0.20465-6.4438 0.53125-9.735zm26.128-1.0904 2.0545 5.0951c-0.95833 0.95947-3.3543 0.12179-4.3126-0.73149l2.2582-4.3636zm-20.941 1.8254c0.9841 1.0751 2.2023 0.27739 3.3125 0.34375-0.15435 3.0521-0.85133 6.1042-0.375 9.1562l-2-0.96875-1.5625 0.125c0.20833-2.8854-0.84554-5.2975 0.625-8.6562zm3.8865 0.39002c1.605 2.1515 3.21 1.0614 4.8149 1.5822-0.12426 3.3746-0.50617 6.2338-0.36575 10.138l-4.9307-2.4295c-0.43373-2.978 0.28572-6.1866 0.48149-9.2905zm-34.949-0.67127c0.71385 0.99326 1.4643 1.959 1.5312 3.4375-0.37392 1.4035-1.4147 1.3066-2.4375 1.25-0.45664-1.9419 0.44663-3.2038 0.90625-4.6875zm56.669 0.0126c0.82368 1.452 1.8981 3.0294 2.4607 4.3509-1.0768 0.41359-3.1381 0.50279-4.0742-0.49075-0.20345-1.5338 1.0531-2.5809 1.6135-3.8601zm-50.919 1.2374c-0.24918 6.8438 0.42396 13.688 1.1562 20.531-0.61986 1.5806-1.8851 1.5476-3.1562 1.5-1.0829-6.3585-0.75504-13.281-1.0938-19.938 1.127-0.02752 2.1325-0.90553 3.0938-2.0938zm56.013-0.39365 2.6772 4.6796c-1.0675 0.11362-3.7715 0.11771-4.5661-0.85998l1.889-3.8196zm-21.606 1.3936c1.3333 0.74722 2.6667 1.0892 4 0.5625-0.11234 3.9196-0.80561 7.6069-0.28125 11.781l-4.0625-1.9688c-0.50443-3.7059 0.21104-6.9239 0.34375-10.375zm4.5428 0.57175c1.3361 0.59646 2.6739 1.187 4.426 0.397-0.13195 4.625-0.60783 9.25-0.09375 13.875l-4.7732-2.3507c-0.52536-4.3101 0.32916-7.866 0.44099-11.921zm22.323-0.77442 2.7802 3.8914c-1.2222 0.50858-3.8931 0.46559-4.8346-0.56948l2.0545-3.3219zm-17.216 1.2304c1.3186 2.1417 3.0565 0.92988 4.6297 1.0347-0.88068 6.9474-0.99368 13.785-0.88774 20.591-1.2284 0.69011-3.3088 0.20342-4.5372-0.81022 0.03565-1.255-0.10467-2.8548-0.04017-4.2252 0.0104-0.22096 0.87114-0.43595 0.87771-0.64257 0.03074-0.96659-0.04894-1.5037-0.03277-2.4503 0.00365-0.21388-0.49517-0.37598-0.52221-0.58771-0.5864-4.5906 0.24837-8.7256 0.51265-12.91zm-52.743-1.0903 1.6562 3.0312c-0.28411 0.8172-1.6518 2.0296-2.5938 1.5312l0.9375-4.5625zm5.0625 1.2188c0.38289 6.7906 0.08981 13.852 1.2188 20.344-0.82843 1.0876-1.6244 2.2726-2.9375 1.9062-1.3004-6.7396-0.79167-13.479-1.1875-20.219 1.0274-0.38406 2.1868-0.10774 2.9062-2.0312zm-8.4375 0.0625 1.9688 3.125c-0.94764 0.81446-1.747 2.6668-3 1.3438 0.0412-2.0947 0.6835-2.9872 1.0312-4.4688zm77.96-0.41565 1.9387 3.2316c-1.5186 1.6011-2.4914 0.42047-3.5244-0.353l1.5857-2.8786zm-16.584 1.4156c0.99015 1.1757 2.6232 0.74407 4.1562 0.5625-0.98452 7.0637-1.0254 14.127-0.88653 21.191-1.4029-0.23843-2.9385 0.18694-4.0822-1.3472-0.26384-6.8615-0.19471-13.686 0.8125-20.406zm4.8368 0.59026c1.0868 0.94188 2.3561 1.549 4.2882 0.94099-0.55939 6.9054-0.58228 14.025-0.43629 21.213-1.5627-0.15356-2.6519 1.3976-4.845-1.0255-0.51819-7.1561-0.60112-14.254 0.99302-21.128zm-61.056 0.59724c0.33333 6.5833-0.15899 13.917 1.0625 20.5-0.98587 2.236-1.7641 1.3568-2.5938 1.25l-1.2188-20.094c1.0024 0.39105 1.9142-0.21428 2.75-1.6562zm65.865 0.28702c1.6277 1.1152 3.2554 0.43966 4.8832 0.54748-0.65844 7.0256-0.49207 14.189-0.31826 21.353-1.6049 0.31801-3.176 0.8894-5.0545-0.84375-0.2642-7.08-0.23627-14.118 0.48954-21.057zm5.5105 0.68173c1.1146 1.0499 2.2292 0.62963 3.3438 0.625-0.61965 6.9988 0.08362 14.157 0.09375 21.156-1.6286 0.79955-3.0474 0.88611-3.9688-0.71875-0.29494-7.0637-0.6881-14.136 0.53125-21.062zm-80.281-0.90625 1.9375 2.875c-0.44503 0.98495-2.7428 2.3894-3.6875 2.375 0.43013-2.6692 1.1651-3.5092 1.75-5.25zm5.5312 1.8125 1.25 20.188c-1.0672 2.138-2.2676 2.277-3.5 1.9375-0.29605-6.9249-1.2055-13.543-0.875-20.781 1.2762 0.37289 2.1661-0.6063 3.125-1.3438zm82.031 0.90625 0.5 5.4062c-1.5015 0.37078-1.2207-1.6682-1.5625-2.8438l1.0625-2.5625zm-108.38 0.3125c0.3668 1.7215 0.86897 3.2927 1.0938 5.1562-1.418 1.3148-1.828 0.66625-2.1875 0.0625-0.28516-2.2306 0.73126-3.4739 1.0938-5.2188zm17.031-0.5625 1.3438 2.9375c-0.44276 1.8728-1.4753 2.4567-2.75 2l1.4062-4.9375zm5.6875 0.90625c-0.42452 6.8958 0.54162 13.792 0.8125 20.688-0.95912 2.5498-2.1789 2.6231-3.4688 2.0312 0.51115-6.8021-0.41785-13.604-0.65625-20.406 1.2482 0.02152 2.3964-0.50749 3.3125-2.3125zm40.062 0.0625 16.75 8-11.719 0.375-14.031-7.5312 9-0.84375zm0.09375 0.4375-0.375 0.125 2.375 1.2812c-0.73492 0.1283-1.4799 0.2516-2.1562 0.375l-2.5625-1.5938-0.1875 0.1875 2.4375 1.4688c-0.96942 0.17468-1.9438 0.32738-3.0938 0.46875l0.21875 0.21875c1.2056-0.12641 2.2001-0.30319 3.1875-0.5l2.875 1.7188 0.1875-0.0625-2.7812-1.7188c0.67026-0.13587 1.4178-0.29624 2.1562-0.4375l7.9688 4.3125-5.8438 0.3125-0.15625 0.28125 6.5312-0.3125 0.59375 0.3125 0.0625-0.3125-0.0625-0.03125 0.71875-0.03125-0.21875-0.3125-1.0312 0.0625-8.125-4.3438c0.20081-0.03665 0.35-0.08911 0.5625-0.125l-0.28125-0.125-0.53125 0.09375-2.4688-1.3125zm-9.9688 0.5h0.15625l14.219 7.75-8.9062 9.9688-17.5-7.7188 12.031-10zm-40.125-0.03125 2.2812 3.6875c-0.56186 1.1637-2.512 2.0534-3.9062 1.7188-0.15682-2.1513 1.0833-3.6042 1.625-5.4062zm40.469 0.5625-1.5 1.3438-0.53125-0.28125v0.15625l0.40625 0.25-8.625 7.7188 0.09375 0.3125 8.6875-7.9375 4.5312 2.5938c-0.59565 0.58598-1.1401 1.2012-1.6875 1.8438-0.45729-0.24317-0.91935-0.47254-1.375-0.71875l-0.21875 0.1875 1.4375 0.75c-0.29752 0.34695-0.61896 0.69711-0.9375 1.0312l0.28125 0.0625c0.30369-0.32817 0.5805-0.66669 0.875-1l4.2812 2.2188-2.875 3.6562-4.125-2.2812 0.6875-0.6875-0.21875-0.21875-0.6875 0.78125-1.6562-0.90625-0.0625 0.21875 1.5625 0.875-1.6562 1.9062v0.125l1.875-1.9062 4.125 2.2812-0.90625 1.1562 0.15625 0.09375 0.9375-1.1562 2.7812 1.5312 0.0625-0.21875-2.6875-1.5 2.9688-3.625 1.75 0.90625 0.34375-0.0625c-0.65465-0.33403-1.3148-0.66445-1.9688-1l0.875-1.0625-0.25-0.25-0.90625 1.1562c-1.4136-0.72628-2.8148-1.4741-4.2188-2.2188 0.55101-0.62379 1.0961-1.2327 1.6875-1.8125l1.5625 0.90625 0.03125-0.21875-1.4375-0.8125c0.32173-0.30821 0.64616-0.62824 1-0.90625l-0.0625-0.25c-0.43836 0.29732-0.84497 0.64252-1.2188 1l-4.5312-2.5938 1.4062-1.2812-0.0625-0.15625zm53.938 1.3438c0.09297 1.9132 0.8336 2.3692 1.4688 3.0625 0.54308 7.0644-0.15018 13.63-0.25 20.438-2.8982-0.55805-1.1542-3.0761-1.625-4.6562 0.26329-6.2465 0.68054-12.463 0.40625-18.844zm-88.312-0.15625c0.31299 6.8287 1.5036 13.407 0.78125 20.531-0.95011 1.6886-2.0763 1.7924-3.1875 2.0312 0.61685-6.8438-0.30623-13.688-0.46875-20.531l0.0625-0.03125 0.03125-0.03125c1.0306-0.08695 2.0746-0.09989 2.7812-1.9688zm-9.875 0.03125c0.27386 0.8845 0.9916 3.1156 1.3438 3.9688-0.5311 0.81265-1.2657 1.4218-2.625 1.4062l1.2812-5.375zm101.66 1.875 0.84375 4.9062c-1.5273-0.16723-1.8772-1.661-1.875-3.2188l1.0312-1.6875zm-95.344 0.4375c0.2538 6.8805 1.1788 13.627 0.6875 20.656-0.7084 1.1352-1.3933 2.3352-2.75 1.6875-0.5625-6.8229 0.09477-13.341-1.6875-20.469 1.5812 0.69971 2.6546-0.63156 3.75-1.875zm-14.031 0.3125c0.06841 4.0018-0.36063 8.2725-0.28125 12.344 0.13951 7.1555 0.17388 14.321-0.25 21.219-1.5199-0.05256-1.8364-1.2786-1.5938-3.0938-1.5693-10.204-0.70088-20.364-0.4375-30.25 0.66432 0.45259 1.4302 0.61556 2.5625-0.21875zm3.1875 0.125 2.2188 3.3125c-0.29356 1.8663-2.088 2.0681-3.1875 2-0.62442-2.0778 0.67495-3.6938 0.96875-5.3125zm46.25 1.5938c-1.2665 1.2826-2.8812 3.0268-4.2188 4.125l0.09375 0.15625c1.6819-1.0186 2.8851-2.7472 4.2812-4.125l-0.15625-0.15625zm58.656 0c0.03837 1.6243 0.79627 2.7262 1.9688 3.5-0.74311 5.851-0.76091 13.114-1 19.469-1.6668 0.27391-1.7143-1.2217-1.5625-2.9062 0.20076-6.6897 0.67134-13.512 0.59375-20.062zm-98.406-0.15625c1.6327 6.8854 1.1458 13.771 1.7188 20.656-0.95441 2.2295-2.3285 1.6498-3.5938 2.0625-0.38542-6.9688-0.21622-13.938-1.1562-20.906 1.2 0.05923 2.1632-0.71006 3.0312-1.8125zm50.969 0.53125-0.21875 0.21875c0.63853 0.49917 1.3704 0.94688 2.0938 1.375l-1.8125 2.4688 0.1875 0.25 1.8125-2.625c0.3831 0.22758 0.76777 0.44742 1.125 0.6875l-0.0625-0.21875c-0.32068-0.19633-0.62492-0.41667-0.9375-0.625l0.46875-0.6875-0.09375-0.15625-0.5625 0.75c-0.68016-0.45929-1.3417-0.94725-2-1.4375zm51.531 0.65625 0.125 6.9062c-1.4901 0.04503-1.5416-2.0027-1.8125-3.7188l1.6875-3.1875zm-33 0.375-0.03125 1.0312-12.281 0.375-8.2188 8.5625-1.1562 0.21875 9.0312-9.625 12.656-0.5625zm-73.219 0.625c1.1251 5.4375 0.95833 12.753 1.1875 20l-1.3438-4.5938-1.0938 2.25-1.0625-6.0625-1.125 1.2188-0.375-4.4375c-0.0625-1.7812 0.0625-3.875 0-5.6562 1.3836-0.62441 2.7554-1.2782 3.8125-2.7188zm-5.7188-0.25 1.4062 2.3125 0.03125 0.03125c-0.40651 0.56117-0.86487 0.86315-1.4375 0.59375v-2.9375zm78 0.875-0.03125 2.0625c-6.5042 2.6003-12.95 5.1252-19.531 7.5312v-0.375l2.3125-2.4688 16.344-6.6562-0.0625-0.0625 0.96875-0.03125zm-1.4375 0.0625-15.594 6.4688 2.9688-3.1562 7.2812-3.1562 5.3438-0.15625zm-5.7812 0.15625-6.5938 2.875 1.6875-1.7812 2.2812-1 2.625-0.09375zm-2.7812 0.09375-1.8438 0.6875 0.625-0.65625 1.2188-0.03125zm-28.594 1.2188 0.125 0.0625 0.03125 0.21875-0.15625-0.28125zm0.8125 0.375 16.5 7.4375v0.03125l0.09375 0.03125 0.03125-0.0625 1.1875-0.09375v0.9375l-17.875-7.75v-0.46875l0.0625-0.0625zm-0.3125 0.25-0.1875 4.5-0.03125 0.03125 0.03125 0.03125-0.03125 0.65625-8.25 4.75 0.46875 2.5312 0.09375-0.03125 0.125 1 0.78125-0.21875-0.5 14.438c1.2113 3.0488 3.5869 3.2214 4.5312 1.9062 0.06322-3.978 0.25898-12.971 0.21875-15.031l0.65625-0.25c-0.02403 0.22986-0.0337 0.43308 0.09375 0.53125l0.09375 1.5625 2.5-0.75 0.3125 1.1875h0.0625l0.09375 1.4062 3.125-0.6875 0.15625 0.6875h0.03125l0.03125 1.2188 2.5-0.3125 0.0625 1.0625h0.09375l0.09375 1.1875 3.4375-0.375v0.65625h0.0625l0.0625 1.375 2.5-0.78125 0.15625 0.53125 0.0625 1 2.4688-0.0625-0.3125 14.938c1.1658 2.8765 3.7338 3.1386 4.875 1.5l0.34375-15.75 5.9688-3.375 6.5625 11.844-1.2812 5.0312c0.35641 2.8807 0.3561 5.7893 0.375 8.6875l-1.7812-2.9688-2.0938 2.5625-2.6562-3.4688-2.6562 3.2188-2.875-4.4688-2.125 3.4375-2.1562-3.9375-2.9688 3.3125-1.8438-4.5312-3.0312 3.5312-2.4062-5.5625-2.5938 4.5938-2.1875-5.5-2.75 5.0625-2.625-5.9375-2.1875 4.6875-1.8438-5-2.5 4.3438-2.5312-4.8438-2.4688 3.8438-1.7188-4.125-3.4375 3.7188-2.0625-5.1875-2.5938 3.5 0.03125-9.5938v-0.0625l-1.25-5.6875-0.25-0.03125c-0.61946 2.0062-1.3136 4.1301-1.6562 6.125l-0.65625 1.75-0.6875-7.1562-1.1562 1.9688-0.25-5.5625-0.15625-0.09375-1.3125 2.1562-0.125-1.875 0.90625-0.875c2.0035 0.1889 3.2048-0.91807 4.375-1.9375 1.2535 0.48467 2.0514-1.081 3-1.9688 1.37 0.20976 2.499-1.5082 3.7188-2.5 1.5759 0.10128 2.7462-0.81146 3.6562-2.375 1.3958 0.77043 2.7917-0.9984 4.1875-2.0938 1.154 0.49561 2.1669-0.5595 3.1562-1.875 1.6433 0.15958 2.3724-1.2805 3.4062-2.1875 1.3569 0.25065 2.4078-0.72275 3.4375-1.7812 1.1298 0.06649 2.1706-0.13406 2.9688-1.0625v0.0625l0.3125-0.25zm38.062 0.0625v1.75l-4.9062 1.9375-0.03125-1.1562-8.4375 3.5625 0.0625 0.9375-6.2188 2.4375v-2l0.0625 0.03125c6.6189-2.4767 12.932-4.8441 19.469-7.5zm-37.812 0.28125 17.875 7.8438v1.4688l-17.906-7.5625 0.03125-1.75zm-39.062 0.25c0.64653 0.98646 0.29274 2.7232 0.34375 4.1562l-0.78125-1.9375-0.6875 2.4375 0.03125-4.3125 1.0938-0.34375zm109.09 0.46875c-0.00385 1.3414 0.80082 2.1116 1.7812 2.75-0.35622 5.939-1.7674 12.149-1.4375 18.5-0.70755 0.26191-2.0611-1.3228-1.375-3.3125 0.34031-5.9774 0.15096-12.23 1.0312-17.938zm-32.219 0.96875-0.03125 2.0625-4.7812 2-0.09375-2.1562 4.9062-1.9062zm-37.844 0.28125 17.906 7.4375v2.5l-17.906-7.6875v-2.25zm74.25 0.6875-0.59375 4.8438-1.0312-2.625 1.625-2.2188zm-41.844 0.34375 0.375 8.375-7.1875 3.8125-0.375-9.1875 7.1875-3zm-71.875 0.1875c0.92652 1.9958 0.76815 4.3792 0.9375 6.375-0.61794-1.0846-1.3519-2.0896-1.4062-3.625l0.46875-2.75zm77.561 0.44675 2.0637 0.24075 0.53125 1.3125-2.4225 1.316-0.17248-2.8692zm-0.28004 0.272-0.03125 2.125-4.6875 2.0625-0.0625-2.2188 4.7812-1.9688zm2.9375 0.0625 2.4352-0.05097c1.1599 0.52576 1.836 1.7083 4.7605 1.2257 1.3084 0.73478 2.1756 2.2303 5.1678 1.2812 1.6648 0.4423 3.0139 1.2906 5.6088 0.53702 1.0796 1.3849 2.7054 1.1315 4.3403 0.85073-0.1495 1.4938 0.89802 1.4848 1.5625 1.6562-0.63504 5.0667 1.0186 4.3609 2.0938 5.375-0.70031 2.0366 1.0192 3.7533 1.6875 3.9062-0.35121 1.8489 0.53065 3.1701 1.875 4.3125l-0.875 2.375-1.0625-1.5938-1.0625 3.5312 0.03125-5.5-1.5625-5.8438h-0.1875l-1.5 5.9062c0.33191 1.2561 0.2818 2.5826 0.3125 3.875l-1.6562-1.4688-0.625 3.0938-1.9062-2.1875-2.0312 3.9688-1.7188-2.375-1.7812 3.875-1.6875-1.6562-1.4375 2.5625v-0.71875l-1.375-5.875-0.125-0.0625-1.7188 5.8125c-0.01896 0.82755 0.01844 1.6301 0.0625 2.4375l-3.5938-6.7188v-0.03125l-0.09375-16 2.125-1.1875v-1.125l-0.5-1.375-1.9062 0.03125-0.375-1.75-2.7812-0.03125-0.5-1.0625zm-40.781 0.40625 17.938 7.7812-0.03125 2.5938-17.906-8.8125v-1.5625zm78.156 0.5625 0.75 4.5938c-0.69974 0.7636-1.2837 0.36858-1.8438-0.125l1.0938-4.4688zm-6.125 0.21875 0.8125 2.9375v0.03125l0.03125 0.03125 0.59375 1.2188c-0.34261 5.2076-1.2842 9.673-1.0312 15.625-0.58132-0.73467-1.4636-1.321-1.5312-2.3125-0.25614-6.0958 0.73723-11.693 1.125-17.531zm-28.281 0.15625 0.125 1.6875c-9.3585 4.7803-18.621 10.026-27.938 15l-2.5938 0.21875 0.0625-1.5625 2.7188-2.1562 1.875 1 0.03125-0.0625 20.252-10.247-0.00925-2.228 2.7257-1.6192 2.75-0.03125zm-44.156 0.03125-0.125 2.5-4.4375 3.1562-3.0312 0.6875-0.125-1.9375 7.7188-4.4062zm76.281 0.4375c-0.12881 1.9306 0.68321 2.9213-0.46875 5.875-0.41452-0.97336-1.2803-1.2657-1.1875-3v-0.03125l0.03125-0.15625 1.625-2.6875zm-116.19 0.0625c0.03909 1.933 1.1374 3.4402 1.7188 5.1562-0.10252 6.5412-0.84159 12.917-0.40625 19.781-1.5457 0.039-1.7738-2.4254-1.4375-3.4062 0.26735-7.0672 0.54564-14.12 0.125-21.531zm40.312 0.3125 17.906 8.7812v2.4062l-17.938-9.0625 0.03125-2.125zm37.812 0.03125-0.03125 1.7188-4.5938 2.2188-0.0625-1.875 4.6875-2.0625zm-13.25 0.75 0.125 2.2812-6.375 2.6562 0.03125-2.4688 6.2188-2.4688zm21.688 0.0625 0.1875 1c-9.1923 5.2527-18.299 10.823-27.875 15.375l-2.0312 0.28125 0.03125-1.3438c8.9347-5.2191 18.089-10.67 27.656-15.094l2.0312-0.21875zm-8.4688 1.0625v0.875l-4.5312 2.2812-0.03125-0.9375 4.5625-2.2188zm8.7188 0.28125 0.125 0.75-27.719 15.688c-0.03139-0.16731-0.03819-0.71409-0.0625-0.875l27.656-15.562zm-46.531 0.03125 17.938 9.125v1.4375l-17.938-9.4375v-1.125zm-0.5 0.0625-0.0625 1.125 1.4688 0.78125-3.0625 2.125-2.25 0.71875-0.21875-2.0312 4.125-2.7188zm-36.281 0.6875 0.78125 4.875c-0.8231-0.30178-1.9856-0.77669-1.9062-2.6562-0.00575-1.2218 0.71239-1.5199 1.125-2.2188zm61.5 0.1875 0.15625 2.5-6.5312 2.9062v-2.7812l6.375-2.625zm49.219 0.6875 1.1875 2.75-0.8125 8.3438-0.03125 0.4375-0.34375-0.125-1 3.9062c-0.48107-5.7865 0.66464-10.206 1-15.312zm3.25 0.3125c0.26581 0.57004 0.91801 0.56048 1.75 0.28125 0.52664 11.055 0.02053 22.101 0.03125 33.156-0.50843 0.67772-1.0384 1.2678-1.875 1.125 0.00146-0.12175 0.57959-12.683-0.3125-19.281-0.73819-5.1678 0.74639-10.463 0.40625-15.281zm-75.906 0.21875 2.0312 1.0938-3.0312 2.125-2.125 0.625v-1.75l3.125-2.0938zm43.094 0.15625 0.09375 15.062-3.6562-6.8438-0.0625-6.1562 3.625-2.0625zm32.119-1.0939 0.22801 3.6888c-0.43222 0.51736-0.721 0.24583-0.86924-0.79869l0.64123-2.8902zm-81.619 1.7814 0.15625 0.71875-2.4688 0.6875-0.0625-0.78125c0.79868-0.18798 1.5872-0.39768 2.375-0.625zm-33.125 0.28125c0.22211 2.7711 1.2874 1.9856 1.9375 2.9375-0.35195 6.445-0.95681 14.254-0.65625 19.938-1.4462 0.59984-1.9658-1.7011-1.4062-3.0938-0.74689-6.963-0.22429-13.257 0.125-19.781zm42.031 0.21875 2.9062 1.5625-2.6875 2.2812-3.0312 0.5625-0.375-2.375 3.1875-2.0312zm21.094 0.0625 0.125 2.1562-6.6875 3.2188 0.03125-2.4688 6.5312-2.9062zm-29.781 0.40625 0.1875 0.90625h0.09375l0.375 1.5 1.0938-0.4375-0.25 14.969c-1.313 1.0443-3.3888 0.0759-3.8438-2.1875l0.53125-14.281 1.8125-0.46875zm45.344 0.5625 0.21875 5.7188-2.375-4.5 2.1562-1.2188zm35.094 0.03125c0.20078 0.48624 0.18012 1.4082 0.90625 0.84375 0.01701 0.53984 0.04855 0.93545 0.0625 1.5625 0.01905 0.85585-0.23183 1.8972-0.21875 2.875l-0.28125 6-1.25-2.5938 0.78125-8.6875zm-77.781 0.09375c0.09655 0.06824 0.06863 0.29299 0.03125 0.53125l-1.7188 0.46875-0.0625-0.84375 1.75-0.15625zm-32.156 0.03125c0.2124 1.8135 1.2245 3.7716 0.28125 5.375-0.68375 0.7263-1.036-1.4294-1.4062-2.375-0.25031-1.266 0.82855-2.0621 1.125-3zm41.562 0.625 2.5 1.3438-2.8125 2.1562-2.3125 0.3125-0.15625-1.5938 2.7812-2.2188zm-7.2188 0.5625c0.09201 0.00606 0.17873 0.03057 0.25 0.0625l0.15625 0.5625-2.1562 0.8125 0.0625-1.125c0.4795-0.06075 1.2044-0.34434 1.6875-0.3125zm25.062 0 0.0625 1.125-6.75 3.4062v-1.3125l6.6875-3.2188zm12.844 0.125 10.656 19.656c0.09939 1.462 0.21387 2.9124 0.25 4.375h-0.03125l-1.2812-1.4062 0.46875-0.3125c0.42446-0.54691 0.72912-2.4461-1.1562-2.4062l-0.40625 0.3125-1.0625-1.9062 0.4375-0.53125c0.25417-1.1299-0.16813-2.1979-1.2188-2.5625l-0.625 0.3125-0.71875-1.5 0.21875-0.125-0.21875-0.46875c0.48525-1.1316-0.34548-1.9317-1.3125-2.6562l-0.46875 0.25-1.0312-1.6562 0.21875-0.40625c0.2888-1.0137 0.02912-2.2818-1.2812-3.0625l-0.6875 0.4375-0.71875-1.8125 0.59375-0.40625c0.41982-1.399-0.46473-2.2742-1.5625-3.4375l-0.875 0.53125-0.0625-0.15625 1.875-1.0625zm-27.719 0.90625 3.0625 1.625-2.7812 2.4688-3.0938 0.21875-0.03125-2.1562 2.8438-2.1562zm25.406 0.40625 0.09375 0.125-6.125 3.625-0.15625-0.28125 6.1875-3.4688zm1.0938 0c1.1829 0.21725 1.6988 1.4778 1.6562 2.5938l-7.75 3.625-0.90625-2.2188 7-4zm-32.812 0.53125 0.1875 0.8125-2.6875 0.5625-0.09375-1.125 2.5938-0.25zm-39.625 0.4375c0.15928 2.1599 1.2337 2.442 1.8125 2.625-1.2673 5.7826-0.97365 12.609-1.375 18.5-0.51831 1.1697-1.624-0.72993-1-2.5312-1.1171-5.1137 0.21509-12.539 0.5625-18.594zm101.53 0.1875 1.4062 4.625c-0.93238 1.1291-1.8746 0.75941-2.5625 0.125l1.1562-4.75zm-52.125 0.28125 2.1562 1.1562-2.7188 2.1562-2 0.6875-0.25-1.875 2.8125-2.125zm-6.9375 0.59375 0.0625 0.71875-2.1875 0.34375 0.03125-0.90625 2.0938-0.15625zm-38.594 1.25c0.22828 1.5736 0.42165 3.1452 0.1875 4.7188-0.89674-0.40913-1.4202-1.1417-1.375-2.375 0.00978-0.90772 0.79555-1.5634 1.1875-2.3438zm69.312 0.09375 0.84375 1.875-6.2812 3.3125-1-2.0625 6.4375-3.125zm-8.3438 0.28125 10.469 19.656-0.75 2.5938c-4.4137-7.1598-7.9859-14.151-11.625-21.156l1.9062-1.0938zm-18.625 0.375v0.53125l-2.875 0.46875 0.03125-0.875 2.8438-0.125zm-44.125 1c0.31646 1.3789 0.65655 2.7297 1.7812 3.5312-0.67489 5.8533-1.3176 11.697-1.5312 17.781-0.75281-0.08836-2.0542-1.3097-1.5-2.625 0.4191-6.1046-0.54039-13.154 1.25-18.688zm72.875 0.1875c0.58495-0.12174 1.5045 1.275 1.1562 2.5625l-7.125 3-0.96875-1.875 6.9375-3.6875zm-26.344 0.09375 0.1875 0.625-2 0.5625c-0.01889-0.27893 0.10866-0.69876-0.0625-0.90625l1.875-0.28125zm61.219 0.71875c0.49785 1.106 1.6628 2.3602 1.4688 3.3125-0.63038 0.50324-0.85027 1.5538-2.1562 1.1562-0.26745-1.5724 0.4578-2.9793 0.6875-4.4688zm-101.28 0.375c0.35069 1.6412 1.1075 2.9761 1.0312 4.9375-0.61806 0.223-1.0212 1.0899-2.0625-0.0625-0.40816-1.9564 0.68519-3.248 1.0312-4.875zm91.719 0.0625c0.68004 0.42146 1.7057 0.71746 2.5625 0.125 0.44235 10.151-0.15981 19.859-0.25 29.781-0.39717 0.35693-0.7333 0.83864-1.4688 0.40625 7.4e-4 -0.06127 0.25-7.6695 0.25-14.969 0-3.6654-0.31051-7.1332-0.375-10.031-0.08716-0.95353-0.39164-0.88881-0.46875-1.7188-0.0807-0.86861 0.06566-2.6086-0.25-3.5938zm-50.875 0.3125 2.2188 0.03125c-0.08525 0.28092 0.26229-0.08662 0.40625-0.03125v0.5625l0.0625-0.15625v0.25h-0.0625v-0.03125c-0.01698-6.5e-4 -0.06083 0.01867-0.09375 0.03125l-2.5938-0.03125 0.0625-0.625zm-44 0.1875c0.05535 1.9443 0.49409 4.1534 0.21875 6.5938-0.57489-0.90176-1.466-2.1151-1.1562-4.3438 0.00924-0.94897 0.61003-1.5132 0.9375-2.25zm46.625 0.71875h0.09375l0.03125 0.53125h0.0625l0.0625 0.96875 2.2188 0.3125 1.4375-0.8125-0.1875 15.562c-1.1663 0.75266-3.1896 1.37-4.0625-1.8125l0.34375-14.75zm54.438 0.125c0.71555 0.95932 1.7374 1.5741 1.8438 3.2188-0.67219 0.89672-1.5455 0.68728-2.375 0.71875-0.79413-1.8946 0.29103-2.7817 0.53125-3.9375zm-53.938 0.4375 1.875 0.125 0.0625-0.03125 0.03125 0.8125-1.9062-0.15625-0.0625-0.75zm22.844 0.09375 1.125 1.8125-6.125 3.25-1.0938-2.1875 6.0938-2.875zm28.938 0.375c0.37082 1.1182 1.2137 1.1574 1.0625 3.4688-0.6875 0.63741-1.375 0.87234-2.0625 0.84375-0.09005-1.4375 0.64591-2.875 1-4.3125zm-5.4688 0.65625c0.957 0.66804 1.7779 1.3763 1.9375 2.5-0.72664 0.59089-1.4609 1.3161-2.1875 0.90625-0.09843-1.1798-0.10694-2.3403 0.25-3.4062zm-94.719 0.25c-0.13038 1.9049 0.77621 2.9371 1.2812 4.3125-1.2456 5.2993-1.1225 11.147-1.6875 16.719-0.909-0.36427-1.0523-2.729-0.90625-4.5-0.04679-5.7256 0.30025-11.276 1.3125-16.531zm108.03 0.3125c1.1099 6.9281 0.23926 12.942 0.34375 19.406-0.71234 0.69711-1.3298 1.6599-2.4375 1.25-0.29167-6.5104-0.14223-12.8-0.875-19.531l2.9688-1.125zm-15.906 0.09375c0.69381 1.1519 1.6317 1.6594 2.0625 3.4688-1.1146 1.172-2.5136 0.73205-3.8438 0.71875-0.00413-1.5934 1.1685-2.7997 1.7812-4.1875zm-18.812 0.0625c1.1064 0.20616 1.3643 1.0866 1.25 2.1875l-7.125 3.4688-0.9375-2 6.8125-3.6562zm8.625 0.09375 1.0938 5.4688c-0.84061-0.17418-1.5861 0.42723-2.5312-0.6875l1.4375-4.7812zm22.656 1.0938c0.90846 7.6711 0.60417 12.917 0.90625 19.375-1.0625 1.4369-2.25 1.4296-3.1875 1.625l-0.46875-19.75c0.91667-0.26611 1.8333-0.14149 2.75-1.25zm-101.34 0.34375c0.82796 1.1372 1.4936 0.33711 2.2188 0.34375 0.3401 10.679-0.16909 20.523-0.25 30.781-0.79626 0.27232-1.5423 0.36721-1.875-1.5625-0.89677-8.7657-0.37302-14.977 0.4375-23-0.72198-1.9667-0.57881-5.1249-0.53125-6.5625zm85.094 0c0.44936 1.0056 1.1845 1.7802 1.3125 3-0.95191 1.2756-1.8192 1.5305-2.6562 1.3125-0.18111-1.6452 0.89296-2.878 1.3438-4.3125zm-85.375 0.46875c0.02229 0.50005 0.01243 2.9581 0.03125 3.5312-0.66635 0.27671-1.1791-0.08175-0.875-1.3438l0.84375-2.1875zm98.344 0.375 0.53125 20.375-2.9062 2.8125c0.03944-7.3501 0.50923-14.485 0.09375-22.062 0.76042-0.26289 1.5208-0.31945 2.2812-1.125zm-4.75 0.15625c0.35049 2.6717 0.3125 5.8971 0.3125 9.0625 0 7.3231-0.375 15.031-0.375 15.031-0.61789 0.68393-1.1216 0.98251-1.5312 1.25-0.16109-7.9878 0.4357-15.981-0.5-23.969 0.47366-0.04738 1.9568-0.76644 2.0938-1.375zm-22.438 0.34375 0.90625 1.5938-6.4062 3.2188-0.90625-1.7188 6.4062-3.0938zm10.844 0.8125c0.47024 0.80892 1.6358 1.3465 1.375 2.4688-1.5901 1.5869-2.0891 1.1342-2.9375 1.3438 0.14275-1.8447 1.0109-2.581 1.5625-3.8125zm9.0938 0.40625c1.0336 7.8582 0.32726 15.914 0.4375 23.875-1.0717 1.0014-2.2156 1.6555-3.625 1.5312 0.00501-0.71057 0.16491-5.9861 0.125-11.5-0.18473-4.3635 0.11309-8.786-0.46875-13.125 1.1771-0.19197 2.3542 0.43285 3.5312-0.78125zm-92.344 0.25c0.01478 0.96975 0.16038 1.7842 0.875 1.9375-0.49981 5.6824-1.7088 11.776-1.5625 17.781-1.3695 0.79057-1.2149-1.0178-1.0938-2.75 0.5323-4.5138-0.0585-12.098 1.7812-16.969zm74.344 0.09375c0.77282-0.05233 1.0916 0.66717 1.0312 2.0312l-7.2188 3.5312-0.96875-1.8438 7.1562-3.7188zm14.156 0.28125c0.44268 4.2247 0.17868 9.0665 0.21875 13.312 0.04285 5.9206-0.125 11.781-0.125 11.781-1.0041 0.72121-1.2946 2.9449-3.4375 1.9062 0.065-8.2608 0.78627-17.006 0.1875-25.156 1.1318 0.259 2.7137-0.49446 3.1562-1.8438zm-9.8125 0.65625c1.1584 1.086 1.4641 0.47147 2.1875 0.6875 0.62762 9.4336 0.04093 19.271 0.0625 28.906-0.19462 1.4874-0.95518 0.83365-1.5938 0.65625 0.29204-0.06127 0.68714-14.138 0.0625-21.438-0.32837-2.4227-0.8438-5.9399-0.71875-8.8125zm-77.594 1.2188c0.10561 0.55991 0.50796 1.1635 0.5625 1.5625-0.79876 6.6585-1.0883 15.229-0.375 22.25-1.653 2.0049-1.625-3.4397-1.4688-4.8125-0.43575-6.082 0.76207-13.148 1.2812-19zm83.219 0.4375c1.415 7.8351 0.33227 16.995 0.28125 25.281-0.99273 1.4116-2.1635 1.133-3.1562 1.0625l0.125-25.25c0.92708-0.33348 1.8229 0.36828 2.75-1.0938zm-20.969 0.09375 0.46875 0.84375c0.4093 1.2105 0.87448 2.4084 0.875 3.75-1.2557 1.1817-1.7527 0.49089-2.4062 0.21875 0.08272-1.8775 0.66961-3.2465 1.0625-4.8125zm11.688 0.03125 1.0625 1.7812-6.7188 3.5-1.0312-2.125 6.6875-3.1562zm-68.438 0.78125 1.625 4.75c-1.2119 0.24452-3.366 0.22889-3.9062-1.0938l2.2812-3.6562zm57.594 0.71875 4.3125 7.7812-0.53125 1.9375-1.625-2.25-1.2812 3.4375 0.03125-7.6562-0.90625-3.25zm12.781 0.375c0.69368-0.10051 1.1121 1.148 0.5 1.8125l-0.25 0.125-0.75-0.84375-0.25 1.3125-1.7812 0.84375-0.96875-1.3438-0.53125 2.0312-2.5 1.1875h-0.03125l-0.03125-0.03125-0.0625-0.09375-0.0625-0.09375-0.625-0.6875 0.03125-0.09375 0.59375 0.78125-0.59375-1.0312 7-3.75c0.1081-0.07537 0.2134-0.11064 0.3125-0.125zm-64.938 0.65625 1.375 3.9062c-1.5225 0.9604-2.9268 0.79453-4.2188-0.78125l2.8438-3.125zm4.3438 0.03125 2.625 4.8438c-1.7206 0.88003-3.25 0.46533-4.625-0.84375 0.04766-1.7017 1.3326-2.6702 2-4zm5.0938 0.4375c0.45507 1.6895 1.0606 3.0293 1.3438 5.0625-0.80112 0.35436-2.3976 0.49073-3.3125-0.40625 0.23597-1.8353 1.3206-3.0958 1.9688-4.6562zm55.281 0.46875c0.49507 1.001 1.422 1.8869 1.4688 3-0.57664 1.5932-1.3181 0.72443-2 0.84375-0.2675-1.3896 0.35112-2.5661 0.53125-3.8438zm-51.312 0.1875c0.75514 1.8217 2.4913 3.647 2.25 5.4688-1.6617 1.0861-3.3131-0.08116-4.1875-0.8125 0.52466-2.2412 1.2981-3.1036 1.9375-4.6562zm5.3438 0.6875c0.62447 1.9037 1.7864 3.891 1.875 5.6875-2.0081 1.0514-2.971 0.16963-3.9688-0.6875-0.00802-2.0228 1.387-3.3346 2.0938-5zm42.875 0.09375c0.61762 1.0813 1.4667 1.7766 1.8438 3.2188-0.84111 1.6332-1.7982 2.2619-2.875 1.6562-0.32053-1.6238 0.68805-3.2512 1.0312-4.875zm2.4375 0.46875-0.375 1.9688-0.96875-1.3125 1.3438-0.65625zm-40.438 0.21875c0.63772 1.8225 1.5716 3.3432 1.9062 5.4688-1.0625 0.51648-3.3125 0.63008-4.375-0.4375 0.44243-1.9694 1.6173-3.3686 2.4688-5.0312zm-31.531 0.09375c2.2218 1.6712 2.8919 0.74752 4.1875 0.875 0.27883 7.102-0.43306 13.914-0.8125 20.906-1.5232 0.75022-2.5113-0.08415-3.4688-1.0312 0.0496-6.9167 0.66446-13.833 0.09375-20.75zm58.125 0c0.53355 0.47902 1.3275 0.56826 2.4375 0.125 0.07286 10.114-0.13144 20.708-0.1875 31.062-0.12894 0.89043-0.78422 0.72074-1.7188 0 0.04283-4.8228-0.10099-16.177-0.09375-21 0-0.91212 0.03824-1.5251 0.09375-1.9688-0.44501-2.54-0.36806-5.5768-0.53125-8.2188zm7.4688 1.0938c0.67736 1.1909 2.2117 2.3716 2 3.5625-0.7203 1.139-1.1981 2.5927-3.1562 2.1562-0.43245-1.9058 0.74608-3.813 1.1562-5.7188zm-60.938 0.03125c1.5684 1.3442 3.2239 1.2406 4.9062 0.875 0.92372 7.6877-1.1509 13.732-0.9375 20.5-1.77 1.3372-3.1545 0.0558-4.5938-0.8125 0.38505-6.8542 0.90022-13.708 0.625-20.562zm63.969 0.1875-0.59375 2.2812-0.0625 0.03125-1.25-1.4062 1.9062-0.90625zm-58.562 0.875c1.4332 0.87604 2.9928 1.0253 4.6562 0.75-1.2051 7.5678-0.88119 14.039-1 20.781-1.8267 0.74092-3.1485-0.38835-4.5312-1.3125-0.25562-6.921 1.6889-12.718 0.875-20.219zm64.531 0c0.61926 6.8604 0.65997 13.841 0.21875 20.938-1.1798 1.8075-1.4092 1.3261-1.9688 1.4375-0.12555-7.1206 0.10311-14.908-0.5625-21.812 0.91267 0.25335 1.5128-0.06518 2.3125-0.5625zm-37.594 0.0625c0.43109 1.2146 1.1287 2.6169 1.25 3.625-1.4288 0.86958-3.0218 0.38989-3.875-0.8125 0.86594-1.7437 1.7591-1.9007 2.625-2.8125zm34.812 0.40625c1.0285 7.2012 0.72684 14.611 0.5625 21.812-0.85394 1.4732-1.7262 2.9053-3.1562 1.8438-0.20297-7.1527 0.58976-14.176-0.59375-21.469 0.90212-0.21309 1.6162 0.14464 3.1875-2.1875zm-56.344 0.40625c1.0938 0.71529 2.1875 0.48957 3.2812 0.4375-0.87144 6.7429-0.53731 13.892-0.78125 20.844-1.679 0.90238-2.719 0.20198-3.7188-0.59375 0.12536-6.9276-0.00102-13.869 1.2188-20.688zm26.25 0.0625 2.1562 4.0625c-0.69091 0.43039-2.7401 1.4916-4.0625-1.0625 0.63046-1.9754 1.2758-2.0052 1.9062-3zm-22.281 0.5c1.2651 1.1596 2.7978 1.2452 4.4062 1.0312-0.91862 6.746-0.93855 13.504-0.59375 20.25-1.4695 0.37611-2.8147 1.4975-4.7188-0.625 0.27506-6.8845-0.29834-13.978 0.90625-20.656zm26.719 0.15625c0.96331 1.4068 2.2336 2.812 2.5625 4.2188-1.2377 0.22292-2.3422 1.0046-4.125-0.84375-0.0747-1.4793 1.0448-2.2511 1.5625-3.375zm16.219 0.6875c0.43053 0.95613 1.7284 1.6994 1.2812 2.875-0.75126 1.069-1.5941 1.9114-2.8125 1.8125 0.07103-2.1173 1.0142-3.1276 1.5312-4.6875zm-37.781 0.3125c1.1485 1.471 2.6086 0.76082 3.9688 0.75-0.21217 6.6908-1.4862 12.851-0.46875 20.156-1.3958 0.91481-2.7917 0.97951-4.1875-0.75-0.55926-6.944-0.36748-13.673 0.6875-20.156zm27 0.0625c0.7924 1.1265 1.9694 2.1062 2.25 3.4375-0.98809 1.5986-3.0737 0.7356-4.625-0.03125 0.19642-1.4219 1.5635-2.2919 2.375-3.4062zm16.5 0.40625c1.3001 6.9826 0.45507 14.228 0.6875 21.344-1.3915 2.331-2.6125 2.3567-3.6875 1.7812-0.15776-7.0066 0.69871-13.81-0.53125-21.031 0.89927 0.187 1.9312-0.06174 3.5312-2.0938zm-38.906 0.375c1.3843 1.3296 2.878 0.77296 4.375 0.1875-0.54283 6.9975-0.56686 13.93-0.1875 20.812-1.7783 1.199-3.2154 0.25112-4.6562-0.6875-1.4669-6.8623 0.19807-13.552 0.46875-20.312zm27.188 0.125c0.53127 1.208 1.545 1.8139 1.5938 3.625-1.2654 0.4844-2.423 0.46767-3.3438-0.65625-0.19193-1.2176 1.1628-1.9738 1.75-2.9688zm-22.125 0.1875c1.3081 1.582 3.2818 0.84904 4.8125 0.5625-0.66239 6.7004-0.97855 14.028-0.71875 20.844-1.533 1.0868-2.9159 0.68385-4.2188-0.53125-1.0147-7.0678-0.73211-14.153 0.125-20.875zm5.375 0.9375c1.3295 1.1153 2.9722 1.3664 4.5312 0.875-0.6559 6.9222-0.87992 14.055-0.90625 21.188-1.3884-0.17233-2.6535 0.95124-4.25-1.4062-0.67098-6.997-0.66304-14.12 0.625-20.656zm24.469 0.75c1.5822 6.5717 0.67446 14.759 0.34375 21.469-1.1398 1.4192-2.3687 1.6349-3.625 1.6562l-0.0625-20.906c0.87421-0.34907 2.1398-0.55056 3.3438-2.2188zm-19.469 0.25c1.2417 0.95978 2.5819 1.0336 3.9375 0.96875-0.29376 6.8734-0.81184 13.926-0.34375 20.906-1.5775 0.38319-3.1768 0.97235-4.5312-0.875-0.3077-7.1549 0.35245-14.068 0.9375-21zm4.4375 1c1.5103 0.47894 3.021 0.85463 4.5312 0.3125-1.1929 7.3607-0.14583 14.552-0.3125 21.656-1.3787 0.57358-3.006-0.03137-4.5-1.1875-0.68139-6.8286 0.14131-13.85 0.28125-20.781zm5.1875 0.5c1.3068 0.89945 2.5994 0.80349 3.9062 0.8125-0.37927 6.9094 0.02678 14.018 0.0625 21.031-1.5789 1.0095-3.0351 0.29266-4.5-0.75 0.04736-7.004-0.69515-13.795 0.53125-21.094z" fill-rule="evenodd"/>
</svg>
