<?xml version="1.0" encoding="UTF-8"?>
<svg viewBox="0 0 128 128" xmlns="http://www.w3.org/2000/svg" xmlns:xlink="http://www.w3.org/1999/xlink">
 <defs>
  <filter id="bd">
   <feGaussianBlur stdDeviation=".73062"/>
  </filter>
  <filter id="bc">
   <feGaussianBlur stdDeviation=".56263"/>
  </filter>
  <filter id="c" x="-.07099" y="-.10284" width="1.142" height="1.2057">
   <feGaussianBlur stdDeviation=".19827"/>
  </filter>
  <linearGradient id="a">
   <stop stop-color="#b1b1b1" offset="0"/>
   <stop stop-color="#e4e4e4" offset="1"/>
  </linearGradient>
  <linearGradient id="d">
   <stop stop-color="#6a3c1d" offset="0"/>
   <stop stop-color="#8f5127" offset="1"/>
  </linearGradient>
  <linearGradient id="b">
   <stop stop-color="#4f3e2a" offset="0"/>
   <stop stop-color="#72593c" offset="1"/>
  </linearGradient>
  <linearGradient id="bb" x1="30.036" x2="28.385" y1="81.083" y2="90.685" gradientUnits="userSpaceOnUse" xlink:href="#a"/>
  <linearGradient id="ba" x1="85.626" x2="113.15" y1="100.35" y2="81.45" gradientUnits="userSpaceOnUse" xlink:href="#a"/>
  <linearGradient id="az" x1="79.572" x2="75.596" y1="47.57" y2="54.542" gradientUnits="userSpaceOnUse" xlink:href="#a"/>
  <linearGradient id="ay" x1="35.234" x2="47.343" y1="54.664" y2="41.394" gradientUnits="userSpaceOnUse" xlink:href="#a"/>
  <linearGradient id="ax" x1="100.49" x2="102.38" y1="87.26" y2="89.462" gradientUnits="userSpaceOnUse" xlink:href="#a"/>
  <linearGradient id="aw" x1="97.551" x2="97.001" y1="84.997" y2="83.316" gradientUnits="userSpaceOnUse" xlink:href="#a"/>
  <linearGradient id="av" x1="91.986" x2="93.332" y1="88.147" y2="88.453" gradientUnits="userSpaceOnUse" xlink:href="#a"/>
  <linearGradient id="au" x1="65.07" x2="66.79" y1="102.64" y2="37.433" gradientUnits="userSpaceOnUse" xlink:href="#a"/>
  <linearGradient id="at" x1="98.427" x2="98.552" y1="88.892" y2="89.985" gradientUnits="userSpaceOnUse" xlink:href="#d"/>
  <linearGradient id="as" x1="98.521" x2="98.802" y1="92.329" y2="93.298" gradientUnits="userSpaceOnUse" xlink:href="#d"/>
  <linearGradient id="ar" x1="99.584" x2="100.61" gradientUnits="userSpaceOnUse" xlink:href="#d"/>
  <linearGradient id="aq" x1="96.834" x2="97.552" gradientUnits="userSpaceOnUse" xlink:href="#d"/>
  <linearGradient id="ap" x1="55.802" x2="56.834" y1="88.392" y2="89.235" gradientUnits="userSpaceOnUse" xlink:href="#a"/>
  <linearGradient id="ao" x1="57.302" x2="60.709" y1="91.11" y2="87.767" gradientUnits="userSpaceOnUse" xlink:href="#a"/>
  <linearGradient id="an" x1="64.427" x2="65.302" y1="90.735" y2="98.985" gradientUnits="userSpaceOnUse" xlink:href="#b"/>
  <linearGradient id="am" x1="67.216" x2="68.247" y1="81.361" y2="82.205" gradientUnits="userSpaceOnUse" xlink:href="#a"/>
  <linearGradient id="al" x1="68.716" x2="72.122" y1="84.08" y2="80.736" gradientUnits="userSpaceOnUse" xlink:href="#a"/>
  <linearGradient id="ak" x1="75.841" x2="76.716" y1="83.705" y2="91.955" gradientUnits="userSpaceOnUse" xlink:href="#b"/>
  <linearGradient id="aj" x1="78.939" x2="79.971" y1="74.558" y2="75.402" gradientUnits="userSpaceOnUse" xlink:href="#a"/>
  <linearGradient id="ai" x1="80.439" x2="83.846" y1="77.277" y2="73.933" gradientUnits="userSpaceOnUse" xlink:href="#a"/>
  <linearGradient id="ah" x1="87.564" x2="88.439" y1="76.902" y2="85.152" gradientUnits="userSpaceOnUse" xlink:href="#b"/>
  <linearGradient id="ag" x1="93.616" x2="97.022" y1="70.903" y2="67.559" gradientUnits="userSpaceOnUse" xlink:href="#a"/>
  <linearGradient id="af" x1="75.703" x2="76.734" y1="57.055" y2="57.899" gradientUnits="userSpaceOnUse" xlink:href="#a"/>
  <linearGradient id="ae" x1="77.203" x2="80.609" y1="59.774" y2="56.43" gradientUnits="userSpaceOnUse" xlink:href="#a"/>
  <linearGradient id="ad" x1="84.328" x2="85.203" y1="59.399" y2="67.649" gradientUnits="userSpaceOnUse" xlink:href="#b"/>
  <linearGradient id="ac" x1="59.653" x2="60.684" y1="44.638" y2="45.482" gradientUnits="userSpaceOnUse" xlink:href="#a"/>
  <linearGradient id="ab" x1="61.153" x2="64.559" y1="47.357" y2="44.013" gradientUnits="userSpaceOnUse" xlink:href="#a"/>
  <linearGradient id="aa" x1="68.278" x2="69.153" y1="46.982" y2="55.232" gradientUnits="userSpaceOnUse" xlink:href="#b"/>
  <linearGradient id="z" x1="63.286" x2="64.317" y1="63.429" y2="64.273" gradientUnits="userSpaceOnUse" xlink:href="#a"/>
  <linearGradient id="y" x1="64.786" x2="68.192" y1="66.148" y2="62.804" gradientUnits="userSpaceOnUse" xlink:href="#a"/>
  <linearGradient id="x" x1="71.911" x2="72.786" y1="65.773" y2="74.023" gradientUnits="userSpaceOnUse" xlink:href="#b"/>
  <linearGradient id="w" x1="47.137" x2="48.168" y1="50.583" y2="51.426" gradientUnits="userSpaceOnUse" xlink:href="#a"/>
  <linearGradient id="v" x1="48.637" x2="52.043" y1="53.301" y2="49.958" gradientUnits="userSpaceOnUse" xlink:href="#a"/>
  <linearGradient id="u" x1="55.762" x2="56.637" y1="52.926" y2="61.176" gradientUnits="userSpaceOnUse" xlink:href="#b"/>
  <linearGradient id="t" x1="35.611" x2="36.643" y1="57.022" y2="57.866" gradientUnits="userSpaceOnUse" xlink:href="#a"/>
  <linearGradient id="s" x1="37.111" x2="40.518" y1="59.741" y2="56.397" gradientUnits="userSpaceOnUse" xlink:href="#a"/>
  <linearGradient id="r" x1="44.236" x2="45.111" y1="59.366" y2="67.616" gradientUnits="userSpaceOnUse" xlink:href="#b"/>
  <linearGradient id="q" x1="51.694" x2="52.726" y1="69.803" y2="70.646" gradientUnits="userSpaceOnUse" xlink:href="#a"/>
  <linearGradient id="p" x1="53.194" x2="56.601" y1="72.521" y2="69.178" gradientUnits="userSpaceOnUse" xlink:href="#a"/>
  <linearGradient id="o" x1="60.319" x2="61.194" y1="72.146" y2="80.396" gradientUnits="userSpaceOnUse" xlink:href="#b"/>
  <linearGradient id="n" x1="40.466" x2="41.497" y1="76.705" y2="77.549" gradientUnits="userSpaceOnUse" xlink:href="#a"/>
  <linearGradient id="m" x1="41.966" x2="45.372" y1="79.424" y2="76.08" gradientUnits="userSpaceOnUse" xlink:href="#a"/>
  <linearGradient id="l" x1="49.091" x2="49.966" y1="79.049" y2="87.299" gradientUnits="userSpaceOnUse" xlink:href="#b"/>
  <linearGradient id="k" x1="23.855" x2="24.886" y1="63.495" y2="64.339" gradientUnits="userSpaceOnUse" xlink:href="#a"/>
  <linearGradient id="j" x1="25.355" x2="28.761" y1="66.214" y2="62.87" gradientUnits="userSpaceOnUse" xlink:href="#a"/>
  <linearGradient id="i" x1="32.48" x2="33.355" y1="65.839" y2="74.089" gradientUnits="userSpaceOnUse" xlink:href="#b"/>
  <linearGradient id="h" x1="92.241" x2="93.272" y1="68.122" y2="68.965" gradientUnits="userSpaceOnUse" xlink:href="#a"/>
  <linearGradient id="g" x1="93.741" x2="97.147" y1="70.84" y2="67.497" gradientUnits="userSpaceOnUse" xlink:href="#a"/>
  <linearGradient id="f" x1="100.87" x2="101.74" y1="70.465" y2="78.715" gradientUnits="userSpaceOnUse" xlink:href="#b"/>
  <linearGradient id="e" x1="54.274" x2="79.769" y1="98.294" y2="41.235" gradientUnits="userSpaceOnUse" xlink:href="#b"/>
 </defs>
 <path d="m41.865 94.173-39.944-27.595 56.909-26.718 40.285 28.438-57.25 25.875z" fill-opacity=".66667" fill-rule="evenodd" filter="url(#bd)"/>
 <path d="m91.427 90.673-26.625 11.75-27.312-20.5-1.125 0.4375-0.4375-1.25-1 0.25-0.625-1.625-19.812-14.875 22.312-10.375 27.875-13.25 23.938 16.375 30.937 21-1.5 0.625-0.5625 1.5-1.375 0.125-0.5 2.5625-1.75-2.5-9.125 3.9375-3.8125 8.3125-5.0625 2.5-4.4375-5z" fill="url(#e)" fill-rule="evenodd"/>
 <path d="m64.589 41.21 0.24462 1.3454 49.78 36.204-16.757 10.029 3.7916 3.9139 23.973-9.6625-55.896-40.362-5.137-1.4677z" fill-opacity=".66667" fill-rule="evenodd" filter="url(#bc)"/>
 <path d="m55.308 91.892-1.1243-0.17297-0.08649-1.1243 0.95135-1.7297 2.5081-1.6 3.2432 1.4703-5.4919 3.1568z" fill-opacity=".66667" fill-rule="evenodd" filter="url(#c)"/>
 <path d="m7.7754 61.881-0.30578 6.1767 57.425 43.176-0.12231-7.094-28.315-20.976-0.91733 0.85617-0.67271-1.5289-0.67271 0.18346-0.91733-2.0181-25.502-18.775z" fill="url(#bb)" fill-rule="evenodd"/>
 <path d="m64.711 104.51 28.621-12.843-0.06115-5.137 11.314-4.9536 0.06115 4.8313 10.396-4.5866 1.2231 2.5685 0.73386-2.6908h1.162l0.73386-1.2843 7.5832-3.547 0.18347 6.9105-24.279 10.763-0.12231-10.029-6.4213 2.9966 0.12231 9.7848-31.25 13.76v-6.5436z" fill="url(#ba)" fill-rule="evenodd"/>
 <path d="m64.466 36.563 0.06116 4.9536 54.856 37.244 3.8528-1.8958-58.77-40.301z" fill="url(#az)" fill-rule="evenodd"/>
 <path d="m10.711 61.636 43.114-20.242 1.2843 1.4677 0.67271-0.73386 0.67271-1.957 7.889-3.7916 0.42809 4.8313-50.086 23.728-4.4643-3.2412 0.48924-0.06115z" fill="url(#ay)" fill-rule="evenodd"/>
 <path d="m100.85 85.242 1.5289-0.73386-0.06115 9.9071-1.8347-1.0396 0.36694-8.1336z" fill="url(#ax)" fill-rule="evenodd"/>
 <path d="m102.63 80.044 1.8347 1.5289-11.191 5.0147-1.7735-1.59 11.13-4.9536z" fill="url(#aw)" fill-rule="evenodd"/>
 <path d="m91.558 85.426 1.7735 1.1008v4.9536l-1.7123-0.97848-0.06115-5.0759z" fill="url(#av)" fill-rule="evenodd"/>
 <path d="m91.741 90.685 1.59 0.97848-28.682 12.659-28.009-21.099-0.30578 0.06115-0.73386 0.5504-0.36693-0.30578-0.48924-1.2843-0.67271 0.48924-0.97848-1.957-25.624-19.08 45.805-21.832 1.59 1.7735 0.67271-0.79502 0.18347-2.0793 8.7452-4.2197 61.644 42.442-7.2775 3.1801-0.6727 1.4066-1.2231 0.12231-0.55039 2.5685-1.4677-2.3239-0.12231-0.06115-10.152 4.5866 0.06116-1.59 9.2956-3.9751 1.1619 0.85617 0.30578 0.97848 0.73386-1.8346 1.2843-0.24462 0.48924-1.4677 5.4428-2.385-58.954-40.424-8.0725 3.7305-0.48924 1.59-0.73386 1.1008-1.4066-1.4677-43.481 20.365 8.0725 5.9932 16.267 12.17 0.30578 1.5289 0.97848-0.36693 0.42809 1.2843 1.2231-0.36693 27.459 20.487 26.725-11.742z" fill="url(#au)" fill-rule="evenodd"/>
 <path d="m100.85 85.242 1.5289-0.73386-0.06115 9.9071-1.8347-1.0396 0.36694-8.1336z" fill-opacity=".15686" fill-rule="evenodd"/>
 <path d="m95.959 89.454 5.6562-2.5938 0.25 0.9375-0.34375 1.4688-5.625 2.3438 0.0625-2.1562z" fill="url(#at)" fill-rule="evenodd"/>
 <path d="m95.74 93.173 5.8437-2.6562 0.28125 0.84375-0.15625 1.0938-0.25 0.34375-5.5937 2.375-0.125-2z" fill="url(#as)" fill-rule="evenodd"/>
 <path d="m98.80236,87.26672 .09375,8.15625 .8125.03125 1.31249-.78125 .0625-8.3125-1.18749.03125-1.09375.875z" fill="url(#ar)" fill-rule="evenodd"/>
 <path d="m96.45861,96.51672-.0625-8.1875 .8125-.71875 .96875-.125 .09375,8.40625-.9375.59375-.875.03125z" fill="url(#aq)" fill-rule="evenodd"/>
 <path d="m55.834 92.204 0.84375-3.25 1.25-1.5 1.8125-1.1562-1.5312-0.03125-1.1562 0.625-1.2812 1.1562-1.125 3.375 1.1875 0.78125z" fill="url(#ap)" fill-rule="evenodd"/>
 <path d="m55.99 92.142 0.28125-1.6875 0.59375-1.6875 1.0312-1.2812 1.7812-1 1.2812 0.15625 1.7812 1.625 0.40625 0.78125-7.1562 3.0938z" fill="url(#ao)" fill-rule="evenodd"/>
 <path d="m56.396 92.892 7.4062-3.4062 8.9062 6.625-7.25 3.5312-9.0625-6.75z" fill="url(#an)" fill-rule="evenodd"/>
 <path d="m55.834 92.204 0.84375-3.25 1.25-1.5 1.8125-1.1562-1.5312-0.03125-1.1562 0.625-1.2812 1.1562-1.125 3.375 1.1875 0.78125z" fill-opacity=".15686" fill-rule="evenodd"/>
 <path d="m56.396 92.892 7.4062-3.4062 8.9062 6.625-7.25 3.5312-9.0625-6.75z" fill-opacity=".15686" fill-rule="evenodd"/>
 <path d="m66.721 84.861-1.1243-0.17297-0.08649-1.1243 0.95135-1.7297 2.5081-1.6 3.2432 1.4703-5.4919 3.1568z" fill-opacity=".66667" fill-rule="evenodd" filter="url(#c)"/>
 <path d="m67.247 85.174 0.84375-3.25 1.25-1.5 1.8125-1.1562-1.5312-0.03125-1.1562 0.625-1.2812 1.1562-1.125 3.375 1.1875 0.78125z" fill="url(#am)" fill-rule="evenodd"/>
 <path d="m67.403 85.111 0.28125-1.6875 0.59375-1.6875 1.0312-1.2812 1.7812-1 1.2812 0.15625 1.7812 1.625 0.40625 0.78125-7.1562 3.0938z" fill="url(#al)" fill-rule="evenodd"/>
 <path d="m67.809 85.861 7.4062-3.4062 8.9062 6.625-7.25 3.5312-9.0625-6.75z" fill="url(#ak)" fill-rule="evenodd"/>
 <path d="m67.247 85.174 0.84375-3.25 1.25-1.5 1.8125-1.1562-1.5312-0.03125-1.1562 0.625-1.2812 1.1562-1.125 3.375 1.1875 0.78125z" fill-opacity=".15686" fill-rule="evenodd"/>
 <path d="m67.809 85.861 7.4062-3.4062 8.9062 6.625-7.25 3.5312-9.0625-6.75z" fill-opacity=".15686" fill-rule="evenodd"/>
 <path d="m78.445 78.058-1.1243-0.17297-0.08649-1.1243 0.95135-1.7297 2.5081-1.6 3.2432 1.4703-5.4919 3.1568z" fill-opacity=".66667" fill-rule="evenodd" filter="url(#c)"/>
 <path d="m78.971 78.371 0.84375-3.25 1.25-1.5 1.8125-1.1562-1.5312-0.03125-1.1562 0.625-1.2812 1.1562-1.125 3.375 1.1875 0.78125z" fill="url(#aj)" fill-rule="evenodd"/>
 <path d="m79.127 78.308 0.28125-1.6875 0.59375-1.6875 1.0312-1.2812 1.7812-1 1.2812 0.15625 1.7812 1.625 0.40625 0.78125-7.1562 3.0938z" fill="url(#ai)" fill-rule="evenodd"/>
 <path d="m79.533 79.058 7.4062-3.4062 8.9062 6.625-7.25 3.5312-9.0625-6.75z" fill="url(#ah)" fill-rule="evenodd"/>
 <path d="m78.971 78.371 0.84375-3.25 1.25-1.5 1.8125-1.1562-1.5312-0.03125-1.1562 0.625-1.2812 1.1562-1.125 3.375 1.1875 0.78125z" fill-opacity=".15686" fill-rule="evenodd"/>
 <path d="m79.533 79.058 7.4062-3.4062 8.9062 6.625-7.25 3.5312-9.0625-6.75z" fill-opacity=".15686" fill-rule="evenodd"/>
 <path d="m92.304 71.934 0.28125-1.6875 0.59375-1.6875 1.0312-1.2812 1.7812-1 1.2812 0.15625 1.7812 1.625 0.40625 0.78125-7.1562 3.0938z" fill="url(#ag)" fill-rule="evenodd"/>
 <path d="m75.209 60.555-1.1243-0.17297-0.08649-1.1243 0.95135-1.7297 2.5081-1.6 3.2432 1.4703-5.4919 3.1568z" fill-opacity=".66667" fill-rule="evenodd" filter="url(#c)"/>
 <path d="m75.734 60.868 0.84375-3.25 1.25-1.5 1.8125-1.1562-1.5312-0.03125-1.1562 0.625-1.2812 1.1562-1.125 3.375 1.1875 0.78125z" fill="url(#af)" fill-rule="evenodd"/>
 <path d="m75.89 60.805 0.28125-1.6875 0.59375-1.6875 1.0312-1.2812 1.7812-1 1.2812 0.15625 1.7812 1.625 0.40625 0.78125-7.1562 3.0938z" fill="url(#ae)" fill-rule="evenodd"/>
 <path d="m76.297 61.555 7.4062-3.4062 8.9062 6.625-7.25 3.5312-9.0625-6.75z" fill="url(#ad)" fill-rule="evenodd"/>
 <path d="m75.734 60.868 0.84375-3.25 1.25-1.5 1.8125-1.1562-1.5312-0.03125-1.1562 0.625-1.2812 1.1562-1.125 3.375 1.1875 0.78125z" fill-opacity=".15686" fill-rule="evenodd"/>
 <path d="m76.297 61.555 7.4062-3.4062 8.9062 6.625-7.25 3.5312-9.0625-6.75z" fill-opacity=".15686" fill-rule="evenodd"/>
 <path d="m59.159 48.138-1.1243-0.17297-0.08649-1.1243 0.95135-1.7297 2.5081-1.6 3.2432 1.4703-5.4919 3.1568z" fill-opacity=".66667" fill-rule="evenodd" filter="url(#c)"/>
 <path d="m59.684 48.451 0.84375-3.25 1.25-1.5 1.8125-1.1562-1.5312-0.03125-1.1562 0.625-1.2812 1.1562-1.125 3.375 1.1875 0.78125z" fill="url(#ac)" fill-rule="evenodd"/>
 <path d="m59.841 48.388 0.28125-1.6875 0.59375-1.6875 1.0312-1.2812 1.7812-1 1.2812 0.15625 1.7812 1.625 0.40625 0.78125-7.1562 3.0938z" fill="url(#ab)" fill-rule="evenodd"/>
 <path d="m60.247 49.138 7.4062-3.4062 8.9062 6.625-7.25 3.5312-9.0625-6.75z" fill="url(#aa)" fill-rule="evenodd"/>
 <path d="m59.684 48.451 0.84375-3.25 1.25-1.5 1.8125-1.1562-1.5312-0.03125-1.1562 0.625-1.2812 1.1562-1.125 3.375 1.1875 0.78125z" fill-opacity=".15686" fill-rule="evenodd"/>
 <path d="m60.247 49.138 7.4062-3.4062 8.9062 6.625-7.25 3.5312-9.0625-6.75z" fill-opacity=".15686" fill-rule="evenodd"/>
 <path d="m62.792 66.929-1.1243-0.17297-0.08649-1.1243 0.95135-1.7297 2.5081-1.6 3.2432 1.4703-5.4919 3.1568z" fill-opacity=".66667" fill-rule="evenodd" filter="url(#c)"/>
 <path d="m63.317 67.241 0.84375-3.25 1.25-1.5 1.8125-1.1562-1.5312-0.03125-1.1562 0.625-1.2812 1.1562-1.125 3.375 1.1875 0.78125z" fill="url(#z)" fill-rule="evenodd"/>
 <path d="m63.473 67.179 0.28125-1.6875 0.59375-1.6875 1.0312-1.2812 1.7812-1 1.2812 0.15625 1.7812 1.625 0.40625 0.78125-7.1562 3.0938z" fill="url(#y)" fill-rule="evenodd"/>
 <path d="m63.88 67.929 7.4062-3.4062 8.9062 6.625-7.25 3.5312-9.0625-6.75z" fill="url(#x)" fill-rule="evenodd"/>
 <path d="m63.317 67.241 0.84375-3.25 1.25-1.5 1.8125-1.1562-1.5312-0.03125-1.1562 0.625-1.2812 1.1562-1.125 3.375 1.1875 0.78125z" fill-opacity=".15686" fill-rule="evenodd"/>
 <path d="m63.88 67.929 7.4062-3.4062 8.9062 6.625-7.25 3.5312-9.0625-6.75z" fill-opacity=".15686" fill-rule="evenodd"/>
 <path d="m46.643 54.083-1.1243-0.17297-0.08649-1.1243 0.95135-1.7297 2.5081-1.6 3.2432 1.4703-5.4919 3.1568z" fill-opacity=".66667" fill-rule="evenodd" filter="url(#c)"/>
 <path d="m47.168 54.395 0.84375-3.25 1.25-1.5 1.8125-1.1562-1.5312-0.03125-1.1562 0.625-1.2812 1.1562-1.125 3.375 1.1875 0.78125z" fill="url(#w)" fill-rule="evenodd"/>
 <path d="m47.324 54.333 0.28125-1.6875 0.59375-1.6875 1.0312-1.2812 1.7812-1 1.2812 0.15625 1.7812 1.625 0.40625 0.78125-7.1562 3.0938z" fill="url(#v)" fill-rule="evenodd"/>
 <path d="m47.731 55.083 7.4062-3.4062 8.9062 6.625-7.25 3.5312-9.0625-6.75z" fill="url(#u)" fill-rule="evenodd"/>
 <path d="m47.168 54.395 0.84375-3.25 1.25-1.5 1.8125-1.1562-1.5312-0.03125-1.1562 0.625-1.2812 1.1562-1.125 3.375 1.1875 0.78125z" fill-opacity=".15686" fill-rule="evenodd"/>
 <path d="m47.731 55.083 7.4062-3.4062 8.9062 6.625-7.25 3.5312-9.0625-6.75z" fill-opacity=".15686" fill-rule="evenodd"/>
 <path d="m35.117 60.522-1.1243-0.17297-0.08649-1.1243 0.95135-1.7297 2.5081-1.6 3.2432 1.4703-5.4919 3.1568z" fill-opacity=".66667" fill-rule="evenodd" filter="url(#c)"/>
 <path d="m35.643 60.835 0.84375-3.25 1.25-1.5 1.8125-1.1562-1.5312-0.03125-1.1562 0.625-1.2812 1.1562-1.125 3.375 1.1875 0.78125z" fill="url(#t)" fill-rule="evenodd"/>
 <path d="m35.799 60.772 0.28125-1.6875 0.59375-1.6875 1.0312-1.2812 1.7812-1 1.2812 0.15625 1.7812 1.625 0.40625 0.78125-7.1562 3.0938z" fill="url(#s)" fill-rule="evenodd"/>
 <path d="m36.205 61.522 7.4062-3.4062 8.9062 6.625-7.25 3.5312-9.0625-6.75z" fill="url(#r)" fill-rule="evenodd"/>
 <path d="m35.643 60.835 0.84375-3.25 1.25-1.5 1.8125-1.1562-1.5312-0.03125-1.1562 0.625-1.2812 1.1562-1.125 3.375 1.1875 0.78125z" fill-opacity=".15686" fill-rule="evenodd"/>
 <path d="m36.205 61.522 7.4062-3.4062 8.9062 6.625-7.25 3.5312-9.0625-6.75z" fill-opacity=".15686" fill-rule="evenodd"/>
 <path d="m51.2 73.303-1.1243-0.17297-0.08649-1.1243 0.95135-1.7297 2.5081-1.6 3.2432 1.4703-5.4919 3.1568z" fill-opacity=".66667" fill-rule="evenodd" filter="url(#c)"/>
 <path d="m51.726 73.615 0.84375-3.25 1.25-1.5 1.8125-1.1562-1.5312-0.03125-1.1562 0.625-1.2812 1.1562-1.125 3.375 1.1875 0.78125z" fill="url(#q)" fill-rule="evenodd"/>
 <path d="m51.882 73.553 0.28125-1.6875 0.59375-1.6875 1.0312-1.2812 1.7812-1 1.2812 0.15625 1.7812 1.625 0.40625 0.78125-7.1562 3.0938z" fill="url(#p)" fill-rule="evenodd"/>
 <path d="m52.288 74.303 7.4062-3.4062 8.9062 6.625-7.25 3.5312-9.0625-6.75z" fill="url(#o)" fill-rule="evenodd"/>
 <path d="m51.726 73.615 0.84375-3.25 1.25-1.5 1.8125-1.1562-1.5312-0.03125-1.1562 0.625-1.2812 1.1562-1.125 3.375 1.1875 0.78125z" fill-opacity=".15686" fill-rule="evenodd"/>
 <path d="m52.288 74.303 7.4062-3.4062 8.9062 6.625-7.25 3.5312-9.0625-6.75z" fill-opacity=".15686" fill-rule="evenodd"/>
 <path d="m39.972 80.205-1.1243-0.17297-0.08649-1.1243 0.95135-1.7297 2.5081-1.6 3.2432 1.4703-5.4919 3.1568z" fill-opacity=".66667" fill-rule="evenodd" filter="url(#c)"/>
 <path d="m40.497 80.517 0.84375-3.25 1.25-1.5 1.8125-1.1562-1.5312-0.03125-1.1562 0.625-1.2812 1.1562-1.125 3.375 1.1875 0.78125z" fill="url(#n)" fill-rule="evenodd"/>
 <path d="m40.653 80.455 0.28125-1.6875 0.59375-1.6875 1.0312-1.2812 1.7812-1 1.2812 0.15625 1.7812 1.625 0.40625 0.78125-7.1562 3.0938z" fill="url(#m)" fill-rule="evenodd"/>
 <path d="m41.06 81.205 7.4062-3.4062 8.9062 6.625-7.25 3.5312-9.0625-6.75z" fill="url(#l)" fill-rule="evenodd"/>
 <path d="m40.497 80.517 0.84375-3.25 1.25-1.5 1.8125-1.1562-1.5312-0.03125-1.1562 0.625-1.2812 1.1562-1.125 3.375 1.1875 0.78125z" fill-opacity=".15686" fill-rule="evenodd"/>
 <path d="m41.06 81.205 7.4062-3.4062 8.9062 6.625-7.25 3.5312-9.0625-6.75z" fill-opacity=".15686" fill-rule="evenodd"/>
 <path d="m23.361 66.995-1.1243-0.17297-0.08649-1.1243 0.95135-1.7297 2.5081-1.6 3.2432 1.4703-5.4919 3.1568z" fill-opacity=".66667" fill-rule="evenodd" filter="url(#c)"/>
 <path d="m23.886 67.308 0.84375-3.25 1.25-1.5 1.8125-1.1562-1.5312-0.03125-1.1562 0.625-1.2812 1.1562-1.125 3.375 1.1875 0.78125z" fill="url(#k)" fill-rule="evenodd"/>
 <path d="m24.042 67.245 0.28125-1.6875 0.59375-1.6875 1.0312-1.2812 1.7812-1 1.2812 0.15625 1.7812 1.625 0.40625 0.78125-7.1562 3.0938z" fill="url(#j)" fill-rule="evenodd"/>
 <path d="m24.449 67.995 7.4062-3.4062 8.9062 6.625-7.25 3.5312-9.0625-6.75z" fill="url(#i)" fill-rule="evenodd"/>
 <path d="m23.886 67.308 0.84375-3.25 1.25-1.5 1.8125-1.1562-1.5312-0.03125-1.1562 0.625-1.2812 1.1562-1.125 3.375 1.1875 0.78125z" fill-opacity=".15686" fill-rule="evenodd"/>
 <path d="m24.449 67.995 7.4062-3.4062 8.9062 6.625-7.25 3.5312-9.0625-6.75z" fill-opacity=".15686" fill-rule="evenodd"/>
 <path d="m91.746 71.622-1.1243-0.17297-0.08649-1.1243 0.95135-1.7297 2.5081-1.6 3.2432 1.4703-5.4919 3.1568z" fill-opacity=".66667" fill-rule="evenodd" filter="url(#c)"/>
 <path d="m92.27191,71.93412 .84375-3.25 1.25-1.5 1.8125-1.15625-1.25008.24992-1.3863.49719c-.6611.187-1.06738.71376-1.53686,1.15625l-.92051,3.22163 1.1875.78125z" fill="url(#h)" fill-rule="evenodd"/>
 <path d="m92.428 71.872 0.28125-1.6875 0.59375-1.6875 1.0312-1.2812 1.7812-1 1.2812 0.15625 1.7812 1.625 0.40625 0.78125-7.1562 3.0938z" fill="url(#g)" fill-rule="evenodd"/>
 <path d="m92.834 72.622 7.4062-3.4062 8.9062 6.625-7.25 3.5312-9.0625-6.75z" fill="url(#f)" fill-rule="evenodd"/>
 <path d="m92.27191,71.93412 .84375-3.25 1.25-1.5 1.8125-1.15625-1.1734.30104c-.59842.20332-1.19685.17455-1.79527.625l-1.20457,1.00288-.92051,3.19607 1.1875.78125z" fill-opacity=".15686" fill-rule="evenodd"/>
 <path d="m92.834 72.622 7.4062-3.4062 8.9062 6.625-7.25 3.5312-9.0625-6.75z" fill-opacity=".15686" fill-rule="evenodd"/>
 <path d="m7.7754 61.881-0.30578 6.1767 57.425 43.176-0.12231-7.094-28.315-20.976-0.91733 0.85617-0.67271-1.5289-0.67271 0.18346-0.91733-2.0181-25.502-18.775z" fill-opacity=".15686" fill-rule="evenodd"/>
 <path d="m64.466 36.563 0.06116 4.9536 54.856 37.244 3.8528-1.8958-58.77-40.301z" fill-opacity=".15686" fill-rule="evenodd"/>
 <path d="m91.558 85.426 1.7735 1.1008v4.9536l-1.7123-0.97848-0.06115-5.0759z" fill-opacity=".15686" fill-rule="evenodd"/>
 <path d="m64.48986,34.39172-8.92954,4.24312-.12164,2.14185-.54371.86384-1.59957-1.97065-46.08678,21.94059-.40625,6.8125 57.9375,43 31.46875-14.09375-.0625-2.15625 .1875-.09375v1.625c1.00167.11334 1.58645-.32917 2.09375-.875l-.03125-1.5625 .28125-.125v1.4375c.8125.04795 1.62499.08537 2.43749-.84375v-.84375l1.25.8125 24.5-10.75-.3125-7.03125-62.06249-42.53125zm0,.53125 61.03124,42.0625-6.85106,3.04607-.63845,1.42281-1.26602.10452-.55665,2.62259-1.25251-2.41187-10.02906,4.37213v-.96875l9.14353-4.1451 .95364.8299 .52681,1.04061 .7814-1.9684 1.19054-.18055 .511-1.30531 5.76808-2.52115-59.06249-40.53125v-.09375l-.0625.03125-.1875-.125-8.2285,3.83148-.46436,1.51214-.61376,1.28854-1.42712-1.63416-43.82877,20.40824 24.35828,18.20986 .46077,1.71886 .8459-.33607 .71834,1.20875 .93837-.37616 27.64708,20.66851 26.84375-11.75 1,.625-28,12.4375-28.10994-21.05136-1.23295.87319-.49553-1.71443-.75527.46549-.62792-1.95455-25.2784-18.93083 44.99593-21.67061 1.63426,1.67678 .79052-.80446 .07136-1.81322 8.75793-4.16975zm-.40625,1.78125 .28125,4.3125-49.75,23.75-3.90625-2.875 43.20146-20.38664 1.32844,1.55407 .89187-1.3382 .23163-1.37294 7.72159-3.6438zm.65625.21875 57.96874,39.90625-3.1875,1.40625-54.65624-37.03125-.125-4.28125zm-.21875,4.6875 54.28124,36.9375-1.0002.43703-.45486,1.58529-1.31509.07461-.49732,2.2249-.40181-1.24143-1.2533-.91222-8.95242,3.89433-.15625-3.125-2.09375-1.59375-11.40624,4.90625 .0625,5.75-26.40625,11.53125-27.39382-20.31837-1.07993.5235-.51842-1.41266-.71534.26578-.58766-1.52859-19.67357-14.59216 33.125-15.65625c-.36284.26577-.7754.6185-1.25,1.09375l-1.0625,3.34375 1.5,1.125 7.46875-3.5c-.58741-1.38758-1.71467-2.21159-2.9375-3-.38854-.00093-.55311-.17198-.875-.0625-.37007-.01265-.88927.21526-1.28125.28125l10.6875-5.0625c-.29036.23882-.57563.51268-.90625.84375l-1.0625,3.34375 1.5,1.15625 7.46875-3.53125c-.58741-1.38758-1.71467-2.21159-2.9375-3-.38853-.00093-.36561-.23448-.6875-.125-.19525-.00667-.40988.01228-.625.03125l1.4375-.6875zm-1.09375.96875c-.79027.47394-2.17216,1.52371-2.84375,2.25-.32654,1.05012-.79926,2.00549-.84375,3.28125l-.75-.40625 .65625-3.15625 .78125.46875c.09288-.15056-.62652-.56069-.53125-.6875 .87705-1.16747 2.59357-1.6638 3.53125-1.75zm.4375.375c.16595-.01917.33713-.01683.5,0 .99629.34542 2.04525,1.61227 2.5,2.21875l-6.8125,3c.13105-.56856.68628-2.4283.875-3.125 .58579-.98989 1.77584-1.95953 2.9375-2.09375zm-1.5625,1.0625-1.1875,2.125 .21875.09375 1.03125-1.46875 .53125,1.25 .6875-.1875-.4375-1.3125 .96875.65625 .625-.9375-.21875-.15625-.3125.8125-1.15625-.71875 .25,1.53125-1-1.6875zm5.4375,1.59375-7.75,3.59375 9.28125,6.875 7.5-3.75-9.03125-6.71875zm-.0625.375 8.65625,6.34375-6.84375,3.3125-8.78125-6.53125 6.96875-3.125zm-.25.25 .0625,1.5625 .03125-.03125 .28125-1.5-.375-.03125zm.03125,1.75-2.21875,1.09375 .1875.1875 2.09375-1.28125h-.0625zm.84375.03125-.0625.09375 3.96875,3.28125h.15625l-4.0625-3.375zm-17.71875.78125c-.79027.47394-1.92216,1.33621-2.59375,2.0625-.32654,1.05012-.79926,2.00549-.84375,3.28125l-.75-.40625 .65625-3.15625 .78125.46875c.09288-.15056-.62652-.56069-.53125-.6875 .87705-1.16747 2.34357-1.4763 3.28125-1.5625zm.6875.1875c.16595-.01917.33713-.01683.5,0 .99629.34542 2.04525,1.61227 2.5,2.21875l-6.8125,3c.13105-.56856.68628-2.4283.875-3.125 .58578-.98989 1.77584-1.95953 2.9375-2.09375zm13.0625.125-2.9375.28125 .09375.0625 2.75-.125 .09375-.21875zm.5.25-.125.09375 4.375,4 .15625-.21875-4.40625-3.875zm-15.125.6875-1.1875,2.125 .21875.09375 1.03125-1.46875 .53125,1.25 .6875-.1875-.4375-1.3125 .96875.65625 .625-.9375-.21875-.15625-.3125.8125-1.15625-.71875 .25,1.53125-1-1.6875zm22.5,1.53125-2.5,1.46875 .1875.28125 2.34375-1.71875-.03125-.03125zm-17.0625.0625-7.71875,3.5625 9.25,6.90625 7.5-3.75-9.03125-6.71875zm17.65625.09375-.0625.28125c.94975.217 1.88403.20705 2.84375.375v-.09375c-.93795-.10328-1.85949-.36823-2.78125-.5625zm-17.71875.28125 8.65625,6.34375-6.84375,3.3125-8.78125-6.53125 6.96875-3.125zm-.25.25 .0625,1.5625 .03125-.03125 .28125-1.5-.375-.03125zm14.75,1.4375-.40625.03125 .125,1.46875h.125l.15625-1.5zm-14.71875.3125-2.21875,1.09375 .1875.1875 2.09375-1.28125h-.0625zm.84375.03125-.0625.09375 3.96875,3.28125h.15625l-4.0625-3.375zm24,.625c-.06677-.00652-.13828.00388-.21875.03125-1.01484-.03469-2.05221.11188-4.09375,2.15625l-1.0625,3.34375 1.5,1.125 7.46875-3.5c-.58741-1.38758-1.71467-2.21159-2.9375-3-.2914-.0007-.45595-.13671-.65625-.15625zm-39.3125.15625c-.38853-.00093-.74061-.17198-1.0625-.0625-1.01484-.03469-1.86471.04938-3.90625,2.09375l-1.0625,3.34375 1.5,1.125 7.46875-3.5c-.58741-1.38758-1.71467-2.21159-2.9375-3zm38.75.1875c-.79027.47393-1.92216,1.52371-2.59375,2.25-.32654,1.05012-.79926,2.00549-.84375,3.28125l-.75-.40625 .65625-3.15625 .78125.46875c.09288-.15057-.62652-.56069-.53125-.6875 .87705-1.16747 2.34357-1.6638 3.28125-1.75zm-27.40625.125-2.9375.28125 .09375.0625 2.75-.125 .09375-.21875zm-12.5-.0625c-.79027.47393-1.98466,1.46121-2.65625,2.1875-.32654,1.05012-.79926,2.00549-.84375,3.28125l-.75-.40625 .65625-3.15625 .78125.46875c.09288-.15057-.62652-.56069-.53125-.6875 .87705-1.16747 2.40607-1.6013 3.34375-1.6875zm.625.3125c.16595-.01918.33713-.01683.5,0 .99629.34542 2.04525,1.61227 2.5,2.21875l-6.8125,3c.13105-.56856.68628-2.4283.875-3.125 .58579-.98989 1.77584-1.95953 2.9375-2.09375zm12.375,0-.125.09375 4.375,4 .15625-.21875-4.40625-3.875zm27.59375,0c.16595-.01918.33714-.01683.5,0 .99629.34542 2.04525,1.61227 2.5,2.21875l-6.8125,3c.13105-.56856.68628-2.4283.875-3.125 .58578-.98989 1.77584-1.95953 2.9375-2.09375zm-41.53125,1.0625-1.1875,2.125 .21875.09375 1.03125-1.46875 .53125,1.25 .6875-.1875-.4375-1.3125 .96875.65625 .625-.9375-.21875-.15625-.3125.8125-1.15625-.71875 .25,1.53125-1-1.6875zm39.96875,0-1.1875,2.125 .21875.09375 1.03125-1.46875 .53125,1.25 .6875-.1875-.4375-1.3125 .96875.65625 .625-.9375-.21875-.15625-.3125.8125-1.15625-.71875 .25,1.53125-1-1.6875zm-18.65625,1.15625-2.5,1.46875 .1875.28125 2.34375-1.71875-.03125-.03125zm.59375.15625-.0625.28125c.94975.217 1.88403.20705 2.84375.375v-.09375c-.93795-.10328-1.85949-.36823-2.78125-.5625zm-16.46875.28125-7.75,3.5625 9.28125,6.90625 7.5-3.75-9.03125-6.71875zm39.96875,0-7.75,3.5625 9.28125,6.90625 7.5-3.75-9.03125-6.71875zm-40.03125.375 8.65625,6.34375-6.84375,3.3125-8.78125-6.53125 6.96875-3.125zm39.96875,0 8.65625,6.34375-6.84375,3.3125-8.78125-6.53125 6.96875-3.125zm-40.21875.25 .0625,1.5625 .03125-.03125 .28125-1.5-.375-.03125zm39.96875,0 .0625,1.5625 .03125-.03125 .28125-1.5-.375-.03125zm-26.40625,1.0625-.40625.03125 .125,1.46875h.125l.15625-1.5zm-13.53125.6875-2.21875,1.09375 .1875.1875 2.09375-1.28125h-.0625zm39.96875,0-2.21875,1.09375 .1875.1875 2.09375-1.28125h-.0625zm-39.125.03125-.0625.09375 3.96875,3.28125h.15625l-4.0625-3.375zm39.96875,0-.0625.09375 3.96875,3.28125h.15625l-4.0625-3.375zm-16.875.5625c-.04919-.01237-.10703.00388-.1875.03125-1.01484-.03469-2.23971.17438-4.28125,2.21875l-1.0625,3.34375 1.5,1.125 7.46875-3.5c-.58741-1.38758-1.71467-2.21159-2.9375-3-.2914-.0007-.35244-.18163-.5-.21875zm-.40625.34375c-.79027.47394-2.23466,1.58621-2.90625,2.3125-.32654,1.05012-.79926,2.00549-.84375,3.28125l-.75-.40625 .65625-3.15625 .78125.46875c.09288-.15056-.62652-.56069-.53125-.6875 .87705-1.16747 2.65607-1.7263 3.59375-1.8125zm-26.65625.1875-2.9375.28125 .09375.0625 2.75-.125 .09375-.21875zm39.96875,0-2.9375.28125 .09375.0625 2.75-.125 .09375-.21875zm-51.8125-.25c-.38853-.00093-.67811-.29698-1-.1875-1.01484-.03469-1.92721.17438-3.96875,2.21875l-1.0625,3.34375 1.5,1.15625 7.46875-3.53125c-.58741-1.38758-1.71468-2.21159-2.9375-3zm12.34375.5-.125.09375 4.375,4 .15625-.21875-4.40625-3.875zm26.53125,0c.16595-.01917.33714-.01683.5,0 .99629.34542 2.04525,1.61227 2.5,2.21875l-6.8125,3c.13105-.56856.68628-2.4283.875-3.125 .58579-.98989 1.77584-1.95953 2.9375-2.09375zm13.4375,0-.125.09375 4.375,4 .15625-.21875-4.40625-3.875zm-53.15625-.3125c-.79027.47393-2.29716,1.52371-2.96875,2.25-.32654,1.05012-.79926,2.00549-.84375,3.28125l-.75-.40625 .65625-3.15625 .78125.46875c.09288-.15056-.62652-.56069-.53125-.6875 .87705-1.16747 2.71857-1.6638 3.65625-1.75zm-19.5625.78125 24.87647,18.61251 1.03317,2.0392 .62565-.37587 .83079,1.87159 .77329-1.09364 28.20438,21.10244v6.15625l-56.53125-42.5625 .1875-5.75zm19.875-.40625c.16595-.01918.33713-.01683.5,0 .99629.34542 2.04525,1.61227 2.5,2.21875l-6.8125,3c.13105-.56856.68628-2.4283.875-3.125 .58579-.98989 1.77584-1.95953 2.9375-2.09375zm37.84375,1-1.1875,2.125 .21875.09375 1.03125-1.46875 .53125,1.25 .6875-.1875-.4375-1.3125 .96875.65625 .625-.9375-.21875-.15625-.3125.8125-1.15625-.71875 .25,1.53125-1-1.6875zm-39.40625.0625-1.1875,2.125 .21875.09375 1.03125-1.46875 .53125,1.25 .6875-.1875-.4375-1.3125 .96875.65625 .625-.9375-.21875-.15625-.3125.8125-1.15625-.71875 .25,1.53125-1-1.6875zm21.8125,1.09375-2.5,1.46875 .1875.28125 2.34375-1.71875-.03125-.03125zm39.96875,0-2.5,1.46875 .1875.28125 2.34375-1.71875-.03125-.03125zm-39.375.15625-.0625.28125c.94975.217 1.88403.20705 2.84375.375v-.09375c-.93795-.10328-1.85949-.36823-2.78125-.5625zm39.96875,0-.0625.28125c.94975.217 1.88403.20705 2.84375.375v-.09375c-.93795-.10328-1.85949-.36823-2.78125-.5625zm-17.53125.28125-7.75,3.5625 9.28125,6.90625 7.5-3.75-9.03125-6.71875zm-.0625.375 8.65625,6.34375-6.84375,3.3125-8.78125-6.53125 6.96875-3.125zm-39.34375-.3125-7.75,3.59375 9.28125,6.875 7.5-3.75-9.03125-6.71875zm39.09375.5625 .0625,1.5625 .03125-.03125 .28125-1.5-.375-.03125zm-39.15625-.1875 8.65625,6.34375-6.84375,3.3125-8.78125-6.53125 6.96875-3.125zm-.25.25 .0625,1.5625 .03125-.03125 .28125-1.5-.375-.03125zm65.28125.75c-2.04346.08413-3.38751.61303-4.96875,2.03125l-1.0625,3.34375 1.46875,1.125 7.5-3.5c-.58741-1.38758-1.71467-2.21159-2.9375-3zm-51.21875.25-.40625.03125 .125,1.46875h.125l.15625-1.5zm39.96875,0-.40625.03125 .125,1.46875h.125l.15625-1.5zm9.96875.25c-.79026.47394-1.85966,1.21121-2.53125,1.9375-.32654,1.05012-.79926,2.00549-.84375,3.28125l-.75-.40625 .65625-3.15625 .78125.46875c.09288-.15056-.62652-.56069-.53125-.6875 .87705-1.16747 2.28107-1.3513 3.21875-1.4375zm.75.0625c.16596-.01917.33714-.01683.5,0 .9963.34543 2.04525,1.61227 2.5,2.21875l-6.8125,3c.13106-.56856.68628-2.4283.875-3.125 .58579-.98989 1.77584-1.95953 2.9375-2.09375zm-25.3125.375-2.21875,1.09375 .1875.1875 2.09375-1.28125h-.0625zm.84375.03125-.0625.09375 3.96875,3.28125h.15625l-4.0625-3.375zm-40.25.03125-2.21875,1.09375 .1875.1875 2.09375-1.28125h-.0625zm.84375.03125-.0625.09375 3.96875,3.28125h.15625l-4.0625-3.375zm62.3125.59375-1.1875,2.125 .21875.09375 1.03125-1.46875 .53125,1.25 .6875-.1875-.4375-1.3125 .96875.65625 .625-.9375-.21875-.15625-.3125.8125-1.15625-.71875 .25,1.53125-1-1.6875zm-38.21875.09375c-.38853-.00092-.55311-.23448-.875-.125-1.01484-.03469-2.05221.11188-4.09375,2.15625l-1.0625,3.34375 1.5,1.15625 7.46875-3.53125c-.58741-1.38758-1.71467-2.21159-2.9375-3zm11.34375.34375-2.9375.28125 .09375.0625 2.75-.125 .09375-.21875zm-12.5625-.03125c-.79027.47394-1.92216,1.39871-2.59375,2.125-.32654,1.05012-.79926,2.00549-.84375,3.28125l-.75-.40625 .65625-3.15625 .78125.46875c.09288-.15056-.62652-.56069-.53125-.6875 .87705-1.16746 2.34357-1.5388 3.28125-1.625zm.6875.25c.16595-.01917.33713-.01683.5,0 .99629.34543 2.04525,1.61227 2.5,2.21875l-6.8125,3c.13105-.56856.68628-2.4283.875-3.125 .58579-.98989 1.77584-1.95953 2.9375-2.09375zm12.375.03125-.125.09375 4.375,4 .15625-.21875-4.40625-3.875zm-39.90625-.1875-2.9375.28125 .09375.0625 2.75-.125 .09375-.21875zm.5.25-.125.09375 4.375,4 .15625-.21875-4.40625-3.875zm71.21874.84375-7.74999,3.5625 9.28124,6.90625 7.5-3.75-9.03125-6.71875zm-45.74999.125-1.1875,2.125 .21875.09375 1.03125-1.46875 .53125,1.25 .6875-.1875-.4375-1.3125 .96875.65625 .625-.9375-.21875-.15625-.3125.8125-1.15625-.71875 .25,1.53125-1-1.6875zm45.68749.25 8.65625,6.34375-6.84375,3.3125-8.78124-6.53125 6.96874-3.125zm-.24999.25 .0625,1.5625 .03125-.03125 .28124-1.5-.37499-.03125zm-24.125.6875-2.5,1.46875 .1875.28125 2.34375-1.71875-.03125-.03125zm.59375.15625-.0625.28125c.94975.217 1.88403.20705 2.84375.375v-.09375c-.93795-.10329-1.85949-.36823-2.78125-.5625zm-16.46875.25-7.75,3.59375 9.28125,6.90625 7.5-3.78125-9.03125-6.71875zm-23.53125-.34375-2.5,1.46875 .1875.28125 2.34375-1.71875-.03125-.03125zm.59375.15625-.0625.28125c.94975.21701 1.88403.20705 2.84375.375v-.09375c-.93795-.10328-1.85949-.36823-2.78125-.5625zm22.875.5625 8.65625,6.34375-6.84375,3.3125-8.78125-6.53125 6.96875-3.125zm-.25.25 .0625,1.5625 .03125-.03125 .28125-1.5-.375-.03125zm40.34375.03125-2.21875,1.09375 .1875.1875 2.09375-1.28125h-.0625zm.84374.03125-.0625.09375 3.96875,3.28125h.15625l-4.0625-3.375zm-17.62499.5625c-.05505-.01237-.10703.00388-.1875.03125-1.01483-.03469-2.17721.17438-4.21875,2.21875l-1.0625,3.34375 1.5,1.125 7.46875-3.5c-.58741-1.38758-1.71467-2.21159-2.9375-3-.2914-.00069-.39736-.18163-.5625-.21875zm-10,.46875-.40625.03125 .125,1.46875h.125l.15625-1.5zm9.40625,0c-.79027.47393-1.98466,1.46121-2.65625,2.1875-.32654,1.05012-.79926,2.00549-.84375,3.28125l-.75-.40625 .65625-3.15625 .78125.46875c.09288-.15056-.62652-.56069-.53125-.6875 .87705-1.16747 2.40607-1.6013 3.34375-1.6875zm14.25.0625-2.9375.28125 .09375.0625 2.75-.125 .09375-.21875zm-13.625.25c.16595-.01918.33714-.01683.5,0 .99629.34542 2.04525,1.61227 2.5,2.21875l-6.8125,3c.13106-.56856.68628-2.4283.875-3.125 .58579-.98989 1.77584-1.95953 2.9375-2.09375zm14.125,0-.125.09375 4.37499,4 .15625-.21875-4.40624-3.875zm-63.5625-.25-.40625.03125 .125,1.46875h.125l.15625-1.5zm25.875.59375-2.21875,1.09375 .1875.1875 2.09375-1.28125h-.0625zm.84375.03125-.0625.09375 3.96875,3.28125h.15625l-4.0625-3.375zm21.15625.6875-1.1875,2.125 .21875.09375 1.03125-1.46875 .53125,1.25 .6875-.1875-.4375-1.3125 .96875.65625 .625-.9375-.21875-.15625-.3125.8125-1.15625-.71875 .25,1.53125-1-1.6875zm-25.125.40625-2.9375.28125 .09375.0625 2.75-.125 .09375-.21875zm-11.34375.21875c-.38854-.00093-.74061-.23448-1.0625-.125-1.01484-.03469-1.86471.11188-3.90625,2.15625l-1.0625,3.34375 1.46875,1.125 7.5-3.5c-.58741-1.38758-1.71467-2.21159-2.9375-3zm11.84375.03125-.125.09375 4.375,4 .15625-.21875-4.40625-3.875zm-13,.21875c-.79027.47393-1.98466,1.46121-2.65625,2.1875-.32654,1.05012-.79926,2.00549-.84375,3.28125l-.75-.40625 .65625-3.15625 .78125.46875c.09288-.15056-.62652-.56069-.53125-.6875 .87705-1.16747 2.40607-1.6013 3.34375-1.6875zm60.68749.28125-2.5,1.46875 .1875.28125 2.34375-1.71875-.03125-.03125zm-60.06249.03125c.16595-.01918.33713-.01683.5,0 .99629.34542 2.04525,1.61227 2.5,2.21875l-6.8125,3c.13105-.56856.68628-2.4283.875-3.125 .58578-.98989 1.77584-1.95953 2.9375-2.09375zm60.65624.125-.0625.28125c.94975.217 1.88402.20705 2.84375.375v-.09375c-.93796-.10328-1.85949-.36823-2.78125-.5625zm-18.21874.28125-7.75,3.5625 9.28125,6.90625 7.5-3.75-9.03125-6.71875zm-.0625.375 8.65625,6.34375-6.84375,3.3125-8.78125-6.53125 6.96875-3.125zm-.25.25 .0625,1.5625 .03125-.03125 .28125-1.5-.375-.03125zm-43.6875.03125-1.1875,2.125 .21875.09375 1.03125-1.46875 .53125,1.25 .6875-.1875-.4375-1.3125 .96875.65625 .625-.9375-.21875-.15625-.3125.8125-1.15625-.71875 .25,1.53125-1-1.6875zm21.3125.625-2.5,1.46875 .1875.28125 2.34375-1.71875-.03125-.03125zm.59375.15625-.0625.28125c.94975.21701 1.88403.20705 2.84375.375v-.09375c-.93796-.10328-1.85949-.36823-2.78125-.5625zm37.09374.25-.40625.03125 .125,1.46875h.125l.15625-1.5zm24.25,0 .15625,6.46875-23.96875,10.59375 .09375-9.96875-6.96874,3.15625 .09375,9.6875-30.5,13.5-.15625-6.25 28.59375-12.6875-.15625-4.9375 10.90624-5 .125,4.9375 10.38474-4.73681 1.46675,2.5983 .75342-2.55467 1.25719-.31429 .54338-1.27555 7.37577-3.21698zm-77.81249.5625-7.75,3.5625 9.28125,6.90625 7.5-3.75-9.03125-6.71875zm38.28125.125-2.21875,1.09375 .1875.1875 2.09375-1.28125h-.0625zm.84375.03125-.0625.09375 3.96875,3.28125h.15625l-4.0625-3.375zm-39.1875.21875 8.65625,6.34375-6.84375,3.3125-8.78125-6.53125 6.96875-3.125zm-.25.25 .0625,1.5625 .03125-.03125 .28125-1.5-.375-.03125zm13.5625.53125-.40625.03125 .125,1.46875h.125l.15625-1.5zm21.90625.09375-2.9375.28125 .09375.0625 2.75-.125 .09375-.21875zm-12.46875.03125c-.07848-.00651-.13828.00388-.21875.03125-1.01484-.03469-1.92721.11188-3.96875,2.15625l-1.0625,3.34375 1.46875,1.15625 7.5-3.53125c-.58741-1.38758-1.71467-2.21159-2.9375-3-.2914-.0007-.5458-.13671-.78125-.15625zm12.96875.21875-.125.09375 4.375,4 .15625-.21875-4.40625-3.875zm-13.40625.125c-.79027.47393-1.92216,1.52371-2.59375,2.25-.32654,1.05012-.79926,2.00549-.84375,3.28125l-.75-.40625 .65625-3.15625 .78125.46875c.09288-.15057-.62652-.56069-.53125-.6875 .87705-1.16747 2.34357-1.6638 3.28125-1.75zm.6875.375c.16595-.01918.33714-.01683.5,0 .99629.34542 2.04525,1.61227 2.5,2.21875l-6.8125,3c.13105-.56856.68628-2.4283.875-3.125 .58579-.9899 1.77584-1.95953 2.9375-2.09375zm-23.21875.375-2.21875,1.09375 .1875.1875 2.09375-1.28125h-.0625zm.84375.03125-.0625.09375 3.96875,3.28125h.15625l-4.0625-3.375zm53.53124.21875 1.46875,1.1875-10.65624,4.71875-1.625-1.15625 10.81249-4.75zm-32.71874.4375-1.1875,2.125 .21875.09375 1.03125-1.46875 .53125,1.25 .6875-.1875-.4375-1.3125 .96875.65625 .625-.9375-.21875-.15625-.3125.8125-1.15625-.71875 .25,1.53125-1-1.6875zm-24.78125.4375-2.9375.28125 .09375.0625 2.75-.125 .09375-.21875zm46.4375.21875-2.5,1.46875 .1875.28125 2.34375-1.71875-.03125-.03125zm-45.9375.03125-.125.09375 4.375,4 .15625-.21875-4.40625-3.875zm46.53125.125-.0625.28125c.94975.217 1.88403.20705 2.84375.375v-.09375c-.93795-.10328-1.85949-.36823-2.78125-.5625zm-16.8125.78125-7.75,3.59375 9.25,6.875 7.53125-3.75-9.03125-6.71875zm-.0625.375 8.65625,6.34375-6.84375,3.3125-8.78125-6.53125 6.96875-3.125zm-.25.25 .0625,1.5625 .03125-.03125 .28125-1.5-.375-.03125zm13.90625.5625-.40625.03125 .125,1.46875h.125l.15625-1.5zm-35.9375.125-2.5,1.46875 .1875.28125 2.34375-1.71875-.03125-.03125zm.59375.15625-.0625.28125c.94975.217 1.88403.20705 2.84375.375v-.09375c-.93795-.10328-1.85949-.36823-2.78125-.5625zm48.56249.8125 .0625,9.46875-1-.6875v-.34375l.4375-.1875c.56748-1.04628.34176-1.85461.09375-2.65625l-.5.21875 .03125-1.03125 .375-.15625c.56748-1.04628.34176-1.85461.09375-2.65625l-.4375.21875v-.875c-.08181.01678-.16783.01874-.25.03125l.03125-.75 1.0625-.59375zm-27.09374.09375-2.21875,1.09375 .1875.1875 2.09375-1.28125h-.0625zm.84375.03125-.0625.09375 3.96875,3.28125h.15625l-4.0625-3.375zm15.9375.78125 1.25.96875 .15625,4.71875-1.21875-.875-.1875-4.8125zm8.84374.03125v.46875c-.65968.0892-1.3098.2144-1.90624,1.0625v.84375l-.375.15625-.03125-.90625c-.76191-.17414-1.40398.25095-2,.90625v.90625l-.25.125-.03125-1.46875 4.59374-2.09375zm-50.31249.21875-.40625.03125 .125,1.46875h.125l.15625-1.5zm21.5625.0625-2.9375.28125 .09375.0625 2.75-.125 .09375-.21875zm-11.375.21875c-.38853-.00093-.74061-.10948-1.0625,0-1.01483-.03469-1.86471-.01312-3.90625,2.03125l-1.0625,3.34375 1.5,1.125 7.46875-3.5c-.58741-1.38758-1.71467-2.21159-2.9375-3zm11.875.03125-.125.09375 4.375,4 .15625-.21875-4.40625-3.875zm28.03124.34375c.19348-.01344.38229.02602.5625.125v7.90625c-.63541.46399-1.27083.9074-1.90624.71875l-.0625-7.875c.23893-.36784.82584-.83469 1.40624-.875zm-41.37499-.125c-.79027.47394-1.67216,1.46121-2.34375,2.1875-.32654,1.05012-.79926,2.00549-.84375,3.28125l-.75-.40625 .65625-3.15625 .78125.46875c.09288-.15056-.62652-.56069-.53125-.6875 .87705-1.16747 2.09357-1.6013 3.03125-1.6875zm.9375.3125c.16595-.01917.33713-.01683.5,0 .99629.34542 2.04525,1.61227 2.5,2.21875l-6.8125,3c.13106-.56856.68628-2.4283.875-3.125 .58579-.98989 1.77584-1.95953 2.9375-2.09375zm41.56249.34375c.26358.57043.33769,1.21191-.0625,2.03125l-.25.09375 .03125-1.96875 .28125-.15625zm-43.12499.71875-1.1875,2.125 .21875.09375 1.03125-1.46875 .53125,1.25 .6875-.1875-.4375-1.3125 .96875.65625 .625-.9375-.21875-.15625-.3125.8125-1.15625-.71875 .25,1.53125-1-1.6875zm39.25,0c.12721.00062.26319.03811.375.125l.09375,7.84375c-.52822.32764-.92264.66805-1.53125.59375v-7.875c.27379-.35586.68087-.68938 1.0625-.6875zm1.0625.5625v1.9375l-.34375.125-.03125-1.90625 .375-.15625zm-18.96875.0625-2.5,1.46875 .1875.28125 2.34375-1.71875-.03125-.03125zm.59375.15625-.0625.28125c.94975.217 1.88403.20705 2.84375.375v-.09375c-.93795-.10329-1.85949-.36823-2.78125-.5625zm-16.5.8125-7.75,3.5625 9.28125,6.90625 7.5-3.75-9.03125-6.71875zm32.46875.03125 .03125,1.875-.21875.09375-.0625-1.625 .03125-.25 .21875-.09375zm-32.53125.34375 8.65625,6.34375-6.84375,3.3125-8.78125-6.53125 6.96875-3.125zm-.25.25 .0625,1.5625 .03125-.03125 .28125-1.5-.375-.03125zm13.59375.53125-.40625.03125 .125,1.46875h.125l.15625-1.5zm21.59375,0v1.125l-.3125.125-.03125-1.09375 .34375-.15625zm2.81249.15625c.26358.57043.33769,1.21191-.0625,2.03125l-.3125.125 .03125-2 .34375-.15625zm-5.18749.8125v1.21875l-.1875.09375-.03125-1.21875 .21875-.09375zm-32.78125.25-2.21875,1.09375 .1875.1875 2.09375-1.28125h-.0625zm.84375.03125-.0625.09375 3.96875,3.28125h.15625l-4.0625-3.375zm34.3125.1875v1.9375l-.28125.125-.03125-1.9375 .3125-.125zm-38.28125.90625-2.9375.28125 .09375.0625 2.75-.125 .09375-.21875zm35.90625.125 .03125,1.875-.1875.09375-.03125-1.875 .1875-.09375zm-35.40625.125-.125.09375 4.375,4 .15625-.21875-4.40625-3.875zm7.375,2.21875-2.5,1.46875 .1875.28125 2.34375-1.71875-.03125-.03125zm.59375.15625-.0625.28125c.94975.217 1.88403.20705 2.84375.375v-.09375c-.93795-.10328-1.85949-.36823-2.78125-.5625zm-3.21875,1.96875-.40625.03125 .125,1.46875h.125l.15625-1.5z" fill-rule="evenodd"/>
 <path d="m53.26667,39.84439-.23039.12278 .53661,1.49778 .1862-.12278-.49242-1.49778z" fill-rule="evenodd"/>
 <path d="m54.88631,41.54261-.142.03439 .45581,1.52053 .09781-.03439-.41161-1.52053z" fill-rule="evenodd"/>
 <path d="m55.60506,40.88858-.09245.08931 .24778.98928 .1237-.27903-.27903-.79956z" fill-rule="evenodd"/>
 <path d="m55.72064,38.80333c.20355.56313.24377.95846.51609,1.49242l.21209-.20358c-.19602-.39677-.57214-.96869-.77053-1.36428l.04235.07544z" fill-rule="evenodd"/>
 <path d="m55.92829,41.51358-.15717.40939 .90625.875 2.07989.18084-.04864-.24334-1.87944-.04289-.90089-1.179z" fill-rule="evenodd"/>
 <path d="m56.61487,42.57922c-.01309.42742-.04056.85423-.0625,1.28125l-.00352-.02589c.07633-.44432.28897-.54223.31472-.9902l-.2487-.26517z" fill-rule="evenodd"/>
 <path d="m55.37023,42.73011-.42012.02681 .34153,1.52275 .82322.67456 .08931-.03531-.77589-.7598-.05806-1.429z" fill-rule="evenodd"/>
 <path d="m55.21084,44.16447-.37814,1.22947-.00888-.00444 .67456-1.0527-.28753-.17234z" fill-rule="evenodd"/>
 <path d="m114.01 80.886-0.21745-0.01896 1.1966 0.98928 0.02995-0.03282-1.0092-0.9375z" fill-rule="evenodd"/>
 <path d="m115.493,82.82922-.017.10447 .71116,1.30492 .17326.0098-.86742-1.41919z" fill-rule="evenodd"/>
 <path d="m116.24457,80.72096-.18084.10225 .82009,1.22254 .24712-.22189-.88637-1.1029z" fill-rule="evenodd"/>
 <path d="m117.52046,80.52431-.10539.17391 .64709.97254 .20294-.14265-.74464-1.00379z" fill-rule="evenodd"/>
 <path d="m117.93207,79.0281-.07035.01386c-.01879.66356.55.89042.85826,1.40468l.14044-.24935c-.3216-.58176-.37319-.9238-.92835-1.16919z" fill-rule="evenodd"/>
 <path d="m118.28877,81.49306-.34467.23483 .51451,1.19508 1.21875.6875 .03596-.01321-1.05335-.88101-.3712-1.22319z" fill-rule="evenodd"/>
 <path d="m116.50215,83.97188-.30583.33303 .51895,1.50222-.1654,1.44194-.75379.89553 .03374-.01961 .97254-.79577 .25-1.46875-.55021-1.88859z" fill-rule="evenodd"/>
 <path d="m116.84054,85.7156-.0085.22124c.40299.65255 1.15435.12307 1.82924.36363l.06027.01268c-.59129-.25527-1.25465-.53389-1.88101-.59754z" fill-rule="evenodd"/>
 <path d="m37.4818,81.85509-.9123,1.2799 .13778.25941 .97346-1.34039-.19893-.19893z" fill-rule="evenodd"/>
 <path d="m35.734 80.983-1.0013 1.3716 0.1996 0.28932 1.0319-1.3716-0.23018-0.28932z" fill-rule="evenodd"/>
 <path d="m36.22978,82.17902-.90289,1.6428 .13979.16566 .93346-1.67338-.17037-.13509z" fill-rule="evenodd"/>
 <path d="m34.39 79.669-1.2453 1.1536 0.22884 0.22884 1.246-1.0924-0.22951-0.28999z" fill-rule="evenodd"/>
 <path d="m33.94853,82.64307-.92741,2.0924 .375,2 .05142-.03528 .02318-1.99193 .86626-1.99865-.38845-.06653z" fill-rule="evenodd"/>
 <path d="m35.41997,83.98749-.13172,2.30376-.96068.81183-.01377.04335 1.20732-.66096 .16432-2.67674-.26547.17876z" fill-rule="evenodd"/>
 <path d="m33.14612,84.42297c-.35704.22019-.68948.47643-1.03125.71875l.01076.01816c.37888-.22869.82321-.12984 1.18548-.38307l-.16499-.35384z" fill-rule="evenodd"/>
</svg>
