<?xml version="1.0" encoding="UTF-8"?>
<svg viewBox="0 0 128 128" xmlns="http://www.w3.org/2000/svg" xmlns:xlink="http://www.w3.org/1999/xlink">
 <defs>
  <filter id="bm">
   <feGaussianBlur stdDeviation="1.77124"/>
  </filter>
  <linearGradient id="a">
   <stop stop-color="#b1b1b1" offset="0"/>
   <stop stop-color="#e4e4e4" offset="1"/>
  </linearGradient>
  <linearGradient id="c">
   <stop stop-color="#6a3c1d" offset="0"/>
   <stop stop-color="#8f5127" offset="1"/>
  </linearGradient>
  <linearGradient id="b">
   <stop stop-color="#4f0000" offset="0"/>
   <stop stop-color="#610000" offset="1"/>
  </linearGradient>
  <linearGradient id="e">
   <stop stop-color="#b49900" offset="0"/>
   <stop stop-color="#ffda0a" offset=".5"/>
   <stop stop-color="#c6a800" offset="1"/>
  </linearGradient>
  <linearGradient id="d">
   <stop stop-color="#9e2612" offset="0"/>
   <stop stop-color="#bd5032" offset="1"/>
  </linearGradient>
  <linearGradient id="af" x1="106.9" x2="113.35" y1="85.194" y2="93.9" gradientUnits="userSpaceOnUse">
   <stop stop-color="#c2a05c" offset="0"/>
   <stop stop-color="#d6be91" offset="1"/>
  </linearGradient>
  <linearGradient id="r" x1="75.874" x2="77.624" y1="19.548" y2="17.485" gradientUnits="userSpaceOnUse">
   <stop stop-color="#c223c2" offset="0"/>
   <stop stop-color="#ff00dc" offset="1"/>
  </linearGradient>
  <linearGradient id="f">
   <stop stop-color="#8dbbdc" offset="0"/>
   <stop stop-color="#dadada" offset="1"/>
  </linearGradient>
  <linearGradient id="bl" x1="21.795" x2="40.908" y1="94.097" y2="112.95" gradientUnits="userSpaceOnUse" xlink:href="#a"/>
  <linearGradient id="bk" x1="61.232" x2="75.157" y1="116.32" y2="92.108" gradientUnits="userSpaceOnUse" xlink:href="#a"/>
  <linearGradient id="bj" x1="20.843" x2="52.757" y1="60.022" y2="102.49" gradientUnits="userSpaceOnUse" xlink:href="#a"/>
  <linearGradient id="bi" x1="35.2" x2="55.178" y1="31.568" y2="61.146" gradientUnits="userSpaceOnUse" xlink:href="#a"/>
  <linearGradient id="bh" x1="62.184" x2="105.25" y1="103.61" y2="71.092" gradientUnits="userSpaceOnUse" xlink:href="#a"/>
  <linearGradient id="bg" x1="66.249" x2="90.897" y1="122.55" y2="105.51" gradientUnits="userSpaceOnUse" xlink:href="#a"/>
  <linearGradient id="bf" x1="106.03" x2="118.75" y1="110.88" y2="98.249" gradientUnits="userSpaceOnUse" xlink:href="#a"/>
  <linearGradient id="be" x1="63.855" x2="88.869" y1="62.147" y2="40.403" gradientUnits="userSpaceOnUse" xlink:href="#a"/>
  <linearGradient id="bd" x1="101.09" x2="107.09" y1="102.92" y2="112.99" gradientUnits="userSpaceOnUse" xlink:href="#a"/>
  <linearGradient id="bc" x1="84.78" x2="84.374" y1="106.42" y2="105.02" gradientUnits="userSpaceOnUse" xlink:href="#a"/>
  <linearGradient id="bb" x1="86.374" x2="85.967" y1="109.17" y2="107.77" gradientUnits="userSpaceOnUse" xlink:href="#a"/>
  <linearGradient id="ba" x1="87.811" x2="87.405" y1="111.3" y2="109.89" gradientUnits="userSpaceOnUse" xlink:href="#a"/>
  <linearGradient id="az" x1="89.217" x2="88.811" y1="113.55" y2="112.14" gradientUnits="userSpaceOnUse" xlink:href="#a"/>
  <linearGradient id="ay" x1="90.717" x2="90.311" y1="115.64" y2="114.24" gradientUnits="userSpaceOnUse" xlink:href="#a"/>
  <linearGradient id="ax" x1="85.592" x2="85.28" y1="107.7" y2="106.77" gradientUnits="userSpaceOnUse" xlink:href="#a"/>
  <linearGradient id="aw" x1="86.842" x2="86.53" y1="110.14" y2="109.2" gradientUnits="userSpaceOnUse" xlink:href="#a"/>
  <linearGradient id="av" x1="88.28" x2="87.967" y1="112.64" y2="111.7" gradientUnits="userSpaceOnUse" xlink:href="#a"/>
  <linearGradient id="au" x1="89.686" x2="89.374" y1="114.49" y2="113.55" gradientUnits="userSpaceOnUse" xlink:href="#a"/>
  <linearGradient id="at" x1="86.306" x2="90.22" y1="103.56" y2="98.023" gradientUnits="userSpaceOnUse" xlink:href="#b"/>
  <linearGradient id="as" x1="88.692" x2="88.753" y1="105.33" y2="103.59" gradientUnits="userSpaceOnUse" xlink:href="#b"/>
  <linearGradient id="ar" x1="90.465" x2="90.496" y1="108.05" y2="106.98" gradientUnits="userSpaceOnUse" xlink:href="#b"/>
  <linearGradient id="aq" x1="91.841" x2="91.872" y1="110.22" y2="108.91" gradientUnits="userSpaceOnUse" xlink:href="#b"/>
  <linearGradient id="ap" x1="93.4" x2="93.339" y1="112.33" y2="111.14" gradientUnits="userSpaceOnUse" xlink:href="#b"/>
  <linearGradient id="ao" x1="94.99" x2="95.021" y1="114.57" y2="113.27" gradientUnits="userSpaceOnUse" xlink:href="#b"/>
  <linearGradient id="an" x1="89.058" x2="90.251" y1="106.22" y2="104.35" gradientUnits="userSpaceOnUse" xlink:href="#b"/>
  <linearGradient id="am" x1="90.465" x2="91.658" y1="108.76" y2="106.89" gradientUnits="userSpaceOnUse" xlink:href="#b"/>
  <linearGradient id="al" x1="91.933" x2="93.125" y1="110.96" y2="109.09" gradientUnits="userSpaceOnUse" xlink:href="#b"/>
  <linearGradient id="ak" x1="93.339" x2="94.532" y1="113.16" y2="111.29" gradientUnits="userSpaceOnUse" xlink:href="#b"/>
  <linearGradient id="aj" x1="75.39" x2="96.073" y1="101.21" y2="81.46" gradientUnits="userSpaceOnUse" xlink:href="#e"/>
  <linearGradient id="ai" x1="77.644" x2="85.201" y1="99.712" y2="93.569" gradientUnits="userSpaceOnUse" xlink:href="#e"/>
  <linearGradient id="ah" x1="88.295" x2="94.614" y1="87.205" y2="93.878" gradientUnits="userSpaceOnUse" xlink:href="#e"/>
  <linearGradient id="ag" x1="108.54" x2="108.18" y1="83.669" y2="84.222" gradientUnits="userSpaceOnUse" xlink:href="#c"/>
  <linearGradient id="ae" x1="20.28" x2="23.815" y1="67.804" y2="81.062" gradientUnits="userSpaceOnUse" xlink:href="#a"/>
  <linearGradient id="ad" x1="32.698" x2="36.234" y1="75.847" y2="89.105" gradientUnits="userSpaceOnUse" xlink:href="#a"/>
  <linearGradient id="ac" x1="45.205" x2="48.741" y1="83.979" y2="97.237" gradientUnits="userSpaceOnUse" xlink:href="#a"/>
  <linearGradient id="ab" x1="38.311" x2="41.847" y1="36.117" y2="49.375" gradientUnits="userSpaceOnUse" xlink:href="#a"/>
  <linearGradient id="aa" x1="50.111" x2="53.646" y1="43.983" y2="57.241" gradientUnits="userSpaceOnUse" xlink:href="#a"/>
  <linearGradient id="z" x1="72.562" x2="66.463" y1="47.699" y2="58.832" gradientUnits="userSpaceOnUse" xlink:href="#a"/>
  <linearGradient id="y" x1="88.162" x2="82.063" y1="42.75" y2="53.133" gradientUnits="userSpaceOnUse" xlink:href="#a"/>
  <linearGradient id="x" x1="42.061" x2="53.624" y1="47.735" y2="79.423" gradientUnits="userSpaceOnUse" xlink:href="#d"/>
  <linearGradient id="w" x1="70.499" x2="98.499" y1="73.798" y2="61.673" gradientUnits="userSpaceOnUse" xlink:href="#d"/>
  <linearGradient id="v" x1="94.374" x2="96.686" y1="57.048" y2="40.11" gradientUnits="userSpaceOnUse" xlink:href="#d"/>
  <linearGradient id="u" x1="73.436" x2="88.999" y1="34.985" y2="23.36" gradientUnits="userSpaceOnUse" xlink:href="#d"/>
  <linearGradient id="t" x1="51.249" x2="68.811" y1="16.735" y2="42.798" gradientUnits="userSpaceOnUse" xlink:href="#d"/>
  <linearGradient id="s" x1="69.124" x2="69.686" y1="23.735" y2="12.985" gradientUnits="userSpaceOnUse" xlink:href="#d"/>
  <linearGradient id="q" x1="19.838" x2="21.65" y1="68.477" y2="77.645" gradientUnits="userSpaceOnUse" xlink:href="#c"/>
  <linearGradient id="p" x1="32.256" x2="35.88" y1="77.558" y2="85.688" gradientUnits="userSpaceOnUse" xlink:href="#c"/>
  <linearGradient id="o" x1="44.763" x2="48.387" y1="86.382" y2="93.474" gradientUnits="userSpaceOnUse" xlink:href="#c"/>
  <linearGradient id="n" x1="83.212" x2="86.836" y1="49.206" y2="44.017" gradientUnits="userSpaceOnUse" xlink:href="#c"/>
  <linearGradient id="m" x1="67.612" x2="71.236" y1="53.118" y2="47.064" gradientUnits="userSpaceOnUse" xlink:href="#c"/>
  <linearGradient id="l" x1="49.669" x2="53.293" y1="44.663" y2="51.755" gradientUnits="userSpaceOnUse" xlink:href="#c"/>
  <linearGradient id="k" x1="37.869" x2="41.493" y1="36.796" y2="44.061" gradientUnits="userSpaceOnUse" xlink:href="#c"/>
  <linearGradient id="j" x1="65.844" x2="68.717" y1="91.558" y2="92.884" gradientUnits="userSpaceOnUse" xlink:href="#f"/>
  <linearGradient id="i" x1="67.7" x2="66.463" y1="91.194" y2="93.447" gradientUnits="userSpaceOnUse" xlink:href="#f"/>
  <linearGradient id="h" x1="88.323" x2="93.249" y1="109.6" y2="107.39" gradientUnits="userSpaceOnUse" xlink:href="#e"/>
  <linearGradient id="g" x1="95.902" x2="100.83" y1="106.95" y2="104.74" gradientUnits="userSpaceOnUse" xlink:href="#e"/>
 </defs>
 <path d="m55.178 119.7c-0.86486-0.69189-49.989-29.924-49.989-29.924l-0.34595-4.6703 6.4-0.69189-5.3622-16.259 5.7081-10.897-1.9027-8.6486 5.5351-8.3027 12.454-1.0378 6.4 4.6703 67.459 48.605-46.357 27.157z" fill-opacity=".66667" fill-rule="evenodd" filter="url(#bm)"/>
 <path d="m7.0919 82.768-0.08649 5.8811 55.438 37.189-0.17297-6.1405-55.178-36.93z" fill="url(#bl)" fill-rule="evenodd"/>
 <path d="m7.0919 82.595 55.178 37.276 24.995-8.9946-5.7946-5.2757 17.297-6.227 5.9676 5.4486 21.795-7.7838-15.827-10.984-95.914-6.1405-7.6973 2.6811z" fill="url(#bk)" fill-rule="evenodd"/>
 <path d="m15.222 54.832-0.17297 26.984 41.081 27.157 0.08649-27.849-40.995-26.292z" fill="url(#bj)" fill-rule="evenodd"/>
 <path d="m32 24.649-0.51892 19.892 29.665 20.584 0.08649-21.449-29.232-19.027z" fill="url(#bi)" fill-rule="evenodd"/>
 <path d="m56.303 108.89-0.08649-27.935 54.832-18.941 0.08648 27.676-54.832 19.2z" fill="url(#bh)" fill-rule="evenodd"/>
 <path d="m62.357 119.7 24.908-8.9081v6.054l-24.908 9.0811v-6.227z" fill="url(#bg)" fill-rule="evenodd"/>
 <path d="m104.74 110.88v-6.054l21.968-8.0432 0.25946 0.69189-0.08648 5.6216-22.141 7.7838z" fill="url(#bf)" fill-rule="evenodd"/>
 <path d="m60.85 64.975 0.44194-21.302 31.024-10.253 0.97227 20.153-14.496 1.4142-17.943 9.9879z" fill="url(#be)" fill-rule="evenodd"/>
 <path d="m98.7174,99.29797-.03125,2.53125 1.625,1.03125-.0625,1.75 1.4375.75-.03125,1.46875 1.5625,1.15625 .0625.875 1.4375.96875-.0625-5.125-5.9375-5.40625z" fill="url(#bd)" fill-rule="evenodd"/>
 <path d="m81.592 105.64 17.156-6.2812v2.375l-15.469 5.5625-1.6875-1.6562z" fill="url(#bc)" fill-rule="evenodd"/>
 <path d="m84.749 108.36 15.562-5.625 0.03125 1.75-14.531 5.25-1.0625-1.375z" fill="url(#bb)" fill-rule="evenodd"/>
 <path d="m86.936 110.61 14.719-5.25v1.4062l-14.688 5.125-0.03125-1.2812z" fill="url(#ba)" fill-rule="evenodd"/>
 <path d="m87.28 113.27 15.875-5.5625 0.03125 1.1562-15.969 5.4688 0.0625-1.0625z" fill="url(#az)" fill-rule="evenodd"/>
 <path d="m87.186 115.74 17.438-6.0625 0.0625 1.2812-17.25 6.2188-0.25-1.4375z" fill="url(#ay)" fill-rule="evenodd"/>
 <path d="m83.342 107.17 15.375-5.4375 1.5938 1.0938-15.844 5.625-1.125-1.2812z" fill="url(#ax)" fill-rule="evenodd"/>
 <path d="m85.999 109.7 14.188-5.0938 1.375 0.65625-14.625 5.375-0.9375-0.9375z" fill="url(#aw)" fill-rule="evenodd"/>
 <path d="m87.124 111.83 14.406-5.0625 1.4688 1-15.844 5.625-0.03125-1.5625z" fill="url(#av)" fill-rule="evenodd"/>
 <path d="m87.374 114.3 15.844-5.5 1.1875 0.8125-17.125 6.0938 0.09375-1.4062z" fill="url(#au)" fill-rule="evenodd"/>
 <path d="m80.466 100.56 4.4949 3.547-0.06116 0.21404 10.243-3.6693-4.709-3.7916-9.9683 3.6999z" fill="url(#at)" fill-rule="evenodd"/>
 <path d="m84.961 104.35 0.30577 2.1404 10.305-3.6387-0.2752-2.171-10.335 3.6693z" fill="url(#as)" fill-rule="evenodd"/>
 <path d="m86.735 107.59 0.30577 1.6206 10.305-3.6387-0.21404-1.6512c-3.5058 1.2231-7.1154 2.4462-10.396 3.6693z" fill="url(#ar)" fill-rule="evenodd"/>
 <path d="m88.238 110.07 0.17833 1.3148 10.305-3.6387v-1.3148l-10.483 3.6387z" fill="url(#aq)" fill-rule="evenodd"/>
 <path d="m89.792 112.33 0.18346 1.162 10.305-3.6387-0.18346-1.0702-10.305 3.547z" fill="url(#ap)" fill-rule="evenodd"/>
 <path d="m91.505 114.26 0.06115 1.4677 10.305-3.6387c-0.06996-0.31209 0.07008-0.58955 0.07294-0.97446l-0.34814-0.3098-10.091 3.4553z" fill="url(#ao)" fill-rule="evenodd"/>
 <path d="m86.826 107.47-1.376-1.0702 10.091-3.5776 1.5595 1.1925-10.274 3.4553z" fill="url(#an)" fill-rule="evenodd"/>
 <path d="m88.233 110.01-1.0396-0.73386 9.8766-3.5776 1.4372 0.85617-10.274 3.4553z" fill="url(#am)" fill-rule="evenodd"/>
 <path d="m89.884 112.33-1.376-1.009 10.121-3.5164 1.3454 0.9479-10.091 3.5776z" fill="url(#al)" fill-rule="evenodd"/>
 <path d="m91.413 114.38-1.4983-0.91732 10.243-3.4247 1.4066 0.82559-10.152 3.5164z" fill="url(#ak)" fill-rule="evenodd"/>
 <path d="m74.462 102.23 0.22097-14.186 22.406-7.5572 0.04419 14.098-22.672 7.6456z" fill="url(#aj)" fill-rule="evenodd"/>
 <path d="m74.462 102.23 0.22097-14.186 22.406-7.5572 0.04419 14.098-22.672 7.6456z" fill-opacity=".15686" fill-rule="evenodd"/>
 <path d="m75.92 101.61-0.04419-12.684 9.325-3.403v13.214l-9.2808 2.8726z" fill="url(#ai)" fill-rule="evenodd"/>
 <path d="m86.527 97.767-0.17678-12.551 9.325-3.182 0.26516 12.772-9.4134 2.961z" fill="url(#ah)" fill-rule="evenodd"/>
 <path d="m101.55 77.703-1.1049 0.53033 0.22097 1.149 14.01 10.518 1.0165 0.83969 0.7955-0.13258v-1.149l-7.8666-6.364-7.0711-5.3917z" fill="url(#ag)" fill-rule="evenodd"/>
 <path d="m105.27 83.007c-0.13258 0.44194-0.17678 6.364-0.17678 6.364l9.4134 6.0546-0.04419-5.6127-9.1924-6.8059z" fill="url(#af)" fill-rule="evenodd"/>
 <path d="m116.13704,89.2821-.83969.35355-.35356.39775 1.01647.7513 .48614-.26516 .08838-.83969-.39774-.39775z" fill-opacity=".15686" fill-rule="evenodd"/>
 <path d="m98.7174,99.29797-.03125,2.53125 1.625,1.03125-.0625,1.75 1.4375.75-.03125,1.46875 1.5625,1.15625 .0625.875 1.4375.96875-.0625-5.125-5.9375-5.40625z" fill-opacity=".15686" fill-rule="evenodd"/>
 <path d="m18.689 61.617-0.08839 18.473 6.1872 4.1542v-18.65l-6.0988-3.9775z" fill="url(#ae)" fill-rule="evenodd"/>
 <path d="m19.838 64.091 0.08839 15.026 3.5355 2.74-0.17678-15.203-3.4472-2.5633z" fill="url(#q)" fill-rule="evenodd"/>
 <path d="m31.107 69.66-0.08839 18.473 6.1872 4.1542v-18.65l-6.0988-3.9775z" fill="url(#ad)" fill-rule="evenodd"/>
 <path d="m32.256 72.135 0.08839 15.026 3.5355 2.74-0.17678-15.203-3.4472-2.5633z" fill="url(#p)" fill-rule="evenodd"/>
 <path d="m43.614 77.792-0.08839 18.473 6.1872 4.1542v-18.65l-6.0988-3.9775z" fill="url(#ac)" fill-rule="evenodd"/>
 <path d="m44.763 80.266 0.08839 15.026 3.5355 2.74-0.17678-15.203-3.4472-2.5633z" fill="url(#o)" fill-rule="evenodd"/>
 <path d="m36.72 29.929-0.08839 15.07 6.1872 4.1542v-15.247l-6.0988-3.9775z" fill="url(#ab)" fill-rule="evenodd"/>
 <path d="m37.869 32.404 0.0442 11.8 3.5797 2.5191-0.17678-11.756-3.4472-2.5633z" fill="url(#k)" fill-rule="evenodd"/>
 <path d="m48.52 37.796-0.08839 15.07 6.1872 4.1542v-15.247l-6.0988-3.9775z" fill="url(#aa)" fill-rule="evenodd"/>
 <path d="m49.669 40.271 0.0442 11.8 3.5797 2.5191-0.17678-11.756-3.4472-2.5633z" fill="url(#l)" fill-rule="evenodd"/>
 <path d="m66.551 43.762-0.08839 15.07 5.922-1.9445 0.17678-15.114-6.0104 1.9887z" fill="url(#z)" fill-rule="evenodd"/>
 <path d="m67.7 45.309-0.08839 11.49 3.6239-1.2374-0.17678-11.314-3.3588 1.0607z" fill="url(#m)" fill-rule="evenodd"/>
 <path d="m82.152 38.812-0.08839 15.07 5.922-1.9445 0.17678-15.114-6.0104 1.9887z" fill="url(#y)" fill-rule="evenodd"/>
 <path d="m83.301 40.359-0.08839 11.49 3.6239-1.2374-0.17678-11.314-3.3588 1.0607z" fill="url(#n)" fill-rule="evenodd"/>
 <path d="m15.186 54.673 16.375-10.25 29.312 20.562 17.688-9.75 5.375 3.6875-27.688 21.75-41.062-26z" fill="url(#x)" fill-rule="evenodd"/>
 <path d="m56.436 80.61 27.562-21.688 27 3.1875-53.625 18.75-0.9375-0.25z" fill="url(#w)" fill-rule="evenodd"/>
 <path d="m78.811 54.985 14.375-1.4375-0.1875-4.0625 1.375 0.9375 16.25 11.25-26.562-2.625-5.25-4.0625z" fill="url(#v)" fill-rule="evenodd"/>
 <path d="m72.874 27.485-11.312 15.875 0.5625 0.5 30.125-10.438-0.625-0.6875-18.75-5.25z" fill="url(#u)" fill-rule="evenodd"/>
 <path d="m31.936 24.36 18.812-10.875 22.25 14-11.625 16.062-29.438-19.188z" fill="url(#t)" fill-rule="evenodd"/>
 <path d="m50.811 13.36 22.188 14.188 17.812 5.125s-8.25-5.75-8.6875-6.1875-19.375-13.188-19.375-13.188l-11.938 0.0625z" fill="url(#s)" fill-rule="evenodd"/>
 <path d="m73.12365,16.04797 1.5.4375 2.375.4375h3.3125l4.5625-.8125-.375.5-1,.5625-1.625.75-2,.3125 .625.5625 1.5.9375 1.3125.6875c0,0-1.25.3125-2,.25s-3.8125-.125-3.8125-.125l-3.5-.375-1.125-.4375 .25-3.6875z" fill="url(#r)" fill-rule="evenodd"/>
 <path d="m7.0919 82.768-0.08649 5.8811 55.438 37.189-0.17297-6.1405-55.178-36.93z" fill-opacity=".15686" fill-rule="evenodd"/>
 <path d="m15.222 54.832-0.17297 26.984 41.081 27.157 0.08649-27.849-40.995-26.292z" fill-opacity=".15686" fill-rule="evenodd"/>
 <path d="m32 24.649-0.51892 19.892 29.665 20.584 0.08649-21.449-29.232-19.027z" fill-opacity=".15686" fill-rule="evenodd"/>
 <path d="m15.186 54.673 16.375-10.25 29.312 20.562 17.688-9.75 5.375 3.6875-27.688 21.75-41.062-26z" fill-opacity=".15686" fill-rule="evenodd"/>
 <path d="m31.936 24.36 18.812-10.875 22.25 14-11.625 16.062-29.438-19.188z" fill-opacity=".15686" fill-rule="evenodd"/>
 <path d="m68.67249,89.41468-3.53553,7.38043 .22097,2.18761 .26516-.24307 1.12695-1.14905 2.51907-7.93286 1.25953.64082v-.06629l-.37565-.88388-.92808-.46404 .61872-1.39212-.88388-.39775-.08839,1.61309-.68501-.30936-.57452.48614 1.06066.53033z" fill="url(#j)" fill-rule="evenodd"/>
 <path d="m63.70065,90.21018-1.14905-.99437-.66291.7955 1.59099.59662-.61872.57452 .39775.61872 .7955-.90598 5.98831,5.3254 2.20971.61872-.06629-.28726-.90598-1.56889-6.828-4.5299 .99437-1.08276-1.01647.08839-.7292.7513z" fill="url(#i)" fill-rule="evenodd"/>
 <path d="m82.23 99.894-0.69129 0.14044 4.7598 3.8277 0.15403 2.1784 1.3971 1.2721 0.10826 1.6212 1.4047 0.82924 0.26451 1.2645 1.3049 1.0701 0.16919 0.91161 1.346 1.0297-0.06629 1.2484 0.73483-0.15468 0.01295-1.5275-1.1342-0.86206-0.125-0.99621-1.5092-0.96875-0.25536-1.4192-1.3643-0.71875-0.13036-1.6288-1.5167-1.25-0.15403-2.1746-4.7096-3.6929z" fill="url(#h)" fill-rule="evenodd"/>
 <path d="m89.81 97.242-0.69129 0.14043 4.7598 3.8277 0.15403 2.1784 1.3971 1.2721 0.10826 1.6212 1.4047 0.82924 0.26451 1.2645 1.3049 1.0701 0.16919 0.91161 1.346 1.0297-0.06629 1.2484 0.73484-0.15468 0.01294-1.5275-1.1342-0.86206-0.125-0.99621-1.5092-0.96875-0.25536-1.4192-1.3643-0.71875-0.13036-1.6288-1.5167-1.25-0.15403-2.1746-4.7096-3.6929z" fill="url(#g)" fill-rule="evenodd"/>
 <path d="m50.68615,13.29797-19.03125,11.09375-.46875,19.90625-16.34375,10.40625 .03125,25.15625-8.1875,2.8125 .0625,6.125 55.65625,37.3125 64.65625-22.78125 .03125-6.25-10.3125-7.21875c-.0565-.3513-.23491-.6916-.46875-.90625l-4.78125-3.6875v-5.375-.03125l-.03125-17.75-18.25-12.9375-.78125-15.90625-19.15625-12.96875v-.21875c3.53769.95234 7.02083.83725 10.5625.46875-.99606-.67745-2.30487-.84724-3.59375-2.0625 2.33873-.11356 3.98566-1.83487 5.4375-2.6875-4.13387.59171-8.21306,1.78012-12.40625,0v-1.125c-.25-.5-.27083-.375-.6875.125l-.03125,5.03125-9.65625-6.53125h-12.25zm1.03125.375 11,.09375 3.53125,2.375-10.46875.09375-4.0625-2.5625zm-1.0625.15625 4.09375,2.59375-17.625,11.125-4.625-3.03125 18.15625-10.6875zm5.28125,2.5h10.59375l4.4375,2.96875-10.6875-.25-4.34375-2.71875zm17.375.03125c2.7909.89037 7.58898,1.35177 10.9375.0625-.5475.97728-3.54324,1.66542-4.6875,1.65625 .46327.72788 1.83986,1.72523 3.15625,2.15625-2.79248.67832-6.39435.06818-9.40625-.53125v-3.34375zm-18.28125.21875 4.125,2.59375-16.46875,12-5.40625-3.53125 17.75-11.0625zm5.4375,2.625 10.75.28125 1.375.9375v1.96875l-7.65625-.375-4.46875-2.8125zm-1.0625.125 4.65625,2.9375-15.5,12.71875-5.71875-3.71875 16.5625-11.9375zm13.90625,1.5625 2.4375,1.65625-2.4375-.125v-1.53125zm-8.21875,1.21875 7.5.4375-.03125,3-2.65625-.40625-4.8125-3.03125zm-.78125.3125 4.65625,2.9375-13.53125,14.125-6.71875-4.40625 15.59375-12.65625zm9,.1875 2.75.15625 6.28125,4.21875-9.03125-1.34375v-3.03125zm-41.03125,2.46875 7.59375,5.03125v1.625l-3.375-2.25v1.625l-4.28125-2.84375 .0625-3.1875zm37.8125.1875 2.46875.375v1.1875l-2.46875-1.5625zm-.875.25 3.34375,2.09375-11.3125,15.65625-5.6875-3.71875 13.65625-14.03125zm4.09375.25 9.34375,1.40625 6.65625,4.5-15.9375-4.34375-.0625-.03125v-1.53125zm-.3125,2 .125.03125 6.65625,9.5-8.3125,2.84375-3.5625-5.125 5.09375-7.25zm.53125.15625 10,2.84375 3.34375,4.125-6.9375,2.375-6.40625-9.34375zm-41.3125.625 3.53125,2.3125v3l-3.59375-2.375 .0625-2.9375zm7.84375,1.6875 12.75,8.46875v1.59375l-4.5-3v1.5625l-5.3125-3.46875v-1.59375l-2.96875-1.96875 .03125-1.59375zm-3.03125.09375 5.46875,3.65625 .09375,14.625-5.75-3.90625 .1875-14.375zm46.96875.5625 7.96875,2.28125-4.9375,1.6875-3.03125-3.96875zm-48.0625.09375 .5625.375-.03125,2.96875-.5625-.375 .03125-2.96875zm-3.78125.71875 3.59375,2.375v.03125l.09375.03125 .625.40625-.03125,2.84375-4.3125-2.8125 .03125-2.875zm5.59375.46875v12.0625l3.875,2.78125-.125-12.3125-3.75-2.53125zm.3125.5625 3.125,2.1875 .125,11.5625-3.25-2.40625v-11.34375zm53.9375,1.125c.06432,1.135.10406,2.29842.125,3.375l-3.6875,1.21875v-2.0625l-.9375.3125v-1.3125l4.5-1.53125zm-59.90625.96875 3.40625,2.21875v2.4375l-3.4375-2.25 .03125-2.40625zm35.625.40625 3.59375,4.96875-9.3125,3.15625 5.71875-8.125zm19.59375.21875 .03125,1.3125-5.40625,1.875-.03125,1.9375-5.5625,1.84375 .03125-3.21875 10.9375-3.75zm-44.3125.21875 2.21875,1.46875v2.96875l-2.21875-1.46875v-2.96875zm44.875,1.4375v14.625l-5.59375,1.6875 .21875-14.28125 5.375-2.03125zm-52.1875.03125 .75.5-.03125,2.4375-.75-.5 .03125-2.4375zm9.71875.125 2.90625,1.90625-.03125,2.9375-2.90625-1.90625 .03125-2.9375zm46.75.15625 .15625,3.1875-3.875,1.25v-3.21875c1.23647-.41266 2.48104-.81929 3.71875-1.21875zm-60.09375.0625 4.34375,2.84375v2.34375l-4.375-2.84375 .03125-2.34375zm16.78125.65625 5.46875,3.65625 .09375,14.625-5.75-3.90625 .1875-14.375zm4.15625.6875 7.90625,5.25-.03125,3.09375-6.0625-4v-1.5625l-1.84375-1.21875 .03125-1.5625zm33.9375,0-3.75,1.28125v11.875l3.875-1.15625-.125-12zm-43.9375.0625 2.21875,1.46875v.03125l3.0625,2-.03125,2.75-5.25-3.4375v-2.8125zm33.1875.40625v3.1875l-3.46875,1.15625v-2.21875l-6.5,2.25-.03125,2.125-.65625.21875 .03125-3.09375 10.625-3.625zm10.3125.1875 .28125,11.03125-3.25,1-.0625-11.21875 3.03125-.8125zm-36.9375.5v12.0625l3.875,2.78125-.125-12.3125-3.75-2.53125zm-17.53125.0625 3.46875,2.28125v3.09375l-3.53125-2.3125 .0625-3.0625zm17.84375.5 3.125,2.1875 .125,11.5625-3.25-2.40625v-11.34375zm32.03125.25v3.1875l-9.1875,2.96875v-3.125l9.1875-3.03125zm10.40625,0 .125,2.59375-4,1.28125v-2.59375l3.875-1.28125zm-49.3125,1.15625 2.3125,1.53125h-.09375v2.34375l-2.21875-1.4375v-2.4375zm29.15625.1875v14.625l-5.59375,1.6875 .1875-14.28125 5.40625-2.03125zm-36.46875.3125 .71875.46875-.03125,2.0625 6.625,4.59375v-2.3125l2.21875,1.4375v3.125l-9.5625-6.28125 .03125-3.09375zm29.6875.53125v3.03125l.09375.03125-4.03125,1.3125 .03125-3.03125 3.90625-1.34375zm-33.40625.375 7.59375,5.03125v1.40625l-7.625-5.3125 .03125-1.125zm22.84375.125 2.1875,1.4375v2.96875l-2.1875-1.4375v-2.96875zm-9.40625.0625 2.84375,1.875-.03125,2.375-2.84375-1.84375 .03125-2.40625zm47.03125.03125 .15625,2.75-4.15625,1.375v-2.8125l4-1.3125zm-21.21875.28125-3.75,1.28125v11.875l3.875-1.15625-.125-12zm10.6875.3125-.03125,2.625-5.53125,1.78125 .03125-2.625 5.53125-1.78125zm-11.125.34375 .25,11.03125-3.25,1.03125-.03125-11.21875 3.03125-.84375zm-27.78125.15625 2.21875,1.4375v.0625h.09375l2.90625,1.90625v2.3125l-5.21875-3.375v-2.34375zm-11.5.28125 3.0625,2.125-14.34375,10.28125-4.0625-2.625 15.34375-9.78125zm25.6875.09375 3.6875,2.4375-.03125,2.9375-3.6875-2.4375 .03125-2.9375zm9,.90625v3.09375l-4.78125,1.5625 .03125-3.0625 4.75-1.59375zm10,.0625v2.625l-3.46875,1.125v-2.625l3.46875-1.125zm16.40625.53125 .09375,2.28125-4.25,1.40625v-2.34375l4.15625-1.34375zm-37.78125.1875 6,3.96875-.03125,2.625-5.96875-3.90625v-2.6875zm27.0625.28125-.03125,2.84375-9.125,2.96875v-2.875l9.15625-2.9375zm-47.0625.25 4.46875,3.125-14.1875,10.09375-4.71875-3.03125 14.4375-10.1875zm4.9375,1.25 13,8.59375v1.90625l-13.03125-9.09375 .03125-1.40625zm5.65625.3125 2.8125,1.84375-.03125,2.125 6.625,4.59375v-2.375l2.25,1.46875v3.1875l-11.6875-7.71875 .03125-3.125zm47.3125.1875 .125,2.9375-6.625,2.15625-3.375.375 .03125-.6875 5.5625-1.78125v-1.59375l4.28125-1.40625zm-26.53125.21875-.03125,2.65625-.59375.1875v-2.65625l.625-.1875zm-.8125.25 .03125,2.65625-4.03125,1.3125 .03125-2.65625 3.96875-1.3125zm-10.5625.21875 2.1875,1.4375v2.40625l-2.1875-1.4375v-2.40625zm27.03125.34375-.03125,2.34375-5.59375,1.8125 .03125-2.34375 5.59375-1.8125zm11.4375.40625 1.6875,1.15625-1.65625-.1875-.03125-.96875zm-53.75.09375 4.1875,2.90625-14,10-4.46875-2.875 14.28125-10.03125zm17.65625.71875 3.59375,2.375-.03125,2.375-3.59375-2.375 .03125-2.375zm36.15625.4375 2,.1875 7.15625,4.9375-21.96875-.8125-1.125-.78125 14-1.59375-.0625-1.9375zm-17.28125.21875v2.34375l-3.34375,1.09375v-2.34375l3.34375-1.09375zm-9.90625.09375-.0625,5.5625-4.8125,1.5625 .125-5.5625 4.75-1.5625zm26.6875.15625 .0625,1.1875-5.75.65625 5.6875-1.84375zm-38.03125.21875 5.9375,3.90625-.03125,2.28125-5.90625-3.84375v-2.34375zm27,.1875v1.5625l.875-.28125v.65625l-4.3125.46875-6.84375,3.90625v-1.46875l1.1875-.375v-1.5l9.09375-2.96875zm-37.875,1.0625 4.53125,3.15625-13.8125,9.84375-4.78125-3.0625 14.0625-9.9375zm-28.375,1.71875 5.0625,3.28125v2.875l-5.03125-3.28125h-.03125v-2.875zm62.78125.15625 1.28125.875-29.03125,20.5-5.3125-3.40625 13.5-9.5 2.15625,1.5 17.40625-9.96875zm2.59375.8125 21.78125.65625 6.5625,4.53125-25-2.84375-3.34375-2.34375zm-1.09375.21875 3.53125,2.40625-27.375,21.4375-5.28125-3.40625 29.125-20.4375zm-22.59375.0625 3.46875,2.28125-.03125,3.15625-3.46875-2.28125 .03125-3.15625zm-8.53125.34375 4.65625,3.25-13.59375,9.75-4.96875-3.21875 13.90625-9.78125zm4.21875.28125 7.75,5.125-.03125,2.15625-1.59375-1.09375-4.90625-3.4375-.03125-.03125-.1875-.15625-.03125.03125-1-.71875 .03125-1.875zm18.40625.25 .03125,1.46875-10.0625,3.25 .03125-2.9375 4.75-1.5625v1.46875l5.25-1.6875zm-55.78125.96875 9.75,6.34375v3.3125l-.3125-.21875v-2.46875l-6.5-4.3125-.03125,2.5625-2.90625-1.90625v-3.3125zm5.25.3125 9.6875,6.25v2.90625l-9.71875-6.3125 .03125-2.84375zm63.25.3125 10.5625,1.3125 4.28125,5.6875-8.09375,2.78125-6.75-9.78125zm-.21875.15625 6.8125,9.65625-7.84375,2.71875-5.21875-7.375-.1875.1875 5.25,7.21875-9.28125,3.1875-3.40625-4.5625 7.625-6.03125 6.25-5zm-13.09375.09375-5.1875,2.96875v-1.28125l5.1875-1.6875zm-17.15625,1.03125 4.9375,3.4375-13.40625,9.59375-5.21875-3.375 13.6875-9.65625zm41.4375.0625 9.25,1.15625 1.65625,2.0625-6.875,2.375-4.03125-5.59375zm-29.65625.65625 .03125,1.3125-4.125,2.34375 .03125-2.34375 4.0625-1.3125zm39.25.53125 5.34375.65625-3.84375,1.3125-1.5-1.96875zm-85.59375.34375 5.46875,3.65625 .09375,18.125-3.8125-2.59375 .03125-1.03125 2.8125,2.03125-.125-15.75-3.75-2.53125v15.5l.875.625v1.0625l-1.78125-1.21875 .1875-17.875zm-3.46875.0625 .1875.125v2.90625l-.1875-.125v-2.90625zm.375.25 2.53125,1.65625v2.90625l-2.5625-1.6875 .03125-2.875zm94.8125.125 .03125,3.78125-11.5,3.90625 .03125-3.65625 11.4375-4.03125zm-90.6875,2.03125 3.125,2.1875 .125,15-3.25-2.40625v-14.78125zm5.4375.5 10.8125,7.03125v.71875l-5.5625-3.6875-.03125,2.65625-5.25-3.4375 .03125-3.28125zm5.1875.21875 11.0625,7.15625v2.9375l-11.09375-7.21875 .03125-2.875zm-15.125.03125 2.90625,1.90625-.03125,3.40625-2.90625-1.875 .03125-3.4375zm95.21875,1.1875 .03125,3.15625-5.71875,1.9375 .03125-3.1875 5.65625-1.90625zm-11.65625.125v3.625l-10.90625,3.71875 .03125-3.53125 2.71875-.9375 .03125-.03125 8.125-2.84375zm-74.125,1.6875 5.5625,3.625h-.0625v2.84375l-5.53125-3.5625 .03125-2.90625zm79.9375.15625v3.1875l-11.40625,3.875 .03125-3.1875 11.375-3.875zm-89.40625.53125 .21875.15625v3.03125l-.09375-.0625-.125.03125v-3.15625zm.40625.25 2.5,1.625-.03125,3.03125-2.5-1.625 .03125-3.03125zm94.875.625 .03125,3.09375-11.625,3.9375 .03125-3.125 11.5625-3.90625zm-79.53125.09375 5.46875,3.65625 .09375,18.125-5.75-3.90625 .1875-17.875zm56.78125.53125v3.53125l-5.84375,1.96875h-.15625v.0625l-5.53125,1.875 .03125-3.375 11.5-4.0625zm-18.3125.0625 3.4375,4.46875-9.5625,3.3125-1.40625-1.78125 7.53125-6zm-44.78125.90625 .34375.21875v3.40625l-.34375-.21875v-3.40625zm.53125.34375 5.21875,3.40625-.03125,3.375-5.21875-3.40625 .03125-3.375zm6.5.0625v15.5l3.875,2.78125-.125-15.75-3.75-2.53125zm-1.3125.125 .03125.03125v2.90625l-.0625-.03125 .03125-2.90625zm5.8125.21875 10.125,6.625v.59375l-3.125-2.0625v2.71875l-6.25-4.09375v-2.5625l-.78125-.5 .03125-.71875zm-20.96875.0625 2.875,1.875v3.28125l-2.875-1.84375v-3.3125zm77.84375.125v3.1875l-11.15625,3.78125 .03125-3.1875 11.125-3.78125zm-61.0625.03125 3.125,2.1875 .125,15-3.25-2.40625v-14.78125zm9.625.125 10.125,6.53125v3l-10.15625-6.59375 .03125-2.9375zm68.90625.59375 .03125,3.46875-5.78125,1.96875 .03125-3.5 5.71875-1.9375zm-11.78125.6875v3.125l-10.84375,3.65625 .03125-3.125 10.8125-3.65625zm-22.6875.78125v3.375l-10.90625,3.6875 .03125-3.25 8.125-2.84375 2.75-.96875zm-51.40625.5 5.53125,3.625v3.03125l-5.53125-3.59375v-3.0625zm79.96875.03125v3.46875l-1.53125.53125-1.90625-1.46875c-.51318.20891-1.71966.35167-.96875,1.96875l.40625.3125-3.65625,1.25v-1l-3.6875,1.25 .03125-2.46875 11.3125-3.84375zm-89.40625.6875 .21875.125v3.0625l-.21875-.15625v-3.03125zm.40625.25 2.46875,1.59375-.03125,2.5625 2.25,1.53125v.40625l-4.71875-3.0625 .03125-3.03125zm66.125.15625v3.15625l-11.28125,3.84375 .03125-3.1875 11.25-3.8125zm-44.8125.03125c1.49492.98504 2.99983,1.95907 4.5,2.9375v2.875l-4.53125-2.90625 .03125-2.90625zm24.78125.4375 1.375,1.6875-6.1875,2.125 4.8125-3.8125zm48.84375.125 .03125,3.1875-4.4375,1.5-2.90625-2.25 7.3125-2.4375zm-22.8125.71875v3.125l-11.53125,3.90625 .03125-3.125 11.5-3.90625zm13.5625.53125 14.5,11.46875c.28835.49396.53514,1.32128-.4375.9375l-.5625-.40625 .75-.53125-.46875-.21875-.59375.5-13.78125-10.28125c-.7921-.86084-.03805-1.44656.59375-1.46875zm-57.59375.125 5.46875,3.65625 .09375,18.125-5.75-3.90625 .1875-17.875zm-19.0625.21875 .34375.21875v3.3125l-.375-.25 .03125-3.28125zm40.34375.0625v3.25l-8.8125,2.96875-.03125-3.09375 8.84375-3.125zm-39.8125.28125 5.15625,3.375v3.25l-5.1875-3.34375 .03125-3.28125zm21.3125.15625 8.6875,5.6875 .03125,3.28125-5.53125-3.625v-2.59375l-3.21875-2.125 .03125-.625zm46.625.125v2.46875l-11.21875,3.8125 .03125-2.5 11.1875-3.78125zm-77.90625.0625 9.875,6.4375h-.09375v2.65625l-9.78125-6.5v-2.59375zm36.71875.0625 3.21875,2.09375 .03125,3.03125-3.28125-2.125 .03125-3zm-10.3125.15625 1.53125,1v2.84375l-1.5625-1 .03125-2.84375zm-4.71875.125c2.06357,1.33133 4.12755,2.66418 6.1875,4l.03125,3.4375-6.21875-4.0625v-3.375zm7.53125.65625v15.5l3.875,2.78125-.125-15.75-3.75-2.53125zm25.875,0v3.1875l-10.03125,3.40625 .03125-3.21875 10-3.375zm30.53125,0 2.90625,2.21875-4.8125,1.625 .03125-3.21875 1.875-.625zm9.75.125v3.0625l-1.46875.5-2.75-2.15625 4.21875-1.40625zm-96.03125.21875v1.6875l41.03125,27.375 24.5625-8.71875 4.375,3.46875v.0625l-3.71875,1.375 5.53125,5.125-24.375,8.8125-54.53125-36.71875 7.125-2.46875zm30.1875.21875 3.125,2.1875 .125,15-3.25-2.40625v-14.78125zm54.03125.125v3.21875l-1.84375.625 .03125-3.21875 1.8125-.625zm-2.46875.34375v13.09375l-.59375.25-.1875-12.59375-9.65625,3.25 .0625,12.8125-.90625.3125v-12.78125l-9.75,3.46875v12.71875l-.75.28125v-13.375l21.78125-7.4375zm-20.25.375v3.125l-7.375,2.5-.125-.0625v.09375l-3.40625,1.15625 .03125-3.125 10.875-3.6875zm-55.59375.375 4.15625,2.8125v-2.75l5.5625,3.625v3l-9.71875-6.3125v-.375zm74.75.5v.71875l-8.78125,14.03125v-1.28125l8.375-13.34375 .40625-.125zm8.71875.0625 .6875.53125-.0625,2.375-7.625,2.5625v-3.09375l7-2.375zm-9.34375.15625-8.1875,12.9375v-1.4375l7-11.09375 1.1875-.40625zm-12.84375.28125v2.46875l-7.78125,2.65625v1l-3.5,1.1875 .03125-3.5 11.25-3.8125zm11.4375.1875-6.78125,10.75v-1.4375l5.59375-8.90625 1.1875-.40625zm-56.28125.03125 4.53125,2.96875v3l-4.53125-2.9375v-3.03125zm68.21875.25 8.65625,6.59375 .0625,5.03125-8.90625-5.90625 .1875-5.71875zm-9.90625.03125 .03125,1.34375-8.09375,12.78125-.71875.25v-.3125l8.78125-14.0625zm-88.0625.09375 54.5625,36.8125 .09375,5-54.625-36.78125-.03125-5.03125zm103.4375.03125 .03125,1.40625-1.28125-.96875 1.25-.4375zm-50.46875.03125v3.1875l-3.9375,1.34375v-3.1875l3.9375-1.34375zm31.625.03125-5.34375,8.5-.03125-1.40625 4.25-6.71875 1.125-.375zm-1.375.46875-4,6.3125v-1.5625l2.71875-4.3125 1.28125-.4375zm-40.6875.53125 2.0625,1.34375v2.90625l-2.0625-1.34375v-2.90625zm39.15625,0-2.46875,3.90625-.03125-1.59375 1.21875-1.875 1.28125-.4375zm6.40625.4375v1.4375l-6.71875,10.5625-1.09375.40625 7.8125-12.40625zm-7.96875.09375-.9375,1.46875v-1.15625l.9375-.3125zm-22.28125.15625v3.125l-2.65625.90625-.09375-.09375-.125.15625-5.90625,2-.03125-3.09375 8.8125-3zm39.5625.28125-.0625,3.25-5.59375,1.875 .03125-3.21875 5.625-1.90625zm-79.375.0625 10.8125,7.03125v2.90625l-10.84375-7.21875 .03125-2.71875zm26.75.4375 3.28125,2.15625 .03125,2.875-3.34375-2.15625 .03125-2.875zm32.65625,0v1.03125l-.8125-.75 .8125-.28125zm-42.9375.15625c.48333.31676 1.0239.67186 1.46875.96875l-.03125,2.96875-1.5-.96875 .0625-2.96875zm-4.75.21875 6.1875,4v3.25l-6.21875-4 .03125-3.25zm46.625,0 1.0625.96875 .03125,1.59375-2.3125-2.125 1.21875-.4375zm11.71875.3125 .03125,1.5-5.28125,8.25-1.21875.4375 6.46875-10.1875zm-24.9375.03125v3.5l-.09375.03125-.28125-.90625-.875-.40625 .65625-1.375-.8125-.375 1.40625-.46875zm11.75.1875 2.5625,2.34375v1.5625l-3.78125-3.46875 1.21875-.4375zm24.53125.09375-.09375,2.71875 4.0625,2.5 2.53125-1.8125-1.90625.28125 .25-1.5625-1.46875.4375-.09375-2.375-1.0625,1.6875-.78125-1.5625-.59375,1.25-.84375-1.5625zm-38.0625.3125-.0625,1.375-.65625-.3125-.59375.59375 1.0625.53125-.8125,1.6875-1.46875.5-1.75-1.15625 1-1.125-1.1875.03125-.65625.75-.90625-.8125 6.03125-2.0625zm.3125.03125 .59375.375-.5.90625-.21875-.09375 .125-1.1875zm11.75.09375 4.03125,3.6875 .03125,1.53125-5.25-4.8125 1.1875-.40625zm18.15625.03125v3.21875l-1.84375.625 .03125-3.21875 1.8125-.625zm-49.0625.25 5.5625,3.625 .03125,3.40625-5.59375-3.65625v-3.375zm29.46875.21875 5.5,5v1.5625l-6.6875-6.125 1.1875-.4375zm-48.8125.15625 6.53125,4.375v-2.59375l4.5625,2.96875v3l-11.09375-7.21875v-.53125zm47.40625.375 6.90625,6.3125v1.4375l-8-7.375 1.09375-.375zm17.53125,0v1.5l-3.78125,5.96875-1.25.4375 5.03125-7.90625zm-27.46875.15625 2.03125.875 .3125.75-1.71875-.875-.0625-.03125-.9375-.46875 .375-.25zm8.5625.3125 8.3125,7.5625v1.375l-8.90625-8.25v-.46875l.59375-.21875zm28.125.03125v.46875l.15625.09375v1.78125l-7.75,2.71875v-2.5l7.59375-2.5625zm-30.53125.1875v3.25l-4.53125,1.53125-1.4375-.96875 .59375-2 1.59375-.53125 .125.0625-.03125-.09375 3.6875-1.25zm-11.625.34375 .75.71875-.1875.1875-1.0625-.4375 .5-.46875zm2.625,0-1.3125,1.40625-.0625.0625-.65625.75-.15625-.4375 1.375-1.6875 .8125-.09375zm-3.09375.09375-.4375.53125 1.5625.5625-.46875.5625 .40625.71875 .8125-.875 1.09375.96875-4.5625,1.5625 .03125-3.5 1.5625-.53125zm6.53125.03125 .21875.0625 .1875.0625-.96875,3.125-.40625-.28125 .375-1.0625-.0625-.03125-.375,1.0625-.25-.15625 1.28125-2.78125zm36.4375.03125 1.59375,1.03125-1.625.5625 .03125-1.59375zm-35.875.15625 1,.53125-1.3125.4375 .3125-.96875zm6.8125.125 8.90625,8.21875v.1875l-.84375.28125-8.03125-7.40625-.03125-1.28125zm-15.65625.25v3.5l-3.875,1.3125-.03125-3.5 3.90625-1.3125zm35.1875.09375v1.53125l-2.28125,3.5625-1.28125.46875 3.5625-5.5625zm19.03125.03125 1.09375.84375c.45274-.09722.71282-.28514.875-.5l8.9375,6.3125-20.75,7.75-6.03125-5.53125-3.65625,1.34375-4.34375-3.4375 16.6875-5.9375 7.1875,4.6875v-5.53125zm-50.21875.34375 6.8125,4.53125 .8125,1.25 .03125.09375-6.21875-4.4375-.0625.0625 6.15625,4.53125-1.71875-.4375-6.0625-5.28125 .125-.15625 .125-.15625zm-14.4375.75 2.0625,1.34375v2.96875l-2.0625-1.34375v-2.96875zm17.65625.03125-.40625.84375-.71875-.46875 1.125-.375zm8.46875.09375 7.84375,7.1875-1.15625.40625-6.6875-6.09375v-1.5zm19.5.5625 .03125,1.53125-.8125,1.21875-1.25.4375 2.03125-3.1875zm-30.3125.125v3.1875l-4.78125,1.65625h-.09375v.03125l-3.875,1.3125v-3.21875l8.75-2.96875zm.1875.15625 1.21875,1.0625v.03125l-.90625,1.8125-.34375.125 .03125-3.03125zm8.78125.21875-.03125,3.09375-2.09375.71875-.71875-1.375-.625-.40625v-.84375l3.46875-1.1875zm-37.78125.125 10.1875,6.65625v3l-10.21875-6.78125 .03125-2.875zm15.75.15625 3.375,2.1875 .03125,3-3.4375-2.25 .03125-2.9375zm-10.3125.09375 1.46875.96875-.03125,2.375 6.625,4.40625v-2.46875l2.0625,1.34375v2.96875l-10.15625-6.59375 .03125-3zm34.1875.375 6.40625,5.875-1.125.40625-5.28125-4.84375v-1.4375zm-9.25.25 .28125.28125-1.78125,4.78125-.03125-1.78125 1.53125-3.28125zm3.75.25v.65625l-.65625-.4375 .65625-.21875zm-3.34375.09375 .375.375-1.03125,3.25-1.09375,1.25 1.75-4.875zm28.375,0v.625l-.53125.1875 .53125-.8125zm-27.8125.53125 2.28125,2.03125 .5.09375v.3125l-4.59375,1.53125 .8125-.75 1-3.21875zm-17.84375.21875 5.65625,3.6875 .03125,3.25-5.6875-3.6875v-3.25zm26.125.4375 5,4.5625-1.0625.40625-3.90625-3.5625-.03125-1.40625zm-10.40625.375-.65625,1.34375 .1875,1.90625-4.65625,1.5625 .03125-3.09375 5.09375-1.71875zm8.53125.375v3.25l-8.78125,2.96875 .03125-3.125 .21875-.1875 5.84375-2 .875.1875-.21875-.40625 2.03125-.6875zm-3.46875.75 .4375.09375-.4375.15625v-.25zm5.375.21875 3.625,3.3125-1.21875.4375-2.40625-2.1875v-1.5625zm14.40625.3125 4.34375,3.4375-9.875,3.625v-.09375l-4.34375-3.46875 9.875-3.5zm-30.125.125v3.09375l-3.84375,1.3125-.03125-3.09375 3.875-1.3125zm66.09375.0625 .0625,5.625-21.65625,7.65625v-5.59375l21.59375-7.6875zm-50.375,1.40625 2.125,1.9375-1.25.46875-.84375-.78125-.03125-1.625zm-10.90625.21875 .03125.21875 .03125-.03125v3l-8.71875,2.9375v-3.21875l8.65625-2.90625zm9,.34375v2.8125l-3.46875,1.21875 .03125-2.875 3.4375-1.15625zm-27.375.15625 8.84375,5.78125 .03125,3.15625-8.90625-5.90625 .03125-3.03125zm5.375.25 3.4375,2.21875 .03125,3-3.5-2.28125 .03125-2.9375zm46.21875.03125 .125,1.90625-2.96875,1.0625-.1875-1.875 3.03125-1.09375zm.40625,0 5.5625,5.21875 .0625,4.46875-1-.46875-.09375-1.21875-1.5625-.90625-.03125-1.46875-1.375-.75 .03125-1.84375-1.5-.9375-.09375-2.09375zm-28.25.78125v2.875l-10.03125,3.5625 .03125-3.0625 10-3.375zm5.5625.15625 .59375.53125-.59375.21875v-.75zm19.03125.25 .21875,1.84375-10.09375,3.59375-.0625-.0625-.1875-1.6875 10.125-3.6875zm3.40625,1.09375 1.28125.84375-2.90625,1.03125-1.21875-.875 2.84375-1zm-3.03125,1.0625 1.1875.875-9.96875,3.53125v-.09375l-1.125-.8125 9.90625-3.5zm4.53125.0625v1.375l-2.6875.96875-.21875-1.3125 2.90625-1.03125zm-39.6875.8125v3.0625l-3.8125,1.34375-.03125-3.09375 3.84375-1.3125zm36.59375.28125 .1875,1.3125-10.125,3.59375-.21875-1.34375 10.15625-3.5625zm-12.125.4375 .1875,1.6875 .0625.0625-1.84375.65625-1.46875-1.28125 3.0625-1.125zm15.5.09375 .9375.5-3,1.0625-.84375-.53125 2.90625-1.03125zm1.0625.875 .03125,1.0625-2.59375.90625-.125-.96875-.0625-.03125 2.75-.96875zm-4.1875.25 .84375.53125-9.84375,3.53125-.84375-.59375 9.84375-3.46875zm-11.78125.75 1.15625.875v.03125l-2.03125.71875-1.0625-.9375 1.9375-.6875zm13.03125.03125 .0625.03125 .09375,1-10.09375,3.59375-.15625-1.09375 10.09375-3.53125zm3.1875.34375 1.03125.65625-2.78125,1-.96875-.6875 2.71875-.96875zm-15.03125.84375 .1875,1.34375v.03125l-.84375.28125-1.15625-1.03125 1.8125-.625zm16.3125.15625-.03125.875-2.65625.90625-.0625-.8125 2.75-.96875zm-4.21875.03125 1,.6875-9.90625,3.53125v-.03125l-1-.6875 9.90625-3.5zm1.34375.96875 .0625.8125-10.21875,3.5-.0625-.75 10.21875-3.5625zm3.09375.125 1.03125.53125-2.96875,1.03125-.9375-.53125v-.0625l2.875-.96875zm-16,.3125 .875.5625-1.0625.375-.71875-.625 .90625-.3125zm17.3125.5v1l-2.5625.875 .03125-.71875-.3125-.15625 2.84375-1zm-4.3125.21875v.0625l.9375.53125-9.96875,3.46875-1.09375-.65625 10.125-3.40625zm-11.96875.09375 .09375,1.09375v.03125l-.9375.3125 .25-.75-.375-.34375 .96875-.34375zm13.3125.71875 .21875.125-.03125.78125-10.15625,3.5 .03125-.90625-.03125-.03125 9.96875-3.46875zm-14.75.28125v5.53125l-24.125,8.71875-.125-5.4375 24.25-8.8125zm1.875.34375 1.0625.71875-2.3125.8125v-1.09375l1.25-.4375zm1.0625,1.03125 .0625.75-2.34375.78125-.03125-.71875 2.3125-.8125zm.15625,1.03125 1.125.59375-3.5625,1.25v-1.03125l2.4375-.8125zm1.5.84375-.03125.9375-3.8125,1.3125-.0625-.875 3.90625-1.375z" fill-rule="evenodd"/>
</svg>
