<?xml version="1.0" encoding="UTF-8"?>
<svg viewBox="0 0 128 128" xmlns="http://www.w3.org/2000/svg" xmlns:xlink="http://www.w3.org/1999/xlink">
 <defs>
  <filter id="bb">
   <feGaussianBlur stdDeviation=".451"/>
  </filter>
  <linearGradient id="b">
   <stop stop-color="#b1b1b1" offset="0"/>
   <stop stop-color="#e4e4e4" offset="1"/>
  </linearGradient>
  <linearGradient id="c" x1="62.241" x2="69.938" y1="91.07" y2="50.508" gradientUnits="userSpaceOnUse">
   <stop stop-color="#4f3e2a" offset="0"/>
   <stop stop-color="#72593c" offset="1"/>
  </linearGradient>
  <linearGradient id="a">
   <stop stop-color="#c7a94c" offset="0"/>
   <stop stop-color="#e2ca80" offset="1"/>
  </linearGradient>
  <linearGradient id="ba" x1="30.761" x2="28.926" y1="76.63" y2="79.504" gradientUnits="userSpaceOnUse" xlink:href="#a"/>
  <linearGradient id="az" x1="61.203" x2="70.716" y1="93.924" y2="37.708" gradientUnits="userSpaceOnUse" xlink:href="#a"/>
  <linearGradient id="ay" x1="64.364" x2="79.052" y1="99.375" y2="89.438" gradientUnits="userSpaceOnUse" xlink:href="#a"/>
  <linearGradient id="ax" x1="57.427" x2="60.802" y1="89.875" y2="84.688" gradientUnits="userSpaceOnUse" xlink:href="#a"/>
  <linearGradient id="aw" x1="53.489" x2="53.677" y1="86" y2="88.312" gradientUnits="userSpaceOnUse" xlink:href="#a"/>
  <linearGradient id="av" x1="53.802" x2="53.364" y1="78.938" y2="82.938" gradientUnits="userSpaceOnUse" xlink:href="#a"/>
  <linearGradient id="au" x1="44.052" x2="45.614" y1="81.312" y2="76.438" gradientUnits="userSpaceOnUse" xlink:href="#a"/>
  <linearGradient id="at" x1="57.364" x2="61.489" y1="76.125" y2="70.438" gradientUnits="userSpaceOnUse" xlink:href="#a"/>
  <linearGradient id="as" x1="73.739" x2="72.802" y1="71" y2="74.125" gradientUnits="userSpaceOnUse" xlink:href="#a"/>
  <linearGradient id="ar" x1="79.802" x2="80.864" y1="75.375" y2="75.188" gradientUnits="userSpaceOnUse" xlink:href="#a"/>
  <linearGradient id="aq" x1="68.989" x2="71.177" y1="78" y2="84.188" gradientUnits="userSpaceOnUse" xlink:href="#a"/>
  <linearGradient id="ap" x1="68.677" x2="67.739" y1="86.125" y2="89.438" gradientUnits="userSpaceOnUse" xlink:href="#a"/>
  <linearGradient id="ao" x1="77.614" x2="81.927" y1="83.25" y2="76.875" gradientUnits="userSpaceOnUse" xlink:href="#a"/>
  <linearGradient id="an" x1="81.427" x2="81.052" y1="84.062" y2="86.312" gradientUnits="userSpaceOnUse" xlink:href="#a"/>
  <linearGradient id="am" x1="73.177" x2="75.239" y1="70.375" y2="65.938" gradientUnits="userSpaceOnUse" xlink:href="#a"/>
  <linearGradient id="al" x1="83.927" x2="83.489" y1="70.812" y2="74.938" gradientUnits="userSpaceOnUse" xlink:href="#a"/>
  <linearGradient id="ak" x1="88.927" x2="88.802" y1="81.125" y2="84.938" gradientUnits="userSpaceOnUse" xlink:href="#a"/>
  <linearGradient id="aj" x1="90.989" x2="93.114" y1="85.312" y2="80.625" gradientUnits="userSpaceOnUse" xlink:href="#a"/>
  <linearGradient id="ai" x1="97.052" x2="96.802" y1="82.25" y2="86" gradientUnits="userSpaceOnUse" xlink:href="#a"/>
  <linearGradient id="ah" x1="106.68" x2="117.8" y1="84.812" y2="76" gradientUnits="userSpaceOnUse" xlink:href="#a"/>
  <linearGradient id="ag" x1="90.052" x2="92.052" y1="70.562" y2="68.25" gradientUnits="userSpaceOnUse" xlink:href="#a"/>
  <linearGradient id="af" x1="99.927" x2="98.708" y1="67.625" y2="71.125" gradientUnits="userSpaceOnUse" xlink:href="#a"/>
  <linearGradient id="ae" x1="103.11" x2="102.55" y1="78.562" y2="73.875" gradientUnits="userSpaceOnUse" xlink:href="#a"/>
  <linearGradient id="ad" x1="115.11" x2="113.43" y1="70.562" y2="73.812" gradientUnits="userSpaceOnUse" xlink:href="#a"/>
  <linearGradient id="ac" x1="82.677" x2="84.802" y1="62.125" y2="55.688" gradientUnits="userSpaceOnUse" xlink:href="#a"/>
  <linearGradient id="ab" x1="74.802" x2="74.552" y1="59.812" y2="62.75" gradientUnits="userSpaceOnUse" xlink:href="#a"/>
  <linearGradient id="aa" x1="84.364" x2="82.989" y1="49.5" y2="51.938" gradientUnits="userSpaceOnUse" xlink:href="#a"/>
  <linearGradient id="z" x1="72.739" x2="74.02" y1="57.125" y2="51.25" gradientUnits="userSpaceOnUse" xlink:href="#a"/>
  <linearGradient id="y" x1="61.052" x2="62.52" y1="45.875" y2="41.125" gradientUnits="userSpaceOnUse" xlink:href="#a"/>
  <linearGradient id="x" x1="62.927" x2="62.677" y1="46.25" y2="48.438" gradientUnits="userSpaceOnUse" xlink:href="#a"/>
  <linearGradient id="w" x1="67.802" x2="68.614" y1="50.312" y2="45.875" gradientUnits="userSpaceOnUse" xlink:href="#a"/>
  <linearGradient id="v" x1="73.114" x2="72.739" y1="46.25" y2="49.438" gradientUnits="userSpaceOnUse" xlink:href="#a"/>
  <linearGradient id="u" x1="65.177" x2="65.052" y1="53.688" y2="58.062" gradientUnits="userSpaceOnUse" xlink:href="#a"/>
  <linearGradient id="t" x1="58.489" x2="59.864" y1="58.188" y2="53.5" gradientUnits="userSpaceOnUse" xlink:href="#a"/>
  <linearGradient id="s" x1="57.239" x2="56.177" y1="47.75" y2="50.812" gradientUnits="userSpaceOnUse" xlink:href="#a"/>
  <linearGradient id="r" x1="43.489" x2="46.552" y1="52.188" y2="46.5" gradientUnits="userSpaceOnUse" xlink:href="#a"/>
  <linearGradient id="q" x1="52.052" x2="51.989" y1="56.25" y2="59.75" gradientUnits="userSpaceOnUse" xlink:href="#a"/>
  <linearGradient id="p" x1="55.802" x2="56.927" y1="66.25" y2="61.75" gradientUnits="userSpaceOnUse" xlink:href="#a"/>
  <linearGradient id="o" x1="52.239" x2="50.802" y1="67.688" y2="70.875" gradientUnits="userSpaceOnUse" xlink:href="#a"/>
  <linearGradient id="n" x1="41.489" x2="47.239" y1="71.125" y2="65" gradientUnits="userSpaceOnUse" xlink:href="#a"/>
  <linearGradient id="m" x1="28.302" x2="27.864" y1="60.438" y2="63.062" gradientUnits="userSpaceOnUse" xlink:href="#a"/>
  <linearGradient id="l" x1="37.927" x2="40.114" y1="62" y2="56.062" gradientUnits="userSpaceOnUse" xlink:href="#a"/>
  <linearGradient id="k" x2="0" y1="67.625" y2="72.062" gradientUnits="userSpaceOnUse" xlink:href="#a"/>
  <linearGradient id="j" x1="30.052" x2="31.302" y1="69.812" y2="65.25" gradientUnits="userSpaceOnUse" xlink:href="#a"/>
  <linearGradient id="i" x1="19.302" x2="21.364" y1="60.75" y2="56.312" gradientUnits="userSpaceOnUse" xlink:href="#a"/>
  <linearGradient id="h" x1="34.427" x2="32.864" y1="53.938" y2="55.812" gradientUnits="userSpaceOnUse" xlink:href="#a"/>
  <linearGradient id="g" x1="64.552" x2="66.963" y1="96.207" y2="47.948" gradientUnits="userSpaceOnUse" xlink:href="#b"/>
  <linearGradient id="f" x1="62.582" x2="64.04" y1="62.548" y2="64.869" gradientUnits="userSpaceOnUse" xlink:href="#b"/>
  <linearGradient id="e" x1="65.786" x2="65.322" y1="61.444" y2="58.88" gradientUnits="userSpaceOnUse" xlink:href="#b"/>
  <linearGradient id="d" x1="63.355" x2="63.488" y1="60.692" y2="61.62" gradientUnits="userSpaceOnUse" xlink:href="#b"/>
 </defs>
 <path d="m87.864 90.375 3.9375 2 0.1875 0.8125-31.125 11.438-37.812-25.5-21.625-14.562 0.0625-0.6875 4.125-1.875 64.25-19.875 55 35.688 2.6875 2 0.125 0.625-30 10.75-3.4179-2.3484-0.1446-1.5161-6.25 3.052z" fill="url(#g)" fill-rule="evenodd"/>
 <path d="m10.089 63.654 60.886-21.535 50.508 34.335-24.735 10.551-8.535 3.3597-0.29292-0.13856-0.59911 1.1032-27.33 7.9568-49.903-35.632z" fill="url(#c)" fill-rule="evenodd"/>
 <path d="m62 39.562-60.156 21.312 1.9688 2.3125 2.5312 0.84375 51.75 34 2.9375 1.8438-53.438-36.219 56.875-21.281-2.4688-2.8125zm7.0938 3.9062-8.7812 2.7188 2.6875 2.4375 6.4688-0.875 3.4375 1.5938-8.4375 3.8125 0.59375 2.1875-5.25-1.0938-2.2188-3.3125-8.6562 3.8125 0.96875 0.71875-18.719 5.875-3.6562-1.4688-4.2812 1.2188 3.5312 1.9688-8.8125 2.8125 5.1562 4.0312c-0.12231 0 4.0269-1.2295 5.25-1.7188s3.1875-5.125 3.1875-5.125l16.031-5.2812 4.375 0.25 8.8125-1.9375 5.2812 1.3438 12.938-5.0312-9.9062-8.9375zm15.312 12.969-13.219 4.6562s2.6983 1.3518 3.1875 1.7188l13.438-4.7812-3.4062-1.5938zm-19.094 2.6875-6 2.7812 1.0625 1.6875 7.375-2-2.4375-2.4688zm24.719 4.0625-1.8438 1.9375 9.6562 5.75-0.125-1.2188-7.6875-6.4688zm-18.562 0.3125-14.125 5.4688-5.125-4.6875-6.3438 1.5938-11.031 3.9062 4.2812 2.4375 8.3438-2.8125 4.875 4.2812 21.156-8.5625-2.0312-1.625zm43.75 9.4688-1.9688 1.4688 0.625 6.5938 8.0625-2.9375-6.7188-5.125zm-35.594 10.75-2.3125 1.4688 6.3438 2.9375-8.6875 2.5625-9.1562-5.125-1.5938 0.71875 1.5938 2.5938 7.3438 3.6562-8.6875 3.7812 1.5938 1.2188 21.031-8.1875-7.4688-5.625z" fill-opacity=".54902" fill-rule="evenodd" filter="url(#bb)"/>
 <path d="m5.6874 58.65-0.12231 5.8097 55.223 36.999 0.12231-6.0544-55.223-36.754z" fill="url(#ba)" fill-rule="evenodd"/>
 <path d="m80.725 79.993 6.9717 5.932-26.908 9.479-54.979-36.693 42.809-14.555 21.588-7.3998 54.306 36.571-25.869 8.9287-4.342-3.2412-4.5866 1.7735-1.8347-1.4677 19.509-7.1552-17.49-12.414 2.5074-1.162 19.57 14.066-14.738 5.3817 2.3239 2.1404 21.282-7.3386-28.682-19.814-16.206 6.3601-2.385-1.4066 16.634-6.1767-20.426-13.943-14.738 5.504 12.109 8.3783 10.58-3.7305-7.0328-4.342-6.6659 2.8743-1.8346-1.6512 8.684-3.3024 10.335 7.1552-14.371 5.0147-3.6082-2.5074s-10.274 4.5866-10.824 4.2809-1.7735-1.2843-1.7735-1.2843l10.947-4.342-8.5617-5.6874-18.408 6.4213 4.4032 3.9139 11.13-4.0974 2.2016 1.6512-23.422 8.1948-1.957-1.4066 9.7848-3.6693-4.4643-4.0362-23.3 7.9502 11.253 7.094 13.21-5.0759 2.3239 1.3454-13.393 5.137 14.494 9.6014 19.08-7.0328-6.9717-6.3601-9.2956 3.1801-2.1404-1.162 19.692-6.9105 1.3454 1.162-8.256 3.1801 7.6444 6.2378 17.674-6.7271 8.1948 4.8924 7.5221-2.9354 1.6512 1.0396-7.5221 2.8131 6.299 3.9751-18.408 7.6444-8.684-6.299 2.0793-0.61155 6.6659 5.1982 15.166-6.0544-13.393-8.0725-4.0974 1.6512 10.029 5.932-1.957 1.0396-10.213-6.2378-18.469 6.9717 12.231 9.1121-8.0725 3.3635-1.8346-1.2231 6.7882-2.5685-11.191-8.0113-9.9683 3.8528 22.383 15.35 13.454-4.709-8.0113-5.932 2.2627-0.73386 7.7056 5.9932 8.4394-2.9354-5.6874-4.5255 1.7123-0.79502z" fill="url(#az)" fill-rule="evenodd"/>
 <path d="m60.677 95.438 27.188-9.625v6.0625l-27.125 9.5-0.0625-5.9375z" fill="url(#ay)" fill-rule="evenodd"/>
 <path d="m54.552 86.312 8.5-3.5-0.0625 5.9375-5.5625 2.3125s-2.9375-1.5-2.9375-1.875 0.0625-2.9375 0.0625-2.875z" fill="url(#ax)" fill-rule="evenodd"/>
 <path d="m54.677 86.25-1.9375-1.125-0.0625 3 1.9375 1.1875 0.0625-3.0625z" fill="url(#aw)" fill-rule="evenodd"/>
 <path d="m48.302 74.438v6.0625l5.875 4.125 5.4375-2.125-11.312-8.0625z" fill="url(#av)" fill-rule="evenodd"/>
 <path d="m38.364 78.25 10.062-3.625-0.0625 5.9375-4.1875 1.625-5.8125-3.9375z" fill="url(#au)" fill-rule="evenodd"/>
 <path d="m50.55174,73.6875 18.4375-6.8125 .0625,5.9375-1.875.75-.4375-.25-2.0625.75-.1875.5625-8.625,3.125-5.3125-4.0625z" fill="url(#at)" fill-rule="evenodd"/>
 <path d="m68.864 66.625 10.438 6.5-0.0625 3.1875-3.1875 1.25-7.0625-4.8125-0.125-6.125z" fill="url(#as)" fill-rule="evenodd"/>
 <path d="m79.11424,73.125 2-1 .125,3.5-2.125.8125v-3.3125z" fill="url(#ar)" fill-rule="evenodd"/>
 <path d="m64.73924,74 8.8125,6.5625 .0625,5.625-5.25-4.0625-.125.375c0,0-3.75-2.25-3.625-2.625s.125-5.75.125-5.875z" fill="url(#aq)" fill-rule="evenodd"/>
 <path d="m74.427 88.938c-0.625-0.375-8.3125-5.875-8.3125-5.875l-0.0625 5.875 2.75 2 5.625-2z" fill="url(#ap)" fill-rule="evenodd"/>
 <path d="m73.48924,80.3125 18.625-7.5625v5.125l-4.1875,1.5625-.0625,1.0625-4.5625,1.75-2.625-2.3125-1.6875.9375-.125,3.1875-5.3125,2.0625-.0625-5.8125z" fill="url(#ao)" fill-rule="evenodd"/>
 <path d="m78.864 80.938 6 4.5-5.375 1.8125-0.625-0.5625v-5.75z" fill="url(#an)" fill-rule="evenodd"/>
 <path d="m71.114 66.062 4.125-1.5625v4l-4.125-2.4375z" fill="url(#am)" fill-rule="evenodd"/>
 <path d="m75.114 64.5 13.812 8.125-6.3125 2.3125-1.4375-0.875v-1.875l-6.0625-3.75v-3.9375z" fill="url(#al)" fill-rule="evenodd"/>
 <path d="m87.927 79.5 1.875 1.4375-0.125 5.9375-1.875-1.3125 0.125-6.0625z" fill="url(#ak)" fill-rule="evenodd"/>
 <path d="m89.677 80.812 4.5625-1.6875 0.125 6-4.75 1.625 0.0625-5.9375z" fill="url(#aj)" fill-rule="evenodd"/>
 <path d="m94.177 79.125 4.625 3.3125-0.125 5.8125-4.4375-3.1875-0.0625-5.9375z" fill="url(#ai)" fill-rule="evenodd"/>
 <path d="m98.614 82.25 25.938-9 0.0625 5.9375-26 9.0625v-6z" fill="url(#ah)" fill-rule="evenodd"/>
 <path d="m85.489 68.688 7.5625-2.875 0.125 6-1.625 0.625-6.0625-3.75z" fill="url(#ag)" fill-rule="evenodd"/>
 <path d="m89.92674,59.75c.1875.625 17.5625,12.4375 17.5625,12.4375l-5.8125,2.0625-8.5625-6.1875 .0625-2.3125-1.8125-1.0625-1.375.5625-.0625-5.5z" fill="url(#af)" fill-rule="evenodd"/>
 <path d="m97.177 78.125 14.812-5.375 0.125 3.25-12.562 4.1875-2.375-2.0625z" fill="url(#ae)" fill-rule="evenodd"/>
 <path d="m91.989 53.188 0.1875 5.5625 19.688 13.938 3.125 2.1875 5.8125-2-28.812-19.688z" fill="url(#ad)" fill-rule="evenodd"/>
 <path d="m75.67674,59.375 16.4375-6.1875 .0625,5.5-2.0625,1-.125.3125-11.625,4.375-2.5625-1.5625-.125-3.4375z" fill="url(#ac)" fill-rule="evenodd"/>
 <path d="m73.55174,58 2.3125,1.4375-.0625,3.4375-2.5625.8125 .3125-5.6875z" fill="url(#ab)" fill-rule="evenodd"/>
 <path d="m69.802 38 0.0625 4.1875 1.1875-0.625 10.312 7.25 0.0625 3.125 3 2.0625 5.625-2.1875-20.25-13.812z" fill="url(#aa)" fill-rule="evenodd"/>
 <path d="m66.67674,53.9375 14.375-5.25 .3125.375-.0625,5.5-13.875,5.0625-.6875-.375-.0625-5.3125z" fill="url(#z)" fill-rule="evenodd"/>
 <path d="m55.114 43.312 14.812-5.4375v4.25l-7.5625 2.8125-0.125 1.8125-1.5 0.5-5.625-3.9375z" fill="url(#y)" fill-rule="evenodd"/>
 <path d="m62.239 45.062 1.6875 1.5625-0.0625 2.75-1.625-1.1875v-3.125z" fill="url(#x)" fill-rule="evenodd"/>
 <path d="m63.864 46.562 6.75-2.8125-0.0625 6.0625-3.9375 1.5-2.8125-2.125 0.0625-2.625z" fill="url(#w)" fill-rule="evenodd"/>
 <path d="m70.614 43.938 7 4.1875-6.125 2.25-0.875-0.625v-5.8125z" fill="url(#v)" fill-rule="evenodd"/>
 <path d="m63.36424,51.5-.0625,5.8125 2.3125,1.75 1.0625.125 .125-5.375-3.4375-2.3125z" fill="url(#u)" fill-rule="evenodd"/>
 <path d="m52.552 55.562 10.75-4.125v6l-5.5 2.0625-0.625-0.625-4.625 1.6875v-5z" fill="url(#t)" fill-rule="evenodd"/>
 <path d="m55.989 52.188-2.875-2-0.0625-5.9375 8.5625 5.8125-5.625 2.125z" fill="url(#s)" fill-rule="evenodd"/>
 <path d="m34.614 50.562 18.5-6.375v6.1875l-2.3125 0.625-0.73928-0.53661-11.073 4.0991-4.375-4z" fill="url(#r)" fill-rule="evenodd"/>
 <path d="m50.67674,54.375 2,1.3125v4.875l-.875.3125-1.25-.5625 .125-5.9375z" fill="url(#q)" fill-rule="evenodd"/>
 <path d="m50.364 63.188 8.25-3v5.9375l-3.25 1.1875-5-4.125z" fill="url(#p)" fill-rule="evenodd"/>
 <path d="m48.80174,63.875c.5625.625 7.3125,6.3125 7.3125,6.3125l-4.9375,1.75-2.5-2.1875-.125-5.875h.25z" fill="url(#o)" fill-rule="evenodd"/>
 <path d="m39.739 67 9.0625-3.125-0.0625 6-9 3.25v-6.125z" fill="url(#n)" fill-rule="evenodd"/>
 <path d="m26.989 59 1.875 1.3125v2.8125l-2 0.625 0.125-4.75z" fill="url(#m)" fill-rule="evenodd"/>
 <path d="m28.80174,60.375 23.125-8.3125 .5.125 .0625,1.5-1.8125.6875-.0625,4.125-14.5625,5.25-.0625-1.1875-2.375-1.375-4.8125,1.8125v-2.625z" fill="url(#l)" fill-rule="evenodd"/>
 <path d="m37.614 66 2.375 1.1875-0.25 5.875-2.125-1.125v-5.9375z" fill="url(#k)" fill-rule="evenodd"/>
 <path d="m22.302 67.688c0.5625-0.25 13.688-5.3125 13.688-5.3125l0.125 6-8 3.125-5.8125-3.8125z" fill="url(#j)" fill-rule="evenodd"/>
 <path d="m8.9267 59.125 23.375-7.8125 0.0625 5.6875-5.375 1.9375v0.375l-11.812 3.75-6.25-3.9375z" fill="url(#i)" fill-rule="evenodd"/>
 <path d="m32.302 51.25 4.5625 4.1875-4.25 1.5-0.3125-0.25v-5.4375z" fill="url(#h)" fill-rule="evenodd"/>
 <path d="m5.6874 58.65-0.12231 5.8097 55.223 36.999 0.12231-6.0544-55.223-36.754z" fill-opacity=".15686" fill-rule="evenodd"/>
 <path d="m54.677 86.25-1.9375-1.125-0.0625 3 1.9375 1.1875 0.0625-3.0625z" fill-opacity=".15686" fill-rule="evenodd"/>
 <path d="m48.302 74.438v6.0625l5.875 4.125 5.4375-2.125-11.312-8.0625z" fill-opacity=".15686" fill-rule="evenodd"/>
 <path d="m68.864 66.625 10.438 6.5-0.0625 3.1875-3.1875 1.25-7.0625-4.8125-0.125-6.125z" fill-opacity=".15686" fill-rule="evenodd"/>
 <path d="m64.73924,74 8.8125,6.5625 .0625,5.625-5.25-4.0625-.125.375c0,0-3.75-2.25-3.625-2.625s.125-5.75.125-5.875z" fill-opacity=".15686" fill-rule="evenodd"/>
 <path d="m74.427 88.938c-0.625-0.375-8.3125-5.875-8.3125-5.875l-0.0625 5.875 2.75 2 5.625-2z" fill-opacity=".15686" fill-rule="evenodd"/>
 <path d="m78.864 80.938 6 4.5-5.375 1.8125-0.625-0.5625v-5.75z" fill-opacity=".15686" fill-rule="evenodd"/>
 <path d="m75.114 64.5 13.812 8.125-6.3125 2.3125-1.4375-0.875v-1.875l-6.0625-3.75v-3.9375z" fill-opacity=".15686" fill-rule="evenodd"/>
 <path d="m87.927 79.5 1.875 1.4375-0.125 5.9375-1.875-1.3125 0.125-6.0625z" fill-opacity=".15686" fill-rule="evenodd"/>
 <path d="m94.177 79.125 4.625 3.3125-0.125 5.8125-4.4375-3.1875-0.0625-5.9375z" fill-opacity=".15686" fill-rule="evenodd"/>
 <path d="m89.92674,59.75c.1875.625 17.5625,12.4375 17.5625,12.4375l-5.8125,2.0625-8.5625-6.1875 .0625-2.3125-1.8125-1.0625-1.375.5625-.0625-5.5z" fill-opacity=".15686" fill-rule="evenodd"/>
 <path d="m91.989 53.188 0.1875 5.5625 19.688 13.938 3.125 2.1875 5.8125-2-28.812-19.688z" fill-opacity=".15686" fill-rule="evenodd"/>
 <path d="m73.55174,58 2.3125,1.4375-.0625,3.4375-2.5625.8125 .3125-5.6875z" fill-opacity=".15686" fill-rule="evenodd"/>
 <path d="m69.802 38 0.0625 4.1875 1.1875-0.625 10.312 7.25 0.0625 3.125 3 2.0625 5.625-2.1875-20.25-13.812z" fill-opacity=".15686" fill-rule="evenodd"/>
 <path d="m62.239 45.062 1.6875 1.5625-0.0625 2.75-1.625-1.1875v-3.125z" fill-opacity=".15686" fill-rule="evenodd"/>
 <path d="m70.614 43.938 7 4.1875-6.125 2.25-0.875-0.625v-5.8125z" fill-opacity=".15686" fill-rule="evenodd"/>
 <path d="m63.36424,51.5-.0625,5.8125 2.3125,1.75 1.0625.125 .125-5.375-3.4375-2.3125z" fill-opacity=".15686" fill-rule="evenodd"/>
 <path d="m55.989 52.188-2.875-2-0.0625-5.9375 8.5625 5.8125-5.625 2.125z" fill-opacity=".15686" fill-rule="evenodd"/>
 <path d="m50.67674,54.375 2,1.3125v4.875l-.875.3125-1.25-.5625 .125-5.9375z" fill-opacity=".15686" fill-rule="evenodd"/>
 <path d="m48.80174,63.875c.5625.625 7.3125,6.3125 7.3125,6.3125l-4.9375,1.75-2.5-2.1875-.125-5.875h.25z" fill-opacity=".15686" fill-rule="evenodd"/>
 <path d="m26.989 59 1.875 1.3125v2.8125l-2 0.625 0.125-4.75z" fill-opacity=".15686" fill-rule="evenodd"/>
 <path d="m37.614 66 2.375 1.1875-0.25 5.875-2.125-1.125v-5.9375z" fill-opacity=".15686" fill-rule="evenodd"/>
 <path d="m32.302 51.25 4.5625 4.1875-4.25 1.5-0.3125-0.25v-5.4375z" fill-opacity=".15686" fill-rule="evenodd"/>
 <path d="m60.394 60.582 0.70711 0.79549 1.149 0.44194 1.4363 0.11048 1.3258-0.11048 1.2595-0.13258 1.1712-0.57452 0.64082-0.68501 0.13258 3.6239s-2.8726 0.90598-2.961 0.88388-1.591 0.08839-1.591 0.08839l-1.3258-0.15468-2.0108-1.0607 0.06629-3.2262z" fill="url(#f)" fill-rule="evenodd"/>
 <path d="m60.43864,60.29453 .37565-.70711 .99437-.55243 1.96664-.15468 1.28163.04419c0,0 1.98874.33146 2.12132.48614s.7734.7734.7734.7734l-.13258.44194-.59662.59662c0,0-.99437.50823-1.08276.48614s-2.276.19887-2.276.19887l-1.87825-.17678-1.14905-.53033-.39775-.90598z" fill="url(#e)" fill-rule="evenodd"/>
 <path d="m61.63188,60.31662 .35355-.41985 .66291-.30936 2.20971-.0221 1.14905.35355 .37565.37565c0,0 .06629.37565-.15468.44194l-1.48051.46404-.90598-.04419h-.70711l-1.19324-.41985-.30936-.41984z" fill="url(#d)" fill-rule="evenodd"/>
 <path d="m60.394 60.582 0.70711 0.79549 1.149 0.44194 1.4363 0.11048 1.3258-0.11048 1.2595-0.13258 1.1712-0.57452 0.64082-0.68501 0.13258 3.6239s-2.8726 0.90598-2.961 0.88388-1.591 0.08839-1.591 0.08839l-1.3258-0.15468-2.0108-1.0607 0.06629-3.2262z" fill-opacity=".15686" fill-rule="evenodd"/>
 <path d="m61.63188,60.31662 .35355-.41985 .66291-.30936 2.20971-.0221 1.14905.35355 .37565.37565c0,0 .06629.37565-.15468.44194l-1.48051.46404-.90598-.04419h-.70711l-1.19324-.41985-.30936-.41984z" fill-opacity=".15686" fill-rule="evenodd"/>
 <path d="m70.314 36.53-64.826 22.194v3.213l-4.0656 1.8312-0.03996 0.78682 59.441 40.222 31.208-11.662v-0.68426l-0.08925-0.02975 0.08925-0.02975-3.9568-2.261v-4.1948l1.5173 1.1305 4.7303-1.7255 2.0528 1.547-2.4395 1.2198 0.119 0.08925-0.02975 0.62475 3.57 2.618 30.137-11.067-0.00311-0.57857-2.9422-2.218v-4.2245l-54.473-36.801zm-0.08925 0.476 53.759 36.117-25.377 8.8656-4.2245-3.213-4.641 1.7255-1.5173-1.071 19.576-7.259-17.404-12.406 1.8743-0.86276 19.189 13.745-14.756 5.3848 2.7965 2.3503 21.777-7.4673-29.155-19.992-16.214 6.2773-1.904-1.1008 16.511-6.2178-20.587-14.161-15.262 5.5633 12.465 8.7168 10.948-3.8378-7.4376-4.6708-6.6045 2.8858-1.428-1.309 8.211-3.1238 10.026 6.6938-13.923 4.9683-3.6295-2.4693-10.71 4.2543-1.3983-1.0413 10.71-4.3435-8.6871-6.1285-19.01 6.6938 4.7303 4.1948 11.097-4.1353 1.8445 1.2793-22.848 8.2408-1.7255-1.1603 9.8473-3.6295-4.7005-4.2245-23.86 7.973 11.692 7.378 13.298-4.998 1.666 1.0115-13.179 5.2063 14.786 9.7283 19.516-7.2293-7.4078-6.5748-9.1928 3.332-1.785-0.98176 19.1-6.8723 1.1305 0.95201-8.1813 3.1535 7.7053 6.5153 17.88-6.7533 8.3301 4.9088 7.4376-2.9453 1.2495 0.77351-7.4078 2.9453 6.2178 3.9568-18.088 7.4078-8.1516-5.9203 1.5173-0.56525 6.664 5.2658 15.738-6.188-13.834-8.3598-4.4625 1.7553 10.115 5.95-1.785 0.89251-10.085-6.2773-18.891 7.14 12.138 9.1333-7.5863 3.1535-1.4875-0.89251 6.7533-2.499-11.484-8.3301-10.502 3.9865 22.759 15.589 14.042-4.8195-8.2706-5.9203 1.8445-0.68425 7.7946 6.069 8.9251-3.1535-5.7418-4.4923 1.3388-0.476 6.4558 5.355-26.388 9.5201-54.264-36.622 63.725-21.628zm-0.50575 1.2198v3.6593l-7.6756 3.0643v1.6363l-1.2793 0.44625-5.3848-3.6593 14.34-5.1468zm0.4165 0.08925 19.605 13.477-5.236 1.9338-2.9453-2.023v-2.8858l-10.591-7.4376-0.83301 0.32725v-3.3915zm0.20825 5.8905v5.3848l-3.7783 1.428-2.4693-1.7255v-2.618l6.2475-2.4693zm0.4165 0.02975 6.307 3.7783-5.5335 2.023-0.77351-0.476v-5.3253zm-17.88 0.26775v5.474l-2.2015 0.77351-0.5355-0.38675-10.918 4.046-4.3733-3.7783 18.029-6.1285zm0.4165 0.119 7.6756 5.3848-4.7898 1.9635-2.8858-2.0528v-5.2955zm9.1631 0.83301 1.2198 1.1305v2.4395l-1.2198-0.83301v-2.737zm-0.4165 1.5173v0.92226l-0.89251-0.595 0.89251-0.32725zm19.1 1.9933v5.4443l-13.774 4.998c-0.12497-0.07079-0.24834-0.15587-0.38675-0.20825v-5.2063l14.161-5.0278zm-10.591 1.1305 0.2975 0.1785-3.451 1.2793-0.357-0.20825 3.5105-1.2495zm-17.523 0.32725 2.5585 1.785-3.094 1.2793-0.08925-1.428-1.2793-0.98176 1.904-0.6545zm-20.885 1.1008v5.3253l-5.3848 2.0825 0.02975 0.119-11.632 3.8973-5.8013-3.6593 22.789-7.7648zm0.4165 0.02975 3.9568 3.5998-3.9568 1.5173v-5.117zm30.524 0.0595v5.593l-5.2063 2.0528-0.56525-0.50575-4.522 1.6065v-4.8493l10.294-3.8973zm0.4165 0.20825 3.0643 2.142v5.0575l-0.02975 0.0595c-0.18879-0.04726-0.36487-0.08995-0.56525-0.119l-2.4693-1.6958v-5.4443zm18.058 0.32725 2.5288 1.7553-2.5288 0.92226v-2.6775zm-29.482 0.02975v1.4875l-1.6363 0.6545v4.1055l-14.191 5.117v-1.0413l-2.7073-1.4578-6.3963 2.4395v-4.2543l1.666 1.2793 23.265-8.3301zm39.836 1.19v5.3253l-2.3205 1.0115 0.20825 0.14875-11.513 4.403-2.261-1.3388v-3.451l15.887-6.0988zm0.4165 0.20825 27.965 19.189-5.3253 1.8148-22.61-16.095-0.02975-4.9088zm-41.442 1.0413 1.4875 1.1008v4.7898l-0.6545 0.238-0.83301-0.4165v-5.712zm30.405 0.08925-0.02975 0.20825-8.0326 3.0643-0.08925 5.6525-15.202 5.6228-2.2908-1.904 3.1833-1.19v-5.95l-0.71401-0.74376 5.0278-1.904 1.8743 1.309-0.74375-0.0595c-1.7548-0.0165-3.246-0.26975-4.046 1.5173 0.00165 0.00991-0.00175 0.01996 0 0.02975l0.02975 3.57c2.7968 2.0307 5.0708 1.2537 8.0623 0.1785l-0.119-3.689 0.0595-0.08925c-0.13755-0.2976-0.34149-0.49769-0.56525-0.68425l13.596-4.9385zm-7.735 3.451 2.0528 1.3388v3.213l-2.0528 0.77351v-5.3253zm-23.116 0.595v1.785l0.86276 0.357-13.923 4.9683 0.02975 6.0988 2.142 1.3388 8.9251-3.0643 0.357-0.08925 1.9635 1.785-13.864 5.117-8.5681-5.5335 7.9136-3.094-0.02975-4.5815 14.191-5.0873zm-44.536 0.238 54.681 36.622v5.5038l-54.681-36.742v-5.3848zm58.34 0c0.63706-0.02766 1.2015 0.03646 1.7255 0.1785l0.238 0.0595c0.6401 0.21118 1.1864 0.56218 1.666 1.1008-0.69742 1.2505-2.2786 1.2761-3.6295 1.3685-1.5564 0.06419-3.2037 0.00103-3.6295-1.3685 0.56752-1.4271 2.2888-1.252 3.6295-1.3388zm-37.515 0.357v4.284l-6.5153 2.499-4.6708-2.9453 11.186-3.8378zm36.414 0.08925c-0.83753 0.06929-1.47 0.40868-1.666 0.95201 0.57042 0.8897 1.5332 0.84267 2.5585 0.92226 1.2152 0.16121 2.2153-0.29957 2.5585-0.92226-0.55246-0.87959-1.5503-0.84317-2.5585-0.92226-0.3136-0.03469-0.61333-0.05285-0.8925-0.02975zm1.2198 0.20825c0.10954-0.00359 0.21683-0.00699 0.32725 0 0.66251 0.04197 1.3092 0.34101 1.6363 0.74376-0.52335 0.76042-1.5432 0.62725-2.2908 0.68425-0.88468 0.17167-2.0788-0.15655-2.142-0.68425 0.07436-0.96249 1.3857-0.65009 2.142-0.71401 0.10593-0.02239 0.21771-0.02616 0.32725-0.02975zm25.764 0.44625 16.601 11.989-4.8493 1.8445-8.5086-6.0393 0.02975-2.023-2.023-1.2495-1.2495 0.476v-4.998zm-0.4165 0.119v5.0575l-5.831 2.261-5.236-3.094 11.067-4.2245zm-31.327 0.1785v5.593l-2.975 1.1305-4.7303-3.8973 7.7053-2.8263zm9.5498 0.4165 0.08925 3.094c-2.3302 1.0812-5.5011 1.6447-7.497-0.20825v-2.5883c0.70522 1.0433 2.4004 0.87448 3.7188 0.95201 1.5328 0.02159 2.9081-0.32231 3.689-1.2495zm-62.446 1.3388v2.38l55.187 37.128 27.4-9.6986v-1.309l2.975 1.7553-30.286 11.246-58.876-39.717 3.5998-1.785zm30.345 0.5355v5.5038l-7.7946 3.1535-5.474-3.5403 13.269-5.117zm-34.213 1.3388 59.084 39.955-0.02975 0.41651-59.084-39.895 0.02975-0.476zm46.857 0.20825v5.5633l-8.5086 3.0643v-5.712l8.5086-2.9155zm0.4165 0.02975 6.6938 5.8905-4.2543 1.5768-2.38-2.1123-0.0595-5.355zm26.537 0.50575 12.822 7.7053-5.6525 2.261-1.1603-0.68425v-1.904l-6.0095-3.6593v-3.7188zm-0.4165 0.0595v3.4213l-3.5403-2.1123 3.5403-1.309zm17.939 1.19v5.5335l-1.4578 0.62475-5.6823-3.3618 7.14-2.7965zm-55.127 0.119 1.7255 0.98176v5.712l-1.7255-1.0115v-5.6823zm31 1.0115v5.5038l-1.8743 0.68425-0.20825-0.14875-2.2313 0.80325-0.08925 0.2975-8.5086 3.2428-5.0873-3.6593 17.999-6.7236zm0.4165 0.02975 9.6688 5.95v3.0643l-2.737 1.1008-6.9318-4.6113v-5.5038zm24.127 1.2495 7.9136 5.712-8.9548 3.4213v-4.8195l-0.4165-0.32725 1.4578-0.56525v-3.4213zm-12.346 3.927v3.0048l-1.666 0.65451v-2.7965l1.666-0.86276zm10.889 0.50575v4.8493l-4.1948 1.6363-0.0595 0.89251-4.3435 1.6958-2.6775-2.142-1.9635 1.0115 0.02975 0.02975v2.975l-4.9683 2.0528v-5.5038l18.177-7.497zm19.903 0.08925v2.737l-12.317 4.2543-1.9933-1.7553 14.31-5.236zm-42.781 0.08925 6.664 4.4923-2.2313 0.83301-6.0988-4.7005 1.666-0.62475zm43.197 0.1785 2.261 1.547-2.261 0.77351v-2.3205zm12.138 0.26775 0.08925 5.5633-25.585 8.8358v-5.5633l25.496-8.8358zm-59.53 0.74375 8.4788 6.307v5.2658l-4.9088-3.7188-0.32725 0.119-3.2428-2.3503v-5.6228zm16.601 0.119 0.83301 0.50575-0.83301 0.32725v-0.83301zm-17.017 0.4165 0.02975 5.1765 3.2725 2.4098-1.7553 0.6545-0.08925 5.95 2.4693 1.8743-7.4673 2.5883-3.2725-2.2313 5.5633-2.2908v-5.95l-6.8723-5.117 8.1218-3.0643zm-15.916 0.02975 10.68 7.6756-4.9683 1.9635-5.712-4.165v-5.474zm-0.4165 0.119v5.5038l-4.046 1.547-5.2658-3.57 9.3118-3.4808zm76.696 3.0345 2.2015 1.785-29.453 10.621-3.0048-2.2015 2.1718-1.0413 1.9338 1.4578 26.15-9.2821v-1.3388zm-30.732 1.4875v5.4443l-4.1948 1.5768v-5.5038l4.1948-1.5173zm0.4165 0.02975 3.9865 3.0048v5.3848l-3.9865-3.0345v-5.355zm32.874 0.4165 0.08925 0.26775-29.839 10.859-3.3023-2.261-0.02975-0.4165 3.2725 2.3205 29.81-10.77zm-39.27 0.02975 1.3685 1.19v5.1765l-1.3685-0.86276v-5.5038zm-39.627 0.83301 5.355 3.8378-1.19 0.476-0.0595 2.6775-8.1218-5.5038 4.0163-1.4875zm39.211 0.02975v4.7898l-3.9865-3.3023 3.9865-1.4875zm-8.5383 0.38675 5.1765 4.1055-4.8195 1.666-0.357-0.38675v-5.3848zm-16.363 1.904 0.02975 5.5335-5.5335 2.3503-2.499-1.6958v-2.856l8.0028-3.332zm3.5403 0.20825 7.497 5.6525-5.0278 1.7553-2.4395-1.8743-0.02975-5.5335zm12.406 1.0115v2.4693l0.357 0.32725-2.7965 0.98176-2.3503-1.785 4.7898-1.9933zm-25.734 1.0115 1.3685 0.98176v2.6775l-1.3685-0.92226v-2.737zm34.689 0.77351v5.474l-26.656 9.6093v-5.593l26.656-9.4903zm4.046 6.426v0.5355l-30.702 11.275v-0.32726l30.702-11.484z" fill-rule="evenodd"/>
</svg>
