<?xml version="1.0" encoding="UTF-8"?>
<svg viewBox="0 0 128 128" xmlns="http://www.w3.org/2000/svg" xmlns:xlink="http://www.w3.org/1999/xlink">
 <defs>
  <filter id="ac">
   <feGaussianBlur stdDeviation=".95225"/>
  </filter>
  <linearGradient id="c">
   <stop stop-color="#c2a05c" offset="0"/>
   <stop stop-color="#d6be91" offset="1"/>
  </linearGradient>
  <linearGradient id="a">
   <stop stop-color="#6a3c1d" offset="0"/>
   <stop stop-color="#8f5127" offset="1"/>
  </linearGradient>
  <linearGradient id="d">
   <stop stop-color="#b1b1b1" offset="0"/>
   <stop stop-color="#e4e4e4" offset="1"/>
  </linearGradient>
  <linearGradient id="b">
   <stop stop-color="#4a585b" offset="0"/>
   <stop stop-color="#5e7074" offset="1"/>
  </linearGradient>
  <linearGradient id="ab" x1="20.26" x2="31.832" y1="91.881" y2="74.827" gradientUnits="userSpaceOnUse" xlink:href="#d"/>
  <linearGradient id="aa" x1="59.85" x2="123.8" y1="118.92" y2="73.609" gradientUnits="userSpaceOnUse" xlink:href="#d"/>
  <linearGradient id="z" x1="86.528" x2="100.78" y1="107.47" y2="89.689" gradientUnits="userSpaceOnUse" xlink:href="#a"/>
  <linearGradient id="w" x1="11.72" x2="22.061" y1="107.1" y2="86.678" gradientUnits="userSpaceOnUse" xlink:href="#a"/>
  <linearGradient id="v" x1="30.281" x2="24.536" y1="98.832" y2="113.33" gradientUnits="userSpaceOnUse" xlink:href="#a"/>
  <linearGradient id="u" x1="27.286" x2="35.653" y1="101.7" y2="97.478" gradientUnits="userSpaceOnUse" xlink:href="#a"/>
  <linearGradient id="t" x1="49.618" x2="36.035" y1="95.566" y2="100.74" gradientUnits="userSpaceOnUse" xlink:href="#a"/>
  <linearGradient id="s" x1="39.157" x2="47.242" y1="79.457" y2="68.776" gradientUnits="userSpaceOnUse" xlink:href="#a"/>
  <linearGradient id="r" x1="40.503" x2="41.441" y1="80.281" y2="74.094" gradientUnits="userSpaceOnUse" xlink:href="#a"/>
  <linearGradient id="q" x1="18.691" x2="29.816" y1="63.812" y2="62.938" gradientUnits="userSpaceOnUse" xlink:href="#a"/>
  <linearGradient id="p" x1="28.003" x2="41.566" y1="67.469" y2="70.531" gradientUnits="userSpaceOnUse" xlink:href="#a"/>
  <linearGradient id="o" x1="28.441" x2="35.597" y1="68.312" y2="50.938" gradientUnits="userSpaceOnUse" xlink:href="#a"/>
  <linearGradient id="n" x1="8.3782" x2="11.034" gradientUnits="userSpaceOnUse" xlink:href="#a"/>
  <linearGradient id="m" x1="80.441" x2="83.691" y1="81.062" y2="67.25" gradientUnits="userSpaceOnUse" xlink:href="#a"/>
  <linearGradient id="l" x1="90.066" x2="91.628" y1="82.812" y2="57.812" gradientUnits="userSpaceOnUse" xlink:href="#a"/>
  <linearGradient id="k" x1="87.316" x2="90.128" y1="69.75" y2="44.812" gradientUnits="userSpaceOnUse" xlink:href="#a"/>
  <linearGradient id="j" x1="122.07" x2="125.75" y1="51.031" y2="49.656" gradientUnits="userSpaceOnUse" xlink:href="#a"/>
  <linearGradient id="i" x2="0" y1="79.125" y2="65.812" gradientUnits="userSpaceOnUse" xlink:href="#a"/>
  <linearGradient id="h" x1="46.766" x2="45.528" y1="94.611" y2="91.208" gradientUnits="userSpaceOnUse" xlink:href="#a"/>
  <linearGradient id="g" x1="68.288" x2="69.658" y1="93.462" y2="91.739" gradientUnits="userSpaceOnUse" xlink:href="#a"/>
  <linearGradient id="f" x1="41.551" x2="52.202" y1="103.91" y2="94.147" gradientUnits="userSpaceOnUse" xlink:href="#c"/>
  <linearGradient id="e" x1="65.504" x2="78.188" gradientUnits="userSpaceOnUse" xlink:href="#c"/>
  <linearGradient id="y" x1="92.068" x2="80.153" y1="43.622" y2="12.833" gradientUnits="userSpaceOnUse" xlink:href="#b"/>
  <linearGradient id="x" x1="42.875" x2="59.957" y1="20.268" y2="55.727" gradientUnits="userSpaceOnUse" xlink:href="#b"/>
 </defs>
 <path d="m34.627 116.46-4.6514-2.0673-10.164-1.2059-17.917-8.9583 10.853-13.265-11.37-5.1682 12.231-12.059 68.393 15.849-2.9287 20.328-20.501 10.164-7.2355-1.7228-4.3069-1.895h-12.404z" fill-opacity=".63014" fill-rule="evenodd" filter="url(#ac)"/>
 <path d="m13.438 60.514-1.7054 0.97453-3.0454 24.12 49.945 34.23 1.5836-23.754 0.60908-2.3145-47.387-33.256z" fill="url(#ab)" fill-rule="evenodd"/>
 <path d="m58.51 119.96 1.34-23.632 0.60908-2.3145 60.543-22.292v-1.0964l3.0454 1.34 2.5581 24.363-21.805 7.5526 0.12181-0.97453-19.978 7.1872-0.60908 0.85272-25.825 9.0144z" fill="url(#aa)" fill-rule="evenodd"/>
 <path d="m84.335 110.09v-2.8018l0.48727-6.0908 2.8018-6.0908 5.4817-6.6999 3.8981-2.3145c2.0907 0.06632 3.0666 0.96883 4.2636 1.7054l2.1927 2.9236 1.34 5.2381-0.12182 6.9435-20.343 7.1872z" fill="url(#z)" fill-rule="evenodd"/>
 <path d="m15.383 64.491-3.7384-2.561-2.957 23.678 49.945 34.23 1.5836-23.754-8.6717-5.7617-36.161-25.831z" fill-opacity=".15686" fill-rule="evenodd"/>
 <path d="m97.81 85.839 3.8891 0.17678 3.3588 3.3588 1.591 5.4801 0.35356 7.955-2.2097 0.97227 0.17677-4.1542-0.44194-4.8614-1.591-5.3917-1.6794-1.6794-3.4472-1.8562z" fill-opacity=".15686" fill-rule="evenodd"/>
 <path d="m17.376 83.452-2.9168-0.53033-3.5355 1.3258-3.4472 3.182-2.3865 4.1542-1.2374 4.1542-0.08839 3.0936 1.2374 3.8007 2.2097 1.9446 0.44194 1.5026 0.88388 0.61872 0.97227-0.26517 5.1265 3.9775 1.0607 1.149 1.3258 0.08839 5.3917 2.6516-1.149-1.591-1.0607-5.0381 1.5026-5.922 1.591-3.0936 2.3865-2.8284 3.2704-1.7678-1.5026-6.2756-2.2981-1.5026-4.0659-1.591-0.70711-0.08839-0.35355-0.61872-1.591-0.61872-0.53033 0.53033-0.53033-0.44194z" fill="url(#w)" fill-rule="evenodd"/>
 <path d="m28.955 94.059-2.2981 1.149-1.6794 1.5026-2.6516 3.7123-1.5026 4.1542-0.35355 2.2981 0.08839 3.0936 1.591 4.0659 2.2981 1.4142 1.8562 0.17678 2.3865-0.70711 1.9445-1.0607 2.6516-2.74-4.331-17.059z" fill="url(#v)" fill-rule="evenodd"/>
 <path d="m27.806 89.639-4.0659 2.5633-3.0936 4.0659-2.0329 3.2704-1.3258 3.9775-0.61872 6.2756 0.26516 1.7678h-1.591l-0.61872-1.5026-0.26517-5.1265 0.7955-4.8614 1.5026-3.3588 3.8891-4.331 4.8614-3.8007 1.7678-1.0607 0.53033 2.1213z" fill="#1a1a1a" fill-rule="evenodd"/>
 <path d="m20.293 84.513-2.5633 1.6794-3.0052 2.3865-2.5633 3.3588-1.8562 3.6239-0.44194 3.3588-0.53033 2.8284 0.26516 4.5962-1.0607 0.26517-0.97227-0.61872-0.26516-0.79549-0.26517-4.5962 0.44194-3.4471 1.2374-3.8891 2.6516-3.9775 3.8007-3.6239 3.5355-2.3865 1.2374 0.7955 0.35355 0.44194z" fill="#1a1a1a" fill-rule="evenodd"/>
 <path d="m17.376 83.452-2.9168-0.53033-3.5355 1.3258-3.4472 3.182-2.3865 4.1542-1.2374 4.1542-0.08839 3.0936 1.2374 3.8007 2.2097 1.9446 0.44194 1.5026 0.88388 0.61872 0.97227-0.26517 5.1265 3.9775 1.0607 1.149 1.3258 0.08839 5.3917 2.6516-1.149-1.591-1.0607-5.0381 1.5026-5.922 1.591-3.0936 2.3865-2.8284 3.2704-1.7678-1.5026-6.2756-2.2981-1.5026-4.0659-1.591-0.70711-0.08839-0.35355-0.61872-1.591-0.61872-0.53033 0.53033-0.53033-0.44194z" fill-opacity=".15686" fill-rule="evenodd"/>
 <path d="m34.253 116.44 10.438 4.6875 0.4375-0.4375-4.3125-14.062-5.375-18.312-2.9375-9.5-2.25-7.9375-11.625-7.4375 8.875-3.5625-0.5-0.6875-9.6875 3.9375-0.625 9.75 8.625 6.25 8.9375 37.312z" fill="url(#u)" fill-rule="evenodd"/>
 <path d="m44.989 120.75-14.74-49.823-4.6899-2.9845 2.1927-0.85272 0.18273 0.42636 8.4053 6.1517-0.12182 2.7409 5.9081 17.602 5.9081 18.272 6.2736 4.8118-9.319 3.6545z" fill="url(#t)" fill-rule="evenodd"/>
 <path d="m8.3782 46.562 0.125 7.875 11.125 7.75 7.5-2.875 1.5964-0.66777-17.834-12.191-1.1365 0.94983-1.3759-0.8406zm28.219 19-0.1875 10.844 5.7188 17.719 5.7812 18.156 6.5938 5.1875-4.9375-13.844-9.2188-27.156v-0.375l17.75 11.875-0.125-7.5938-1.0293-1.1882 0.05318-1.4272-19.337-12.936-1.0622 0.73926z" fill="url(#s)" fill-rule="evenodd"/>
 <path d="m34.497 116.44 9.3412 4.0175-3.875-13.525-5.4359-18.069-5.3702-17.803-12.024-7.5673-0.44227 9.3846 8.625 6.25 9.1811 37.312z" fill-opacity=".15686" fill-rule="evenodd"/>
 <path d="m13.8782,58.4375-.0625,2.875 3.1875,2.25 .3125-.3125 2.3125-1.0625-5.75-3.75zm26.6875,17.6875-.1875.375 1.6875,4.875 18.5,12.375-.125-6.6875-2.4375.875-17.4375-11.8125z" fill="url(#r)" fill-rule="evenodd"/>
 <path d="m13.8782,58.4375-.0625,2.875 3.1875,2.25 .3125-.3125 2.3125-1.0625-5.75-3.75zm26.6875,17.6875-.1875.375 1.6875,4.875 18.5,12.375-.125-6.6875-2.4375.875-17.4375-11.8125z" fill-opacity=".15686" fill-rule="evenodd"/>
 <path d="m18.6907,63.5c.625-.25 9-3.75 9-3.75l.20012-.49916 .92507-.43715 .53575,7.62811-1.53594.74571-2.125.6875-7-4.375z" fill="url(#q)" fill-rule="evenodd"/>
 <path d="m13.5657,46.3125-2.375.375 2.5,1.6875-.125-2.0625zm15.4375,14.875 .375,5.375-.5.1875-.875.75 8.375,6.25 .0625-6.625-7.4375-5.9375z" fill="url(#p)" fill-rule="evenodd"/>
 <path d="m13.5657,46.3125-2.375.375 2.5,1.6875-.125-2.0625zm15.4375,14.875 .375,5.375-.5.1875-.875.75 8.375,6.25 .0625-6.625-7.4375-5.9375z" fill-opacity=".15686" fill-rule="evenodd"/>
 <path d="m13.6282,36.625 .125,11.875 3.75,2.625 11.3125,7.5 .0625,2.4375 7.5,6.125 .125-1.8125 1.1875-.625 19.3125,13.125 .5625-12.25-43.9375-29z" fill="url(#o)" fill-rule="evenodd"/>
 <path d="m8.3782,46.375 .1875-13.125 2.75,1.75-.375,10.375 2.75-.4375v1.375l-2.4375.3125-.5625-.25-.8125.8125-1.5-.8125z" fill="url(#n)" fill-rule="evenodd"/>
 <path d="m8.3782,46.375 .1875-13.125 1.5625,1.0625-.25,12.875-1.5-.8125z" fill-opacity=".15686" fill-rule="evenodd"/>
 <path d="m41.503 67.062 0.125-9.6875 5.1875 3.25-0.125 10.125-5.1875-3.6875z" fill-opacity=".15686" fill-rule="evenodd"/>
 <path d="m23.628 44.062 0.0625 7.375 7.1875 4.875-0.1875-7.5-7.0625-4.75z" fill-opacity=".15686" fill-rule="evenodd"/>
 <path d="m24.659 45.969 0.03125 1.875 1.7812 1.25 0.09375-1.875-1.9062-1.25zm2.8438 1.8438 0.09375 2.125 2.0312 1.2188v-1.9062l-2.125-1.4375zm-2.7188 1.375-0.125 1.75 1.9688 1.4062-0.09375-2-1.75-1.1562zm2.8125 1.6562 0.03125 2.1562 2.0312 1.5625-0.03125-2.3438-2.0312-1.375z" fill="#d59163" fill-rule="evenodd"/>
 <path d="m48.4407,61 .0625,7.375 7.1875,4.875-.1875-7.5-7.0625-4.75z" fill-opacity=".15686" fill-rule="evenodd"/>
 <path d="m49.472 62.906 0.03125 1.875 1.7812 1.25 0.09375-1.875-1.9062-1.25zm2.8438 1.8438 0.09375 2.125 2.0312 1.2188v-1.9062l-2.125-1.4375zm-2.7188 1.375-0.125 1.75 1.9688 1.4062-0.09375-2-1.75-1.1562zm2.8125 1.6562 0.03125 2.1562 2.0312 1.5625-0.03125-2.3438-2.0312-1.375z" fill="#d59163" fill-rule="evenodd"/>
 <path d="m58.0657,87.75 .0625-7.5 2.375-.875 .0625-1.375 63.5-22.6875 1.25.6875 .0625,7.6875-67.3125,24.0625z" fill="url(#m)" fill-rule="evenodd"/>
 <path d="m60.378 93.938 0.0625-6.75 60.5-22v6.375l-60.562 22.375z" fill="url(#l)" fill-rule="evenodd"/>
 <path d="m60.441 77.938-0.125-13.375 30.312-19.562 30.188-1.8125v13.125l-21.938 8.125-38.438 13.5z" fill="url(#k)" fill-rule="evenodd"/>
 <path d="m121.0032,56.25 .1875-1.8125-.125-1.3125 1.625.5 .1875-10.5625 2.875.25-.5625,12.4375-1.4375-.5-2.75,1z" fill="url(#j)" fill-rule="evenodd"/>
 <path d="m121.0032,56.25 .1875-1.8125 2.625.6875v-12l1.9375.1875-.5625,12.4375-1.4375-.5-2.75,1z" fill-opacity=".15686" fill-rule="evenodd"/>
 <path d="m65.816 75.875 0.125-10.375 7.375-3.0625-0.1875 11.062-7.3125 2.375z" fill-opacity=".15686" fill-rule="evenodd"/>
 <path d="m98.753 64.375 0.125-10.375 7.375-3.0625-0.1875 11.062-7.3125 2.375z" fill-opacity=".15686" fill-rule="evenodd"/>
 <path d="m56.9407,78.9375c0-.25.3125-12.6875.3125-12.6875l3.125-1.5625 .0625,14.75-2.0625.875-1.4375-1.375z" fill="url(#i)" fill-rule="evenodd"/>
 <path d="m56.9407,78.9375c0-.25.3125-12.6875.3125-12.6875l1.625-.5625-.5,14.625-1.4375-1.375z" fill-opacity=".15686" fill-rule="evenodd"/>
 <path d="m75.378 60.562v7.875l9.75-3.625v-7.875l-9.75 3.625z" fill-opacity=".15686" fill-rule="evenodd"/>
 <path d="m83.566 58.75-2.9062 1.0938 0.0625 2.1875 2.875-1.2812-0.03125-2zm-4.1562 1.6875-2.5625 0.96875v2l2.5625-0.84375v-2.125zm4.2188 1.5-2.7812 1.0312v2.375l2.7188-1.0625 0.0625-2.3438zm-4.125 1.875-2.7188 0.9375v2.0625l2.7188-1.0312v-1.9688z" fill="#d59163" fill-rule="evenodd"/>
 <path d="m108.35 48.895v7.875l9.75-3.625v-7.875l-9.75 3.625z" fill-opacity=".15686" fill-rule="evenodd"/>
 <path d="m116.53 47.083-2.9062 1.0938 0.0625 2.1875 2.875-1.2812-0.03125-2zm-4.1562 1.6875-2.5625 0.96875v2l2.5625-0.84375v-2.125zm4.2188 1.5-2.7812 1.0312v2.375l2.7188-1.0625 0.0625-2.3438zm-4.125 1.875-2.7188 0.9375v2.0625l2.7188-1.0312v-1.9688z" fill="#d59163" fill-rule="evenodd"/>
 <path d="m89.789 47.346 0.83969-0.7955 1.3258-0.57452 1.4805 0.15468 1.0607 1.0165 0.30936 1.149 0.06629 0.95017-0.99437 1.8341 0.13258-2.6958-1.5026-1.6794-2.7179 0.64082z" fill-opacity=".15686" fill-rule="evenodd"/>
 <path d="m89.457 47.677 0.46404-0.41985 1.5689-0.53033 1.3479 0.0221 0.66291 0.41984 0.68501 1.0165-0.17678 1.8562-0.57452 1.9004-2.3865 1.0165-1.1932-0.17678s-1.3037-0.90598-1.3258-0.99437-0.33146-1.591-0.33146-1.591l0.30936-1.3258 0.95017-1.1932z" fill="#d59163" fill-rule="evenodd"/>
 <path d="m8.626 33.248 49.674 32.792 32.792-21.213-47.111-32.969-35.355 21.39z" fill="url(#x)" fill-rule="evenodd"/>
 <path d="m38.678 95.517 20.241-7.3804 0.61872 0.13258 0.44194 1.149-0.83969 1.37-12.816 4.6846-6.9385 2.5191-0.57453-0.70711-0.13258-1.7678z" fill="url(#h)" fill-rule="evenodd"/>
 <path d="m62.234 87.253 17.368 11.181 0.13258 1.1048-0.44194 1.0165-17.501-11.181-0.53033-1.2816 0.35355-0.7513 0.61872-0.08839z" fill="url(#g)" fill-rule="evenodd"/>
 <path d="m40.092 97.639 0.35355 8.7946 14.275-4.9939s-0.17678-8.7946-0.35355-8.7946-14.231 5.1707-14.275 4.9939z" fill="url(#f)" fill-rule="evenodd"/>
 <path d="m65.902 91.982-0.39775 7.734 12.374 8.3085 0.30936-8.0875-12.286-7.955z" fill="url(#e)" fill-rule="evenodd"/>
 <path d="m91.092 44.827 34.206-1.7678-48.525-33.853-32.792 2.6516 47.111 32.969z" fill="url(#y)" fill-rule="evenodd"/>
 <path d="m8.626 33.248 49.674 32.792 32.792-21.213-47.111-32.969-35.355 21.39z" fill-opacity=".15686" fill-rule="evenodd"/>
 <path d="m77.04543,9.06689-33.28125,2.71875-35.8125,21.34375 .3125.21875-.125,21.40625 5.375,3.625v2.15625l-2.125.875-3.125,24.15625 .46875.3125c-.14367.12637-.29867.24669-.4375.375-3.8414,4.2314-5.91876,10.18589-3.90625,15.71875 .56241,1.32849 1.65369,2.15988 2.78125,2.96875 .03262.23901.05697.48097.09375.71875 .63525.73211.13214,1.40446 2.0625,1.09375 1.69389,1.4359 3.45272,2.84758 5.5625,4.1875 .27138.52152.22508.90846 1.34375.8125 1.75545.99745 3.77821,1.94911 6.25,2.78125 3.48645,2.45486 7.21667.38442 10-2.1875 .20267-.21045.39867-.43312.59375-.65625l1.25,4.96875 10.25,4.5625 9.71875-3.875 4.25,2.9375 26.59375-9.34375v-.59375l19.21875-7.1875-.09375.96875 22.53125-7.8125-2.25-24.15625 .09375-.21875-3.21875-1.59375-.15625-4.90625 4.34375-1.5625v-8.6875l.25-11.875 .5625-.03125-49.375-34.21875zm-.4375.4375 47.46875,33.09375-33.03125,1.71875-45.84375-31.90625 31.40625-2.90625zm-2.8125,1.28125-.34375.09375c.23232.16263.68541.54856 1.0625.84375l-16.4375,1.8125c-.56918-.43226-1.14994-.84815-1.71875-1.28125l-.375.0625c.56489.42163 1.12275.85808 1.6875,1.28125l-5.75.625-.15625.28125 6.21875-.6875c2.70398,2.02741 5.38949,4.07589 8.09375,6.125-1.38023.26526-2.7483.52371-4.125.65625l.125.3125c1.48707-.14617 2.95307-.39284 4.40625-.6875 8.94092,6.77612 17.89689,13.62843 26.96875,20.125l.15625-.3125c-8.96838-6.59123-17.88976-13.20191-26.78125-19.875 2.69337-.56149 5.34081-1.28399 8.03125-1.90625l5.71875,4.25-6.90625,1.15625 .0625.375 7.21875-1.25 8.28125,6.15625-3.625.46875-.125.3125 4.0625-.53125 6.15625,4.59375 .03125-.3125-5.78125-4.34375 10.90625-1.40625-.1875-.21875-11.03125,1.40625-8.28125-6.1875 7-1.25c1.34948.98828 2.71408,1.96639 4.125,2.90625l-1.875.53125-.0625.15625 2.09375-.59375c.73959.49237 1.49292.98959 2.25,1.5l.1875-.09375c-.71148-.50785-1.43024-1.00701-2.15625-1.5l2.1875-.625v-.125l-2.3125.65625c-1.38932-.94219-2.79404-1.86312-4.15625-2.84375l1.25-.21875-.1875-.28125-1.40625.25c-1.26893-.9262-2.50452-1.90081-3.65625-2.96875l-.125.15625c1.14581,1.03929 2.30834,1.9583 3.5,2.84375l-7.03125,1.1875-5.71875-4.25c.9129-.20696 1.82585-.39443 2.75-.5625l.0625-.28125c-1.02747.18204-2.05917.3939-3.09375.625l-.5-.375-.375.125 .46875.34375c-2.68203.60935-5.39341,1.30718-8.09375,1.84375-2.69888-2.0264-5.40299-4.05123-8.09375-6.09375l16.46875-1.8125c1.01292.80509 2.12661,1.72753 3.3125,2.71875l-4.6875.90625-.09375.28125 5.0625-.96875c1.46679,1.22941 2.875,2.4375 2.875,2.4375l.3125-.15625c0,0-1.3745-1.16942-2.78125-2.34375l1.96875-.375-.09375-.28125-2.15625.40625c-1.16671-.97097-2.28069-1.83971-3.3125-2.65625l1.9375-.21875-.28125-.28125-2,.21875c-.39913-.31112-.87056-.69689-1.125-.875zm-29.4375,1.71875 45.6875,32.3125-31.875,20.75-46.78125-30.96875-2.25-1.5 34.875-20.5625 .34375-.03125zm-1.625,3.03125-5.0625,2.96875-.46875-.375-.1875.03125 .5.40625-21.3125,12.40625c-.10267-.07495-.20998-.14358-.3125-.21875l-.03125.125 .21875.15625-2.8125,1.65625 .125.4375 3.0625-1.8125c1.9558,1.41537 3.90886,2.82668 5.875,4.21875l-1.875,1.25 .21875.125 1.9375-1.1875c3.38308,2.39265 6.78235,4.73958 10.21875,7.0625l-.09375.0625 .21875.3125 .21875-.15625c.8735.58951 1.74687,1.19628 2.625,1.78125l.09375-.40625c-.80112-.54293-1.60187-1.0866-2.40625-1.625l8-5.9375c3.77783,2.74422 7.59057,5.44105 11.40625,8.125l-3.46875,2.28125-5.5625-3.9375-.375.1875 5.625,3.9375-5.09375,3.375 .40625.28125 5.03125-3.40625 7.15625,5c-1.66002,1.17594-3.31465,2.34045-4.96875,3.46875v.15625c1.6515-1.23248 3.36718-2.381 5.09375-3.53125l6.28125,4.375 .25-.1875-6.25-4.375c2.97854-1.98279 5.95993-3.98394 8.65625-6.3125 1.83675,1.48311 3.64827,2.95152 5.375,4.25l-5.65625,3.53125 .09375.34375 5.84375-3.6875c.17946.13359.35368.27701.53125.40625l.0625-.46875c-.07871-.054-.17124-.10138-.25-.15625l5.03125-3.1875c.84504.65504 1.70196,1.30649 2.59375,1.90625l.0625-.375c-.80252-.56009-1.54831-1.15892-2.3125-1.75l4-2.53125-.15625-.21875-4.09375,2.5625c-2.27378-1.77269-4.45298-3.63764-6.78125-5.40625l-.1875.28125c2.27358,1.71999 4.39181,3.59636 6.625,5.34375l-5.03125,3.15625c-1.805-1.27813-3.63212-2.74931-5.46875-4.25 .34392-.30262.69809-.5908 1.03125-.90625l-.21875-.21875-1.09375.90625c-2.10123-1.71548-4.20692-3.43378-6.375-4.84375l2.6875-1.8125-.15625-.09375-2.71875,1.8125c-.54714-.35123-1.10377-.69342-1.65625-1l-.15625.21875c.49736.29919.99593.6328 1.5.96875l-5.59375,3.6875c-3.93652-2.80956-7.78496-5.3777-11.53125-8.03125l2.65625-1.96875-.34375-.1875-2.625,1.9375c-2.07858-1.47767-4.12462-2.99803-6.125-4.59375l4.125-2.75v-.15625l-4.3125,2.75c-.91106-.73032-1.82608-1.44575-2.71875-2.21875l-.34375.09375c.94048.76437 1.88754,1.50498 2.84375,2.25l-5.96875,3.8125 .125.375 6.03125-4.03125c2.019,1.56903 4.08747,3.08737 6.15625,4.59375l-8.03125,5.9375c-3.45181-2.30753-6.91182-4.60061-10.34375-6.9375l5.125-3.1875-.375-.34375-5.03125,3.34375c-1.99522-1.36136-3.98299-2.73691-5.9375-4.15625l21.1875-12.46875 4.4375,3.53125-8.5625,5.09375 .3125.15625 8.5-5.0625 4.65625,3.75-3.53125,2.5625-2.46875-1.90625-.25.28125 2.40625,1.84375-4.21875,3.09375-.03125.28125 4.5-3.1875 6.875,5.25 .3125-.09375-6.875-5.34375 3.5625-2.53125 8.1875,6.5625-3.21875,2.3125-.03125.15625 3.375-2.34375 3.3125,2.65625 .3125-.21875-3.34375-2.625 4.875-3.375c1.31351,1.02102 2.61698,2.04176 3.90625,3.09375l-7.6875,5.75 .0625.1875 7.78125-5.78125c2.24884,1.83784 4.49179,3.69957 6.71875,5.5625l.1875-.34375c-2.22953-1.81704-4.39466-3.65023-6.59375-5.4375l.5625-.4375-.1875-.125-.5625.40625c-1.28147-1.03946-2.58216-2.05303-3.90625-3.0625l2.34375-1.625-.28125-.21875-2.3125,1.65625-1.125-.84375-.21875.1875 1.09375.84375-4.78125,3.4375-8.25-6.53125 2.28125-1.59375-.34375-.28125-2.25,1.625-4.65625-3.6875 6.71875-4-.3125-.15625-6.65625,3.96875-4.46875-3.53125 4.875-2.875-.0625-.28125zm-10.125,8.4375-7.96875,5 .09375.0625 8.03125-4.71875-.15625-.34375zm23.375.15625-4.375,3.09375 .15625.21875 4.3125-3.15625-.09375-.15625zm43.28125,7.15625-.21875.1875c2.19784,1.63792 4.30449,3.40732 6.4375,5.125-2.95257.21187-6.04736.64605-9.59375.84375l.84375.15625c3.45159.12173 6.34034-.28738 9.3125-.5625 1.59393,1.27498 3.1929,2.52783 4.875,3.6875l.09375-.28125c-1.55317-1.10224-3.04624-2.26315-4.53125-3.4375 1.97856-.17262 3.99779-.29534 6.28125-.125l-.09375-.09375c-2.25032-.37439-4.44185-.36317-6.71875-.21875-2.21813-1.7647-4.41297-3.5598-6.6875-5.28125zm-90.375,2.46875 .875.5625-.1875,12.53125-.96875-.65625 .28125-12.4375zm1.40625.9375 .75.5-.40625,10.71875-.65625.59375 .3125-11.8125zm1.0625.71875 2.0625,1.34375 .125,8.125-2.46875.28125 .28125-9.75zm2.625,1.75 43.125,28.65625-.375,11.75-9.75-6.65625v-10.375l-5.65625-3.5-.0625,9.96875-3.6875-2.5-1.1875.625-.125,1.65625-7.0625-5.59375-.125-2.5625-6.84375-4.59375v-10.40625l-5.65625-3.5-.0625,10 .5.28125 .09375-9.28125 4.625,3v9.5625l-5.21875-3.5625-2.3125-1.5625-.21875-11.40625zm45,4c2.11785,1.42683 4.27629,3.12672 6.40625,4.84375-2.722,2.24257-5.59651,4.37412-8.5,6.4375l-7.125-5 3.40625-2.3125 .84375.59375 .46875-.09375-1-.71875 5.5-3.75zm66.25,2.1875-.3125,12.09375-.71875-.40625 .125-11.625 .90625-.0625zm-1.5625.09375-.09375,10.90625-.71875-.625 .375-10.25 .4375-.03125zm-1,.0625-.1875,9.96875-1.28125-.4375-.03125.03125-.03125-9.46875 1.53125-.09375zm-2.09375.125 .0625,12.71875-14.3125,5.0625v-11.0625l-7.78125,3.34375-.09375,10.5-25,8.875v-11.09375l-7.78125,3.34375-.09375,10.53125-4.84375,1.71875 .09375-13.03125 30.15625-19.1875 29.59375-1.71875zm-97,.1875-.03125,7.6875 7.34375,5.0625-.0625-7.75-7.25-5zm.25.59375 6.75,4.5-.0625,6.9375-6.65625-4.53125-.03125-6.90625zm94.3125.6875-9.96875,3.75-.0625,8.3125 10.09375-3.8125-.0625-8.25zm-104.71875.21875-.03125.65625-2.21875.46875 .125-.78125 2.125-.34375zm104.34375.21875-.0625,7.5-9.15625,3.5-.0625-7.34375 9.28125-3.65625zm-93.15625.25-.03125,5.25 2,1.40625v.03125l.40625.3125 2.75,1.90625v-5.4375l-2.1875-1.5-.09375-.0625v.03125l-2.84375-1.9375zm67.875.0625c-1.85865,0-3.79729,1.63758-4.3125,3.65625s.57885,3.65625 2.4375,3.65625 3.79729-1.63758 4.3125-3.65625-.57885-3.65625-2.4375-3.65625zm-67.6875.3125 1.625,1.09375 .0625,1.75-1.65625-1.28125-.03125-1.5625zm67.5625.0625c1.4815,0 2.60564,1.64292 2.1875,3.28125-.08859.34713-.26386.67357-.46875,1 .84608-3.52301-.99515-4.75018-3.84375-3.40625 .68479-.5185 1.45343-.875 2.125-.875zm-81.625.40625 17.53125,12-.78125.34375-17.40625-11.78125 .65625-.5625zm2.71875,0 .03125,1.4375-1.78125-1.1875 1.75-.25zm78.59375.15625c1.61414.01 2.50133,1.37009 1.53125,4.40625-.79667.87611-1.90597,1.53125-2.84375,1.53125-1.4815,0-2.66814-1.58042-2.25-3.21875 .20254-.79357.76718-1.58248 1.46875-2.1875 .75609-.36159 1.48208-.53504 2.09375-.53125zm24.59375.15625-3.03125,1.15625-.125.03125v.03125l-3.90625,1.5-.0625,5.6875 2.75-1v.03125l.59375-.21875 3.75-1.375 .03125-5.84375zm-107.84375.125 17.90625,12.21875-6.875,2.6875-11.03125-7.5625v-7.34375zm107.46875.21875 .03125,1.75-2.53125,1.15625-.0625-1.875 2.5625-1.03125zm-89.59375.125 .78125.5 .09375,4.90625-.78125-.53125-.09375-4.875zm.9375.625 1.875,1.21875v1.6875l-1.84375-1.09375-.03125-1.8125zm-2.78125.03125 1.65625,1.1875 .03125,1-1.6875-1.21875v-.96875zm88.65625.3125 .125,5.15625-1.0625.375-.125-5.09375 1.0625-.4375zm-1.40625.5625 .0625,1.84375-2.28125.71875-.03125-1.65625 2.25-.90625zm-87.25.28125 1.6875,1.25 .0625,1.65625-1.75-1.25v-1.65625zm91.46875.09375v.875l-2.5,1-.03125-.78125 2.53125-1.09375zm-88.65625.71875 1.84375,1.15625v.8125l-1.8125-1.1875-.03125-.78125zm88.65625.53125 .03125,2-2.4375.875-.0625-2.03125 2.46875-.84375zm-88.59375.46875 1.78125,1.3125 .03125,1.90625-1.78125-1.28125-.03125-1.9375zm84.4375,0 .0625,1.03125-2.34375.84375v-1.0625l2.28125-.8125zm-6.5.46875v10.15625l-6.5,2.3125 .125-9.84375 6.375-2.625zm6.5625.78125 .0625,1.71875-2.375.84375-.03125-1.75 2.34375-.8125zm8.96875,1.09375 1.3125.34375 .9375,1-2.25-.625v-.71875zm.03125,1.1875 2.09375.65625v.15625l-2.09375.75v-1.5625zm2.5625,1.0625 .59375.03125-63.625,23.25v-.78125l45.46875-16.21875h.125v-.0625l17.4375-6.21875zm1.09375.65625 .28125,6.96875-66.625,24-.1875-6.59375 66.53125-24.375zm-39.59375.4375-9.96875,3.75-.0625,8.3125 10.09375-3.8125-.0625-8.25zm-.375.4375-.0625,7.5-9.15625,3.5-.0625-7.34375 9.28125-3.65625zm-43.03125.875 4.625,3v9.53125l-4.71875-3.25 .09375-9.28125zm41.90625.53125-3.03125,1.15625-.125.03125v.03125l-3.90625,1.5-.0625,5.6875 2.75-1v.03125l.59375-.21875 3.75-1.375 .03125-5.84375zm-69.5.3125 4.96875,3.34375-2.3125.90625-2.59375-1.8125-.0625-2.4375zm69.125.03125 .03125,1.75-2.53125,1.15625-.0625-1.875 2.5625-1.03125zm-54.78125.125 .53125,7.40625-1.0625.28125-.1875-7.46875 .71875-.21875zm-1.5625.5 .375.28125-9.375,3.5625 12.03125,7.6875 2.78125,9.5 .0625.1875 7,23.6875 .0625,2.1875-10.6875-35.65625-11.875-7.59375 9.625-3.84375zm53.5625.46875 .125,5.15625-1.0625.375-.125-5.09375 1.0625-.4375zm-53.1875.0625 .28125,6.75-2.21875.875-6.40625-4.25 8.34375-3.375zm51.78125.5 .0625,1.84375-2.28125.71875-.03125-1.65625 2.25-.90625zm-30.875.15625-.0625,7.6875 7.34375,5.0625-.03125-7.75-7.25-5zm35.09375.21875v.875l-2.5,1-.03125-.78125 2.53125-1.09375zm-69.90625.375v.34375l3.25,2.25-.03125.59375-.625.3125-3.96875-2.78125 1.375-.71875zm35.03125,0 6.75,4.5-.03125,6.9375-6.65625-4.53125-.0625-6.90625zm-19.3125.09375 7.03125,5.8125-.03125,6.28125-8.15625-6.03125 1.40625-.8125-.25-5.25zm54.1875.78125 .03125,2-2.4375.875-.0625-2.03125 2.46875-.84375zm-71.40625.25 3.875,2.75-.75,3.59375-3.5625-2.59375 .4375-3.75zm67.25.21875 .0625,1.03125-2.34375.84375v-1.0625l2.28125-.8125zm-29.90625.03125-.0625,5.25 2,1.40625v.03125l.4375.3125 2.71875,1.90625 .03125-5.4375-2.21875-1.5-.0625-.03125-2.84375-1.9375zm.15625.375 1.65625,1.0625 .03125,1.78125-1.65625-1.28125-.03125-1.5625zm23.25.0625v10.1875l-6.5,2.28125 .125-9.84375 6.375-2.625zm-55.375.75 11.6875,7.25 14.53125,49.0625-8.875-3.90625-8.25-33.46875-.125-.53125-.84375-3.4375-8.34375-6.03125 .21875-8.9375zm61.9375.03125 .0625,1.71875-2.375.84375-.03125-1.75 2.34375-.8125zm-27.90625.40625 .78125.5 .0625,4.90625-.75-.53125-.09375-4.875zm-34.6875.46875-.03125.53125-.375-.34375 .40625-.1875zm20.84375.09375 19.15625,13.21875-.03125.65625-19.8125-13.3125 .6875-.5625zm14.78125.0625 1.84375,1.21875 .03125,1.65625-1.84375-1.0625-.03125-1.8125zm-2.8125.03125 1.65625,1.1875 .0625,1-1.71875-1.21875v-.96875zm10.4375.125 .09375,14.03125-1.28125.5 .28125-13.96875 .90625-.5625zm-43.84375.28125 .5625.46875-.09375,4-1.21875-.875c.27269-1.13088.35208-2.47661.75-3.59375zm104.53125.28125 .03125,5.59375-52.4375,19.4375-5.75-3.78125c-1.68441-.4361-1.77995,1.7863-.6875,2.625l3.46875,2.28125-4.5,1.65625-.03125-6.28125 59.90625-21.53125zm-62.15625.375-.34375,13.71875-.78125-.53125 .46875-12.90625 .09375.0625 .5625-.34375zm-8.96875.09375 1.71875,1.25 .03125,1.65625-1.71875-1.25-.03125-1.65625zm-12.8125.03125 21.15625,14.46875-.1875,6.65625-17.4375-11.71875-.09375.8125 5.59375,16.375-3.46875,1.28125-5.71875-17.53125 .15625-10.34375zm-25.21875.53125 5.0625,3.65625-.0625,2.6875 2.59375,1.90625-.3125,1.8125-7.8125-5.71875 .53125-4.34375zm40.875.25 1.84375,1.15625v.8125l-1.8125-1.1875-.03125-.78125zm-24.65625.53125 .125.125 8.34375,6.34375v2.3125l-3.8125,1.625-2.09375-6.96875-4.28125-2.84375 1.71875-.59375zm24.71875.46875 1.78125,1.3125 .03125,1.90625-1.78125-1.28125-.03125-1.9375zm68.96875,2.84375 2.28125,1.375v.03125l-20.125,7.46875-2.25-.4375 20.125-7.4375-.03125-1zm-110.46875.71875 2.78125,2.0625-.8125,4.3125-2.53125-1.8125 .5625-4.5625zm112.8125,1.40625 .3125,3.1875-7.4375,2.875-.09375-3.375 7.21875-2.6875zm-109.625.9375 9.90625,7.1875-.875,4.21875-9.8125-7.0625 .78125-4.34375zm5.28125,1.3125 5.625,4.1875 .59375,2.40625-6.59375-4.84375 .375-1.75zm96.65625.59375 .0625,3.40625-11.75,4.53125-.09375-3.59375 11.78125-4.34375zm8.03125.6875 .46875,4.4375-12.625,4.9375 .03125-4.6875 12.125-4.6875zm-113.75.09375 7.0625,5.125-.25,1.71875c-.68444-.29594-1.35937-.44785-2.03125-.46875-.70624-.02196-1.41521.09956-2.09375.3125l-3.21875-2.28125 .53125-4.40625zm25.84375.03125v.0625l.34375,1-3.75,1.625-.34375-1.125 3.75-1.5625zm4.4375.09375 17.21875,11.5625 2.34375-.84375-.15625,5.90625-2.25-1.59375 1.0625-.375c1.73233-.53184 1.30133-3.63752.09375-3.40625l-4.3125,1.59375-12.59375-8.78125-1.40625-4.0625zm-4.03125,1.25 .28125.875-3.75,1.65625-.28125-.96875 3.75-1.5625zm.375,1.15625 .375,1.0625-3.8125,1.65625-.34375-1.15625 3.78125-1.5625zm63.90625.3125 2.09375.53125-11.09375,4.125-2.03125-.59375 11.03125-4.0625zm2.875.9375 .1875,3.5625-3.9375,1.53125c-1.6619-.0963-3.40301.40464-5.03125,1.21875-.77156.48074-1.4972,1.01428-2.1875,1.5625l-.15625.0625-.375-3.6875 11.5-4.25zm-66.34375.0625 .3125.96875-3.8125,1.65625-.3125-1.03125 3.8125-1.59375zm87.1875.90625 .4375,4.375-7.40625,2.84375v-4.5l6.96875-2.71875zm-13.125.03125-.03125,4.6875-6.4375,2.5625c-.29134-.47233-.596-.91321-.9375-1.28125-1.02668-1.06155-2.18978-1.61405-3.40625-1.8125l10.8125-4.15625zm-86.96875.0625 1.28125.9375 1.25,5.09375c-1.17348-.77154-2.34252-1.39249-3.5-1.90625l.15625-.03125 .8125-4.09375zm-14.75.0625 2.4375,1.71875-.0625.40625c-1.01692.45549-1.95429,1.11667-2.84375,1.84375l.46875-3.96875zm28.0625.15625 .34375,1.03125-3.84375,1.6875-.34375-1.125 3.84375-1.59375zm4.59375.21875 8.90625,6.21875-1.375.5-6.84375-4.8125-.6875-1.90625zm-24.53125.15625 3.90625,2.84375c-.42151-.15243-.83764-.30936-1.25-.4375-.07352-.79127-1.38049-.76023-2.09375-1.125-.19463.19884-.56037.28019-.75.375l-.0625-.03125 .25-1.625zm20.34375.9375 .3125.9375-3.875,1.6875-.3125-1.03125 3.875-1.59375zm-23.9375.53125c.17295-.01176.3535-.00309.53125,0 .62915.29279 1.26589.5708 1.90625.84375-.77742.50876-1.51299,1.03083-2.1875,1.5625-1.00443-.5151-2.00623-1.02005-2.96875-1.5625 .84838-.47877 1.74537-.77756 2.71875-.84375zm1.34375.0625c.54279.07421 1.09706.20075 1.6875.40625-.11091.06928-.20359.14898-.3125.21875-.46502-.20078-.91558-.41492-1.375-.625zm73.75.125 1.875.625-13.8125,5.15625-1.5-.8125 13.4375-4.96875zm-70.65625.125c.52182.02464 1.04332.42732 1.28125.65625-8.41223,4.84321-11.8318,12.72716-10.71875,21.78125-.46291.22587-1.74295.23709-1.625-.8125-.51723-3.54931-.30289-7.55058 1.0625-11 1.38171-3.49065 4.32074-7.41168 9.5-10.5 .16881-.0921.32606-.13321.5-.125zm19.90625.34375 .28125.90625-3.90625,1.6875-.28125-.9375 3.90625-1.65625zm78.5625.0625v4.53125l-10,3.84375-.21875-4.375 10.21875-4zm-105.78125.1875-.03125.15625c.96604.52761 1.94857,1.03413 2.9375,1.53125-.72457.58317-1.36177,1.17639-1.96875,1.78125-1.03585-.55708-2.05859-1.1295-3.09375-1.6875 .69489-.72397 1.40088-1.33264 2.15625-1.78125zm8.96875.28125c2.36444.89582 4.63814,1.95219 6.34375,3.03125-.40034.23231-.77075.47546-1.15625.71875-1.85866-1.30787-3.94554-2.29738-6.09375-3.21875 .29662-.17845.59376-.35929.90625-.53125zm23.03125.03125 5.9375,4.1875-.96875,2.9375-1,.375-1.84375-1.34375-2.125-6.15625zm48.4375.0625 .21875,3.71875-14.125,5.46875-.25-3.96875 14.15625-5.21875zm-52.84375.53125 .375,1.125-3.96875,1.625-.34375-1.125 3.9375-1.625zm-19.8125.0625c2.1152.90088 4.20896,1.87198 6.125,3.21875-.84665.5439-1.67235,1.10086-2.4375,1.6875-1.94093-1.12767-4.02076-2.14842-6.09375-3.1875 .743-.60202 1.52458-1.17366 2.40625-1.71875zm105.875.65625 .5,4.875-12.4375,4.625-.0625-4.8125 12-4.6875zm-116,.375 3.09375,1.65625c-.57801.58948-1.12168,1.17678-1.59375,1.78125-1.0202-.55297-2.04612-1.09611-3.0625-1.65625 .43436-.56298.89346-1.08495 1.375-1.59375 .05935-.06628.12787-.12303.1875-.1875zm90.15625.03125c1.4121.00324 2.76674.52916 4.09375,1.59375 .16143.17397.31458.38677.46875.59375l-1.375-.0625c-.82345-.97219-1.86347-1.71384-3.1875-2.125zm-1.21875.15625c.30853.06798.59403.15028.875.25l-.125,17.8125-2.78125,1v-18.34375c.69439-.34712 1.362-.58395 2.03125-.71875zm-58.5625.09375 .34375,1-4,1.65625-.3125-1.09375 3.96875-1.5625zm60.09375.4375c1.10184.52654 1.97508,1.32123 2.65625,2.28125l-.125,14.0625-2.71875.96875 .1875-17.3125zm-82.9375.125c2.06433,1.02297 4.13355,2.03471 6.09375,3.1875-.80452.62608-1.55064,1.28028-2.25,1.9375-1.91022-1.13042-3.86281-2.18866-5.8125-3.25 .5902-.64333 1.25466-1.28276 1.96875-1.875zm45.40625.21875c.1672-.01928.32361.01615.4375.0625l16.65625,10.96875c.57407.82338.22554,1.27772 0,1.78125l-17.0625-11.125c-1.03451-1.19393-.53286-1.62964-.03125-1.6875zm33.375.15625 .03125,18.25-3.09375,1.09375v-16.9375c.94538-.85709 1.96355-1.67339 3.0625-2.40625zm-68.1875.3125 .09375.0625 .21875,1.34375v.03125c-8.48379,5.09127-11.73397,13.56272-10.84375,22.03125-.34519-.13998-1.09076-.2263-1.34375-.46875-.55219-3.664-.94403-8.08712.46875-11.65625 1.42741-3.60611 5.89559-8.19188 11.40625-11.34375zm12.65625,0 .375,1.09375-4.03125,1.65625-.34375-1.15625 4-1.59375zm11.6875.3125 2.3125,1.59375-1.375.5-2.28125-1.59375 1.34375-.5zm55.125.0625 .15625,4.4375-.21875.09375c-.33613-1.57223-.80526-2.8791-1.40625-3.9375l1.46875-.59375zm-99.3125.09375c1.0201.5575 2.04128,1.1047 3.0625,1.65625-.59617.78497-1.10341,1.57523-1.53125,2.375l-3-1.75c.43315-.79391.92559-1.55771 1.46875-2.28125zm51.75.0625c.74857.03858.91672,1.1642-.25,2.25l-19.25,6.78125c-1.10294-.63542-.6881-1.64583-.15625-1.90625l19.3125-7.0625c.12895-.04168.23681-.06801.34375-.0625zm43.40625.25 1.4375.125c.66499.9626 1.22897,2.26641 1.65625,3.90625l-1.1875-.21875c-.42513-1.43896-1.04658-2.74794-1.90625-3.8125zm-27.03125.09375 1.40625.84375-6.5625,2.46875-1.375-.90625 6.53125-2.40625zm16.5625.03125c-2.31252,1.99765-4.13279,4.37618-5.46875,7l-1.40625.5625c-.01421-1.59402-.06875-3.23804-.28125-4.8125l7.15625-2.75zm-42.40625.28125 2.09375,1.5-2.84375,1.03125 .75-2.53125zm-9.3125.15625 .28125.90625-4.03125,1.75-.3125-1.0625 4.0625-1.59375zm-25.84375.03125c1.94087,1.06031 3.85894,2.15111 5.75,3.28125-.59372.56977-1.1508,1.13832-1.65625,1.71875-1.8394-1.08004-3.69643-2.10669-5.5625-3.125 .44013-.64841.92713-1.26865 1.46875-1.875zm13.1875.71875 .03125.09375 .03125.125c-.05184-.05207-.10374-.10504-.15625-.15625l.09375-.0625zm74.96875.0625c2.0308,3.51651 2.04514,8.79705 1.875,12.5l-1.875.6875v-13.1875zm-25.375.09375 .3125,3.9375-2.6875,1.03125-3.96875-2.625 6.34375-2.34375zm-49.9375.09375c.18242.16828.35389.3525.53125.53125l.78125,3.125c-.13483.05641-.27242.12396-.40625.1875v-.0625c-.88021-.80718-1.86735-1.54771-2.90625-2.25 .63139-.52369 1.30786-1.02533 2-1.53125zm13.34375.15625 .375,1.125-4.0625,1.6875-.34375-1.125 4.03125-1.6875zm51,.1875v16.59375l-3.71875,1.34375 .03125-13.34375c1.01528-1.65675 2.25251-3.19594 3.6875-4.59375zm21.03125.25 .0625,4.78125-5.625,2.21875c-.0472-1.73127-.17784-3.27913-.4375-4.625l6-2.375zm-106.9375.0625 2.96875,1.75c-.23691.46234-.4413.94215-.625,1.40625-.15701.39666-.28253.78865-.40625,1.1875-1.00065-.61396-1.99781-1.25055-3-1.875 .27171-.84626.64503-1.67321 1.0625-2.46875zm7.09375.46875c1.84718,1.00875 3.69298,2.04385 5.53125,3.125-.67437.79317-1.25993,1.5874-1.75,2.375l-5.1875-2.96875c.38852-.874.87211-1.71797 1.40625-2.53125zm32.90625.03125 1.25.90625-.8125.3125-.4375-1.21875zm79.875.0625 .4375,4.375-6.875,2.40625-.1875-4.34375 6.625-2.4375zm-41,.21875 .15625,4.84375-5,1.96875c-.16126-.24429-.37618-.44311-.625-.5625l-4-2.625c3.1739-1.22021 6.35306-2.46548 9.46875-3.625zm-43.5.09375 .3125,1-4.09375,1.78125-.34375-1.21875 .03125.03125 4.09375-1.59375zm-16.03125.1875c.0061-.00514.02514.00514.03125,0 .90753.62435 1.79435,1.27916 2.625,2l.15625.25c-.78886.40796-1.5274.93693-2.25,1.5625l-.0625-.1875c-.85125-.57666-1.723-1.11454-2.59375-1.65625 .65606-.66494 1.34408-1.33692 2.09375-1.96875zm31.875.03125 3.40625,2.375 2.78125-1.03125 1.3125.90625-4.1875,1.5625-4.71875-3.3125 1.40625-.5zm9.09375.375 11.71875,7.71875-.15625,7.34375-11.90625-7.71875 .34375-7.34375zm-.625.125-.03125,1.40625-.5.1875-1.21875-.9375 1.75-.65625zm39.03125.1875 1.21875.3125c.33297,1.37106.54006,2.98706.625,4.84375l-1.0625-.15625c-.10855-1.68812-.33241-3.41222-.78125-5zm-49.65625.0625 5.0625,3.59375-.34375,4.65625-4.71875-3.40625-.21875-4.75 .21875-.09375zm-13.28125.28125 .25.78125-4.125,1.75-.25-.90625 .03125.03125 4.09375-1.65625zm12.34375.0625 .625,8.15625-13.84375,4.75-.3125-8.15625 13.53125-4.75zm-49.28125.53125 3,1.84375c-.28821.97754-.47639,1.98509-.59375,2.96875-.96876-.62288-1.93984-1.24532-2.90625-1.875 .05306-.99734.21249-1.97938.5-2.9375zm37.25.40625 .0625.15625-3.21875,1.1875c-.22135.36328-.31341.77808-.3125,1.1875l-.375.15625-.3125-1.0625 .09375.0625 4.0625-1.6875zm76.71875.03125 .09375,4.375-10.53125,3.71875-.15625-4.21875 10.59375-3.875zm-107.21875.0625 5.15625,2.96875c-.3957.65841-.74839,1.30185-1,1.9375-.08892.22464-.14065.46211-.21875.6875-1.62275-.91329-3.24539-1.86561-4.875-2.84375 .24566-.94713.55576-1.86007.9375-2.75zm11.4375,0c.86167.54158 1.72176,1.08319 2.5625,1.65625l.09375.1875c-.24241.21886-.48783.44771-.71875.6875-.28503.31396-.54785.63669-.8125.96875-.87754-.59497-1.76233-1.16228-2.65625-1.71875 .48373-.60778.97318-1.20384 1.53125-1.78125zm6,.3125 .03125.1875-.40625.1875-.0625-.21875c.1437-.06089.2939-.10385.4375-.15625zm36.59375.09375-.0625,2.625-.0625-2.5625 .125-.0625zm-37.25.125 .125.21875c-.86025.41943-1.63997.97007-2.34375,1.59375l-.125-.3125c.73665-.62348 1.53861-1.13537 2.34375-1.5zm36.71875.0625 .0625,4.25-4.75,1.84375 .25-4.4375 4.4375-1.65625zm-35.96875.09375 3.59375,14.46875c-1.52288,2.32151-4.24902,4.31097-9.15625,5.125-.0626-.04695-.12639-.10486-.1875-.15625-4.91426-7.75572 1.41209-18.52175 5.75-19.4375zm20.65625.34375c-.67529.09662-1.37933.64654-1.875,1.9375l4,.4375c.50923-.84872-.57854-2.3332-1.84375-2.375-.09489-.00314-.18478-.0138-.28125,0zm-9.3125.46875-.3125.0625c.21043.64793.11707.99207 0,1.3125l.375-.0625c.74788-.56562.09921-.89848-.0625-1.3125zm-19.125.5c.87656.54797 1.75306,1.10201 2.625,1.6875l.03125.03125c-.5612.72426-1.08074,1.48735-1.53125,2.28125l-2.75-1.59375c.47447-.83271 1.02372-1.63176 1.625-2.40625zm49.8125.03125c-.10283-.00157-.19905.01501-.3125.03125-.25932.03713-.55655.13255-.875.28125 .44478.76538 1.41302,1.87253 3.125,1.6875-.009-.06299-.39503-1.97643-1.9375-2zm15.5,0c-.79801,1.62968-1.37765,3.34389-1.8125,5.125l-5.78125,2.21875-.125-2.8125 .46875.3125c1.02595-.58374 1.10523-1.61289.71875-2.34375l5.03125-1.90625 1.5-.59375zm1,.03125-.03125,12.53125-2.59375.9375c-.51901-4.87198.44607-9.47454 2.625-13.46875zm-61.78125.125 .15625.25c-.5187.47231-.97466,1.00315-1.40625,1.5625l-.1875-.21875c.26661-.35619.55541-.69633.84375-1.03125 .19302-.20043.38934-.38184.59375-.5625zm43.78125.21875-.625,3.9375c.31349,1.04379 1.20767,1.39342 2.6875,1.4375l1.375-3.25c-1.63859.28236-2.94922-.92839-3.4375-2.125zm-65.3125.25c.97207.61286 1.93769,1.23405 2.90625,1.84375-.11374,1.0366-.15648,2.06119-.125,3.09375l-2.40625-1.59375c-.31236-1.11571-.41272-2.24245-.375-3.34375zm34.3125.03125c.04494.42497.15868.84181.40625,1.15625l-.375.15625-.375-1.1875 .34375-.125zm-28.03125.3125c1.59381.94486 3.19788,1.8708 4.8125,2.78125-.33628,1.01063-.57235,2.01242-.71875,3.03125-1.55625-.86511-3.09518-1.77484-4.625-2.71875 .11149-1.05869.2843-2.09256.53125-3.09375zm37.15625.40625-5.25,3.75 .0625,2.25h1l-.1875-1.5625 2.1875.0625 .125,1.3125 1-.0625-.125-1.5 4.5625-2.4375 .125,1.625 .875-.125-.125-2.875-4.25-.4375zm57.71875.28125 1.0625.21875c.05862,1.45079.06961,3.02241-.0625,4.78125l-.96875.34375c.06616-1.5537.08551-3.42097-.03125-5.34375zm-65.46875.25 .03125,1.09375-.96875.40625-.375-1.25 .5-.1875c.05772.05737.12244.10814.1875.15625l.625-.21875zm67.8125,0 .03125,4.25-.59375.21875c.11402-1.60422.12111-3.04762.09375-4.40625l.46875-.0625zm-52.5625.03125 4.46875,3.1875-.375,5.125-5.15625-3.78125 .15625-.75 .875-.3125-.125-2.78125 .15625-.6875zm-31,.03125c.06307.06632.13581.13833.1875.1875-1.05715,1.42463-1.80383,3.09227-2.3125,4.8125l-.375-.15625c.57872-1.71982 1.43011-3.37177 2.5-4.84375zm54.84375.3125-.375.0625c-.74788.56562-.09921.89848.0625,1.3125l.3125-.0625c-.21043-.64793-.11707-.99207 0-1.3125zm-59.5625.34375 2.78125,1.59375c-.42064.76822-.82547,1.56014-1.125,2.375h-.03125c-.92346-.46041-1.85424-.94259-2.78125-1.4375 .31879-.87357.71167-1.72161 1.15625-2.53125zm53.71875.0625-.5625.9375c1.00883-.59488 1.15172.39494 1.28125.46875-.39566.80689-.85218.53712-1.46875.65625l-.5.875c1.39799.53382 2.03218-.0989 2.875-1.09375 .37129-1.52159-.30514-1.74143-1.625-1.84375zm-7.78125.25-.03125.875 3.9375,2.6875-9.28125,3.65625 .28125-5.25 5.09375-1.96875zm-25.4375.28125 .03125,1.03125-.65625.28125-.28125-.96875 .90625-.34375zm-35.28125.9375c.7945.52247 1.58702,1.04516 2.375,1.5625 .02559.70141.05003,1.39851.125,2.09375-.79915-.51982-1.43866-1.08773-1.90625-2.09375-.24406-.51978-.43751-1.04024-.59375-1.5625zm5.28125.0625c1.53474.94532 3.07696,1.87151 4.625,2.75-.13908,1.04132-.17009,2.08632-.15625,3.125-1.55071-.86959-3.10086-1.7876-4.625-2.75-.0109-1.07238.05481-2.10088.15625-3.125zm30.03125.28125 .03125,1.34375-.25.09375-.375-1.21875 .59375-.21875zm-21.75.84375c.92458.50206 1.84512,1.01511 2.78125,1.5-.3208.91749-.54345,1.85918-.6875,2.8125-.96806-.42997-1.92564-.89131-2.875-1.375 .17863-1.02748.4489-1.99473.78125-2.9375zm60.3125.21875 .03125,1.9375-.09375.03125 .0625-1.96875zm6.03125.125c-.32676,1.47835-.5411,2.99332-.625,4.53125l-5.625,2.09375 .125-4.25 6.125-2.375zm-30.71875.1875-.0625.34375-.3125-.21875 .375-.125zm-13.84375.15625v.8125l-.21875-.71875 .21875-.09375zm13.28125.0625 5.96875,4.34375-.34375,4.375-8.375-6.03125-.53125-1.5 3.28125-1.1875zm16.25.5625 4.0625,2.75-7.40625,2.84375 .03125-4.28125h-.125l3.4375-1.3125zm-47.96875.375 .40625.125c-.25987.91753-.45802,1.82558-.5625,2.75l-.46875-.09375c.11186-.9473.33235-1.86727.625-2.78125zm28.03125.40625 4.46875,13.0625-5.78125-4.53125-2.34375-7.1875 3.65625-1.34375zm-39.8125.0625c1.53047.97901 3.0742,1.92107 4.625,2.8125 .01791.8116.07025,1.6338.15625,2.4375-1.55782-.8557-3.09914-1.75228-4.625-2.6875-.0735-.86502-.14379-1.72404-.15625-2.5625zm56.125.53125-.03125,4.34375-6.125,2.375 .21875-4.40625 5.9375-2.3125zm-48.5.46875c.94492.4945 1.88493.9888 2.84375,1.4375h.03125c-.13372,1.01922-.16043,2.03075-.0625,3.0625-1.02872-.44538-2.05557-.90006-3.0625-1.40625 .01138-1.07622.08988-2.10523.25-3.09375zm28.15625.40625 .125.34375-4.40625,1.875-.15625-.59375 4.4375-1.625zm5.21875.53125 2,1.46875-.59375,2.625-1.40625-4.09375zm-5.03125.0625 .34375,1-4.40625,1.875-.34375-1.09375 4.40625-1.78125zm28.34375.25 3.9375,2.6875-4.53125,1.6875-.09375-4.09375 .6875-.28125zm-53.15625.25 .4375.0625c-.10147.97899-.10461,1.95041-.03125,2.875l-.375.0625c-.12844-1.00298-.13541-2.00536-.03125-3zm-11,.1875c1.53062.9205 3.06711,1.8105 4.625,2.6875 .03499.31591.08187.6234.125.9375-1.66291-1.1018-3.2055-2.28308-4.71875-3.5l-.03125-.125zm63.09375,0-.03125,4.125-13.5,5.03125 .21875-3.96875 13.3125-5.1875zm10.90625.4375c-.05052,1.23954-.04202,2.49435.0625,3.75l-4.28125,1.53125-.09375-3.71875 4.3125-1.5625zm-43.21875.0625 4.09375,13.84375-.59375-.25-4.03125-13.40625 .53125-.1875zm5.46875.0625 .25.78125-4.46875,1.875-.25-.90625 .03125.03125 4.4375-1.78125zm6.96875.4375 5.71875,4.125-.28125,3.9375-5.875-4.125-.3125-.9375 .75-3zm-6.65625.59375h.03125l.25.875-4.46875,1.90625-.28125-.96875 4.46875-1.8125zm-29.34375.0625c1.02013.52914 2.04622,1.03657 3.09375,1.5 .10998.90606.31293,1.82456.625,2.71875-1.19719-.6146-2.40121-1.2153-3.59375-1.84375-.07764-.81062-.12453-1.61217-.125-2.375zm62.09375.5 .09375,3.6875-12.5625,4.5-.03125-3.625 12.5-4.5625zm-32.375.59375 .375,1.09375-4.5,1.90625-.375-1.1875 4.5-1.8125zm-25.53125.21875c.11149,1.1751.41414,2.25401.8125,3.21875l-.21875.03125c-.09008-.17178-.1672-.34021-.25-.53125-.33877-.87402-.55776-1.76704-.6875-2.65625l.34375-.0625zm11.375.5 .25.9375c-3.63355,3.02925-6.04444,4.14702-8.125,4.3125-.15542-.04041-.31802-.09672-.46875-.15625 4.47983-.84329 6.86556-2.81705 8.34375-5.09375zm14.625.65625 .3125,1-4.53125,1.90625-.34375-1.09375 4.5625-1.8125zm-30.0625.0625c1.2592.6986 2.52316,1.39355 3.78125,2.09375 .20012.39626.42224.76245.6875,1.09375-1.54806-.62466-2.98023-1.35839-4.34375-2.125-.05108-.36436-.08898-.70771-.125-1.0625zm15.59375.53125c-.2723.33936-.55241.66623-.84375.96875l-.15625-.09375c.32165-.27039.66682-.56213 1-.875zm14.875.65625 .1875.59375-4.5625,1.90625-.21875-.71875 .0625.03125 4.53125-1.8125zm5.15625.0625 3.90625,2.75-.25-.09375-.46875,3.21875-1.5-1.03125-1.6875-4.84375zm-21.15625.25 .15625.125c-.29261.29676-.5877.57755-.90625.84375l-.25-.1875c.33003-.23836.65808-.49827 1-.78125zm16.4375.6875 5.71875,4.4375-8.625,3.34375-1.78125-5.90625 4.6875-1.875zm-25.96875.03125c.16499.37184.3574.70297.5625,1.03125-.25643-.28693-.49859-.61279-.71875-1l.15625-.03125zm8.40625.15625 .21875.1875c-.39225.31831-.80099.61732-1.21875.875l-.34375-.21875c.43663-.2461.88715-.52041 1.34375-.84375zm35.9375.25-.1875,3.6875-7.09375,2.53125 .1875-3.625 7.09375-2.59375zm-37.40625.65625 .3125.25c-.41166.24426-.82737.48604-1.25.65625l-.4375-.25c.44401-.17919.91238-.4016 1.375-.65625zm-1.5.71875 .3125.25c-.41925.15268-.83391.24867-1.25.3125l-.3125-.1875c.40607-.10665.83084-.21144 1.25-.375zm29.46875.21875 1.4375,1.03125-.25,3.40625-1.6875-1.15625 .5-3.28125zm-30.875.1875h.03125l.21875.21875c-.39269.04414-.77838.04966-1.15625,0 .30201-.04879.59853-.14264.90625-.21875z" fill-rule="evenodd"/>
</svg>
