<?xml version="1.0" encoding="UTF-8"?>
<svg viewBox="0 0 128 128" xmlns="http://www.w3.org/2000/svg" xmlns:xlink="http://www.w3.org/1999/xlink">
 <defs>
  <filter id="s">
   <feGaussianBlur stdDeviation="2.04131"/>
  </filter>
  <linearGradient id="c">
   <stop stop-color="#e3cf6f" offset="0"/>
   <stop stop-color="#faeca9" offset="1"/>
  </linearGradient>
  <linearGradient id="a">
   <stop stop-color="#7d9cb7" offset="0"/>
   <stop stop-color="#99c8f0" offset="1"/>
  </linearGradient>
  <linearGradient id="b">
   <stop stop-color="#6a3c1d" offset="0"/>
   <stop stop-color="#8f5127" offset="1"/>
  </linearGradient>
  <linearGradient id="n" x1="75.66" x2="78.135" y1="17.382" y2="13.316" gradientUnits="userSpaceOnUse">
   <stop stop-color="#c223c2" offset="0"/>
   <stop stop-color="#ff00dc" offset="1"/>
  </linearGradient>
  <linearGradient id="d" x1="79.972" x2="83.905" y1="78.421" y2="90.53" gradientUnits="userSpaceOnUse">
   <stop stop-color="#1a1a1a" offset="0"/>
   <stop stop-color="#2b2b2b" offset="1"/>
  </linearGradient>
  <linearGradient id="r" x1="9.5135" x2="11.589" y1="82.595" y2="87.005" gradientUnits="userSpaceOnUse" xlink:href="#b"/>
  <linearGradient id="q" x1="46.486" x2="47.222" y1="112.3" y2="116.28" gradientUnits="userSpaceOnUse" xlink:href="#b"/>
  <linearGradient id="p" x1="77.751" x2="79.395" gradientUnits="userSpaceOnUse" xlink:href="#b"/>
  <linearGradient id="o" x1="120.3" x2="122.29" y1="82.378" y2="84.8" gradientUnits="userSpaceOnUse" xlink:href="#b"/>
  <linearGradient id="m" x1="62.097" x2="69.881" y1="58.638" y2="26.465" gradientUnits="userSpaceOnUse" xlink:href="#a"/>
  <linearGradient id="l" x1="50.381" x2="56.657" y1="34.574" y2="52.251" gradientUnits="userSpaceOnUse" xlink:href="#a"/>
  <linearGradient id="k" x1="35.886" x2="53.475" y1="63.211" y2="104.4" gradientUnits="userSpaceOnUse" xlink:href="#a"/>
  <linearGradient id="j" x1="59.839" x2="77.251" y1="103.34" y2="82.392" gradientUnits="userSpaceOnUse" xlink:href="#a"/>
  <linearGradient id="i" x1="76" x2="66.688" y1="75.5" y2="74.062" gradientUnits="userSpaceOnUse" xlink:href="#a"/>
  <linearGradient id="h" x1="89.375" x2="84.75" y1="66.656" y2="69.156" gradientUnits="userSpaceOnUse" xlink:href="#a"/>
  <linearGradient id="g" x1="91.062" x2="104" y1="88.875" y2="61.062" gradientUnits="userSpaceOnUse" xlink:href="#a"/>
  <linearGradient id="f" x1="42.292" x2="43.33" y1="55.092" y2="53.622" gradientUnits="userSpaceOnUse" xlink:href="#c"/>
  <linearGradient id="e" x1="75.589" x2="74.292" y1="58.465" y2="55.005" gradientUnits="userSpaceOnUse" xlink:href="#c"/>
 </defs>
 <path d="m45.622 28.693c2.1106 6.8661 12.366 2.6124 17.713 5.0633 5.8283 2.6051 12.522 1.5471 17.189-0.63156-5.0382 0.5392-11.498 1.1899-15.764-2.7424-5.7191-1.2196-12.824 0.35471-19.138-1.6894zm2.2056 5.4198c-1.903 1.6407 0.62216 7.9805-0.7384 2.5059-3.7343-1.3975-4.6184 5.1449-8.1207 6.2665-5.064 4.1815-11.829 6.9745-19.026 8.836-3.5848 4.2477 0.86382 10.116-0.60699 14.936-0.01638 5.4656 0.39609 11.146-1.8615 16.131-0.08844 5.8055 8.8467 4.5879 13.078 7.9434 8.6722 3.6035 15.421 8.9678 22.098 14.409 6.9318 2.6182 8.9719-6.4791 15.74-6.0835 10.004-14.742-1.9966-43.771 6.8798-4.738 8.9936-24.244-18.393-31.836 17.114-4.2412 3.3043-1.7928 13.081-1.7215 11.246-5.8526-3.9163-5.4321-9.301-10.312-12.514-15.995-8.3242-18.703-14.857-15.641-31.765-25.136-4.2944-2.6185-8.0824-5.7159-11.522-8.9811zm0.12078 13.155c0.95339 19.985 0.94796 19.985 0 0zm23.297 48.36c0.43762 0.87548 0.55916 1.1186 0 0z" fill-opacity=".62745" fill-rule="evenodd" filter="url(#s)"/>
 <path d="m74.609 99.869c0.8146-7.8265 7.1049-11.246 21.282-8.3171l-17.123-36.082s-9.051 43.542-8.5617 43.542 4.4032 1.1008 4.4032 0.85617z" fill="url(#d)" fill-rule="evenodd"/>
 <path d="m8.56216,81.03784 1.72973,5.62162 .6054,2.24865 .60541-.08649 .95135-.69189-1.2973-6.83243-1.2973-.34595-1.2973.08649z" fill="url(#r)" fill-rule="evenodd"/>
 <path d="m44.627 111.74 2.1622-0.86486 0.95135-0.08649 0.6054 6.4865-0.95135 0.51891-1.5568-2.854-1.2108-3.2z" fill="url(#q)" fill-rule="evenodd"/>
 <path d="m77.838 56.822-0.08649 3.8919 0.17297 14.53-0.08649 20.67 0.86486 1.0378 1.2973-0.51892-0.25946-25.6 0.25946-10.292-1.5568-4.6703-0.6054 0.95135z" fill="url(#p)" fill-rule="evenodd"/>
 <path d="m120.04324,87.95676 .17298-1.64324 .17297-1.72973-.60541-3.28649 .86487-.60541 1.64324.60541-.43243,2.68108-.51892,3.97838-.77838.08649-.51892-.08649z" fill="url(#o)" fill-rule="evenodd"/>
 <path d="m63.551 11.062 3.4472 1.0607 8.4853 0.97227h5.1265l2.74-0.35355 0.88388 0.97227-0.70711 2.74 0.17678 0.53033 1.5026 0.53033 5.0381 0.35355 8.4853-0.17678-4.773 1.3258-7.1595 1.2374-2.2981 0.26516-2.8284-0.61872-0.44194-2.0329c-0.22401-0.96619-0.87412-1.0802-1.5026-1.2374l-3.2704 0.35355-3.8007 0.17678-4.1542-0.97227-4.5962-1.0607-0.35355-4.0659z" fill="url(#n)" fill-rule="evenodd"/>
 <path d="m57.1875,62.0625 4.5625-1.25 15-6.0625 11.4375-5.5625 7.75-3.8125-1-.875-6.0625-3.9375-8.625-5.5-9.0625-7.5-6.6875-9.5-.9375.3125-.125,2.6875-1.5,10.875-1.625,13.1875-2.0625,12.125-1.0625,4.8125z" fill="url(#m)" fill-rule="evenodd"/>
 <path d="m30.848 40.054 6.0988-1.5026 9.5459-4.2426 6.1872-4.4194 4.1542-3.8007 6.6291-7.4246-0.08839 1.591-1.149 10.253-1.9445 13.17-2.9168 18.296-1.8562-0.97227-5.4801-3.5355-3.8007-2.2097-2.3865-1.6794-5.5685-4.1542-5.5685-6.1872-1.5026-1.5026-0.35355-1.6794z" fill="url(#l)" fill-rule="evenodd"/>
 <path d="m21.655 83.452 1.149-2.2981 3.3588-9.4576 3.7123-19.799 0.70711-10.253 0.7955 3.4472 0.61872 2.2097 1.149 1.6794 1.7678 0.88388 2.74-0.26517 1.0607 3.6239 1.591 2.2097 1.7678 1.3258 1.7678 0.17678 1.591 0.35355 2.2981-0.17678 0.26516 2.0329 0.88388 1.9445 1.4142 0.97227 3.2704 0.35355 3.7123-0.17678 0.35355 1.4142-0.88388 10.165-0.53033 20.064-0.61872 16.529-4.8614-6.1872-7.2478-9.104-5.3917-5.1265-5.0381-3.3588-6.8943-2.5633-4.5078-0.61872z" fill="url(#k)" fill-rule="evenodd"/>
 <path d="m55.596 109.88 0.97227-29.522 0.17678-8.0433 1.2374-10.43c6.8574-2.0109 12.96-4.7769 19.269-7.3362l-0.70711 3.0936-3.0936 7.4246-4.5962 5.3033-4.0659 2.6516 0.17678 1.2374 2.8284 2.74 2.4749 4.773 1.5026 4.9498 1.149 6.8059 0.74372 4.6846 0.58211 2.1213-3.4472 0.08839-5.3917 2.74-5.6568 3.8007-3.6239 3.2704-0.53033-0.35355z" fill="url(#j)" fill-rule="evenodd"/>
 <path d="m64.9375,73.5 1.5,1.9375 2.4375,3.5 1.0625,2.4375 1.4375,3.75 .625,2.9375 .75,5.1875 .4375,2.5625 .5,2.375 .25,1.3125 1.875-9.625 1.0625-8.625 .6875-9.6875 .375-10.375-.25-6.125-.875,1.25-1.8125,5.875-3.625,5.875-4.3125,3.5625-2.5,1.5 .375.375z" fill="url(#i)" fill-rule="evenodd"/>
 <path d="m78.125,55.125 3.0625,8.5625 2.8125,7.25 2.25,5.1875 1.5625,3.5 2.9375,4.75 4.625,6.1875 1.0625,1.125-.5-3.375-3.8125-11.6875-.875-3.5625-.375-2.6875-.3125-2.6875 .625-4.375 .125-.75-1.875-.1875-4.0625-1.3125-4.8125-3.9375-2.4375-2z" fill="url(#h)" fill-rule="evenodd"/>
 <path d="m97,91.5625 1.6875-1.375 4.125-1.8125 7.25-1.5625-5-10.1875-4.75-11.8125-2.9375-9.6875-1.125-8.5625-2.5-.6875-5.875,3.1875-5.9375,3.0625-4.25,2.3125 .3125.9375 1.5625,1.0625 2.75,2.625 2.8125,1.8125 1.875,1 2.4375.625 2,.125-.5,1.5625-.3125,2.875 .25,3.8125 .75,3.875 1.0625,3.875 3.0625,9.125 .6875,4.3125 .5625-.5z" fill="url(#g)" fill-rule="evenodd"/>
 <path d="m30.8125,41.6875 .4375,4.625 1.3125,2.4375 2.3125,1 2.75-.125 .9375,3 1.5625,3 2.3125,1.3125 2.125.375 3.25-.25v1.5l.875,2.25 2,1.5 2.5625.125 3.875-.125-6.3125-4.1875-6.5625-4.0625-5.6875-4.375-6.5625-7.375-1.1875-.625z" fill="url(#f)" fill-rule="evenodd"/>
 <path d="m58.292 62.011 2.4216 0.77838 5.1892 0.51892 3.1135-1.2108 1.7297-0.69189 1.9892-1.2973 4.1514-5.2757 1.6432-0.17297 3.1135 0.51892 2.9405-0.25946 2.0757-0.60541 2.7676-1.6432 3.9784-4.2378 1.9027-2.9405-6.4865 3.1135-8.1297 4.3243-3.546 1.3838-3.4595 1.7297-11.07 4.4973-3.4595 1.1243-0.86487 0.34595z" fill="url(#e)" fill-rule="evenodd"/>
 <path d="m63.25 9.9375c0.17411 2.757 0.46146 5.6586-0.0625 8.3438-10.052 12.732-20.11 17.519-32.697 21.812-6.2474 14.145-11.044 29.899-18.647 43.906l-0.5625-2.9688c-1.2166-0.70862-2.6066-0.26434-2.875 0.34375l2.25 7.5938c0.64583-0.17462 1.2917 0.42212 1.9375-0.53125l-0.40625-2.6562c1.7459 0.34228 6.888-0.95065 9.6417-2.1704 13.244 1.2526 20.733 10.843 28.327 20.827-0.56079 2.8295-1.1539 5.6555-1.8125 8.4688l-0.15625-2.2188c-1.3833-0.21649-2.5949 0.59743-3.875 1l2.6875 6.375c0.52083 0.04197 1.0417 0.2398 1.5625-0.375l-0.03125-1.9062c2.4375-1.6562 2.836-4.0967 7.3125-4.9688 6.173-3.5978 10.663-11.087 18.844-10 1.4609-8.8562 2.3756-17.78 2.9375-26.719l0.0625 22.188c0.41119 0.87514 0.9356 0.97821 2.375 0.1875l-0.03125-34.906c4.6211 12.493 9.6408 23.965 16.406 31 3.8085-3.5369 7.2315-4.4777 13.781-5.435l9.5-0.87753 0.28125 0.09375c-0.04462 0.26759-0.17319 1.1426-0.21149 1.4179 0.09219 1.1194 1.166 0.27554 1.774 0.36334l0.90625-6.9688c-1.0593-0.6879-2.0262-0.63871-2.9713 0.15625l0.28378 0.6875c0.2833 0.76813 0.41862 1.4564 0.4375 2.0938h-0.09375c-2.2329-0.15004-6.7979-5.9076-12.562-15.188-4.319-6.9528-8.1974-14.97-10.969-21.688-0.05942-0.63859-0.11622-1.2922-0.15625-1.9375-12.147-8.2284-24.841-14.86-31.906-27.688l-0.25-2.25c4.3441 0.91307 7.4731 3.1692 13.938 1.75 4.1361-1.2729 2.341 1.9398 3.5 3.2188 3.6718 1.732 11.691-1.4396 17.438-2.375l-0.09375-0.375c-5.0833-0.51042-15.881 0.9792-15.25-1.5312 0.43329-1.7037 1.368-3.7083-1.5938-3.375-6.1295 0.50764-12.245 0.08089-18.375-1.625l-0.125-1.0625-0.46875-0.03125zm0.625 1.5625c5.5269 1.7054 11.358 2.3965 17.562 1.8438 3.5988-0.81621 2.4309 0.90605 1.7188 2.8125-0.86643 3.2685 9.5321 1.3831 14.406 1.7812-5.0488 0.64226-10.107 2.7436-15.156 1.9375-1.1251-1.2604-0.85546-4.1966-4.0938-3.3438-5.2042 1.275-9.3355-0.68335-14.062-1.5625l-0.375-3.4688zm0.46875 7c6.7908 14.042 19.539 18.441 30.594 26.406-11.966 6.9243-24.063 12.656-37.062 16.812 2.6507-15.744 4.1646-29.047 5.9375-43.062 0.20453 0.04687 0.39449 1.9e-4 0.53125-0.15625zm-1.1562 0.5c-1.5192 14.678-3.0168 26.615-6.3125 42.719-3.8996-2.6956-9.602-5.5856-14.469-9.2188-4.8349-3.6094-8.7949-8.2915-11.312-11.906 12.736-3.121 22.387-8.3875 32.094-21.594zm-32.875 21.969c0.02905 0.04198 0.06433 0.0829 0.09375 0.125-1.8921 13.859-2.801 27.611-8.75 41.75-2.2804 1.506-5.222 2.989-9.5312 2.6875l-0.1875-1.0625 0.03125-0.03125c11.141-20.92 12.395-29.221 18.344-43.469zm0.96875 1.3438c2.6392 3.4585 6.4292 7.2044 10.844 10.5l14.219 9.3438c-7.7288 0.74538-8.5136-2.2614-8.4688-5.2188-9.0454 0.83366-8.5264-3.9587-10.188-7.4688-5.439 0.88374-6.0784-2.8498-6.4062-7.1562zm-0.53125 0.46875c0.09107 4.6098 1.4754 8.6443 6.6875 6.875 0.53765 6.3159 4.0484 8.559 10.125 7.5938 0.47705 7.0417 4.1764 5.6132 9.2427 5.101-1.6516 13.261-3.947 27.144-6.3677 40.524-6.996-9.5006-15.65-18.324-28.438-19.625 6.7446-13.879 7.592-26.94 8.75-40.469zm64.688 3.2812-4.4375 15.75c-4.3937 1.1322-8.3399-3.292-12.25-6.4375-0.06056-0.15641-0.12613-0.31263-0.1875-0.46875 8.1623 1.729 12.606-2.6747 16.875-8.8438zm-0.96875 0.25c-3.8879 3.9542-5.0301 10.321-16.125 7.9688 5.2118-2.6798 10.767-5.3244 16.125-7.9688zm1.25 0.34375 0.1875 0.40625c1.631 14.254 7.529 26.707 13.469 39.438-4.4793 0.94578-8.6835 1.9539-12.531 4.5625-2.0216-9.385-8.07-18.562-5.3438-28.156 0.0613-0.21573-0.03176-0.51456-0.0625-0.78125 0.66816-5.2647 2.8497-10.313 4.2812-15.469zm1.0625 2.25c6.0551 12.894 12.421 26.052 23.188 36.312-2.904 1.0414-5.8312 1.8642-9.5625 1.2188-6.316-12.102-12.015-24.114-13.625-37.531zm-20.438 6.125c-1.6674 2.4841-2.9213 4.5113-5.5938 6.25-2.6665 1.4623-8.0772 2.4568-12.094 0.78125 6.0263-2.0375 11.899-4.4231 17.688-7.0312zm0.34375 0.375c-1.8156 7.6343-3.7948 12.506-12.375 17.438-2.0044-3.2101-4.4919-6.3002-6.25-9.6562 0.04763-0.3244 0.10556-0.64409 0.15625-0.96875 0.11563-0.0387 0.22823-0.08603 0.34375-0.125 4.1649 1.8156 8.4844 1.8977 11.375 0.3125 2.6186-1.436 4.6981-4.2896 6.75-7zm2.5312 1.0938c3.3497 3.2684 6.6182 6.3698 11.688 6.4375-1.6416 10.141 3.1024 18.628 5.1875 27.688-9.9557-9.7192-12.435-22.261-16.875-34.125zm-1.7812 0.25c0.49889 14.252-0.94435 28.506-3.5 42.219-1.6592-9.5108-1.6233-18.014-8.75-25.469 7.1296-3.3403 9.9108-9.8325 12.25-16.75zm0.875 0.09375c0.43989 1.2297 0.89823 2.4408 1.3438 3.6562l-0.21875 35.688c-0.53269 0.65915-0.58316 0.52971-1.2188-0.09375l-0.15625-30.281c0.1174-2.9873 0.19624-5.9782 0.25-8.9688zm-21.094 5.7188c-1.1003 15.737-1.3053 31.451-1.9688 47.219-1.463-2.1757-2.9567-4.3982-4.5625-6.5938 2.5539-13.514 4.2418-27.049 6.375-40.562 0.05328-0.01735 0.10299-0.04509 0.15625-0.0625zm0.8125 1c1.7952 3.3665 4.1286 6.3623 6.1875 9.5938-0.33778 0.48122-0.14679 1.0285 0.4375 1.625 7.9425 6.2475 6.9949 16.102 9.1875 24.844-6.8347 1.0095-12.39 5.7912-17.906 9.9688 1.0107-15.202-0.13678-30.468 2.0938-46.031zm-46.885 18.171 0.16605 2.798c-0.40427 0.17915-0.88243 0.13909-1.2188 0.34375l-1.0792-3.0672c0.64824-0.19124 1.1635-0.73707 2.1319-0.07449zm108.92 0.05777c0.44791-1.2305 1.631-0.47993 2.0789-0.27145l-0.64645 2.9179c-0.31107-0.20925-0.69128-0.26811-1.0938-0.3125l-0.33868-2.334zm-108.69 3.084 0.125 0.59375-0.75-0.09375 0.625-0.5zm110.03 0.15625-0.25 1.5-0.75-1.0625 1-0.4375zm-111.16 0.4375 0.9375 0.53125 0.375-0.09375 0.38699 2.1345c-0.26042 0.80845-0.91002 0.32058-1.1704 0.40152l-0.52905-2.9735zm110.03 0.96875 0.84375 0.28125-0.15625 1.0625c-0.52249 0.27331-0.68519 0.00695-0.75-0.40625l0.0625-0.9375zm-69.906 18.312c1.4668 1.9727 2.9446 3.9262 4.4688 5.7812-3.3999 1.3504-4.1139 3.1629-6.2812 4.7188l-0.125-1.1562c0.72209-3.1126 1.3329-6.2311 1.9375-9.3438zm-2.8198 6.5243 0.22601 2.6319-1.6875 0.78125-1.125-2.625c0.27117-0.32014 1.7532-1.4213 2.5865-0.78818zm-0.08649 3.4444-0.6875 1.5312-0.65625-1.5 1.3438-0.03125zm0.45676 0.32703 0.07449 0.48547-0.91064 0.51419 0.83615-0.99966zm0.16824 0.98547 0.125 0.9375-0.8125 0.6875-0.59375-1.3438 1.2812-0.28125z" fill-rule="evenodd"/>
</svg>
