<?xml version="1.0" encoding="UTF-8"?>
<svg viewBox="0 0 128 128" xmlns="http://www.w3.org/2000/svg" xmlns:xlink="http://www.w3.org/1999/xlink">
 <defs>
  <filter id="be">
   <feGaussianBlur stdDeviation=".99583"/>
  </filter>
  <linearGradient id="b">
   <stop stop-color="#bb8f56" offset="0"/>
   <stop stop-color="#d1af63" offset="1"/>
  </linearGradient>
  <linearGradient id="a">
   <stop stop-color="#6a3c1d" offset="0"/>
   <stop stop-color="#8f5127" offset="1"/>
  </linearGradient>
  <linearGradient id="c">
   <stop stop-color="#1a1a1a" offset="0"/>
   <stop stop-color="#2b2b2b" offset="1"/>
  </linearGradient>
  <linearGradient id="bd" x1="22.708" x2="44.234" y1="55.949" y2="90.073" gradientUnits="userSpaceOnUse" xlink:href="#a"/>
  <linearGradient id="bc" x1="12.128" x2="16.959" y1="45.736" y2="55.215" gradientUnits="userSpaceOnUse" xlink:href="#b"/>
  <linearGradient id="bb" x1="15.43" x2="13.045" y1="51.179" y2="46.531" gradientUnits="userSpaceOnUse" xlink:href="#a"/>
  <linearGradient id="ba" x1="28.518" x2="33.349" y1="57.233" y2="66.712" gradientUnits="userSpaceOnUse" xlink:href="#b"/>
  <linearGradient id="az" x1="31.82" x2="29.435" y1="62.676" y2="58.028" gradientUnits="userSpaceOnUse" xlink:href="#a"/>
  <linearGradient id="ay" x1="43.99" x2="48.821" y1="68.914" y2="78.393" gradientUnits="userSpaceOnUse" xlink:href="#b"/>
  <linearGradient id="ax" x1="47.292" x2="44.907" y1="74.356" y2="69.709" gradientUnits="userSpaceOnUse" xlink:href="#a"/>
  <linearGradient id="aw" x1="43.813" x2="34.818" y1="36.873" y2="58.84" gradientUnits="userSpaceOnUse" xlink:href="#a"/>
  <linearGradient id="av" x1="75.362" x2="81.6" y1="33.077" y2="20.601" gradientUnits="userSpaceOnUse" xlink:href="#a"/>
  <linearGradient id="au" x1="76.708" x2="102.21" y1="88.728" y2="66.529" gradientUnits="userSpaceOnUse" xlink:href="#a"/>
  <linearGradient id="at" x1="89.673" x2="91.752" y1="49.16" y2="56.377" gradientUnits="userSpaceOnUse" xlink:href="#a"/>
  <linearGradient id="as" x1="87.288" x2="108.57" y1="92.214" y2="72.889" gradientUnits="userSpaceOnUse" xlink:href="#b"/>
  <linearGradient id="ar" x1="103.07" x2="90.835" y1="75.151" y2="92.03" gradientUnits="userSpaceOnUse" xlink:href="#a"/>
  <linearGradient id="aq" x1="93.342" x2="92.975" y1="81.389" y2="82.429" gradientUnits="userSpaceOnUse" xlink:href="#b"/>
  <linearGradient id="ap" x1="95.972" x2="96.583" y1="83.102" y2="83.652" gradientUnits="userSpaceOnUse" xlink:href="#b"/>
  <linearGradient id="ao" x1="115.36" x2="121.9" y1="80.472" y2="80.778" gradientUnits="userSpaceOnUse" xlink:href="#a"/>
  <linearGradient id="an" x1="121.72" x2="116.83" y1="72.705" y2="76.13" gradientUnits="userSpaceOnUse" xlink:href="#a"/>
  <linearGradient id="am" x1="122.33" x2="115.54" y1="71.421" y2="72.461" gradientUnits="userSpaceOnUse" xlink:href="#a"/>
  <linearGradient id="al" x1="116.57" x2="123.74" y1="77.884" y2="77.717" gradientUnits="userSpaceOnUse" xlink:href="#c"/>
  <linearGradient id="ak" x1="115.23" x2="124.43" y1="83.441" y2="83.13" gradientUnits="userSpaceOnUse" xlink:href="#c"/>
  <linearGradient id="aj" x1="81.09" x2="74.302" y1="87.945" y2="88.985" gradientUnits="userSpaceOnUse" xlink:href="#a"/>
  <linearGradient id="ai" x1="80.479" x2="75.586" y1="89.229" y2="92.654" gradientUnits="userSpaceOnUse" xlink:href="#a"/>
  <linearGradient id="ah" x1="74.119" x2="80.662" y1="96.996" y2="97.302" gradientUnits="userSpaceOnUse" xlink:href="#a"/>
  <linearGradient id="ag" x1="75.327" x2="82.497" y1="94.408" y2="94.241" gradientUnits="userSpaceOnUse" xlink:href="#c"/>
  <linearGradient id="af" x1="73.988" x2="83.19" y1="99.965" y2="99.655" gradientUnits="userSpaceOnUse" xlink:href="#c"/>
  <linearGradient id="ae" x1="67.025" x2="60.236" y1="92.593" y2="93.633" gradientUnits="userSpaceOnUse" xlink:href="#a"/>
  <linearGradient id="ad" x1="66.413" x2="61.521" y1="93.877" y2="97.302" gradientUnits="userSpaceOnUse" xlink:href="#a"/>
  <linearGradient id="ac" x1="60.053" x2="66.597" y1="101.64" y2="101.95" gradientUnits="userSpaceOnUse" xlink:href="#a"/>
  <linearGradient id="ab" x1="61.261" x2="68.431" y1="99.056" y2="98.889" gradientUnits="userSpaceOnUse" xlink:href="#c"/>
  <linearGradient id="aa" x1="59.922" x2="69.125" y1="104.61" y2="104.3" gradientUnits="userSpaceOnUse" xlink:href="#c"/>
  <linearGradient id="z" x1="67.214" x2="66.507" y1="80.617" y2="81.501" gradientUnits="userSpaceOnUse" xlink:href="#a"/>
  <linearGradient id="y" x1="64.165" x2="72.385" y1="81.589" y2="93.036" gradientUnits="userSpaceOnUse" xlink:href="#b"/>
  <linearGradient id="x" x1="10.628" x2="12.416" y1="78.122" y2="78.482" gradientUnits="userSpaceOnUse" xlink:href="#a"/>
  <linearGradient id="w" x1="4.5585" x2="7.1207" y1="72.679" y2="73.522" gradientUnits="userSpaceOnUse" xlink:href="#a"/>
  <linearGradient id="v" x1="14.024" x2="15.063" y1="71.788" y2="74.173" gradientUnits="userSpaceOnUse" xlink:href="#a"/>
  <linearGradient id="u" x1="8.0645" x2="10.317" y1="67.126" y2="69.634" gradientUnits="userSpaceOnUse" xlink:href="#a"/>
  <linearGradient id="t" x1="18.361" x2="24.593" y1="84.997" y2="76.777" gradientUnits="userSpaceOnUse" xlink:href="#a"/>
  <linearGradient id="s" x1="8.0642" x2="13.809" y1="72.225" y2="83.052" gradientUnits="userSpaceOnUse" xlink:href="#a"/>
  <linearGradient id="r" x1="13.898" x2="15.356" y1="73.794" y2="67.828" gradientUnits="userSpaceOnUse" xlink:href="#a"/>
  <linearGradient id="q" x1="19.618" x2="21.405" y1="74.758" y2="75.118" gradientUnits="userSpaceOnUse" xlink:href="#a"/>
  <linearGradient id="p" x1="13.548" x2="16.111" y1="69.315" y2="70.159" gradientUnits="userSpaceOnUse" xlink:href="#a"/>
  <linearGradient id="o" x1="23.014" x2="24.053" y1="68.424" y2="70.809" gradientUnits="userSpaceOnUse" xlink:href="#a"/>
  <linearGradient id="n" x1="17.054" x2="19.307" y1="63.763" y2="66.27" gradientUnits="userSpaceOnUse" xlink:href="#a"/>
  <linearGradient id="m" x1="27.351" x2="33.583" y1="81.633" y2="73.413" gradientUnits="userSpaceOnUse" xlink:href="#a"/>
  <linearGradient id="l" x1="17.054" x2="22.799" y1="68.861" y2="79.689" gradientUnits="userSpaceOnUse" xlink:href="#a"/>
  <linearGradient id="k" x1="22.888" x2="24.346" y1="70.43" y2="64.464" gradientUnits="userSpaceOnUse" xlink:href="#a"/>
  <linearGradient id="j" x1="27.079" x2="28.866" y1="89.864" y2="90.224" gradientUnits="userSpaceOnUse" xlink:href="#a"/>
  <linearGradient id="i" x1="21.009" x2="23.571" y1="84.421" y2="85.264" gradientUnits="userSpaceOnUse" xlink:href="#a"/>
  <linearGradient id="h" x1="30.474" x2="31.514" y1="83.53" y2="85.915" gradientUnits="userSpaceOnUse" xlink:href="#a"/>
  <linearGradient id="g" x1="24.515" x2="26.768" y1="78.868" y2="81.375" gradientUnits="userSpaceOnUse" xlink:href="#a"/>
  <linearGradient id="f" x1="34.812" x2="41.044" y1="96.739" y2="88.519" gradientUnits="userSpaceOnUse" xlink:href="#a"/>
  <linearGradient id="e" x1="24.515" x2="30.26" y1="83.967" y2="94.794" gradientUnits="userSpaceOnUse" xlink:href="#a"/>
  <linearGradient id="d" x1="30.349" x2="31.807" y1="85.536" y2="79.569" gradientUnits="userSpaceOnUse" xlink:href="#a"/>
 </defs>
 <path d="m61.456 107.27s-3.6324 1.2108-4.4973 0.17298 0.17297-2.7676 0.17297-2.7676l-0.86486-6.4-14.53-4.1514-13.492-0.17297-26.984-17.47 6.054-4.6703-7.0919-16.086 13.665-16.605 46.876-7.7838 62.097 52.411s-4.8432 3.4595-5.8811 3.1135-6.7459-2.5946-6.7459-2.5946l-30.789 7.6108-1.2108 11.589s-5.8811 0.69189-6.9189-0.17298-6.054-3.4595-6.054-3.4595l-3.8054 7.4378z" fill-opacity=".62745" fill-rule="evenodd" filter="url(#be)"/>
 <path d="m38.363 11.978-32.412 23.545 0.5504 2.5685 51.676 37.182 2.8743-1.957 26.969-25.257-24.34-17.613-25.318-18.469z" fill="url(#aw)" fill-rule="evenodd"/>
 <path d="m5.49931,35.49348-.17297,31.0443 .43243.17297 6.4-1.2973 .08649-1.64324 9.08108-1.98919 1.38378,1.12433 .25946-.25946 2.50811,1.72973-.08649.43243 3.24861,2.45436 .61155-.24462 2.62967,1.7735-.48924.36693 3.48585,2.69083 .18346,8.8675-.85617.36693 2.07928,1.2231 .36693-.12231 2.62967,1.83466-.18347.36693 3.48584,2.81314-.12231,6.23783 14.06569,10.21291 .48924-.73386 .18347-.30577 .06115-3.66931-.42809-.12231 .06115-1.34541 .36693-.48924h.36693l.36693-1.7735 .5504-.97848 .24462-.30578h.36693l.18346-.30578 .24462-.24462-.06116-17.18461 .48924-1.89581c0,0-2.56852.12231-2.75198-.12231s-.97848-2.38505-.97848-2.38505l-3.18007-.48924-.97848-2.62967-2.62967-.30578-.85617-1.83466-2.3239-.18347-.91733-2.20159-2.01812-.18347-.79502-1.83466-2.69083-.48924-.91733-1.95697-2.50736-.12231-.42809-2.38505-2.26274.06115-.73386-2.01812-2.26274-.24462-.97848-2.07928-2.26274-.24462-.85617-2.20159-2.38505-.18346c0,0-.18347-1.65119-.42809-1.7735s-2.69083-.18346-2.69083-.18346l-.48924-2.14043-1.7735.12231-.97848-1.7735-2.26274-.24462-1.03964-2.26274-1.89581.18347-.73386-2.26274-2.38505-.30578-.61155-1.89581-2.3239-.24462-1.18579-1.98636z" fill="url(#bd)" fill-rule="evenodd"/>
 <path d="m11.149 43.167-0.06116 8.7452 6.4213 4.7701v-9.051l-6.3601-4.4643z" fill="url(#bc)" fill-rule="evenodd"/>
 <path d="m12.976 45.965 1.5312 2.9375 1.1562-1.2812-2.6875-1.6562zm-0.71875 0.1875v4.2188l1.7812-1.0938-1.7812-3.125zm3.9062 2.5312-1.3438 1.0312 1.0312 3.1875 0.3125-4.2188zm-1.9688 1.5312-1.5312 1.0312 2.5312 1.7812-1-2.8125z" fill="url(#bb)" fill-rule="evenodd"/>
 <path d="m27.539 54.664-0.06116 8.7452 6.4213 4.7701v-9.051l-6.3601-4.4643z" fill="url(#ba)" fill-rule="evenodd"/>
 <path d="m29.365 57.462 1.5312 2.9375 1.1562-1.2812-2.6875-1.6562zm-0.71875 0.1875v4.2188l1.7812-1.0938-1.7812-3.125zm3.9062 2.5312-1.3438 1.0312 1.0312 3.1875 0.3125-4.2188zm-1.9688 1.5312-1.5312 1.0312 2.5312 1.7812-1-2.8125z" fill="url(#az)" fill-rule="evenodd"/>
 <path d="m43.011 66.345-0.06115 8.7452 6.4213 4.7701v-9.051l-6.3601-4.4643z" fill="url(#ay)" fill-rule="evenodd"/>
 <path d="m44.838 69.143 1.5312 2.9375 1.1562-1.2812-2.6875-1.6562zm-0.71875 0.1875v4.2188l1.7812-1.0938-1.7812-3.125zm3.9062 2.5312-1.3438 1.0312 1.0312 3.1875 0.3125-4.2188zm-1.9688 1.5312-1.5312 1.0312 2.5312 1.7812-1-2.8125z" fill="url(#ax)" fill-rule="evenodd"/>
 <path d="m5.49931,35.92157-.17297,30.61622 .43243.17297 6.4-1.2973 .08649-1.64324 9.08108-1.98919 1.38378,1.12433 .25946-.25946 2.50811,1.72973-.08649.43243 3.24861,2.45436 .61155-.24462 2.62967,1.7735-.48924.36693 3.48585,2.69083 .18346,8.8675-.85617.36693 2.07928,1.2231 .36693-.12231 2.62967,1.83466-.18347.36693 3.48584,2.81314-.12231,6.23783 14.06569,10.21291 .48924-.73386 .18347-.30577 .06115-3.66931-.42809-.12231 .06115-1.34541 .36693-.48924h.36693l.36693-1.7735 .5504-.97848 .24462-.30578h.36693l.18346-.30578 .24462-.24462-.06116-17.18461 .48924-1.89581c0,0-2.56852.12231-2.75198-.12231s-.97848-2.38505-.97848-2.38505l-3.18007-.48924-.97848-2.62967-2.62967-.30578-.85617-1.83466-2.3239-.18347-.91733-2.20159-2.01812-.18347-.79502-1.83466-2.69083-.48924-.91733-1.95697-2.50736-.12231-.42809-2.38505-2.26274.06115-.73386-2.01812-2.26274-.24462-.97848-2.07928-2.26274-.24462-.85617-2.20159-2.38505-.18346c0,0-.18347-1.65119-.42809-1.7735s-2.69083-.18346-2.69083-.18346l-.48924-2.14043-1.7735.12231-.97848-1.7735-2.26274-.24462-1.03964-2.26274-1.89581.18347-.73386-2.26274-2.38505-.30578-.61155-1.89581-2.3239-.24462-1.18579-1.55827z" fill-opacity=".15686" fill-rule="evenodd"/>
 <path d="m124.78 48.365-37.182-0.24462-49.169-36.02 32.535-2.6297 3.4858 1.3454-0.91733 0.91733 3.3024 1.3454-0.24462 0.73386 3.3024 1.2231-0.36693 1.0396 3.9139 1.3454-0.24462 1.162 2.752 0.61155-0.61155 0.79502 3.2412 1.2843-0.24462 0.91733 3.6693 1.3454-0.73386 0.85617 4.342 1.3454-1.162 0.97848 3.6082 0.97848-0.12231 1.4677 3.3635 0.79502-0.61155 1.2843 3.1801 0.79502-0.24462 1.162 3.7916 1.4677-0.12231 1.2231 3.4858 1.2231-0.42809 1.162 3.6082 0.97848-0.5504 1.2843 2.5685 0.73386 0.48924 1.4677 3.4858 1.0396 0.42809 1.8347 3.8528 1.162 0.55039 1.59z" fill="url(#av)" fill-rule="evenodd"/>
 <path d="m60.135 73.989 28.009-26.052 36.448 0.42809 1.162 0.67271-1.7735 2.0181-60.788 23.789-3.0578-0.85617z" fill="url(#at)" fill-rule="evenodd"/>
 <path d="m59.462 93.07 0.12231-17.98 0.67271-0.97848 2.385 0.61155 2.8743-2.5074 1.59 0.85617 1.6512-1.957 2.2016 0.79502 1.6512-2.3239 2.6297 0.73386 1.957-2.5074 1.7735 0.73386 1.4066-2.0793 2.2627 0.67271 1.957-2.2016 2.2627 0.73386 1.7123-2.2627 2.8131 0.48924 1.7735-2.1404 2.2016 0.5504 1.8346-2.2016 2.5685 0.73386 1.6512-2.4462 2.0793 0.5504 1.8347-2.1404 1.8346 1.1008 1.4677-2.2627 2.5685 0.73386 1.4677-2.2627 2.1404 0.73386 0.91733-1.8958 1.8346 0.36693 1.59-1.7735 1.957 1.1008 1.2231-2.2627 1.1619 0.5504 2.0793-1.8958 0.30578 22.566-2.0181-0.61155-3.4247-0.42809-2.1404 0.30578-2.0181 0.48924-1.0396 0.67271-1.5289 1.162-0.30578 1.2231-0.5504 1.4066-0.42808-0.12231-0.18347 0.61155-0.18346 1.2843 0.36693 0.42809 0.06115 3.7916-0.36693 0.12231-0.36693 0.91733 0.12231 0.73386 0.79502 0.24462 0.18346 0.91733-3.4858 1.2231 0.18346-18.285-25.257 9.9071-0.06115 10.274-1.8958-0.5504-2.8131-0.24462-2.3239 0.36693-0.97848 0.12231-0.61155 0.67271-1.1008-0.42809-0.67271 6.7271-3.9139-2.5074h-1.6512l-2.1404-0.24462-1.59 0.06115-1.2231 0.24462-1.2843 0.24462-1.0396 0.42809-1.2231 0.48924-0.30578-0.18347z" fill="url(#au)" fill-rule="evenodd"/>
 <path d="m113.46204,73.62255 .79502-.79502 .73386-.79502 1.52888-.67271 1.22311-.48924 2.26274-.12231 1.59003-.12231 1.83466.18347 1.65119.67271 1.28426.79502-.36693.73386-12.23104,1.28426-.30578-.67271z" fill="url(#am)" fill-rule="evenodd"/>
 <path d="m84.23 87.933 0.12231-10.335 25.074-9.9683v18.469l-1.2843 0.36693 0.12231-16.695-22.444 9.1121 0.30578 15.656h-0.5504l-0.18347-3.3635-1.162-3.2412z" fill="url(#as)" fill-rule="evenodd"/>
 <path d="m86.065 94.293 0.12231-1.7735-0.36693-2.752v-10.641s22.627-9.9683 22.383-9.3567 0 16.634 0 16.634l-22.26 8.7452 0.12231-0.85617z" fill="url(#ar)" fill-rule="evenodd"/>
 <path d="m86.737 79.004 21.343 6.5436 0.12231 0.91733s-1.0396 0.48924-1.2843 0.48924-21.099-6.5436-21.099-6.5436l-0.12231-1.2843 1.0396-0.12231z" fill="url(#aq)" fill-rule="evenodd"/>
 <path d="m86.187 93.437 20.365-22.75 1.5289-0.85617-0.06116 1.4677-20.915 23.361-1.1008 0.42809v-1.0396l0.18347-0.61155z" fill="url(#ap)" fill-rule="evenodd"/>
 <path d="m113.89 73.928 1.6512-0.97848 2.8131-0.91733 2.4462-0.18346 2.8743 0.42809 2.2627 0.48924 0.12231 1.2843-3.7305 1.7123-7.3998 0.36693-1.4066-1.0396 0.36693-1.162z" fill="url(#an)" fill-rule="evenodd"/>
 <path d="m113.52 73.928 1.162 0.91733 1.0396 0.61155 2.8131 0.18347 1.5289-0.18347 1.1008-0.24462 1.957-0.48924 1.1008-0.36693 1.5289-0.85617 0.61155-0.67271 0.48924 1.8346v4.2809l-0.24462 1.957-0.61155 2.5685-0.18347 0.67271-1.3454 0.97848-1.4677 0.79502-2.4462 0.73386s-1.3454 0.06116-1.59 0.06116h-2.5074l-1.957-0.30578-1.6512-1.2843-0.30577-1.2843-0.06116-2.752c0.02693-1.7293-0.25473-3.3814 0.36693-5.2594l0.67271-1.8958z" fill="url(#ao)" fill-rule="evenodd"/>
 <path d="m112.43985,75.83508 2.98378.9946 3.11352.3027 2.46486-.21622 1.6-.3027c0,0 1.03784-.43243 1.47027-.56216s2.94054-1.21081 2.94054-1.21081l.34595.21622 .17297.64865-.12973.86486-2.72432,1.25405-2.33514.64865-1.55675.25946-1.85946.08649-1.90271-.04324-2.03243-.38919-1.94594-.51892-.95136-.25946-.08648-.56216 .21621-.86487 .21622-.34595z" fill="url(#al)" fill-rule="evenodd"/>
 <path d="m112.19171,81.88759 1.1951.33463 2.70092.54975 2.24678.19122 1.41022-.09561 1.67314-.28682 2.17507-.52584 2.22289-.74096 1.14729-.35853 .09561.64535-.14341.95608-.28683.35853-2.86823,1.00388-3.37018.81267-1.93606.07171c-.0956,0-1.93605-.11951-1.93605-.11951l-2.29459-.35853c-.28683-.0478-2.3663-.64535-2.3663-.64535l-.16731-.83657 .19122-.54975 .31072-.40633z" fill="url(#ak)" fill-rule="evenodd"/>
 <path d="m72.22283,90.14672 .79502-.79502 .73386-.79502 1.52888-.67271 1.22311-.48924 2.26274-.12231 1.59003-.12231 1.83466.18347 1.65119.67271 1.28426.79502-.36693.73386-12.23104,1.28426-.30578-.67271z" fill="url(#aj)" fill-rule="evenodd"/>
 <path d="m72.651 90.452 1.6512-0.97848 2.8131-0.91733 2.4462-0.18346 2.8743 0.42809 2.2627 0.48924 0.12231 1.2843-3.7305 1.7123-7.3998 0.36693-1.4066-1.0396 0.36693-1.162z" fill="url(#ai)" fill-rule="evenodd"/>
 <path d="m72.284 90.452 1.162 0.91733 1.0396 0.61155 2.8131 0.18347 1.5289-0.18347 1.1008-0.24462 1.957-0.48924 1.1008-0.36693 1.5289-0.85617 0.61155-0.67271 0.48924 1.8347v4.2809l-0.24462 1.957-0.61155 2.5685-0.18347 0.6727-1.3454 0.97849-1.4677 0.79501-2.4462 0.73387s-1.3454 0.06115-1.59 0.06115h-2.5074l-1.957-0.30577-1.6512-1.2843-0.30577-1.2843-0.06116-2.752c0.02693-1.7293-0.25473-3.3814 0.36693-5.2594l0.67271-1.8958z" fill="url(#ah)" fill-rule="evenodd"/>
 <path d="m71.20064,92.35925 2.98378.9946 3.11352.3027 2.46486-.21622 1.6-.3027c0,0 1.03784-.43243 1.47027-.56216s2.94054-1.21081 2.94054-1.21081l.34595.21622 .17297.64865-.12973.86486-2.72432,1.25405-2.33514.64865-1.55675.25946-1.85946.08649-1.90271-.04324-2.03243-.38919-1.94594-.51892-.95136-.25946-.08648-.56216 .21621-.86486 .21622-.34595z" fill="url(#ag)" fill-rule="evenodd"/>
 <path d="m70.9525,98.41175 1.1951.33463 2.70092.54974 2.24678.19122 1.41022-.09561 1.67314-.28682 2.17507-.52584 2.22289-.74096 1.14729-.35853 .09561.64535-.14341.95608-.28683.35853-2.86823,1.00387-3.37018.81267-1.93606.0717c-.0956,0-1.93605-.11951-1.93605-.11951l-2.29459-.35852c-.28683-.04781-2.3663-.64536-2.3663-.64536l-.16731-.83656 .19122-.54975 .31072-.40633z" fill="url(#af)" fill-rule="evenodd"/>
 <path d="m58.15713,94.79451 .79502-.79502 .73386-.79502 1.52888-.67271 1.22311-.48924 2.26274-.12231 1.59003-.12231 1.83466.18347 1.65119.67271 1.28426.79502-.36693.73386-12.23104,1.28426-.30578-.67271z" fill="url(#ae)" fill-rule="evenodd"/>
 <path d="m58.585 95.1 1.6512-0.97848 2.8131-0.91733 2.4462-0.18346 2.8743 0.42809 2.2627 0.48924 0.12231 1.2843-3.7305 1.7124-7.3998 0.36693-1.4066-1.0396 0.36693-1.162z" fill="url(#ad)" fill-rule="evenodd"/>
 <path d="m58.218 95.1 1.162 0.91733 1.0396 0.61155 2.8131 0.18347 1.5289-0.18347 1.1008-0.24462c1.7603-0.16308 1.3046-0.32616 1.957-0.48924l1.1008-0.36693 1.5289-0.85617 0.61155-0.67271 0.48924 1.8346v4.2809l-0.24462 1.957-0.61155 2.5685-0.18347 0.6727-1.3454 0.97849-1.4677 0.79501-2.4462 0.73387s-1.3454 0.06115-1.59 0.06115h-2.5074l-1.957-0.30577-1.6512-1.2843-0.30577-1.2843-0.06116-2.752c0.02693-1.7293-0.25473-3.3814 0.36693-5.2593l0.67271-1.8958z" fill="url(#ac)" fill-rule="evenodd"/>
 <path d="m57.13494,97.00704 2.98378.9946 3.11352.3027 2.46486-.21622 1.6-.3027c0,0 1.03784-.43243 1.47027-.56216s2.94054-1.21081 2.94054-1.21081l.34595.21622 .17297.64865-.12973.86486-2.72432,1.25405-2.33514.64865-1.55675.25946-1.85946.08648-1.90271-.04324-2.03243-.38919-1.94594-.51891-.95136-.25946-.08648-.56216 .21621-.86487 .21622-.34595z" fill="url(#ab)" fill-rule="evenodd"/>
 <path d="m56.8868,103.05954 1.1951.33463 2.70092.54974 2.24678.19122 1.41022-.09561 1.67314-.28682 2.17507-.52584 2.22289-.74096 1.14729-.35853 .09561.64535-.14341.95608-.28683.35853-2.86823,1.00387-3.37018.81267-1.93606.0717c-.0956,0-1.93605-.11951-1.93605-.11951l-2.29459-.35852c-.28683-.04781-2.3663-.64536-2.3663-.64536l-.16731-.83656 .19122-.54974 .31072-.40634z" fill="url(#aa)" fill-rule="evenodd"/>
 <path d="m60.099 75.269 15.38 10.872 0.57452 0.7955v0.7513l-0.48614 0.57452-15.777-11.137-0.13258-0.61872-0.08839-0.7513 0.53033-0.48614z" fill="url(#z)" fill-rule="evenodd"/>
 <path d="m62.044 78.849 0.04419 7.734 11.888 8.3969 0.26516-7.513-12.198-8.6179z" fill="url(#y)" fill-rule="evenodd"/>
 <path d="m12.174 65.11-8.883 2.0329s0.21065 0.63697 1.4583 1.6533c3.6653 2.9859 11.559 8.9091 12.021 8.9091 0.61872 0 9.0156-2.6516 9.0156-2.6516l-3.403-2.5191 0.39775-0.39775-2.6516-1.7678h-0.66291l-3.182-2.2097 0.22097-0.39775-2.5191-1.6794h-0.35355l-1.4584-0.97227z" fill="url(#r)" fill-rule="evenodd"/>
 <path d="m3.3796 67.761 1.37 1.1932 2.3865 1.9445h0.66291l3.8449 3.1378 1.6794 1.2816 0.83969 0.22097 2.6958 2.0329 0.04419 8.7504-3.7123-2.74-0.26516 0.08839-2.1655-1.591-0.53033-0.53033-3.6681-2.6958-1.9887-1.3258-0.35355-0.57452-1.2816-0.92808 0.26517-8.5295 0.17678 0.26517z" fill="url(#s)" fill-rule="evenodd"/>
 <path d="m17.036 86.367c0-0.17678-0.17678-8.8388-0.17678-8.8388s9.104-2.6075 9.104-2.4307 0.13258 9.0156 0.13258 9.0156l-8.9714 2.5191-0.08839-0.26516z" fill="url(#t)" fill-rule="evenodd"/>
 <path d="m4.694 68.646 9.4292-2.5741 2.4928 1.8154s-9.077 2.9263-9.4021 2.9805c-0.27095-0.10838-2.5741-2.0051-2.5741-2.0051l0.05419-0.21676z" fill="url(#u)" fill-rule="evenodd"/>
 <path d="m11.007 72.955 9.2125-2.4928 2.6824 1.8696s-9.077 2.9263-9.4021 2.9805c-0.27096-0.10838-2.5741-2.0051-2.5741-2.0051l0.08129-0.35224z" fill="url(#v)" fill-rule="evenodd"/>
 <path d="m4.6398 69.08-0.08129 8.5351 2.3573 1.4902s0.27096-8.237 0.18967-8.3454-2.3844-1.6528-2.4657-1.6799z" fill="url(#w)" fill-rule="evenodd"/>
 <path d="m10.709 73.361-0.08129 8.5351 2.3031 1.707s0.48772-8.0474 0.29805-8.3996c-0.06423-0.11928-2.4386-1.8154-2.5199-1.8425z" fill="url(#x)" fill-rule="evenodd"/>
 <path d="m28.625 76.851-8.883 2.0329s0.21065 0.63697 1.4583 1.6533c3.6653 2.9859 11.559 8.9091 12.021 8.9091 0.61872 0 9.0156-2.6516 9.0156-2.6516l-3.403-2.5191 0.39775-0.39775-2.6516-1.7678h-0.66291l-3.182-2.2097 0.22097-0.39775-2.5191-1.6794h-0.35355l-1.4584-0.97227z" fill="url(#d)" fill-rule="evenodd"/>
 <path d="m19.83 79.503 1.37 1.1932 2.3865 1.9445h0.66291l3.8449 3.1378 1.6794 1.2816 0.83969 0.22097 2.6958 2.0329 0.0442 8.7504-3.7123-2.74-0.26516 0.08839-2.1655-1.591-0.53033-0.53033-3.6681-2.6958-1.9887-1.3258-0.35355-0.57452-1.2816-0.92808 0.26516-8.5295 0.17678 0.26516z" fill="url(#e)" fill-rule="evenodd"/>
 <path d="m33.486 98.109c0-0.17678-0.17678-8.8388-0.17678-8.8388s9.104-2.6075 9.104-2.4307 0.13258 9.0156 0.13258 9.0156l-8.9714 2.5191-0.08839-0.26517z" fill="url(#f)" fill-rule="evenodd"/>
 <path d="m21.145 80.388 9.4292-2.5741 2.4928 1.8154s-9.077 2.9263-9.4021 2.9805c-0.27096-0.10838-2.5741-2.0051-2.5741-2.0051l0.05419-0.21676z" fill="url(#g)" fill-rule="evenodd"/>
 <path d="m27.458 84.696 9.2125-2.4928 2.6824 1.8696s-9.077 2.9263-9.4021 2.9805c-0.27095-0.10838-2.5741-2.0051-2.5741-2.0051l0.08129-0.35224z" fill="url(#h)" fill-rule="evenodd"/>
 <path d="m21.091 80.822-0.08129 8.5351 2.3573 1.4902s0.27096-8.237 0.18967-8.3454-2.3844-1.6528-2.4657-1.6799z" fill="url(#i)" fill-rule="evenodd"/>
 <path d="m27.16 85.103-0.08129 8.5351 2.3031 1.707s0.48772-8.0474 0.29805-8.3996c-0.06423-0.11928-2.4386-1.8154-2.5199-1.8425z" fill="url(#j)" fill-rule="evenodd"/>
 <path d="m21.164 61.746-8.883 2.0329s0.21065 0.63697 1.4583 1.6533c3.6653 2.9859 11.559 8.9091 12.021 8.9091 0.61872 0 9.0156-2.6516 9.0156-2.6516l-3.403-2.5191 0.39775-0.39775-2.6516-1.7678h-0.66291l-3.182-2.2097 0.22097-0.39775-2.5191-1.6794h-0.35355l-1.4584-0.97227z" fill="url(#k)" fill-rule="evenodd"/>
 <path d="m12.369 64.398 1.37 1.1932 2.3865 1.9445h0.66291l3.8449 3.1378 1.6794 1.2816 0.83969 0.22097 2.6958 2.0329 0.04419 8.7504-3.7123-2.74-0.26516 0.08839-2.1655-1.591-0.53033-0.53033-3.6681-2.6958-1.9887-1.3258-0.35355-0.57452-1.2816-0.92808 0.26516-8.5295 0.17678 0.26517z" fill="url(#l)" fill-rule="evenodd"/>
 <path d="m26.025 83.003c0-0.17678-0.17678-8.8388-0.17678-8.8388s9.104-2.6075 9.104-2.4307 0.13258 9.0156 0.13258 9.0156l-8.9714 2.5191-0.08839-0.26516z" fill="url(#m)" fill-rule="evenodd"/>
 <path d="m13.684 65.283 9.4292-2.5741 2.4928 1.8154s-9.077 2.9263-9.4021 2.9805c-0.27096-0.10838-2.5741-2.0051-2.5741-2.0051l0.05419-0.21676z" fill="url(#n)" fill-rule="evenodd"/>
 <path d="m19.997 69.591 9.2125-2.4928 2.6824 1.8696s-9.077 2.9263-9.4021 2.9805c-0.27096-0.10838-2.5741-2.0051-2.5741-2.0051l0.08129-0.35224z" fill="url(#o)" fill-rule="evenodd"/>
 <path d="m13.63 65.716-0.08129 8.5351 2.3573 1.4902s0.27096-8.237 0.18967-8.3454-2.3844-1.6528-2.4657-1.6799z" fill="url(#p)" fill-rule="evenodd"/>
 <path d="m19.699 69.997-0.08129 8.5351 2.3031 1.707s0.48772-8.0474 0.29805-8.3996c-0.06423-0.11928-2.4386-1.8154-2.5199-1.8425z" fill="url(#q)" fill-rule="evenodd"/>
 <path d="m12.19458,64.12123-.28125,8.53125 1.28125.9375 .34375.53125v.125l2.375,1.5 3.3125,2.4375 .53125.53125 2.15625,1.59375 .28125-.09375 3.6875,2.75-.03125-8.75-2.6875-2.03125-.84375-.21875-.09375-.0625c-.00278-.01001.00315-.05666 0-.0625-.04934-.09163-1.24836-.95623-1.9375-1.4375l-3.5-2.875h-.65625l-.03125-.03125c-.00121-.00675.00142-.09186 0-.09375-.03048-.04064-.51646-.36746-.9375-.65625l-1.4375-1.15625-1.34375-1.1875-.1875-.28125zm-9,3.375-.25,8.53125 1.28125.9375 .34375.5625v.09375l2.34375,1.46875 3.3125,2.46875 .53125.53125 2.15625,1.59375 .28125-.09375 3.71875,2.71875-.0625-8.75-2.6875-2.03125-.84375-.21875-.09375-.09375c-.04054-.0753-.87003-.672-1.59375-1.1875l-3.84375-3.125h-.65625l-.03125-.03125c-.00149-.01067.00185-.12254 0-.125-.04064-.05419-.62265-.44071-1.21875-.84375l-1.125-.9375-1.375-1.21875-.1875-.25zm16.46875,11.75-.28125,8.53125 1.28125.90625 .34375.53125v.15625l2.375,1.46875 3.3125,2.4375 .53125.53125 2.15625,1.59375 .25-.0625 3.71875,2.71875-.03125-8.75-2.71875-2.03125-.8125-.21875-.09375-.0625c-.00278-.01001.00315-.05666 0-.0625-.04005-.07437-.87332-.64263-1.59375-1.15625l-3.84375-3.125h-.65625l-.03125-.03125c-.00152-.01111.00189-.12248 0-.125-.04064-.05419-.6539-.47196-1.25-.875l-1.125-.9375-1.375-1.1875-.15625-.25z" fill-opacity=".15686" fill-rule="evenodd"/>
 <path d="m71.19458,9.33998-33.03125,2.40625-33.03125,23.875-.125,31.03125 .0625.0625-1.84375.40625-.28125,9.4375 10.625,7.78125 3.53125,2.59375 2.09375-.5625-.0625,1.875 10.625,7.78125 3.53125,2.59375 9.46875-2.59375v-2.15625l13.65625,9.875c-.1104.38919-.11633.79726.125,1.25 .24431.01865.44125.28922.6875.3125 .06828.31294.06809.62511.09375.9375 .64145,1.64594 2.52929,1.70991 4.09375,1.9375 3.26805.28834 6.12121-.62073 8.875-2.28125l.46875-.375c.11269-.37069.21543-.74602.3125-1.125 .3307-.14962.22796-.03957.5625-.21875 .10677-.47249.32374-1.08066.3125-1.65625 .87718.70532 2.21258.79965 3.375.96875 3.12379.17794 6.25703-.36931 8.75-2.21875 .03745-.02778.08784-.03412.125-.0625l.46875-.375c.11269-.37069.21543-.74602.3125-1.125 .3307-.14962.22796-.03957.5625-.21875 .15527-.6871.55213-1.67855.125-2.40625l-.1875.09375c.08354-.56741.13712-1.13855.1875-1.71875l26.90625-10.46875c.0008.01037-.00085.02088 0,.03125 .64145,1.64594 2.52929,1.70991 4.09375,1.9375 3.12378.17794 6.25702-.36931 8.75-2.21875 .03745-.02778.08784-.03412.125-.0625l.46875-.375c.11269-.37069.21542-.74602.3125-1.125 .3307-.14962.22796-.03957.5625-.21875 .15527-.6871.55212-1.67855.125-2.40625l-.1875.09375c.18243-1.23906.30685-2.50585.28125-3.8125 .14169-.07079.26385-.14248.40625-.21875 .37766-.96727.20756-1.48806-.34375-2.125-.07888.03961-.16936.0544-.25.09375-.09602-.804-.2155-1.61405-.40625-2.4375l-.03125.03125c-.02281-.29699-.09768-.59797-.3125-.96875l-.15625-.09375-.09375-15.4375 .0625-.03125-.0625-.09375-.03125-6.4375-1.46875-2.53125-3.4375-1.03125-.90625-2-3.125-.9375-.6875-1.4375-2.5-.875 .34375-1.15625-3.1875-.90625 .1875-1.21875-3.28125-1.03125-.1875-1.5-3.71875-1.34375 .1875-1.125-2.90625-.84375 .34375-1.3125-3.3125-.84375-.0625-1.40625-3.125-.9375 1.125-1-4.46875-1.40625 .59375-.9375-3.65625-1.28125 .40625-.96875-3.1875-1.0625 .4375-.96875-2.5625-.59375-.0625-1.1875-3.6875-1.53125 .15625-.84375-2.96875-1.1875 .09375-.78125-2.90625-1.28125 .40625-.96875-3.5625-1.34375zm-.34375.5625 3,.84375-.875.71875-31.34375,2.78125-2.53125-1.8125 31.75-2.53125zm2.75,2 2.5625,1.03125-.3125.625-31.375,2.75-2.34375-1.6875 31.46875-2.71875zm-35.3125.59375 2.59375,1.90625-31.9375,22.84375-2.0625.125-.1875-1.75 31.59375-23.125zm38.15625,1.46875 2.90625,1.15625-.40625.6875-31.3125,2.78125-2.65625-1.90625 31.46875-2.71875zm-35.0625.78125 2.46875,1.84375-31.90625,22.84375-1.9375.09375-.5-1.875 31.875-22.90625zm38.15625,1.5 3.1875,1.15625-.625.6875-31.3125,2.78125-2.625-1.90625 31.375-2.71875zm-35.1875.6875 2.53125,1.875-31.90625,22.8125-2.1875.375-.28125-2.1875 31.84375-22.875zm38.34375,1.59375 2.65625.6875-.75.6875-31.28125,2.78125-2.03125-1.4375 31.40625-2.71875zm-35.3125.65625 2.5,1.84375-31.84375,22.8125-2.09375.25-.75-1.875 32.1875-23.03125zm37.78125,1.15625 2.96875.90625-.59375.8125-31.6875,2.40625-.03125.03125-2-1.4375 31.34375-2.71875zm-34.78125,1.0625 2.21875,1.625-31.84375,22.75-1.625.34375-.53125-1.875 31.78125-22.84375zm37.6875,1.03125 3.46875,1.0625-1.0625.6875-31.6875,2.46875-2.40625-1.75 31.6875-2.46875zm-34.96875.9375 2.125,1.5625-31.53125,22.96875-2.28125.1875-.09375-1.875 31.78125-22.84375zm37.96875,1.25 3.71875,1.1875-1.0625.75-32,2.21875-2.46875-1.78125 31.8125-2.375zm-35.46875.59375 2.34375,1.71875-31.40625,23.0625-1.875.125-.4375-1.8125 31.375-23.09375zm38.71875,1.78125 3.46875.75-1.03125,1.03125-31.9375,2.21875-2.59375-1.84375 32.09375-2.15625zm-36.03125.1875 2.65625,1.9375-31.1875,23.21875-2.09375.125-.59375-2.09375 31.21875-23.1875zm39.09375,2.0625 3.4375.8125-1.15625.84375-31.9375,2.21875-2.53125-1.84375 32.1875-2.03125zm-36.0625.15625 2.65625,1.96875-30.96875,23.3125-1.78125.0625-.9375-2.03125 31.03125-23.3125zm38.71875,1.78125 3.375,1.03125-.96875.71875-31.875,2.21875-2.34375-1.6875 31.8125-2.28125zm-35.75.40625 2.5,1.84375-30.8125,23.3125-1.78125.34375-.625-2 30.71875-23.5zm38.78125,1.78125 3.84375,1.375-.75.875-32.5625,1.71875-2.53125-1.8125 32-2.15625zm-35.875.375 2.5,1.8125-30.71875,23.3125-2.09375.53125-.40625-2.21875 30.71875-23.4375zm3,2.1875 2.40625,1.75-30.25,23.75-2.1875.09375-.71875-2.1875 30.75-23.40625zm36.53125.09375 3.59375,1.1875-.875.8125-32.78125,1.53125-2.65625-1.90625 32.71875-1.625zm-100.875.25 .53125,1.5 2.15625.4375 .9375,1.6875 2.15625.53125 .8125,1.8125 1.90625.125 1.0625,2.125 2.34375.3125 .78125,1.78125 1.71875.03125 .65625,1.9375 2.40625.25 .6875,1.65625 2.1875.40625 .96875,1.96875 2.1875.3125 1.21875,2.03125 2.15625.375 .71875,1.78125 2.15625.28125 .71875,1.96875 2.375.28125 1.03125,1.9375 2.46875.5625 .71875,1.78125 2.25.34375 1.03125,2.09375 2.3125.3125 .6875,1.8125 2.4375.40625 1.34375,2.28125 2.6875.59375 1.125,2.28125 2.59375.40625v1.78125l-53.53125-38.4375v-1.75zm67.125,1.6875 2.6875,1.96875-30.25,23.71875-1.96875.15625-.5625-2 30.09375-23.84375zm-67.125.1875 53.53125,38.5-.03125,1.9375-9.875-7.09375v-.96875l-6.71875-4.59375v.71875l-8.875-6.34375v-1.40625l-6.625-4.65625-.03125,1.28125-9.53125-6.84375v-1.21875l-6.8125-4.75v1.0625l-5.0625-3.625 .03125-2zm104.21875.3125 3.34375.78125-.84375,1.0625-32.96875,1.375-2.53125-1.84375 33-1.375zm-104.25,1.8125 5.03125,3.625v1.96875l-5.03125-3.625v-1.96875zm70.3125,0 2.3125,1.6875-29.75,24.0625-2.15625.1875-.59375-2.15625 30.1875-23.78125zm37,.4375 2.59375.8125 .0625,1.09375-33.09375,1.28125-2.90625-2.09375 33.34375-1.09375zm-34.3125,1.53125 2.75,2.03125-29.59375,24.125-2.1875-.09375-.53125-1.875 29.5625-24.1875zm-73,.125 5.03125,3.625-.03125,2.09375-5.03125-3.59375 .03125-2.125zm110.4375.625 3.25.875 .09375,1.5625-34.09375.53125-2.4375-1.78125 33.1875-1.1875zm-104.8125.65625 5.65625,4-.03125,8.34375-5.75-4.34375 .125-8zm70.46875.875 2.59375,1.90625-28.71875,24.71875-2.375-.15625-.9375-2.21875 29.4375-24.25zm-76.125.0625 5.03125,3.59375-.03125,2.09375-5-3.59375v-2.09375zm6.25.28125 .03125,6.28125 4.15625,3.03125 .03125-6.40625-4.21875-2.90625zm.5,1.0625 .5.3125 1.375,2.84375 1.21875-1.15625 .25.15625-.03125.53125-1.1875,1.0625 1.03125,2.875-.03125.5-.46875-.375-.9375-2.84375-1.46875,1.0625-.09375-.0625v-.34375l1.5-1.15625-1.625-2.84375-.03125-.5625zm107.8125.03125 3.3125.90625-.4375,1.1875-35.53125-.53125-1.78125-1.28125 34.4375-.28125zm-106.9375.53125 1.9375,1.25-.90625.875-1.03125-2.125zm71.375.15625 2.1875,1.59375-27.53125,25.5625-2.25-.0625-.59375-2 28.1875-25.09375zm-79,.21875 5,3.59375-.03125,1.5625 6.875,5v-1.65625l9.53125,6.8125-.03125,1.375 6.78125,4.8125v-1.3125l8.75,6.3125-.03125,1.875 6.78125,4.90625v-1.96875l9.90625,7.125v2.25l-53.5625-38.46875 .03125-2.21875zm6.78125,0 1.1875,2.25-1.09375.875-.09375-3.125zm75.84375,1.59375 3.09375.03125 5.125,11.4375-1.1875,2.125-2-.875-5.03125-12.71875zm-.40625.03125 4.90625,12.875-1.84375,2.1875-2.34375-.5625-3.6875-11.6875 2.96875-2.8125zm4.09375.03125 4.71875.0625 4.28125,9.625-1.4375,2.34375-2.5-.8125-5.0625-11.21875zm5.3125.0625 4,.03125 3.4375,8.125-1.15625,1.875-2.15625-.59375-4.125-9.4375zm4.5.0625 3.21875.03125 3.15625,6.75-1.15625,2.125-1.84375-.96875-3.375-7.9375zm3.9375.03125 3.65625.0625 2.625,5.1875-1.0625,2.0625-2.34375-.75-2.875-6.5625zm4.375.0625 3.34375.03125 1.84375,3.875c-.53088.1448-.53906,1.69895-.84375,1.84375l-1.78125-.8125-2.5625-4.9375zm3.96875.0625 3.09375.03125 1.34375,2.59375-.96875,1.5625-1.5625-.59375-1.90625-3.59375zm-96.5.03125 9.53125,6.84375v1.96875l-9.5625-6.84375 .03125-1.96875zm100.09375,0 3.40625.03125 .5625,1.34375-.84375,1.90625-1.78125-.90625-1.34375-2.375zm4,.0625 3.28125.03125-1.28125,1.75-1.5-.6875-.5-1.09375zm-105.9375.125-.15625,3.15625-.6875-2.4375 .84375-.71875zm-10.09375.1875 53.5625,38.5-.03125,2.15625-23.96875-17.1875v-.875l-3.46875-2.6875 .15625-.375-2.8125-1.875-.3125.125-3.34375-2.40625 .09375-.25-2.53125-1.78125-.5-.0625-1.34375-.96875-1.09375.25-14.4375-10.375 .03125-2.1875zm119.40625.4375v1.46875l-25.4375,9.9375 1.875-2.3125 2.0625.5625 1.59375-1.96875 1.96875.625 1.5-1.96875 2.4375.5 1.40625-2 2.1875.4375 1.1875-1.71875 1.9375.375 1.15625-1.5625 2.0625.625 1.1875-1.875 1.6875.5 1.1875-1.625zm-111.03125.8125 .625,1.90625-1.65625-1.25 1.03125-.65625zm3.53125.46875 9.53125,6.84375v2.09375l-9.53125-6.875v-2.0625zm107.5.40625 .03125,2.03125-61.75,24.0625-1.84375-1.3125 63.5625-24.78125zm-119.4375.21875 14.28125,10.25-2.125.5-12.15625-8.75v-2zm78.96875.0625 3.53125,11.5625-1.375,2.03125-2.21875-.625-2.9375-10.15625 3-2.8125zm-67.03125,1.5 9.53125,6.875-.03125,2.03125-9.53125-6.8125 .03125-2.09375zm107.53125.46875v2.21875l-59.53125,23.1875-2-1.40625 61.53125-24zm-119.46875.09375 12.03125,8.65625-2.46875.5625-9.5625-6.875-.03125.03125 .03125-2.375zm75.5625,1.125 2.875,9.96875-1.53125,2.125-2.1875-.6875-1.75-8.96875 2.59375-2.4375zm-53.46875.375 5.5625,3.75-.125,8.40625-5.5625-4.15625 .125-8zm97.375.78125v1.875l-57.625,22.5-1.71875-1.21875 59.34375-23.15625zm-119.5.1875 9.4375,6.78125-.0625.03125-2.375.53125-6.96875-5-.03125.0625v-2.40625zm22.71875.25 .03125,6.28125 4.15625,3.03125 .03125-6.40625-4.21875-2.90625zm.5,1.0625 .5.3125 1.375,2.84375 1.21875-1.15625 .25.15625-.03125.53125-1.1875,1.0625 1.03125,2.875-.03125.5-.46875-.375-.9375-2.84375-1.46875,1.0625-.09375-.0625v-.34375l1.5-1.15625-1.625-2.84375-.03125-.5625zm49.375.15625 1.65625,8.78125-.90625,1.6875-1.75-.65625c-.46245-2.57511-.88332-5.15546-1.21875-7.75l2.21875-2.0625zm-48.5.40625 1.9375,1.25-.90625.875-1.03125-2.125zm95.40625,0v2.125l-55.5625,21.65625-1.9375-1.375 57.5-22.40625zm-96.25.375 1.1875,2.25-1.09375.875-.09375-3.125zm-23.25.25 6.78125,4.90625-.46875.09375-.03125,1.46875-.28125.0625-6.03125-4.34375 .03125-2.1875zm69.90625,1.4375c.23633,2.51101.68988,5.07693 1.125,7.5625l-1.5,2.1875-2.4375-.6875-.5-5.9375 3.3125-3.125zm49.59375.25 .03125,2.1875-15.53125,6.0625v-1.3125l-25.5625,10.15625v1.125l-12.3125,4.78125-2-1.40625 55.375-21.59375zm-28,.09375 2.46875.65625-38.21875,14.9375-1.4375-1.03125v-.1875l3.09375.09375 2.5625-2.28125 1.625.65625 1.5625-1.875 2.125.75 1.6875-2.25 2.71875.59375 1.8125-2.34375 2.09375.75 1.15625-2 2.28125.375 1.8125-1.9375 2.40625.4375 1.6875-2.03125 2.71875.40625 1.96875-2.21875 2.125.6875 1.75-2.1875zm-63.3125.0625 8.875,6.375-.03125,1.90625-8.84375-6.34375v-1.9375zm-1.65625.0625-.15625,3.15625-.6875-2.4375 .84375-.71875zm-26.5625.40625 5.875,4.25-2.5.59375-3.375-2.4375v-2.40625zm15.5,1.03125 1.15625.78125-.90625.25-1.09375-.8125 .84375-.21875zm9.34375,0 .625,1.90625-1.65625-1.25 1.03125-.65625zm-10.3125.25 1.0625.8125-1.28125.3125-1.09375-.8125 1.3125-.3125zm13.6875.3125 8.84375,6.375-.03125,2.0625-8.78125-6.3125-.03125-2.125zm-15.125.03125 1.09375.8125-1.5.375-1.09375-.8125 1.5-.375zm106.46875.125v2.09375l-15.53125,6.0625v-2.09375l15.53125-6.0625zm-102.09375.21875 2.15625,1.625-8.96875,2.71875-2.5-1.8125 9.3125-2.53125zm-6,.0625 1.09375.84375-1.5.375-1.09375-.84375 1.5-.375zm-1.6875.4375 1.09375.8125-1.65625.4375-1.125-.8125 1.6875-.4375zm-9.78125.09375 3.1875,2.3125-2.28125.53125-.9375-.6875 .03125-2.15625zm66.03125.21875 .59375,5.625-1.34375,2-1.90625-.75-.375-4.03125 3.03125-2.84375zm-58.09375.15625 1.09375.84375-1.03125.25-.96875-.875 .90625-.21875zm-1.1875.84375 .9375.6875v1.21875l-.96875-.6875 .03125-1.21875zm21.5.0625 8.78125,6.3125-.03125,2.09375-8.75-6.3125v-2.09375zm-8.78125.15625 2.96875,2.21875-.78125.1875-2.96875-2.1875 .78125-.21875zm100.09375.03125v2.0625l-15.5625,6.0625 .03125-2.0625 15.53125-6.0625zm-101.0625.25 2.9375,2.1875-1.21875.28125-2.90625-2.125 1.1875-.34375zm-12.21875.3125v.4375l-.40625-.3125 .40625-.125zm10.84375.09375 2.84375,2.125-1.40625.34375-2.8125-2.09375 1.375-.375zm-11.375.0625 .53125.40625-.03125.53125-.71875.1875-1.09375-.8125 1.3125-.3125zm-5.78125.0625 .84375.625-.1875.03125-.1875.03125-.46875-.3125v-.375zm4.34375.28125 1.09375.8125-1.5.375-1.09375-.8125 1.5-.375zm3.8125,0 2.09375,1.5-.1875,7.8125-2.03125-1.34375 .125-7.96875zm-1.40625.03125 .96875.75-.03125,1.46875-.96875-.75 .03125-1.46875zm8.8125,0 2.78125,2.09375-1.40625.34375-2.75-2.03125 1.375-.40625zm-12.84375.375 1.09375.84375-1.5.375-1.09375-.84375 1.5-.375zm11.25.09375 2.71875,2.03125-1.65625.40625-2.65625-1.96875 1.59375-.46875zm23.71875.3125 5.5625,3.75-.03125,8.5-5.65625-4.25 .125-8zm-36.65625.03125 1.09375.8125-1.65625.4375-1.125-.8125 1.6875-.4375zm61.53125.125 .28125,3.8125-1.40625,1.90625-1.3125-.84375-.25-2.34375 2.6875-2.53125zm-56.28125.03125-.09375,2.40625-4.28125,1.28125-2.5-1.8125 6.875-1.875zm5.90625,0 2.625,1.96875-.84375.21875-2.625-1.9375 .84375-.25zm11.3125.09375 2.375,1.625-9.15625,2.90625-2.3125-1.78125 9.09375-2.75zm96.09375.0625 .03125,2.3125-1.84375.71875c-.12357-.0195-.251-.04849-.375-.0625-.06869-.00394-.21202.19207-.28125.1875-.07565-.005-.08016-.21364-.15625-.21875-.24014-.01612-.47896-.02806-.71875-.03125-.09657-.0053-.24721.31332-.34375.3125-.09072-.00077-.12806-.31426-.21875-.3125-.26183.0051-.51955.02716-.78125.03125-.06388.00338-.1237.30843-.1875.3125s-.12702-.28575-.1875-.28125c-.25591.01907-.49676.03117-.75.0625-.08257.01022-.16781.33213-.25.34375s-.17342-.29339-.25-.28125c-.25306.04012-.50215.10147-.75.15625-.06584.01456-.09084.2656-.15625.28125s-.18074-.20548-.25-.1875c-.24382.06326-.4825.13882-.71875.21875-.06247.02113-.06313.29014-.125.3125s-.16045-.2099-.21875-.1875c-.2754.10582-.55126.21138-.8125.34375-.08013.0406-.14011.39427-.21875.4375-.08269.04546-.16904-.20469-.25-.15625-.33133.19828-.67007.40476-.96875.65625-.0547.04605-.04383.35491-.09375.40625-.07305.07512-.20556-.10558-.28125-.03125-.33537.32934-.65925.67731-.9375,1.09375-.03891.2023-.10563.43423-.15625.65625l-3.3125,1.28125v-2.28125l15.5625-6.09375zm-120.40625.15625 1.09375.84375-1.03125.25-.96875-.875 .90625-.21875zm7.5.34375 1,.75v1.71875l-1.03125-.75 .03125-1.71875zm4.21875.09375 2.96875,2.1875v1.21875l-3.03125-2.1875 .0625-1.21875zm92.59375.25-.0625,17.75-.6875.25v-16.53125l-22.84375,9.3125v12.03125c-.09094-.72276-.2038-1.44847-.375-2.1875l-.03125.03125c-.0228-.29699-.09768-.59797-.3125-.96875l-.21875-.125-.09375-9.71875 24.625-9.84375zm-65.21875.03125 .03125,6.28125 4.15625,3.03125 .03125-6.40625-4.21875-2.90625zm-40.28125.125 .9375.6875v1.21875l-.96875-.6875 .03125-1.21875zm40.78125.9375 .5.3125 1.375,2.84375 1.21875-1.15625 .25.15625-.03125.53125-1.1875,1.0625 1.03125,2.875-.03125.5-.46875-.375-.9375-2.84375-1.46875,1.0625-.09375-.0625v-.34375l1.5-1.15625-1.625-2.84375-.03125-.5625zm-27.9375.0625 3.03125,2.25-.03125,1.375-3.0625-2.25 .0625-1.375zm14.53125.15625 2.8125,2.09375-.6875.1875-2.8125-2.0625 .6875-.21875zm-26,.15625 2.09375,1.5-.1875,7.8125-2.03125-1.34375 .125-7.96875zm-1.40625.03125 .96875.75-.03125,1.46875-.96875-.75 .03125-1.46875zm8.6875.03125 1.03125.78125-.03125,1.75-1.0625-.78125 .0625-1.75zm17.75.09375 2.78125,2.0625-1.0625.3125-2.78125-2.0625 1.0625-.3125zm95.21875,0v1.0625h-.03125c-.04748-.01987-.10851.33134-.15625.3125s-.07356-.38722-.125-.40625c-.25024-.09255-.49441-.18415-.75-.25-.0615-.01585-.15701.2331-.21875.21875-.07037-.01636-.11686-.29805-.1875-.3125-.0299-.00612-.06381.00578-.09375,0l1.5625-.625zm-113.4375.03125-.03125.8125-.75-.5625 .78125-.25zm33.46875,0 1.9375,1.25-.90625.875-1.03125-2.125zm19.71875.28125 .15625,2.125-2.03125,2.25-2.09375-.65625 3.96875-3.71875zm-54.1875.03125 .96875.71875-.03125,1.625-2.53125-1.875 1.59375-.46875zm17.90625.0625 2.71875,2.0625-1.25.375-2.78125-2.03125 1.3125-.40625zm15.71875,0 1.1875,2.25-1.09375.875-.09375-3.125zm-24.5.25 2.21875,1.875-.34375,7.875-1.9375-1.5 .0625-8.25zm87.90625,0v.75l-21.0625,23.34375-.5.21875-.03125-.875 20.4375-22.9375 1.15625-.5zm-98.8125.1875 2.625,1.96875-.84375.21875-2.625-1.9375 .84375-.25zm18.125.03125 2.71875,2.0625-1.28125.375-2.71875-2.03125 1.28125-.40625zm-10.75.25 3.0625,2.3125v1.59375l-3.125-2.28125 .0625-1.625zm104.9375,0h.0625l-.0625.84375c-.30959-.0223-.6143-.06377-.90625-.0625v-.71875c.30128-.01394.60846-.05374.90625-.0625zm.21875,0c.32799.01792.64579.04509.96875.09375l-.125.84375c-.28975-.04285-.57053-.06937-.84375-.09375v-.84375zm-1.3125.0625-.03125.71875c-.32703.00815-.65831.02524-.96875.0625v-.71875c.33123-.03113.66738-.04526 1-.0625zm-1.1875.0625-.03125.71875c-.28709.04082-.56564.12243-.84375.1875l-.03125-.78125c.29848-.05004.60176-.09324.90625-.125zm3.65625,0c.35965.06149.71042.17537 1.0625.28125v.78125c-.38284-.086-.7395-.12906-1.09375-.1875l.03125-.875zm-97.125.125 2.6875,2.03125-1.46875.4375-2.6875-2 1.46875-.46875zm92.375.03125 .0625.78125c-.33923.08506-.66586.19278-1,.3125l-.03125-.875c.31465-.09066.64078-.15845.96875-.21875zm-114.4375.09375 1,.75v1.71875l-1.03125-.75 .03125-1.71875zm120.40625.0625c.31355.10071.631.23418.9375.375l-.03125.625c-.29247-.07863-.59911-.15452-.875-.21875l-.03125-.78125zm-116.1875.03125 2.96875,2.1875v1.21875l-3.03125-2.1875 .0625-1.21875zm97.9375,0-3.625,4.09375-5.3125,1.9375-.03125-2.0625 8.96875-3.96875zm11.15625.09375c-.0144.30237-.0481.60277-.0625.90625-.31582.12128-.64881.2558-.96875.40625v-.90625c.33123-.16207.67398-.29553 1.03125-.40625zm-104.625.15625 1.0625.8125v1.125l-1.09375-.78125 .03125-1.15625zm11.59375.09375 2.6875,2-.71875.21875-2.6875-2 .71875-.21875zm25.65625.0625 9.875,7.09375v1.9375l-9.90625-7.09375 .03125-1.9375zm75.5625,0 .25.125c.20474.26367.33234.45884.375.65625l-.6875-.1875 .0625-.59375zm-17.1875.21875-.03125,1.34375-1.75.65625 1.78125-2zm7.71875,0v.90625c-.34503.16903-.70282.36206-1.0625.5625l-.03125-.71875c.33504-.30629.70598-.53809 1.09375-.75zm-81.0625.125 .3125,8.28125-8.6875,2.6875 .03125-8.625 8.34375-2.34375zm85.21875.0625c.60744-.03162 1.21393-.01819 1.8125.03125 1.39122.1149 2.73917.40963 4.09375.75-.054.16006-.16063.32972-.3125.46875-.03276.02999.00516.40793-.03125.4375s-.14454-.31278-.1875-.28125c-.33343.30305-.76721.45704-1.15625.65625-.05907.0233-.09637.32082-.15625.34375s-.12807-.24087-.1875-.21875c-.46677.17375-.95706.33294-1.4375.46875-.04714.01333-.01528.26832-.0625.28125-.04407.01207-.17462-.23047-.21875-.21875-.40951.10882-.80804.20375-1.21875.28125-.0528.00996-.1035.24058-.15625.25s-.10661-.19588-.15625-.1875c-.42244.07136-.83467.13181-1.25.15625-.06493.00382-.12287.24731-.1875.25-.07536.00314-.17508-.25158-.25-.25-.43687.00922-.86452-.01499-1.28125-.0625-.06765-.00771-.12052.29055-.1875.28125s-.15072-.33249-.21875-.34375c-.41513-.0687-.80543-.14515-1.1875-.28125-.06657-.02372-.2471.27588-.3125.25s-.02463-.40703-.09375-.4375c-.37014-.16317-.73869-.35316-1.0625-.59375-.03026-.02248-.15769.17944-.1875.15625-.03496-.0272.03433-.28432 0-.3125 1.90603-1.25253 3.7714-1.78013 5.59375-1.875zm-72,.15625-.15625,3.15625-.6875-2.4375 .84375-.71875zm-25.03125.125 2.84375,2.09375v1.21875l-2.90625-2.125 .0625-1.1875zm-6.34375.25 3.125,2.375-.03125,1.6875-3.15625-2.375 .0625-1.6875zm-8.65625.0625 3.03125,2.25-.03125,1.375-3.0625-2.25 .0625-1.375zm106.625.125-.03125.6875c-.13653.07758-.26663.13696-.40625.21875-.06046-.05669-.12934-.09613-.1875-.15625 .19022-.27066.40432-.53108.625-.75zm-79,.03125 23.96875,17.21875v2l-23.96875-17.21875v-2zm-31.8125.21875 1.03125.78125-.03125,1.75-1.0625-.78125 .0625-1.75zm8.34375.125 2.40625,1.75-.6875.21875-2.3125-1.78125 .59375-.1875zm21.90625.125-6.46875,1.8125-.34375,6.625 6.5625-2.1875 .25-6.25zm92.3125.03125c.14502.50764.25282,1.00992.34375,1.5-.26684.12735-.56046.24909-.84375.375-.0331-.44923-.07178-.89696-.125-1.34375 .24606-.16182.45573-.34608.625-.53125zm-92.625.15625-.03125.4375-.40625-.3125 .4375-.125zm-.53125.15625 .5.4375-.03125,1.125-1.78125-1.15625 1.3125-.40625zm74.90625,0-.03125,3.90625-7.15625,2.4375 4.875-5.46875 2.3125-.875zm-61.8125.03125 .625,1.90625-1.65625-1.25 1.03125-.65625zm3.4375.0625 9.90625,7.125v2.0625l-9.90625-7.0625v-2.125zm-38.28125.0625 2.21875,1.875-.34375,7.875-1.9375-1.5 .0625-8.25zm11.46875.03125 2.875,2.1875v1.28125l-2.9375-2.1875 .0625-1.28125zm102.65625.125c.04777.43689.09462.87413.125,1.3125-.46913.20522-.9582.44035-1.46875.625-.01459-.42771-.04008-.85316-.0625-1.28125l.5-.15625c.32616-.16001.63289-.33215.90625-.5zm-93.90625.15625 2,1.25-.0625,1.9375-3.78125-2.625 1.84375-.5625zm-23.75.15625 3.0625,2.3125v1.59375l-3.125-2.28125 .0625-1.625zm106,.0625c.06604.07113.14842.1225.21875.1875-.07873.49234-.16235.95099-.21875,1.40625l-.46875-.1875c.13444-.46072.28013-.93953.46875-1.40625zm-.6875.15625-.25,1.0625-.40625-.15625c-.19712.58431-.42317,1.15523-.4375,1.8125l-2.1875.84375v-2.28125l3.28125-1.28125zm-96.6875.09375 3.1875,2.375v.96875l-3.21875-2.34375 .03125-1zm97.71875.0625c.39385.33177.84935.57523 1.34375.75-.04718.35085-.06147.70569-.09375,1.0625-.46304-.12282-.93169-.28607-1.40625-.46875 .04966-.44959.08644-.90176.15625-1.34375zm9.75,0c.02216.43811.04828.87439.0625,1.3125-.49086.17307-1.00569.30107-1.53125.4375-.01793-.4362-.03203-.87485-.0625-1.3125 .54828-.14265 1.05851-.29546 1.53125-.4375zm-94.34375.0625-.03125.0625 3.96875,2.71875-.0625,1.84375-5.5-4.125 1.625-.5zm5.9375.25 23.96875,17.21875v1.15625l-.09375.0625c-.05469.04605-.04383.32366-.09375.375-.07305.07512-.20556-.07433-.28125,0-.06818.06696-.12055.14983-.1875.21875l-23.28125-16.71875-.03125-2.3125zm-31.875.03125 1.0625.8125v1.125l-1.09375-.78125 .03125-1.15625zm123.25.09375c.49731-.05952 1.0197.35347.46875,1.25-1.01051.6772-2.0751,1.17438-3.1875,1.53125-.00016-.01038.00015-.02087 0-.03125l-.125.0625c-4.22478,1.31197-8.85768.58507-11.5625-.5-.2464-.3675-.04599-1.09204.21875-1.34375 3.56702,1.2575 8.34402,1.99878 14.1875-.96875zm-4.65625.03125c.02699.44172.04483.87458.0625,1.3125-.48681.12144-.98615.20506-1.5.28125v-1.28125c.49299-.09632.97263-.19405 1.4375-.3125zm-107.40625.09375 2.71875,2-.34375.09375-2.6875-2 .3125-.09375zm12.9375.09375 5.53125,4.125-2,.5625c-1.71447-1.40631-2.04702-1.46812-3.53125-2.96875v-1.71875zm-5,.125 2.9375,2.1875-.03125,1.59375-2.96875-2.21875 .0625-1.5625zm92.90625.03125c.50651.16129 1.05555.21291 1.625.25-.02568.36301-.0438.72751-.0625,1.09375-.53571-.063-1.0709-.17393-1.625-.3125 .02597-.3443.0257-.6883.0625-1.03125zm4.96875,0v1.28125c-.46924.0643-.94774.10882-1.4375.125v-1.1875c.48601-.05003.95658-.12852 1.4375-.21875zm-60.34375.09375c.0425-.0137.07949-.01132.125,0s.10477.04379.15625.09375l15.0625,10.9375c.22967.16897.97727.79367-.0625,1.4375l-.65625-.46875c.19271-.24529.45279-.4058.84375-.625l-.15625-.28125c-.67909.06436-.79535.40154-.84375.78125l-14.5-10.4375c-.45988-.66909-.26628-1.34161.03125-1.4375zm35.75.0625v2l-5.84375,2.15625-2.5625-.875 8.40625-3.28125zm23,.09375v1.1875c-.5294.01125-1.07387-.00573-1.625-.0625 .01568-.36552.04385-.73004.0625-1.09375 .50728.0223 1.03527.01718 1.5625-.03125zm-104.9375.125 2.84375,2.09375v1.21875l-2.90625-2.125 .0625-1.1875zm35.53125.15625 9.90625,7.09375-.03125,2.0625-9.90625-7.125 .03125-2.03125zm52,.03125-4.65625,5.25-.03125-3.46875 4.6875-1.78125zm-93.875.0625 3.125,2.375-.03125,1.6875-3.15625-2.375 .0625-1.6875zm119.0625.9375c.04643,1.32888-.06137,2.61517-.34375,3.875-.21713.10127-.45872.18207-.6875.28125 .05703-1.24236.08226-2.4847.0625-3.71875 .32476-.14061.64082-.27295.96875-.4375zm-99.03125.21875c1.30349,1.19811 1.79204,1.64889 3.25,2.8125l-1.46875.40625-1.78125-1.5625v-1.65625zm-5.09375.03125 2.96875,2.25-.03125,1.625-3.03125-2.25 .09375-1.625zm-8.65625.03125 2.875,2.1875v1.28125l-2.9375-2.1875 .0625-1.28125zm98.03125.09375c.00661.16314-.00684.32366.03125.5l.375.03125c-.04996.47177-.04801.94115-.0625,1.40625l-2.5625,1v-2.0625l2.21875-.875zm-76.53125.03125 23.1875,16.65625c-.22896.24249-.46055.48836-.65625.78125-.05729.29783-.14032.63704-.21875.96875l-22.3125-16.03125v-2.375zm24.65625,0 1.1875.875-1.21875.46875 .03125-1.34375zm65.5.09375c.02092,1.23484.02294,2.47601-.03125,3.71875-.47664.20349-.97763.38131-1.5.5625 .02179-1.23575.01679-2.48191 0-3.71875 .50682-.16127 1.01605-.34506 1.53125-.5625zm-107.5.15625 1.03125.75-.53125.15625-.34375,6.625 1.0625-.34375-.03125,1-1.84375.59375 .03125-8.625 .625-.15625zm94.65625.28125c.26528.07609.54255.14964.8125.21875-.0685,1.44524-.02396,2.67886.0625,3.84375-.27694-.09756-.56425-.19508-.84375-.3125-.12328-1.25494-.18089-2.52604-.03125-3.75zm-4.875.0625-.03125,2.90625-6.5625,2.3125-2.75-.78125 1.5625-1.75 7.78125-2.6875zm-100.3125.03125 3.1875,2.375v.96875l-3.21875-2.34375 .03125-1zm88.375.09375v3.46875l-.15625.0625-4.84375-1.625 5-1.90625zm27.96875,0h.03125c.01397,1.23703-.01123,2.48294-.03125,3.71875-.47993.16217-.98624.30796-1.5.4375 .02617-1.25873.02288-2.51271 0-3.78125 .49212-.10409.99921-.22089 1.5-.375zm-10.1875.0625c.47205.11793.95179.22119 1.4375.3125-.03762,1.29516.02798,2.63213.09375,3.96875-.49729-.11217-.9925-.23265-1.5-.40625-.07563-1.31389-.09356-2.61035-.03125-3.875zm-52.21875.25 .375.28125v1.75l-1.78125.6875-.03125-.03125v-2.125l1.4375-.5625zm53.875.09375c.55513.09881 1.11556.19522 1.6875.25-.02471,1.3052-.00555,2.63284.03125,3.96875-.55698-.05069-1.11393-.12726-1.6875-.25-.04814-1.32587-.06868-2.65388-.03125-3.96875zm-96.03125.03125 .25.1875-.09375.03125v.1875l-.4375-.3125 .28125-.09375zm102.90625,0c.02484,1.26684.02209,2.53381 0,3.78125-.50363.12212-1.03047.20267-1.5625.28125v-3.875c.51433-.0544 1.03773-.08189 1.5625-.1875zm-103.375.1875 .625.46875-.0625,1.78125c-.17739-.15787-.33864-.30492-.5625-.53125v-1.71875zm65.34375,0v2.03125l-10.25,4-1.84375-1.3125 12.09375-4.71875zm36.3125.03125 .03125,3.875c-.48249.06737-.96587.1026-1.46875.125v-3.90625c.47266-.00646.95515-.04727 1.4375-.09375zm-3.28125.03125c.557.04795 1.11549.06525 1.6875.0625l.03125,3.9375c-.55823.02012-1.13892-.01603-1.71875-.0625-.02719-1.32038-.02474-2.63775 0-3.9375zm-103.375.0625 2.9375,2.1875-.03125,1.59375-2.96875-2.21875 .0625-1.5625zm8.625.25 3.03125,2.3125v.78125l-3.0625-2.21875 .03125-.875zm5.1875,0 1.59375,1.375-1.59375.4375v-1.8125zm34.75,0 11.5625,8.46875-.5625,6.5-11-7.90625v-7.0625zm24.40625.0625 9.1875,3-.8125.9375-9.03125-3.09375-.09375-.65625 .75-.1875zm-66.65625.0625h.0625l1.125.8125-.21875.0625-.96875-.875zm92.09375.21875c-.01536.65122-.00402,1.29979.03125,1.96875 .00056.01062-.00057.02062 0,.03125l-2.59375,1 .03125-2 2.53125-1zm-92.375.40625 .9375.6875v1.21875l-.96875-.6875 .03125-1.21875zm15.53125.0625 22.28125,16.03125-.1875.78125-.40625-.15625c-.1006.29821-.19642.60272-.28125.90625l-14.03125-10.0625v-.5l-3.46875-2.6875 .15625-.375-2.8125-1.875-.3125.125-1.53125-1.125 .59375-.15625v-.90625zm-13.5625.5 .5625.40625 1.90625,1.40625-.53125.15625-2.5-1.8125 .5625-.15625zm64.3125.15625 .84375.28125-.84375.3125v-.59375zm-24.3125.0625v1.90625l-1.8125.6875v-1.9375l.0625.03125 1.75-.6875zm-42.96875.03125c.21965.20189.36838.3273.53125.46875l-.0625,1.625-.46875-.4375v-1.65625zm-5.09375.03125 2.96875,2.25-.03125,1.625-3.03125-2.25 .09375-1.625zm50.15625.21875-.125,5.25 .84375.5625 4.5625-2.09375-5.28125-3.71875zm20.25.0625-.03125,2.0625-8.25,3.1875c-.01694-.02916-.01351-.06491-.03125-.09375l-1.75-1.25 10.0625-3.90625zm42.6875.09375c.06633.52541.27415,1.11056-.34375,1.75-4.28285,1.55236-8.61297,2.98292-14.4375.5625-.13533-.52079-.25808-1.50673.3125-1.40625 5.85987,2.02583 9.52862.695 14.46875-.90625zm-105.625.09375 2.09375,1.5-.1875,7.8125-2.03125-1.34375 .125-7.96875zm66.65625,0 4.71875,1.5625-6.40625,2.15625-.0625-3.0625 1.75-.65625zm-68.0625.03125 .96875.75-.03125,1.46875-.96875-.75 .03125-1.46875zm14.25,0 1.46875,1.09375-.78125.1875-1.46875-1.09375 .78125-.1875zm73.6875.1875-.03125,2.6875-1.46875.5625-4.21875-1.21875 5.71875-2.03125zm-74.65625.0625 1.4375,1.09375-1.21875.28125-1.4375-1.03125 1.21875-.34375zm78.9375.28125c-.34218.6264-.62108,1.24522-.21875,2 .08443.00644.17289.04774.25.09375l-2.40625.9375v-2.09375l2.375-.9375zm-80.375.125 1.40625,1.03125-1.40625.34375-1.34375-1.03125 1.34375-.34375zm4.90625.40625 2.375,1.625-9.15625,2.90625-2.3125-1.78125 9.09375-2.75zm-6.5.03125 1.34375,1-1.40625.34375-1.3125-.96875 1.375-.375zm-5.5625.09375 1.40625,1.03125 .71875-.1875 1.25.90625-.84375.21875-2.625-1.9375 .09375-.03125zm-10.84375.1875 3.03125,2.3125v.78125l-3.0625-2.21875 .03125-.875zm5.1875,0 .46875.40625-.03125,1.3125-.4375.09375v-1.8125zm9.59375.15625 1.3125.96875-1.65625.40625-1.25-.9375 1.59375-.4375zm33.34375,0v2.09375l-1.8125.71875 .03125-2.125 1.78125-.6875zm36.34375.0625 9.59375,2.875v.625l-.8125.3125-9.875-2.59375 1.09375-1.21875zm-78.375.03125 1,.75v1.71875l-1.03125-.75 .03125-1.71875zm4.21875.09375 2.96875,2.1875v1.21875l-3.03125-2.1875 .0625-1.21875zm69.375.0625 1.46875.46875-2.625,2.9375-5.96875,2.09375-.03125-3.03125 7.15625-2.46875zm-9.21875.25v2.28125l-2.84375,1.125c-.24015-.01612-.47895-.02806-.71875-.03125-.09657-.0053-.27846.31332-.375.3125-.09072-.00077-.09681-.31426-.1875-.3125-.26183.0051-.5508.02716-.8125.03125-.06388.00338-.12371.30843-.1875.3125s-.09577-.317-.15625-.3125c-.25591.01907-.52801.06242-.78125.09375-.08257.01022-.16782.33213-.25.34375s-.14217-.29339-.21875-.28125c-.25307.04012-.50215.10147-.75.15625-.06585.01456-.09084.2656-.15625.28125s-.18074-.20548-.25-.1875c-.05441.01412-.10232.04724-.15625.0625l-.0625.125c-.01754-.2826-.10889-.56876-.25-.84375l8.15625-3.15625zm41.375.25h.03125c.0576.15653.00168.28595-.0625.40625 .00572-.1354.02374-.27036.03125-.40625zm-.125.0625c-.00923.17753-.02324.35434-.03125.53125-.15614.1712-.35089.34985-.46875.53125-.30634.22631-.63735.41787-.96875.59375 .00877-.39591.0201-.79065.03125-1.1875 .46653-.14232.96374-.28729 1.4375-.46875zm-13.1875.375c.10007.06545.20121.11448.3125.125 .02266.10386.02022.20878.03125.3125l-2.875,1.1875v-.625l2.53125-1zm11.625.125c-.01.40732-.02264.81241-.03125,1.21875-.49931.25387-1.02327.46545-1.5625.625 .01657-.47921.04663-.95756.0625-1.4375 .50718-.10825 1.01525-.2523 1.53125-.40625zm-10.75.03125c.22545.06583.45991.12935.6875.1875 .03717.33548.0577.66856.09375,1-.22011-.15352-.44912-.30158-.65625-.46875-.04869-.23038-.0813-.49145-.125-.71875zm.8125.21875c.46333.1153.93407.19962 1.40625.28125 .03453.51003.05643,1.02067.09375,1.53125-.48997-.1867-.94116-.42968-1.375-.71875-.04689-.36619-.08697-.73095-.125-1.09375zm-89.96875.03125 3.03125,2.25-.03125,1.375-3.0625-2.25 .0625-1.375zm73.3125.125 .25.0625-.25.09375v-.15625zm-58.78125.03125 2.8125,2.09375-.6875.1875-2.8125-2.0625 .6875-.21875zm83.71875,0c-.01489.48151-.04587.95861-.0625,1.4375-.48008.13581-.97125.2349-1.46875.3125v-1.5c.50823-.06162 1.01385-.14323 1.53125-.25zm-6.75.125c.55383.09189 1.12147.17678 1.6875.21875 .02214.5404.06625,1.08192.09375,1.625-.59771.00042-1.16303-.12614-1.6875-.3125-.03069-.51108-.0653-1.02011-.09375-1.53125zm-95.6875.09375 1.03125.78125-.03125,1.75-1.0625-.78125 .0625-1.75zm49.78125,0-5.03125,2.375 1.125.875 4.96875-2.5-1.0625-.75zm51,.03125v1.53125c-.48566.07136-.97891.09481-1.46875.125v-1.53125c.48777-.01597.97225-.06826 1.46875-.125zm-22.1875.03125 4.4375,1.21875-5.5,2.125-.03125-2.96875 1.09375-.375zm-60.84375.03125 2.78125,2.0625-1.0625.3125-2.78125-2.0625 1.0625-.3125zm79.78125.03125c.54847.03605 1.0963.04567 1.65625.03125v1.53125c-.53676.02987-1.06726.06465-1.59375.0625-.02077-.543-.04651-1.08369-.0625-1.625zm-20.96875.0625v.0625l-.09375.03125 .09375-.09375zm11.4375,0v.15625l-.28125-.0625 .28125-.09375zm-45.9375.15625v1.65625l.46875.34375-2.28125.90625v-2.25l.03125.03125 1.78125-.6875zm-25.625.15625 2.71875,2.0625-1.25.375-2.78125-2.03125 1.3125-.40625zm-8.78125.25 2.21875,1.875-.34375,7.875-1.9375-1.5 .0625-8.25zm68.90625.03125-.03125,3-4.8125,1.84375 4.09375-4.59375 .75-.25zm-61.6875.1875 2.71875,2.0625-1.28125.375-2.71875-2.03125 1.28125-.40625zm49.53125.03125v1.625l-.21875-.09375c-.04749-.01987-.13976.33134-.1875.3125s-.07355-.41847-.125-.4375c-.25024-.09255-.4944-.1529-.75-.21875-.0615-.01585-.15701.20185-.21875.1875-.07037-.01636-.11686-.2668-.1875-.28125-.24583-.05029-.47074-.09698-.71875-.125-.06869-.00394-.21202.19207-.28125.1875-.03783-.0025-.04241-.04033-.0625-.09375l2.75-1.0625zm-60.28125.21875 3.0625,2.3125v1.59375l-3.125-2.28125 .0625-1.625zm46.09375.09375-3.90625,1.90625 3.8125,2.9375 .09375-4.84375zm-36.90625.15625 2.6875,2.03125-1.46875.4375-2.6875-2 1.46875-.46875zm70.8125.125 2.28125.625-8.875,3.4375v-1.6875l6.59375-2.375zm-84.1875.34375 1.0625.8125v1.125l-1.09375-.78125 .03125-1.15625zm11.59375.09375 2.6875,2-.71875.21875-2.6875-2 .71875-.21875zm10.6875.40625 .3125,8.28125-8.6875,2.6875 .03125-8.625 8.34375-2.34375zm20.5.03125 1.875,1.34375-4.375,1.6875 .03125-2.09375 .03125.03125 2.4375-.96875zm29.0625,0-4.25,4.75-.875.34375c.00769-.21447-.02075-.40926-.09375-.59375l-.0625-2.625 5.28125-1.875zm-11.46875.125h.0625l-.0625.84375c-.30959-.0223-.6143-.06377-.90625-.0625v-.71875c.30128-.01394.60847-.05374.90625-.0625zm.21875,0c.32799.01792.6458.04509.96875.09375l-.125.84375c-.28974-.04285-.57053-.06937-.84375-.09375v-.84375zm-1.3125.0625-.03125.71875c-.32703.00815-.65831.02524-.96875.0625v-.71875c.33123-.03113.66738-.04526 1-.0625zm-1.1875.0625-.03125.71875c-.28708.04082-.56563.12243-.84375.1875l-.03125-.78125c.29848-.05004.60177-.09324.90625-.125zm3.65625,0c.35966.06149.71043.17537 1.0625.28125v.78125c-.38283-.086-.73949-.12906-1.09375-.1875l.03125-.875zm-51.28125.0625 2.84375,2.09375v1.21875l-2.90625-2.125 .0625-1.1875zm12.625.09375 14,10.0625c-.1091.44346-.17854.9003-.0625,1.4375l.375.03125c-.03999.37764-.04571.75241-.0625,1.125l-14.25-10.21875v-2.4375zm33.90625,0 .0625.78125c-.33923.08506-.66586.19278-1,.3125l-.03125-.28125c.26964-.2302.43044-.46209.5-.71875 .15393-.03951.311-.06475.46875-.09375zm-52.875.15625 3.125,2.375-.03125,1.6875-3.15625-2.375 .0625-1.6875zm58.84375,0c.31356.10071.63101.23418.9375.375l-.03125.625c-.29246-.07863-.5991-.15452-.875-.21875l-.03125-.78125zm-7.90625.4375 .65625.46875c.04118-.02507.0559-.0681.09375-.09375-.00487.07256.00346.14583 0,.21875-.31581.12128-.64881.2558-.96875.40625l.0625-.9375 .15625-.0625zm9,0 .25.125c.20474.26367.33234.45884.375.65625l-.6875-.1875 .0625-.59375zm-42.53125.25-6.46875,1.8125-.34375,6.625 6.5625-2.1875 .25-6.25zm37.21875.15625c.60745-.03162 1.21394-.01819 1.8125.03125 1.39123.1149 2.73917.40963 4.09375.75-.05399.16006-.19188.29847-.34375.4375-.03276.02999.0364.43918 0,.46875s-.17579-.31278-.21875-.28125c-.33343.30305-.76721.45704-1.15625.65625-.05907.0233-.06511.32082-.125.34375s-.15932-.24087-.21875-.21875c-.46676.17375-.95707.33294-1.4375.46875-.04714.01333.01597.26832-.03125.28125-.04407.01207-.17462-.23047-.21875-.21875-.40951.10882-.83928.20375-1.25.28125-.0528.00996-.1035.24058-.15625.25s-.10661-.19588-.15625-.1875c-.42244.07136-.83466.10056-1.25.125-.06493.00382-.09162.27856-.15625.28125-.07536.00314-.17508-.25158-.25-.25-.43686.00922-.86452-.01499-1.28125-.0625-.06766-.00771-.15176.29055-.21875.28125s-.11947-.33249-.1875-.34375c-.41513-.0687-.83668-.14515-1.21875-.28125-.01136-.00405-.04714.01968-.0625.03125l.125-1.90625c1.3178-.58953 2.63129-.87113 3.90625-.9375zm-37.53125.03125-.03125.4375-.40625-.3125 .4375-.125zm23.59375,0 1.875,1.34375-6.40625,2.5v-2.0625l4.53125-1.78125zm-24.125.15625 .5.4375-.03125,1.125-1.78125-1.15625 1.3125-.40625zm-10.28125.1875 2.875,2.1875v1.28125l-2.9375-2.1875 .0625-1.28125zm66.1875.0625v1.71875l-7.875,3.0625 2.5-2.8125 5.375-1.96875zm-57.4375.21875 2,1.25-.0625,1.9375-3.78125-2.625 1.84375-.5625zm-15.125.46875 3.1875,2.375v.96875l-3.21875-2.34375 .03125-1zm13.125.125-.03125.0625 3.96875,2.71875-.0625,1.84375-5.5-4.125 1.625-.5zm47.9375,0c.14503.50764.25283,1.00992.34375,1.5-.26683.12735-.56046.24909-.84375.375-.0331-.44923-.07178-.89696-.125-1.34375 .24606-.16182.45573-.34608.625-.53125zm-18.21875.25 1.9375,1.40625c-.2179-.04321-.4384-.10039-.65625-.125-.06869-.00394-.18077.19207-.25.1875-.07566-.005-.08017-.21364-.15625-.21875-.24015-.01612-.5102-.02806-.75-.03125-.09657-.0053-.24721.31332-.34375.3125-.09071-.00077-.09681-.31426-.1875-.3125-.26183.0051-.5508.02716-.8125.03125-.06388.00338-.12371.27718-.1875.28125s-.12702-.28575-.1875-.28125c-.25591.01907-.49676.06242-.75.09375-.08257.01022-.16782.33213-.25.34375s-.14217-.29339-.21875-.28125c-.25306.04012-.50215.07022-.75.125-.06584.01456-.12209.29685-.1875.3125s-.14949-.20548-.21875-.1875c-.24381.06326-.4825.10757-.71875.1875-.06247.02113-.09438.32139-.15625.34375s-.16045-.2099-.21875-.1875c-.2754.10582-.55125.21138-.8125.34375-.08013.0406-.10886.39427-.1875.4375-.08268.04546-.20029-.20469-.28125-.15625s-.16851.10307-.25.15625v-.25l.0625.03125 1.46875-.5625 .375-.15625 4.6875-1.84375zm-23.78125.09375 14.25,10.25c-.02439.68267-.03353,1.36407 0,2.0625l-14.21875-10.21875-.03125-2.09375zm-7.75.25 5.53125,4.125-2,.5625c-1.71447-1.40631-2.04702-1.46812-3.53125-2.96875v-1.71875zm48.96875.03125c.04777.43689.09462.87413.125,1.3125-.46912.20522-.95819.44035-1.46875.625-.01458-.42771-.04007-.85316-.0625-1.28125l.5-.15625c.32616-.16001.63289-.33215.90625-.5zm-53.96875.09375 2.9375,2.1875-.03125,1.59375-2.96875-2.21875 .0625-1.5625zm55.59375.46875 .03125.0625h-.03125c-.00242-.02028.00245-.04221 0-.0625zm-3.1875.125c.02217.43811.04828.87439.0625,1.3125-.49086.17307-1.00568.30107-1.53125.4375-.01792-.4362-.03203-.87485-.0625-1.3125 .54828-.14265 1.05851-.29546 1.53125-.4375zm2.96875.4375c.49732-.05952 1.0197.35347.46875,1.25-1.01051.6772-2.0751,1.17438-3.1875,1.53125-.00015-.01038.00016-.02087 0-.03125l-.125.0625c-2.84512.88352-5.85085.86042-8.34375.40625l.09375-1.46875c3.08817.56334 6.7914.43489 11.09375-1.75zm-4.65625.03125c.02699.44172.04484.87458.0625,1.3125-.48681.12144-.98614.20506-1.5.28125v-1.28125c.493-.09632.97264-.19405 1.4375-.3125zm-11.96875.0625 .0625.03125c-.02519.02327-.04271.0671-.0625.0625s-.04534-.02986-.0625-.0625l.0625-.03125zm10.375.28125v1.28125c-.46923.0643-.94774.10882-1.4375.125v-1.1875c.48602-.05003.95658-.12852 1.4375-.21875zm-13,.03125h.0625l-.0625.84375c-.30959-.0223-.6143-.06377-.90625-.0625v-.71875c.30128-.01394.60847-.05374.90625-.0625zm.21875,0c.32799.01792.6458.04509.96875.09375l-.125.84375c-.28975-.04285-.57053-.06937-.84375-.09375v-.84375zm8,0c.45478.12022.93595.18608 1.4375.21875-.02567.36301-.04379.72751-.0625,1.09375-.47476-.05583-.95002-.16425-1.4375-.28125l.0625-1.03125zm-9.3125.0625-.03125.71875c-.32703.00815-.65831.02524-.96875.0625v-.71875c.33123-.03113.66738-.04526 1-.0625zm-1.1875.0625-.03125.71875c-.28708.04082-.56563.12243-.84375.1875l-.03125-.78125c.29848-.05004.60177-.09324.90625-.125zm3.65625,0c.35966.06149.71043.17537 1.0625.28125v.78125c-.38283-.086-.73949-.12906-1.09375-.1875l.03125-.875zm10.03125.09375v1.1875c-.52939.01125-1.07387-.00573-1.625-.0625 .01569-.36552.04385-.73004.0625-1.09375 .50728.0223 1.03527.01718 1.5625-.03125zm-14.78125.0625 .0625.78125c-.33923.08506-.66586.19278-1,.3125l-.03125-.875c.31465-.09066.64078-.15845.96875-.21875zm-27.71875.09375c1.30349,1.19811 1.79204,1.64889 3.25,2.8125l-1.46875.40625-1.78125-1.5625v-1.65625zm-5.09375.03125 2.96875,2.25-.03125,1.625-3.03125-2.25 .09375-1.625zm12.84375.03125 14.21875,10.25c-.03996-.0158-.11623.14115-.15625.125-.03546.06326-.05962.12422-.09375.1875l-13.96875-10.09375v-.46875zm25.9375,0c.31355.10071.63101.23418.9375.375l-.03125.625c-.29247-.07863-.5991-.15452-.875-.21875l-.03125-.78125zm18.0625.03125-.5.5625v-.25c.01382-.05005.02096-.10861.03125-.15625l.46875-.15625zm-25.15625.09375c-.0144.30237-.0481.60277-.0625.90625-.31581.12128-.64881.2558-.96875.40625v-.90625c.33123-.16207.67399-.29553 1.03125-.40625zm8.1875.3125 .25.125c.20474.26367.33234.45884.375.65625l-.6875-.1875 .0625-.59375zm-9.46875.21875v.90625c-.34503.16903-.70282.36206-1.0625.5625l-.03125-.71875c.33505-.30629.70599-.53809 1.09375-.75zm25.65625.125-.03125.25-.1875.5c.00329-.20873.00413-.41425 0-.625 .07735-.03864.14658-.08522.21875-.125zm-21.5.0625c.60745-.03162 1.21394-.01819 1.8125.03125 1.39122.1149 2.73917.40963 4.09375.75-.05399.16006-.16063.29847-.3125.4375-.03276.02999.0364.43918 0,.46875s-.17579-.31278-.21875-.28125c-.33343.30305-.76721.42579-1.15625.625-.05908.0233-.09636.32082-.15625.34375s-.12807-.20962-.1875-.1875c-.46676.17375-.95707.33294-1.4375.46875-.04714.01333.01597.23707-.03125.25-.04407.01207-.17462-.19922-.21875-.1875-.40951.10882-.83928.20375-1.25.28125-.05279.00996-.1035.24058-.15625.25s-.10661-.19588-.15625-.1875c-.42244.07136-.83466.10056-1.25.125-.06492.00382-.09162.27856-.15625.28125-.07536.00314-.17508-.25158-.25-.25-.43687.00922-.89577-.01499-1.3125-.0625-.06765-.00771-.12051.29055-.1875.28125s-.15072-.33249-.21875-.34375c-.41513-.0687-.80543-.1764-1.1875-.3125-.06657-.02372-.21585.30713-.28125.28125s-.05588-.40703-.125-.4375c-.37014-.16317-.70744-.35316-1.03125-.59375-.03026-.02248-.18894.17944-.21875.15625-.03496-.0272.03433-.28432 0-.3125 1.90604-1.25253 3.77141-1.78013 5.59375-1.875zm6.8125.21875 1.21875.90625c-.38299-.1045-.75937-.22347-1.09375-.34375-.03538-.18899-.08169-.37437-.125-.5625zm14,.03125c.04643,1.32888-.06137,2.61517-.34375,3.875-.21713.10127-.45872.18207-.6875.28125 .05704-1.24236.08226-2.4847.0625-3.71875 .32476-.14061.64083-.27295.96875-.4375zm-26.21875.46875-.03125.6875c-.13653.07758-.26662.13696-.40625.21875-.06046-.05669-.12934-.09613-.1875-.15625 .19022-.27066.40433-.53108.625-.75zm25.09375.03125c.02093,1.23484.02294,2.47601-.03125,3.71875-.47664.20349-.97763.38131-1.5.5625 .0218-1.23575.0168-2.48191 0-3.71875 .50683-.16127 1.01605-.34506 1.53125-.5625zm-54.34375.25 3.03125,2.3125v.78125l-3.0625-2.21875 .03125-.875zm5.1875,0 1.59375,1.375-1.59375.4375v-1.8125zm35.8125.25c.14502.50764.25283,1.00992.34375,1.5-.26684.12735-.56046.24909-.84375.375-.0331-.44923-.07178-.89696-.125-1.34375 .24606-.16182.45573-.34608.625-.53125zm.6875,0c.20657.05726.41836.10334.625.15625-.02108.44476-.02989.84547-.03125,1.25-.05992-.08277-.11341-.1644-.1875-.25-.07887.03961-.16936.0544-.25.09375-.04919-.41189-.08832-.83394-.15625-1.25zm10.96875.125h.03125c.01398,1.23702-.01123,2.48294-.03125,3.71875-.47993.16217-.98624.30796-1.5.4375 .02617-1.25873.02289-2.51271 0-3.78125 .49213-.10409.99921-.22089 1.5-.375zm-10.1875.0625c.32848.08206.66466.14998 1,.21875l.4375.3125c-.02499,1.22746.03163,2.48764.09375,3.75-.49729-.11217-.99249-.23265-1.5-.40625-.01741-.30243-.02023-.60584-.03125-.90625 .22937-.6511.21495-1.09969-.03125-1.53125 .00189-.48515.00776-.96062.03125-1.4375zm1.875.375c.48451.0849.97089.17107 1.46875.21875-.0247,1.30519-.00555,2.63284.03125,3.96875-.55697-.05069-1.11392-.12726-1.6875-.25-.04393-1.21015-.05638-2.4229-.03125-3.625l.1875.125 .03125-.4375zm6.65625,0c.02484,1.26683.02209,2.53381 0,3.78125-.50363.12212-1.03047.20267-1.5625.28125v-3.875c.51434-.0544 1.03774-.08189 1.5625-.1875zm-10.78125.0625c.04777.43689.09462.87413.125,1.3125-.46912.20522-.95819.44035-1.46875.625-.01458-.42771-.04007-.85316-.0625-1.28125l.5-.15625c.32616-.16001.63289-.33215.90625-.5zm9.0625.15625 .03125,3.875c-.48248.06737-.96586.1026-1.46875.125v-3.90625c.47266-.00646.95515-.04727 1.4375-.09375zm-3.28125.03125c.557.04795 1.1155.06525 1.6875.0625l.03125,3.9375c-.55823.02012-1.13892-.01603-1.71875-.0625-.02719-1.32038-.02474-2.63775 0-3.9375zm-17.4375.1875c.06605.07113.14843.1225.21875.1875-.07873.49234-.16234.95099-.21875,1.40625l-.46875-.1875c.13444-.46072.28014-.93953.46875-1.40625zm.34375.3125c.39385.33177.84936.57523 1.34375.75-.04718.35085-.06147.70569-.09375,1.0625-.46304-.12282-.93169-.28607-1.40625-.46875 .04966-.44959.08645-.90176.15625-1.34375zm9.75,0c.02216.43811.04828.87439.0625,1.3125-.49086.17307-1.00568.30107-1.53125.4375-.01793-.4362-.03203-.87485-.0625-1.3125 .54828-.14265 1.05851-.29546 1.53125-.4375zm2.96875.4375c.49732-.05952 1.0197.35347.46875,1.25-1.01051.6772-2.0751,1.17438-3.1875,1.53125-.00016-.01038.00016-.02087 0-.03125l-.125.0625c-4.22478,1.31197-8.85767.58507-11.5625-.5-.2464-.3675-.04599-1.09204.21875-1.34375 3.56702,1.2575 8.34402,1.99878 14.1875-.96875zm-4.65625.03125c.02699.44172.04484.87458.0625,1.3125-.48681.12144-.98614.20506-1.5.28125v-1.28125c.493-.09632.97264-.19405 1.4375-.3125zm-6.5625.34375c.50651.16129 1.05556.21291 1.625.25-.02567.36301-.04379.72751-.0625,1.09375-.53571-.063-1.0709-.17393-1.625-.3125 .02598-.3443.0257-.6883.0625-1.03125zm4.96875,0v1.28125c-.46923.0643-.94774.10882-1.4375.125v-1.1875c.48601-.05003.95658-.12852 1.4375-.21875zm-1.59375.25v1.1875c-.5294.01125-1.07387-.00573-1.625-.0625 .01569-.36552.04385-.73004.0625-1.09375 .50728.0223 1.03527.01718 1.5625-.03125zm21.84375.71875c.06633.52541.3054,1.11056-.3125,1.75-4.01684,1.45595-8.08099,2.77274-13.375.9375 .04664-.49259.08161-.99676.09375-1.5 5.35802,1.6059 8.90495.33228 13.59375-1.1875zm-13.28125.25c.0096.21961.0156.44541.03125.65625l-.34375-.125c.00025-.12571.00248-.24855 0-.375 .10725-.05358.21039-.10004.3125-.15625zm-.78125.34375c.04643,1.32889-.06137,2.61517-.34375,3.875-.21713.10127-.45872.18207-.6875.28125 .05703-1.24236.08226-2.4847.0625-3.71875 .32476-.14061.64083-.27295.96875-.4375zm-1.125.5c.02092,1.23484.02294,2.47601-.03125,3.71875-.47664.20349-.97763.38131-1.5.5625 .0218-1.23575.0168-2.4819 0-3.71875 .50683-.16127 1.01605-.34506 1.53125-.5625zm-12.84375.4375c.26529.07609.54256.14964.8125.21875-.0685,1.44524-.02396,2.67886.0625,3.84375-.27694-.09756-.56425-.19508-.84375-.3125-.12327-1.25494-.18088-2.52603-.03125-3.75zm11.15625.1875h.03125c.01397,1.23703-.01123,2.48294-.03125,3.71875-.47993.16217-.98624.30796-1.5.4375 .02617-1.25873.02289-2.5127 0-3.78125 .49213-.10408.99921-.22089 1.5-.375zm-10.1875.0625c.47205.11794.9518.2212 1.4375.3125-.03761,1.29516.02798,2.63213.09375,3.96875-.49729-.11217-.99249-.23265-1.5-.40625-.07562-1.31389-.09355-2.61034-.03125-3.875zm1.65625.34375c.55513.09881 1.11556.19522 1.6875.25-.0247,1.3052-.00555,2.63284.03125,3.96875-.55698-.05069-1.11392-.12726-1.6875-.25-.04814-1.32587-.06867-2.65387-.03125-3.96875zm6.875.03125c.02484,1.26684.02209,2.53381 0,3.78125-.50363.12212-1.03047.20267-1.5625.28125v-3.875c.51434-.0544 1.03774-.08189 1.5625-.1875zm-1.71875.21875 .03125,3.875c-.48248.06737-.96586.1026-1.46875.125v-3.90625c.47266-.00646.95515-.04727 1.4375-.09375zm-3.28125.03125c.557.04795 1.1155.06525 1.6875.0625l.03125,3.9375c-.55823.02012-1.13892-.01603-1.71875-.0625-.02719-1.32038-.02474-2.63774 0-3.9375zm22.21875,0h.03125c.05761.15653.00169.28594-.0625.40625 .00572-.13541.02374-.27036.03125-.40625zm-.125.0625c-.00922.17753-.02324.35434-.03125.53125-.15614.1712-.35088.34985-.46875.53125-.30634.22631-.63735.41787-.96875.59375 .00877-.39591.0201-.79065.03125-1.1875 .46654-.14232.96375-.28729 1.4375-.46875zm-1.5625.5c-.01.40732-.02264.81241-.03125,1.21875-.49931.25387-1.02327.46545-1.5625.625 .01657-.47921.04664-.95756.0625-1.4375 .50719-.10825 1.01525-.2523 1.53125-.40625zm-10.75.03125h.03125l.65625.1875c.03717.33548.05771.66856.09375,1-.22011-.15352-.44912-.30158-.65625-.46875-.04869-.23038-.0813-.49145-.125-.71875zm.8125.21875c.46333.1153.93407.19962 1.40625.28125 .03454.51003.05643,1.02067.09375,1.53125-.48996-.1867-.94116-.42968-1.375-.71875-.04689-.36619-.08697-.73095-.125-1.09375zm8.28125.1875c-.01489.48151-.04586.95861-.0625,1.4375-.48007.13581-.97125.2349-1.46875.3125v-1.5c.50824-.06162 1.01386-.14323 1.53125-.25zm-6.75.125c.55383.09189 1.12147.17678 1.6875.21875 .02215.5404.06625,1.08192.09375,1.625-.59771.00042-1.16302-.12614-1.6875-.3125-.03068-.51108-.0653-1.02011-.09375-1.53125zm5.09375.125v1.53125c-.48566.07136-.97891.09481-1.46875.125v-1.53125c.48778-.01597.97225-.06826 1.46875-.125zm-3.25.09375c.54847.03605 1.09631.04567 1.65625.03125v1.53125c-.53676.02987-1.06726.06465-1.59375.0625-.02077-.543-.04651-1.08369-.0625-1.625zm-4.3125.90625c.06633.52541.27415,1.14181-.34375,1.78125-4.28285,1.55236-8.61297,2.98292-14.4375.5625-.13533-.52079-.25808-1.50673.3125-1.40625 5.85987,2.02583 9.52862.66375 14.46875-.9375zm-1.34375,2.4375h.03125c.05761.15653.00169.28595-.0625.40625 .00572-.1354.02374-.27036.03125-.40625zm-.125.0625c-.00923.17753-.02324.35434-.03125.53125-.15614.1712-.35088.34985-.46875.53125-.30634.22631-.63735.41787-.96875.59375 .00877-.39591.0201-.79065.03125-1.1875 .46653-.14232.96375-.28729 1.4375-.46875zm-1.5625.5c-.01.40732-.02264.81241-.03125,1.21875-.49931.25387-1.02327.46545-1.5625.625 .01657-.47921.04664-.95756.0625-1.4375 .50718-.10825 1.01525-.2523 1.53125-.40625zm-10.75.03125c.22545.06583.45991.12935.6875.1875 .03717.33548.05771.66856.09375,1-.22011-.15352-.44912-.30158-.65625-.46875-.04869-.23038-.0813-.49145-.125-.71875zm.8125.21875c.46333.1153.93407.19962 1.40625.28125 .03454.51003.05643,1.02067.09375,1.53125-.48997-.1867-.94116-.42968-1.375-.71875-.04689-.36619-.08697-.73095-.125-1.09375zm8.28125.1875c-.01489.48151-.04586.95861-.0625,1.4375-.48008.13581-.97125.2349-1.46875.3125v-1.5c.50823-.06162 1.01386-.14323 1.53125-.25zm-6.75.125c.55383.09189 1.12147.17678 1.6875.21875 .02215.5404.06625,1.08192.09375,1.625-.59771.00042-1.16302-.12614-1.6875-.3125-.03068-.51108-.0653-1.02011-.09375-1.53125zm5.09375.125v1.53125c-.48566.07136-.97891.09481-1.46875.125v-1.53125c.48778-.01597.97225-.06826 1.46875-.125zm-3.25.09375c.54847.03605 1.09631.04567 1.65625.03125v1.53125c-.53676.02987-1.06726.06465-1.59375.0625-.02077-.543-.04651-1.08369-.0625-1.625z" fill-rule="evenodd"/>
</svg>
