<svg xmlns="http://www.w3.org/2000/svg" viewBox="0 0 512 512"><g class="" transform="translate(1,0)" style=""><path d="M256 18.365 50.14 136 256 253.635 461.86 136 256 18.365zm-154 168L50.14 216 256 333.635 461.86 216 410 186.365l-154 88-154-88zm0 80L50.14 296 256 413.635 461.86 296 410 266.365l-154 88-154-88zm0 80L50.14 376 256 493.635 461.86 376 410 346.365l-154 88-154-88z" fill="#ffffff" fill-opacity="1" transform="translate(512, 0) scale(-1, 1) rotate(0, 256, 256) skewX(0) skewY(0)"></path></g></svg>